<?xml version="1.0" standalone="no"?>
<!DOCTYPE svg PUBLIC "-//W3C//DTD SVG 1.1//EN" "http://www.w3.org/Graphics/SVG/1.1/DTD/svg11.dtd" >
<svg xmlns="http://www.w3.org/2000/svg" xmlns:xlink="http://www.w3.org/1999/xlink" version="1.1">
<metadata>
Created by FontForge 20170731 at Wed Jan  4 18:34:59 2017
 By Aleksey,,,
Copyright (c) 2011-2015, Julieta Ulanovsky (julieta.ulanovsky@gmail.com), Design Modifications and new weights 2015, Jasper @ Cannot Into Space Fonts
</metadata>
<defs>
<font id="TruenoExBdIt" horiz-adv-x="683" >
  <font-face 
    font-family="Trueno"
    font-weight="800"
    font-style="italic"
    font-stretch="normal"
    units-per-em="1000"
    panose-1="0 0 9 0 0 0 0 0 0 0"
    ascent="800"
    descent="-200"
    x-height="544"
    cap-height="701"
    bbox="-274 -320 1510.29 978"
    underline-thickness="50"
    underline-position="-200"
    unicode-range="U+0020-FB02"
  />
<missing-glyph horiz-adv-x="500" 
d="M0 0l101 700h500l-101 -700h-500zM64 95l206 255l-133 255zM87 50h340l-133 255zM174 650l133 -255l207 255h-340zM330 350l134 -255l73 510z" />
    <glyph glyph-name="fi" unicode="fi" horiz-adv-x="733" 
d="M81 394l19 130h74l6 42q12 86 79 136t164 49q63 0 107 -18l-30 -160q-29 20 -60 20q-25 1 -42.5 -12.5t-21.5 -38.5l-2 -18h113l-19 -130h-113l-57 -394h-200l57 394h-74zM470 0l78 544h202l-78 -544h-202zM569 699q7 46 40 75t79 29t71 -29t18 -75t-40 -75t-79 -29
t-71 29t-18 75z" />
    <glyph glyph-name="fl" unicode="fl" horiz-adv-x="746" 
d="M81 395l19 129h74l6 45q12 83 79 133.5t165 49.5q60 0 106 -17l-29 -160q-25 20 -56 20q-28 1 -46.5 -14.5t-22.5 -42.5l-2 -14h114l-20 -129h-113l-57 -395h-200l57 395h-74zM478 0l107 742h202l-107 -742h-202z" />
    <glyph glyph-name=".notdef" horiz-adv-x="500" 
d="M0 0l101 700h500l-101 -700h-500zM64 95l206 255l-133 255zM87 50h340l-133 255zM174 650l133 -255l207 255h-340zM330 350l134 -255l73 510z" />
    <glyph glyph-name=".null" horiz-adv-x="0" 
 />
    <glyph glyph-name="nonmarkingreturn" horiz-adv-x="333" 
 />
    <glyph glyph-name="space" unicode=" " horiz-adv-x="219" 
 />
    <glyph glyph-name="exclam" unicode="!" horiz-adv-x="276" 
d="M56 87q5 41 35.5 67t71.5 26q42 0 64.5 -26t17.5 -67q-7 -42 -37 -68.5t-72 -26.5q-41 0 -64 26.5t-16 68.5zM117 250l3 267l26 182h192l-26 -182l-74 -267h-121z" />
    <glyph glyph-name="quotedbl" unicode="&#x22;" horiz-adv-x="478" 
d="M119 411l42 290h151l-42 -290h-151zM326 411l42 290h151l-42 -290h-151z" />
    <glyph glyph-name="numbersign" unicode="#" horiz-adv-x="741" 
d="M30 146l37 138h132l34 125h-131l35 138h133l41 154h144l-41 -154h120l41 154h145l-41 -154h132l-36 -138h-133l-34 -125h132l-37 -138h-132l-39 -146h-145l39 146h-120l-39 -146h-144l39 146h-132zM343 284h120l34 125h-120z" />
    <glyph glyph-name="dollar" unicode="$" horiz-adv-x="655" 
d="M27 105l101 158q47 -45 118.5 -76t126.5 -31q73 0 79 47q3 21 -15 36t-48.5 24.5t-68.5 18.5t-75 24t-66 36.5t-44 59t-8 87.5q12 80 71 135.5t152 75.5l23 158h151l-22 -151q138 -13 229 -78l-100 -160q-53 32 -116 55t-106 23q-58 0 -64 -38q-3 -21 15.5 -35.5t49 -24
t68.5 -19.5t74.5 -26t65.5 -38.5t43.5 -61.5t7.5 -90q-14 -95 -87.5 -150.5t-181.5 -66.5l-23 -157h-151l23 163q-135 25 -222 102z" />
    <glyph glyph-name="percent" unicode="%" horiz-adv-x="1048" 
d="M99 492q14 98 76.5 155t154.5 57t138 -57.5t32 -154.5q-14 -98 -77 -156.5t-154 -58.5q-92 0 -138 58.5t-32 156.5zM182 0l594 701h188l-593 -701h-189zM226 492q-8 -50 8 -78.5t50 -28.5t57.5 28.5t31.5 78.5q7 49 -8.5 77.5t-49.5 28.5t-58 -28.5t-31 -77.5zM650 210
q14 98 77 155.5t155 57.5t137.5 -58t31.5 -155q-14 -98 -76.5 -156t-154.5 -58t-138 58t-32 156zM777 210q-7 -50 9 -78.5t50 -28.5t57.5 29t30.5 78q8 49 -7.5 77.5t-49.5 28.5t-58 -28.5t-32 -77.5z" />
    <glyph glyph-name="ampersand" unicode="&#x26;" horiz-adv-x="697" 
d="M83 198q9 63 50.5 106t108.5 78q-44 79 -33 153q12 80 75 127.5t159 47.5q93 0 146 -46t43 -117q-9 -66 -58.5 -109.5t-130.5 -82.5q35 -45 77 -94q32 48 56 104l113 -91q-36 -70 -77 -118l87 -93l-116 -98l-81 90q-98 -64 -202 -64q-108 0 -169 58.5t-48 148.5zM249 213
q-6 -37 16.5 -59.5t62.5 -22.5q41 0 85 25q-73 86 -107 130q-52 -32 -57 -73zM366 536q-6 -39 17 -86q84 44 91 95q3 24 -9.5 38t-35.5 14q-25 0 -42 -17t-21 -44z" />
    <glyph glyph-name="quotesingle" unicode="'" horiz-adv-x="271" 
d="M119 411l42 290h151l-42 -290h-151z" />
    <glyph glyph-name="parenleft" unicode="(" horiz-adv-x="359" 
d="M98 309q35 247 193 433h181q-151 -199 -184 -433q-35 -234 59 -433h-181q-105 186 -68 433z" />
    <glyph glyph-name="parenright" unicode=")" horiz-adv-x="365" 
d="M-2 -124q150 198 185 433q33 234 -60 433h181q104 -185 69 -433q-37 -248 -194 -433h-181z" />
    <glyph glyph-name="asterisk" unicode="*" horiz-adv-x="394" 
d="M93 500l88 45l-75 43l62 88l71 -49l12 92h100l-16 -92l85 47l38 -86l-88 -43l75 -45l-62 -87l-73 48l-10 -91h-100l17 92l-86 -47z" />
    <glyph glyph-name="plus" unicode="+" horiz-adv-x="515" 
d="M69 265l18 126h164l24 164h126l-24 -164h163l-18 -126h-163l-23 -164h-126l23 164h-164z" />
    <glyph glyph-name="comma" unicode="," horiz-adv-x="254" 
d="M7 -104l66 118q-34 25 -27 72q6 41 37 67.5t72 26.5q39 0 62.5 -25t17.5 -68q-5 -36 -36 -74l-98 -117h-94z" />
    <glyph glyph-name="hyphen" unicode="-" horiz-adv-x="377" 
d="M87 245l18 126h273l-18 -126h-273z" />
    <glyph glyph-name="period" unicode="." horiz-adv-x="255" 
d="M46 87q5 41 35.5 67t71.5 26q42 0 64.5 -26t17.5 -67q-7 -42 -37 -68.5t-72 -26.5q-41 0 -64 26.5t-16 68.5z" />
    <glyph glyph-name="slash" unicode="/" horiz-adv-x="364" 
d="M-59 -107l458 915h169l-458 -915h-169z" />
    <glyph glyph-name="zero" unicode="0" horiz-adv-x="708" 
d="M89 351q25 172 119.5 264t248.5 92q152 0 221 -92.5t44 -263.5q-25 -172 -120.5 -264.5t-247.5 -92.5q-154 0 -222.5 92t-42.5 265zM302 351q-16 -112 1 -159t73 -47q55 0 85.5 47t46.5 159t-1 158.5t-72 46.5q-57 0 -87 -46.5t-46 -158.5z" />
    <glyph glyph-name="one" unicode="1" horiz-adv-x="425" 
d="M81 535l24 166h334l-101 -701h-209l77 535h-125z" />
    <glyph glyph-name="two" unicode="2" horiz-adv-x="605" 
d="M40 0l19 132l283 258q68 63 74 103q4 23 -10.5 35.5t-43.5 12.5q-83 0 -203 -89l-56 150q168 108 315 108q107 0 169.5 -52t49.5 -135q-14 -99 -168 -236l-140 -125h271l-23 -162h-537z" />
    <glyph glyph-name="three" unicode="3" horiz-adv-x="567" 
d="M7 80l105 158q68 -92 161 -92q89 0 98 74q5 37 -14.5 55t-63.5 18h-120l16 110l164 142h-243l22 154h480l-17 -117l-184 -161l30 -7q71 -14 108 -64.5t26 -127.5q-15 -103 -99 -167t-208 -64q-76 0 -146 24.5t-115 64.5z" />
    <glyph glyph-name="four" unicode="4" horiz-adv-x="650" 
d="M47 143l19 138l273 420h199l-257 -405h119l20 141h193l-20 -141h92l-22 -153h-92l-21 -143h-193l21 143h-331z" />
    <glyph glyph-name="five" unicode="5" horiz-adv-x="604" 
d="M20 82l104 157q66 -92 161 -92q44 0 70 19.5t30 56.5q5 34 -15 52t-64 18q-111 0 -195 -2l59 410h476l-23 -162h-285l-13 -91h45q123 0 189 -57.5t52 -153.5q-16 -112 -104 -179t-220 -67q-71 0 -144 25t-123 66z" />
    <glyph glyph-name="six" unicode="6" horiz-adv-x="641" 
d="M87 342q24 167 129.5 267.5t257.5 100.5q62 0 124 -16.5t103 -43.5l-100 -146q-54 46 -137 46q-149 0 -169 -148q61 63 163 63q103 0 156 -63t38 -166q-16 -112 -99.5 -178.5t-204.5 -66.5q-145 0 -214.5 94.5t-46.5 256.5zM290 235q-5 -36 13.5 -57t60.5 -21q84 0 95 80
q5 37 -13 56.5t-58 19.5q-42 0 -67.5 -21t-30.5 -57z" />
    <glyph glyph-name="seven" unicode="7" horiz-adv-x="607" 
d="M109 539l23 162h564l-20 -141l-330 -560h-220l318 539h-152l-14 -98z" />
    <glyph glyph-name="eight" unicode="8" horiz-adv-x="650" 
d="M57 195q8 58 50 106.5t104 73.5q-38 26 -57 66t-13 82q13 85 90.5 136t194.5 51q118 0 181.5 -52.5t51.5 -140.5q-7 -42 -34.5 -80.5t-67.5 -61.5q50 -25 75 -72.5t18 -104.5q-14 -95 -102.5 -151t-223.5 -56t-207.5 55.5t-59.5 148.5zM256 216q-5 -37 17.5 -56t71.5 -19
q100 0 111 75q5 38 -17.5 57.5t-71.5 19.5q-100 0 -111 -77zM314 506q-5 -32 14.5 -48.5t60.5 -16.5q84 0 93 65q9 67 -74 67q-85 0 -94 -67z" />
    <glyph glyph-name="nine" unicode="9" horiz-adv-x="641" 
d="M42 51l100 146q54 -46 137 -46q149 0 169 148q-61 -63 -163 -63q-103 0 -156 63t-38 166q16 112 99.5 178.5t204.5 66.5q145 0 214.5 -94.5t46.5 -256.5q-24 -167 -129.5 -267.5t-257.5 -100.5q-62 0 -124 16.5t-103 43.5zM284 464q-5 -37 13 -56.5t58 -19.5
q42 0 67.5 21t30.5 57t-13.5 57t-60.5 21q-83 0 -95 -80z" />
    <glyph glyph-name="colon" unicode=":" horiz-adv-x="254" 
d="M46 87q5 41 35.5 67t71.5 26q42 0 64.5 -26t17.5 -67q-7 -42 -37 -68.5t-72 -26.5q-41 0 -64 26.5t-16 68.5zM88 384q6 41 36.5 67t71.5 26q42 0 64.5 -26t16.5 -67q-6 -42 -36 -68.5t-72 -26.5q-41 0 -64 26.5t-17 68.5z" />
    <glyph glyph-name="semicolon" unicode=";" horiz-adv-x="255" 
d="M7 -104l66 118q-34 25 -27 72q6 41 37 67.5t72 26.5q39 0 62.5 -25t17.5 -68q-5 -36 -36 -74l-98 -117h-94zM88 384q6 41 36.5 67t71.5 26q42 0 64.5 -26t16.5 -67q-6 -42 -36 -68.5t-72 -26.5q-41 0 -64 26.5t-17 68.5z" />
    <glyph glyph-name="less" unicode="&#x3c;" horiz-adv-x="515" 
d="M66 243l23 161l480 185l-20 -141l-341 -124l305 -125l-21 -141z" />
    <glyph glyph-name="equal" unicode="=" horiz-adv-x="515" 
d="M53 156l19 126h453l-19 -126h-453zM85 374l18 126h453l-18 -126h-453z" />
    <glyph glyph-name="greater" unicode="&#x3e;" horiz-adv-x="515" 
d="M41 67l20 141l341 124l-305 125l20 141l427 -185l-24 -161z" />
    <glyph glyph-name="question" unicode="?" horiz-adv-x="486" 
d="M69 464q17 115 89.5 179t184.5 64q105 0 157.5 -46.5t39.5 -131.5q-6 -41 -26.5 -75t-46 -57.5t-51 -45t-45 -48.5t-23.5 -58h-151q7 51 31 90.5t48.5 59.5t46.5 46.5t26 54.5q9 52 -48 52q-65 0 -77 -84h-155zM154 87q5 41 35 67t71 26q42 0 64.5 -26t17.5 -67
q-7 -42 -37 -68.5t-72 -26.5q-41 0 -63.5 26.5t-15.5 68.5z" />
    <glyph glyph-name="at" unicode="@" horiz-adv-x="888" 
d="M58 268q17 119 88.5 218t179 156t225.5 57q180 0 282 -120.5t76 -303.5q-16 -110 -80 -177t-148 -67q-95 0 -107 75v10q-62 -75 -151 -75q-85 0 -139 64.5t-40 165.5q14 97 79 165t153 68q34 0 62.5 -14t40 -26.5t12.5 -17.5l7 46h129l-48 -330q-7 -46 28 -46
q30 0 59.5 44.5t38.5 111.5q21 144 -50 238t-218 94q-136 0 -246.5 -98.5t-129.5 -237.5q-20 -137 57.5 -228t212.5 -91q104 0 195 62l37 -83q-48 -34 -117 -54.5t-129 -20.5q-179 0 -282 118.5t-77 296.5zM387 276q-7 -49 11 -84t56 -35q40 0 68 34t36 84q6 48 -13.5 79
t-60.5 31q-37 0 -64 -31.5t-33 -77.5z" />
    <glyph glyph-name="A" unicode="A" horiz-adv-x="786" 
d="M-8 0l400 701h214l188 -701h-222l-25 112h-283l-58 -112h-214zM344 264h170l-51 229z" />
    <glyph glyph-name="B" unicode="B" horiz-adv-x="720" 
d="M59 0l101 701h344q123 0 189 -48t55 -129q-8 -54 -46 -94.5t-95 -56.5q62 -13 93.5 -61.5t21.5 -115.5q-13 -90 -95.5 -143t-208.5 -53h-359zM288 155h126q40 0 65.5 18t30.5 49q4 29 -16.5 45.5t-60.5 16.5h-126zM327 426h126q31 0 51.5 16.5t24.5 44.5q4 27 -11.5 42.5
t-46.5 15.5h-126z" />
    <glyph glyph-name="C" unicode="C" horiz-adv-x="690" 
d="M70 352q22 153 143.5 254t284.5 101q80 0 153.5 -33.5t118.5 -90.5l-140 -142q-27 42 -69 67.5t-85 25.5q-71 0 -126.5 -51.5t-66.5 -128.5t29.5 -129t111.5 -52q40 0 89 22t90 59l101 -128q-66 -62 -151.5 -98.5t-164.5 -36.5q-160 0 -250.5 103t-67.5 258z" />
    <glyph glyph-name="D" unicode="D" horiz-adv-x="762" 
d="M59 0l101 701h307q170 0 259.5 -96t67.5 -254q-23 -158 -142.5 -254.5t-292.5 -96.5h-300zM290 163h105q71 0 122.5 51t63.5 135q13 84 -27 136t-115 52h-95z" />
    <glyph glyph-name="E" unicode="E" 
d="M59 0l101 701h573l-23 -160h-365l-16 -110h331l-23 -160h-331l-16 -111h375l-23 -160h-583z" />
    <glyph glyph-name="F" unicode="F" horiz-adv-x="619" 
d="M59 0l101 701h544l-23 -160h-336l-20 -140h312l-23 -160h-312l-35 -241h-208z" />
    <glyph glyph-name="G" unicode="G" horiz-adv-x="740" 
d="M69 350q23 154 148.5 255.5t294.5 101.5q80 0 156 -28.5t125 -77.5l-139 -143q-31 35 -76.5 55.5t-91.5 20.5q-76 0 -134 -52.5t-70 -131.5q-11 -80 32.5 -132.5t120.5 -52.5q45 0 110 27l24 171h179l-40 -282q-63 -39 -151 -64.5t-162 -25.5q-163 0 -255.5 102
t-70.5 257z" />
    <glyph glyph-name="H" unicode="H" horiz-adv-x="783" 
d="M59 0l101 701h208l-40 -279h249l40 279h208l-101 -701h-208l38 261h-249l-38 -261h-208z" />
    <glyph glyph-name="I" unicode="I" horiz-adv-x="326" 
d="M59 0l101 701h208l-101 -701h-208z" />
    <glyph glyph-name="J" unicode="J" horiz-adv-x="554" 
d="M9 108l114 137q67 -79 136 -79q61 0 72 71l67 464h210l-68 -469q-16 -114 -93.5 -177.5t-195.5 -63.5q-153 0 -242 117z" />
    <glyph glyph-name="K" unicode="K" horiz-adv-x="761" 
d="M59 0l101 701h208l-39 -270l274 270h240l-295 -285l210 -416h-249l-126 256l-92 -88l-24 -168h-208z" />
    <glyph glyph-name="L" unicode="L" horiz-adv-x="574" 
d="M59 0l101 701h208l-76 -527h294l-25 -174h-502z" />
    <glyph glyph-name="M" unicode="M" horiz-adv-x="902" 
d="M59 0l101 701h223l113 -388l225 388h223l-101 -701h-182l59 415l-191 -346h-136l-91 346l-60 -415h-183z" />
    <glyph glyph-name="N" unicode="N" horiz-adv-x="783" 
d="M59 0l101 701h178l241 -392l56 392h190l-101 -701h-177l-241 390l-56 -390h-191z" />
    <glyph glyph-name="O" unicode="O" horiz-adv-x="802" 
d="M70 351q22 154 145 255t288 101t259 -101t72 -255q-23 -155 -146 -257.5t-288 -102.5t-259 102.5t-71 257.5zM282 350q-11 -78 32.5 -131.5t113.5 -53.5t125.5 53t66.5 132q12 79 -28.5 131t-110.5 52q-71 0 -129 -52.5t-70 -130.5z" />
    <glyph glyph-name="P" unicode="P" 
d="M59 0l101 701h318q136 0 201 -65t48 -184q-18 -125 -102.5 -194t-220.5 -69h-110l-27 -189h-208zM317 349h100q47 0 76 25t36 72q7 46 -15 70.5t-69 24.5h-100z" />
    <glyph glyph-name="Q" unicode="Q" horiz-adv-x="803" 
d="M70 351q22 154 145 255t288 101t259 -101t72 -255q-16 -113 -89.5 -201t-182.5 -130q24 -39 64 -39q49 0 123 50l52 -125q-45 -35 -105.5 -56.5t-114.5 -21.5q-76 0 -129.5 44t-73.5 120q-156 8 -243 108.5t-65 250.5zM282 350q-11 -78 32.5 -131.5t113.5 -53.5t125.5 53
t66.5 132q12 79 -28.5 131t-110.5 52q-71 0 -129 -52.5t-70 -130.5z" />
    <glyph glyph-name="R" unicode="R" horiz-adv-x="725" 
d="M59 0l101 701h327q141 0 209 -65t51 -184q-23 -156 -150 -223l109 -229h-236l-66 189h-110l-27 -189h-208zM317 349h119q47 0 76 25t36 72q7 46 -15 70.5t-69 24.5h-119z" />
    <glyph glyph-name="S" unicode="S" horiz-adv-x="655" 
d="M27 105l101 158q47 -45 118.5 -76t126.5 -31q73 0 79 47q3 21 -15 36t-48.5 24.5t-68.5 18.5t-75 24t-66 36.5t-44 59t-8 87.5q15 101 102.5 161t219.5 60q79 0 154.5 -22t127.5 -59l-100 -160q-53 32 -116 55t-106 23q-58 0 -64 -38q-3 -21 15.5 -35.5t49 -24
t68.5 -19.5t74.5 -26t65.5 -38.5t43.5 -61.5t7.5 -90q-16 -107 -106 -163.5t-215 -56.5q-90 0 -176.5 30t-144.5 81z" />
    <glyph glyph-name="T" unicode="T" horiz-adv-x="628" 
d="M83 535l24 166h616l-24 -166h-204l-77 -535h-209l77 535h-203z" />
    <glyph glyph-name="U" unicode="U" horiz-adv-x="755" 
d="M91 296l58 405h208l-58 -405q-9 -59 21.5 -95t84.5 -36q53 0 90.5 35t46.5 96l58 405h208l-58 -405q-20 -140 -120.5 -222.5t-250.5 -82.5q-151 0 -229.5 83t-58.5 222z" />
    <glyph glyph-name="V" unicode="V" horiz-adv-x="748" 
d="M98 701h222l90 -485l230 485h213l-372 -701h-216z" />
    <glyph glyph-name="W" unicode="W" horiz-adv-x="1103" 
d="M98 701h222l50 -485l187 484l203 1l50 -485l187 485h213l-331 -701h-214l-48 447l-178 -447h-214z" />
    <glyph glyph-name="X" unicode="X" horiz-adv-x="756" 
d="M-1 0l299 357l-182 344h242l90 -183l143 183h245l-277 -335l197 -366h-250l-104 200l-160 -200h-243z" />
    <glyph glyph-name="Y" unicode="Y" horiz-adv-x="702" 
d="M93 701h208l112 -286l190 286h207l-321 -479l-32 -222h-208l31 218z" />
    <glyph glyph-name="Z" unicode="Z" horiz-adv-x="679" 
d="M24 0l19 131l407 408h-336l23 162h613l-19 -132l-407 -407h355l-23 -162h-632z" />
    <glyph glyph-name="bracketleft" unicode="[" horiz-adv-x="370" 
d="M41 -124l125 866h298l-22 -149h-119l-81 -568h119l-22 -149h-298z" />
    <glyph glyph-name="backslash" unicode="\" horiz-adv-x="409" 
d="M69 808h169l196 -915h-170z" />
    <glyph glyph-name="bracketright" unicode="]" horiz-adv-x="413" 
d="M38 -124l22 149h118l81 568h-118l22 149h298l-125 -866h-298z" />
    <glyph glyph-name="asciicircum" unicode="^" horiz-adv-x="593" 
d="M51 141l241 383h161l129 -383h-141l-84 273l-165 -273h-141z" />
    <glyph glyph-name="underscore" unicode="_" horiz-adv-x="592" 
d="M-29 -204l15 109h592l-15 -109h-592z" />
    <glyph glyph-name="grave" unicode="`" horiz-adv-x="350" 
d="M136 717l184 58l81 -180h-148z" />
    <glyph glyph-name="a" unicode="a" horiz-adv-x="607" 
d="M43 162q11 79 71 121.5t163 43.5h133v2q5 34 -16 53t-67 19q-74 0 -170 -39l-31 134q148 56 271 56q115 0 171.5 -52.5t43.5 -146.5l-51 -353h-198l9 60q-63 -69 -169 -69q-86 0 -128.5 46.5t-31.5 124.5zM236 177q-4 -26 10 -40t43 -14q31 0 58 15t42 41l7 49h-92
q-62 0 -68 -51z" />
    <glyph glyph-name="b" unicode="b" horiz-adv-x="688" 
d="M66 0l107 742h202l-38 -261q67 70 159 70q114 0 172 -77t40 -205q-18 -125 -96.5 -200.5t-190.5 -75.5q-96 0 -144 70l-9 -63h-202zM307 274q-7 -54 15 -87.5t66 -33.5q45 0 76.5 33.5t39.5 87.5t-14 87.5t-67 33.5q-44 0 -76 -33.5t-40 -87.5z" />
    <glyph glyph-name="c" unicode="c" horiz-adv-x="562" 
d="M58 270q18 127 107 204t218 77q85 0 145.5 -37t85.5 -105l-166 -76q-22 54 -79 54q-40 0 -69.5 -32t-37.5 -84q-8 -53 12.5 -85.5t60.5 -32.5q61 0 95 60l145 -79q-41 -68 -112.5 -104.5t-161.5 -36.5q-128 0 -194.5 76t-48.5 201z" />
    <glyph glyph-name="d" unicode="d" horiz-adv-x="688" 
d="M59 275q18 125 96 200.5t190 75.5q97 0 144 -70l38 261h202l-107 -742h-202l9 62q-66 -69 -159 -69q-114 0 -172 77t-39 205zM262 270q-8 -55 14 -88.5t67 -33.5q44 0 76 33.5t40 88.5q8 54 -14.5 87.5t-66.5 33.5q-45 0 -76.5 -33.5t-39.5 -87.5z" />
    <glyph glyph-name="e" unicode="e" horiz-adv-x="609" 
d="M58 270q18 127 108 204t219 77q142 0 204.5 -88.5t31.5 -239.5h-366q14 -81 94 -81q63 0 128 52l90 -103q-103 -98 -256 -98q-136 0 -203.5 75.5t-49.5 201.5zM265 322h171q7 41 -12 66.5t-56 25.5q-35 0 -62 -25t-41 -67z" />
    <glyph glyph-name="f" unicode="f" horiz-adv-x="409" 
d="M80 387l18 129h74l8 50q12 86 79 136t164 49q98 0 162 -39l-89 -139q-27 21 -55 21q-26 0 -43.5 -14t-21.5 -38l-4 -26h113l-18 -129h-113l-56 -387h-200l56 387h-74z" />
    <glyph glyph-name="g" unicode="g" horiz-adv-x="651" 
d="M24 -132l87 136q67 -50 159 -50q54 0 88.5 23.5t40.5 63.5l8 55q-63 -65 -156 -65q-100 0 -153.5 72.5t-36.5 190.5q17 116 89.5 186.5t171.5 70.5q95 0 141 -66l8 59h200l-71 -497q-16 -114 -108.5 -182t-226.5 -68q-145 0 -241 71zM250 288q-8 -50 13 -81t62 -31
q42 0 72 31t38 81q7 52 -14 83t-63 31q-41 0 -71 -31.5t-37 -82.5z" />
    <glyph glyph-name="h" unicode="h" 
d="M66 0l107 742h202l-41 -282q72 92 187 92q88 0 133.5 -56.5t32.5 -150.5l-50 -345h-202l41 287q6 41 -11.5 64.5t-53.5 23.5q-41 -1 -69 -30t-35 -76l-39 -269h-202z" />
    <glyph glyph-name="i" unicode="i" horiz-adv-x="324" 
d="M61 0l78 544h202l-78 -544h-202zM160 699q7 46 40 75t79 29t71 -29t18 -75t-40 -75t-79 -29t-71 29t-18 75z" />
    <glyph glyph-name="j" unicode="j" horiz-adv-x="335" 
d="M-112 -168l67 140q28 -17 56 -17q48 0 55 52l77 537h202l-80 -561q-13 -86 -77.5 -136t-157.5 -49q-85 0 -142 34zM155 699q7 46 42.5 75t84.5 29t76.5 -29t20.5 -75t-42.5 -75t-84.5 -29t-76.5 29t-20.5 75z" />
    <glyph glyph-name="k" unicode="k" horiz-adv-x="648" 
d="M66 0l107 742h202l-52 -361l173 163h228l-229 -210l152 -334h-239l-72 189l-47 -43l-21 -146h-202z" />
    <glyph glyph-name="l" unicode="l" horiz-adv-x="335" 
d="M66 0l107 742h202l-107 -742h-202z" />
    <glyph glyph-name="m" unicode="m" horiz-adv-x="1034" 
d="M61 0l78 544h202l-12 -83q71 91 183 91q63 0 105.5 -31t56.5 -87q70 118 201 118q87 0 131.5 -56.5t31.5 -150.5l-50 -345h-202l41 287q6 40 -11 64t-51 24q-39 -1 -66 -30t-34 -76l-39 -269h-202l41 287q6 40 -11 64t-51 24q-39 -1 -66.5 -30t-34.5 -76l-39 -269h-202z
" />
    <glyph glyph-name="n" unicode="n" horiz-adv-x="678" 
d="M61 0l78 544h202l-12 -84q72 92 187 92q88 0 133.5 -56.5t32.5 -150.5l-50 -345h-202l41 287q6 40 -12 64t-53 24q-41 -1 -69 -30t-35 -76l-39 -269h-202z" />
    <glyph glyph-name="o" unicode="o" horiz-adv-x="643" 
d="M58 272q19 127 112.5 203t230.5 76t209 -76t53 -203q-18 -126 -111.5 -202.5t-230.5 -76.5t-209 76.5t-54 202.5zM262 270q-8 -55 14 -88t67 -33q44 0 76 33t40 88q8 54 -14.5 87.5t-66.5 33.5q-45 0 -76.5 -33.5t-39.5 -87.5z" />
    <glyph glyph-name="p" unicode="p" horiz-adv-x="688" 
d="M38 -194l106 738h202l-9 -63q67 70 159 70q114 0 172 -77t40 -205q-18 -125 -96.5 -200.5t-190.5 -75.5q-96 0 -144 70l-37 -257h-202zM307 274q-7 -54 15 -87.5t66 -33.5q45 0 76.5 33.5t39.5 87.5t-14 87.5t-67 33.5q-44 0 -76 -33.5t-40 -87.5z" />
    <glyph glyph-name="q" unicode="q" horiz-adv-x="688" 
d="M59 275q18 125 96 200.5t190 75.5q97 0 144 -70l9 63h202l-106 -738h-202l37 256q-66 -69 -159 -69q-114 0 -172 77t-39 205zM262 270q-8 -55 14 -88.5t67 -33.5q44 0 76 33.5t40 88.5q8 54 -14.5 87.5t-66.5 33.5q-45 0 -76.5 -33.5t-39.5 -87.5z" />
    <glyph glyph-name="r" unicode="r" horiz-adv-x="444" 
d="M61 0l78 544h202l-12 -86q74 94 185 94l-27 -182q-76 10 -127 -20.5t-60 -89.5l-37 -260h-202z" />
    <glyph glyph-name="s" unicode="s" horiz-adv-x="535" 
d="M24 68l80 127q94 -67 187 -67q46 0 49 25q2 16 -24.5 28t-66 23t-78 27.5t-62 52t-16.5 87.5q13 84 84 133t175 49q125 0 229 -66l-85 -127q-104 57 -170 57q-40 0 -45 -26q-2 -16 25.5 -28t67.5 -23t79.5 -28t63.5 -53t17 -88q-12 -83 -84.5 -131.5t-180.5 -48.5
q-150 0 -245 77z" />
    <glyph glyph-name="t" unicode="t" horiz-adv-x="449" 
d="M69 387l18 129h75l22 151h201l-22 -151h134l-18 -129h-134l-27 -186q-7 -52 38 -52q19 0 65 16l16 -139q-65 -35 -156 -35q-88 -1 -134.5 47t-34.5 132l32 217h-75z" />
    <glyph glyph-name="u" unicode="u" horiz-adv-x="668" 
d="M75 199l49 345h202l-41 -288q-6 -40 10.5 -63.5t49.5 -23.5q39 1 66 30t34 76l38 269h202l-78 -544h-202l12 81q-71 -90 -180 -90q-86 0 -131 56.5t-31 151.5z" />
    <glyph glyph-name="v" unicode="v" horiz-adv-x="594" 
d="M70 544h208l49 -360l152 360h202l-281 -544h-206z" />
    <glyph glyph-name="w" unicode="w" horiz-adv-x="959" 
d="M70 544h205l48 -347l144 347h190l47 -347l146 347h196l-276 -544h-199l-45 312l-137 -312h-199z" />
    <glyph glyph-name="x" unicode="x" horiz-adv-x="633" 
d="M-1 0l222 278l-133 266h232l55 -141l104 141h220l-208 -265l142 -279h-232l-62 154l-118 -154h-222z" />
    <glyph glyph-name="y" unicode="y" horiz-adv-x="605" 
d="M-37 -143l104 135q31 -31 68 -31q42 0 64 35l13 19l-149 529h207l71 -333l149 333h201l-313 -590q-85 -157 -248 -157q-97 0 -167 60z" />
    <glyph glyph-name="z" unicode="z" horiz-adv-x="561" 
d="M29 0l17 119l283 273h-234l22 152h488l-17 -120l-283 -273h254l-22 -151h-508z" />
    <glyph glyph-name="braceleft" unicode="{" horiz-adv-x="370" 
d="M52 232l22 153h42q18 0 27 8.5t12 30.5l25 173q12 82 57.5 114.5t148.5 32.5h79l-21 -149q-50 0 -69 -13t-24 -48l-14 -97q-8 -58 -33 -87.5t-76 -40.5q48 -12 64 -41.5t8 -86.5l-14 -97q-5 -35 10 -48t65 -13l-21 -149h-79q-104 0 -140 32.5t-24 114.5l25 173
q3 21 -3.5 29.5t-24.5 8.5h-42z" />
    <glyph glyph-name="bar" unicode="|" horiz-adv-x="314" 
d="M67 -106l130 905h150l-130 -905h-150z" />
    <glyph glyph-name="braceright" unicode="}" horiz-adv-x="385" 
d="M17 -126l21 149q50 0 69 13t24 48l14 97q8 58 33 87t77 41q-48 11 -64.5 40.5t-8.5 87.5l14 97q5 35 -10 48t-65 13l21 149h79q103 0 139.5 -32.5t24.5 -114.5l-25 -173q-3 -22 3 -30.5t24 -8.5h42l-22 -153h-42q-18 0 -26.5 -8t-11.5 -30l-25 -173q-12 -82 -57 -114.5
t-149 -32.5h-79z" />
    <glyph glyph-name="asciitilde" unicode="~" horiz-adv-x="515" 
d="M85 235q13 95 50 141t99 46q38 0 75 -23.5t47 -23.5q29 0 35 43h134q-27 -187 -148 -187q-39 0 -76 23.5t-47 23.5q-28 0 -34 -43h-135z" />
    <glyph glyph-name="nbspace" unicode="&#xa0;" horiz-adv-x="219" 
 />
    <glyph glyph-name="exclamdown" unicode="&#xa1;" horiz-adv-x="276" 
d="M23 -156l26 181l73 268h121l-2 -268l-26 -181h-192zM116 456q6 42 36 68.5t72 26.5q41 0 64 -26.5t17 -68.5q-6 -41 -36.5 -67.5t-71.5 -26.5q-42 0 -64.5 26.5t-16.5 67.5z" />
    <glyph glyph-name="cent" unicode="&#xa2;" horiz-adv-x="560" 
d="M58 270q16 109 85 182t172 93l23 163h152l-24 -167q112 -32 148 -132l-166 -76q-22 54 -79 54q-40 0 -69.5 -32t-37.5 -84q-8 -53 12.5 -85.5t60.5 -32.5q61 0 95 60l145 -79q-60 -101 -187 -131l-23 -163h-152l23 159q-98 19 -146 91t-32 180z" />
    <glyph glyph-name="sterling" unicode="&#xa3;" horiz-adv-x="562" 
d="M24 0l22 156h72l17 116h-72l20 136h72l8 60q17 116 92 179t194 63q132 0 208 -84l-99 -153q-54 63 -111 63q-65 0 -75 -72l-8 -56h163l-20 -136h-163l-17 -116h247l-22 -156h-528z" />
    <glyph glyph-name="currency" unicode="&#xa4;" horiz-adv-x="697" 
d="M34 101l116 101q-22 56 -13 120q9 59 44 114l-85 98l129 113l83 -98q60 29 123 29q66 0 115 -29l112 98l97 -113l-113 -99q18 -51 9 -113q-9 -63 -47 -119l89 -102l-130 -113l-89 104q-55 -26 -116 -26t-110 26l-118 -104zM294 322q-5 -41 20 -69.5t66 -28.5t75.5 29
t39.5 69q6 41 -19.5 70.5t-66.5 29.5t-75 -29.5t-40 -70.5z" />
    <glyph glyph-name="yen" unicode="&#xa5;" horiz-adv-x="684" 
d="M87 146l11 75h181l-20 54h-153l10 74h113l-136 352h208l112 -286l190 286h208l-237 -352h98l-10 -74h-137l-36 -54h165l-11 -75h-165l-21 -146h-208l21 146h-183z" />
    <glyph glyph-name="brokenbar" unicode="&#xa6;" horiz-adv-x="314" 
d="M67 -106l49 341h150l-49 -341h-150zM148 459l49 340h150l-49 -340h-150z" />
    <glyph glyph-name="section" unicode="&#xa7;" horiz-adv-x="568" 
d="M12 -11l73 125q100 -68 188 -68q52 0 55 26q2 16 -26 29.5t-69 26t-81.5 30.5t-65 53.5t-17.5 84.5q13 92 117 136q-31 20 -40 41.5t-4 52.5q11 75 79.5 121.5t172.5 46.5q119 0 231 -65l-78 -125q-108 57 -170 57q-48 0 -51 -26q-2 -17 26.5 -31t70 -27t83 -31
t66.5 -53.5t18 -84.5q-12 -90 -113 -136q26 -20 35.5 -40t4.5 -54q-11 -74 -81.5 -120.5t-178.5 -46.5q-145 0 -245 78zM253 309q-3 -18 21 -29.5t62 -11.5q61 0 66 29q2 18 -23 30t-63 12q-60 0 -63 -30z" />
    <glyph glyph-name="dieresis" unicode="&#xa8;" horiz-adv-x="358" 
d="M89 696q5 37 32.5 61t65.5 24t58.5 -23.5t14.5 -61.5q-5 -38 -32.5 -62t-65.5 -24t-58 24t-15 62zM290 696q6 37 33.5 61t65.5 24q37 0 57 -23.5t15 -61.5t-32 -62t-65 -24t-58.5 24t-15.5 62z" />
    <glyph glyph-name="copyright" unicode="&#xa9;" horiz-adv-x="715" 
d="M69 348q20 140 133 240.5t255 100.5t225.5 -99.5t63.5 -239.5t-133.5 -240.5t-255.5 -100.5q-141 0 -224.5 99.5t-63.5 239.5zM160 348q-14 -103 46.5 -175.5t163.5 -72.5q105 0 188 73.5t97 176.5q15 103 -46 175.5t-165 72.5t-186.5 -73.5t-97.5 -176.5zM242 349
q11 71 66.5 117t130.5 46q36 0 70 -15.5t54 -41.5l-65 -65q-26 43 -70 43q-33 0 -58.5 -23.5t-29.5 -58.5q-5 -36 13.5 -59.5t51.5 -23.5q40 0 81 36l46 -58q-65 -62 -144 -62q-73 0 -114.5 47t-31.5 118z" />
    <glyph glyph-name="ordfeminine" unicode="&#xaa;" horiz-adv-x="397" 
d="M96 555q14 97 147 99h82q2 18 -11 28t-40 10q-42 0 -108 -21l-19 88q100 31 174 31q75 0 112.5 -31.5t28.5 -88.5l-31 -212h-134l5 37q-40 -43 -106 -43q-54 0 -80.5 28t-19.5 75zM227 566q-5 -30 28 -30q35 0 57 27l4 30h-53q-33 0 -36 -27z" />
    <glyph glyph-name="guillemetleft" unicode="&#xab;" horiz-adv-x="526" 
d="M30 270l150 189h162l-133 -189l79 -190h-162zM273 270l149 189h163l-134 -189l80 -190h-163z" />
    <glyph glyph-name="logicalnot" unicode="&#xac;" horiz-adv-x="587" 
d="M76 312l18 127h498l-44 -307h-144l26 180h-354z" />
    <glyph glyph-name="softhyphen" unicode="&#xad;" horiz-adv-x="377" 
d="M87 245l18 126h273l-18 -126h-273z" />
    <glyph glyph-name="registered" unicode="&#xae;" horiz-adv-x="715" 
d="M69 348q20 140 133 240.5t255 100.5t225.5 -99.5t63.5 -239.5t-133.5 -240.5t-255.5 -100.5q-141 0 -224.5 99.5t-63.5 239.5zM160 348q-14 -103 46.5 -175.5t163.5 -72.5q105 0 188 73.5t97 176.5q15 103 -46 175.5t-165 72.5t-186.5 -73.5t-97.5 -176.5zM258 206
l44 310h140q62 0 92.5 -28.5t23.5 -80.5q-10 -70 -68 -100l50 -101h-103l-30 84h-46l-12 -84h-91zM371 359h49q44 0 50 44t-38 44h-49z" />
    <glyph glyph-name="macron" unicode="&#xaf;" horiz-adv-x="350" 
d="M120 628l20 133h290l-20 -133h-290z" />
    <glyph glyph-name="degree" unicode="&#xb0;" horiz-adv-x="389" 
d="M186 701q8 50 48 85t89 35q50 0 80 -35.5t23 -84.5t-47 -84t-90 -35t-80 35t-23 84zM262 701q-2 -18 9 -30.5t29 -12.5t33 12.5t17 30.5t-9 31t-29 13t-33 -13t-17 -31z" />
    <glyph glyph-name="plusminus" unicode="&#xb1;" horiz-adv-x="515" 
d="M30 -8l18 127h453l-18 -127h-453zM81 346l17 121h164l23 156h126l-23 -156h163l-17 -121h-163l-23 -156h-126l23 156h-164z" />
    <glyph glyph-name="twosuperior" unicode="&#xb2;" horiz-adv-x="392" 
d="M70 281l13 85l175 152q38 36 41 56q3 23 -29 23q-51 0 -126 -54l-39 98q108 65 204 65q68 0 107.5 -31.5t32.5 -81.5q-7 -59 -105 -141l-78 -66h161l-16 -105h-341z" />
    <glyph glyph-name="threesuperior" unicode="&#xb3;" horiz-adv-x="370" 
d="M50 331l71 103q39 -58 98 -58q48 0 54 38q2 19 -8.5 28.5t-34.5 9.5h-78l10 71l97 78h-148l14 98h308l-11 -76l-110 -88l18 -5q43 -9 66 -39.5t16 -76.5q-9 -61 -62.5 -100t-132.5 -39q-49 0 -94.5 15.5t-72.5 40.5z" />
    <glyph glyph-name="acute" unicode="&#xb4;" horiz-adv-x="350" 
d="M120 595l133 180l166 -58l-151 -122h-148z" />
    <glyph glyph-name="mu" unicode="&#xb5;" horiz-adv-x="688" 
d="M38 -194l106 738h202l-41 -288q-6 -40 10.5 -63.5t50.5 -23.5q38 1 65 30t34 76l38 269h202l-78 -544h-202l12 81q-67 -85 -170 -90l-27 -185h-202z" />
    <glyph glyph-name="paragraph" unicode="&#xb6;" horiz-adv-x="668" 
d="M67 520q13 94 84.5 158t199.5 64h365l-122 -848h-149l106 736h-85l-106 -736h-149l59 413h-24q-48 0 -84 14t-54.5 37t-30.5 51.5t-12 56.5t2 54z" />
    <glyph glyph-name="periodcentered" unicode="&#xb7;" horiz-adv-x="254" 
d="M75 291q6 41 36 67t70 26q42 0 64.5 -26t16.5 -67q-6 -42 -36 -68t-72 -26q-41 0 -63 26t-16 68z" />
    <glyph glyph-name="cedilla" unicode="&#xb8;" horiz-adv-x="350" 
d="M29 -209l48 82q17 -20 42 -20q18 0 30 9.5t14 24.5q2 16 -8 25.5t-31 9.5q-13 0 -37 -4l63 98h111l-44 -67q29 -10 44 -32t11 -50q-8 -50 -48.5 -79.5t-101.5 -29.5q-50 0 -93 33z" />
    <glyph glyph-name="onesuperior" unicode="&#xb9;" horiz-adv-x="281" 
d="M92 593l16 108h218l-61 -420h-141l45 312h-77z" />
    <glyph glyph-name="ordmasculine" unicode="&#xba;" horiz-adv-x="416" 
d="M105 621q11 77 70 122.5t147 45.5t133.5 -45.5t34.5 -122.5q-10 -76 -69.5 -121.5t-147.5 -45.5q-87 0 -133 45.5t-35 121.5zM243 620q-4 -29 8 -47t37 -18q24 0 41.5 18t21.5 47t-8 47t-36 18q-25 0 -42 -18t-22 -47z" />
    <glyph glyph-name="guillemetright" unicode="&#xbb;" horiz-adv-x="528" 
d="M26 80l133 189l-79 190h162l96 -190l-150 -189h-162zM269 80l133 189l-79 190h162l96 -190l-150 -189h-162z" />
    <glyph glyph-name="onequarter" unicode="&#xbc;" horiz-adv-x="912" 
d="M76 0l594 701h188l-593 -701h-189zM92 593l16 108h218l-61 -420h-141l45 312h-77zM521 82l13 89l164 248h135l-155 -241h64l11 82h131l-11 -82h56l-14 -96h-56l-12 -82h-131l12 82h-207z" />
    <glyph glyph-name="onehalf" unicode="&#xbd;" horiz-adv-x="934" 
d="M76 0l594 701h188l-593 -701h-189zM92 593l16 108h218l-61 -420h-141l45 312h-77zM572 0l12 85l175 151q38 35 41 56q3 23 -29 23q-50 0 -125 -53l-39 97q109 66 203 66q68 0 108 -31.5t33 -81.5q-9 -60 -106 -142l-78 -66h161l-15 -104h-341z" />
    <glyph glyph-name="threequarters" unicode="&#xbe;" horiz-adv-x="971" 
d="M50 331l71 103q39 -58 98 -58q48 0 54 38q2 19 -8.5 28.5t-34.5 9.5h-78l10 71l97 78h-148l14 98h308l-11 -76l-110 -88l18 -5q43 -9 66 -39.5t16 -76.5q-9 -61 -62.5 -100t-132.5 -39q-49 0 -94.5 15.5t-72.5 40.5zM135 0l594 701h188l-593 -701h-189zM580 82l13 89
l164 248h135l-155 -241h64l11 82h131l-11 -82h56l-14 -96h-56l-12 -82h-131l12 82h-207z" />
    <glyph glyph-name="questiondown" unicode="&#xbf;" horiz-adv-x="486" 
d="M24 15q6 41 26.5 75t46 57.5t51 45t45.5 48.5t24 57h150q-6 -42 -23 -75t-37 -54t-39.5 -39t-34.5 -38.5t-18 -44.5q-7 -52 49 -52q63 0 78 85l154 -1q-17 -115 -89.5 -179t-184.5 -64q-105 0 -157.5 47t-40.5 132zM223 457q6 42 36.5 68.5t72.5 26.5q41 0 63.5 -26.5
t16.5 -68.5q-6 -41 -36.5 -67.5t-71.5 -26.5q-42 0 -64.5 26.5t-16.5 67.5z" />
    <glyph glyph-name="Agrave" unicode="&#xc0;" horiz-adv-x="786" 
d="M-8 0l400 701h214l188 -701h-222l-25 112h-283l-58 -112h-214zM339 874l183 58l81 -180h-148zM344 264h170l-51 229z" />
    <glyph glyph-name="Aacute" unicode="&#xc1;" horiz-adv-x="786" 
d="M-8 0l400 701h214l188 -701h-222l-25 112h-283l-58 -112h-214zM344 264h170l-51 229zM404 752l133 180l167 -58l-152 -122h-148z" />
    <glyph glyph-name="Acircumflex" unicode="&#xc2;" horiz-adv-x="786" 
d="M-8 0l400 701h214l188 -701h-222l-25 112h-283l-58 -112h-214zM309 765l140 157h156l94 -157h-139l-44 83l-68 -83h-139zM344 264h170l-51 229z" />
    <glyph glyph-name="Atilde" unicode="&#xc3;" horiz-adv-x="786" 
d="M-8 0l400 701h214l188 -701h-222l-25 112h-283l-58 -112h-214zM319 774q24 171 136 171q34 0 66.5 -21.5t40.5 -21.5q27 0 33 40h122q-25 -171 -136 -171q-35 0 -67 21.5t-41 21.5q-27 0 -31 -40h-123zM344 264h170l-51 229z" />
    <glyph glyph-name="Adieresis" unicode="&#xc4;" horiz-adv-x="786" 
d="M-8 0l400 701h214l188 -701h-222l-25 112h-283l-58 -112h-214zM330 853q5 37 32.5 61t65.5 24t58.5 -24t15.5 -61q-5 -38 -33 -62t-65 -24q-38 0 -58.5 24.5t-15.5 61.5zM344 264h170l-51 229zM532 853q5 37 32.5 61t65.5 24t58.5 -24t15.5 -61q-5 -38 -33 -62t-65 -24
q-38 0 -58.5 24.5t-15.5 61.5z" />
    <glyph glyph-name="Aring" unicode="&#xc5;" horiz-adv-x="786" 
d="M-8 0l395 692q-17 35 -11 72q8 55 51.5 93t98.5 38t88 -38t25 -93q-6 -40 -31 -71l186 -693h-222l-25 112h-283l-58 -112h-214zM344 264h170l-51 229zM459 764q-3 -20 9 -33.5t32 -13.5t36 13.5t19 33.5t-9 33.5t-32 13.5t-36 -13.5t-19 -33.5z" />
    <glyph glyph-name="AE" unicode="&#xc6;" horiz-adv-x="1127" 
d="M-8 0l495 701h690l-23 -160h-365l-16 -110h331l-23 -160h-331l-16 -111h375l-23 -160h-583l19 133h-227l-87 -133h-216zM394 283h150l37 259h-18z" />
    <glyph glyph-name="Ccedilla" unicode="&#xc7;" horiz-adv-x="690" 
d="M70 352q22 153 143.5 254t284.5 101q80 0 153.5 -33.5t118.5 -90.5l-140 -142q-27 42 -69 67.5t-85 25.5q-71 0 -126.5 -51.5t-66.5 -128.5t29.5 -129t111.5 -52q40 0 89 22t90 59l101 -128q-116 -108 -261 -130l-30 -47q29 -10 44 -32t11 -50q-8 -50 -48.5 -79.5
t-101.5 -29.5q-50 0 -93 33l48 82q17 -20 42 -20q18 0 30 9.5t14 24.5q2 16 -8 25.5t-31 9.5q-13 0 -37 -4l49 77q-136 18 -209.5 117t-52.5 240z" />
    <glyph glyph-name="Egrave" unicode="&#xc8;" 
d="M59 0l101 701h573l-23 -160h-365l-16 -110h331l-23 -160h-331l-16 -111h375l-23 -160h-583zM293 874l183 58l81 -180h-148z" />
    <glyph glyph-name="Eacute" unicode="&#xc9;" 
d="M59 0l101 701h573l-23 -160h-365l-16 -110h331l-23 -160h-331l-16 -111h375l-23 -160h-583zM358 752l133 180l167 -58l-152 -122h-148z" />
    <glyph glyph-name="Ecircumflex" unicode="&#xca;" 
d="M59 0l101 701h573l-23 -160h-365l-16 -110h331l-23 -160h-331l-16 -111h375l-23 -160h-583zM262 766l140 157h156l94 -157h-139l-44 83l-68 -83h-139z" />
    <glyph glyph-name="Edieresis" unicode="&#xcb;" 
d="M59 0l101 701h573l-23 -160h-365l-16 -110h331l-23 -160h-331l-16 -111h375l-23 -160h-583zM283 853q5 37 32.5 61t65.5 24t58.5 -24t15.5 -61q-5 -38 -33 -62t-65 -24q-38 0 -58.5 24.5t-15.5 61.5zM485 853q5 37 32.5 61t65.5 24t58.5 -24t15.5 -61q-5 -38 -33 -62
t-65 -24q-38 0 -58.5 24.5t-15.5 61.5z" />
    <glyph glyph-name="Igrave" unicode="&#xcc;" horiz-adv-x="326" 
d="M59 0l101 701h208l-101 -701h-208zM108 874l183 58l81 -180h-148z" />
    <glyph glyph-name="Iacute" unicode="&#xcd;" horiz-adv-x="326" 
d="M59 0l101 701h208l-101 -701h-208zM173 752l133 180l167 -58l-152 -122h-148z" />
    <glyph glyph-name="Icircumflex" unicode="&#xce;" horiz-adv-x="326" 
d="M59 0l101 701h208l-101 -701h-208zM78 765l140 157h156l94 -157h-139l-44 83l-68 -83h-139z" />
    <glyph glyph-name="Idieresis" unicode="&#xcf;" horiz-adv-x="326" 
d="M59 0l101 701h208l-101 -701h-208zM99 853q5 37 32.5 61t65.5 24t58.5 -24t15.5 -61q-5 -38 -33 -62t-65 -24q-38 0 -58.5 24.5t-15.5 61.5zM301 853q5 37 32.5 61t65.5 24t58.5 -24t15.5 -61q-5 -38 -33 -62t-65 -24q-38 0 -58.5 24.5t-15.5 61.5z" />
    <glyph glyph-name="Eth" unicode="&#xd0;" horiz-adv-x="801" 
d="M43 297l15 108h97l43 296h308q170 0 259.5 -96t67.5 -254q-23 -158 -143 -254.5t-293 -96.5h-300l43 297h-97zM328 163h105q71 0 122.5 51t63.5 135q13 84 -27 136t-115 52h-95l-19 -132h139l-15 -108h-139z" />
    <glyph glyph-name="Ntilde" unicode="&#xd1;" horiz-adv-x="783" 
d="M59 0l101 701h178l241 -392l56 392h190l-101 -701h-177l-241 390l-56 -390h-191zM317 774q24 171 136 171q34 0 66.5 -21.5t40.5 -21.5q27 0 33 40h122q-25 -171 -136 -171q-35 0 -67 21.5t-41 21.5q-27 0 -31 -40h-123z" />
    <glyph glyph-name="Ograve" unicode="&#xd2;" horiz-adv-x="802" 
d="M70 351q22 154 145 255t288 101t259 -101t72 -255q-23 -155 -146 -257.5t-288 -102.5t-259 102.5t-71 257.5zM282 350q-11 -78 32.5 -131.5t113.5 -53.5t125.5 53t66.5 132q12 79 -28.5 131t-110.5 52q-71 0 -129 -52.5t-70 -130.5zM338 874l183 58l81 -180h-148z" />
    <glyph glyph-name="Oacute" unicode="&#xd3;" horiz-adv-x="802" 
d="M70 351q22 154 145 255t288 101t259 -101t72 -255q-23 -155 -146 -257.5t-288 -102.5t-259 102.5t-71 257.5zM282 350q-11 -78 32.5 -131.5t113.5 -53.5t125.5 53t66.5 132q12 79 -28.5 131t-110.5 52q-71 0 -129 -52.5t-70 -130.5zM403 752l133 180l167 -58l-152 -122
h-148z" />
    <glyph glyph-name="Ocircumflex" unicode="&#xd4;" horiz-adv-x="802" 
d="M70 351q22 154 145 255t288 101t259 -101t72 -255q-23 -155 -146 -257.5t-288 -102.5t-259 102.5t-71 257.5zM282 350q-11 -78 32.5 -131.5t113.5 -53.5t125.5 53t66.5 132q12 79 -28.5 131t-110.5 52q-71 0 -129 -52.5t-70 -130.5zM307 766l140 157h156l94 -157h-139
l-44 83l-68 -83h-139z" />
    <glyph glyph-name="Otilde" unicode="&#xd5;" horiz-adv-x="802" 
d="M70 351q22 154 145 255t288 101t259 -101t72 -255q-23 -155 -146 -257.5t-288 -102.5t-259 102.5t-71 257.5zM282 350q-11 -78 32.5 -131.5t113.5 -53.5t125.5 53t66.5 132q12 79 -28.5 131t-110.5 52q-71 0 -129 -52.5t-70 -130.5zM317 774q24 171 136 171
q34 0 66.5 -21.5t40.5 -21.5q27 0 33 40h122q-25 -171 -136 -171q-35 0 -67 21.5t-41 21.5q-27 0 -31 -40h-123z" />
    <glyph glyph-name="Odieresis" unicode="&#xd6;" horiz-adv-x="802" 
d="M70 351q22 154 145 255t288 101t259 -101t72 -255q-23 -155 -146 -257.5t-288 -102.5t-259 102.5t-71 257.5zM282 350q-11 -78 32.5 -131.5t113.5 -53.5t125.5 53t66.5 132q12 79 -28.5 131t-110.5 52q-71 0 -129 -52.5t-70 -130.5zM328 853q5 37 32.5 61t65.5 24
t58.5 -24t15.5 -61q-5 -38 -33 -62t-65 -24q-38 0 -58.5 24.5t-15.5 61.5zM530 853q5 37 32.5 61t65.5 24t58.5 -24t15.5 -61q-5 -38 -33 -62t-65 -24q-38 0 -58.5 24.5t-15.5 61.5z" />
    <glyph glyph-name="multiply" unicode="&#xd7;" horiz-adv-x="515" 
d="M84 213l131 115l-98 115l102 90l99 -115l132 115l77 -90l-132 -115l99 -115l-103 -90l-99 115l-132 -115z" />
    <glyph glyph-name="Oslash" unicode="&#xd8;" horiz-adv-x="802" 
d="M70 351q22 154 145 255t288 101q23 0 63 -4l52 103h115l-66 -132q92 -43 137.5 -128t29.5 -195q-23 -155 -146 -257.5t-288 -102.5q-38 0 -71 6l-54 -106h-115l69 137q-89 44 -132 129.5t-27 193.5zM282 350q-12 -84 38 -139l161 322q-71 0 -129 -52.5t-70 -130.5z
M413 166l15 -1q70 0 125.5 53t66.5 132q14 92 -42 146z" />
    <glyph glyph-name="Ugrave" unicode="&#xd9;" horiz-adv-x="755" 
d="M91 296l58 405h208l-58 -405q-9 -59 21.5 -95t84.5 -36q53 0 90.5 35t46.5 96l58 405h208l-58 -405q-20 -140 -120.5 -222.5t-250.5 -82.5q-151 0 -229.5 83t-58.5 222zM324 874l183 58l81 -180h-148z" />
    <glyph glyph-name="Uacute" unicode="&#xda;" horiz-adv-x="755" 
d="M91 296l58 405h208l-58 -405q-9 -59 21.5 -95t84.5 -36q53 0 90.5 35t46.5 96l58 405h208l-58 -405q-20 -140 -120.5 -222.5t-250.5 -82.5q-151 0 -229.5 83t-58.5 222zM389 752l133 180l167 -58l-152 -122h-148z" />
    <glyph glyph-name="Ucircumflex" unicode="&#xdb;" horiz-adv-x="755" 
d="M91 296l58 405h208l-58 -405q-9 -59 21.5 -95t84.5 -36q53 0 90.5 35t46.5 96l58 405h208l-58 -405q-20 -140 -120.5 -222.5t-250.5 -82.5q-151 0 -229.5 83t-58.5 222zM293 765l140 157h156l94 -157h-139l-44 83l-68 -83h-139z" />
    <glyph glyph-name="Udieresis" unicode="&#xdc;" horiz-adv-x="755" 
d="M91 296l58 405h208l-58 -405q-9 -59 21.5 -95t84.5 -36q53 0 90.5 35t46.5 96l58 405h208l-58 -405q-20 -140 -120.5 -222.5t-250.5 -82.5q-151 0 -229.5 83t-58.5 222zM314 853q5 37 32.5 61t65.5 24t58.5 -24t15.5 -61q-5 -38 -33 -62t-65 -24q-38 0 -58.5 24.5
t-15.5 61.5zM516 853q5 37 32.5 61t65.5 24t58.5 -24t15.5 -61q-5 -38 -33 -62t-65 -24q-38 0 -58.5 24.5t-15.5 61.5z" />
    <glyph glyph-name="Yacute" unicode="&#xdd;" horiz-adv-x="702" 
d="M93 701h208l112 -286l190 286h207l-321 -479l-32 -222h-208l31 218zM362 752l133 180l167 -58l-152 -122h-148z" />
    <glyph glyph-name="Thorn" unicode="&#xde;" horiz-adv-x="694" 
d="M59 0l101 701h208l-13 -89h110q137 0 207 -66t54 -179q-17 -120 -107 -190t-227 -70h-110l-15 -107h-208zM305 265h101q43 0 70.5 25.5t34.5 70.5q6 43 -14.5 67.5t-63.5 24.5h-101z" />
    <glyph glyph-name="germandbls" unicode="&#xdf;" horiz-adv-x="667" 
d="M48 0l71 494q17 118 102.5 187.5t213.5 69.5q123 0 189 -55.5t53 -147.5q-7 -48 -37 -93t-73 -71q56 -18 85 -63.5t20 -104.5q-14 -98 -100.5 -157t-215.5 -59h-48l20 142h31q106 0 118 77q5 37 -20.5 55.5t-81.5 18.5h-21l21 142q90 0 102 83t-61 83q-79 0 -93 -92
l-73 -509h-202z" />
    <glyph glyph-name="agrave" unicode="&#xe0;" horiz-adv-x="607" 
d="M43 162q11 79 71 121.5t163 43.5h133v2q5 34 -16 53t-67 19q-74 0 -170 -39l-31 134q148 56 271 56q115 0 171.5 -52.5t43.5 -146.5l-51 -353h-198l9 60q-63 -69 -169 -69q-86 0 -128.5 46.5t-31.5 124.5zM227 717l184 58l81 -180h-148zM236 177q-4 -26 10 -40t43 -14
q31 0 58 15t42 41l7 49h-92q-62 0 -68 -51z" />
    <glyph glyph-name="aacute" unicode="&#xe1;" horiz-adv-x="607" 
d="M43 162q11 79 71 121.5t163 43.5h133v2q5 34 -16 53t-67 19q-74 0 -170 -39l-31 134q148 56 271 56q115 0 171.5 -52.5t43.5 -146.5l-51 -353h-198l9 60q-63 -69 -169 -69q-86 0 -128.5 46.5t-31.5 124.5zM236 177q-4 -26 10 -40t43 -14q31 0 58 15t42 41l7 49h-92
q-62 0 -68 -51zM293 595l133 180l166 -58l-151 -122h-148z" />
    <glyph glyph-name="acircumflex" unicode="&#xe2;" horiz-adv-x="607" 
d="M43 162q11 79 71 121.5t163 43.5h133v2q5 34 -16 53t-67 19q-74 0 -170 -39l-31 134q148 56 271 56q115 0 171.5 -52.5t43.5 -146.5l-51 -353h-198l9 60q-63 -69 -169 -69q-86 0 -128.5 46.5t-31.5 124.5zM197 608l139 157h156l95 -157h-139l-44 83l-68 -83h-139z
M236 177q-4 -26 10 -40t43 -14q31 0 58 15t42 41l7 49h-92q-62 0 -68 -51z" />
    <glyph glyph-name="atilde" unicode="&#xe3;" horiz-adv-x="607" 
d="M43 162q11 79 71 121.5t163 43.5h133v2q5 34 -16 53t-67 19q-74 0 -170 -39l-31 134q148 56 271 56q115 0 171.5 -52.5t43.5 -146.5l-51 -353h-198l9 60q-63 -69 -169 -69q-86 0 -128.5 46.5t-31.5 124.5zM206 617q25 171 137 171q34 0 66 -21.5t40 -21.5q27 0 33 40h122
q-25 -171 -136 -171q-36 0 -67 21.5t-40 21.5q-26 0 -32 -40h-123zM236 177q-4 -26 10 -40t43 -14q31 0 58 15t42 41l7 49h-92q-62 0 -68 -51z" />
    <glyph glyph-name="adieresis" unicode="&#xe4;" horiz-adv-x="607" 
d="M43 162q11 79 71 121.5t163 43.5h133v2q5 34 -16 53t-67 19q-74 0 -170 -39l-31 134q148 56 271 56q115 0 171.5 -52.5t43.5 -146.5l-51 -353h-198l9 60q-63 -69 -169 -69q-86 0 -128.5 46.5t-31.5 124.5zM217 696q5 37 33 61t66 24q37 0 57.5 -23.5t15.5 -61.5t-33 -62
t-65 -24q-38 0 -58.5 24.5t-15.5 61.5zM236 177q-4 -26 10 -40t43 -14q31 0 58 15t42 41l7 49h-92q-62 0 -68 -51zM419 696q5 37 33 61t66 24q37 0 57.5 -23.5t15.5 -61.5t-33 -62t-65 -24q-38 0 -58.5 24.5t-15.5 61.5z" />
    <glyph glyph-name="aring" unicode="&#xe5;" horiz-adv-x="607" 
d="M43 162q11 79 71 121.5t163 43.5h133v2q5 34 -16 53t-67 19q-74 0 -170 -39l-31 134q148 56 271 56q115 0 171.5 -52.5t43.5 -146.5l-51 -353h-198l9 60q-63 -69 -169 -69q-86 0 -128.5 46.5t-31.5 124.5zM236 177q-4 -26 10 -40t43 -14q31 0 58 15t42 41l7 49h-92
q-62 0 -68 -51zM282 699q7 51 48 86.5t92 35.5t82 -35.5t24 -86.5t-48.5 -86.5t-92.5 -35.5t-81.5 35.5t-23.5 86.5zM360 699q-3 -19 8 -32t30 -13t34 13t18 32q2 19 -9 32t-30 13t-34 -13t-17 -32z" />
    <glyph glyph-name="ae" unicode="&#xe6;" horiz-adv-x="961" 
d="M43 161q11 78 71.5 119.5t163.5 43.5h134v5q5 34 -16 53t-67 19q-75 0 -176 -39l-26 135q149 55 271 55q113 0 169 -50q72 49 168 49q139 0 204 -88.5t36 -235.5h-371q5 -41 30 -63t65 -22q65 0 128 52l90 -103q-103 -98 -257 -98q-151 0 -206 106q-82 -109 -234 -109
q-93 0 -140.5 47t-36.5 124zM236 177q-5 -26 9.5 -41.5t43.5 -15.5q62 0 102 56l8 53h-93q-64 0 -70 -52zM614 322h172q7 40 -12 66.5t-57 26.5q-35 0 -62 -25.5t-41 -67.5z" />
    <glyph glyph-name="ccedilla" unicode="&#xe7;" horiz-adv-x="562" 
d="M58 270q18 127 107 204t218 77q85 0 145.5 -37t85.5 -105l-166 -76q-22 54 -79 54q-40 0 -69.5 -32t-37.5 -84q-8 -53 12.5 -85.5t60.5 -32.5q61 0 95 60l145 -79q-67 -112 -210 -136l-33 -49q29 -10 44 -32t11 -50q-8 -50 -48.5 -79.5t-101.5 -29.5q-50 0 -93 33l48 82
q17 -20 42 -20q18 0 30 9.5t14 24.5q2 16 -8 25.5t-31 9.5q-13 0 -37 -4l50 78q-105 14 -157.5 88t-36.5 186z" />
    <glyph glyph-name="egrave" unicode="&#xe8;" horiz-adv-x="609" 
d="M58 270q18 127 108 204t219 77q142 0 204.5 -88.5t31.5 -239.5h-366q14 -81 94 -81q63 0 128 52l90 -103q-103 -98 -256 -98q-136 0 -203.5 75.5t-49.5 201.5zM225 717l184 58l81 -180h-148zM265 322h171q7 41 -12 66.5t-56 25.5q-35 0 -62 -25t-41 -67z" />
    <glyph glyph-name="eacute" unicode="&#xe9;" horiz-adv-x="609" 
d="M58 270q18 127 108 204t219 77q142 0 204.5 -88.5t31.5 -239.5h-366q14 -81 94 -81q63 0 128 52l90 -103q-103 -98 -256 -98q-136 0 -203.5 75.5t-49.5 201.5zM265 322h171q7 41 -12 66.5t-56 25.5q-35 0 -62 -25t-41 -67zM291 595l133 180l166 -58l-151 -122h-148z" />
    <glyph glyph-name="ecircumflex" unicode="&#xea;" horiz-adv-x="609" 
d="M58 270q18 127 108 204t219 77q142 0 204.5 -88.5t31.5 -239.5h-366q14 -81 94 -81q63 0 128 52l90 -103q-103 -98 -256 -98q-136 0 -203.5 75.5t-49.5 201.5zM195 608l139 157h156l95 -157h-139l-44 83l-68 -83h-139zM265 322h171q7 41 -12 66.5t-56 25.5q-35 0 -62 -25
t-41 -67z" />
    <glyph glyph-name="edieresis" unicode="&#xeb;" horiz-adv-x="609" 
d="M58 270q18 127 108 204t219 77q142 0 204.5 -88.5t31.5 -239.5h-366q14 -81 94 -81q63 0 128 52l90 -103q-103 -98 -256 -98q-136 0 -203.5 75.5t-49.5 201.5zM215 696q5 37 33 61t66 24q37 0 57.5 -23.5t15.5 -61.5t-33 -62t-65 -24q-38 0 -58.5 24.5t-15.5 61.5z
M265 322h171q7 41 -12 66.5t-56 25.5q-35 0 -62 -25t-41 -67zM417 696q5 37 33 61t66 24q37 0 57.5 -23.5t15.5 -61.5t-33 -62t-65 -24q-38 0 -58.5 24.5t-15.5 61.5z" />
    <glyph glyph-name="igrave" unicode="&#xec;" horiz-adv-x="324" 
d="M61 0l78 544h202l-78 -544h-202zM85 717l184 58l81 -180h-148z" />
    <glyph glyph-name="iacute" unicode="&#xed;" horiz-adv-x="324" 
d="M61 0l78 544h202l-78 -544h-202zM151 595l133 180l166 -58l-151 -122h-148z" />
    <glyph glyph-name="icircumflex" unicode="&#xee;" horiz-adv-x="324" 
d="M56 608l139 157h156l95 -157h-139l-44 83l-68 -83h-139zM61 0l78 544h202l-78 -544h-202z" />
    <glyph glyph-name="idieresis" unicode="&#xef;" horiz-adv-x="324" 
d="M61 0l78 544h202l-78 -544h-202zM76 696q6 37 33.5 61t65.5 24t58.5 -24t14.5 -61q-5 -38 -33 -62t-65 -24q-38 0 -58.5 24.5t-15.5 61.5zM278 696q6 37 33.5 61t65.5 24t58.5 -24t14.5 -61q-5 -38 -33 -62t-65 -24q-38 0 -58.5 24.5t-15.5 61.5z" />
    <glyph glyph-name="eth" unicode="&#xf0;" horiz-adv-x="611" 
d="M48 226q14 101 84.5 161t173.5 60q45 0 85 -13.5t60 -35.5q-13 64 -70 130l-177 -58l-18 91l118 39q-53 40 -115 70l146 81q89 -34 155 -91l155 51l17 -92l-102 -33q98 -131 74 -292q-19 -138 -115 -220.5t-236 -82.5q-123 0 -187 64t-48 171zM242 236q-5 -36 14.5 -57.5
t57.5 -21.5q39 0 65 21t31 57q5 35 -15 56.5t-59 21.5q-38 0 -63.5 -21t-30.5 -56z" />
    <glyph glyph-name="ntilde" unicode="&#xf1;" horiz-adv-x="678" 
d="M61 0l78 544h202l-12 -84q72 92 187 92q88 0 133.5 -56.5t32.5 -150.5l-50 -345h-202l41 287q6 40 -12 64t-53 24q-41 -1 -69 -30t-35 -76l-39 -269h-202zM259 617q25 171 137 171q34 0 66 -21.5t40 -21.5q27 0 33 40h122q-25 -171 -136 -171q-35 0 -66.5 21.5
t-40.5 21.5q-26 0 -32 -40h-123z" />
    <glyph glyph-name="ograve" unicode="&#xf2;" horiz-adv-x="643" 
d="M58 272q19 127 112.5 203t230.5 76t209 -76t53 -203q-18 -126 -111.5 -202.5t-230.5 -76.5t-209 76.5t-54 202.5zM244 717l184 58l81 -180h-148zM262 270q-8 -55 14 -88t67 -33q44 0 76 33t40 88q8 54 -14.5 87.5t-66.5 33.5q-45 0 -76.5 -33.5t-39.5 -87.5z" />
    <glyph glyph-name="oacute" unicode="&#xf3;" horiz-adv-x="643" 
d="M58 272q19 127 112.5 203t230.5 76t209 -76t53 -203q-18 -126 -111.5 -202.5t-230.5 -76.5t-209 76.5t-54 202.5zM262 270q-8 -55 14 -88t67 -33q44 0 76 33t40 88q8 54 -14.5 87.5t-66.5 33.5q-45 0 -76.5 -33.5t-39.5 -87.5zM310 595l133 180l166 -58l-151 -122h-148z
" />
    <glyph glyph-name="ocircumflex" unicode="&#xf4;" horiz-adv-x="643" 
d="M58 272q19 127 112.5 203t230.5 76t209 -76t53 -203q-18 -126 -111.5 -202.5t-230.5 -76.5t-209 76.5t-54 202.5zM215 608l139 157h156l95 -157h-139l-44 83l-68 -83h-139zM262 270q-8 -55 14 -88t67 -33q44 0 76 33t40 88q8 54 -14.5 87.5t-66.5 33.5q-45 0 -76.5 -33.5
t-39.5 -87.5z" />
    <glyph glyph-name="otilde" unicode="&#xf5;" horiz-adv-x="643" 
d="M58 272q19 127 112.5 203t230.5 76t209 -76t53 -203q-18 -126 -111.5 -202.5t-230.5 -76.5t-209 76.5t-54 202.5zM224 617q25 171 137 171q34 0 66 -21.5t40 -21.5q27 0 33 40h122q-25 -171 -136 -171q-36 0 -67 21.5t-40 21.5q-26 0 -32 -40h-123zM262 270
q-8 -55 14 -88t67 -33q44 0 76 33t40 88q8 54 -14.5 87.5t-66.5 33.5q-45 0 -76.5 -33.5t-39.5 -87.5z" />
    <glyph glyph-name="odieresis" unicode="&#xf6;" horiz-adv-x="643" 
d="M58 272q19 127 112.5 203t230.5 76t209 -76t53 -203q-18 -126 -111.5 -202.5t-230.5 -76.5t-209 76.5t-54 202.5zM235 696q5 37 33 61t66 24q37 0 57.5 -23.5t15.5 -61.5t-33 -62t-65 -24q-38 0 -58.5 24.5t-15.5 61.5zM262 270q-8 -55 14 -88t67 -33q44 0 76 33t40 88
q8 54 -14.5 87.5t-66.5 33.5q-45 0 -76.5 -33.5t-39.5 -87.5zM437 696q5 37 33 61t66 24q37 0 57.5 -23.5t15.5 -61.5t-33 -62t-65 -24q-38 0 -58.5 24.5t-15.5 61.5z" />
    <glyph glyph-name="divide" unicode="&#xf7;" horiz-adv-x="515" 
d="M69 265l18 126h453l-18 -126h-453zM185 149q6 38 33.5 61.5t64.5 23.5q38 0 58.5 -23.5t14.5 -61.5q-5 -38 -32.5 -62t-65.5 -24q-37 0 -57.5 24t-15.5 62zM237 508q5 37 32 61t65 24t58.5 -23.5t15.5 -61.5t-32.5 -62t-65.5 -24t-58 24t-15 62z" />
    <glyph glyph-name="oslash" unicode="&#xf8;" horiz-adv-x="643" 
d="M58 272q19 127 112.5 203t230.5 76q27 0 51 -3l59 126h80l-67 -143q79 -29 115.5 -97t23.5 -162q-18 -126 -111.5 -202.5t-230.5 -76.5q-26 0 -50 3l-63 -136h-80l72 153q-80 29 -117.5 97t-24.5 162zM249 270q-11 -70 21 -108l116 245h-5q-51 0 -87 -37.5t-45 -99.5z
M336 132h5q50 0 86.5 37.5t45.5 100.5q10 68 -22 107z" />
    <glyph glyph-name="ugrave" unicode="&#xf9;" horiz-adv-x="668" 
d="M75 199l49 345h202l-41 -288q-6 -40 10.5 -63.5t49.5 -23.5q39 1 66 30t34 76l38 269h202l-78 -544h-202l12 81q-71 -90 -180 -90q-86 0 -131 56.5t-31 151.5zM251 717l184 58l81 -180h-148z" />
    <glyph glyph-name="uacute" unicode="&#xfa;" horiz-adv-x="668" 
d="M75 199l49 345h202l-41 -288q-6 -40 10.5 -63.5t49.5 -23.5q39 1 66 30t34 76l38 269h202l-78 -544h-202l12 81q-71 -90 -180 -90q-86 0 -131 56.5t-31 151.5zM317 595l133 180l166 -58l-151 -122h-148z" />
    <glyph glyph-name="ucircumflex" unicode="&#xfb;" horiz-adv-x="668" 
d="M75 199l49 345h202l-41 -288q-6 -40 10.5 -63.5t49.5 -23.5q39 1 66 30t34 76l38 269h202l-78 -544h-202l12 81q-71 -90 -180 -90q-86 0 -131 56.5t-31 151.5zM222 608l139 157h156l95 -157h-139l-44 83l-68 -83h-139z" />
    <glyph glyph-name="udieresis" unicode="&#xfc;" horiz-adv-x="668" 
d="M75 199l49 345h202l-41 -288q-6 -40 10.5 -63.5t49.5 -23.5q39 1 66 30t34 76l38 269h202l-78 -544h-202l12 81q-71 -90 -180 -90q-86 0 -131 56.5t-31 151.5zM242 696q6 37 33.5 61t65.5 24t58.5 -24t14.5 -61q-5 -38 -33 -62t-65 -24q-38 0 -58.5 24.5t-15.5 61.5z
M444 696q6 37 33.5 61t65.5 24t58.5 -24t14.5 -61q-5 -38 -33 -62t-65 -24q-38 0 -58.5 24.5t-15.5 61.5z" />
    <glyph glyph-name="yacute" unicode="&#xfd;" horiz-adv-x="605" 
d="M-37 -143l104 135q31 -31 68 -31q42 0 64 35l13 19l-149 529h207l71 -333l149 333h201l-313 -590q-85 -157 -248 -157q-97 0 -167 60zM291 595l133 180l166 -58l-151 -122h-148z" />
    <glyph glyph-name="thorn" unicode="&#xfe;" horiz-adv-x="688" 
d="M38 -194l135 936h202l-38 -261q67 70 159 70q114 0 172 -77t40 -205q-18 -125 -96.5 -200.5t-190.5 -75.5q-96 0 -144 70l-37 -257h-202zM307 274q-7 -54 15 -87.5t66 -33.5q45 0 76.5 33.5t39.5 87.5t-14 87.5t-67 33.5q-44 0 -76 -33.5t-40 -87.5z" />
    <glyph glyph-name="ydieresis" unicode="&#xff;" horiz-adv-x="605" 
d="M-37 -143l104 135q31 -31 68 -31q42 0 64 35l13 19l-149 529h207l71 -333l149 333h201l-313 -590q-85 -157 -248 -157q-97 0 -167 60zM216 696q6 37 33.5 61t65.5 24t58.5 -24t14.5 -61q-5 -38 -33 -62t-65 -24q-38 0 -58.5 24.5t-15.5 61.5zM418 696q6 37 33.5 61
t65.5 24t58.5 -24t14.5 -61q-5 -38 -33 -62t-65 -24q-38 0 -58.5 24.5t-15.5 61.5z" />
    <glyph glyph-name="Amacron" unicode="&#x100;" horiz-adv-x="786" 
d="M-8 0l400 701h214l188 -701h-222l-25 112h-283l-58 -112h-214zM344 264h170l-51 229zM362 785l19 133h290l-19 -133h-290z" />
    <glyph glyph-name="amacron" unicode="&#x101;" horiz-adv-x="607" 
d="M43 162q11 79 71 121.5t163 43.5h133v2q5 34 -16 53t-67 19q-74 0 -170 -39l-31 134q148 56 271 56q115 0 171.5 -52.5t43.5 -146.5l-51 -353h-198l9 60q-63 -69 -169 -69q-86 0 -128.5 46.5t-31.5 124.5zM236 177q-4 -26 10 -40t43 -14q31 0 58 15t42 41l7 49h-92
q-62 0 -68 -51zM249 628l20 133h290l-20 -133h-290z" />
    <glyph glyph-name="Abreve" unicode="&#x102;" horiz-adv-x="786" 
d="M-8 0l400 701h214l188 -701h-222l-25 112h-283l-58 -112h-214zM344 264h170l-51 229zM352 922h123q-2 -24 10 -39t34 -15q21 0 37.5 15t22.5 39h123q-15 -76 -69 -121.5t-130 -45.5t-117 45.5t-34 121.5z" />
    <glyph glyph-name="abreve" unicode="&#x103;" horiz-adv-x="607" 
d="M43 162q11 79 71 121.5t163 43.5h133v2q5 34 -16 53t-67 19q-74 0 -170 -39l-31 134q148 56 271 56q115 0 171.5 -52.5t43.5 -146.5l-51 -353h-198l9 60q-63 -69 -169 -69q-86 0 -128.5 46.5t-31.5 124.5zM236 177q-4 -26 10 -40t43 -14q31 0 58 15t42 41l7 49h-92
q-62 0 -68 -51zM239 765h123q-1 -24 11 -39t33 -15q22 0 38.5 15t21.5 39h123q-14 -76 -68.5 -121.5t-130.5 -45.5t-117 45.5t-34 121.5z" />
    <glyph glyph-name="Aogonek" unicode="&#x104;" horiz-adv-x="786" 
d="M-8 0l400 701h214l188 -701h-60q-50 -60 -53 -85q-3 -19 15 -19q20 0 43 31l42 -59q-50 -71 -124 -71q-38 0 -63 20t-18 65q8 52 62 118h-66l-25 112h-282l-59 -112h-214zM343 264h171l-51 229z" />
    <glyph glyph-name="aogonek" unicode="&#x105;" horiz-adv-x="612" 
d="M43 162q11 79 71.5 121t164.5 44h135l1 4q6 70 -86 70q-74 0 -172 -39l-31 134q149 56 272 56q117 0 174 -52.5t44 -146.5l-51 -353h-44q-50 -60 -53 -85q-3 -19 15 -19q20 0 43 31l43 -59q-51 -71 -125 -71q-37 0 -62.5 20t-18.5 65q7 50 63 118h-59l9 61
q-63 -71 -171 -71q-87 0 -130 47t-32 125zM236 177q-4 -26 10.5 -40t44.5 -14t58 15t44 40l7 50h-95q-63 0 -69 -51z" />
    <glyph glyph-name="Cacute" unicode="&#x106;" horiz-adv-x="690" 
d="M70 352q22 153 143.5 254t284.5 101q80 0 153.5 -33.5t118.5 -90.5l-140 -142q-27 42 -69 67.5t-85 25.5q-71 0 -126.5 -51.5t-66.5 -128.5t29.5 -129t111.5 -52q40 0 89 22t90 59l101 -128q-66 -62 -151.5 -98.5t-164.5 -36.5q-160 0 -250.5 103t-67.5 258zM400 752
l133 180l167 -58l-152 -122h-148z" />
    <glyph glyph-name="cacute" unicode="&#x107;" horiz-adv-x="562" 
d="M58 270q18 127 107 204t218 77q85 0 145.5 -37t85.5 -105l-166 -76q-22 54 -79 54q-40 0 -69.5 -32t-37.5 -84q-8 -53 12.5 -85.5t60.5 -32.5q61 0 95 60l145 -79q-41 -68 -112.5 -104.5t-161.5 -36.5q-128 0 -194.5 76t-48.5 201zM284 595l133 180l166 -58l-151 -122
h-148z" />
    <glyph glyph-name="Ccircumflex" unicode="&#x108;" horiz-adv-x="690" 
d="M70 352q22 153 143.5 254t284.5 101q80 0 153.5 -33.5t118.5 -90.5l-140 -142q-27 42 -69 67.5t-85 25.5q-71 0 -126.5 -51.5t-66.5 -128.5t29.5 -129t111.5 -52q40 0 89 22t90 59l101 -128q-66 -62 -151.5 -98.5t-164.5 -36.5q-160 0 -250.5 103t-67.5 258zM304 766
l140 157h156l94 -157h-139l-44 83l-68 -83h-139z" />
    <glyph glyph-name="ccircumflex" unicode="&#x109;" horiz-adv-x="562" 
d="M58 270q18 127 107 204t218 77q85 0 145.5 -37t85.5 -105l-166 -76q-22 54 -79 54q-40 0 -69.5 -32t-37.5 -84q-8 -53 12.5 -85.5t60.5 -32.5q61 0 95 60l145 -79q-41 -68 -112.5 -104.5t-161.5 -36.5q-128 0 -194.5 76t-48.5 201zM189 608l139 157h156l95 -157h-139
l-44 83l-68 -83h-139z" />
    <glyph glyph-name="Cdotaccent" unicode="&#x10a;" horiz-adv-x="690" 
d="M70 352q22 153 143.5 254t284.5 101q80 0 153.5 -33.5t118.5 -90.5l-140 -142q-27 42 -69 67.5t-85 25.5q-71 0 -126.5 -51.5t-66.5 -128.5t29.5 -129t111.5 -52q40 0 89 22t90 59l101 -128q-66 -62 -151.5 -98.5t-164.5 -36.5q-160 0 -250.5 103t-67.5 258zM408 856
q7 46 40 75t79 29t71 -29t18 -75q-6 -46 -39.5 -75t-79.5 -29t-70.5 29t-18.5 75z" />
    <glyph glyph-name="cdotaccent" unicode="&#x10b;" horiz-adv-x="562" 
d="M58 270q18 127 107 204t218 77q85 0 145.5 -37t85.5 -105l-166 -76q-22 54 -79 54q-40 0 -69.5 -32t-37.5 -84q-8 -53 12.5 -85.5t60.5 -32.5q61 0 95 60l145 -79q-41 -68 -112.5 -104.5t-161.5 -36.5q-128 0 -194.5 76t-48.5 201zM293 699q7 46 40 75t79 29t71 -29
t18 -75t-40 -75t-79 -29t-71 29t-18 75z" />
    <glyph glyph-name="Ccaron" unicode="&#x10c;" horiz-adv-x="690" 
d="M70 352q22 153 143.5 254t284.5 101q80 0 153.5 -33.5t118.5 -90.5l-140 -142q-27 42 -69 67.5t-85 25.5q-71 0 -126.5 -51.5t-66.5 -128.5t29.5 -129t111.5 -52q40 0 89 22t90 59l101 -128q-66 -62 -151.5 -98.5t-164.5 -36.5q-160 0 -250.5 103t-67.5 258zM305 923h151
l48 -91l74 91h151l-152 -172h-170z" />
    <glyph glyph-name="ccaron" unicode="&#x10d;" horiz-adv-x="562" 
d="M58 270q18 127 107 204t218 77q85 0 145.5 -37t85.5 -105l-166 -76q-22 54 -79 54q-40 0 -69.5 -32t-37.5 -84q-8 -53 12.5 -85.5t60.5 -32.5q61 0 95 60l145 -79q-41 -68 -112.5 -104.5t-161.5 -36.5q-128 0 -194.5 76t-48.5 201zM188 765h151l48 -91l74 91h151
l-152 -172h-170z" />
    <glyph glyph-name="Dcaron" unicode="&#x10e;" horiz-adv-x="762" 
d="M59 0l101 701h307q170 0 259.5 -96t67.5 -254q-23 -158 -142.5 -254.5t-292.5 -96.5h-300zM270 923h151l48 -91l74 91h151l-152 -172h-170zM290 163h105q71 0 122.5 51t63.5 135q13 84 -27 136t-115 52h-95z" />
    <glyph glyph-name="dcaron" unicode="&#x10f;" horiz-adv-x="817" 
d="M59 275q18 125 96 200.5t190 75.5q97 0 144 -70l38 261h202l-107 -742h-202l9 62q-66 -69 -159 -69q-114 0 -172 77t-39 205zM262 270q-8 -55 14 -88.5t67 -33.5q44 0 76 33.5t40 88.5q8 54 -14.5 87.5t-66.5 33.5q-45 0 -76.5 -33.5t-39.5 -87.5zM712 404l66 118
q-33 25 -26 72q6 41 36.5 67.5t71.5 26.5q39 0 62.5 -25t17.5 -68q-5 -36 -36 -74l-98 -117h-94z" />
    <glyph glyph-name="Dcroat" unicode="&#x110;" horiz-adv-x="762" 
d="M59 0l101 701h307q170 0 259.5 -96t67.5 -254q-23 -158 -142.5 -254.5t-292.5 -96.5h-300zM290 163h105q71 0 122.5 51t63.5 135q13 84 -27 136t-115 52h-95zM323 785l19 133h290l-19 -133h-290z" />
    <glyph glyph-name="dcroat" unicode="&#x111;" horiz-adv-x="697" 
d="M59 275q18 125 96 200.5t190 75.5q97 0 144 -70l15 102h-78l15 103h78l8 56h202l-8 -56h63l-15 -103h-63l-84 -583h-202l9 62q-66 -69 -159 -69q-114 0 -172 77t-39 205zM262 270q-8 -55 14 -88.5t67 -33.5q44 0 76 33.5t40 88.5q8 54 -14.5 87.5t-66.5 33.5
q-45 0 -76.5 -33.5t-39.5 -87.5z" />
    <glyph glyph-name="Emacron" unicode="&#x112;" 
d="M59 0l101 701h573l-23 -160h-365l-16 -110h331l-23 -160h-331l-16 -111h375l-23 -160h-583zM315 785l19 133h290l-19 -133h-290z" />
    <glyph glyph-name="emacron" unicode="&#x113;" horiz-adv-x="609" 
d="M58 270q18 127 108 204t219 77q142 0 204.5 -88.5t31.5 -239.5h-366q14 -81 94 -81q63 0 128 52l90 -103q-103 -98 -256 -98q-136 0 -203.5 75.5t-49.5 201.5zM247 628l20 133h290l-20 -133h-290zM265 322h171q7 41 -12 66.5t-56 25.5q-35 0 -62 -25t-41 -67z" />
    <glyph glyph-name="Ebreve" unicode="&#x114;" 
d="M59 0l101 701h573l-23 -160h-365l-16 -110h331l-23 -160h-331l-16 -111h375l-23 -160h-583zM305 922h123q-2 -24 10 -39t34 -15q21 0 37.5 15t22.5 39h123q-15 -76 -69 -121.5t-130 -45.5t-117 45.5t-34 121.5z" />
    <glyph glyph-name="ebreve" unicode="&#x115;" horiz-adv-x="609" 
d="M58 270q18 127 108 204t219 77q142 0 204.5 -88.5t31.5 -239.5h-366q14 -81 94 -81q63 0 128 52l90 -103q-103 -98 -256 -98q-136 0 -203.5 75.5t-49.5 201.5zM237 765h123q-1 -24 11 -39t33 -15q22 0 38.5 15t21.5 39h123q-14 -76 -68.5 -121.5t-130.5 -45.5t-117 45.5
t-34 121.5zM265 322h171q7 41 -12 66.5t-56 25.5q-35 0 -62 -25t-41 -67z" />
    <glyph glyph-name="Edotaccent" unicode="&#x116;" 
d="M59 0l101 701h573l-23 -160h-365l-16 -110h331l-23 -160h-331l-16 -111h375l-23 -160h-583zM366 856q7 46 40 75t79 29t71 -29t18 -75q-6 -46 -39.5 -75t-79.5 -29t-70.5 29t-18.5 75z" />
    <glyph glyph-name="edotaccent" unicode="&#x117;" horiz-adv-x="609" 
d="M58 270q18 127 108 204t219 77q142 0 204.5 -88.5t31.5 -239.5h-366q14 -81 94 -81q63 0 128 52l90 -103q-103 -98 -256 -98q-136 0 -203.5 75.5t-49.5 201.5zM265 322h171q7 41 -12 66.5t-56 25.5q-35 0 -62 -25t-41 -67zM299 699q7 46 40 75t79 29t71 -29t18 -75
t-40 -75t-79 -29t-71 29t-18 75z" />
    <glyph glyph-name="Eogonek" unicode="&#x118;" horiz-adv-x="685" 
d="M59 0l101 701h575l-23 -159h-367l-16 -111h333l-23 -158h-333l-16 -115h377l-23 -158h-74q-50 -62 -53 -85q-3 -19 15 -19q22 0 43 31l43 -59q-51 -71 -125 -71q-37 0 -62 20t-18 65q8 53 61 118h-415z" />
    <glyph glyph-name="eogonek" unicode="&#x119;" horiz-adv-x="609" 
d="M58 270q18 126 107 203t220 78q141 1 204 -87.5t32 -240.5h-366q14 -81 94 -81q65 0 128 52l90 -103q-130 -127 -137 -175q-3 -20 14 -20q20 0 43 31l42 -59q-51 -71 -124 -71q-37 0 -62 20t-18 66q8 55 69 127q-42 -17 -84 -17q-135 0 -202.5 75.5t-49.5 201.5zM265 322
h171q7 41 -12 66.5t-56 25.5q-35 0 -63 -25.5t-40 -66.5z" />
    <glyph glyph-name="Ecaron" unicode="&#x11a;" 
d="M59 0l101 701h573l-23 -160h-365l-16 -110h331l-23 -160h-331l-16 -111h375l-23 -160h-583zM263 923h151l48 -91l74 91h151l-152 -172h-170z" />
    <glyph glyph-name="ecaron" unicode="&#x11b;" horiz-adv-x="609" 
d="M58 270q18 127 108 204t219 77q142 0 204.5 -88.5t31.5 -239.5h-366q14 -81 94 -81q63 0 128 52l90 -103q-103 -98 -256 -98q-136 0 -203.5 75.5t-49.5 201.5zM195 765h151l48 -91l74 91h151l-152 -172h-170zM265 322h171q7 41 -12 66.5t-56 25.5q-35 0 -62 -25t-41 -67z
" />
    <glyph glyph-name="Gcircumflex" unicode="&#x11c;" horiz-adv-x="740" 
d="M69 350q23 154 148.5 255.5t294.5 101.5q80 0 156 -28.5t125 -77.5l-139 -143q-31 35 -76.5 55.5t-91.5 20.5q-76 0 -134 -52.5t-70 -131.5q-11 -80 32.5 -132.5t120.5 -52.5q45 0 110 27l24 171h179l-40 -282q-63 -39 -151 -64.5t-162 -25.5q-163 0 -255.5 102
t-70.5 257zM309 766l140 157h156l94 -157h-139l-44 83l-68 -83h-139z" />
    <glyph glyph-name="gcircumflex" unicode="&#x11d;" horiz-adv-x="651" 
d="M24 -132l87 136q67 -50 159 -50q54 0 88.5 23.5t40.5 63.5l8 55q-63 -65 -156 -65q-100 0 -153.5 72.5t-36.5 190.5q17 116 89.5 186.5t171.5 70.5q95 0 141 -66l8 59h200l-71 -497q-16 -114 -108.5 -182t-226.5 -68q-145 0 -241 71zM219 608l139 157h156l95 -157h-139
l-44 83l-68 -83h-139zM250 288q-8 -50 13 -81t62 -31q42 0 72 31t38 81q7 52 -14 83t-63 31q-41 0 -71 -31.5t-37 -82.5z" />
    <glyph glyph-name="Gbreve" unicode="&#x11e;" horiz-adv-x="740" 
d="M69 350q23 154 148.5 255.5t294.5 101.5q80 0 156 -28.5t125 -77.5l-139 -143q-31 35 -76.5 55.5t-91.5 20.5q-76 0 -134 -52.5t-70 -131.5q-11 -80 32.5 -132.5t120.5 -52.5q45 0 110 27l24 171h179l-40 -282q-63 -39 -151 -64.5t-162 -25.5q-163 0 -255.5 102
t-70.5 257zM352 922h123q-2 -24 10 -39t34 -15q21 0 37.5 15t22.5 39h123q-15 -76 -69 -121.5t-130 -45.5t-117 45.5t-34 121.5z" />
    <glyph glyph-name="gbreve" unicode="&#x11f;" horiz-adv-x="651" 
d="M24 -132l87 136q67 -50 159 -50q54 0 88.5 23.5t40.5 63.5l8 55q-63 -65 -156 -65q-100 0 -153.5 72.5t-36.5 190.5q17 116 89.5 186.5t171.5 70.5q95 0 141 -66l8 59h200l-71 -497q-16 -114 -108.5 -182t-226.5 -68q-145 0 -241 71zM250 288q-8 -50 13 -81t62 -31
q42 0 72 31t38 81q7 52 -14 83t-63 31q-41 0 -71 -31.5t-37 -82.5zM261 765h123q-1 -24 11 -39t33 -15q22 0 38.5 15t21.5 39h123q-14 -76 -68.5 -121.5t-130.5 -45.5t-117 45.5t-34 121.5z" />
    <glyph glyph-name="Gdotaccent" unicode="&#x120;" horiz-adv-x="740" 
d="M69 350q23 154 148.5 255.5t294.5 101.5q80 0 156 -28.5t125 -77.5l-139 -143q-31 35 -76.5 55.5t-91.5 20.5q-76 0 -134 -52.5t-70 -131.5q-11 -80 32.5 -132.5t120.5 -52.5q45 0 110 27l24 171h179l-40 -282q-63 -39 -151 -64.5t-162 -25.5q-163 0 -255.5 102
t-70.5 257zM413 856q7 46 40 75t79 29t71 -29t18 -75q-6 -46 -39.5 -75t-79.5 -29t-70.5 29t-18.5 75z" />
    <glyph glyph-name="gdotaccent" unicode="&#x121;" horiz-adv-x="651" 
d="M24 -132l87 136q67 -50 159 -50q54 0 88.5 23.5t40.5 63.5l8 55q-63 -65 -156 -65q-100 0 -153.5 72.5t-36.5 190.5q17 116 89.5 186.5t171.5 70.5q95 0 141 -66l8 59h200l-71 -497q-16 -114 -108.5 -182t-226.5 -68q-145 0 -241 71zM250 288q-8 -50 13 -81t62 -31
q42 0 72 31t38 81q7 52 -14 83t-63 31q-41 0 -71 -31.5t-37 -82.5zM323 699q7 46 40 75t79 29t71 -29t18 -75t-40 -75t-79 -29t-71 29t-18 75z" />
    <glyph glyph-name="Gcommaaccent" unicode="&#x122;" horiz-adv-x="740" 
d="M69 350q23 154 148.5 255.5t294.5 101.5q80 0 156 -28.5t125 -77.5l-139 -143q-31 35 -76.5 55.5t-91.5 20.5q-76 0 -134 -52.5t-70 -131.5q-11 -80 32.5 -132.5t120.5 -52.5q45 0 110 27l24 171h179l-40 -282q-63 -39 -151 -64.5t-162 -25.5q-163 0 -255.5 102
t-70.5 257zM248 -320l65 117q-32 27 -26 73q6 41 36.5 67t72.5 26q39 0 62 -24.5t17 -67.5q-5 -40 -35 -74l-98 -117h-94z" />
    <glyph glyph-name="gcommaaccent" unicode="&#x123;" horiz-adv-x="651" 
d="M24 -132l87 136q67 -50 159 -50q54 0 88.5 23.5t40.5 63.5l8 55q-63 -65 -156 -65q-100 0 -153.5 72.5t-36.5 190.5q17 116 89.5 186.5t171.5 70.5q95 0 141 -66l8 59h200l-71 -497q-16 -114 -108.5 -182t-226.5 -68q-145 0 -241 71zM250 288q-8 -50 13 -81t62 -31
q42 0 72 31t38 81q7 52 -14 83t-63 31q-41 0 -71 -31.5t-37 -82.5zM323 673q5 38 36 74l98 117h94l-65 -117q31 -27 25 -73q-6 -41 -36.5 -67t-71.5 -26q-39 0 -62.5 24.5t-17.5 67.5z" />
    <glyph glyph-name="Hcircumflex" unicode="&#x124;" horiz-adv-x="783" 
d="M59 0l101 701h208l-40 -279h249l40 279h208l-101 -701h-208l38 261h-249l-38 -261h-208zM316 765l140 157h156l94 -157h-139l-44 83l-68 -83h-139z" />
    <glyph glyph-name="hcircumflex" unicode="&#x125;" 
d="M66 0l107 742h202l-41 -282q72 92 187 92q88 0 133.5 -56.5t32.5 -150.5l-50 -345h-202l41 287q6 41 -11.5 64.5t-53.5 23.5q-41 -1 -69 -30t-35 -76l-39 -269h-202zM83 807l140 157h156l94 -157h-139l-44 83l-68 -83h-139z" />
    <glyph glyph-name="Hbar" unicode="&#x126;" horiz-adv-x="875" 
d="M96 510l16 111h82l12 80h208l-12 -80h249l12 80h208l-12 -80h82l-16 -111h-82l-73 -510h-208l38 261h-249l-38 -261h-208l73 510h-82zM374 422h249l12 88h-249z" />
    <glyph glyph-name="hbar" unicode="&#x127;" horiz-adv-x="706" 
d="M66 0l82 569h-77l16 108h77l9 65h202l-9 -65h106l-16 -108h-106l-16 -109q72 92 187 92q88 0 133.5 -56.5t32.5 -150.5l-50 -345h-202l41 287q6 41 -11.5 64.5t-53.5 23.5q-41 -1 -69 -30t-35 -76l-39 -269h-202z" />
    <glyph glyph-name="Itilde" unicode="&#x128;" horiz-adv-x="326" 
d="M59 0l101 701h208l-101 -701h-208zM88 774q24 171 136 171q34 0 66.5 -21.5t40.5 -21.5q27 0 33 40h122q-25 -171 -136 -171q-27 0 -48.5 10.5t-35.5 21.5t-24 11q-27 0 -31 -40h-123z" />
    <glyph glyph-name="itilde" unicode="&#x129;" horiz-adv-x="324" 
d="M61 0l78 544h202l-78 -544h-202zM64 617q25 171 137 171q34 0 66 -21.5t40 -21.5q27 0 33 40h122q-25 -171 -136 -171q-27 0 -48 11t-35 21.5t-24 10.5q-26 0 -32 -40h-123z" />
    <glyph glyph-name="Imacron" unicode="&#x12a;" horiz-adv-x="326" 
d="M59 0l101 701h208l-101 -701h-208zM131 785l19 133h290l-19 -133h-290z" />
    <glyph glyph-name="imacron" unicode="&#x12b;" horiz-adv-x="324" 
d="M61 0l78 544h202l-78 -544h-202zM107 628l20 133h290l-20 -133h-290z" />
    <glyph glyph-name="Ibreve" unicode="&#x12c;" horiz-adv-x="326" 
d="M59 0l101 701h208l-101 -701h-208zM121 922h123q-2 -24 10 -39t34 -15q21 0 37.5 15t22.5 39h123q-15 -76 -69 -121.5t-130 -45.5t-117 45.5t-34 121.5z" />
    <glyph glyph-name="ibreve" unicode="&#x12d;" horiz-adv-x="324" 
d="M61 0l78 544h202l-78 -544h-202zM98 765h123q-1 -24 11 -39t33 -15q22 0 38.5 15t21.5 39h123q-14 -76 -68.5 -121.5t-130.5 -45.5t-117 45.5t-34 121.5z" />
    <glyph glyph-name="Iogonek" unicode="&#x12e;" horiz-adv-x="326" 
d="M59 0l101 701h208l-101 -701h-45q-50 -60 -53 -85q-3 -19 14 -19q21 0 44 31l43 -59q-51 -71 -125 -71q-38 0 -63 20t-18 65q8 52 62 118h-67z" />
    <glyph glyph-name="iogonek" unicode="&#x12f;" horiz-adv-x="302" 
d="M46 -118q8 52 62 118h-58l78 544h202l-78 -544h-49q-49 -59 -52 -85q-3 -19 14 -19q21 0 44 31l42 -59q-51 -71 -125 -71q-37 0 -62 20t-18 65zM148 699q7 46 40.5 75t79.5 29t71 -29t18 -75t-40 -75t-79 -29t-71.5 29t-18.5 75z" />
    <glyph glyph-name="Idotaccent" unicode="&#x130;" horiz-adv-x="326" 
d="M59 0l101 701h208l-101 -701h-208zM182 856q7 46 40 75t79 29t71 -29t18 -75q-6 -46 -39.5 -75t-79.5 -29t-70.5 29t-18.5 75z" />
    <glyph glyph-name="dotlessi" unicode="&#x131;" horiz-adv-x="324" 
d="M61 0l78 544h202l-78 -544h-202z" />
    <glyph glyph-name="IJ" unicode="&#x132;" horiz-adv-x="880" 
d="M59 0l101 701h208l-101 -701h-208zM335 108l114 137q67 -79 136 -79q61 0 72 71l43 298h-238l24 166h448l-68 -469q-16 -114 -93.5 -177.5t-195.5 -63.5q-153 0 -242 117z" />
    <glyph glyph-name="ij" unicode="&#x133;" horiz-adv-x="659" 
d="M61 0l78 544h202l-78 -544h-202zM160 699q7 46 40 75t79 29t71 -29t18 -75t-40 -75t-79 -29t-71 29t-18 75zM212 -168l67 140q28 -17 56 -17q48 0 55 52l77 537h202l-80 -561q-13 -86 -77.5 -136t-157.5 -49q-85 0 -142 34zM479 699q7 46 42.5 75t84.5 29t76.5 -29
t20.5 -75t-42.5 -75t-84.5 -29t-76.5 29t-20.5 75z" />
    <glyph glyph-name="Jcircumflex" unicode="&#x134;" horiz-adv-x="554" 
d="M9 108l114 137q67 -79 136 -79q61 0 72 71l43 298h-238l24 166h448l-68 -469q-16 -114 -93.5 -177.5t-195.5 -63.5q-153 0 -242 117zM195 766l140 157h156l94 -157h-139l-44 83l-68 -83h-139z" />
    <glyph glyph-name="jcircumflex" unicode="&#x135;" horiz-adv-x="325" 
d="M-113 -168l65 139q26 -16 57 -16q49 -2 58 57l76 532h202l-81 -562q-12 -86 -74.5 -135.5t-157.5 -48.5q-86 0 -145 34zM51 608l139 157h156l95 -157h-139l-44 83l-68 -83h-139z" />
    <glyph glyph-name="Kcommaaccent" unicode="&#x136;" horiz-adv-x="761" 
d="M59 0l101 701h208l-39 -270l274 270h240l-295 -285l210 -416h-249l-126 256l-92 -88l-24 -168h-208zM223 -320l65 117q-32 27 -26 73q6 41 36.5 67t72.5 26q39 0 62 -24.5t17 -67.5q-5 -40 -35 -74l-98 -117h-94z" />
    <glyph glyph-name="kcommaaccent" unicode="&#x137;" horiz-adv-x="648" 
d="M-7 -209l48 82q15 -20 40 -20q19 0 32 10.5t14 26.5q2 16 -8.5 25.5t-30.5 9.5t-36 -4l52 79h-38l107 742h202l-52 -361l173 163h228l-229 -210l152 -334h-239l-72 189l-47 -43l-21 -146h-53l-34 -50q28 -9 43.5 -31.5t11.5 -49.5q-8 -50 -49 -80t-102 -30q-50 0 -92 32z
" />
    <glyph glyph-name="kgreenlandic" unicode="&#x138;" horiz-adv-x="641" 
d="M61 0l78 544h202l-23 -162l171 162h229l-229 -210l151 -334h-239l-71 188l-46 -41l-21 -147h-202z" />
    <glyph glyph-name="Lacute" unicode="&#x139;" horiz-adv-x="574" 
d="M59 0l101 701h208l-76 -527h294l-25 -174h-502zM168 752l133 180l167 -58l-152 -122h-148z" />
    <glyph glyph-name="lacute" unicode="&#x13a;" horiz-adv-x="335" 
d="M66 0l107 742h202l-107 -742h-202zM184 793l133 180l167 -58l-152 -122h-148z" />
    <glyph glyph-name="Lcommaaccent" unicode="&#x13b;" horiz-adv-x="574" 
d="M59 0l101 701h208l-76 -527h294l-25 -174h-502zM146 -320l65 117q-32 27 -26 73q6 41 36.5 67t72.5 26q39 0 62 -24.5t17 -67.5q-5 -40 -35 -74l-98 -117h-94z" />
    <glyph glyph-name="lcommaaccent" unicode="&#x13c;" horiz-adv-x="335" 
d="M22 -320l65 117q-32 27 -26 73q6 41 36.5 67t72.5 26q39 0 62 -24.5t17 -67.5q-5 -40 -35 -74l-98 -117h-94zM66 0l107 742h202l-107 -742h-202z" />
    <glyph glyph-name="Lcaron" unicode="&#x13d;" horiz-adv-x="574" 
d="M59 0l101 701h208l-76 -527h294l-25 -174h-502zM406 385l66 118q-33 25 -26 72q6 41 36.5 67.5t71.5 26.5q39 0 62.5 -25t17.5 -68q-6 -39 -36 -74l-98 -117h-94z" />
    <glyph glyph-name="lcaron" unicode="&#x13e;" horiz-adv-x="444" 
d="M66 0l107 742h202l-107 -742h-202zM340 389l66 118q-34 26 -27 72q6 41 37 67.5t72 26.5q39 0 62.5 -25t17.5 -68q-5 -36 -36 -74l-98 -117h-94z" />
    <glyph glyph-name="Ldot" unicode="&#x13f;" horiz-adv-x="574" 
d="M59 0l101 701h208l-76 -527h294l-25 -174h-502zM400 490q5 40 35 66.5t71 26.5t63.5 -26t17.5 -67q-6 -42 -36.5 -68t-71.5 -26t-63 26t-16 68z" />
    <glyph glyph-name="ldot" unicode="&#x140;" horiz-adv-x="430" 
d="M66 0l107 742h202l-107 -742h-202zM331 313q6 42 36 68t72 26q41 0 63 -26t16 -68q-6 -41 -35.5 -67t-70.5 -26q-42 0 -64.5 26t-16.5 67z" />
    <glyph glyph-name="Lslash" unicode="&#x141;" horiz-adv-x="594" 
d="M37 414l107 30l37 257h208l-28 -197l141 40l17 -122l-177 -49l-29 -199h294l-25 -174h-502l45 313l-71 -20z" />
    <glyph glyph-name="lslash" unicode="&#x142;" horiz-adv-x="370" 
d="M26 426l135 37l40 279h202l-32 -220l79 22l17 -122l-115 -32l-56 -390h-202l48 332l-99 -27z" />
    <glyph glyph-name="Nacute" unicode="&#x143;" horiz-adv-x="783" 
d="M59 0l101 701h178l241 -392l56 392h190l-101 -701h-177l-241 390l-56 -390h-191zM403 752l133 180l167 -58l-152 -122h-148z" />
    <glyph glyph-name="nacute" unicode="&#x144;" horiz-adv-x="678" 
d="M61 0l78 544h202l-12 -84q72 92 187 92q88 0 133.5 -56.5t32.5 -150.5l-50 -345h-202l41 287q6 40 -12 64t-53 24q-41 -1 -69 -30t-35 -76l-39 -269h-202zM346 595l133 180l166 -58l-151 -122h-148z" />
    <glyph glyph-name="Ncommaaccent" unicode="&#x145;" horiz-adv-x="783" 
d="M59 0l101 701h178l241 -392l56 392h190l-101 -701h-177l-241 390l-56 -390h-191zM246 -320l65 117q-32 27 -26 73q6 41 36.5 67t72.5 26q39 0 62 -24.5t17 -67.5q-5 -40 -35 -74l-98 -117h-94z" />
    <glyph glyph-name="ncommaaccent" unicode="&#x146;" horiz-adv-x="678" 
d="M61 0l78 544h202l-12 -84q72 92 187 92q88 0 133.5 -56.5t32.5 -150.5l-50 -345h-202l41 287q6 40 -12 64t-53 24q-41 -1 -69 -30t-35 -76l-39 -269h-202zM199 -320l65 117q-32 27 -26 73q6 41 36.5 67t72.5 26q39 0 62 -24.5t17 -67.5q-5 -40 -35 -74l-98 -117h-94z" />
    <glyph glyph-name="Ncaron" unicode="&#x147;" horiz-adv-x="783" 
d="M59 0l101 701h178l241 -392l56 392h190l-101 -701h-177l-241 390l-56 -390h-191zM308 923h151l48 -91l74 91h151l-152 -172h-170z" />
    <glyph glyph-name="ncaron" unicode="&#x148;" horiz-adv-x="678" 
d="M61 0l78 544h202l-12 -84q72 92 187 92q88 0 133.5 -56.5t32.5 -150.5l-50 -345h-202l41 287q6 40 -12 64t-53 24q-41 -1 -69 -30t-35 -76l-39 -269h-202zM250 765h151l48 -91l74 91h151l-152 -172h-170z" />
    <glyph glyph-name="Eng" unicode="&#x14a;" horiz-adv-x="783" 
d="M59 0l101 701h178l241 -392l56 392h190l-101 -701q-20 -103 -96.5 -161.5t-189.5 -58.5q-97 0 -168 48l94 156q56 -29 100 -29q59 0 74 59l-232 376l-56 -390h-191z" />
    <glyph glyph-name="eng" unicode="&#x14b;" horiz-adv-x="678" 
d="M61 0l78 544h202l-12 -84q72 92 187 92q88 0 133.5 -56.5t32.5 -150.5l-53 -366q-12 -84 -76.5 -133t-157.5 -48q-85 0 -142 34l67 140q28 -17 56 -17q48 0 55 52l40 280q6 40 -12 64t-53 24q-41 -1 -69 -30t-35 -76l-39 -269h-202z" />
    <glyph glyph-name="Omacron" unicode="&#x14c;" horiz-adv-x="802" 
d="M70 351q22 154 145 255t288 101t259 -101t72 -255q-23 -155 -146 -257.5t-288 -102.5t-259 102.5t-71 257.5zM282 350q-11 -78 32.5 -131.5t113.5 -53.5t125.5 53t66.5 132q12 79 -28.5 131t-110.5 52q-71 0 -129 -52.5t-70 -130.5zM360 785l19 133h290l-19 -133h-290z
" />
    <glyph glyph-name="omacron" unicode="&#x14d;" horiz-adv-x="643" 
d="M58 272q19 127 112.5 203t230.5 76t209 -76t53 -203q-18 -126 -111.5 -202.5t-230.5 -76.5t-209 76.5t-54 202.5zM262 270q-8 -55 14 -88t67 -33q44 0 76 33t40 88q8 54 -14.5 87.5t-66.5 33.5q-45 0 -76.5 -33.5t-39.5 -87.5zM267 628l20 133h290l-20 -133h-290z" />
    <glyph glyph-name="Obreve" unicode="&#x14e;" horiz-adv-x="802" 
d="M70 351q22 154 145 255t288 101t259 -101t72 -255q-23 -155 -146 -257.5t-288 -102.5t-259 102.5t-71 257.5zM282 350q-11 -78 32.5 -131.5t113.5 -53.5t125.5 53t66.5 132q12 79 -28.5 131t-110.5 52q-71 0 -129 -52.5t-70 -130.5zM350 922h123q-2 -24 10 -39t34 -15
q21 0 37.5 15t22.5 39h123q-15 -76 -69 -121.5t-130 -45.5t-117 45.5t-34 121.5z" />
    <glyph glyph-name="obreve" unicode="&#x14f;" horiz-adv-x="643" 
d="M58 272q19 127 112.5 203t230.5 76t209 -76t53 -203q-18 -126 -111.5 -202.5t-230.5 -76.5t-209 76.5t-54 202.5zM257 765h123q-1 -24 11 -39t33 -15q22 0 38.5 15t21.5 39h123q-14 -76 -68.5 -121.5t-130.5 -45.5t-117 45.5t-34 121.5zM262 270q-8 -55 14 -88t67 -33
q44 0 76 33t40 88q8 54 -14.5 87.5t-66.5 33.5q-45 0 -76.5 -33.5t-39.5 -87.5z" />
    <glyph glyph-name="Ohungarumlaut" unicode="&#x150;" horiz-adv-x="802" 
d="M70 351q22 154 145 255t288 101t259 -101t72 -255q-23 -155 -146 -257.5t-288 -102.5t-259 102.5t-71 257.5zM282 350q-11 -78 32.5 -131.5t113.5 -53.5t125.5 53t66.5 132q12 79 -28.5 131t-110.5 52q-71 0 -129 -52.5t-70 -130.5zM311 752l112 181l142 -51l-109 -130
h-145zM520 752l112 181l142 -51l-109 -130h-145z" />
    <glyph glyph-name="ohungarumlaut" unicode="&#x151;" horiz-adv-x="643" 
d="M58 272q19 127 112.5 203t230.5 76t209 -76t53 -203q-18 -126 -111.5 -202.5t-230.5 -76.5t-209 76.5t-54 202.5zM219 594l112 181l141 -51l-108 -130h-145zM262 270q-8 -55 14 -88t67 -33q44 0 76 33t40 88q8 54 -14.5 87.5t-66.5 33.5q-45 0 -76.5 -33.5t-39.5 -87.5z
M428 594l112 181l141 -51l-108 -130h-145z" />
    <glyph glyph-name="OE" unicode="&#x152;" horiz-adv-x="1121" 
d="M69 349q22 151 144.5 251.5t287.5 100.5h670l-23 -160h-365l-16 -110h331l-23 -160h-331l-16 -111h375l-23 -160h-680q-164 0 -258.5 99t-72.5 250zM282 348q-11 -79 29.5 -130.5t112.5 -51.5l97 1l53 365h-97q-72 0 -128 -52.5t-67 -131.5z" />
    <glyph glyph-name="oe" unicode="&#x153;" horiz-adv-x="1008" 
d="M58 272q19 127 112.5 203t230.5 76q126 0 184 -80q77 80 195 80q139 0 204.5 -88.5t36.5 -235.5h-374q6 -41 31 -63t66 -22q64 0 129 52l90 -103q-103 -98 -258 -98q-125 0 -179 79q-81 -79 -205 -79q-137 0 -209 76.5t-54 202.5zM262 270q-8 -55 14 -88t67 -33
q44 0 76 33t40 88q8 54 -14.5 87.5t-66.5 33.5q-45 0 -76.5 -33.5t-39.5 -87.5zM657 322h175q7 40 -12 66.5t-57 26.5q-36 0 -64 -25.5t-42 -67.5z" />
    <glyph glyph-name="Racute" unicode="&#x154;" horiz-adv-x="725" 
d="M59 0l101 701h327q141 0 209 -65t51 -184q-23 -156 -150 -223l109 -229h-236l-66 189h-110l-27 -189h-208zM317 349h119q47 0 76 25t36 72q7 46 -15 70.5t-69 24.5h-119zM379 752l133 180l167 -58l-152 -122h-148z" />
    <glyph glyph-name="racute" unicode="&#x155;" horiz-adv-x="444" 
d="M61 0l78 544h202l-12 -86q74 94 185 94l-27 -182q-76 10 -127 -20.5t-60 -89.5l-37 -260h-202zM225 595l133 180l166 -58l-151 -122h-148z" />
    <glyph glyph-name="Rcommaaccent" unicode="&#x156;" horiz-adv-x="725" 
d="M59 0l101 701h327q141 0 209 -65t51 -184q-23 -156 -150 -223l109 -229h-236l-66 189h-110l-27 -189h-208zM213 -320l65 117q-32 27 -26 73q6 41 36.5 67t72.5 26q39 0 62 -24.5t17 -67.5q-5 -40 -35 -74l-98 -117h-94zM317 349h119q47 0 76 25t36 72q7 46 -15 70.5
t-69 24.5h-119z" />
    <glyph glyph-name="rcommaaccent" unicode="&#x157;" horiz-adv-x="444" 
d="M11 -320l65 117q-32 27 -26 73q6 41 36.5 67t72.5 26q39 0 62 -24.5t17 -67.5q-5 -40 -35 -74l-98 -117h-94zM61 0l78 544h202l-12 -86q74 94 185 94l-27 -182q-76 10 -127 -20.5t-60 -89.5l-37 -260h-202z" />
    <glyph glyph-name="Rcaron" unicode="&#x158;" horiz-adv-x="725" 
d="M59 0l101 701h327q141 0 209 -65t51 -184q-23 -156 -150 -223l109 -229h-236l-66 189h-110l-27 -189h-208zM284 922h151l48 -91l74 91h151l-152 -172h-170zM317 349h119q47 0 76 25t36 72q7 46 -15 70.5t-69 24.5h-119z" />
    <glyph glyph-name="rcaron" unicode="&#x159;" horiz-adv-x="444" 
d="M61 0l78 544h202l-12 -86q74 94 185 94l-27 -182q-76 10 -127 -20.5t-60 -89.5l-37 -260h-202zM129 765h151l48 -91l74 91h151l-152 -172h-170z" />
    <glyph glyph-name="Sacute" unicode="&#x15a;" horiz-adv-x="655" 
d="M27 105l101 158q47 -45 118.5 -76t126.5 -31q73 0 79 47q3 21 -15 36t-48.5 24.5t-68.5 18.5t-75 24t-66 36.5t-44 59t-8 87.5q15 101 102.5 161t219.5 60q79 0 154.5 -22t127.5 -59l-100 -160q-53 32 -116 55t-106 23q-58 0 -64 -38q-3 -21 15.5 -35.5t49 -24
t68.5 -19.5t74.5 -26t65.5 -38.5t43.5 -61.5t7.5 -90q-16 -107 -106 -163.5t-215 -56.5q-90 0 -176.5 30t-144.5 81zM361 752l133 180l167 -58l-152 -122h-148z" />
    <glyph glyph-name="sacute" unicode="&#x15b;" horiz-adv-x="535" 
d="M24 68l80 127q94 -67 187 -67q46 0 49 25q2 16 -24.5 28t-66 23t-78 27.5t-62 52t-16.5 87.5q13 84 84 133t175 49q125 0 229 -66l-85 -127q-104 57 -170 57q-40 0 -45 -26q-2 -16 25.5 -28t67.5 -23t79.5 -28t63.5 -53t17 -88q-12 -83 -84.5 -131.5t-180.5 -48.5
q-150 0 -245 77zM268 595l133 180l166 -58l-151 -122h-148z" />
    <glyph glyph-name="Scircumflex" unicode="&#x15c;" horiz-adv-x="655" 
d="M27 105l101 158q47 -45 118.5 -76t126.5 -31q73 0 79 47q3 21 -15 36t-48.5 24.5t-68.5 18.5t-75 24t-66 36.5t-44 59t-8 87.5q15 101 102.5 161t219.5 60q79 0 154.5 -22t127.5 -59l-100 -160q-53 32 -116 55t-106 23q-58 0 -64 -38q-3 -21 15.5 -35.5t49 -24
t68.5 -19.5t74.5 -26t65.5 -38.5t43.5 -61.5t7.5 -90q-16 -107 -106 -163.5t-215 -56.5q-90 0 -176.5 30t-144.5 81zM266 766l140 157h156l94 -157h-139l-44 83l-68 -83h-139z" />
    <glyph glyph-name="scircumflex" unicode="&#x15d;" horiz-adv-x="535" 
d="M24 68l80 127q94 -67 187 -67q46 0 49 25q2 16 -24.5 28t-66 23t-78 27.5t-62 52t-16.5 87.5q13 84 84 133t175 49q125 0 229 -66l-85 -127q-104 57 -170 57q-40 0 -45 -26q-2 -16 25.5 -28t67.5 -23t79.5 -28t63.5 -53t17 -88q-12 -83 -84.5 -131.5t-180.5 -48.5
q-150 0 -245 77zM172 608l139 157h156l95 -157h-139l-44 83l-68 -83h-139z" />
    <glyph glyph-name="Scedilla" unicode="&#x15e;" horiz-adv-x="655" 
d="M27 105l101 158q47 -45 118.5 -76t126.5 -31q73 0 79 47q3 21 -15 36t-48.5 24.5t-68.5 18.5t-75 24t-66 36.5t-44 59t-8 87.5q15 101 102.5 161t219.5 60q79 0 154.5 -22t127.5 -59l-100 -160q-53 32 -116 55t-106 23q-58 0 -64 -38q-3 -21 15.5 -35.5t49 -24
t68.5 -19.5t74.5 -26t65.5 -38.5t43.5 -61.5t7.5 -90q-14 -92 -83.5 -147t-171.5 -69l-33 -49q29 -10 44 -32t11 -50q-8 -50 -48.5 -79.5t-101.5 -29.5q-50 0 -93 33l48 82q17 -20 42 -20q18 0 30 9.5t14 24.5q2 16 -8 25.5t-31 9.5q-13 0 -37 -4l50 78q-167 15 -274 109z
" />
    <glyph glyph-name="scedilla" unicode="&#x15f;" horiz-adv-x="535" 
d="M24 68l80 127q94 -67 187 -67q46 0 49 25q2 16 -24.5 28t-66 23t-78 27.5t-62 52t-16.5 87.5q13 84 84 133t175 49q125 0 229 -66l-85 -127q-104 57 -170 57q-40 0 -45 -26q-2 -16 25.5 -28t67.5 -23t79.5 -28t63.5 -53t17 -88q-10 -68 -62 -114t-132 -60l-32 -48
q29 -10 44 -32t11 -50q-8 -50 -48.5 -79.5t-101.5 -29.5q-50 0 -93 33l48 82q17 -20 42 -20q18 0 30 9.5t14 24.5q2 16 -8 25.5t-31 9.5q-13 0 -37 -4l48 75q-119 9 -202 75z" />
    <glyph glyph-name="Scaron" unicode="&#x160;" horiz-adv-x="655" 
d="M27 105l101 158q47 -45 118.5 -76t126.5 -31q73 0 79 47q3 21 -15 36t-48.5 24.5t-68.5 18.5t-75 24t-66 36.5t-44 59t-8 87.5q15 101 102.5 161t219.5 60q79 0 154.5 -22t127.5 -59l-100 -160q-53 32 -116 55t-106 23q-58 0 -64 -38q-3 -21 15.5 -35.5t49 -24
t68.5 -19.5t74.5 -26t65.5 -38.5t43.5 -61.5t7.5 -90q-16 -107 -106 -163.5t-215 -56.5q-90 0 -176.5 30t-144.5 81zM266 923h151l48 -91l74 91h151l-152 -172h-170z" />
    <glyph glyph-name="scaron" unicode="&#x161;" horiz-adv-x="535" 
d="M24 68l80 127q94 -67 187 -67q46 0 49 25q2 16 -24.5 28t-66 23t-78 27.5t-62 52t-16.5 87.5q13 84 84 133t175 49q125 0 229 -66l-85 -127q-104 57 -170 57q-40 0 -45 -26q-2 -16 25.5 -28t67.5 -23t79.5 -28t63.5 -53t17 -88q-12 -83 -84.5 -131.5t-180.5 -48.5
q-150 0 -245 77zM172 765h151l48 -91l74 91h151l-152 -172h-170z" />
    <glyph glyph-name="Tcedilla" unicode="&#x162;" horiz-adv-x="628" 
d="M83 535l24 166h616l-24 -166h-204l-77 -535h-40l-34 -51q29 -10 44 -32t11 -50q-8 -50 -48.5 -79.5t-101.5 -29.5q-50 0 -93 33l48 82q17 -20 42 -20q18 0 30 9.5t14 24.5q2 16 -8 25.5t-31 9.5q-13 0 -37 -4l53 82h-58l77 535h-203z" />
    <glyph glyph-name="tcedilla" unicode="&#x163;" horiz-adv-x="449" 
d="M69 387l18 129h75l22 151h201l-22 -151h134l-18 -129h-134l-27 -186q-7 -52 38 -52q19 0 65 16l16 -139q-43 -22 -99 -30l-30 -47q29 -10 44 -32t11 -50q-8 -50 -48.5 -79.5t-101.5 -29.5q-50 0 -93 33l48 82q17 -20 42 -20q18 0 30 9.5t14 24.5q2 16 -8 25.5t-31 9.5
q-13 0 -37 -4l50 78q-63 13 -94.5 58.5t-21.5 115.5l32 217h-75z" />
    <glyph glyph-name="Tcaron" unicode="&#x164;" horiz-adv-x="628" 
d="M83 535l24 166h616l-24 -166h-204l-77 -535h-209l77 535h-203zM244 923h151l48 -91l74 91h151l-152 -172h-170z" />
    <glyph glyph-name="tcaron" unicode="&#x165;" horiz-adv-x="452" 
d="M69 387l18 129h75l22 151h201l-22 -151h134l-18 -129h-134l-27 -186q-7 -52 38 -52q19 0 65 16l16 -139q-65 -35 -156 -35q-88 -1 -134.5 47t-34.5 132l32 217h-75zM405 575l66 118q-34 25 -27 72q6 41 37 67.5t72 26.5q39 0 62 -25t17 -68q-5 -38 -35 -74l-98 -117h-94z
" />
    <glyph glyph-name="Tbar" unicode="&#x166;" horiz-adv-x="628" 
d="M83 535l24 166h616l-24 -166h-204l-77 -535h-209l77 535h-203zM297 785l19 133h290l-19 -133h-290z" />
    <glyph glyph-name="tbar" unicode="&#x167;" horiz-adv-x="449" 
d="M47 236l16 109h75l9 61h-75l15 110h75l22 151h201l-22 -151h134l-15 -110h-134l-9 -61h134l-16 -109h-134l-5 -35q-7 -52 38 -52q19 0 65 16l16 -139q-65 -35 -156 -35q-88 -1 -134.5 47t-34.5 132l10 66h-75z" />
    <glyph glyph-name="Utilde" unicode="&#x168;" horiz-adv-x="755" 
d="M91 296l58 405h208l-58 -405q-9 -59 21.5 -95t84.5 -36q53 0 90.5 35t46.5 96l58 405h208l-58 -405q-20 -140 -120.5 -222.5t-250.5 -82.5q-151 0 -229.5 83t-58.5 222zM303 774q24 171 136 171q34 0 66.5 -21.5t40.5 -21.5q27 0 33 40h122q-25 -171 -136 -171
q-35 0 -67 21.5t-41 21.5q-27 0 -31 -40h-123z" />
    <glyph glyph-name="utilde" unicode="&#x169;" horiz-adv-x="668" 
d="M75 199l49 345h202l-41 -288q-6 -40 10.5 -63.5t49.5 -23.5q39 1 66 30t34 76l38 269h202l-78 -544h-202l12 81q-71 -90 -180 -90q-86 0 -131 56.5t-31 151.5zM230 617q25 171 137 171q34 0 66 -21.5t40 -21.5q27 0 33 40h122q-25 -171 -136 -171q-27 0 -48 11t-35 21.5
t-24 10.5q-26 0 -32 -40h-123z" />
    <glyph glyph-name="Umacron" unicode="&#x16a;" horiz-adv-x="755" 
d="M91 296l58 405h208l-58 -405q-9 -59 21.5 -95t84.5 -36q53 0 90.5 35t46.5 96l58 405h208l-58 -405q-20 -140 -120.5 -222.5t-250.5 -82.5q-151 0 -229.5 83t-58.5 222zM346 785l19 133h290l-19 -133h-290z" />
    <glyph glyph-name="umacron" unicode="&#x16b;" horiz-adv-x="668" 
d="M75 199l49 345h202l-41 -288q-6 -40 10.5 -63.5t49.5 -23.5q39 1 66 30t34 76l38 269h202l-78 -544h-202l12 81q-71 -90 -180 -90q-86 0 -131 56.5t-31 151.5zM273 628l20 133h290l-20 -133h-290z" />
    <glyph glyph-name="Ubreve" unicode="&#x16c;" horiz-adv-x="755" 
d="M91 296l58 405h208l-58 -405q-9 -59 21.5 -95t84.5 -36q53 0 90.5 35t46.5 96l58 405h208l-58 -405q-20 -140 -120.5 -222.5t-250.5 -82.5q-151 0 -229.5 83t-58.5 222zM336 922h123q-2 -24 10 -39t34 -15q21 0 37.5 15t22.5 39h123q-15 -76 -69 -121.5t-130 -45.5
t-117 45.5t-34 121.5z" />
    <glyph glyph-name="ubreve" unicode="&#x16d;" horiz-adv-x="668" 
d="M75 199l49 345h202l-41 -288q-6 -40 10.5 -63.5t49.5 -23.5q39 1 66 30t34 76l38 269h202l-78 -544h-202l12 81q-71 -90 -180 -90q-86 0 -131 56.5t-31 151.5zM264 765h123q-1 -24 11 -39t33 -15q22 0 38.5 15t21.5 39h123q-14 -76 -68.5 -121.5t-130.5 -45.5t-117 45.5
t-34 121.5z" />
    <glyph glyph-name="Uring" unicode="&#x16e;" horiz-adv-x="755" 
d="M91 296l58 405h208l-58 -405q-9 -59 21.5 -95t84.5 -36q53 0 90.5 35t46.5 96l58 405h208l-58 -405q-20 -140 -120.5 -222.5t-250.5 -82.5q-151 0 -229.5 83t-58.5 222zM378 856q7 51 48.5 86.5t92.5 35.5t81.5 -35.5t23.5 -86.5t-48 -86.5t-92 -35.5t-82 35.5t-24 86.5z
M456 856q-2 -19 9 -32t30 -13t34 13t17 32q3 19 -8 32t-30 13t-34 -13t-18 -32z" />
    <glyph glyph-name="uring" unicode="&#x16f;" horiz-adv-x="668" 
d="M75 199l49 345h202l-41 -288q-6 -40 10.5 -63.5t49.5 -23.5q39 1 66 30t34 76l38 269h202l-78 -544h-202l12 81q-71 -90 -180 -90q-86 0 -131 56.5t-31 151.5zM306 699q7 51 48 86.5t92 35.5t82 -35.5t24 -86.5t-48.5 -86.5t-92.5 -35.5t-81.5 35.5t-23.5 86.5zM384 699
q-3 -19 8 -32t30 -13t34 13t18 32q2 19 -9 32t-30 13t-34 -13t-17 -32z" />
    <glyph glyph-name="Uhungarumlaut" unicode="&#x170;" horiz-adv-x="755" 
d="M91 296l58 405h208l-58 -405q-9 -59 21.5 -95t84.5 -36q53 0 90.5 35t46.5 96l58 405h208l-58 -405q-20 -140 -120.5 -222.5t-250.5 -82.5q-151 0 -229.5 83t-58.5 222zM297 751l112 181l142 -51l-109 -130h-145zM506 751l112 181l142 -51l-109 -130h-145z" />
    <glyph glyph-name="uhungarumlaut" unicode="&#x171;" horiz-adv-x="668" 
d="M75 199l49 345h202l-41 -288q-6 -40 10.5 -63.5t49.5 -23.5q39 1 66 30t34 76l38 269h202l-78 -544h-202l12 81q-71 -90 -180 -90q-86 0 -131 56.5t-31 151.5zM226 594l112 181l141 -51l-108 -130h-145zM435 594l112 181l141 -51l-108 -130h-145z" />
    <glyph glyph-name="Uogonek" unicode="&#x172;" horiz-adv-x="756" 
d="M91 296l58 405h208l-58 -405q-9 -59 21.5 -95t84.5 -36q53 0 90.5 35t46.5 96l58 405h209l-58 -405q-16 -104 -77 -178t-157 -106q-58 -69 -62 -97q-3 -19 14 -19q22 0 43 31l43 -59q-51 -71 -125 -71q-37 0 -62 20t-18 65q6 48 55 110l-26 -1q-151 0 -229.5 83
t-58.5 222z" />
    <glyph glyph-name="uogonek" unicode="&#x173;" horiz-adv-x="665" 
d="M75 199l49 345h202l-41 -288q-6 -40 11.5 -63.5t52.5 -23.5q39 1 67 28.5t36 72.5l39 274h201l-78 -544h-50q-50 -58 -53 -85q-3 -19 14 -19q21 0 44 31l42 -59q-51 -71 -125 -71q-37 0 -62 20t-18 65q8 52 62 118h-55l12 83q-71 -92 -184 -92q-88 0 -134 56.5t-32 151.5
z" />
    <glyph glyph-name="Wcircumflex" unicode="&#x174;" horiz-adv-x="1103" 
d="M98 701h222l50 -485l187 484l203 1l50 -485l187 485h213l-331 -701h-214l-48 447l-178 -447h-214zM425 766l140 157h156l94 -157h-139l-44 83l-68 -83h-139z" />
    <glyph glyph-name="wcircumflex" unicode="&#x175;" horiz-adv-x="959" 
d="M70 544h205l48 -347l144 347h190l47 -347l146 347h196l-276 -544h-199l-45 312l-137 -312h-199zM373 608l139 157h156l95 -157h-139l-44 83l-68 -83h-139z" />
    <glyph glyph-name="Ycircumflex" unicode="&#x176;" horiz-adv-x="702" 
d="M93 701h208l112 -286l190 286h207l-321 -479l-32 -222h-208l31 218zM266 766l140 157h156l94 -157h-139l-44 83l-68 -83h-139z" />
    <glyph glyph-name="ycircumflex" unicode="&#x177;" horiz-adv-x="605" 
d="M-37 -143l104 135q31 -31 68 -31q42 0 64 35l13 19l-149 529h207l71 -333l149 333h201l-313 -590q-85 -157 -248 -157q-97 0 -167 60zM196 608l139 157h156l95 -157h-139l-44 83l-68 -83h-139z" />
    <glyph glyph-name="Ydieresis" unicode="&#x178;" horiz-adv-x="702" 
d="M93 701h208l112 -286l190 286h207l-321 -479l-32 -222h-208l31 218zM287 853q5 37 32.5 61t65.5 24t58.5 -24t15.5 -61q-5 -38 -33 -62t-65 -24q-38 0 -58.5 24.5t-15.5 61.5zM489 853q5 37 32.5 61t65.5 24t58.5 -24t15.5 -61q-5 -38 -33 -62t-65 -24q-38 0 -58.5 24.5
t-15.5 61.5z" />
    <glyph glyph-name="Zacute" unicode="&#x179;" horiz-adv-x="679" 
d="M24 0l19 131l407 408h-336l23 162h613l-19 -132l-407 -407h355l-23 -162h-632zM368 752l133 180l167 -58l-152 -122h-148z" />
    <glyph glyph-name="zacute" unicode="&#x17a;" horiz-adv-x="561" 
d="M29 0l17 119l283 273h-234l22 152h488l-17 -120l-283 -273h254l-22 -151h-508zM269 595l133 180l166 -58l-151 -122h-148z" />
    <glyph glyph-name="Zdotaccent" unicode="&#x17b;" horiz-adv-x="679" 
d="M24 0l19 131l407 408h-336l23 162h613l-19 -132l-407 -407h355l-23 -162h-632zM377 856q7 46 40 75t79 29t71 -29t18 -75q-6 -46 -39.5 -75t-79.5 -29t-70.5 29t-18.5 75z" />
    <glyph glyph-name="zdotaccent" unicode="&#x17c;" horiz-adv-x="561" 
d="M29 0l17 119l283 273h-234l22 152h488l-17 -120l-283 -273h254l-22 -151h-508zM278 699q7 46 40 75t79 29t71 -29t18 -75t-40 -75t-79 -29t-71 29t-18 75z" />
    <glyph glyph-name="Zcaron" unicode="&#x17d;" horiz-adv-x="679" 
d="M24 0l19 131l407 408h-336l23 162h613l-19 -132l-407 -407h355l-23 -162h-632zM273 922h151l48 -91l74 91h151l-152 -172h-170z" />
    <glyph glyph-name="zcaron" unicode="&#x17e;" horiz-adv-x="561" 
d="M29 0l17 119l283 273h-234l22 152h488l-17 -120l-283 -273h254l-22 -151h-508zM173 765h151l48 -91l74 91h151l-152 -172h-170z" />
    <glyph glyph-name="florin" unicode="&#x192;" horiz-adv-x="429" 
d="M-134 -164l70 138q22 -20 52 -20q22 -1 38 14t24 42l88 328h-74l34 128h74l28 104q22 83 92 133t162 49q94 0 153 -39l-87 -138q-23 20 -54 20q-27 1 -46.5 -14t-26.5 -41l-20 -74h113l-34 -128h-113l-96 -359q-23 -84 -91 -133.5t-162 -48.5q-78 0 -124 39z" />
    <glyph glyph-name="Scommaaccent" unicode="&#x218;" horiz-adv-x="655" 
d="M27 105l101 158q47 -45 118.5 -76t126.5 -31q73 0 79 47q3 21 -15 36t-48.5 24.5t-68.5 18.5t-75 24t-66 36.5t-44 59t-8 87.5q15 101 102.5 161t219.5 60q79 0 154.5 -22t127.5 -59l-100 -160q-53 32 -116 55t-106 23q-58 0 -64 -38q-3 -21 15.5 -35.5t49 -24
t68.5 -19.5t74.5 -26t65.5 -38.5t43.5 -61.5t7.5 -90q-16 -107 -106 -163.5t-215 -56.5q-90 0 -176.5 30t-144.5 81zM193 -320l65 117q-32 27 -26 73q6 41 36.5 67t72.5 26q39 0 62 -24.5t17 -67.5q-5 -40 -35 -74l-98 -117h-94z" />
    <glyph glyph-name="scommaaccent" unicode="&#x219;" horiz-adv-x="535" 
d="M24 68l80 127q94 -67 187 -67q46 0 49 25q2 16 -24.5 28t-66 23t-78 27.5t-62 52t-16.5 87.5q13 84 84 133t175 49q125 0 229 -66l-85 -127q-104 57 -170 57q-40 0 -45 -26q-2 -16 25.5 -28t67.5 -23t79.5 -28t63.5 -53t17 -88q-12 -83 -84.5 -131.5t-180.5 -48.5
q-150 0 -245 77zM120 -320l65 117q-32 27 -26 73q6 41 36.5 67t72.5 26q39 0 62 -24.5t17 -67.5q-5 -40 -35 -74l-98 -117h-94z" />
    <glyph glyph-name="Tcommaaccent" unicode="&#x21a;" horiz-adv-x="628" 
d="M83 535l24 166h616l-24 -166h-204l-77 -535h-209l77 535h-203zM156 -320l65 117q-32 27 -26 73q6 41 36.5 67t72.5 26q39 0 62 -24.5t17 -67.5q-5 -40 -35 -74l-98 -117h-94z" />
    <glyph glyph-name="tcommaaccent" unicode="&#x21b;" horiz-adv-x="449" 
d="M69 387l18 129h75l22 151h201l-22 -151h134l-18 -129h-134l-27 -186q-7 -52 38 -52q19 0 65 16l16 -139q-65 -35 -156 -35q-88 -1 -134.5 47t-34.5 132l32 217h-75zM120 -320l65 117q-32 27 -26 73q6 41 36.5 67t72.5 26q39 0 62 -24.5t17 -67.5q-5 -40 -35 -74l-98 -117
h-94z" />
    <glyph glyph-name="dotlessj" unicode="&#x237;" horiz-adv-x="325" 
d="M-113 -168l65 139q26 -16 57 -16q49 -2 58 57l76 532h202l-81 -562q-12 -86 -74.5 -135.5t-157.5 -48.5q-86 0 -145 34z" />
    <glyph glyph-name="circumflex" unicode="&#x2c6;" horiz-adv-x="350" 
d="M68 609l139 157h156l95 -157h-139l-44 83l-68 -83h-139z" />
    <glyph glyph-name="caron" unicode="&#x2c7;" horiz-adv-x="350" 
d="M73 766h151l48 -91l74 91h151l-151 -172h-170z" />
    <glyph glyph-name="firsttonechinese" unicode="&#x2c9;" horiz-adv-x="350" 
d="M120 628l20 133h290l-20 -133h-290z" />
    <glyph glyph-name="breve" unicode="&#x2d8;" horiz-adv-x="350" 
d="M110 765h123q-1 -24 11 -39t33 -15q22 0 38.5 15t21.5 39h123q-14 -76 -68.5 -121.5t-130.5 -45.5t-117 45.5t-34 121.5z" />
    <glyph glyph-name="dotaccent" unicode="&#x2d9;" horiz-adv-x="350" 
d="M172 699q7 46 40 75t79 29t71 -29t18 -75t-40 -75t-79 -29t-71 29t-18 75z" />
    <glyph glyph-name="ring" unicode="&#x2da;" horiz-adv-x="350" 
d="M153 699q7 51 48 86.5t92 35.5t82 -35.5t24 -86.5t-48.5 -86.5t-92.5 -35.5t-81.5 35.5t-23.5 86.5zM231 699q-3 -19 8 -32t30 -13t34 13t18 32q2 19 -9 32t-30 13t-34 -13t-17 -32z" />
    <glyph glyph-name="ogonek" unicode="&#x2db;" horiz-adv-x="350" 
d="M56 -118q8 58 80 139h96q-67 -77 -71 -106q-3 -19 14 -19q21 0 44 31l42 -59q-51 -71 -124 -71q-38 0 -63 20t-18 65z" />
    <glyph glyph-name="tilde" unicode="&#x2dc;" horiz-adv-x="350" 
d="M77 617q25 171 137 171q34 0 66 -21.5t40 -21.5q27 0 33 40h122q-25 -171 -136 -171q-27 0 -48 11t-35 21.5t-24 10.5q-26 0 -32 -40h-123z" />
    <glyph glyph-name="hungarumlaut" unicode="&#x2dd;" horiz-adv-x="350" 
d="M39 595l112 181l141 -51l-108 -130h-145zM248 595l112 181l141 -51l-108 -130h-145z" />
    <glyph glyph-name="commaaccent" unicode="&#x326;" horiz-adv-x="0" 
d="M-24 -320l65 117q-32 27 -26 73q6 41 36.5 67t72.5 26q39 0 62 -24.5t17 -67.5q-5 -40 -35 -74l-98 -117h-94z" />
    <glyph glyph-name="Delta" unicode="&#x394;" horiz-adv-x="786" 
d="M-8 0l400 701h214l188 -701h-802zM285 150h255l-77 343z" />
    <glyph glyph-name="Omega" unicode="&#x3a9;" horiz-adv-x="843" 
d="M6 0l23 162h158q-38 40 -58 103.5t-12 121.5q20 140 135 232t271 92q157 0 246 -92t69 -232q-8 -58 -46.5 -121t-88.5 -104h157l-23 -162h-358l22 150q57 37 99.5 99t50.5 120q11 75 -32 123.5t-120 48.5q-76 0 -133 -48.5t-68 -123.5q-8 -58 16.5 -120t70.5 -100
l-21 -149h-358z" />
    <glyph glyph-name="pi" unicode="&#x3c0;" horiz-adv-x="731" 
d="M37 386q9 68 67 113t138 45h554l-19 -141h-115l-58 -403h-166l58 403h-60l-100 -403h-166l99 403h-21q-23 0 -40.5 -14.5t-19.5 -36.5q-4 -22 10 -65l-145 -47q-27 75 -16 146z" />
    <glyph glyph-name="Wgrave" unicode="&#x1e80;" horiz-adv-x="1103" 
d="M98 701h222l50 -485l187 484l203 1l50 -485l187 485h213l-331 -701h-214l-48 447l-178 -447h-214zM455 874l183 58l81 -180h-148z" />
    <glyph glyph-name="wgrave" unicode="&#x1e81;" horiz-adv-x="959" 
d="M70 544h205l48 -347l144 347h190l47 -347l146 347h196l-276 -544h-199l-45 312l-137 -312h-199zM403 717l184 58l81 -180h-148z" />
    <glyph glyph-name="Wacute" unicode="&#x1e82;" horiz-adv-x="1103" 
d="M98 701h222l50 -485l187 484l203 1l50 -485l187 485h213l-331 -701h-214l-48 447l-178 -447h-214zM520 752l133 180l167 -58l-152 -122h-148z" />
    <glyph glyph-name="wacute" unicode="&#x1e83;" horiz-adv-x="959" 
d="M70 544h205l48 -347l144 347h190l47 -347l146 347h196l-276 -544h-199l-45 312l-137 -312h-199zM469 595l133 180l166 -58l-151 -122h-148z" />
    <glyph glyph-name="Wdieresis" unicode="&#x1e84;" horiz-adv-x="1103" 
d="M98 701h222l50 -485l187 484l203 1l50 -485l187 485h213l-331 -701h-214l-48 447l-178 -447h-214zM446 853q5 37 32.5 61t65.5 24t58.5 -24t15.5 -61q-5 -38 -33 -62t-65 -24q-38 0 -58.5 24.5t-15.5 61.5zM648 853q5 37 32.5 61t65.5 24t58.5 -24t15.5 -61
q-5 -38 -33 -62t-65 -24q-38 0 -58.5 24.5t-15.5 61.5z" />
    <glyph glyph-name="wdieresis" unicode="&#x1e85;" horiz-adv-x="959" 
d="M70 544h205l48 -347l144 347h190l47 -347l146 347h196l-276 -544h-199l-45 312l-137 -312h-199zM393 696q5 37 33 61t66 24q37 0 57.5 -23.5t15.5 -61.5t-33 -62t-65 -24q-38 0 -58.5 24.5t-15.5 61.5zM595 696q5 37 33 61t66 24q37 0 57.5 -23.5t15.5 -61.5t-33 -62
t-65 -24q-38 0 -58.5 24.5t-15.5 61.5z" />
    <glyph glyph-name="Ygrave" unicode="&#x1ef2;" horiz-adv-x="702" 
d="M93 701h208l112 -286l190 286h207l-321 -479l-32 -222h-208l31 218zM297 874l183 58l81 -180h-148z" />
    <glyph glyph-name="ygrave" unicode="&#x1ef3;" horiz-adv-x="605" 
d="M-37 -143l104 135q31 -31 68 -31q42 0 64 35l13 19l-149 529h207l71 -333l149 333h201l-313 -590q-85 -157 -248 -157q-97 0 -167 60zM225 717l184 58l81 -180h-148z" />
    <glyph glyph-name="endash" unicode="&#x2013;" horiz-adv-x="409" 
d="M31 212l18 127h409l-18 -127h-409z" />
    <glyph glyph-name="emdash" unicode="&#x2014;" horiz-adv-x="627" 
d="M31 212l18 127h627l-18 -127h-627z" />
    <glyph glyph-name="quoteleft" unicode="&#x2018;" horiz-adv-x="254" 
d="M96 511q5 40 35 74l98 117h94l-65 -117q32 -27 26 -73q-6 -41 -37 -67.5t-72 -26.5q-39 0 -62 25t-17 68z" />
    <glyph glyph-name="quoteright" unicode="&#x2019;" horiz-adv-x="254" 
d="M82 417l65 118q-32 26 -26 72q6 41 37 67.5t72 26.5q39 0 62.5 -25t17.5 -68q-5 -36 -36 -74l-98 -117h-94z" />
    <glyph glyph-name="quotesinglbase" unicode="&#x201a;" horiz-adv-x="254" 
d="M7 -104l66 118q-34 25 -27 72q6 41 37 67.5t72 26.5q39 0 62.5 -25t17.5 -68q-5 -36 -36 -74l-98 -117h-94z" />
    <glyph glyph-name="quotedblleft" unicode="&#x201c;" horiz-adv-x="444" 
d="M96 511q5 38 35 74l98 117h94l-66 -118q34 -25 27 -72q-6 -41 -37 -67.5t-72 -26.5q-39 0 -62 25t-17 68zM299 511q5 38 35 74l98 117h94l-66 -118q34 -25 27 -72q-6 -41 -37 -67.5t-72 -26.5q-39 0 -62 25t-17 68z" />
    <glyph glyph-name="quotedblright" unicode="&#x201d;" horiz-adv-x="452" 
d="M82 417l66 118q-34 26 -27 72q6 41 37 67.5t72 26.5q39 0 62.5 -25t17.5 -68q-5 -36 -36 -74l-98 -117h-94zM286 417l66 118q-34 26 -27 72q6 41 37 67.5t72 26.5q39 0 62.5 -25t17.5 -68q-5 -36 -36 -74l-98 -117h-94z" />
    <glyph glyph-name="quotedblbase" unicode="&#x201e;" horiz-adv-x="458" 
d="M7 -104l66 118q-34 25 -27 72q6 41 37 67.5t72 26.5q39 0 62.5 -25t17.5 -68q-5 -36 -36 -74l-98 -117h-94zM211 -104l66 118q-34 25 -27 72q6 41 37 67.5t72 26.5q39 0 62.5 -25t17.5 -68q-5 -36 -36 -74l-98 -117h-94z" />
    <glyph glyph-name="dagger" unicode="&#x2020;" horiz-adv-x="593" 
d="M68 339l23 160h174l29 200h201l-29 -200h180l-23 -160h-180l-76 -525h-201l76 525h-174z" />
    <glyph glyph-name="daggerdbl" unicode="&#x2021;" horiz-adv-x="593" 
d="M22 23l23 160h174l23 156h-174l23 160h174l29 200h201l-29 -200h180l-23 -160h-180l-23 -156h180l-23 -160h-180l-30 -209h-201l30 209h-174z" />
    <glyph glyph-name="bullet" unicode="&#x2022;" horiz-adv-x="350" 
d="M73 280q9 62 54.5 101.5t107.5 39.5q63 0 96.5 -39.5t24.5 -101.5q-9 -63 -54 -102.5t-108 -39.5q-62 0 -96 39.5t-25 102.5z" />
    <glyph glyph-name="ellipsis" unicode="&#x2026;" horiz-adv-x="716" 
d="M45 86q6 40 36 66.5t71 26.5q42 0 64 -26t16 -67q-6 -42 -35.5 -68t-71.5 -26q-41 0 -63.5 26t-16.5 68zM277 86q6 41 36 67t71 26t63 -26t16 -67q-6 -42 -35.5 -68t-70.5 -26t-63.5 26t-16.5 68zM508 86q6 41 36 67t71 26t63 -26t16 -67q-6 -42 -35.5 -68t-70.5 -26
t-63.5 26t-16.5 68z" />
    <glyph glyph-name="perthousand" unicode="&#x2030;" horiz-adv-x="1505" 
d="M99 492q14 98 76.5 155t154.5 57t138 -57.5t32 -154.5q-14 -98 -77 -156.5t-154 -58.5q-92 0 -138 58.5t-32 156.5zM182 0l594 701h188l-593 -701h-189zM226 492q-8 -50 8 -78.5t50 -28.5t57.5 28.5t31.5 78.5q7 49 -8.5 77.5t-49.5 28.5t-58 -28.5t-31 -77.5zM650 210
q14 98 77 155.5t155 57.5t137.5 -58t31.5 -155q-14 -98 -76.5 -156t-154.5 -58t-138 58t-32 156zM777 210q-7 -50 9 -78.5t50 -28.5t57.5 29t30.5 78q8 49 -7.5 77.5t-49.5 28.5t-58 -28.5t-32 -77.5zM1106 210q14 98 77 155.5t155 57.5t137.5 -58t31.5 -155
q-14 -98 -76.5 -156t-154.5 -58t-138 58t-32 156zM1233 210q-7 -50 9 -78.5t50 -28.5t57.5 29t30.5 78q8 49 -7.5 77.5t-49.5 28.5t-58 -28.5t-32 -77.5z" />
    <glyph glyph-name="guilsinglleft" unicode="&#x2039;" horiz-adv-x="283" 
d="M30 270l150 189h162l-133 -189l79 -190h-162z" />
    <glyph glyph-name="guilsinglright" unicode="&#x203a;" horiz-adv-x="286" 
d="M26 80l134 189l-80 190h163l95 -190l-149 -189h-163z" />
    <glyph glyph-name="fraction" unicode="&#x2044;" horiz-adv-x="135" 
d="M-274 0l594 701h188l-593 -701h-189z" />
    <glyph glyph-name="euro" unicode="&#x20ac;" horiz-adv-x="777" 
d="M67 244l12 80h83q-9 10 -5 28q2 18 5 29h-83l11 79h98q51 111 159 179t239 68q79 0 153 -33.5t119 -90.5l-141 -142q-27 42 -68.5 67.5t-84.5 25.5q-90 0 -148 -74h212l-11 -79h-240q-1 -3 -2.5 -8.5t-2.5 -10t-1 -8.5q-2 -20 -2 -30h240l-12 -80h-210q39 -71 125 -71h8
q40 0 88.5 22t89.5 59l102 -128q-65 -62 -151.5 -98.5t-165.5 -36.5q-129 0 -215 69.5t-104 183.5h-97z" />
    <glyph glyph-name="literSign" unicode="&#x2113;" horiz-adv-x="476" 
d="M27 190l93 58l69 227q38 118 100.5 176.5t136.5 58.5q60 0 87.5 -37t17.5 -103q-6 -38 -21.5 -75t-42.5 -71.5t-49.5 -60t-61 -57.5t-56 -45.5t-54.5 -40.5q-30 -98 37 -98q50 0 126 76l46 -69q-105 -135 -235 -135q-133 0 -128 143l-49 -26zM290 359q120 113 135 208
q5 43 -19 43q-40 0 -75 -117z" />
    <glyph glyph-name="trademark" unicode="&#x2122;" horiz-adv-x="914" 
d="M74 585l17 116h357l-17 -116h-106l-44 -305h-145l44 305h-106zM423 280l61 421h158l59 -209l120 209h158l-61 -421h-130l31 215l-93 -174h-99l-43 174l-31 -215h-130z" />
    <glyph glyph-name="estimated" unicode="&#x212e;" horiz-adv-x="809" 
d="M116 319q18 125 128.5 213.5t249.5 88.5t224.5 -88.5t67.5 -213.5l-1 -7h-543q-5 0 -6 -4l-23 -164q-1 -9 5 -19q70 -89 193 -89q63 0 123.5 26.5t105.5 72.5h49q-54 -54 -128 -85.5t-153 -31.5q-139 0 -224.5 88.5t-67.5 212.5zM240 333q0 -5 4 -5h416q6 0 6 5l24 165
q1 11 -6 20q-74 85 -191 85q-120 0 -218 -88q-11 -9 -12 -20z" />
    <glyph glyph-name="oneeighth" unicode="&#x215b;" horiz-adv-x="926" 
d="M76 0l594 701h188l-593 -701h-189zM92 593l16 108h218l-61 -420h-141l45 312h-77zM544 117q5 34 30 63t63 44q-23 16 -34.5 40t-7.5 49q7 51 56.5 81.5t123.5 30.5q76 0 116.5 -32t32.5 -85q-6 -50 -59 -84q30 -15 45 -43.5t11 -61.5q-8 -57 -64.5 -91t-142.5 -34
t-132 33.5t-38 89.5zM679 131q-6 -39 49 -39q56 0 62 39q6 40 -50 40q-55 0 -61 -40zM711 301q-2 -16 8.5 -25t33.5 -9q47 0 52 34q3 17 -7.5 26.5t-33.5 9.5q-47 0 -53 -36z" />
    <glyph glyph-name="threeeighths" unicode="&#x215c;" horiz-adv-x="985" 
d="M50 331l71 103q39 -58 98 -58q48 0 54 38q2 19 -8.5 28.5t-34.5 9.5h-78l10 71l97 78h-148l14 98h308l-11 -76l-110 -88l18 -5q43 -9 66 -39.5t16 -76.5q-9 -61 -62.5 -100t-132.5 -39q-49 0 -94.5 15.5t-72.5 40.5zM135 0l594 701h188l-593 -701h-189zM603 117
q5 34 30 63t63 44q-23 16 -34.5 40t-7.5 49q7 51 56.5 81.5t123.5 30.5q76 0 116.5 -32t32.5 -85q-6 -50 -59 -84q30 -15 45 -43.5t11 -61.5q-8 -57 -64.5 -91t-142.5 -34t-132 33.5t-38 89.5zM738 131q-6 -39 49 -39q56 0 62 39q6 40 -50 40q-55 0 -61 -40zM770 301
q-2 -16 8.5 -25t33.5 -9q47 0 52 34q3 17 -7.5 26.5t-33.5 9.5q-47 0 -53 -36z" />
    <glyph glyph-name="fiveeighths" unicode="&#x215d;" horiz-adv-x="998" 
d="M56 330l71 104q39 -58 98 -58q49 0 55 39q2 17 -9 26.5t-36 9.5q-97 0 -123 -1l36 251h305l-15 -104h-175l-7 -48h22q79 0 121 -33.5t34 -91.5q-10 -68 -65.5 -108.5t-139.5 -40.5q-98 0 -172 55zM148 0l594 701h188l-593 -701h-189zM616 117q5 34 30 63t63 44
q-23 16 -34.5 40t-7.5 49q7 51 56.5 81.5t123.5 30.5q76 0 116.5 -32t32.5 -85q-6 -50 -59 -84q30 -15 45 -43.5t11 -61.5q-8 -57 -64.5 -91t-142.5 -34t-132 33.5t-38 89.5zM751 131q-6 -39 49 -39q56 0 62 39q6 40 -50 40q-55 0 -61 -40zM783 301q-2 -16 8.5 -25t33.5 -9
q47 0 52 34q3 17 -7.5 26.5t-33.5 9.5q-47 0 -53 -36z" />
    <glyph glyph-name="seveneighths" unicode="&#x215e;" horiz-adv-x="971" 
d="M102 538l23 163h360l-13 -91l-201 -329h-149l192 316h-80l-8 -59h-124zM121 0l594 701h188l-593 -701h-189zM590 117q5 34 30 63t63 44q-23 16 -34.5 40t-7.5 49q7 51 56.5 81.5t123.5 30.5q76 0 116.5 -32t32.5 -85q-6 -50 -59 -84q30 -15 45 -43.5t11 -61.5
q-8 -57 -64.5 -91t-142.5 -34t-132 33.5t-38 89.5zM725 131q-6 -39 49 -39q56 0 62 39q6 40 -50 40q-55 0 -61 -40zM757 301q-2 -16 8.5 -25t33.5 -9q47 0 52 34q3 17 -7.5 26.5t-33.5 9.5q-47 0 -53 -36z" />
    <glyph glyph-name="partialdiff" unicode="&#x2202;" horiz-adv-x="641" 
d="M57 235q15 103 88.5 166.5t179.5 63.5q99 0 137 -68q12 74 -18 113t-100 39q-89 0 -160 -55l-58 146q52 32 121 51t133 19q148 0 222.5 -98t51.5 -261q-24 -166 -121 -263t-242 -97q-121 0 -185.5 66.5t-48.5 177.5zM250 236q-11 -79 73 -79t96 78q5 37 -14.5 57.5
t-61.5 20.5q-82 0 -93 -77z" />
    <glyph glyph-name="product" unicode="&#x220f;" horiz-adv-x="737" 
d="M31 -194l135 936h620l-135 -936h-202l112 778h-216l-112 -778h-202z" />
    <glyph glyph-name="summation" unicode="&#x2211;" horiz-adv-x="619" 
d="M5 -138l21 143l290 296l-193 297l21 147h565l-25 -174h-325l177 -270l-254 -265h335l-25 -174h-587z" />
    <glyph glyph-name="minus" unicode="&#x2212;" horiz-adv-x="515" 
d="M69 265l18 126h453l-18 -126h-453z" />
    <glyph glyph-name="divisionslash" unicode="&#x2215;" horiz-adv-x="364" 
d="M-59 -107l458 915h169l-458 -915h-169z" />
    <glyph glyph-name="bulletoperator" unicode="&#x2219;" horiz-adv-x="350" 
d="M73 280q9 62 54.5 101.5t107.5 39.5q63 0 96.5 -39.5t24.5 -101.5q-9 -63 -54 -102.5t-108 -39.5q-62 0 -96 39.5t-25 102.5z" />
    <glyph glyph-name="radical" unicode="&#x221a;" horiz-adv-x="717" 
d="M34 255l23 159h267l46 -373l281 703h193l-397 -903h-215l-70 414h-128z" />
    <glyph glyph-name="infinity" unicode="&#x221e;" horiz-adv-x="843" 
d="M62 297q13 96 82 159t159 63q66 0 105.5 -31t69.5 -86q45 55 94.5 86t117.5 31q91 0 141 -62.5t36 -158.5t-82 -159t-159 -63q-66 0 -105.5 31t-69.5 86q-45 -55 -94.5 -86t-117.5 -31q-90 0 -140.5 63t-36.5 158zM198 297q-5 -38 12 -62t48 -24q72 0 142 88
q-46 85 -117 85q-31 0 -55.5 -24.5t-29.5 -62.5zM529 296q22 -41 48.5 -63t67.5 -22q32 0 57 24.5t30 62.5q5 37 -12.5 61.5t-49.5 24.5q-72 0 -141 -88z" />
    <glyph glyph-name="integral" unicode="&#x222b;" horiz-adv-x="415" 
d="M-42 -115l42 128q37 -19 65 -19q46 0 69.5 25t32.5 84q7 46 22 249.5t21 244.5q20 140 75.5 199.5t166.5 59.5q48 0 99 -24l-37 -128q-29 12 -57 12q-45 0 -67 -23t-29 -78q-6 -40 -22 -246t-23 -252q-20 -141 -76.5 -201t-168.5 -60q-73 0 -113 29z" />
    <glyph glyph-name="approxequal" unicode="&#x2248;" horiz-adv-x="515" 
d="M68 115q27 188 149 188q38 0 75 -23.5t47 -23.5q29 0 35 43h134q-27 -188 -148 -188q-30 0 -54.5 11.5t-41 23.5t-27.5 12q-28 0 -34 -43h-135zM102 351q13 95 50 141t99 46q38 0 75 -23.5t47 -23.5q29 0 35 43h134q-27 -187 -148 -187q-30 0 -54.5 11.5t-41 23.5
t-27.5 12q-28 0 -34 -43h-135z" />
    <glyph glyph-name="notequal" unicode="&#x2260;" horiz-adv-x="515" 
d="M53 156l19 126h132l42 92h-161l18 126h201l61 134h152l-61 -134h100l-18 -126h-140l-42 -92h169l-19 -126h-209l-64 -139h-151l64 139h-93z" />
    <glyph glyph-name="lessequal" unicode="&#x2264;" horiz-adv-x="515" 
d="M30 -8l18 127h453l-18 -127h-453zM78 326l22 153l479 177l-20 -134l-340 -119l306 -120l-20 -134z" />
    <glyph glyph-name="greaterequal" unicode="&#x2265;" horiz-adv-x="515" 
d="M30 -8l18 127h453l-18 -127h-453zM54 157l19 135l340 119l-306 119l20 135l427 -177l-22 -154z" />
    <glyph glyph-name="lozenge" unicode="&#x25ca;" horiz-adv-x="493" 
d="M67 330l276 338l179 -338l-278 -341zM202 330l72 -138l113 138l-73 137z" />
    <glyph glyph-name="A.ss01" horiz-adv-x="761" 
d="M48 0l58 403q20 140 121.5 223t252.5 83q153 0 232 -83t59 -223l-58 -403h-208l23 158h-249l-23 -158h-208zM301 310h249l13 93q9 60 -20 96t-86 36t-95.5 -36t-47.5 -96z" />
    <glyph glyph-name="Aacute.ss01" horiz-adv-x="761" 
d="M48 0l58 403q20 140 121.5 223t252.5 83q153 0 232 -83t59 -223l-58 -403h-208l23 158h-249l-23 -158h-208zM301 310h249l13 93q9 60 -20 96t-86 36t-95.5 -36t-47.5 -96zM391 752l133 180l167 -58l-152 -122h-148z" />
    <glyph glyph-name="Abreve.ss01" horiz-adv-x="761" 
d="M48 0l58 403q20 140 121.5 223t252.5 83q153 0 232 -83t59 -223l-58 -403h-208l23 158h-249l-23 -158h-208zM301 310h249l13 93q9 60 -20 96t-86 36t-95.5 -36t-47.5 -96zM339 922h123q-2 -24 10 -39t34 -15q21 0 37.5 15t22.5 39h123q-15 -76 -69 -121.5t-130 -45.5
t-117 45.5t-34 121.5z" />
    <glyph glyph-name="Acircumflex.ss01" horiz-adv-x="761" 
d="M48 0l58 403q20 140 121.5 223t252.5 83q153 0 232 -83t59 -223l-58 -403h-208l23 158h-249l-23 -158h-208zM296 766l140 157h156l94 -157h-139l-44 83l-68 -83h-139zM301 310h249l13 93q9 60 -20 96t-86 36t-95.5 -36t-47.5 -96z" />
    <glyph glyph-name="Adieresis.ss01" horiz-adv-x="761" 
d="M48 0l58 403q20 140 121.5 223t252.5 83q153 0 232 -83t59 -223l-58 -403h-208l23 158h-249l-23 -158h-208zM301 310h249l13 93q9 60 -20 96t-86 36t-95.5 -36t-47.5 -96zM317 853q5 37 32.5 61t65.5 24t58.5 -24t15.5 -61q-5 -38 -33 -62t-65 -24q-38 0 -58.5 24.5
t-15.5 61.5zM519 853q5 37 32.5 61t65.5 24t58.5 -24t15.5 -61q-5 -38 -33 -62t-65 -24q-38 0 -58.5 24.5t-15.5 61.5z" />
    <glyph glyph-name="Agrave.ss01" horiz-adv-x="761" 
d="M48 0l58 403q20 140 121.5 223t252.5 83q153 0 232 -83t59 -223l-58 -403h-208l23 158h-249l-23 -158h-208zM301 310h249l13 93q9 60 -20 96t-86 36t-95.5 -36t-47.5 -96zM326 874l183 58l81 -180h-148z" />
    <glyph glyph-name="Amacron.ss01" horiz-adv-x="761" 
d="M48 0l58 403q20 140 121.5 223t252.5 83q153 0 232 -83t59 -223l-58 -403h-208l23 158h-249l-23 -158h-208zM301 310h249l13 93q9 60 -20 96t-86 36t-95.5 -36t-47.5 -96zM349 785l19 133h290l-19 -133h-290z" />
    <glyph glyph-name="Aogonek.ss01" horiz-adv-x="762" 
d="M48 0l58 403q20 140 121.5 223t252.5 83q153 0 232 -83t59 -223l-58 -403h-56q-49 -59 -52 -85q-3 -19 14 -19q21 0 44 31l42 -59q-51 -71 -125 -71q-37 0 -62 20t-18 65q8 52 62 118h-57l23 158h-249l-23 -158h-208zM301 310h249l13 93q9 60 -20 96t-86 36t-95.5 -36
t-47.5 -96z" />
    <glyph glyph-name="Aring.ss01" horiz-adv-x="761" 
d="M48 0l58 403q20 140 121.5 223t252.5 83q153 0 232 -83t59 -223l-58 -403h-208l23 158h-249l-23 -158h-208zM301 310h249l13 93q9 60 -20 96t-86 36t-95.5 -36t-47.5 -96zM381 856q7 51 48.5 86.5t92.5 35.5t81.5 -35.5t23.5 -86.5t-48 -86.5t-92 -35.5t-82 35.5
t-24 86.5zM459 856q-2 -19 9 -32t30 -13t34 13t17 32q3 19 -8 32t-30 13t-34 -13t-18 -32z" />
    <glyph glyph-name="Atilde.ss01" horiz-adv-x="761" 
d="M48 0l58 403q20 140 121.5 223t252.5 83q153 0 232 -83t59 -223l-58 -403h-208l23 158h-249l-23 -158h-208zM301 310h249l13 93q9 60 -20 96t-86 36t-95.5 -36t-47.5 -96zM306 774q24 171 136 171q34 0 66.5 -21.5t40.5 -21.5q27 0 33 40h122q-25 -171 -136 -171
q-27 0 -48.5 10.5t-35.5 21.5t-24 11q-27 0 -31 -40h-123z" />
    <glyph glyph-name="E.ss01" horiz-adv-x="624" 
d="M57 192q8 60 50.5 108.5t104.5 68.5q-38 19 -57 61t-12 91q13 86 95.5 137.5t205.5 51.5q67 0 134 -15t105 -38l-87 -152q-79 37 -151 37q-46 0 -76.5 -15t-34.5 -43q-3 -22 11.5 -36.5t40.5 -14.5h174l-22 -153h-174q-35 0 -59.5 -15.5t-28.5 -40.5q-4 -29 24 -47
t73 -18q47 0 103.5 18t88.5 38l56 -150q-55 -32 -137.5 -53t-161.5 -21q-130 0 -204 55t-61 146z" />
    <glyph glyph-name="Eacute.ss01" horiz-adv-x="624" 
d="M57 192q8 60 50.5 108.5t104.5 68.5q-38 19 -57 61t-12 91q13 86 95.5 137.5t205.5 51.5q67 0 134 -15t105 -38l-87 -152q-79 37 -151 37q-46 0 -76.5 -15t-34.5 -43q-3 -22 11.5 -36.5t40.5 -14.5h174l-22 -153h-174q-35 0 -59.5 -15.5t-28.5 -40.5q-4 -29 24 -47
t73 -18q47 0 103.5 18t88.5 38l56 -150q-55 -32 -137.5 -53t-161.5 -21q-130 0 -204 55t-61 146zM323 752l133 180l167 -58l-152 -122h-148z" />
    <glyph glyph-name="Ebreve.ss01" horiz-adv-x="624" 
d="M57 192q8 60 50.5 108.5t104.5 68.5q-38 19 -57 61t-12 91q13 86 95.5 137.5t205.5 51.5q67 0 134 -15t105 -38l-87 -152q-79 37 -151 37q-46 0 -76.5 -15t-34.5 -43q-3 -22 11.5 -36.5t40.5 -14.5h174l-22 -153h-174q-35 0 -59.5 -15.5t-28.5 -40.5q-4 -29 24 -47
t73 -18q47 0 103.5 18t88.5 38l56 -150q-55 -32 -137.5 -53t-161.5 -21q-130 0 -204 55t-61 146zM271 922h123q-2 -24 10 -39t34 -15q21 0 37.5 15t22.5 39h123q-15 -76 -69 -121.5t-130 -45.5t-117 45.5t-34 121.5z" />
    <glyph glyph-name="Ecaron.ss01" horiz-adv-x="624" 
d="M57 192q8 60 50.5 108.5t104.5 68.5q-38 19 -57 61t-12 91q13 86 95.5 137.5t205.5 51.5q67 0 134 -15t105 -38l-87 -152q-79 37 -151 37q-46 0 -76.5 -15t-34.5 -43q-3 -22 11.5 -36.5t40.5 -14.5h174l-22 -153h-174q-35 0 -59.5 -15.5t-28.5 -40.5q-4 -29 24 -47
t73 -18q47 0 103.5 18t88.5 38l56 -150q-55 -32 -137.5 -53t-161.5 -21q-130 0 -204 55t-61 146zM228 923h151l48 -91l74 91h151l-152 -172h-170z" />
    <glyph glyph-name="Ecircumflex.ss01" horiz-adv-x="624" 
d="M57 192q8 60 50.5 108.5t104.5 68.5q-38 19 -57 61t-12 91q13 86 95.5 137.5t205.5 51.5q67 0 134 -15t105 -38l-87 -152q-79 37 -151 37q-46 0 -76.5 -15t-34.5 -43q-3 -22 11.5 -36.5t40.5 -14.5h174l-22 -153h-174q-35 0 -59.5 -15.5t-28.5 -40.5q-4 -29 24 -47
t73 -18q47 0 103.5 18t88.5 38l56 -150q-55 -32 -137.5 -53t-161.5 -21q-130 0 -204 55t-61 146zM228 766l140 157h156l94 -157h-139l-44 83l-68 -83h-139z" />
    <glyph glyph-name="Edieresis.ss01" horiz-adv-x="624" 
d="M57 192q8 60 50.5 108.5t104.5 68.5q-38 19 -57 61t-12 91q13 86 95.5 137.5t205.5 51.5q67 0 134 -15t105 -38l-87 -152q-79 37 -151 37q-46 0 -76.5 -15t-34.5 -43q-3 -22 11.5 -36.5t40.5 -14.5h174l-22 -153h-174q-35 0 -59.5 -15.5t-28.5 -40.5q-4 -29 24 -47
t73 -18q47 0 103.5 18t88.5 38l56 -150q-55 -32 -137.5 -53t-161.5 -21q-130 0 -204 55t-61 146zM249 853q5 37 32.5 61t65.5 24t58.5 -24t15.5 -61q-5 -38 -33 -62t-65 -24q-38 0 -58.5 24.5t-15.5 61.5zM451 853q5 37 32.5 61t65.5 24t58.5 -24t15.5 -61q-5 -38 -33 -62
t-65 -24q-38 0 -58.5 24.5t-15.5 61.5z" />
    <glyph glyph-name="Edotaccent.ss01" horiz-adv-x="624" 
d="M57 192q8 60 50.5 108.5t104.5 68.5q-38 19 -57 61t-12 91q13 86 95.5 137.5t205.5 51.5q67 0 134 -15t105 -38l-87 -152q-79 37 -151 37q-46 0 -76.5 -15t-34.5 -43q-3 -22 11.5 -36.5t40.5 -14.5h174l-22 -153h-174q-35 0 -59.5 -15.5t-28.5 -40.5q-4 -29 24 -47
t73 -18q47 0 103.5 18t88.5 38l56 -150q-55 -32 -137.5 -53t-161.5 -21q-130 0 -204 55t-61 146zM332 856q7 46 40 75t79 29t71 -29t18 -75q-6 -46 -39.5 -75t-79.5 -29t-70.5 29t-18.5 75z" />
    <glyph glyph-name="Egrave.ss01" horiz-adv-x="624" 
d="M57 192q8 60 50.5 108.5t104.5 68.5q-38 19 -57 61t-12 91q13 86 95.5 137.5t205.5 51.5q67 0 134 -15t105 -38l-87 -152q-79 37 -151 37q-46 0 -76.5 -15t-34.5 -43q-3 -22 11.5 -36.5t40.5 -14.5h174l-22 -153h-174q-35 0 -59.5 -15.5t-28.5 -40.5q-4 -29 24 -47
t73 -18q47 0 103.5 18t88.5 38l56 -150q-55 -32 -137.5 -53t-161.5 -21q-130 0 -204 55t-61 146zM258 874l183 58l81 -180h-148z" />
    <glyph glyph-name="Emacron.ss01" horiz-adv-x="624" 
d="M57 192q8 60 50.5 108.5t104.5 68.5q-38 19 -57 61t-12 91q13 86 95.5 137.5t205.5 51.5q67 0 134 -15t105 -38l-87 -152q-79 37 -151 37q-46 0 -76.5 -15t-34.5 -43q-3 -22 11.5 -36.5t40.5 -14.5h174l-22 -153h-174q-35 0 -59.5 -15.5t-28.5 -40.5q-4 -29 24 -47
t73 -18q47 0 103.5 18t88.5 38l56 -150q-55 -32 -137.5 -53t-161.5 -21q-130 0 -204 55t-61 146zM280 785l19 133h290l-19 -133h-290z" />
    <glyph glyph-name="Eogonek.ss01" horiz-adv-x="624" 
d="M57 192q8 60 50.5 108.5t104.5 68.5q-38 19 -57 61t-12 91q13 86 95.5 137.5t205.5 51.5q67 0 134 -15t105 -38l-87 -152q-79 37 -151 37q-46 0 -76.5 -15t-34.5 -43q-3 -22 11.5 -36.5t40.5 -14.5h174l-22 -153h-174q-35 0 -59.5 -15.5t-28.5 -40.5q-4 -29 24 -47
t73 -18q47 0 103.5 18t88.5 38l56 -150q-45 -26 -110 -46q-65 -73 -69 -104q-3 -19 14 -19q21 0 44 31l42 -59q-51 -71 -124 -71q-38 0 -63 20t-18 65q8 50 58 114q-40 -5 -73 -5q-130 0 -204 55t-61 146z" />
    <glyph glyph-name="F.ss01" horiz-adv-x="570" 
d="M48 0l66 459q17 114 100 182.5t207 68.5q155 0 252 -47l-72 -171q-97 44 -186 44q-37 0 -62 -22t-30 -59l-9 -56h256l-23 -160h-256l-34 -239h-209z" />
    <glyph glyph-name="G.ss01" horiz-adv-x="741" 
d="M69 350q15 101 77 183t157 128t205 46q81 0 158.5 -28.5t126.5 -77.5l-139 -143q-31 35 -76.5 55.5t-91.5 20.5q-76 0 -134 -52.5t-70 -131.5q-11 -80 28.5 -132.5t110.5 -52.5t128 54l21 147h179l-53 -366h-152l7 46q-91 -55 -178 -55q-153 0 -239.5 102t-64.5 257z" />
    <glyph glyph-name="Gbreve.ss01" horiz-adv-x="741" 
d="M69 350q15 101 77 183t157 128t205 46q81 0 158.5 -28.5t126.5 -77.5l-139 -143q-31 35 -76.5 55.5t-91.5 20.5q-76 0 -134 -52.5t-70 -131.5q-11 -80 28.5 -132.5t110.5 -52.5t128 54l21 147h179l-53 -366h-152l7 46q-91 -55 -178 -55q-153 0 -239.5 102t-64.5 257z
M331 922h123q-2 -24 10 -39t34 -15q21 0 37.5 15t22.5 39h123q-15 -76 -69 -121.5t-130 -45.5t-117 45.5t-34 121.5z" />
    <glyph glyph-name="Gcircumflex.ss01" horiz-adv-x="741" 
d="M69 350q15 101 77 183t157 128t205 46q81 0 158.5 -28.5t126.5 -77.5l-139 -143q-31 35 -76.5 55.5t-91.5 20.5q-76 0 -134 -52.5t-70 -131.5q-11 -80 28.5 -132.5t110.5 -52.5t128 54l21 147h179l-53 -366h-152l7 46q-91 -55 -178 -55q-153 0 -239.5 102t-64.5 257z
M288 766l140 157h156l94 -157h-139l-44 83l-68 -83h-139z" />
    <glyph glyph-name="Gcommaaccent.ss01" horiz-adv-x="741" 
d="M69 350q15 101 77 183t157 128t205 46q81 0 158.5 -28.5t126.5 -77.5l-139 -143q-31 35 -76.5 55.5t-91.5 20.5q-76 0 -134 -52.5t-70 -131.5q-11 -80 28.5 -132.5t110.5 -52.5t128 54l21 147h179l-53 -366h-152l7 46q-91 -55 -178 -55q-153 0 -239.5 102t-64.5 257z
M227 -320l65 117q-32 27 -26 73q6 41 36.5 67t72.5 26q39 0 62 -24.5t17 -67.5q-5 -40 -35 -74l-98 -117h-94z" />
    <glyph glyph-name="Gdotaccent.ss01" horiz-adv-x="741" 
d="M69 350q15 101 77 183t157 128t205 46q81 0 158.5 -28.5t126.5 -77.5l-139 -143q-31 35 -76.5 55.5t-91.5 20.5q-76 0 -134 -52.5t-70 -131.5q-11 -80 28.5 -132.5t110.5 -52.5t128 54l21 147h179l-53 -366h-152l7 46q-91 -55 -178 -55q-153 0 -239.5 102t-64.5 257z
M392 856q7 46 40 75t79 29t71 -29t18 -75q-6 -46 -39.5 -75t-79.5 -29t-70.5 29t-18.5 75z" />
    <glyph glyph-name="I.ss01" horiz-adv-x="516" 
d="M42 0l23 160h112l55 381h-112l23 160h431l-23 -160h-111l-55 -381h111l-23 -160h-431z" />
    <glyph glyph-name="IJ.ss01" horiz-adv-x="1070" 
d="M42 0l23 160h112l55 381h-112l23 160h431l-23 -160h-111l-55 -381h111l-23 -160h-431zM510 8l115 137q32 -39 69 -59t67 -20q62 0 73 71l57 398h-239l24 166h448l-82 -569q-16 -114 -94 -177.5t-196 -63.5q-153 0 -242 117z" />
    <glyph glyph-name="Iacute.ss01" horiz-adv-x="516" 
d="M42 0l23 160h112l55 381h-112l23 160h431l-23 -160h-111l-55 -381h111l-23 -160h-431zM268 752l133 180l167 -58l-152 -122h-148z" />
    <glyph glyph-name="Ibreve.ss01" horiz-adv-x="516" 
d="M42 0l23 160h112l55 381h-112l23 160h431l-23 -160h-111l-55 -381h111l-23 -160h-431zM216 922h123q-2 -24 10 -39t34 -15q21 0 37.5 15t22.5 39h123q-15 -76 -69 -121.5t-130 -45.5t-117 45.5t-34 121.5z" />
    <glyph glyph-name="Icircumflex.ss01" horiz-adv-x="516" 
d="M42 0l23 160h112l55 381h-112l23 160h431l-23 -160h-111l-55 -381h111l-23 -160h-431zM173 766l140 157h156l94 -157h-139l-44 83l-68 -83h-139z" />
    <glyph glyph-name="Idieresis.ss01" horiz-adv-x="516" 
d="M42 0l23 160h112l55 381h-112l23 160h431l-23 -160h-111l-55 -381h111l-23 -160h-431zM194 853q5 37 32.5 61t65.5 24t58.5 -24t15.5 -61q-5 -38 -33 -62t-65 -24q-38 0 -58.5 24.5t-15.5 61.5zM396 853q5 37 32.5 61t65.5 24t58.5 -24t15.5 -61q-5 -38 -33 -62t-65 -24
q-38 0 -58.5 24.5t-15.5 61.5z" />
    <glyph glyph-name="Idotaccent.ss01" horiz-adv-x="516" 
d="M42 0l23 160h112l55 381h-112l23 160h431l-23 -160h-111l-55 -381h111l-23 -160h-431zM277 856q7 46 40 75t79 29t71 -29t18 -75q-6 -46 -39.5 -75t-79.5 -29t-70.5 29t-18.5 75z" />
    <glyph glyph-name="Igrave.ss01" horiz-adv-x="516" 
d="M42 0l23 160h112l55 381h-112l23 160h431l-23 -160h-111l-55 -381h111l-23 -160h-431zM203 874l183 58l81 -180h-148z" />
    <glyph glyph-name="Imacron.ss01" horiz-adv-x="516" 
d="M42 0l23 160h112l55 381h-112l23 160h431l-23 -160h-111l-55 -381h111l-23 -160h-431zM226 785l19 133h290l-19 -133h-290z" />
    <glyph glyph-name="Iogonek.ss01" horiz-adv-x="516" 
d="M42 0l23 160h112l55 381h-112l23 160h431l-23 -160h-111l-55 -381h111l-23 -160h-75q-50 -60 -53 -85q-3 -19 14 -19q21 0 44 31l42 -59q-51 -71 -124 -71q-38 0 -63 20t-18 65q8 51 62 118h-260z" />
    <glyph glyph-name="Itilde.ss01" horiz-adv-x="516" 
d="M42 0l23 160h112l55 381h-112l23 160h431l-23 -160h-111l-55 -381h111l-23 -160h-431zM183 774q24 171 136 171q34 0 66.5 -21.5t40.5 -21.5q27 0 33 40h122q-25 -171 -136 -171q-35 0 -67 21.5t-41 21.5q-27 0 -31 -40h-123z" />
    <glyph glyph-name="J.ss01" horiz-adv-x="554" 
d="M-6 8l115 137q32 -39 69 -59t67 -20q62 0 73 71l57 398h-239l24 166h448l-82 -569q-16 -114 -94 -177.5t-196 -63.5q-153 0 -242 117z" />
    <glyph glyph-name="M.ss01" horiz-adv-x="1168" 
d="M59 0l101 701h208l-16 -110q85 108 217 110q74 0 122.5 -38.5t63.5 -107.5q40 69 102.5 107t137.5 39q101 0 153 -70.5t36 -187.5l-64 -443h-211l57 394q8 55 -14.5 87.5t-69.5 32.5q-51 -1 -88.5 -38.5t-45.5 -96.5l-55 -379h-211l57 394q8 55 -14 87.5t-69 32.5
q-51 -1 -88.5 -38.5t-45.5 -96.5l-55 -379h-208z" />
    <glyph glyph-name="N.ss01" horiz-adv-x="763" 
d="M59 0l101 701h208l-16 -114q87 112 227 114q107 0 162 -70.5t38 -187.5l-64 -443h-211l57 394q8 54 -17 87t-74 33q-58 -1 -99 -38t-49 -97l-55 -379h-208z" />
    <glyph glyph-name="Nacute.ss01" horiz-adv-x="763" 
d="M59 0l101 701h208l-16 -114q87 112 227 114q107 0 162 -70.5t38 -187.5l-64 -443h-211l57 394q8 54 -17 87t-74 33q-58 -1 -99 -38t-49 -97l-55 -379h-208zM408 752l133 180l167 -58l-152 -122h-148z" />
    <glyph glyph-name="Ncaron.ss01" horiz-adv-x="763" 
d="M59 0l101 701h208l-16 -114q87 112 227 114q107 0 162 -70.5t38 -187.5l-64 -443h-211l57 394q8 54 -17 87t-74 33q-58 -1 -99 -38t-49 -97l-55 -379h-208zM313 923h151l48 -91l74 91h151l-152 -172h-170z" />
    <glyph glyph-name="Ncommaaccent.ss01" horiz-adv-x="763" 
d="M59 0l101 701h208l-16 -114q87 112 227 114q107 0 162 -70.5t38 -187.5l-64 -443h-211l57 394q8 54 -17 87t-74 33q-58 -1 -99 -38t-49 -97l-55 -379h-208zM236 -320l65 117q-32 27 -26 73q6 41 36.5 67t72.5 26q39 0 62 -24.5t17 -67.5q-5 -40 -35 -74l-98 -117h-94z
" />
    <glyph glyph-name="Eng.ss01" horiz-adv-x="763" 
d="M59 0l101 701h208l-16 -114q87 112 227 114q107 0 162 -70.5t38 -187.5l-64 -443q-20 -103 -97 -161.5t-189 -58.5q-97 0 -168 48l91 156q50 -29 90 -29q55 0 64 59l55 380q8 54 -17 87t-74 33q-58 -1 -99 -38t-49 -97l-55 -379h-208z" />
    <glyph glyph-name="Ntilde.ss01" horiz-adv-x="763" 
d="M59 0l101 701h208l-16 -114q87 112 227 114q107 0 162 -70.5t38 -187.5l-64 -443h-211l57 394q8 54 -17 87t-74 33q-58 -1 -99 -38t-49 -97l-55 -379h-208zM323 774q24 171 136 171q34 0 66.5 -21.5t40.5 -21.5q27 0 33 40h122q-25 -171 -136 -171q-35 0 -67 21.5
t-41 21.5q-27 0 -31 -40h-123z" />
    <glyph glyph-name="Q.ss01" horiz-adv-x="802" 
d="M70 351q22 154 145 255t288 101t259 -101t72 -255q-20 -139 -123.5 -237.5t-248.5 -118.5l-16 -113h-132l16 114q-135 22 -207.5 120t-52.5 235zM282 350q-8 -56 13 -101t62 -67l18 122h132l-18 -127q51 19 87 66t44 107q12 79 -28.5 131t-110.5 52q-71 0 -129 -52.5
t-70 -130.5z" />
    <glyph glyph-name="T.ss01" horiz-adv-x="700" 
d="M104 628q159 82 342 82q184 0 321 -83l-76 -155q-77 41 -166 56l-76 -528h-208l76 528q-91 -14 -181 -56z" />
    <glyph glyph-name="Tbar.ss01" horiz-adv-x="700" 
d="M104 628q159 82 342 82q184 0 321 -83l-76 -155q-77 41 -166 56l-76 -528h-208l76 528q-91 -14 -181 -56zM318 785l19 133h290l-19 -133h-290z" />
    <glyph glyph-name="Tcaron.ss01" horiz-adv-x="700" 
d="M104 628q159 82 342 82q184 0 321 -83l-76 -155q-77 41 -166 56l-76 -528h-208l76 528q-91 -14 -181 -56zM265 923h151l48 -91l74 91h151l-152 -172h-170z" />
    <glyph glyph-name="Tcedilla.ss01" horiz-adv-x="700" 
d="M104 628q159 82 342 82q184 0 321 -83l-76 -155q-77 41 -166 56l-76 -528h-42l-34 -51q29 -10 44 -32t11 -50q-8 -50 -48.5 -79.5t-101.5 -29.5q-50 0 -93 33l48 82q17 -20 42 -20q18 0 30 9.5t14 24.5q2 16 -8 25.5t-31 9.5q-13 0 -37 -4l53 82h-55l76 528
q-91 -14 -181 -56z" />
    <glyph glyph-name="Tcommaaccent.ss01" horiz-adv-x="700" 
d="M104 628q159 82 342 82q184 0 321 -83l-76 -155q-77 41 -166 56l-76 -528h-208l76 528q-91 -14 -181 -56zM185 -320l65 117q-32 27 -26 73q6 41 36.5 67t72.5 26q39 0 62 -24.5t17 -67.5q-5 -40 -35 -74l-98 -117h-94z" />
    <glyph glyph-name="U.ss01" horiz-adv-x="763" 
d="M85 258l64 443h211l-57 -394q-8 -54 17 -87t74 -33q58 1 99 38t49 97l55 379h208l-101 -701h-208l16 114q-87 -112 -227 -114q-107 0 -162 70.5t-38 187.5z" />
    <glyph glyph-name="Uacute.ss01" horiz-adv-x="763" 
d="M85 258l64 443h211l-57 -394q-8 -54 17 -87t74 -33q58 1 99 38t49 97l55 379h208l-101 -701h-208l16 114q-87 -112 -227 -114q-107 0 -162 70.5t-38 187.5zM393 752l133 180l167 -58l-152 -122h-148z" />
    <glyph glyph-name="Ubreve.ss01" horiz-adv-x="763" 
d="M85 258l64 443h211l-57 -394q-8 -54 17 -87t74 -33q58 1 99 38t49 97l55 379h208l-101 -701h-208l16 114q-87 -112 -227 -114q-107 0 -162 70.5t-38 187.5zM341 922h123q-2 -24 10 -39t34 -15q21 0 37.5 15t22.5 39h123q-15 -76 -69 -121.5t-130 -45.5t-117 45.5
t-34 121.5z" />
    <glyph glyph-name="Ucircumflex.ss01" horiz-adv-x="763" 
d="M85 258l64 443h211l-57 -394q-8 -54 17 -87t74 -33q58 1 99 38t49 97l55 379h208l-101 -701h-208l16 114q-87 -112 -227 -114q-107 0 -162 70.5t-38 187.5zM298 766l140 157h156l94 -157h-139l-44 83l-68 -83h-139z" />
    <glyph glyph-name="Udieresis.ss01" horiz-adv-x="763" 
d="M85 258l64 443h211l-57 -394q-8 -54 17 -87t74 -33q58 1 99 38t49 97l55 379h208l-101 -701h-208l16 114q-87 -112 -227 -114q-107 0 -162 70.5t-38 187.5zM319 853q5 37 32.5 61t65.5 24t58.5 -24t15.5 -61q-5 -38 -33 -62t-65 -24q-38 0 -58.5 24.5t-15.5 61.5z
M521 853q5 37 32.5 61t65.5 24t58.5 -24t15.5 -61q-5 -38 -33 -62t-65 -24q-38 0 -58.5 24.5t-15.5 61.5z" />
    <glyph glyph-name="Ugrave.ss01" horiz-adv-x="763" 
d="M85 258l64 443h211l-57 -394q-8 -54 17 -87t74 -33q58 1 99 38t49 97l55 379h208l-101 -701h-208l16 114q-87 -112 -227 -114q-107 0 -162 70.5t-38 187.5zM329 874l183 58l81 -180h-148z" />
    <glyph glyph-name="Uhungarumlaut.ss01" horiz-adv-x="763" 
d="M85 258l64 443h211l-57 -394q-8 -54 17 -87t74 -33q58 1 99 38t49 97l55 379h208l-101 -701h-208l16 114q-87 -112 -227 -114q-107 0 -162 70.5t-38 187.5zM302 752l112 181l142 -51l-109 -130h-145zM511 752l112 181l142 -51l-109 -130h-145z" />
    <glyph glyph-name="Umacron.ss01" horiz-adv-x="763" 
d="M85 258l64 443h211l-57 -394q-8 -54 17 -87t74 -33q58 1 99 38t49 97l55 379h208l-101 -701h-208l16 114q-87 -112 -227 -114q-107 0 -162 70.5t-38 187.5zM351 785l19 133h290l-19 -133h-290z" />
    <glyph glyph-name="Uogonek.ss01" horiz-adv-x="763" 
d="M85 258l64 443h211l-57 -394q-8 -54 17 -87t74 -33q58 1 99 38t49 97l55 379h208l-101 -701h-62q-50 -60 -53 -85q-3 -19 14 -19q21 0 44 31l42 -59q-51 -71 -124 -71q-38 0 -63 20t-18 65q8 51 62 118h-50l16 114q-87 -112 -227 -114q-107 0 -162 70.5t-38 187.5z" />
    <glyph glyph-name="Uring.ss01" horiz-adv-x="763" 
d="M85 258l64 443h211l-57 -394q-8 -54 17 -87t74 -33q58 1 99 38t49 97l55 379h208l-101 -701h-208l16 114q-87 -112 -227 -114q-107 0 -162 70.5t-38 187.5zM383 856q7 51 48.5 86.5t92.5 35.5t81.5 -35.5t23.5 -86.5t-48 -86.5t-92 -35.5t-82 35.5t-24 86.5zM461 856
q-2 -19 9 -32t30 -13t34 13t17 32q3 19 -8 32t-30 13t-34 -13t-18 -32z" />
    <glyph glyph-name="Utilde.ss01" horiz-adv-x="763" 
d="M85 258l64 443h211l-57 -394q-8 -54 17 -87t74 -33q58 1 99 38t49 97l55 379h208l-101 -701h-208l16 114q-87 -112 -227 -114q-107 0 -162 70.5t-38 187.5zM308 774q24 171 136 171q34 0 66.5 -21.5t40.5 -21.5q27 0 33 40h122q-25 -171 -136 -171q-27 0 -48.5 10.5
t-35.5 21.5t-24 11q-27 0 -31 -40h-123z" />
    <glyph glyph-name="W.ss01" horiz-adv-x="1159" 
d="M88 281l61 420h208l-61 -420q-7 -51 20 -83.5t75 -32.5q47 0 82.5 32.5t42.5 83.5l61 420h208l-61 -420q-7 -51 21 -83.5t76 -32.5t81.5 32.5t40.5 83.5l61 420h209l-61 -420q-18 -127 -109.5 -208.5t-213.5 -81.5q-78 0 -141 34t-91 88q-44 -55 -115 -88.5t-150 -33.5
q-124 0 -193 81.5t-51 208.5z" />
    <glyph glyph-name="Wacute.ss01" horiz-adv-x="1159" 
d="M88 281l61 420h208l-61 -420q-7 -51 20 -83.5t75 -32.5q47 0 82.5 32.5t42.5 83.5l61 420h208l-61 -420q-7 -51 21 -83.5t76 -32.5t81.5 32.5t40.5 83.5l61 420h209l-61 -420q-18 -127 -109.5 -208.5t-213.5 -81.5q-78 0 -141 34t-91 88q-44 -55 -115 -88.5t-150 -33.5
q-124 0 -193 81.5t-51 208.5zM590 752l133 180l167 -58l-152 -122h-148z" />
    <glyph glyph-name="Wcircumflex.ss01" horiz-adv-x="1159" 
d="M88 281l61 420h208l-61 -420q-7 -51 20 -83.5t75 -32.5q47 0 82.5 32.5t42.5 83.5l61 420h208l-61 -420q-7 -51 21 -83.5t76 -32.5t81.5 32.5t40.5 83.5l61 420h209l-61 -420q-18 -127 -109.5 -208.5t-213.5 -81.5q-78 0 -141 34t-91 88q-44 -55 -115 -88.5t-150 -33.5
q-124 0 -193 81.5t-51 208.5zM495 766l140 157h156l94 -157h-139l-44 83l-68 -83h-139z" />
    <glyph glyph-name="Wdieresis.ss01" horiz-adv-x="1159" 
d="M88 281l61 420h208l-61 -420q-7 -51 20 -83.5t75 -32.5q47 0 82.5 32.5t42.5 83.5l61 420h208l-61 -420q-7 -51 21 -83.5t76 -32.5t81.5 32.5t40.5 83.5l61 420h209l-61 -420q-18 -127 -109.5 -208.5t-213.5 -81.5q-78 0 -141 34t-91 88q-44 -55 -115 -88.5t-150 -33.5
q-124 0 -193 81.5t-51 208.5zM516 853q5 37 32.5 61t65.5 24t58.5 -24t15.5 -61q-5 -38 -33 -62t-65 -24q-38 0 -58.5 24.5t-15.5 61.5zM718 853q5 37 32.5 61t65.5 24t58.5 -24t15.5 -61q-5 -38 -33 -62t-65 -24q-38 0 -58.5 24.5t-15.5 61.5z" />
    <glyph glyph-name="Wgrave.ss01" horiz-adv-x="1159" 
d="M88 281l61 420h208l-61 -420q-7 -51 20 -83.5t75 -32.5q47 0 82.5 32.5t42.5 83.5l61 420h208l-61 -420q-7 -51 21 -83.5t76 -32.5t81.5 32.5t40.5 83.5l61 420h209l-61 -420q-18 -127 -109.5 -208.5t-213.5 -81.5q-78 0 -141 34t-91 88q-44 -55 -115 -88.5t-150 -33.5
q-124 0 -193 81.5t-51 208.5zM525 874l183 58l81 -180h-148z" />
    <glyph glyph-name="Y.ss01" horiz-adv-x="745" 
d="M55 -11l100 139q38 -28 89.5 -45.5t99.5 -17.5q69 0 117 36t56 95l9 61q-82 -104 -212 -104q-110 0 -166.5 74t-38.5 195l40 279h208l-37 -259q-8 -50 18.5 -80.5t78.5 -30.5q54 0 92 34t45 89l36 247h208l-73 -510q-20 -136 -124 -218t-255 -82q-84 0 -163 26.5
t-128 71.5z" />
    <glyph glyph-name="Yacute.ss01" horiz-adv-x="745" 
d="M55 -11l100 139q38 -28 89.5 -45.5t99.5 -17.5q69 0 117 36t56 95l9 61q-82 -104 -212 -104q-110 0 -166.5 74t-38.5 195l40 279h208l-37 -259q-8 -50 18.5 -80.5t78.5 -30.5q54 0 92 34t45 89l36 247h208l-73 -510q-20 -136 -124 -218t-255 -82q-84 0 -163 26.5
t-128 71.5zM383 752l133 180l167 -58l-152 -122h-148z" />
    <glyph glyph-name="Ycircumflex.ss01" horiz-adv-x="745" 
d="M55 -11l100 139q38 -28 89.5 -45.5t99.5 -17.5q69 0 117 36t56 95l9 61q-82 -104 -212 -104q-110 0 -166.5 74t-38.5 195l40 279h208l-37 -259q-8 -50 18.5 -80.5t78.5 -30.5q54 0 92 34t45 89l36 247h208l-73 -510q-20 -136 -124 -218t-255 -82q-84 0 -163 26.5
t-128 71.5zM287 766l140 157h156l94 -157h-139l-44 83l-68 -83h-139z" />
    <glyph glyph-name="Ydieresis.ss01" horiz-adv-x="745" 
d="M55 -11l100 139q38 -28 89.5 -45.5t99.5 -17.5q69 0 117 36t56 95l9 61q-82 -104 -212 -104q-110 0 -166.5 74t-38.5 195l40 279h208l-37 -259q-8 -50 18.5 -80.5t78.5 -30.5q54 0 92 34t45 89l36 247h208l-73 -510q-20 -136 -124 -218t-255 -82q-84 0 -163 26.5
t-128 71.5zM308 853q5 37 32.5 61t65.5 24t58.5 -24t15.5 -61q-5 -38 -33 -62t-65 -24q-38 0 -58.5 24.5t-15.5 61.5zM510 853q5 37 32.5 61t65.5 24t58.5 -24t15.5 -61q-5 -38 -33 -62t-65 -24q-38 0 -58.5 24.5t-15.5 61.5z" />
    <glyph glyph-name="Ygrave.ss01" horiz-adv-x="745" 
d="M55 -11l100 139q38 -28 89.5 -45.5t99.5 -17.5q69 0 117 36t56 95l9 61q-82 -104 -212 -104q-110 0 -166.5 74t-38.5 195l40 279h208l-37 -259q-8 -50 18.5 -80.5t78.5 -30.5q54 0 92 34t45 89l36 247h208l-73 -510q-20 -136 -124 -218t-255 -82q-84 0 -163 26.5
t-128 71.5zM318 874l183 58l81 -180h-148z" />
    <glyph glyph-name="Z.ss01" horiz-adv-x="679" 
d="M24 0l19 131l166 166h-45l18 129h155l113 113h-336l23 162h613l-19 -132l-157 -157h32l-18 -129h-143l-121 -121h355l-23 -162h-632z" />
    <glyph glyph-name="Zacute.ss01" horiz-adv-x="679" 
d="M24 0l19 131l166 166h-45l18 129h155l113 113h-336l23 162h613l-19 -132l-157 -157h32l-18 -129h-143l-121 -121h355l-23 -162h-632zM351 752l133 180l167 -58l-152 -122h-148z" />
    <glyph glyph-name="Zcaron.ss01" horiz-adv-x="679" 
d="M24 0l19 131l166 166h-45l18 129h155l113 113h-336l23 162h613l-19 -132l-157 -157h32l-18 -129h-143l-121 -121h355l-23 -162h-632zM256 923h151l48 -91l74 91h151l-152 -172h-170z" />
    <glyph glyph-name="Zdotaccent.ss01" horiz-adv-x="679" 
d="M24 0l19 131l166 166h-45l18 129h155l113 113h-336l23 162h613l-19 -132l-157 -157h32l-18 -129h-143l-121 -121h355l-23 -162h-632zM359 856q7 46 40 75t79 29t71 -29t18 -75q-6 -46 -39.5 -75t-79.5 -29t-70.5 29t-18.5 75z" />
    <glyph glyph-name="a.ss01" 
d="M59 275q18 125 95.5 200.5t189.5 75.5q97 0 145 -70l9 63h202l-78 -544h-202l9 62q-66 -69 -159 -69q-114 0 -172 77t-39 205zM262 270q-8 -55 14 -88.5t67 -33.5q44 0 76 33.5t40 88.5q8 54 -14.5 87.5t-66.5 33.5q-45 0 -76.5 -33.5t-39.5 -87.5z" />
    <glyph glyph-name="aacute.ss01" 
d="M59 275q18 125 95.5 200.5t189.5 75.5q97 0 145 -70l9 63h202l-78 -544h-202l9 62q-66 -69 -159 -69q-114 0 -172 77t-39 205zM262 270q-8 -55 14 -88.5t67 -33.5q44 0 76 33.5t40 88.5q8 54 -14.5 87.5t-66.5 33.5q-45 0 -76.5 -33.5t-39.5 -87.5zM325 595l133 180
l166 -58l-151 -122h-148z" />
    <glyph glyph-name="abreve.ss01" 
d="M59 275q18 125 95.5 200.5t189.5 75.5q97 0 145 -70l9 63h202l-78 -544h-202l9 62q-66 -69 -159 -69q-114 0 -172 77t-39 205zM262 270q-8 -55 14 -88.5t67 -33.5q44 0 76 33.5t40 88.5q8 54 -14.5 87.5t-66.5 33.5q-45 0 -76.5 -33.5t-39.5 -87.5zM271 765h123
q-1 -24 11 -39t33 -15q22 0 38.5 15t21.5 39h123q-14 -76 -68.5 -121.5t-130.5 -45.5t-117 45.5t-34 121.5z" />
    <glyph glyph-name="acircumflex.ss01" 
d="M59 275q18 125 95.5 200.5t189.5 75.5q97 0 145 -70l9 63h202l-78 -544h-202l9 62q-66 -69 -159 -69q-114 0 -172 77t-39 205zM229 608l139 157h156l95 -157h-139l-44 83l-68 -83h-139zM262 270q-8 -55 14 -88.5t67 -33.5q44 0 76 33.5t40 88.5q8 54 -14.5 87.5
t-66.5 33.5q-45 0 -76.5 -33.5t-39.5 -87.5z" />
    <glyph glyph-name="adieresis.ss01" 
d="M59 275q18 125 95.5 200.5t189.5 75.5q97 0 145 -70l9 63h202l-78 -544h-202l9 62q-66 -69 -159 -69q-114 0 -172 77t-39 205zM249 696q5 37 33 61t66 24q37 0 57.5 -23.5t15.5 -61.5t-33 -62t-65 -24q-38 0 -58.5 24.5t-15.5 61.5zM262 270q-8 -55 14 -88.5t67 -33.5
q44 0 76 33.5t40 88.5q8 54 -14.5 87.5t-66.5 33.5q-45 0 -76.5 -33.5t-39.5 -87.5zM451 696q5 37 33 61t66 24q37 0 57.5 -23.5t15.5 -61.5t-33 -62t-65 -24q-38 0 -58.5 24.5t-15.5 61.5z" />
    <glyph glyph-name="agrave.ss01" 
d="M59 275q18 125 95.5 200.5t189.5 75.5q97 0 145 -70l9 63h202l-78 -544h-202l9 62q-66 -69 -159 -69q-114 0 -172 77t-39 205zM259 717l184 58l81 -180h-148zM262 270q-8 -55 14 -88.5t67 -33.5q44 0 76 33.5t40 88.5q8 54 -14.5 87.5t-66.5 33.5q-45 0 -76.5 -33.5
t-39.5 -87.5z" />
    <glyph glyph-name="amacron.ss01" 
d="M59 275q18 125 95.5 200.5t189.5 75.5q97 0 145 -70l9 63h202l-78 -544h-202l9 62q-66 -69 -159 -69q-114 0 -172 77t-39 205zM262 270q-8 -55 14 -88.5t67 -33.5q44 0 76 33.5t40 88.5q8 54 -14.5 87.5t-66.5 33.5q-45 0 -76.5 -33.5t-39.5 -87.5zM281 628l20 133h290
l-20 -133h-290z" />
    <glyph glyph-name="aogonek.ss01" 
d="M59 275q18 125 95.5 200.5t189.5 75.5q97 0 145 -70l9 63h202l-78 -544h-50q-50 -60 -53 -85q-3 -19 14 -19q21 0 44 31l42 -59q-51 -71 -124 -71q-38 0 -63 20t-18 65q8 51 62 118h-56l9 62q-66 -69 -159 -69q-114 0 -172 77t-39 205zM262 270q-8 -55 14 -88.5t67 -33.5
q44 0 76 33.5t40 88.5q8 54 -14.5 87.5t-66.5 33.5q-45 0 -76.5 -33.5t-39.5 -87.5z" />
    <glyph glyph-name="aring.ss01" 
d="M59 275q18 125 95.5 200.5t189.5 75.5q97 0 145 -70l9 63h202l-78 -544h-202l9 62q-66 -69 -159 -69q-114 0 -172 77t-39 205zM262 270q-8 -55 14 -88.5t67 -33.5q44 0 76 33.5t40 88.5q8 54 -14.5 87.5t-66.5 33.5q-45 0 -76.5 -33.5t-39.5 -87.5zM314 699q7 51 48 86.5
t92 35.5t82 -35.5t24 -86.5t-48.5 -86.5t-92.5 -35.5t-81.5 35.5t-23.5 86.5zM392 699q-3 -19 8 -32t30 -13t34 13t18 32q2 19 -9 32t-30 13t-34 -13t-17 -32z" />
    <glyph glyph-name="atilde.ss01" 
d="M59 275q18 125 95.5 200.5t189.5 75.5q97 0 145 -70l9 63h202l-78 -544h-202l9 62q-66 -69 -159 -69q-114 0 -172 77t-39 205zM238 617q25 171 137 171q34 0 66 -21.5t40 -21.5q27 0 33 40h122q-25 -171 -136 -171q-36 0 -67 21.5t-40 21.5q-26 0 -32 -40h-123zM262 270
q-8 -55 14 -88.5t67 -33.5q44 0 76 33.5t40 88.5q8 54 -14.5 87.5t-66.5 33.5q-45 0 -76.5 -33.5t-39.5 -87.5z" />
    <glyph glyph-name="ae.ss01" horiz-adv-x="954" 
d="M43 163q11 78 72 120.5t164 43.5h135v2q5 34 -16.5 53t-68.5 19q-74 0 -172 -39l-31 134q149 56 272 56q115 0 172 -51q75 50 175 50q124 0 186 -73t45 -198l-362 -76q20 -62 86 -62t136 62l99 -100q-112 -111 -268 -111q-150 0 -210 107q-80 -110 -234 -110
q-96 0 -143.5 47t-36.5 126zM236 177q-4 -26 10.5 -40t44.5 -14q31 0 59 15.5t43 41.5l7 48h-95q-63 0 -69 -51zM614 305l178 38q-1 36 -19.5 53.5t-49.5 17.5q-40 0 -68.5 -29t-40.5 -80z" />
    <glyph glyph-name="e.ss01" horiz-adv-x="614" 
d="M58 269q18 127 107.5 204t221.5 78q127 0 193 -72t50 -195l-364 -77q19 -65 87 -65q66 0 137 63l98 -101q-113 -111 -271 -111q-135 0 -206 75.5t-53 200.5zM269 310l170 37q-3 67 -64 67q-38 0 -66 -27.5t-40 -76.5z" />
    <glyph glyph-name="eacute.ss01" horiz-adv-x="614" 
d="M58 269q18 127 107.5 204t221.5 78q127 0 193 -72t50 -195l-364 -77q19 -65 87 -65q66 0 137 63l98 -101q-113 -111 -271 -111q-135 0 -206 75.5t-53 200.5zM269 310l170 37q-3 67 -64 67q-38 0 -66 -27.5t-40 -76.5zM296 595l133 180l166 -58l-151 -122h-148z" />
    <glyph glyph-name="ebreve.ss01" horiz-adv-x="614" 
d="M58 269q18 127 107.5 204t221.5 78q127 0 193 -72t50 -195l-364 -77q19 -65 87 -65q66 0 137 63l98 -101q-113 -111 -271 -111q-135 0 -206 75.5t-53 200.5zM243 765h123q-1 -24 11 -39t33 -15q22 0 38.5 15t21.5 39h123q-14 -76 -68.5 -121.5t-130.5 -45.5t-117 45.5
t-34 121.5zM269 310l170 37q-3 67 -64 67q-38 0 -66 -27.5t-40 -76.5z" />
    <glyph glyph-name="ecaron.ss01" horiz-adv-x="614" 
d="M58 269q18 127 107.5 204t221.5 78q127 0 193 -72t50 -195l-364 -77q19 -65 87 -65q66 0 137 63l98 -101q-113 -111 -271 -111q-135 0 -206 75.5t-53 200.5zM200 765h151l48 -91l74 91h151l-152 -172h-170zM269 310l170 37q-3 67 -64 67q-38 0 -66 -27.5t-40 -76.5z" />
    <glyph glyph-name="ecircumflex.ss01" horiz-adv-x="614" 
d="M58 269q18 127 107.5 204t221.5 78q127 0 193 -72t50 -195l-364 -77q19 -65 87 -65q66 0 137 63l98 -101q-113 -111 -271 -111q-135 0 -206 75.5t-53 200.5zM201 608l139 157h156l95 -157h-139l-44 83l-68 -83h-139zM269 310l170 37q-3 67 -64 67q-38 0 -66 -27.5
t-40 -76.5z" />
    <glyph glyph-name="edieresis.ss01" horiz-adv-x="614" 
d="M58 269q18 127 107.5 204t221.5 78q127 0 193 -72t50 -195l-364 -77q19 -65 87 -65q66 0 137 63l98 -101q-113 -111 -271 -111q-135 0 -206 75.5t-53 200.5zM221 696q5 37 33 61t66 24q37 0 57.5 -23.5t15.5 -61.5t-33 -62t-65 -24q-38 0 -58.5 24.5t-15.5 61.5zM269 310
l170 37q-3 67 -64 67q-38 0 -66 -27.5t-40 -76.5zM423 696q5 37 33 61t66 24q37 0 57.5 -23.5t15.5 -61.5t-33 -62t-65 -24q-38 0 -58.5 24.5t-15.5 61.5z" />
    <glyph glyph-name="edotaccent.ss01" horiz-adv-x="614" 
d="M58 269q18 127 107.5 204t221.5 78q127 0 193 -72t50 -195l-364 -77q19 -65 87 -65q66 0 137 63l98 -101q-113 -111 -271 -111q-135 0 -206 75.5t-53 200.5zM269 310l170 37q-3 67 -64 67q-38 0 -66 -27.5t-40 -76.5zM305 699q7 46 40 75t79 29t71 -29t18 -75t-40 -75
t-79 -29t-71 29t-18 75z" />
    <glyph glyph-name="egrave.ss01" horiz-adv-x="614" 
d="M58 269q18 127 107.5 204t221.5 78q127 0 193 -72t50 -195l-364 -77q19 -65 87 -65q66 0 137 63l98 -101q-113 -111 -271 -111q-135 0 -206 75.5t-53 200.5zM230 717l184 58l81 -180h-148zM269 310l170 37q-3 67 -64 67q-38 0 -66 -27.5t-40 -76.5z" />
    <glyph glyph-name="emacron.ss01" horiz-adv-x="614" 
d="M58 269q18 127 107.5 204t221.5 78q127 0 193 -72t50 -195l-364 -77q19 -65 87 -65q66 0 137 63l98 -101q-113 -111 -271 -111q-135 0 -206 75.5t-53 200.5zM252 628l20 133h290l-20 -133h-290zM269 310l170 37q-3 67 -64 67q-38 0 -66 -27.5t-40 -76.5z" />
    <glyph glyph-name="eogonek.ss01" horiz-adv-x="614" 
d="M58 269q18 127 107.5 204t221.5 78q127 0 193 -72t50 -195l-364 -77q19 -65 87 -65q66 0 129 52l91 -103q-130 -127 -137 -176q-3 -19 14 -19q20 0 43 31l42 -59q-51 -71 -124 -71q-37 0 -62 20t-18 65q8 57 69 128q-46 -17 -83 -17q-135 0 -206 75.5t-53 200.5zM269 310
l170 37q-3 67 -64 67q-38 0 -66 -27.5t-40 -76.5z" />
    <glyph glyph-name="f.ss01" horiz-adv-x="365" 
d="M51 0l82 566q12 86 79 136t165 49q99 0 161 -39l-88 -139q-27 21 -56 21q-25 0 -42.5 -14t-21.5 -38l-4 -26h113l-18 -129h-113l-56 -387h-201z" />
    <glyph glyph-name="g.ss01" horiz-adv-x="650" 
d="M19 -83l104 108q59 -71 150 -71q51 0 85 23.5t40 63.5l8 55q-62 -65 -148 -65q-107 0 -160.5 72t-36.5 191q17 116 89.5 186t176.5 70q90 0 135 -65l8 59h201l-71 -497q-16 -114 -109 -182t-231 -68q-76 1 -142 32.5t-99 87.5zM250 288q-8 -50 13 -81t62 -31
q42 0 71.5 31t37.5 81q7 52 -13.5 82.5t-62.5 30.5q-41 0 -71 -31t-37 -82z" />
    <glyph glyph-name="gbreve.ss01" horiz-adv-x="650" 
d="M19 -83l104 108q59 -71 150 -71q51 0 85 23.5t40 63.5l8 55q-62 -65 -148 -65q-107 0 -160.5 72t-36.5 191q17 116 89.5 186t176.5 70q90 0 135 -65l8 59h201l-71 -497q-16 -114 -109 -182t-231 -68q-76 1 -142 32.5t-99 87.5zM250 288q-8 -50 13 -81t62 -31
q42 0 71.5 31t37.5 81q7 52 -13.5 82.5t-62.5 30.5q-41 0 -71 -31t-37 -82zM254 765h123q-1 -24 11 -39t33 -15q22 0 38.5 15t21.5 39h123q-14 -76 -68.5 -121.5t-130.5 -45.5t-117 45.5t-34 121.5z" />
    <glyph glyph-name="gcircumflex.ss01" horiz-adv-x="650" 
d="M19 -83l104 108q59 -71 150 -71q51 0 85 23.5t40 63.5l8 55q-62 -65 -148 -65q-107 0 -160.5 72t-36.5 191q17 116 89.5 186t176.5 70q90 0 135 -65l8 59h201l-71 -497q-16 -114 -109 -182t-231 -68q-76 1 -142 32.5t-99 87.5zM212 608l139 157h156l95 -157h-139l-44 83
l-68 -83h-139zM250 288q-8 -50 13 -81t62 -31q42 0 71.5 31t37.5 81q7 52 -13.5 82.5t-62.5 30.5q-41 0 -71 -31t-37 -82z" />
    <glyph glyph-name="gcommaaccent.ss01" horiz-adv-x="663" 
d="M19 -83l104 108q59 -71 150 -71q51 0 85 23.5t40 63.5l8 55q-62 -65 -148 -65q-107 0 -160.5 72t-36.5 191q17 116 89.5 186t176.5 70q90 0 135 -65l8 59h201l-71 -497q-16 -114 -109 -182t-231 -68q-76 1 -142 32.5t-99 87.5zM250 288q-8 -50 13 -81t62 -31
q42 0 71.5 31t37.5 81q7 52 -13.5 82.5t-62.5 30.5q-41 0 -71 -31t-37 -82zM317 673q6 39 36 74l98 117h94l-67 -118q34 -25 27 -72q-6 -41 -36.5 -67.5t-71.5 -26.5q-39 0 -62.5 25t-17.5 68z" />
    <glyph glyph-name="gdotaccent.ss01" horiz-adv-x="650" 
d="M19 -83l104 108q59 -71 150 -71q51 0 85 23.5t40 63.5l8 55q-62 -65 -148 -65q-107 0 -160.5 72t-36.5 191q17 116 89.5 186t176.5 70q90 0 135 -65l8 59h201l-71 -497q-16 -114 -109 -182t-231 -68q-76 1 -142 32.5t-99 87.5zM250 288q-8 -50 13 -81t62 -31
q42 0 71.5 31t37.5 81q7 52 -13.5 82.5t-62.5 30.5q-41 0 -71 -31t-37 -82zM316 699q7 46 40 75t79 29t71 -29t18 -75t-40 -75t-79 -29t-71 29t-18 75z" />
    <glyph glyph-name="l.ss01" horiz-adv-x="360" 
d="M81 210l77 532h202l-76 -526q-7 -52 40 -52q21 0 52 13l-10 -166q-58 -21 -108 -21q-88 0 -140 56.5t-37 163.5z" />
    <glyph glyph-name="oe.ss01" horiz-adv-x="1016" 
d="M58 272q19 127 112.5 203t230.5 76q130 0 185 -83q80 82 203 83q127 0 193 -72t50 -195l-364 -77q19 -65 87 -65q66 0 137 63l98 -101q-112 -111 -271 -111q-130 0 -188 84q-81 -84 -210 -84q-137 0 -209 76.5t-54 202.5zM262 270q-8 -55 14 -88t67 -33q44 0 76 33t40 88
q8 54 -14.5 87.5t-66.5 33.5q-45 0 -76.5 -33.5t-39.5 -87.5zM671 310l170 37q-3 67 -64 67q-38 0 -66 -27.5t-40 -76.5z" />
    <glyph glyph-name="t.ss01" horiz-adv-x="412" 
d="M76 174l71 493h201l-22 -151h134l-18 -129h-134l-26 -182q-9 -56 38 -56q19 0 63 16l16 -139q-64 -35 -155 -35q-88 -1 -134 48.5t-34 134.5z" />
    <glyph glyph-name="tbar.ss01" horiz-adv-x="412" 
d="M76 174l71 493h201l-22 -151h132l-15 -110h-132l-9 -61h132l-16 -109h-132l-4 -31q-9 -56 38 -56q19 0 63 16l16 -139q-64 -35 -155 -35q-88 -1 -134 48.5t-34 134.5z" />
    <glyph glyph-name="tcaron.ss01" horiz-adv-x="412" 
d="M76 174l71 493h201l-22 -151h134l-18 -129h-134l-26 -182q-9 -56 38 -56q19 0 63 16l16 -139q-64 -35 -155 -35q-88 -1 -134 48.5t-34 134.5zM404 575l66 118q-34 25 -27 72q6 41 37 67.5t72 26.5q39 0 62 -25t17 -68q-5 -38 -35 -74l-98 -117h-94z" />
    <glyph glyph-name="tcedilla.ss01" horiz-adv-x="412" 
d="M63 -209l48 82q17 -20 42 -20q18 0 30 9.5t14 24.5q2 16 -8 25.5t-31 9.5q-13 0 -37 -4l53 82q-55 17 -81.5 62.5t-16.5 111.5l71 493h201l-22 -151h134l-18 -129h-134l-26 -182q-9 -56 38 -56q19 0 63 16l16 -139q-50 -27 -119 -33l-29 -44q29 -10 44 -32t11 -50
q-8 -50 -48.5 -79.5t-101.5 -29.5q-50 0 -93 33z" />
    <glyph glyph-name="tcommaaccent.ss01" horiz-adv-x="412" 
d="M64 -320l65 117q-32 27 -26 73q6 41 36.5 67t72.5 26q39 0 62 -24.5t17 -67.5q-5 -40 -35 -74l-98 -117h-94zM76 174l71 493h201l-22 -151h134l-18 -129h-134l-26 -182q-9 -56 38 -56q19 0 63 16l16 -139q-64 -35 -155 -35q-88 -1 -134 48.5t-34 134.5z" />
    <glyph glyph-name="w.ss01" horiz-adv-x="984" 
d="M80 239l44 305h199l-42 -296q-5 -37 12 -59.5t51 -22.5q32 0 55.5 22.5t28.5 59.5l42 296h199l-42 -296q-5 -37 12.5 -59.5t52.5 -22.5q32 0 55 22.5t28 59.5l42 296h200l-44 -305q-16 -112 -91.5 -180t-182.5 -68q-59 0 -112.5 29t-80.5 76q-37 -47 -98 -76t-121 -29
q-109 0 -166 68t-41 180z" />
    <glyph glyph-name="wacute.ss01" horiz-adv-x="984" 
d="M80 239l44 305h199l-42 -296q-5 -37 12 -59.5t51 -22.5q32 0 55.5 22.5t28.5 59.5l42 296h199l-42 -296q-5 -37 12.5 -59.5t52.5 -22.5q32 0 55 22.5t28 59.5l42 296h200l-44 -305q-16 -112 -91.5 -180t-182.5 -68q-59 0 -112.5 29t-80.5 76q-37 -47 -98 -76t-121 -29
q-109 0 -166 68t-41 180zM481 595l133 180l166 -58l-151 -122h-148z" />
    <glyph glyph-name="wcircumflex.ss01" horiz-adv-x="984" 
d="M80 239l44 305h199l-42 -296q-5 -37 12 -59.5t51 -22.5q32 0 55.5 22.5t28.5 59.5l42 296h199l-42 -296q-5 -37 12.5 -59.5t52.5 -22.5q32 0 55 22.5t28 59.5l42 296h200l-44 -305q-16 -112 -91.5 -180t-182.5 -68q-59 0 -112.5 29t-80.5 76q-37 -47 -98 -76t-121 -29
q-109 0 -166 68t-41 180zM385 608l139 157h156l95 -157h-139l-44 83l-68 -83h-139z" />
    <glyph glyph-name="wdieresis.ss01" horiz-adv-x="984" 
d="M80 239l44 305h199l-42 -296q-5 -37 12 -59.5t51 -22.5q32 0 55.5 22.5t28.5 59.5l42 296h199l-42 -296q-5 -37 12.5 -59.5t52.5 -22.5q32 0 55 22.5t28 59.5l42 296h200l-44 -305q-16 -112 -91.5 -180t-182.5 -68q-59 0 -112.5 29t-80.5 76q-37 -47 -98 -76t-121 -29
q-109 0 -166 68t-41 180zM405 696q5 37 33 61t66 24q37 0 57.5 -23.5t15.5 -61.5t-33 -62t-65 -24q-38 0 -58.5 24.5t-15.5 61.5zM607 696q5 37 33 61t66 24q37 0 57.5 -23.5t15.5 -61.5t-33 -62t-65 -24q-38 0 -58.5 24.5t-15.5 61.5z" />
    <glyph glyph-name="wgrave.ss01" horiz-adv-x="984" 
d="M80 239l44 305h199l-42 -296q-5 -37 12 -59.5t51 -22.5q32 0 55.5 22.5t28.5 59.5l42 296h199l-42 -296q-5 -37 12.5 -59.5t52.5 -22.5q32 0 55 22.5t28 59.5l42 296h200l-44 -305q-16 -112 -91.5 -180t-182.5 -68q-59 0 -112.5 29t-80.5 76q-37 -47 -98 -76t-121 -29
q-109 0 -166 68t-41 180zM415 717l184 58l81 -180h-148z" />
    <glyph glyph-name="y.ss01" horiz-adv-x="673" 
d="M53 -134l68 139q36 -22 84 -36t87 -14q52 0 88.5 29t43.5 75l11 80q-74 -94 -191 -94q-88 0 -132 56t-30 151l42 292h202l-33 -234q-6 -40 12 -63.5t53 -23.5q41 0 69 29t36 78l30 214h201l-70 -489q-17 -113 -109.5 -185.5t-221.5 -71.5q-61 0 -128.5 19.5t-111.5 48.5z
" />
    <glyph glyph-name="yacute.ss01" horiz-adv-x="673" 
d="M53 -134l68 139q36 -22 84 -36t87 -14q52 0 88.5 29t43.5 75l11 80q-74 -94 -191 -94q-88 0 -132 56t-30 151l42 292h202l-33 -234q-6 -40 12 -63.5t53 -23.5q41 0 69 29t36 78l30 214h201l-70 -489q-17 -113 -109.5 -185.5t-221.5 -71.5q-61 0 -128.5 19.5t-111.5 48.5z
M319 595l133 180l166 -58l-151 -122h-148z" />
    <glyph glyph-name="ycircumflex.ss01" horiz-adv-x="673" 
d="M53 -134l68 139q36 -22 84 -36t87 -14q52 0 88.5 29t43.5 75l11 80q-74 -94 -191 -94q-88 0 -132 56t-30 151l42 292h202l-33 -234q-6 -40 12 -63.5t53 -23.5q41 0 69 29t36 78l30 214h201l-70 -489q-17 -113 -109.5 -185.5t-221.5 -71.5q-61 0 -128.5 19.5t-111.5 48.5z
M224 608l139 157h156l95 -157h-139l-44 83l-68 -83h-139z" />
    <glyph glyph-name="ydieresis.ss01" horiz-adv-x="673" 
d="M53 -134l68 139q36 -22 84 -36t87 -14q52 0 88.5 29t43.5 75l11 80q-74 -94 -191 -94q-88 0 -132 56t-30 151l42 292h202l-33 -234q-6 -40 12 -63.5t53 -23.5q41 0 69 29t36 78l30 214h201l-70 -489q-17 -113 -109.5 -185.5t-221.5 -71.5q-61 0 -128.5 19.5t-111.5 48.5z
M244 696q6 37 33.5 61t65.5 24t58.5 -24t14.5 -61q-5 -38 -33 -62t-65 -24q-38 0 -58.5 24.5t-15.5 61.5zM446 696q6 37 33.5 61t65.5 24t58.5 -24t14.5 -61q-5 -38 -33 -62t-65 -24q-38 0 -58.5 24.5t-15.5 61.5z" />
    <glyph glyph-name="ygrave.ss01" horiz-adv-x="673" 
d="M53 -134l68 139q36 -22 84 -36t87 -14q52 0 88.5 29t43.5 75l11 80q-74 -94 -191 -94q-88 0 -132 56t-30 151l42 292h202l-33 -234q-6 -40 12 -63.5t53 -23.5q41 0 69 29t36 78l30 214h201l-70 -489q-17 -113 -109.5 -185.5t-221.5 -71.5q-61 0 -128.5 19.5t-111.5 48.5z
M253 717l184 58l81 -180h-148z" />
    <glyph glyph-name="z.ss01" horiz-adv-x="562" 
d="M29 0l17 119l113 108h-64l15 104h156l63 61h-234l22 152h488l-17 -120l-108 -104h64l-15 -104h-157l-67 -65h254l-22 -151h-508z" />
    <glyph glyph-name="zacute.ss01" horiz-adv-x="562" 
d="M29 0l17 119l113 108h-64l15 104h156l63 61h-234l22 152h488l-17 -120l-108 -104h64l-15 -104h-157l-67 -65h254l-22 -151h-508zM269 595l133 180l166 -58l-151 -122h-148z" />
    <glyph glyph-name="zcaron.ss01" horiz-adv-x="562" 
d="M29 0l17 119l113 108h-64l15 104h156l63 61h-234l22 152h488l-17 -120l-108 -104h64l-15 -104h-157l-67 -65h254l-22 -151h-508zM173 765h151l48 -91l74 91h151l-152 -172h-170z" />
    <glyph glyph-name="zdotaccent.ss01" horiz-adv-x="562" 
d="M29 0l17 119l113 108h-64l15 104h156l63 61h-234l22 152h488l-17 -120l-108 -104h64l-15 -104h-157l-67 -65h254l-22 -151h-508zM278 699q7 46 40 75t79 29t71 -29t18 -75t-40 -75t-79 -29t-71 29t-18 75z" />
    <glyph glyph-name="fi.ss01" horiz-adv-x="689" 
d="M51 0l82 566q12 86 79 136t165 49q62 0 106 -18l-29 -160q-29 20 -61 20q-25 1 -42 -12.5t-21 -38.5l-4 -26h113l-18 -129h-113l-56 -387h-201zM426 0l78 544h202l-78 -544h-202zM524 699q7 46 40 75t79 29t71.5 -29t18.5 -75t-40.5 -75t-79.5 -29t-71 29t-18 75z" />
    <glyph glyph-name="fl.ss01" horiz-adv-x="773" 
d="M75 355l19 129h74l11 76q13 89 97.5 140t217.5 51q129 0 195 -59t52 -160l-60 -416q-8 -52 39 -52q22 0 53 13l-11 -166q-58 -21 -107 -21q-89 0 -140.5 56.5t-35.5 163.5l60 420q4 29 -16 46t-59 18q-37 1 -61 -15.5t-28 -44.5l-6 -50h91l-19 -129h-91l-52 -355h-200
l51 355h-74z" />
    <glyph glyph-name="zero.ss01" horiz-adv-x="708" 
d="M81 301q20 138 119 222t242 84t217.5 -84t54.5 -222q-19 -139 -118 -223t-242 -84t-217.5 84t-55.5 223zM294 301q-10 -72 12 -113.5t70 -41.5q47 0 80.5 41t43.5 114q10 72 -11 113t-68 41q-48 0 -82.5 -41t-44.5 -113z" />
    <glyph glyph-name="one.ss01" horiz-adv-x="425" 
d="M67 435l24 166h334l-87 -601h-209l63 435h-125z" />
    <glyph glyph-name="two.ss01" horiz-adv-x="551" 
d="M40 0l19 130l245 214q49 45 53 71q3 27 -34 27q-67 0 -178 -78l-55 150q154 95 290 95q96 0 152.5 -45.5t46.5 -117.5q-12 -87 -149 -204l-100 -81h216l-23 -161h-483z" />
    <glyph glyph-name="three.ss01" horiz-adv-x="567" 
d="M-8 -20l106 158q66 -92 161 -92q86 0 97 74q5 37 -14 55t-62 18h-121l16 110l163 142h-243l22 154h480l-17 -117l-184 -161l30 -7q71 -14 108.5 -64.5t26.5 -127.5q-15 -103 -99.5 -167t-209.5 -64q-75 0 -145 24.5t-115 64.5z" />
    <glyph glyph-name="four.ss01" horiz-adv-x="650" 
d="M32 43l20 138l273 420h199l-258 -405h119l21 141h193l-21 -141h92l-22 -153h-92l-20 -143h-193l20 143h-331z" />
    <glyph glyph-name="five.ss01" horiz-adv-x="604" 
d="M5 -18l105 158q64 -93 161 -93q89 0 100 76q9 70 -79 70q-112 0 -194 -2l59 410h475l-23 -162h-286l-13 -91h45q124 0 190 -58t52 -153q-17 -112 -105 -179t-220 -67q-71 0 -144 25t-123 66z" />
    <glyph glyph-name="six.ss01" horiz-adv-x="641" 
d="M87 342q24 167 129.5 267.5t257.5 100.5q62 0 124 -16.5t103 -43.5l-100 -146q-54 46 -137 46q-149 0 -169 -148q61 63 163 63q103 0 156 -63t38 -166q-16 -112 -99.5 -178.5t-204.5 -66.5q-145 0 -214.5 94.5t-46.5 256.5zM290 235q-5 -36 13.5 -57t60.5 -21q84 0 95 80
q5 37 -13 56.5t-58 19.5q-42 0 -67.5 -21t-30.5 -57z" />
    <glyph glyph-name="seven.ss01" horiz-adv-x="607" 
d="M80 341l38 260h564l-21 -141l-329 -560h-220l317 539h-152l-14 -98h-183z" />
    <glyph glyph-name="eight.ss01" horiz-adv-x="650" 
d="M57 195q8 58 50 106.5t104 73.5q-38 26 -57 66t-13 82q13 85 90.5 136t194.5 51q118 0 181.5 -52.5t51.5 -140.5q-7 -42 -34.5 -80.5t-67.5 -61.5q50 -25 75 -72.5t18 -104.5q-14 -95 -102.5 -151t-223.5 -56t-207.5 55.5t-59.5 148.5zM256 216q-5 -37 17.5 -56t71.5 -19
q100 0 111 75q5 38 -17.5 57.5t-71.5 19.5q-100 0 -111 -77zM314 506q-5 -32 14.5 -48.5t60.5 -16.5q84 0 93 65q9 67 -74 67q-85 0 -94 -67z" />
    <glyph glyph-name="nine.ss01" horiz-adv-x="641" 
d="M28 -49l100 146q54 -46 136 -46q150 0 170 148q-63 -63 -163 -63q-103 0 -156 63t-38 166q16 112 99.5 178.5t204.5 66.5q145 0 214 -94.5t46 -256.5q-24 -167 -129.5 -267.5t-257.5 -100.5q-62 0 -123 16.5t-103 43.5zM269 364q-5 -37 13.5 -56.5t58.5 -19.5
q42 0 67.5 21t30.5 57t-14 57t-60 21q-84 0 -96 -80z" />
    <glyph glyph-name="zero.dnom" horiz-adv-x="456" 
d="M58 210q14 98 77 155.5t155 57.5t137.5 -58t31.5 -155q-14 -98 -76.5 -156t-154.5 -58t-138 58t-32 156zM185 210q-7 -50 9 -78.5t50 -28.5t57.5 29t30.5 78q8 49 -7.5 77.5t-49.5 28.5t-58 -28.5t-32 -77.5z" />
    <glyph glyph-name="one.dnom" horiz-adv-x="281" 
d="M52 312l15 107h218l-60 -419h-141l45 312h-77z" />
    <glyph glyph-name="two.dnom" horiz-adv-x="392" 
d="M30 0l12 85l175 151q38 35 41 56q3 23 -29 23q-50 0 -125 -53l-39 97q109 66 203 66q68 0 108 -31.5t33 -81.5q-9 -60 -106 -142l-78 -66h161l-15 -104h-341z" />
    <glyph glyph-name="three.dnom" horiz-adv-x="370" 
d="M9 49l71 103q40 -58 99 -58q47 0 53 39q3 19 -8 28t-35 9h-78l11 71l96 79h-148l14 97h308l-11 -76l-110 -88l19 -4q42 -9 65 -39.5t16 -76.5q-9 -61 -62.5 -100t-132.5 -39q-49 0 -94.5 15t-72.5 40z" />
    <glyph glyph-name="four.dnom" horiz-adv-x="424" 
d="M33 82l13 89l164 248h135l-155 -241h64l11 82h131l-11 -82h56l-14 -96h-56l-12 -82h-131l12 82h-207z" />
    <glyph glyph-name="five.dnom" horiz-adv-x="392" 
d="M15 49l71 104q39 -59 99 -59q48 0 54 40q3 17 -8.5 26t-36.5 9h-123l36 250h305l-15 -104h-175l-6 -47h22q79 0 121 -34t34 -91q-10 -68 -66 -108.5t-140 -40.5q-100 0 -172 55z" />
    <glyph glyph-name="six.dnom" horiz-adv-x="415" 
d="M58 205q14 100 80.5 160t163.5 60q88 0 145 -37l-67 -95q-31 27 -85 27q-86 0 -97 -74q36 33 97 33q64 0 97.5 -38t24.5 -100q-10 -67 -62.5 -107t-129.5 -40q-92 0 -136.5 57t-30.5 154zM195 141q-2 -19 8 -29t33 -10q45 0 51 41q2 19 -8 28.5t-32 9.5q-46 0 -52 -40z
" />
    <glyph glyph-name="seven.dnom" horiz-adv-x="395" 
d="M61 256l23 163h360l-13 -91l-200 -328h-149l191 315h-80l-8 -59h-124z" />
    <glyph glyph-name="eight.dnom" horiz-adv-x="421" 
d="M39 117q5 34 30 63t63 44q-23 16 -34.5 40t-7.5 49q7 51 56.5 81.5t123.5 30.5q76 0 116.5 -32t32.5 -85q-6 -50 -59 -84q30 -15 45 -43.5t11 -61.5q-8 -57 -64.5 -91t-142.5 -34t-132 33.5t-38 89.5zM174 131q-6 -39 49 -39q56 0 62 39q6 40 -50 40q-55 0 -61 -40z
M206 301q-2 -16 8.5 -25t33.5 -9q47 0 52 34q3 17 -7.5 26.5t-33.5 9.5q-47 0 -53 -36z" />
    <glyph glyph-name="nine.dnom" horiz-adv-x="416" 
d="M28 31l68 95q32 -27 84 -27q89 0 98 73q-41 -33 -98 -33q-64 0 -97 38.5t-24 100.5q10 67 62 107t130 40q92 0 137 -57t31 -154q-14 -100 -81.5 -160t-164.5 -60q-89 0 -145 37zM190 277q-6 -39 38 -39q46 0 52 39q6 40 -39 40t-51 -40z" />
    <glyph glyph-name="zero.numr" horiz-adv-x="456" 
d="M99 492q14 98 76.5 155t154.5 57t138 -57.5t32 -154.5q-14 -98 -77 -156.5t-154 -58.5q-92 0 -138 58.5t-32 156.5zM226 492q-8 -50 8 -78.5t50 -28.5t57.5 28.5t31.5 78.5q7 49 -8.5 77.5t-49.5 28.5t-58 -28.5t-31 -77.5z" />
    <glyph glyph-name="one.numr" horiz-adv-x="281" 
d="M92 593l16 108h218l-61 -420h-141l45 312h-77z" />
    <glyph glyph-name="two.numr" horiz-adv-x="392" 
d="M70 281l13 85l175 152q38 36 41 56q3 23 -29 23q-51 0 -126 -54l-39 98q108 65 204 65q68 0 107.5 -31.5t32.5 -81.5q-7 -59 -105 -141l-78 -66h161l-16 -105h-341z" />
    <glyph glyph-name="three.numr" horiz-adv-x="370" 
d="M50 331l71 103q39 -58 98 -58q48 0 54 38q2 19 -8.5 28.5t-34.5 9.5h-78l10 71l97 78h-148l14 98h308l-11 -76l-110 -88l18 -5q43 -9 66 -39.5t16 -76.5q-9 -61 -62.5 -100t-132.5 -39q-49 0 -94.5 15.5t-72.5 40.5z" />
    <glyph glyph-name="four.numr" horiz-adv-x="424" 
d="M73 363l13 89l165 249h135l-156 -241h64l12 82h131l-12 -82h56l-14 -97h-56l-12 -82h-131l12 82h-207z" />
    <glyph glyph-name="five.numr" horiz-adv-x="392" 
d="M56 330l71 104q39 -58 98 -58q49 0 55 39q2 17 -9 26.5t-36 9.5q-97 0 -123 -1l36 251h305l-15 -104h-175l-7 -48h22q79 0 121 -33.5t34 -91.5q-10 -68 -65.5 -108.5t-139.5 -40.5q-98 0 -172 55z" />
    <glyph glyph-name="six.numr" horiz-adv-x="415" 
d="M98 486q14 100 81 160t164 60q91 0 144 -37l-66 -95q-32 28 -85 28q-88 0 -97 -74q37 32 97 32q64 0 97.5 -37.5t24.5 -99.5q-10 -67 -62.5 -107.5t-129.5 -40.5q-92 0 -137 57t-31 154zM236 423q-3 -20 7 -29.5t33 -9.5q45 0 51 40q6 39 -39 39q-46 0 -52 -40z" />
    <glyph glyph-name="seven.numr" horiz-adv-x="395" 
d="M102 538l23 163h360l-13 -91l-201 -329h-149l192 316h-80l-8 -59h-124z" />
    <glyph glyph-name="eight.numr" horiz-adv-x="421" 
d="M79 398q5 34 30.5 63t63.5 45q-50 35 -42 88q7 51 56.5 81.5t123.5 30.5q76 0 116.5 -32t32.5 -85q-4 -23 -20 -46t-39 -37q30 -16 45 -44.5t11 -60.5q-8 -58 -64.5 -92t-142.5 -34t-132.5 33.5t-38.5 89.5zM214 412q-2 -19 10.5 -29t39.5 -10q56 0 61 39q6 40 -50 40
q-55 0 -61 -40zM247 582q-2 -16 8.5 -24.5t33.5 -8.5q47 0 52 33q5 36 -42 36t-52 -36z" />
    <glyph glyph-name="nine.numr" horiz-adv-x="416" 
d="M69 313l68 94q30 -27 84 -27q88 0 97 74q-37 -33 -97 -33q-64 0 -97 38t-24 100q10 67 62 107t130 40q92 0 136.5 -57t30.5 -154q-14 -100 -81 -160t-164 -60q-87 0 -145 38zM230 558q-2 -19 7.5 -28.5t31.5 -9.5q46 0 52 39q2 20 -7.5 29.5t-32.5 9.5q-45 0 -51 -40z
" />
    </font>
</defs>
</svg>
