<?xml version="1.0" standalone="no"?>
<!DOCTYPE svg PUBLIC "-//W3C//DTD SVG 1.1//EN" "http://www.w3.org/Graphics/SVG/1.1/DTD/svg11.dtd" >
<svg xmlns="http://www.w3.org/2000/svg" xmlns:xlink="http://www.w3.org/1999/xlink" version="1.1">
<metadata>
Created by FontForge 20170731 at Wed Jan  4 18:36:05 2017
 By Aleksey,,,
Copyright (c) 2014 by Julieta Ulanovsky. All rights reserved, Design Modifications and new weights 2015, Jasper @ Cannot Into Space Fonts
</metadata>
<defs>
<font id="TruenoBlkOlIt" horiz-adv-x="690" >
  <font-face 
    font-family="Trueno"
    font-weight="900"
    font-style="italic"
    font-stretch="normal"
    units-per-em="1000"
    panose-1="0 0 10 0 0 0 0 0 0 0"
    ascent="800"
    descent="-200"
    x-height="572"
    cap-height="726"
    bbox="-303 -365.333 1560.31 1006"
    underline-thickness="50"
    underline-position="-200"
    unicode-range="U+0020-FB02"
  />
<missing-glyph horiz-adv-x="500" 
d="M-25 0l101 700q1 11 10 18t18 7h500q11 0 17.5 -8t4.5 -17l-101 -700q-1 -11 -10.5 -18t-18.5 -7h-500q-11 0 -17 8t-4 17zM29 25h450l93 650h-450zM39 95l73 510q3 19 15 22.5t23 -2.5l10 -6l133 -255q7 -14 -4 -28l-207 -255q-14 -15 -24 -12t-14 15zM68 64l207 255
q13 16 23.5 16t14.5 -8l4 -8l133 -255q8 -19 2.5 -28t-16.5 -10l-12 -1h-340q-21 0 -25 9.5t3 19.5zM101 178l139 172l-90 172zM138 75h246l-97 185zM151 636q-8 19 -2.5 28t17.5 10l11 1h340q21 0 25 -9.5t-3 -19.5l-7 -10l-206 -255q-13 -16 -23.5 -16t-14.5 8l-4 8z
M217 625l96 -185l150 185h-246zM308 336q-7 14 4 28l206 255q15 15 24.5 12t14.5 -15l5 -11l-73 -510q-3 -19 -15 -22.5t-22 2.5l-11 6zM360 350l91 -172l49 344z" />
    <glyph glyph-name="fi" unicode="fi" horiz-adv-x="761" 
d="M50 385l21 142q1 11 10.5 18t18.5 7h50l2 14q14 97 92 154.5t190 56.5q73 0 117 -17q17 -7 13 -25l-33 -177q-2 -10 -8 -16q3 -5 3 -15l-21 -142q-1 -11 -10 -18t-18 -7h-81l-52 -360q-1 -11 -10.5 -18t-18.5 -7h-224q-11 0 -17 8t-4 17l52 360h-50q-11 0 -17.5 8
t-4.5 17zM104 410h50q9 0 15.5 -7t5.5 -18l-51 -360h174l51 360q2 9 10 17t19 8h81l13 92h-81q-9 0 -15.5 7t-5.5 18l1 5q4 32 28.5 52t58.5 19q16 0 31 -5l22 120q-34 9 -84 9q-95 1 -154.5 -43t-70.5 -118l-6 -39q-2 -9 -10 -17t-19 -8h-50zM438 552h22q-4 1 -10 1
q-9 0 -12 -1zM456 0l79 547q1 11 10 18t18 7h225q11 0 17.5 -8t4.5 -17l-79 -547q-1 -11 -10.5 -18t-18.5 -7h-225q-11 0 -17 8t-4 17zM510 25h175l71 497h-175zM556 703q9 60 54 99.5t105 39.5t94 -39.5t25 -99.5t-54 -99.5t-105 -39.5t-94 39.5t-25 99.5zM606 703
q-6 -40 14.5 -64.5t61.5 -24.5q40 0 68 24t34 65q6 40 -14.5 64.5t-61.5 24.5q-40 0 -68 -24t-34 -65z" />
    <glyph glyph-name="fl" unicode="fl" horiz-adv-x="771" 
d="M50 385l21 142q1 11 10.5 18t18.5 7h50l2 14q14 97 92 154.5t190 56.5q73 0 117 -17q17 -7 13 -25l-33 -177q-2 -10 -8 -16q3 -5 3 -15l-21 -142q-1 -11 -10 -18t-18 -7h-81l-52 -360q-1 -11 -10.5 -18t-18.5 -7h-224q-11 0 -17 8t-4 17l52 360h-50q-11 0 -17.5 8
t-4.5 17zM104 410h50q9 0 15.5 -7t5.5 -18l-51 -360h174l51 360q2 9 10 17t19 8h81l13 92h-81q-9 0 -15.5 7t-5.5 18l1 5q4 32 28.5 52t58.5 19q16 0 31 -5l22 120q-34 9 -84 9q-95 1 -154.5 -43t-70.5 -118l-6 -39q-2 -9 -10 -17t-19 -8h-50zM438 552h22q-4 1 -10 1
q-9 0 -12 -1zM461 0l107 742q1 11 10.5 18t18.5 7h225q11 0 17 -8t4 -17l-107 -742q-1 -11 -10.5 -18t-18.5 -7h-225q-11 0 -17 8t-4 17zM515 25h175l99 692h-175z" />
    <glyph glyph-name=".notdef" horiz-adv-x="500" 
d="M-25 0l101 700q1 11 10 18t18 7h500q11 0 17.5 -8t4.5 -17l-101 -700q-1 -11 -10.5 -18t-18.5 -7h-500q-11 0 -17 8t-4 17zM29 25h450l93 650h-450zM39 95l73 510q3 19 15 22.5t23 -2.5l10 -6l133 -255q7 -14 -4 -28l-207 -255q-14 -15 -24 -12t-14 15zM68 64l207 255
q13 16 23.5 16t14.5 -8l4 -8l133 -255q8 -19 2.5 -28t-16.5 -10l-12 -1h-340q-21 0 -25 9.5t3 19.5zM101 178l139 172l-90 172zM138 75h246l-97 185zM151 636q-8 19 -2.5 28t17.5 10l11 1h340q21 0 25 -9.5t-3 -19.5l-7 -10l-206 -255q-13 -16 -23.5 -16t-14.5 8l-4 8z
M217 625l96 -185l150 185h-246zM308 336q-7 14 4 28l206 255q15 15 24.5 12t14.5 -15l5 -11l-73 -510q-3 -19 -15 -22.5t-22 2.5l-11 6zM360 350l91 -172l49 344z" />
    <glyph glyph-name=".null" horiz-adv-x="0" 
 />
    <glyph glyph-name="nonmarkingreturn" horiz-adv-x="333" 
 />
    <glyph glyph-name="space" unicode=" " horiz-adv-x="209" 
 />
    <glyph glyph-name="exclam" unicode="!" horiz-adv-x="294" 
d="M29 95q8 55 49 91t96 36q56 0 87 -36t23 -91q-8 -56 -50 -92t-97 -36t-85.5 36.5t-22.5 91.5zM79 95q-5 -36 12.5 -57t52.5 -21q36 0 60.5 21t29.5 57q5 35 -13 56t-54 21q-35 0 -59 -21t-29 -56zM89 513q0 1 0.5 2t0.5 2l26 184q1 11 10.5 18t18.5 7h214q11 0 17 -8
t4 -17l-26 -184q0 -1 -0.5 -2t-0.5 -2l-78 -259q-7 -21 -27 -21h-134q-9 0 -15.5 6.5t-6.5 14.5zM140 519l2 -236h91l71 236l22 157h-164z" />
    <glyph glyph-name="quotedbl" unicode="&#x22;" horiz-adv-x="509" 
d="M92 399l44 302q1 11 10.5 18t18.5 7h168q11 0 17 -8t4 -17l-44 -302q-1 -11 -10 -18t-18 -7h-168q-11 0 -17.5 8t-4.5 17zM146 424h118l36 252h-118zM313 399l44 302q1 11 10.5 18t18.5 7h168q11 0 17 -8t4 -17l-44 -302q-1 -11 -10 -18t-18 -7h-168q-11 0 -17.5 8
t-4.5 17zM367 424h118l36 252h-118z" />
    <glyph glyph-name="numbersign" unicode="#" horiz-adv-x="745" 
d="M0 141l41 153q7 22 28 22h108l16 60h-101q-10 0 -17.5 6.5t-3.5 21.5l40 153q2 9 10.5 15.5t17.5 6.5h108l34 125q2 9 10.5 15.5t17.5 6.5h160q10 0 17 -6.5t3 -21.5l-31 -119h54l34 125q2 9 10.5 15.5t17.5 6.5h160q10 0 17 -6.5t3 -21.5l-31 -119h101q10 0 17.5 -6.5
t3.5 -21.5l-40 -153q-2 -9 -10.5 -15.5t-17.5 -6.5h-109l-16 -60h102q10 0 17 -6.5t3 -21.5l-41 -153q-7 -22 -28 -22h-108l-31 -116q-2 -9 -10.5 -15.5t-17.5 -6.5h-160q-10 0 -17 6.5t-3 21.5l29 110h-55l-31 -116q-2 -9 -10.5 -15.5t-17.5 -6.5h-160q-10 0 -17 6.5
t-3 21.5l29 110h-102q-10 0 -17 6.5t-3 21.5zM56 163h101q15 0 19.5 -9t1.5 -19l-29 -110h109l32 116q6 22 27 22h105q15 0 19.5 -9t1.5 -19l-29 -110h109l32 116q6 22 27 22h108l28 103h-102q-15 0 -19 9t-1 19l29 110q2 9 10.5 15.5t17.5 6.5h109l27 103h-102
q-15 0 -19.5 9t-1.5 19l32 119h-109l-34 -125q-2 -9 -10.5 -15.5t-17.5 -6.5h-105q-15 0 -19.5 9t-1.5 19l32 119h-109l-34 -125q-2 -9 -10.5 -15.5t-17.5 -6.5h-108l-26 -103h100q15 0 19.5 -9t1.5 -19l-30 -110q-2 -9 -10.5 -15.5t-17.5 -6.5h-108zM331 294l29 110
q2 9 10.5 15.5t17.5 6.5h105q15 0 19.5 -9t1.5 -19l-30 -110q-2 -9 -10.5 -15.5t-17.5 -6.5h-105q-15 0 -19 9t-1 19zM387 316h55l16 60h-55z" />
    <glyph glyph-name="dollar" unicode="$" horiz-adv-x="664" 
d="M2 116l111 174q19 28 40 8q43 -41 115.5 -72t120.5 -31q33 0 33 11q1 7 -10.5 12t-32 9.5t-47 10t-55.5 14t-57.5 20t-53 30t-42 43t-24.5 60t-1 78.5q13 86 72 147t150 87l22 147q1 11 10 18t18 7h166q11 0 17.5 -8t4.5 -17l-20 -133q133 -16 227 -82q17 -12 5 -32
l-110 -176q-6 -9 -16 -13t-20 2q-50 30 -115.5 54.5t-102.5 24.5q-12 0 -18 -3v-1q-1 -6 10.5 -11t32 -9.5t47 -10t55 -15t57 -21.5t53 -32t41.5 -45t24 -62t1 -81q-15 -105 -92.5 -167t-187.5 -78l-20 -138q-1 -11 -10 -18t-18 -7h-166q-11 0 -17.5 8t-4.5 17l22 150
q-128 29 -211 100q-15 13 -3 31zM56 113q79 -60 196 -83q20 -4 17 -25l-21 -145h116l19 135q2 9 9.5 16.5t16.5 8.5q104 10 171 60t80 138q8 54 -13.5 92t-59.5 55.5t-82.5 32t-83.5 24.5t-63 31t-19 52q4 20 13 30q21 24 63 24q85 0 219 -73l82 132q-91 54 -211 65
q-9 1 -14.5 8t-4.5 17l19 131h-116l-20 -141q-1 -8 -7.5 -15t-15.5 -9q-85 -20 -135.5 -69.5t-61.5 -121.5q-6 -45 9 -78t44.5 -50.5t66.5 -30t74.5 -22t68 -20t47.5 -29.5t13 -47q-5 -32 -31.5 -46.5t-58.5 -14.5q-54 0 -122.5 27t-121.5 69z" />
    <glyph glyph-name="percent" unicode="%" horiz-adv-x="1068" 
d="M71 491q15 107 88 173t176 66t156.5 -66t38.5 -173q-16 -108 -88.5 -174.5t-175.5 -66.5t-157 67t-38 174zM121 491q-13 -89 28 -140t124 -51t138.5 51t68.5 140q13 88 -28 138.5t-124 50.5t-138.5 -50.5t-68.5 -138.5zM168 14l588 701q9 11 22 11h209h5t9.5 -2t9.5 -6
t1.5 -12t-11.5 -19l-588 -701q-9 -11 -22 -11h-209h-5t-9.5 2t-9.5 6t-1.5 12t11.5 19zM212 491q7 51 35 86t71 35t61 -35t11 -86t-35.5 -86.5t-71.5 -35.5t-60.5 35.5t-10.5 86.5zM237 25h149l546 651h-149zM262 491q-10 -72 28 -72q16 0 30.5 17t19.5 55q5 36 -4 53.5
t-25 17.5t-29.5 -17t-19.5 -54zM639 211q15 107 88.5 173t176.5 66t156 -66t38 -173q-16 -108 -88 -174.5t-175 -66.5t-157.5 67t-38.5 174zM689 211q-13 -89 28.5 -140t124.5 -51t138 51t68 140q13 88 -27.5 138.5t-123.5 50.5t-139 -50.5t-69 -138.5zM780 211
q7 51 35.5 86t71.5 35t60.5 -35t10.5 -86t-35 -86.5t-71 -35.5t-61 35.5t-11 86.5zM830 211q-5 -38 4 -55t25 -17t30 17t19 55q6 36 -3 53.5t-25 17.5t-30.5 -17.5t-19.5 -53.5z" />
    <glyph glyph-name="ampersand" unicode="&#x26;" horiz-adv-x="706" 
d="M57 200q16 114 146 190q-32 70 -21 142q13 94 87.5 149t182.5 55q104 0 167 -53t51 -139q-12 -84 -88 -146l134 -107q14 -10 5 -28q-25 -51 -62 -101l70 -75q16 -18 -5 -36l-129 -109q-8 -7 -18.5 -7t-16.5 7l-66 74q-93 -51 -191 -51q-119 0 -190 65.5t-56 169.5z
M107 200q-11 -81 44.5 -133t158.5 -52q95 0 181 53q19 11 31 -3l63 -70l88 74l-67 71q-13 15 1 32q37 45 60 90l-86 69q-19 -39 -38 -68t-41 -7q-24 27 -64 79q-11 12 -6 21t10 13t9 5q52 25 88 50q70 50 81 120q9 61 -38.5 101.5t-136.5 40.5q-92 0 -147 -41t-66 -113
q-9 -66 27 -136q5 -11 0.5 -21t-14.5 -15q-61 -33 -95.5 -69.5t-42.5 -90.5zM242 217q6 42 52 77q7 6 17.5 5.5t16.5 -7.5q28 -35 94 -114q10 -13 7 -22t-11 -14l-8 -4q-38 -18 -76 -18q-44 0 -71.5 26.5t-20.5 70.5zM292 217q-3 -22 9.5 -34.5t39.5 -12.5q12 0 16 1
q-9 11 -18.5 23t-20 25t-16.5 20q-9 -12 -10 -22zM356 533q5 32 26.5 55.5t53.5 23.5q29 0 46 -20t13 -50q-8 -59 -92 -106q-10 -5 -20 -3t-14 11q-19 44 -13 89zM406 533q-3 -17 2 -39q34 23 37 48q3 20 -16 20t-23 -29zM498 345q4 -5 11.5 -14t11.5 -14q16 29 25 55
q-10 -7 -48 -27z" />
    <glyph glyph-name="quotesingle" unicode="'" horiz-adv-x="288" 
d="M92 399l44 302q1 11 10.5 18t18.5 7h168q11 0 17 -8t4 -17l-44 -302q-1 -11 -10 -18t-18 -7h-168q-11 0 -17.5 8t-4.5 17zM146 424h118l36 252h-118z" />
    <glyph glyph-name="parenleft" unicode="(" horiz-adv-x="370" 
d="M67 309q37 255 202 448q9 10 22 10h201h5t9 -2t9 -5.5t1.5 -11.5t-9.5 -19q-147 -194 -179 -420t58 -420v-1q1 -1 2 -3.5t1.5 -5t1 -6t0 -6.5t-2.5 -6t-5.5 -5t-9 -3.5t-13.5 -1.5h-201q-14 0 -19 10q-110 194 -73 448zM117 309q-34 -231 62 -408h145q-76 194 -46 408
q30 215 163 408h-145q-145 -176 -179 -408z" />
    <glyph glyph-name="parenright" unicode=")" horiz-adv-x="370" 
d="M-48 -111q148 195 180 420t-59 420l-1 1q0 1 -1 3.5t-1.5 5t-0.5 6t0.5 6.5t2.5 6t5.5 5t9 3.5t13.5 1.5h201q13 0 18 -10q111 -195 74 -448q-37 -254 -203 -448q-9 -10 -21 -10h-201h-5t-9 2t-9.5 5.5t-2 11.5t9.5 19zM18 -99h145q146 178 180 408q33 229 -63 408h-145
q77 -196 47 -408q-30 -213 -164 -408z" />
    <glyph glyph-name="asterisk" unicode="*" horiz-adv-x="406" 
d="M68 483q-4 9 0.5 19.5t14.5 15.5l40 20l-34 20q-8 5 -10 14.5t5 19.5l69 97q16 22 36 9l32 -22l5 41q2 10 10 18t19 8h110q10 0 16 -7.5t5 -18.5l-7 -42l39 21q10 5 20 3t14 -11l41 -95q4 -9 0 -19.5t-15 -15.5l-40 -20l35 -20q8 -5 9.5 -14.5t-5.5 -19.5l-68 -96
q-6 -9 -17 -12t-20 3l-33 22l-4 -41q-1 -10 -9.5 -18t-19.5 -8h-110q-10 0 -16.5 7.5t-4.5 18.5l7 43l-39 -22q-10 -5 -19.5 -3t-13.5 11zM125 486l22 -49l59 32q21 10 28.5 5.5t6.5 -16.5l-1 -11l-11 -63h58l7 62q2 21 12.5 26.5t19.5 0.5l10 -5l49 -33l37 51l-52 31
q-17 12 -15.5 21.5t11.5 15.5l10 7l60 29l-22 50l-57 -31q-21 -10 -29 -5.5t-7 16.5l1 11l10 62h-59l-7 -62q-3 -21 -13.5 -26.5t-19.5 -0.5l-9 5l-48 33l-36 -52l50 -29q18 -12 16.5 -21.5t-11.5 -15.5l-10 -7z" />
    <glyph glyph-name="plus" unicode="+" horiz-adv-x="520" 
d="M42 259l20 140q1 11 10.5 18t18.5 7h135l20 135q1 11 10 18t18 7h140q11 0 17.5 -8t4.5 -17l-20 -135h135q11 0 17 -8t4 -17l-20 -140q-1 -11 -10 -18t-18 -7h-135l-20 -135q-1 -11 -10 -18t-18 -7h-140q-11 0 -17.5 8t-4.5 17l20 135h-135q-11 0 -17.5 8t-4.5 17z
M96 284h135q9 0 15.5 -7t5.5 -18l-19 -135h90l19 135q2 9 10 17t19 8h135l13 90h-135q-9 0 -16 7t-6 18l20 135h-90l-20 -135q-2 -9 -10 -17t-18 -8h-135z" />
    <glyph glyph-name="comma" unicode="," horiz-adv-x="265" 
d="M-20 -101l61 110q-28 32 -21 86q8 55 49.5 91t96.5 36q52 0 85 -34t24 -92q-7 -49 -45 -94l-105 -126q-9 -11 -22 -11h-104q0 1 -4 0t-8.5 1t-8.5 4.5t-4 10t6 18.5zM43 -85h54l96 115q26 31 32 66q5 37 -13.5 56.5t-52.5 19.5q-35 0 -59.5 -21t-29.5 -56q-6 -38 19 -57
q16 -10 5 -30z" />
    <glyph glyph-name="hyphen" unicode="-" horiz-adv-x="380" 
d="M59 239l21 140q1 11 10 18t18 7h280q11 0 17.5 -8t4.5 -17l-21 -140q-1 -11 -10 -18t-18 -7h-280q-11 0 -17.5 8t-4.5 17zM113 264h230l13 90h-230z" />
    <glyph glyph-name="period" unicode="." horiz-adv-x="265" 
d="M19 95q8 55 49 91t96 36q56 0 87 -36t23 -91q-8 -56 -50 -92t-97 -36t-85.5 36.5t-22.5 91.5zM69 95q-5 -36 12.5 -57t52.5 -21q36 0 60.5 21t29.5 57q5 35 -13 56t-54 21q-35 0 -59 -21t-29 -56z" />
    <glyph glyph-name="slash" unicode="/" horiz-adv-x="373" 
d="M-87 -96l460 910q9 17 26 17h188q0 -1 3.5 0t8 -1t8.5 -4.5t3.5 -10t-5.5 -17.5l-460 -910q-9 -17 -26 -17h-188q0 1 -3.5 0t-8 1t-8.5 4.5t-3.5 10t5.5 17.5zM-26 -79h135l435 860h-135z" />
    <glyph glyph-name="zero" unicode="0" horiz-adv-x="713" 
d="M61 351q26 181 131 281.5t271 100.5q165 0 241 -101t50 -281q-26 -181 -132 -282t-270 -101q-166 0 -241.5 101t-49.5 282zM111 351q-24 -164 39.5 -248.5t209.5 -84.5q145 0 232.5 84.5t111.5 248.5t-40 248t-209 84q-146 0 -233 -83.5t-111 -248.5zM299 351
q16 111 46.5 162.5t92.5 51.5t79 -55.5t-1 -158.5q-16 -111 -46.5 -163t-92.5 -52t-79 56t1 159zM349 351q-12 -71 -9 -107.5t12.5 -47t31.5 -10.5q31 0 49 31.5t33 133.5q12 71 8.5 107.5t-13 46.5t-30.5 10q-22 0 -34.5 -10t-25 -46.5t-22.5 -107.5z" />
    <glyph glyph-name="one" unicode="1" horiz-adv-x="435" 
d="M52 518l26 183q1 11 10.5 18t18.5 7h354q11 0 17 -8t4 -17l-101 -701q-1 -11 -10.5 -18t-18.5 -7h-232q-11 0 -17 8t-4 17l71 493h-97q-11 0 -17 8t-4 17zM105 543h97q9 0 16 -7t6 -18l-71 -493h182l93 651h-304z" />
    <glyph glyph-name="two" unicode="2" horiz-adv-x="610" 
d="M14 0l21 145q1 9 9 17l280 253q49 46 54 72q1 3 1 5t-1.5 4t-6 2.5t-12.5 0.5q-70 0 -187 -84q-27 -18 -36 8l-62 167q-7 21 12 32q181 114 343 114q117 0 189 -58.5t58 -156.5q-15 -111 -180 -255l-72 -63h191q11 0 17.5 -8t4.5 -17l-26 -178q-1 -11 -10.5 -18t-18.5 -7
h-547q-11 0 -17 8t-4 17zM68 25h497l18 128h-227q-22 0 -25 10.5t5 21.5l9 11l121 106q147 129 160 219q11 71 -45.5 118t-158.5 47q-136 0 -293 -93l45 -121q116 77 192 77q30 0 48 -16.5t14 -45.5q-6 -45 -73 -106l-272 -246z" />
    <glyph glyph-name="three" unicode="3" horiz-adv-x="575" 
d="M-16 95l118 176q0 1 1 2t3.5 4.5t5 5.5t6.5 4t8 1.5t9 -3.5t9 -10q0 -1 2 -3t2 -3q-2 4 -2 14l17 121q1 10 11 18l100 84h-171q-11 0 -17 8t-4 17l24 168q1 11 10 18t18 7h494q11 0 17.5 -8t4.5 -17l-19 -130q-2 -11 -10 -18l-135 -114q68 -21 103.5 -77t23.5 -137
q-16 -114 -111.5 -186t-230.5 -72q-83 0 -159.5 26.5t-125.5 72.5q-15 13 -2 31zM38 90q43 -34 107.5 -54.5t132.5 -20.5q119 0 195.5 57.5t89.5 150.5q9 68 -21 111.5t-88 58.5l-29 7q-20 5 -21.5 15.5t6.5 18.5l9 8l164 138l13 94h-444l-17 -118h208q22 0 24.5 -11
t-5.5 -21l-8 -11l-142 -120l-13 -85h102q43 0 67 -22.5t18 -63.5t-36 -63.5t-73 -22.5q-89 0 -156 79zM151 265q57 -79 133 -79q29 0 39 7.5t13 28.5q3 20 -5 28t-37 8h-127q-9 0 -16 7z" />
    <glyph glyph-name="four" unicode="4" horiz-adv-x="664" 
d="M19 135l22 152q1 6 5 11l264 414q8 14 25 14h221q0 -1 4 0t9 -1t9 -5t3 -11t-8 -19l-143 -230h206q11 0 17.5 -8t4.5 -17l-16 -109h64q11 0 17 -8t4 -17l-24 -166q-1 -11 -10 -18t-18 -7h-64l-16 -110q-1 -11 -10.5 -18t-18.5 -7h-215q-11 0 -17 8t-4 17l16 110h-305
q-11 0 -17.5 8t-4.5 17zM73 160h305q9 0 15.5 -7t5.5 -18l-15 -110h165l15 110q2 9 10 17t19 8h64l17 116h-64q-9 0 -16 7t-6 18l16 109h-165l-16 -109q-2 -9 -9.5 -17t-18.5 -8h-95q-20 0 -24.5 9t0.5 18l6 9l227 364h-166l-252 -395zM347 326h30l9 64z" />
    <glyph glyph-name="five" unicode="5" horiz-adv-x="611" 
d="M-6 95l107 160q-10 1 -15 9t-4 16l61 421q1 11 10.5 18t18.5 7h489q11 0 17 -8t4 -17l-26 -178q-1 -11 -10 -18t-18 -7h-252l-4 -24h6q135 0 210 -63.5t60 -171.5q-18 -124 -118 -199t-243 -75q-79 0 -157 26.5t-133 71.5q-16 13 -3 32zM49 91q49 -34 115 -55t130 -21
q127 0 208.5 61t95.5 163q12 83 -48 134t-179 51h-31q-9 0 -15.5 7t-5.5 18l10 74q2 9 10 17t19 8h252l18 128h-439l-53 -371h172q44 0 69 -21t19 -61q-6 -41 -36.5 -64t-75.5 -23q-89 0 -153 79zM167 255q52 -69 124 -69q30 0 41 8t14 29q2 17 -6 24.5t-39 7.5h-134z" />
    <glyph glyph-name="six" unicode="6" horiz-adv-x="648" 
d="M59 343q26 176 142.5 284.5t282.5 108.5q68 0 134.5 -17.5t111.5 -48.5q8 -5 9 -15.5t-5 -17.5l-112 -162q-10 -13 -25 -13q54 -31 77.5 -90.5t12.5 -134.5q-18 -123 -112 -197.5t-227 -74.5q-158 0 -235.5 103.5t-53.5 274.5zM109 343q-22 -154 43.5 -241t202.5 -87
q116 0 191.5 60t90.5 162q10 65 -10.5 113t-66.5 72q-39 21 -95 21q-80 0 -134 -45q-20 -14 -28.5 -10t-10.5 16l-1 12q10 69 58 105.5t123 36.5t127 -34l79 115q-86 47 -201 47q-146 0 -246 -92.5t-122 -250.5zM285 237q6 41 35.5 64.5t72.5 23.5q42 0 63.5 -23.5
t15.5 -63.5q-6 -41 -35 -65t-71 -24q-43 0 -65 23.5t-16 64.5zM335 237q-3 -22 5 -30t34 -8t35.5 8t12.5 31q3 22 -4 29.5t-32 7.5q-27 0 -37.5 -8.5t-13.5 -29.5zM363 472q49 21 109 21q63 0 108 -22q-43 37 -115 37q-73 0 -102 -36z" />
    <glyph glyph-name="seven" unicode="7" horiz-adv-x="617" 
d="M79 523l26 178q1 11 10.5 18t18.5 7h579q11 0 17 -8t4 -17l-22 -155q0 -4 -4 -10l-320 -546q-8 -15 -25 -15h-245q0 1 -4 0t-8.5 1t-8.5 5t-3 10.5t7 18.5l285 488h-56l-11 -73q0 -2 -0.5 -4.5t-2.5 -9t-6 -9.5t-11.5 -5t-18.5 5l-190 98q-13 6 -11 23zM132 539l143 -74
l8 58q2 9 10 17t19 8h120q19 0 23.5 -8.5t-0.5 -17.5l-5 -9l-286 -488h190l308 526l18 125h-529z" />
    <glyph glyph-name="eight" unicode="8" horiz-adv-x="656" 
d="M28 195q8 55 43.5 104t87.5 80q-57 65 -46 143q14 99 103 156.5t217 57.5q129 0 201.5 -59.5t57.5 -161.5q-11 -75 -76 -136q40 -32 58 -79.5t11 -100.5q-15 -108 -116 -171t-246 -63t-227.5 61.5t-67.5 168.5zM78 195q-12 -80 54.5 -130t197.5 -50t212 51t93 133
q7 48 -13.5 90t-62.5 64q-17 11 -16.5 20.5t9.5 15.5l9 6q31 20 53.5 53.5t27.5 66.5q11 77 -45.5 124t-170.5 47q-113 0 -182.5 -45.5t-80.5 -118.5q-5 -33 10.5 -67.5t46.5 -58.5q15 -14 13 -23.5t-13 -14.5l-10 -6q-53 -22 -89 -65.5t-43 -91.5zM251 219q7 44 40 67
t82 23t76.5 -23.5t20.5 -66.5q-6 -43 -40 -65.5t-83 -22.5t-76 22.5t-20 65.5zM301 219q-3 -20 7.5 -29t45.5 -9t49.5 9.5t16.5 28.5q3 21 -8.5 30.5t-46.5 9.5t-48 -9.5t-16 -30.5zM304 503q6 39 36 60.5t72 21.5t66 -21.5t18 -60.5t-35.5 -59t-71.5 -20q-43 0 -67 20.5
t-18 58.5zM354 503q-2 -16 6 -22.5t36 -6.5t37.5 7t12.5 22q2 18 -5.5 25t-35.5 7t-38.5 -7t-12.5 -25z" />
    <glyph glyph-name="nine" unicode="9" horiz-adv-x="648" 
d="M15 64l112 162q10 13 26 13q-54 31 -78 90.5t-13 134.5q18 123 112 197.5t227 74.5q158 0 235.5 -103.5t53.5 -274.5q-26 -176 -142.5 -284.5t-282.5 -108.5q-68 0 -134.5 17.5t-111.5 48.5q-8 5 -9 15.5t5 17.5zM71 62q86 -47 201 -47q146 0 246 92.5t122 250.5
q22 154 -43.5 241t-202.5 87q-116 0 -191.5 -60t-90.5 -162q-10 -65 10.5 -113t66.5 -72q39 -21 95 -21q80 0 134 45q20 14 28.5 10t9.5 -16l2 -12q-10 -69 -58 -105.5t-123 -36.5t-127 34zM169 230q43 -37 115 -37q73 0 102 36q-50 -21 -109 -21q-63 0 -108 22zM277 463
q6 41 35 65t71 24q43 0 65 -23.5t16 -64.5t-35.5 -64.5t-72.5 -23.5q-42 0 -63.5 23.5t-15.5 63.5zM327 463q-3 -22 4 -29.5t32 -7.5q27 0 37.5 8.5t13.5 29.5q3 22 -5 30t-34 8t-35.5 -8t-12.5 -31z" />
    <glyph glyph-name="colon" unicode=":" horiz-adv-x="265" 
d="M19 95q8 55 49 91t96 36q56 0 87 -36t23 -91q-8 -56 -50 -92t-97 -36t-85.5 36.5t-22.5 91.5zM61 392q8 55 49.5 91t96.5 36q56 0 87 -36t23 -91q-8 -56 -50 -92t-97 -36t-86 36.5t-23 91.5zM69 95q-5 -36 12.5 -57t52.5 -21q36 0 60.5 21t29.5 57q5 35 -13 56t-54 21
q-35 0 -59 -21t-29 -56zM111 392q-5 -36 13 -57t53 -21q36 0 60 21t29 57q5 35 -12.5 56t-53.5 21q-35 0 -59.5 -21t-29.5 -56z" />
    <glyph glyph-name="semicolon" unicode=";" horiz-adv-x="265" 
d="M-20 -101l61 110q-28 32 -21 86q8 55 49.5 91t96.5 36q52 0 85 -34t24 -92q-7 -49 -45 -94l-105 -126q-9 -11 -22 -11h-104q0 1 -4 0t-8.5 1t-8.5 4.5t-4 10t6 18.5zM43 -85h54l96 115q26 31 32 66q5 37 -13.5 56.5t-52.5 19.5q-35 0 -59.5 -21t-29.5 -56q-6 -38 19 -57
q16 -10 5 -30zM61 392q8 55 49.5 91t96.5 36t86 -36t23 -91q-8 -56 -49.5 -92t-96.5 -36t-86 36.5t-23 91.5zM111 392q-5 -36 13 -57t53 -21q36 0 60 21t29 57q5 35 -12.5 56t-53.5 21q-35 0 -59.5 -21t-29.5 -56z" />
    <glyph glyph-name="less" unicode="&#x3c;" horiz-adv-x="520" 
d="M39 234l25 178q2 15 19 23l487 185l4 2t8.5 1.5t10.5 -1t7 -8t1 -17.5l-22 -156q-2 -16 -20 -23l-267 -95l240 -95q15 -7 13 -23l-23 -156q0 -2 -0.5 -4t-3 -8.5t-6 -9t-11 -5t-17.5 3.5l-433 185q-14 6 -12 23zM91 251l386 -165l15 102l-284 112q-19 9 -17.5 19.5
t13.5 18.5l11 8l316 112l15 102l-434 -165z" />
    <glyph glyph-name="equal" unicode="=" horiz-adv-x="520" 
d="M26 149l21 140q1 11 10 18t18 7h460q11 0 17.5 -8t4.5 -17l-21 -140q-1 -11 -10 -18t-18 -7h-460q-11 0 -17.5 8t-4.5 17zM58 369l20 140q1 11 10.5 18t18.5 7h460q11 0 17 -8t4 -17l-20 -140q-1 -11 -10 -18t-18 -7h-460q-11 0 -17.5 8t-4.5 17zM80 174h410l13 90h-410z
M112 394h410l13 90h-410z" />
    <glyph glyph-name="greater" unicode="&#x3e;" horiz-adv-x="520" 
d="M14 59l22 156q2 16 20 23l267 95l-240 95q-15 7 -13 23l22 156q0 2 0.5 4t3 8.5t6 9t11 5t17.5 -3.5l433 -185q15 -7 13 -23l-26 -178q-2 -15 -19 -23l-487 -185q-1 -1 -3.5 -2t-8.5 -1.5t-10 1t-7 8t-1 17.5zM69 96l434 165l20 144l-386 165l-15 -102l284 -112
q19 -9 17.5 -19.5t-13.5 -18.5l-11 -8l-316 -112z" />
    <glyph glyph-name="question" unicode="?" horiz-adv-x="498" 
d="M42 455q19 130 102.5 205.5t209.5 75.5q116 0 177.5 -54.5t47.5 -152.5q-7 -46 -28 -84.5t-46.5 -63.5t-50.5 -46t-43.5 -42.5t-21.5 -42.5q-1 -11 -10.5 -18t-18.5 -7h-167q-11 0 -17 8t-4 17q8 56 31.5 99.5t47 65t44 42t22.5 35.5q2 13 0 15t-17 2t-23 -9.5t-13 -44.5
q-1 -11 -10.5 -18t-18.5 -7h-172q-11 0 -17 8t-4 17zM96 480h122q9 36 32.5 57.5t57.5 21.5q30 0 46.5 -18.5t12.5 -48.5q-5 -32 -24 -59.5t-41 -44.5t-44 -47t-31 -66h118q11 31 32.5 58t44.5 46.5t45.5 40t39.5 48.5t22 61q11 75 -35 116t-147 41t-165.5 -53t-85.5 -153z
M128 95q8 55 49 91t96 36q56 0 87 -36t23 -91q-8 -56 -50 -92t-97 -36t-85.5 36.5t-22.5 91.5zM178 95q-5 -36 12.5 -57t52.5 -21q36 0 60.5 21t29.5 57q5 35 -13 56t-54 21q-35 0 -59 -21t-29 -56z" />
    <glyph glyph-name="at" unicode="@" horiz-adv-x="865" 
d="M29 268q28 190 177.5 322.5t336.5 132.5q186 0 293 -127.5t79 -319.5q-17 -117 -88.5 -192.5t-167.5 -75.5h-13l29 -64q9 -19 -10 -32q-53 -38 -125.5 -60t-136.5 -22q-186 0 -293.5 125t-80.5 313zM79 268q-24 -167 70.5 -277.5t260.5 -110.5q49 0 107.5 16t102.5 42
l-19 43q-88 -52 -184 -52q-140 0 -220.5 97.5t-59.5 241.5q21 147 136 251.5t256 104.5q152 0 227 -100q73 -96 51 -251q-10 -72 -43.5 -124t-78.5 -52q-18 0 -30 9q-22 17 -15 60l43 300h-85l-2 -16q-3 -21 -14.5 -25t-21.5 2l-10 6q-4 6 -11.5 14t-30 19.5t-48.5 11.5
q-74 0 -129 -59t-68 -148q-13 -90 34 -146.5t119 -56.5q68 0 120 60q17 18 26.5 16t13.5 -12l3 -11l1 -7q6 -41 51 -52q20 -4 35 -4q72 0 128 58.5t71 159.5q25 172 -69 284.5t-260 112.5t-299 -117.5t-158 -287.5zM187 268q-18 -124 50 -206.5t187 -82.5q83 0 158 45
q-29 16 -42 43q-59 -49 -131 -49q-92 0 -152 72t-44 181q15 105 85.5 181t168.5 76q51 0 88 -27q10 15 25 15h110q-63 58 -168 58q-120 0 -218.5 -90t-116.5 -216zM362 276q8 50 38.5 89t76.5 39q49 0 70.5 -38.5t14.5 -90.5q-8 -54 -40 -95t-82 -41q-48 0 -67 42t-11 95z
M412 276q-6 -40 5 -63.5t30 -23.5q22 0 40.5 23t24.5 63q5 37 -7 58t-35 21q-18 0 -35.5 -21.5t-22.5 -56.5zM690 147h2q5 0 17 12t27 43t21 71q15 110 -25 188l-42 -295v-19z" />
    <glyph glyph-name="A" unicode="A" horiz-adv-x="799" 
d="M-32 10l397 701q8 15 26 15h238q17 0 21 -16l184 -701q0 -1 1 -3.5t0.5 -8.5t-2.5 -10.5t-9.5 -8t-18.5 -3.5h-247q-17 0 -21 17l-17 82h-228l-42 -83q-8 -16 -26 -16h-238q0 1 -4 0t-8.5 1t-8.5 5t-3.5 10.5t6.5 18.5zM31 25h183l42 83q8 16 26 16h263q18 0 21 -17
l17 -82h192l-170 651h-205zM340 273l103 205q6 12 13.5 16.5t13 2.5t10.5 -6t8 -9l3 -4l42 -205q4 -16 -3 -24.5t-16 -8.5h-9h-146q-17 0 -22 8t-1 16zM401 290h76l-22 105z" />
    <glyph glyph-name="B" unicode="B" horiz-adv-x="724" 
d="M25 0l101 701q1 11 10.5 18t18.5 7h355q134 0 211 -54t63 -148t-102 -148q44 -27 63.5 -74t11.5 -105q-15 -103 -109.5 -162.5t-229.5 -59.5h-372q-11 0 -17 8t-4 17zM79 25h347q122 0 196 47.5t85 124.5q8 58 -18.5 99.5t-78.5 53.5q-10 3 -13.5 8.5t-1 12t7 13
t8.5 10.5l4 4q49 14 81 48.5t38 77.5q9 66 -51.5 109t-180.5 43h-330zM280 170l16 107q2 9 10 17t19 8h111q40 0 65 -20t20 -56q-5 -37 -36.5 -59t-71.5 -22h-111q-9 0 -16 7t-6 18zM318 431l15 100q2 9 9.5 17t18.5 8h111q33 0 52 -20.5t15 -53.5t-29.5 -54.5t-58.5 -21.5
h-111q-9 0 -16 7t-6 18zM334 195h86q47 0 51 31q2 10 -8 18t-35 8h-86zM372 456h86q28 0 31 26q3 24 -24 24h-86z" />
    <glyph glyph-name="C" unicode="C" horiz-adv-x="688" 
d="M41 352q24 165 155 273t305 108q86 0 166 -36.5t128 -99.5q13 -16 -4 -33l-157 -159q-3 -4 -8.5 -7.5t-15 -3t-15.5 11.5q-23 38 -58 61t-68 23q-52 0 -91.5 -37t-48.5 -98t19.5 -99t80.5 -38q31 0 73.5 19.5t78.5 52.5q8 7 18 7.5t18 -7.5l113 -143q5 -7 4 -17t-8 -17
q-72 -68 -165 -108t-180 -40q-171 0 -267.5 110t-72.5 277zM91 352q-21 -147 62.5 -242t234.5 -95q70 0 147 31t140 84l-85 107q-88 -69 -168 -69q-74 0 -114 53.5t-29 133.5q11 79 67 132t130 53q85 0 147 -80l118 119q-43 47 -111 75.5t-137 28.5q-155 0 -268 -93.5
t-134 -237.5z" />
    <glyph glyph-name="D" unicode="D" horiz-adv-x="759" 
d="M25 0l101 701q1 11 10.5 18t18.5 7h313q182 0 279.5 -102.5t72.5 -272.5t-154 -273t-316 -103h-304q-11 0 -17 8t-4 17zM79 25h279q169 0 279.5 88.5t132.5 237.5t-61.5 237t-248.5 88h-288zM283 180l49 341q2 9 10 17t19 8h76q78 0 117.5 -55t27.5 -142
q-12 -85 -64 -139.5t-127 -54.5h-87q-9 0 -15.5 7t-5.5 18zM337 205h62q51 0 87 37.5t46 106.5t-18 108t-85 39h-51z" />
    <glyph glyph-name="E" unicode="E" 
d="M25 0l101 701q1 11 10.5 18t18.5 7h593q11 0 17 -8t4 -17l-25 -176q-1 -11 -10.5 -18t-18.5 -7h-336l-5 -36h303q11 0 17 -8t4 -17l-25 -176q-1 -11 -10.5 -18t-18.5 -7h-303l-5 -37h345q11 0 17 -8t4 -17l-25 -176q-1 -11 -10.5 -18t-18.5 -7h-602q-11 0 -17 8t-4 17z
M79 25h552l18 126h-345q-9 0 -16 7t-6 18l13 87q2 9 10 17t19 8h303l18 126h-303q-9 0 -16 7t-6 18l13 86q2 9 9.5 17t18.5 8h336l18 126h-543z" />
    <glyph glyph-name="F" unicode="F" horiz-adv-x="631" 
d="M25 0l101 701q1 11 10.5 18t18.5 7h564q11 0 17 -8t4 -17l-25 -176q-1 -11 -10.5 -18t-18.5 -7h-307l-10 -71h286q11 0 17 -8t4 -17l-25 -176q-1 -11 -10.5 -18t-18.5 -7h-286l-29 -203q-1 -11 -10.5 -18t-18.5 -7h-232q-11 0 -17 8t-4 17zM79 25h182l29 203q2 9 10 17
t18 8h286l19 126h-286q-9 0 -16 7t-6 18l18 121q2 9 9.5 17t18.5 8h307l18 126h-514z" />
    <glyph glyph-name="G" unicode="G" horiz-adv-x="738" 
d="M40 350q24 166 159.5 274.5t316.5 108.5q87 0 169 -30.5t134 -83.5q7 -7 6 -17t-9 -18l-153 -159q-20 -20 -37 -2q-27 30 -67.5 48.5t-78.5 18.5q-57 0 -100 -39t-52 -101q-9 -63 23 -102.5t90 -39.5q24 0 69 15l21 146q1 11 10.5 18t18.5 7h199q11 0 17 -8t4 -17
l-41 -289q-2 -13 -15 -21q-68 -42 -161 -68t-173 -26q-174 0 -274 109.5t-76 275.5zM90 350q-21 -146 65 -240.5t242 -94.5q67 0 149.5 22t144.5 57l36 250h-149l-20 -138q-2 -16 -19 -23q-63 -25 -105 -25q-79 0 -123.5 55t-32.5 137q11 81 71 135.5t138 54.5q90 0 161 -63
l116 119q-47 39 -116.5 63t-139.5 24q-163 0 -280 -94t-138 -239z" />
    <glyph glyph-name="H" unicode="H" horiz-adv-x="781" 
d="M25 0l101 701q1 11 10.5 18t18.5 7h232q11 0 17 -8t4 -17l-36 -247h167l36 247q1 11 10.5 18t18.5 7h232q11 0 17 -8t4 -17l-101 -701q-1 -11 -10.5 -18t-18.5 -7h-232q-11 0 -17 8t-4 17l33 228h-167l-33 -228q-1 -11 -10.5 -18t-18.5 -7h-232q-11 0 -17 8t-4 17zM79 25
h182l32 228q2 9 10 17t19 8h217q9 0 15.5 -7t5.5 -18l-32 -228h182l93 651h-182l-35 -247q-2 -9 -10 -17t-19 -8h-217q-9 0 -15.5 7t-5.5 18l35 247h-182z" />
    <glyph glyph-name="I" unicode="I" horiz-adv-x="332" 
d="M25 0l101 701q1 11 10.5 18t18.5 7h232q11 0 17 -8t4 -17l-101 -701q-1 -11 -10.5 -18t-18.5 -7h-232q-11 0 -17 8t-4 17zM79 25h182l93 651h-182z" />
    <glyph glyph-name="J" unicode="J" horiz-adv-x="569" 
d="M-13 95q-11 15 3 31l126 150q21 25 39 4q30 -36 63 -54t55 -18q15 0 22.5 6.5t10.5 27.5l66 459q1 11 10.5 18t18.5 7h233q11 0 17 -8t4 -17l-67 -464q-19 -127 -108 -199.5t-220 -72.5q-173 0 -273 130zM41 114q85 -99 226 -99q113 0 184 57.5t87 164.5l63 439h-183
l-62 -434q-5 -38 -30.5 -61t-59.5 -23q-67 0 -133 66z" />
    <glyph glyph-name="K" unicode="K" horiz-adv-x="773" 
d="M25 0l101 701q1 11 10.5 18t18.5 7h232q11 0 17 -8t4 -17l-25 -176l192 192q9 9 21 9h267q2 0 5 -0.5t9.5 -3.5t9.5 -7t1 -12.5t-13 -18.5l-276 -268l197 -403v-1q1 -1 2 -3.5t1.5 -5t1 -6t-0.5 -6.5t-3 -6t-5.5 -5t-9 -3.5t-13.5 -1.5h-277q-14 0 -19 12l-98 212
l-46 -44l-22 -155q-1 -11 -10.5 -18t-18.5 -7h-232q-11 0 -17 8t-4 17zM79 25h182l20 140q2 10 9 17l78 76q26 25 40 -4l106 -229h217l-186 381q-8 17 7 30l248 240h-200l-235 -234q-18 -16 -27.5 -12.5t-11.5 16.5l-3 12l31 218h-182z" />
    <glyph glyph-name="L" unicode="L" horiz-adv-x="584" 
d="M25 0l101 701q1 11 10.5 18t18.5 7h232q11 0 17 -8t4 -17l-70 -483h267q11 0 17.5 -8t4.5 -17l-28 -193q-1 -11 -10.5 -18t-18.5 -7h-524q-11 0 -17 8t-4 17zM79 25h474l20 143h-267q-9 0 -15.5 7t-5.5 18l69 483h-182z" />
    <glyph glyph-name="M" unicode="M" horiz-adv-x="896" 
d="M25 0l101 701q1 11 10.5 18t18.5 7h245q16 0 20 -15l86 -311l174 311q8 15 26 15h245q11 0 17 -8t4 -17l-101 -701q-1 -11 -10.5 -18t-18.5 -7h-202q-11 0 -17 8t-4 17l36 248l-99 -189q-8 -16 -26 -16h-152q-17 0 -21 16l-44 189l-36 -248q-1 -11 -10.5 -18t-18.5 -7
h-202q-11 0 -17 8t-4 17zM79 25h152l51 359q2 13 14.5 15.5t23.5 -1.5l12 -5l71 -300h117l157 300q8 12 18.5 10t19.5 -11l9 -8l-51 -359h152l93 651h-203l-197 -351q-12 -20 -23.5 -20t-16.5 10l-6 10l-96 351h-204z" />
    <glyph glyph-name="N" unicode="N" horiz-adv-x="781" 
d="M25 0l101 701q1 11 10.5 18t18.5 7h194q12 0 18 -10l189 -302l41 287q1 11 10.5 18t18.5 7h210q11 0 17 -8t4 -17l-101 -701q-1 -11 -10.5 -18t-18.5 -7h-194q-12 0 -18 10l-188 300l-41 -285q-1 -11 -10.5 -18t-18.5 -7h-211q-11 0 -17 8t-4 17zM79 25h161l48 333
q3 20 15 24t22 -2l10 -7l218 -348h157l93 651h-160l-48 -335q-3 -20 -15 -24t-22 3l-10 6l-219 350h-157z" />
    <glyph glyph-name="O" unicode="O" horiz-adv-x="800" 
d="M41 351q24 167 156 274.5t309 107.5t278 -108t77 -274q-24 -167 -156.5 -276.5t-309.5 -109.5t-277.5 109t-76.5 277zM91 351q-21 -146 66 -241t245 -95t273 95.5t136 240.5q21 144 -67 238t-246 94t-272 -93.5t-135 -238.5zM278 350q12 80 71 135t132 55q72 0 112 -54.5
t29 -135.5t-67.5 -136.5t-128.5 -55.5q-73 0 -116.5 56t-31.5 136zM328 350q-9 -61 23 -101.5t82 -40.5q49 0 89.5 40t49.5 102t-20 101t-78 39q-51 0 -94 -39.5t-52 -100.5z" />
    <glyph glyph-name="P" unicode="P" horiz-adv-x="686" 
d="M25 0l101 701q1 11 10.5 18t18.5 7h329q145 0 218 -73t54 -203q-19 -137 -114 -215t-240 -78h-72l-23 -157q-1 -11 -10.5 -18t-18.5 -7h-232q-11 0 -17 8t-4 17zM79 25h182l22 157q2 9 10 17t19 8h97q128 0 204 62.5t93 180.5q16 109 -43 167.5t-187 58.5h-304zM309 358
l24 167q2 9 9.5 17t18.5 8h85q47 0 71.5 -29.5t17.5 -77.5q-7 -49 -39.5 -79.5t-80.5 -30.5h-85q-9 0 -15.5 7t-5.5 18zM362 383h60q55 0 63 60q9 57 -46 57h-60z" />
    <glyph glyph-name="Q" unicode="Q" horiz-adv-x="797" 
d="M41 351q24 167 156 274.5t309 107.5t278 -108t77 -274q-16 -109 -81.5 -196.5t-163.5 -137.5q5 -2 12 -2q39 0 104 43q25 16 35 -8l57 -137q7 -17 -10 -31q-50 -39 -116 -61.5t-126 -22.5q-83 0 -142 46t-80 123q-158 14 -244.5 121t-64.5 263zM91 351
q-20 -140 59.5 -233.5t225.5 -101.5q16 -2 19 -16q15 -70 64 -111t120 -41q100 0 190 59l-39 95q-64 -37 -109 -37t-72 43q-4 10 -4.5 16.5t5.5 12t9 7t6 2.5q99 39 165 120t81 185q21 144 -67 238t-246 94t-272 -93.5t-135 -238.5zM278 350q12 80 71 135t132 55
q72 0 112 -54.5t29 -135.5t-67.5 -136.5t-128.5 -55.5q-73 0 -116.5 56t-31.5 136zM328 350q-9 -61 23 -101.5t82 -40.5q49 0 89.5 40t49.5 102t-20 101t-78 39q-51 0 -94 -39.5t-52 -100.5z" />
    <glyph glyph-name="R" unicode="R" horiz-adv-x="725" 
d="M25 0l101 701q1 11 10.5 18t18.5 7h339q151 0 227 -72.5t57 -203.5q-21 -150 -136 -229l96 -208v-1q1 -1 2 -3.5t1.5 -5t0.5 -6t-0.5 -6.5t-2.5 -6t-5.5 -5t-9 -3.5t-13.5 -1.5h-262q-16 0 -20 15l-53 167h-46l-23 -157q-1 -11 -10.5 -18t-18.5 -7h-232q-11 0 -17 8
t-4 17zM79 25h182l22 157q2 9 10 17t19 8h87q15 0 20 -15l54 -167h201l-87 190q-4 8 -0.5 18.5t13.5 15.5q107 61 128 201q16 109 -45.5 167.5t-196.5 58.5h-314zM309 358l24 167q2 9 9.5 17t18.5 8h107q47 0 71.5 -29.5t17.5 -77.5q-7 -49 -39.5 -79.5t-80.5 -30.5h-107
q-9 0 -15.5 7t-5.5 18zM362 383h82q55 0 63 60q9 57 -46 57h-82z" />
    <glyph glyph-name="S" unicode="S" horiz-adv-x="664" 
d="M2 116l111 174q19 28 40 8q43 -41 115.5 -72t120.5 -31q33 0 33 11q1 7 -10.5 12t-32 9.5t-47 10t-55.5 14t-57.5 20t-53 30t-42 43t-24.5 60t-1 78.5q17 117 117 185t244 68q86 0 167 -23.5t139 -63.5q17 -12 5 -32l-110 -176q-6 -9 -16 -13t-20 2q-50 30 -115.5 54.5
t-102.5 24.5q-12 0 -18 -3v-1q-1 -6 10.5 -11t32 -9.5t47 -10t55 -15t57 -21.5t53 -32t41.5 -45t24 -62t1 -81q-18 -124 -120 -187t-236 -63q-97 0 -190.5 31t-158.5 86q-15 13 -3 31zM56 113q58 -44 140.5 -69.5t165.5 -25.5q120 0 202 51t96 149q8 54 -13.5 92t-59.5 55.5
t-82.5 32t-83.5 24.5t-63 31t-19 52q4 20 13 30q21 24 63 24q85 0 219 -73l82 132q-114 68 -263 68q-129 0 -209.5 -55t-94.5 -148q-6 -45 9 -78t44.5 -50.5t66.5 -30t74.5 -22t68 -20t47.5 -29.5t13 -47q-5 -32 -31.5 -46.5t-58.5 -14.5q-54 0 -122.5 27t-121.5 69z" />
    <glyph glyph-name="T" unicode="T" horiz-adv-x="641" 
d="M55 518l26 183q1 11 10.5 18t18.5 7h631q11 0 17 -8t4 -17l-26 -183q-1 -11 -10.5 -18t-18.5 -7h-175l-71 -493q-1 -11 -10.5 -18t-18.5 -7h-232q-11 0 -17 8t-4 17l71 493h-174q-11 0 -17 8t-4 17zM108 543h174q9 0 16 -7t6 -18l-71 -493h182l71 493q2 9 10 17t18 8h175
l19 133h-581z" />
    <glyph glyph-name="U" unicode="U" horiz-adv-x="753" 
d="M58 297l58 404q1 11 10.5 18t18.5 7h232q11 0 17 -8t4 -17l-58 -404q-6 -41 15 -65t55 -24q33 0 58 23.5t31 65.5l58 404q1 11 10.5 18t18.5 7h232q11 0 17 -8t4 -17l-58 -404q-22 -150 -134 -241t-273 -91q-162 0 -250 91t-66 241zM108 297q-19 -129 55 -205.5
t218 -76.5q143 0 237 76.5t113 205.5l54 379h-182l-54 -379q-9 -61 -50.5 -100t-95.5 -39q-55 0 -88.5 39.5t-24.5 99.5l54 379h-182z" />
    <glyph glyph-name="V" unicode="V" horiz-adv-x="764" 
d="M71 692q-1 4 -2 9.5t6 15t25 9.5h248q18 0 21 -17l66 -385l175 384q8 18 27 18h237q0 -1 4 0t8.5 -1t8 -5t3.5 -10.5t-6 -17.5l-369 -701q-8 -16 -26 -16h-240q-17 0 -21 16zM129 676l153 -651h205l343 651h-182l-202 -442q-8 -19 -20 -19t-20 9l-8 9l-76 443h-193z" />
    <glyph glyph-name="W" unicode="W" horiz-adv-x="1121" 
d="M71 693v2q0 2 -0.5 4t0 5t1.5 6t3 6t5 5t8.5 3.5t11.5 1.5h248q19 0 21 -19l31 -354l130 353q6 19 27 19l227 1q19 0 21 -19l31 -354l130 354q6 19 28 19h237h3.5t8 -1t8 -4.5t4 -10t-4.5 -17.5l-330 -701q-8 -17 -27 -17h-239q-19 0 -21 19l-28 316l-121 -316
q-6 -19 -27 -19h-239q-17 0 -21 17zM127 676l117 -651h201l153 400q6 16 18 16t22 -8l9 -8l34 -400h201l307 651h-183l-163 -441q-6 -15 -18 -15t-21 8l-9 7l-38 441l-187 -1l-163 -440q-6 -15 -18 -15t-21 8l-9 7l-38 441h-194z" />
    <glyph glyph-name="X" unicode="X" horiz-adv-x="773" 
d="M-24 14l286 342l-174 331q-1 2 -2 4.5t-2 9t0.5 12t9.5 9.5t21 4h270q14 0 19 -12l62 -130l100 130q10 12 23 12h273h5t9.5 -2t9.5 -6t1.5 -12t-10.5 -19l-264 -320l188 -353q1 -2 2 -4.5t2.5 -9t-0.5 -12t-9.5 -9.5t-21.5 -4h-278q-14 0 -19 11l-75 149l-117 -148
q-10 -12 -23 -12h-271h-5t-9.5 2t-9.5 6t-1.5 12t10.5 19zM46 25h210l133 169q13 16 23.5 16t14.5 -8l4 -7l86 -170h218l-175 328q-7 14 4 28l243 295h-212l-116 -153q-13 -17 -23.5 -17t-15.5 8l-4 9l-73 153h-209l161 -306q7 -14 -4 -28z" />
    <glyph glyph-name="Y" unicode="Y" horiz-adv-x="719" 
d="M67 689l-2 4t-1.5 8.5t1.5 11.5t9.5 9t20.5 4h231q15 0 20 -13l86 -227l146 226q9 14 25 14h231q0 -1 4.5 0t9.5 -1t9 -5t3 -11.5t-9 -19.5l-317 -477l-31 -212q-1 -11 -10.5 -18t-18.5 -7h-232q-11 0 -17 8t-4 17l30 207zM129 676l172 -451q2 -7 1 -12l-27 -188h182
l27 193q1 4 5 12l296 446h-174l-166 -256q-12 -20 -23.5 -20t-16.5 10l-5 9l-97 257h-174z" />
    <glyph glyph-name="Z" unicode="Z" horiz-adv-x="683" 
d="M-5 0l21 145q2 10 8 16l340 337h-260q-11 0 -17.5 8t-4.5 17l26 178q1 11 10.5 18t18.5 7h624q11 0 17 -8t4 -17l-21 -145q-2 -10 -8 -16l-340 -337h279q11 0 17.5 -8t4.5 -17l-26 -178q-1 -11 -10.5 -18t-18.5 -7h-643q-11 0 -17 8t-4 17zM49 25h593l18 128h-309
q-22 0 -25 10.5t4 20.5l8 10l374 371l16 111h-574l-18 -128h290q22 0 25 -10t-5 -20l-7 -11l-374 -371z" />
    <glyph glyph-name="bracketleft" unicode="[" horiz-adv-x="377" 
d="M7 -124l125 866q1 11 10.5 18t18.5 7h317q11 0 17 -8t4 -17l-24 -166q-1 -11 -10.5 -18t-18.5 -7h-92l-69 -484h92q11 0 17 -8t4 -17l-24 -166q-1 -11 -10 -18t-18 -7h-317q-11 0 -17.5 8t-4.5 17zM61 -99h267l16 116h-92q-9 0 -15.5 7t-5.5 18l77 534q2 9 10 17t19 8h92
l16 116h-267z" />
    <glyph glyph-name="backslash" unicode="\" horiz-adv-x="373" 
d="M-3 798q0 1 -0.5 3.5t-0.5 8t2.5 10t9.5 8t18 3.5h188q17 0 21 -17l198 -910q0 -1 0.5 -3.5t0.5 -8t-2.5 -10t-9.5 -8t-18 -3.5h-188q-17 0 -21 17zM54 781l187 -860h135l-187 860h-135z" />
    <glyph glyph-name="bracketright" unicode="]" horiz-adv-x="397" 
d="M-13 -124l24 166q1 11 10.5 18t18.5 7h92l69 484h-92q-11 0 -17 8t-4 17l24 166q1 11 10.5 18t18.5 7h317q11 0 17 -8t4 -17l-125 -866q-1 -11 -10 -18t-18 -7h-317q-11 0 -17.5 8t-4.5 17zM41 -99h267l117 816h-267l-16 -116h92q9 0 15.5 -7t5.5 -18l-77 -534
q-2 -9 -10 -17t-19 -8h-92z" />
    <glyph glyph-name="asciicircum" unicode="^" horiz-adv-x="608" 
d="M30 154l239 380q8 14 25 14h178q15 0 20 -14l131 -380q2 -4 3.5 -10t-5 -16t-26.5 -10h-156q-17 0 -21 15l-65 210l-125 -210q-10 -15 -25 -15h-156q0 1 -4 0t-9 1t-9 5t-3 11t8 19zM94 168h100l147 246q8 13 15 17.5t12.5 2t9.5 -6.5t6 -9l2 -4l76 -246h100l-113 330
h-147z" />
    <glyph glyph-name="underscore" unicode="_" horiz-adv-x="599" 
d="M-54 -204l17 120q1 11 10 18t18 7h599q11 0 17.5 -8t4.5 -17l-17 -120q-1 -11 -10.5 -18t-18.5 -7h-599q-11 0 -17 8t-4 17zM-1 -179h549l10 70h-549z" />
    <glyph glyph-name="grave" unicode="`" horiz-adv-x="350" 
d="M111 702l-3 3t-4.5 7.5t-2 10.5t6.5 11t19 10l198 60q20 7 28 -12l80 -189l2 -4t2 -8.5t-1 -11.5t-9.5 -9t-20.5 -4h-160q-10 0 -17 7zM177 709l86 -93h107l-57 134z" />
    <glyph glyph-name="a" unicode="a" horiz-adv-x="613" 
d="M13 162q8 59 41.5 102.5t88.5 65.5q-13 3 -16 16l-28 150q-2 10 3.5 19t15.5 12q157 55 287 55q127 0 193.5 -60t50.5 -168l-51 -354q-1 -11 -10.5 -18t-18.5 -7h-221q-11 0 -17 8t-4 17q-110 -35 -134 -35q-95 0 -144 54.5t-36 142.5zM63 162q-10 -69 25 -108t112 -39
q91 0 142 59q16 16 25.5 12.5t14.5 -15.5l4 -12l-5 -34h171l47 329q12 85 -39 131.5t-162 46.5q-108 0 -245 -43l19 -103q3 0 7 2q87 26 148 26q48 0 75 -21.5t22 -62.5q-1 -11 -9.5 -18.5t-18.5 -7.5h-125q-44 0 -84 -10q-109 -28 -124 -132zM224 350q34 4 54 4h87
q-15 10 -46 10q-36 0 -95 -14zM227 181q4 31 27.5 50t55.5 19h78q9 0 15.5 -7t5.5 -18l-7 -50q-2 -9 -6 -14q-42 -53 -104 -53q-33 0 -51 20.5t-14 52.5zM277 181q-2 -13 2.5 -18t19.5 -5q29 0 54 25l3 17h-53q-15 0 -19.5 -3.5t-6.5 -15.5z" />
    <glyph glyph-name="b" unicode="b" 
d="M35 0l107 742q1 11 10.5 18t18.5 7h225q11 0 17 -8t4 -17l-28 -195q55 33 119 33q124 0 187.5 -86t43.5 -224q-20 -135 -106 -219t-208 -84q-67 0 -115 34v-1q-1 -11 -10.5 -18t-18.5 -7h-225q-11 0 -17 8t-4 17zM89 25h175l4 31q3 21 14.5 25t21.5 -3l10 -6
q40 -55 118 -55q101 0 170.5 67.5t86.5 185.5q17 121 -34 190.5t-155 69.5q-74 0 -127 -54q-18 -15 -27 -11.5t-12 15.5l-3 12l32 225h-175zM300 276q8 55 42 93t83 38t72.5 -37.5t15.5 -93.5t-42.5 -93.5t-83.5 -37.5t-72 38t-15 93zM350 276q-6 -41 6.5 -61t37.5 -20
t44 20.5t25 60.5t-7.5 60.5t-38.5 20.5t-43 -20t-24 -61z" />
    <glyph glyph-name="c" unicode="c" horiz-adv-x="561" 
d="M29 271q20 139 119.5 224t239.5 85q95 0 163 -45.5t93 -127.5q3 -9 -2 -19t-15 -14l-190 -76q-24 -9 -31 13q-10 37 -42 37q-20 0 -36 -18.5t-22 -57.5t5 -58t31 -19q31 0 49 41q13 28 37 16l170 -84q20 -10 8 -33q-44 -80 -126.5 -124t-182.5 -44q-140 0 -213.5 84
t-54.5 220zM79 271q-17 -117 43.5 -185.5t181.5 -68.5q80 0 143 30.5t102 85.5l-126 62q-34 -50 -88 -50q-46 0 -66.5 36.5t-12.5 90.5q8 53 38.5 89.5t76.5 36.5q52 0 75 -45l142 57q-25 57 -79 88.5t-129 31.5q-122 0 -203 -70t-98 -189z" />
    <glyph glyph-name="d" unicode="d" 
d="M30 277q20 135 106 219t208 84q67 0 115 -34l28 196q1 11 10.5 18t18.5 7h225q11 0 17 -8t4 -17l-107 -742q-1 -11 -10.5 -18t-18.5 -7h-225q-10 0 -16 7.5t-5 17.5q-56 -33 -119 -33q-124 0 -187.5 86t-43.5 224zM80 277q-17 -121 34 -190.5t154 -69.5q76 0 128 54
q18 15 27 11.5t12 -15.5l3 -12l-4 -30h175l99 692h-175l-32 -226q-3 -21 -14.5 -25t-21.5 2l-10 7q-40 55 -119 55q-101 0 -170 -67.5t-86 -185.5zM256 271q8 56 42.5 93.5t83.5 37.5t72 -38t15 -93t-42 -93t-83 -38t-72.5 37.5t-15.5 93.5zM306 271q-6 -40 7 -60.5
t38 -20.5t43.5 20t24.5 61t-6.5 61t-37.5 20t-44 -20.5t-25 -60.5z" />
    <glyph glyph-name="e" unicode="e" horiz-adv-x="614" 
d="M29 271q20 140 120 224.5t242 84.5q4 0 12 -0.5t12 -0.5q142 -8 207 -105.5t33 -251.5q-2 -10 -10.5 -17t-17.5 -7h-110l77 -88q6 -8 5 -18t-9 -17q-113 -108 -282 -108q-148 0 -223.5 83t-55.5 221zM79 271q-17 -118 44.5 -186t191.5 -68q132 0 224 75l-71 81
q-59 -40 -116 -40q-41 0 -68 21.5t-35 60.5q-3 16 4 24.5t16 8.5h9h332q20 132 -40 207t-187 75q-123 0 -205 -70t-99 -189zM260 332q14 42 43 70t68 28q41 0 62 -31t12 -74q-2 -9 -10 -16t-18 -7h-136q-30 0 -21 30zM315 198q15 -15 44 -15q27 0 59 15h-103zM322 352h74
q-5 28 -32 28q-25 0 -42 -28z" />
    <glyph glyph-name="f" unicode="f" horiz-adv-x="426" 
d="M49 375l21 142q1 11 10 18t18 7h50l4 24q14 97 92 154.5t190 56.5q112 0 185 -42q19 -10 6 -33l-98 -154q-4 -6 -10 -10q10 -9 8 -21l-21 -142q-1 -11 -10.5 -18t-18.5 -7h-81l-50 -350q-1 -11 -10.5 -18t-18.5 -7h-224q-11 0 -17 8t-4 17l50 350h-50q-11 0 -17 8t-4 17z
M103 400h50q9 0 15.5 -7t5.5 -18l-50 -350h174l50 350q2 9 10 17t19 8h81l13 92h-81q-9 0 -15.5 7t-5.5 18l2 15q4 32 28.5 52t58.5 19q17 0 42 -10l68 108q-62 26 -141 26q-95 1 -154.5 -43t-70.5 -118l-7 -49q-2 -9 -10 -17t-19 -8h-50zM424 542h60q-17 11 -34 11
q-20 1 -26 -11z" />
    <glyph glyph-name="g" unicode="g" horiz-adv-x="654" 
d="M-3 -122l93 151q12 18 31 13q-54 36 -77.5 102.5t-10.5 152.5q18 125 98 204t189 79q64 0 111 -31q7 23 28 23h224q11 0 17.5 -8t4.5 -17l-73 -502q-18 -125 -122 -199.5t-248 -74.5q-78 0 -147 21t-114 54q-16 13 -4 32zM51 -123q90 -56 218 -56q129 0 214 61t99 163
l69 477h-174l-4 -26q-3 -21 -14.5 -25.5t-21.5 1.5l-10 7q-38 51 -115 51q-87 0 -150.5 -62.5t-78.5 -170.5q-11 -78 10 -134t67 -83q39 -22 88 -22q73 0 126 50q18 15 27 11.5t11 -15.5l3 -13l-7 -52q-7 -45 -46 -69.5t-95 -24.5q-80 0 -150 38zM140 31q64 -36 134 -36
q75 0 83 43q-53 -30 -116 -30q-57 0 -101 23zM242 291q8 52 40.5 88t78.5 36t68.5 -36t14.5 -88t-40.5 -87.5t-78.5 -35.5t-68.5 35.5t-14.5 87.5zM292 291q-5 -36 6.5 -54.5t33.5 -18.5q23 0 40 18.5t22 54.5q11 74 -40 74q-23 0 -39.5 -18t-22.5 -56z" />
    <glyph glyph-name="h" unicode="h" horiz-adv-x="687" 
d="M35 0l107 742q1 11 10.5 18t18.5 7h225q11 0 17 -8t4 -17l-30 -208q65 48 148 48q97 0 149.5 -65t37.5 -168l-50 -349q-1 -11 -10.5 -18t-18.5 -7h-225q-11 0 -17 8t-4 17l41 284q7 50 -33 50q-47 0 -56 -63l-39 -271q-1 -11 -10.5 -18t-18.5 -7h-225q-11 0 -17 8t-4 17z
M89 25h175l35 246q7 48 38 80.5t75 32.5q40 0 61 -28.5t15 -71.5l-37 -259h175l46 324q12 85 -27.5 134t-116.5 49q-94 0 -157 -77q-14 -15 -24 -12t-15 15l-4 11l35 248h-175z" />
    <glyph glyph-name="i" unicode="i" horiz-adv-x="335" 
d="M30 0l79 547q1 11 10 18t18 7h225q11 0 17.5 -8t4.5 -17l-79 -547q-1 -11 -10.5 -18t-18.5 -7h-225q-11 0 -17 8t-4 17zM84 25h175l71 497h-175zM130 703q9 60 54 99.5t105 39.5t94 -39.5t25 -99.5t-54 -99.5t-105 -39.5t-94 39.5t-25 99.5zM180 703q-6 -40 14.5 -64.5
t61.5 -24.5q40 0 68 24t34 65q6 40 -14.5 64.5t-61.5 24.5q-40 0 -68 -24t-34 -65z" />
    <glyph glyph-name="j" unicode="j" horiz-adv-x="348" 
d="M-136 -161l72 154q14 27 37 15q24 -12 43 -12q11 -1 15 2.5t6 18.5l77 530q1 11 10 18t18 7h225q11 0 17.5 -8t4.5 -17l-81 -564q-14 -97 -90 -154.5t-183 -56.5q-95 0 -163 37q-17 10 -8 30zM-81 -156q53 -22 123 -22q91 -1 148 42.5t68 118.5l77 539h-175l-73 -505
q-5 -32 -26.5 -52t-52.5 -19q-17 0 -38 6zM125 703q9 61 56.5 100t111.5 39t100.5 -39t27.5 -100t-56.5 -100t-111.5 -39t-100.5 39t-27.5 100zM175 703q-6 -39 17 -64t68 -25t75 24.5t36 64.5t-17 64.5t-68 24.5q-44 0 -74.5 -24.5t-36.5 -64.5z" />
    <glyph glyph-name="k" unicode="k" horiz-adv-x="662" 
d="M35 0l107 742q1 11 10.5 18t18.5 7h225q11 0 17 -8t4 -17l-39 -272l97 94q10 8 19 8h254q2 0 5.5 -0.5t10 -3.5t10 -7.5t1 -12.5t-13.5 -18l-215 -198l140 -319v-1q1 -1 2 -3.5t1.5 -5t0.5 -6t-0.5 -6.5t-2.5 -6t-5.5 -5t-9 -3.5t-13.5 -1.5h-267q-15 0 -20 14l-45 130
l-17 -119q-1 -11 -10.5 -18t-18.5 -7h-225q-11 0 -17 8t-4 17zM89 25h175l17 119q2 10 9 17l31 28q15 12 24 11t13 -9l3 -8l54 -158h208l-131 298q-7 16 8 30l183 169h-185l-138 -134q-18 -15 -27.5 -11.5t-12.5 15.5l-2 13l45 312h-175z" />
    <glyph glyph-name="l" unicode="l" horiz-adv-x="345" 
d="M35 0l107 742q1 11 10.5 18t18.5 7h225q11 0 17 -8t4 -17l-107 -742q-1 -11 -10.5 -18t-18.5 -7h-225q-11 0 -17 8t-4 17zM89 25h175l99 692h-175z" />
    <glyph glyph-name="m" unicode="m" horiz-adv-x="1032" 
d="M30 0l79 547q1 11 10 18t18 7h225q11 0 17.5 -8t4.5 -17l-2 -12q65 47 145 47q56 0 99 -24t66 -67q78 91 191 91q96 0 147.5 -65t36.5 -168l-50 -349q-1 -11 -10.5 -18t-18.5 -7h-225q-11 0 -17 8t-4 17l41 284q7 50 -30 50q-43 0 -53 -63l-39 -271q-1 -11 -10.5 -18
t-18.5 -7h-225q-11 0 -17 8t-4 17l41 284q7 50 -30 50q-43 0 -53 -63l-39 -271q-1 -11 -10.5 -18t-18.5 -7h-225q-11 0 -17 8t-4 17zM84 25h175l35 246q7 48 37 80.5t73 32.5q39 0 59 -29t14 -71l-37 -259h175l35 246q7 48 37 80.5t73 32.5q39 0 59 -29t14 -71l-37 -259h175
l46 324q12 85 -27 134t-114 49q-109 0 -172 -103q-14 -20 -24 -19.5t-16 10.5l-5 11q-12 48 -48 74.5t-91 26.5q-92 0 -154 -76q-14 -15 -24 -12t-14 14l-5 12l7 52h-175z" />
    <glyph glyph-name="n" unicode="n" horiz-adv-x="682" 
d="M30 0l79 547q1 11 10 18t18 7h225q11 0 17.5 -8t4.5 -17l-2 -13q64 48 148 48q97 0 149.5 -65t37.5 -168l-50 -349q-1 -11 -10.5 -18t-18.5 -7h-225q-11 0 -17 8t-4 17l41 284q7 50 -33 50q-47 0 -56 -63l-39 -271q-1 -11 -10.5 -18t-18.5 -7h-225q-11 0 -17 8t-4 17z
M84 25h175l35 246q7 48 38 80.5t75 32.5q40 0 61 -28.5t15 -71.5l-37 -259h175l46 324q12 85 -27.5 134t-116.5 49q-94 0 -157 -77q-14 -15 -24 -12t-14 15l-5 11l7 53h-175z" />
    <glyph glyph-name="o" unicode="o" horiz-adv-x="648" 
d="M29 274q20 139 124.5 222.5t254.5 83.5t229.5 -83.5t59.5 -222.5t-124 -223t-254 -84t-230 84t-60 223zM79 274q-17 -118 49 -187.5t198 -69.5t218 69.5t103 187.5t-49 187t-198 69t-218 -69t-103 -187zM256 271q8 56 42.5 93.5t83.5 37.5t72.5 -37.5t15.5 -93.5
t-42.5 -93.5t-83.5 -37.5t-72.5 37.5t-15.5 93.5zM306 271q-6 -40 7 -60.5t38 -20.5t44 20.5t25 60.5t-7 60.5t-38 20.5t-44 -20.5t-25 -60.5z" />
    <glyph glyph-name="p" unicode="p" 
d="M7 -194l107 741q1 11 10 18t18 7h225q10 0 16.5 -7.5t5.5 -17.5q55 33 119 33q124 0 187.5 -86t43.5 -224q-20 -135 -106 -219t-208 -84q-67 0 -115 34l-28 -195q-1 -11 -10.5 -18t-18.5 -7h-225q-11 0 -17 8t-4 17zM61 -169h175l32 225q3 21 14.5 25t21.5 -3l10 -6
q40 -55 118 -55q101 0 170.5 67.5t86.5 185.5q17 121 -34 190.5t-155 69.5q-74 0 -127 -54q-18 -15 -27 -11.5t-12 15.5l-3 12l4 30h-175zM300 276q8 55 42 93t83 38t72.5 -37.5t15.5 -93.5t-42.5 -93.5t-83.5 -37.5t-72 38t-15 93zM350 276q-6 -41 6.5 -61t37.5 -20
t44 20.5t25 60.5t-7.5 60.5t-38.5 20.5t-43 -20t-24 -61z" />
    <glyph glyph-name="q" unicode="q" 
d="M30 277q20 135 106 219t208 84q67 0 115 -34v1q1 11 10 18t18 7h225q11 0 17.5 -8t4.5 -17l-107 -741q-1 -11 -10.5 -18t-18.5 -7h-225q-11 0 -17 8t-4 17l28 194q-56 -33 -119 -33q-124 0 -187.5 86t-43.5 224zM80 277q-17 -121 34 -190.5t154 -69.5q76 0 128 54
q18 15 27 11.5t12 -15.5l3 -12l-32 -224h175l99 691h-175l-4 -31q-3 -21 -14.5 -25t-21.5 2l-10 7q-40 55 -119 55q-101 0 -170 -67.5t-86 -185.5zM256 271q8 56 42.5 93.5t83.5 37.5t72 -38t15 -93t-42 -93t-83 -38t-72.5 37.5t-15.5 93.5zM306 271q-6 -40 7 -60.5
t38 -20.5t43.5 20t24.5 61t-6.5 61t-37.5 20t-44 -20.5t-25 -60.5z" />
    <glyph glyph-name="r" unicode="r" horiz-adv-x="457" 
d="M30 0l79 547q1 11 10 18t18 7h225q11 0 17.5 -8t4.5 -17l-2 -15q68 50 149 50q11 0 17 -8t4 -17l-29 -203q-1 -10 -9 -18.5t-23 -6.5q-21 3 -39 3q-99 0 -109 -71l-38 -261q-1 -11 -10.5 -18t-18.5 -7h-225q-11 0 -17 8t-4 17zM84 25h175l34 236q8 57 54.5 89t112.5 32
h17l21 148q-78 -11 -132 -77q-15 -15 -24.5 -12t-14.5 15l-5 11l8 55h-175z" />
    <glyph glyph-name="s" unicode="s" horiz-adv-x="552" 
d="M1 79l88 140q7 12 23 14q-58 51 -46 135q14 98 96.5 156t200.5 58q139 0 256 -72q19 -12 5 -34l-94 -139q-7 -10 -19 -12q79 -54 66 -149q-14 -97 -98 -154t-205 -57q-160 0 -269 82q-16 13 -4 32zM55 77q92 -62 226 -62q105 0 170 44.5t76 116.5q6 45 -19 74.5
t-64.5 43.5t-79.5 24.5t-67 28t-23 44.5q3 23 22.5 33t40.5 10q62 0 166 -52l65 96q-99 54 -212 54q-102 0 -165.5 -45t-74.5 -119q-7 -45 17.5 -75t63.5 -43t78 -23.5t65.5 -27t22.5 -43.5q-6 -41 -64 -41q-87 0 -183 58z" />
    <glyph glyph-name="t" unicode="t" horiz-adv-x="460" 
d="M37 375l21 142q1 11 10 18t18 7h50l19 128q1 11 10 18t18 7h224q11 0 17.5 -8t4.5 -17l-19 -128h103q11 0 17.5 -8t4.5 -17l-21 -142q-1 -11 -10.5 -18t-18.5 -7h-103l-20 -140q-2 -13 1.5 -17t14.5 -4q13 0 49 12q7 5 18.5 1t12.5 -18l16 -154q2 -19 -16 -28
q-68 -37 -174 -37q-103 -1 -159 57t-42 154l25 174h-50q-11 0 -17 8t-4 17zM91 400h50q9 0 15.5 -7t5.5 -18l-29 -199q-11 -75 31 -118.5t127 -42.5q73 0 130 23l-11 108q-28 -7 -38 -7q-31 -1 -48 19.5t-12 51.5l24 165q2 9 10 17t19 8h103l13 92h-103q-9 0 -15.5 7
t-5.5 18l18 128h-174l-18 -128q-2 -9 -10 -17t-19 -8h-50z" />
    <glyph glyph-name="u" unicode="u" horiz-adv-x="672" 
d="M44 198l50 349q1 11 10 18t18 7h225q11 0 17.5 -8t4.5 -17l-41 -284q-7 -50 28 -50q41 0 51 63l39 271q1 11 10 18t18 7h225q11 0 17.5 -8t4.5 -17l-79 -547q-1 -11 -10.5 -18t-18.5 -7h-225q-11 0 -17 8t-4 17l2 11q-64 -46 -143 -46q-95 0 -146 65t-36 168zM94 198
q-12 -84 26.5 -133.5t112.5 -49.5q90 0 151 75q15 15 24.5 12t14.5 -14l5 -12l-7 -51h175l71 497h-175l-35 -246q-7 -47 -36.5 -80t-72.5 -33q-39 0 -57.5 29t-12.5 71l37 259h-175z" />
    <glyph glyph-name="v" unicode="v" horiz-adv-x="612" 
d="M44 538q0 1 -0.5 3.5t-0.5 8.5t2 10.5t9 8t18 3.5h231q20 0 22 -19l27 -248l101 248q9 19 26 19h225q0 -1 4 0t8.5 -1t8 -5t3.5 -10.5t-5 -17.5l-281 -547q-8 -16 -26 -16h-230q-18 0 -21 16zM101 522l110 -497h195l255 497h-169l-131 -324q-7 -17 -19 -17t-21 9l-9 8
l-35 324h-176z" />
    <glyph glyph-name="w" unicode="w" horiz-adv-x="977" 
d="M44 538q0 1 -0.5 3.5t-0.5 8.5t2 10.5t9 8t18 3.5h228q9 0 15 -6t7 -13l29 -233l94 233q9 19 26 19h208q9 0 15 -6t7 -13l29 -235l96 235q9 19 26 19h217q0 -1 4 0t8.5 -1t8 -5t3.5 -10.5t-5 -17.5l-279 -547q-8 -16 -26 -16h-220q-19 0 -21 18l-25 201l-86 -201
q-8 -18 -27 -18h-220q-17 0 -21 16zM101 522l108 -497h184l114 270q7 17 19.5 17t21.5 -8l8 -9l34 -270h183l253 497h-162l-125 -307q-7 -17 -19 -17t-20 8l-9 9l-38 307h-169l-124 -307q-7 -17 -19 -17t-21 8l-8 9l-38 307h-173z" />
    <glyph glyph-name="x" unicode="x" horiz-adv-x="654" 
d="M-24 14l211 266l-125 254v1q-1 1 -2 3.5l-2 5t-1 6t0.5 6.5t2.5 6t5.5 5t9 3.5t13.5 1.5h258q16 0 21 -14l30 -86l63 88q9 12 23 12h246h5t9.5 -1.5t10 -5t2 -12t-10.5 -19.5l-198 -253l135 -267q1 -2 2 -4.5t2 -9t-0.5 -12t-9.5 -9.5t-21 -4h-259q-15 0 -20 14l-38 102
l-76 -104q-9 -12 -24 -12h-247h-5t-9.5 2t-9.5 5.5t-1.5 12t10.5 19.5zM45 25h186l97 130q15 18 24.5 17.5t13.5 -10.5l5 -9l48 -128h198l-122 242q-6 15 3 27l179 228h-186l-84 -116q-15 -19 -25 -18.5t-14 10.5l-5 10l-39 114h-197l112 -229q6 -14 -4 -27z" />
    <glyph glyph-name="y" unicode="y" horiz-adv-x="624" 
d="M-59 -127l115 148q20 25 39 5q24 -25 52 -25q23 0 35 16l2 2l-148 518q-1 1 -1.5 3.5t-1 8.5t1.5 10.5t9.5 8.5t19.5 4h231q18 0 22 -17l48 -237l101 236q8 18 26 18h224q0 -1 4 0t8.5 -1t8.5 -5t4 -10.5t-6 -17.5l-310 -585q-100 -182 -289 -182q-112 0 -194 69
q-15 13 -1 33zM-5 -133q64 -46 148 -46q82 0 139 35.5t100 114.5l291 551h-169l-126 -294q-8 -19 -20 -19t-20 9l-8 9l-60 295h-175l141 -495q3 -11 -5 -23l-10 -13q-30 -40 -81 -40q-37 0 -64 20z" />
    <glyph glyph-name="z" unicode="z" horiz-adv-x="568" 
d="M0 0l19 131q2 10 9 17l219 206h-161q-11 0 -17 8t-4 17l24 168q1 11 10 18t18 7h502q11 0 17.5 -8t4.5 -17l-19 -131q-2 -10 -9 -17l-219 -206h181q11 0 17 -8t4 -17l-24 -168q-1 -11 -10.5 -18t-18.5 -7h-522q-11 0 -17 8t-4 17zM54 25h472l17 118h-213
q-22 0 -25.5 10.5t4.5 20.5l8 11l256 241l14 96h-452l-17 -118h193q22 0 25.5 -10.5t-4.5 -21.5l-8 -10l-257 -241z" />
    <glyph glyph-name="braceleft" unicode="{" horiz-adv-x="381" 
d="M21 224l25 170q1 11 10 18t18 7h45h6q1 1 1.5 4t0.5 5l23 163q14 96 71.5 137t172.5 41h88q11 0 17 -8t4 -17l-24 -165q-1 -11 -10 -18t-18 -7q-10 0 -17 -0.5t-13 0t-10 -1t-7 -1.5t-5 -3t-3.5 -3t-2.5 -4.5t-1 -5.5t-1 -7t-1 -8l-11 -77q-14 -96 -75 -134
q51 -39 36 -134l-11 -77q-4 -15 -2.5 -22.5t11.5 -9.5t42 -2q11 0 17.5 -8t4.5 -17l-24 -165q-1 -11 -10.5 -18t-18.5 -7h-88q-115 0 -160.5 41t-31.5 137l23 163q1 4 1 9h-5h-45q-11 0 -17.5 8t-4.5 17zM75 249h20q25 0 38 -13q13 -14 9 -46l-23 -163q-11 -77 17.5 -102.5
t131.5 -25.5h63l17 116q-80 6 -69 83l11 77q7 55 -5 77t-56 33q-15 5 -13.5 16t10.5 22l10 11q47 11 66.5 33t26.5 76l11 77q12 77 93 83l17 116h-63q-103 0 -139.5 -25.5t-47.5 -102.5l-23 -163q-4 -31 -23 -46q-17 -13 -42 -13h-20z" />
    <glyph glyph-name="bar" unicode="|" horiz-adv-x="326" 
d="M40 -103l130 899q1 11 10 18t18 7h166q11 0 17.5 -8t4.5 -17l-130 -899q-1 -11 -10 -18t-18 -7h-166q-11 0 -17.5 8t-4.5 17zM94 -78h116l122 849h-116z" />
    <glyph glyph-name="braceright" unicode="}" horiz-adv-x="381" 
d="M-33 -126l24 165q1 11 10 18t18 7q10 0 17 0.5t13 0t10 1t7 1.5t5 3t3.5 3t2.5 4.5t1 5.5t1 7t1 8l11 77q14 96 75 134q-51 39 -36 134l11 77q4 15 2.5 22.5t-11.5 9.5t-42 2q-11 0 -17.5 8t-4.5 17l24 165q1 11 10.5 18t18.5 7h88q115 0 160.5 -41t31.5 -137l-23 -163
q-1 -4 -1 -9h5h45q11 0 17.5 -8t4.5 -17l-25 -170q-1 -11 -10 -18t-18 -7h-45h-6q-1 -1 -1.5 -4t-0.5 -5l-23 -163q-14 -96 -71.5 -137t-172.5 -41h-88q-11 0 -17 8t-4 17zM20 -101h63q103 0 139.5 25.5t47.5 102.5l23 163q4 31 23 46q17 13 42 13h20l17 120h-20
q-25 0 -38 13q-13 14 -9 46l23 163q11 77 -17.5 102.5t-131.5 25.5h-63l-17 -116q80 -6 69 -83l-11 -77q-7 -55 5 -76.5t56 -32.5q15 -5 13.5 -16t-10.5 -22l-10 -11q-47 -11 -66.5 -33.5t-26.5 -76.5l-11 -77q-12 -77 -93 -83z" />
    <glyph glyph-name="asciitilde" unicode="~" horiz-adv-x="520" 
d="M55 229q32 226 186 226q31 0 58 -10.5t43 -22.5l16 -11q3 10 4 16q1 11 10 18t18 7h148q11 0 17.5 -8t4.5 -17q-32 -226 -185 -226q-31 0 -58 10.5t-43 22.5l-16 11q-3 -10 -4 -16q-1 -11 -10.5 -18t-18.5 -7h-149q-11 0 -17 8t-4 17zM109 254h101q6 17 21 29t34 12
q24 0 55 -22t62 -22q49 0 78.5 34t44.5 117h-99q-6 -17 -21 -29t-34 -12q-24 0 -55.5 22t-62.5 22q-49 0 -79 -34t-45 -117z" />
    <glyph glyph-name="nbspace" unicode="&#xa0;" horiz-adv-x="209" 
 />
    <glyph glyph-name="exclamdown" unicode="&#xa1;" horiz-adv-x="294" 
d="M-7 -155l26 184q0 1 1 4l77 259q7 21 28 21h134q9 0 15.5 -6.5t6.5 -14.5l3 -259v-2l-1 -2l-26 -184q-1 -11 -10.5 -18t-18.5 -7h-214q-11 0 -17 8t-4 17zM46 -130h164l23 157l-3 236h-91l-70 -236zM89 451q8 56 49.5 92t96.5 36t86 -36.5t23 -91.5t-49 -91t-96 -36
q-56 0 -87 36t-23 91zM139 451q-5 -35 13 -56t54 -21q35 0 59 21t29 56q5 36 -13 57t-53 21q-36 0 -60 -21t-29 -57z" />
    <glyph glyph-name="cent" unicode="&#xa2;" horiz-adv-x="561" 
d="M29 271q16 111 85.5 190t172.5 107l21 146q1 11 10 18t18 7h166q11 0 17.5 -8t4.5 -17l-22 -154q107 -41 142 -153q3 -9 -2 -19t-15 -14l-190 -76q-24 -9 -31 13q-10 37 -42 37q-20 0 -36 -18.5t-22 -57.5t5 -58t31 -19q31 0 49 41q13 28 37 16l170 -84q9 -4 11 -14
t-3 -18q-61 -111 -187 -151l-22 -150q-1 -11 -10 -18t-18 -7h-166q-11 0 -17.5 8t-4.5 17l21 144q-97 26 -143 104t-30 188zM79 271q-14 -99 28 -164t131 -83q20 -4 17 -25l-20 -139h116l21 144q2 19 22 24q100 26 155 105l-126 62q-34 -50 -88 -50q-46 0 -66.5 36.5
t-12.5 90.5q8 53 38.5 89.5t76.5 36.5q52 0 75 -45l142 57q-35 80 -124 108q-18 6 -15 24l21 147h-116l-20 -141q-4 -21 -23 -24q-94 -20 -155.5 -86t-76.5 -167z" />
    <glyph glyph-name="sterling" unicode="&#xa3;" horiz-adv-x="566" 
d="M-5 0l25 173q1 11 10.5 18t18.5 7h45l5 41h-45q-11 0 -17 8t-4 17l22 152q1 11 10.5 18t18.5 7h45l3 23q19 127 105.5 199.5t219.5 72.5q145 0 229 -89q11 -12 1 -29l-108 -170q-6 -10 -18 -13q9 -9 6 -19l-22 -152q-1 -11 -10.5 -18t-18.5 -7h-134l-5 -41h213
q11 0 17 -8t4 -17l-25 -173q-1 -11 -10.5 -18t-18.5 -7h-541q-11 0 -17 8t-4 17zM49 25h491l17 123h-213q-9 0 -15.5 7t-5.5 18l13 91q2 9 10 17t19 8h134l14 102h-134q-9 0 -15.5 7t-5.5 18l6 43q5 38 29.5 61t60.5 23q50 0 102 -44l79 124q-71 63 -185 63q-116 0 -184 -57
t-84 -165l-7 -48q-2 -9 -10 -17t-19 -8h-45l-14 -102h45q9 0 15.5 -7t5.5 -18l-13 -91q-2 -9 -10 -17t-19 -8h-45zM412 441h126q-51 52 -91 52q-17 0 -23.5 -6t-9.5 -28z" />
    <glyph glyph-name="currency" unicode="&#xa4;" horiz-adv-x="693" 
d="M11 93q-6 9 -4 19.5t9 16.5l103 90q-12 49 -5 104q7 50 31 96l-75 87q-6 9 -4 19.5t9 16.5l143 125q9 8 20 7.5t16 -7.5l72 -85q52 20 107 20t101 -20l97 85q9 8 20 7.5t16 -7.5l107 -125q6 -9 4 -19.5t-9 -16.5l-100 -87q10 -46 3 -96q-7 -52 -36 -103l78 -91
q6 -9 4 -19.5t-9 -16.5l-143 -125q-9 -8 -19.5 -7.5t-15.5 7.5l-80 94q-49 -18 -99 -18q-45 0 -93 17l-106 -93q-9 -8 -19.5 -7.5t-15.5 7.5zM66 111l77 -90l99 87q13 12 28 5q43 -19 90 -19q48 0 94 20q17 7 27 -5l75 -88l103 90l-73 85q-12 12 -1 29q30 47 37 98
q7 46 -6 92q-4 17 9 28l93 81l-77 90l-90 -80q-15 -13 -30 -4q-44 22 -95 22q-52 0 -102 -22q-18 -8 -28 4l-68 80l-102 -90l69 -81q12 -14 2 -28q-25 -41 -33 -92q-8 -53 8 -99q6 -16 -9 -29zM289 323q6 43 41 74t78 31t69.5 -30.5t20.5 -74.5q-6 -43 -41.5 -73.5
t-78.5 -30.5t-69 30t-20 74zM339 323q-3 -23 10.5 -38.5t35.5 -15.5q23 0 41.5 15.5t21.5 38.5q3 22 -11 38.5t-37 16.5t-40.5 -16t-20.5 -39z" />
    <glyph glyph-name="yen" unicode="&#xa5;" horiz-adv-x="699" 
d="M60 148l12 82q3 16 19 23q-14 8 -12 23l11 81q1 11 10.5 18t18.5 7h65l-117 307l-2 4t-1.5 8.5t1.5 11.5t9.5 9t20.5 4h231q15 0 20 -13l86 -227l146 226q9 14 25 14h231q0 -1 4.5 0t9.5 -1t9 -5t3 -11.5t-9 -19.5l-205 -307h44q11 0 17 -8t4 -17l-11 -81q-3 -16 -19 -23
q14 -8 12 -23l-12 -82q-1 -11 -10 -18t-18 -7h-132l-18 -123q-1 -11 -10.5 -18t-18.5 -7h-232q-11 0 -17 8t-4 17l18 123h-157q-11 0 -17.5 8t-4.5 17zM114 173h157q9 0 15.5 -7t5.5 -18l-17 -123h182l17 123q2 9 10 17t19 8h132l5 32h-126q-20 0 -24.5 9.5t1.5 18.5l6 9
l30 46q8 13 24 13h102l5 31h-60q-20 0 -24.5 9t1.5 19l6 9l204 307h-174l-166 -256q-12 -20 -23.5 -20t-16.5 10l-5 9l-97 257h-174l116 -307q7 -18 0 -27.5t-17 -9.5h-10h-81l-5 -31h124q16 0 21 -13l17 -46q7 -18 0 -27.5t-17 -9.5h-10h-148z" />
    <glyph glyph-name="brokenbar" unicode="&#xa6;" horiz-adv-x="326" 
d="M40 -103l49 339q1 11 10.5 18t18.5 7h166q11 0 17 -8t4 -17l-49 -339q-1 -11 -10 -18t-18 -7h-166q-11 0 -17.5 8t-4.5 17zM94 -78h116l41 289h-116zM121 457l49 339q1 11 10 18t18 7h166q11 0 17.5 -8t4.5 -17l-49 -339q-1 -11 -10.5 -18t-18.5 -7h-166q-11 0 -17 8
t-4 17zM174 482h116l42 289h-116z" />
    <glyph glyph-name="section" unicode="&#xa7;" horiz-adv-x="586" 
d="M-11 -2l81 140q10 17 29 15q-72 54 -60 140q13 86 95 141q-24 33 -17 85q13 90 93.5 145t196.5 55q133 0 255 -72q8 -4 9.5 -14.5t-3.5 -18.5l-87 -139q-9 -14 -25 -14q94 -57 80 -153q-12 -85 -95 -141q25 -34 18 -85q-13 -89 -95.5 -143t-202.5 -54q-156 0 -268 82
q-15 12 -4 31zM43 -2q97 -63 226 -63q105 0 168 41t72 106q4 27 -1.5 39t-25.5 31q-12 13 -9.5 22t11.5 14l8 5q84 42 94 115q7 47 -20.5 77t-82.5 53q-11 4 -63.5 18.5t-76.5 30.5t-20 43q6 41 64 41q53 0 146 -42q3 -1 9.5 -5t10.5 -5l59 95q-103 55 -213 55
q-100 0 -161.5 -42.5t-70.5 -107.5q-3 -24 1.5 -37.5t24.5 -30.5q14 -13 12 -22.5t-11 -14.5l-10 -5q-85 -42 -95 -116q-10 -72 72 -116q19 -10 73 -24.5t85.5 -32t27.5 -45.5q-6 -40 -69 -40q-79 0 -171 52l-4 2t-5 3zM168 115q36 -16 75 -25q-48 14 -75 25zM245 308
q7 46 80 46q17 0 32.5 -2t33.5 -7t27 -17.5t7 -30.5q-7 -45 -85 -45q-25 0 -44.5 3t-36.5 16.5t-14 36.5zM320 304q16 -2 24 -2q-16 2 -24 2zM424 514q6 -2 18 -5.5t17 -5.5q-7 3 -20.5 7t-14.5 4z" />
    <glyph glyph-name="dieresis" unicode="&#xa8;" horiz-adv-x="350" 
d="M56 698q8 51 45 84t87 33t78.5 -33.5t21.5 -83.5q-8 -50 -45.5 -83t-87.5 -33t-78.5 33t-20.5 83zM106 698q-5 -30 10 -48t46 -18t51 18t25 48q5 31 -10.5 49t-46.5 18t-50.5 -18t-24.5 -49zM264 698q8 51 45 84t87 33t78.5 -33.5t21.5 -83.5q-8 -50 -45.5 -83t-87.5 -33
t-78.5 33t-20.5 83zM314 698q-5 -30 10 -48t46 -18t51 18t25 48q5 31 -10.5 49t-46.5 18t-50.5 -18t-24.5 -49z" />
    <glyph glyph-name="copyright" unicode="&#xa9;" horiz-adv-x="707" 
d="M40 348q22 150 143.5 258t273.5 108t242 -106.5t68 -257.5q-22 -150 -143.5 -258t-273.5 -108t-242 107t-68 257zM90 348q-19 -130 58.5 -222t208.5 -92q132 0 236.5 93t123.5 223t-58.5 222t-208.5 92q-132 0 -236.5 -93t-123.5 -223zM140 348q16 109 103.5 187.5
t198.5 78.5q110 0 175.5 -77.5t49.5 -186.5t-104 -187.5t-199 -78.5q-110 0 -175 77.5t-49 186.5zM190 348q-13 -89 39.5 -151.5t141.5 -62.5q91 0 162 63.5t84 152.5t-39.5 151.5t-142.5 62.5t-161 -63.5t-84 -152.5zM215 349q12 81 75.5 133.5t147.5 52.5q42 0 80.5 -18
t61.5 -48q13 -16 -4 -33l-70 -72q-25 -25 -40 1q-20 33 -46 33q-18 0 -31 -12.5t-16 -34.5q-4 -23 6 -35.5t28 -12.5q26 0 57 28q8 7 18.5 7.5t17.5 -7.5l51 -64q6 -7 4.5 -17t-9.5 -17q-74 -71 -166 -71q-83 0 -130 53t-35 134zM265 349q-9 -60 25.5 -98.5t97.5 -38.5
q54 0 107 39l-22 28q-38 -26 -74 -26q-39 0 -60.5 28.5t-15.5 69.5t36 69t69 28q35 0 65 -30l31 32q-40 35 -93 35q-65 0 -111.5 -38.5t-54.5 -97.5z" />
    <glyph glyph-name="ordfeminine" unicode="&#xaa;" horiz-adv-x="400" 
d="M66 556q11 71 73 104l-20 96q-2 9 4 18.5t17 13.5q102 31 187 31t132 -38.5t36 -109.5l-31 -213q-1 -11 -10.5 -18t-18.5 -7h-149q-11 0 -18 10q-34 -17 -79 -17q-64 0 -97.5 36t-25.5 94zM116 556q-5 -38 15 -59t66 -21q51 0 80 31q17 15 26.5 11.5t12.5 -15.5l4 -12
l-1 -8h99l27 188q7 47 -23.5 72.5t-101.5 25.5q-60 0 -146 -22l10 -50q58 14 91 14q29 0 48.5 -12t20.5 -37q0 -12 -6 -19t-12 -8.5t-11 -1.5h-77q-111 -1 -122 -77zM211 568q3 21 20 34.5t37 13.5h45q9 0 15.5 -7t5.5 -18l-4 -27q-1 -8 -8 -16q-29 -29 -66 -29
q-21 0 -34.5 14t-10.5 35z" />
    <glyph glyph-name="guillemotleft" unicode="&#xab;" horiz-adv-x="544" 
d="M-1 260q-6 13 4 27l152 193q9 11 23 11h180q0 -1 4.5 0t9.5 -1t8.5 -5t2.5 -11.5t-9 -19.5l-125 -181l73 -183l2 -4t1.5 -8.5t-1 -11.5t-9 -9t-20.5 -4h-180q-15 0 -20 12zM52 273l84 -170h124l-63 158q-5 12 3 24l108 156h-124zM258 260q-6 13 4 27l152 193q9 11 23 11
h180q0 -1 4.5 0t9.5 -1t8.5 -5t2.5 -11.5t-9 -19.5l-125 -181l73 -183l2 -4t1.5 -8.5t-1 -11.5t-9 -9t-20.5 -4h-180q-15 0 -20 12zM311 273l84 -170h124l-63 158q-5 12 3 24l108 156h-124z" />
    <glyph glyph-name="logicalnot" unicode="&#xac;" horiz-adv-x="593" 
d="M50 309l20 140q1 11 10 18t18 7h510q11 0 17.5 -8t4.5 -17l-46 -320q-1 -11 -10.5 -18t-18.5 -7h-160q-11 0 -17 8t-4 17l22 155h-325q-11 0 -17 8t-4 17zM103 334h325q9 0 16 -7t6 -18l-23 -155h110l39 270h-460z" />
    <glyph glyph-name="softhyphen" unicode="&#xad;" horiz-adv-x="380" 
d="M59 239l21 140q1 11 10 18t18 7h280q11 0 17.5 -8t4.5 -17l-21 -140q-1 -11 -10 -18t-18 -7h-280q-11 0 -17.5 8t-4.5 17zM113 264h230l13 90h-230z" />
    <glyph glyph-name="registered" unicode="&#xae;" horiz-adv-x="707" 
d="M40 348q22 150 143.5 258t273.5 108t242 -106.5t68 -257.5q-22 -150 -143.5 -258t-273.5 -108t-242 107t-68 257zM90 348q-19 -130 58.5 -222t208.5 -92q132 0 236.5 93t123.5 223t-58.5 222t-208.5 92q-132 0 -236.5 -93t-123.5 -223zM140 348q16 109 103.5 187.5
t198.5 78.5q110 0 175.5 -77.5t49.5 -186.5t-104 -187.5t-199 -78.5q-110 0 -175 77.5t-49 186.5zM190 348q-13 -89 39.5 -151.5t141.5 -62.5q91 0 162 63.5t84 152.5t-39.5 151.5t-142.5 62.5t-161 -63.5t-84 -152.5zM229 211l44 301q1 11 10 18t18 7h141q70 0 107 -35
t28 -97q-10 -65 -54 -102l37 -79v-1q1 -1 2 -3.5t1.5 -5t0.5 -6t-0.5 -6.5t-2.5 -6t-5.5 -5t-9 -3.5t-13.5 -1.5h-113q-17 0 -21 15l-14 46l-6 -36q-1 -11 -10 -18t-18 -7h-100q-11 0 -17.5 8t-4.5 17zM283 236h50l8 53q2 9 9.5 17t18.5 8h33q16 0 21 -15l20 -63h52l-28 60
q-4 8 0 18.5t14 15.5q39 22 46 75q5 40 -17 61t-75 21h-116zM352 365l10 72q2 9 10 17t19 8h41q26 0 40 -17.5t10 -43.5t-23 -43.5t-45 -17.5h-41q-9 0 -15.5 7t-5.5 18zM405 390h16q7 0 8.5 1t2.5 10q2 6 0.5 8.5t-2.5 2.5h-6h-16z" />
    <glyph glyph-name="macron" unicode="&#xaf;" horiz-adv-x="350" 
d="M90 624l21 148q1 11 10.5 18t18.5 7h300q11 0 17 -8t4 -17l-21 -148q-1 -11 -10.5 -18t-18.5 -7h-300q-11 0 -17 8t-4 17zM144 649h250l14 98h-250z" />
    <glyph glyph-name="degree" unicode="&#xb0;" horiz-adv-x="400" 
d="M162 703q9 61 57.5 103.5t109.5 42.5t97.5 -42.5t27.5 -103.5t-57.5 -103.5t-109.5 -42.5t-97.5 42.5t-27.5 103.5zM212 703q-6 -40 18 -68t64 -28t72 28t38 68t-18 68t-64 28t-72 -28t-38 -68zM245 703q4 26 25 44.5t47 18.5t42 -18.5t12 -44.5t-25 -44.5t-47 -18.5
t-42 18.5t-12 44.5zM295 703q-2 -13 11 -13t15 13t-11 13t-15 -13z" />
    <glyph glyph-name="plusminus" unicode="&#xb1;" horiz-adv-x="520" 
d="M3 -16l20 140q1 11 10 18t18 7h460q11 0 17.5 -8t4.5 -17l-20 -140q-1 -11 -10.5 -18t-18.5 -7h-460q-11 0 -17 8t-4 17zM55 345l19 133q1 11 10 18t18 7h135l19 127q1 11 10 18t18 7h140q11 0 17.5 -8t4.5 -17l-19 -127h135q11 0 17.5 -8t4.5 -17l-19 -133
q-1 -11 -10.5 -18t-18.5 -7h-135l-18 -127q-1 -11 -10.5 -18t-18.5 -7h-140q-11 0 -17 8t-4 17l18 127h-135q-11 0 -17 8t-4 17zM56 9h410l13 90h-410zM108 370h135q9 0 16 -7t6 -18l-19 -127h90l19 127q2 9 9.5 17t18.5 8h135l12 83h-135q-9 0 -15.5 7t-5.5 18l18 127h-90
l-18 -127q-2 -9 -10 -17t-19 -8h-135z" />
    <glyph glyph-name="twosuperior" unicode="&#xb2;" horiz-adv-x="394" 
d="M43 280l14 93q2 11 10 18l173 148q10 10 20 22q-39 -5 -104 -49q-26 -18 -36 8l-43 108q-7 20 14 33q119 71 225 71q78 0 127 -37.5t40 -102.5q-10 -72 -118 -161l-13 -11h86q11 0 17 -8t4 -17l-17 -115q-1 -11 -10 -18t-18 -7h-349q-11 0 -17.5 8t-4.5 17zM97 305h299
l9 65h-124q-13 0 -19 4.5t-5 11t4 12.5t7 10l3 5l65 54q90 76 97 125q5 38 -28.5 64t-95.5 26q-80 0 -176 -51l25 -62q70 42 116 42q17 0 31 -10.5t11 -30.5q-4 -28 -45 -65l-166 -143z" />
    <glyph glyph-name="threesuperior" unicode="&#xb3;" horiz-adv-x="374" 
d="M26 343l79 114q8 13 24 13l7 53q2 12 12 19l31 24h-75q-11 0 -17.5 8t-4.5 17l16 108q1 11 10 18t18 7h318q11 0 17.5 -8t4.5 -17l-12 -84q-2 -12 -12 -19l-64 -49q37 -17 55.5 -51.5t11.5 -81.5q-10 -74 -74.5 -120t-153.5 -46q-55 0 -106 17t-83 47q-14 13 -2 31z
M80 338q58 -40 144 -40q73 0 118.5 33t52.5 83q10 74 -60 93l-19 5q-13 3 -17.5 9t-3 11.5t5.5 10.5t8 9l4 3l92 71l7 48h-268l-8 -58h117q13 0 19 -4.5t5 -11t-4 -13t-7 -11.5l-3 -4l-78 -60l-6 -42h57q35 0 49 -21q10 -15 7 -35q-4 -22 -17 -35q-20 -20 -55 -20
q-52 0 -93 41l-3 3zM187 420q18 -11 40 -11q4 0 7 0.5t5 0.5l2 1l1 1v2v4q-2 2 -13 2h-42z" />
    <glyph glyph-name="acute" unicode="&#xb4;" horiz-adv-x="350" 
d="M92 603l134 189q12 18 31 12l182 -60q5 -1 9.5 -3.5t9.5 -13t-16 -25.5l-155 -129q-9 -7 -18 -7h-160q0 1 -4.5 0t-9.5 1t-9.5 5t-3 11.5t9.5 19.5zM159 616h107l112 93l-124 41z" />
    <glyph glyph-name="mu" unicode="&#xb5;" horiz-adv-x="692" 
d="M7 -194l107 741q1 11 10 18t18 7h225q11 0 17.5 -8t4.5 -17l-41 -284q-7 -50 28 -50q41 0 51 63l39 271q1 11 10 18t18 7h225q11 0 17.5 -8t4.5 -17l-79 -547q-1 -11 -10.5 -18t-18.5 -7h-225q-11 0 -17 8t-4 17l2 11q-37 -27 -83 -38l-24 -167q-1 -11 -10.5 -18
t-18.5 -7h-225q-11 0 -17 8t-4 17zM61 -169h175l23 162q4 22 25 25q71 10 120 72q15 15 24.5 12t14.5 -14l5 -12l-7 -51h175l71 497h-175l-35 -246q-7 -47 -36.5 -80t-72.5 -33q-39 0 -57.5 29t-12.5 71l37 259h-175z" />
    <glyph glyph-name="paragraph" unicode="&#xb6;" horiz-adv-x="682" 
d="M39 513q15 106 97.5 180t223.5 74h383q11 0 17 -8t4 -17l-122 -847q-1 -11 -10.5 -18t-18.5 -7h-166q-11 0 -17 8t-4 17l100 698h-22l-100 -698q-1 -11 -10.5 -18t-18.5 -7h-166q-11 0 -17 8t-4 17l54 373q-54 1 -95 17.5t-62 43t-34.5 59t-13.5 65t2 60.5zM89 513
q-2 -24 -2 -50.5t10.5 -52.5t27.5 -46.5t50 -33t77 -12.5h22q9 0 15.5 -7t5.5 -18l-54 -373h116l101 698q2 9 10 17t19 8h72q9 0 15.5 -7t5.5 -18l-101 -698h116l115 797h-358q-122 0 -186 -58t-77 -146z" />
    <glyph glyph-name="periodcentered" unicode="&#xb7;" horiz-adv-x="265" 
d="M47 292q8 55 49 91t96 36q56 0 87 -36t23 -91q-8 -56 -49.5 -92t-96.5 -36t-86 36.5t-23 91.5zM97 292q-5 -36 13 -57t53 -21q36 0 60 21t29 57q5 35 -13 56t-54 21q-35 0 -59 -21t-29 -56z" />
    <glyph glyph-name="cedilla" unicode="&#xb8;" horiz-adv-x="350" 
d="M2 -203l53 90q3 6 10 11q-17 12 -4 32l65 99q10 14 24 14h123q0 -1 4.5 0t9.5 -1t9 -5t3 -11.5t-9 -19.5l-31 -46q52 -35 43 -94q-9 -63 -61.5 -100.5t-124.5 -37.5q-59 0 -110 38q-15 12 -4 31zM57 -203q36 -19 66 -19q57 0 90.5 24t38.5 64q2 18 -8.5 34.5t-32.5 24.5
q-14 5 -14.5 18t5.5 18l22 32h-66l-29 -44q24 -2 40.5 -17.5t12.5 -41.5t-24.5 -42t-46.5 -16q-13 0 -30 7zM95 -103q9 -15 23 -15q12 0 14 8q0 9 -17 9q-4 0 -20 -2z" />
    <glyph glyph-name="onesuperior" unicode="&#xb9;" horiz-adv-x="286" 
d="M63 582l17 119q1 11 10.5 18t18.5 7h232q11 0 17 -8t4 -17l-61 -421q-1 -11 -10 -18t-18 -7h-156q-11 0 -17.5 8t-4.5 17l40 277h-51q-11 0 -17 8t-4 17zM116 607h51q9 0 16 -7t6 -18l-40 -277h106l53 371h-182z" />
    <glyph glyph-name="ordmasculine" unicode="&#xba;" horiz-adv-x="419" 
d="M77 623q13 89 82 142t168 53t153.5 -53t41.5 -142q-13 -88 -82.5 -141.5t-168.5 -53.5q-98 0 -152.5 53.5t-41.5 141.5zM127 623q-10 -66 30 -105.5t121 -39.5q82 0 133 39.5t61 105.5q10 67 -30 106t-122 39q-81 0 -132 -39t-61 -106zM229 621q5 34 27 58t54 24t47 -24
t10 -58t-26.5 -57.5t-53.5 -23.5t-47.5 24t-10.5 57zM279 621q-5 -31 15 -31q18 0 23 31q5 32 -14 32t-24 -32z" />
    <glyph glyph-name="guillemotright" unicode="&#xbb;" horiz-adv-x="544" 
d="M-11 90l126 181l-74 183l-2 4t-1.5 8.5t1.5 11.5t9.5 9t20.5 4h180q14 0 19 -12l96 -195q6 -13 -4 -27l-152 -193q-9 -11 -22 -11h-180q0 1 -4.5 0t-9.5 1t-9 5t-3 11.5t9 19.5zM55 103h124l132 168l-83 170h-124l63 -158q5 -11 -4 -24zM248 90l126 181l-74 183l-2 4
t-1.5 8.5t1.5 11.5t9.5 9t20.5 4h180q14 0 19 -12l96 -195q6 -13 -4 -27l-152 -193q-9 -11 -22 -11h-180q0 1 -4.5 0t-9.5 1t-9 5t-3 11.5t9 19.5zM314 103h124l132 168l-83 170h-124l63 -158q5 -12 -4 -24z" />
    <glyph glyph-name="onequarter" unicode="&#xbc;" horiz-adv-x="938" 
d="M63 582l17 119q1 11 10.5 18t18.5 7h232q11 0 17 -8t4 -17l-61 -421q-1 -11 -10 -18t-18 -7h-156q-11 0 -17.5 8t-4.5 17l40 277h-51q-11 0 -17 8t-4 17zM65 14l588 701q9 11 22 11h209h5t9.5 -2t9.5 -6t1.5 -12t-11.5 -19l-588 -701q-9 -11 -22 -11h-209h-5t-9.5 2
t-9.5 6t-1.5 12t11.5 19zM116 607h51q9 0 16 -7t6 -18l-40 -277h106l53 371h-182zM134 25h149l546 651h-149zM511 77l14 98q1 6 5 11l161 246q11 14 24 14h149q0 -1 4.5 0t9 -1t8.5 -5t3.5 -11t-7.5 -19l-80 -125h117q11 0 17 -8t4 -17l-7 -51h30q11 0 17.5 -8t4.5 -17
l-16 -107q-1 -11 -10.5 -18t-18.5 -7h-30l-7 -52q-1 -11 -10.5 -18t-18.5 -7h-145q-11 0 -17 8t-4 17l7 52h-183q-11 0 -17 8t-4 17zM565 102h183q9 0 15.5 -7t5.5 -18l-7 -52h95l7 52q2 9 10 17t19 8h30l8 57h-30q-9 0 -15.5 7t-5.5 18l7 51h-95l-7 -51q-2 -9 -10 -17
t-19 -8h-49q-20 0 -24 9t1 18l6 9l127 201h-94l-149 -227z" />
    <glyph glyph-name="onehalf" unicode="&#xbd;" horiz-adv-x="960" 
d="M63 582l17 119q1 11 10.5 18t18.5 7h232q11 0 17 -8t4 -17l-61 -421q-1 -11 -10 -18t-18 -7h-156q-11 0 -17.5 8t-4.5 17l40 277h-51q-11 0 -17 8t-4 17zM65 14l588 701q9 11 22 11h209h5t9.5 -2t9.5 -6t1.5 -12t-11.5 -19l-588 -701q-9 -11 -22 -11h-209h-5t-9.5 2
t-9.5 6t-1.5 12t11.5 19zM116 607h51q9 0 16 -7t6 -18l-40 -277h106l53 371h-182zM134 25h149l546 651h-149zM569 0l13 93q2 11 10 18l174 148q4 4 19 22q-38 -5 -103 -49q-26 -18 -36 8l-43 108q-3 8 0.5 18t12.5 15q119 71 226 71q78 0 127 -37.5t40 -102.5
q-10 -72 -118 -161l-13 -11h85q11 0 17.5 -8t4.5 -17l-17 -115q-1 -11 -10.5 -18t-18.5 -7h-349q-11 0 -17 8t-4 17zM623 25h299l9 65h-124q-21 0 -24 11t5 21l8 11l66 54q90 76 97 125q5 38 -28.5 64t-95.5 26q-80 0 -176 -51l24 -62q70 42 117 42q17 0 31 -10.5t11 -30.5
q-4 -27 -46 -65l-165 -143z" />
    <glyph glyph-name="threequarters" unicode="&#xbe;" horiz-adv-x="996" 
d="M26 343l79 114q8 13 24 13l7 53q2 12 12 19l31 24h-75q-11 0 -17.5 8t-4.5 17l16 108q1 11 10 18t18 7h318q11 0 17.5 -8t4.5 -17l-12 -84q-2 -12 -12 -19l-64 -49q37 -17 55.5 -51.5t11.5 -81.5q-10 -74 -74.5 -120t-153.5 -46q-55 0 -106 17t-83 47q-14 13 -2 31z
M80 338q58 -40 144 -40q73 0 118.5 33t52.5 83q10 74 -60 93l-19 5q-13 3 -17.5 9t-3 11.5t5.5 10.5t8 9l4 3l92 71l7 48h-268l-8 -58h117q13 0 19 -4.5t5 -11t-4 -13t-7 -11.5l-3 -4l-78 -60l-6 -42h57q35 0 49 -21q10 -15 7 -35q-4 -22 -17 -35q-20 -20 -55 -20
q-52 0 -93 41l-3 3zM123 14l588 701q9 11 22 11h209h5t9.5 -2t9.5 -6t1.5 -12t-11.5 -19l-588 -701q-9 -11 -22 -11h-209h-5t-9.5 2t-9.5 6t-1.5 12t11.5 19zM187 420q18 -11 40 -11q4 0 7 0.5t5 0.5l2 1l1 1v2v4q-2 2 -13 2h-42zM192 25h149l546 651h-149zM569 77l14 98
q1 6 5 11l161 246q11 14 24 14h149q0 -1 4.5 0t9 -1t8.5 -5t3.5 -11t-7.5 -19l-80 -125h117q11 0 17 -8t4 -17l-7 -51h30q11 0 17.5 -8t4.5 -17l-16 -107q-1 -11 -10.5 -18t-18.5 -7h-30l-7 -52q-1 -11 -10.5 -18t-18.5 -7h-145q-11 0 -17 8t-4 17l7 52h-183q-11 0 -17 8
t-4 17zM623 102h183q9 0 15.5 -7t5.5 -18l-7 -52h95l7 52q2 9 10 17t19 8h30l8 57h-30q-9 0 -15.5 7t-5.5 18l7 51h-95l-7 -51q-2 -9 -10 -17t-19 -8h-49q-20 0 -24 9t1 18l6 9l127 201h-94l-149 -227z" />
    <glyph glyph-name="questiondown" unicode="&#xbf;" horiz-adv-x="498" 
d="M-2 18q7 46 28 84.5t46.5 63.5t50.5 46t43.5 42.5t21.5 42.5q1 11 10 18t18 7h167q11 0 17.5 -8t4.5 -17q-8 -56 -31.5 -99.5t-47 -65t-44 -42t-22.5 -35.5q-2 -13 0 -15t16 -2q16 0 24 10t13 44q1 11 10.5 18t18.5 7h172q11 0 17 -8t4 -17q-19 -130 -102.5 -205.5
t-209.5 -75.5q-116 0 -177.5 54.5t-47.5 152.5zM48 18q-11 -75 35 -116t147 -41t165.5 53t85.5 153h-123q-9 -36 -32.5 -57.5t-56.5 -21.5q-30 0 -46.5 18.5t-12.5 48.5q5 32 24 59.5t41 44.5t44 47t31 66h-118q-11 -31 -32.5 -58t-44.5 -46.5t-45.5 -40t-39.5 -48.5
t-22 -61zM194 452q8 56 50 92t97 36t85.5 -36.5t22.5 -91.5t-49 -91t-96 -36q-56 0 -87 36t-23 91zM244 452q-5 -35 13 -56t54 -21q35 0 59 21t29 56q5 36 -13 57t-53 21q-36 0 -60 -21t-29 -57z" />
    <glyph glyph-name="Agrave" unicode="&#xc0;" horiz-adv-x="799" 
d="M-32 10l397 701q8 15 26 15h238q17 0 21 -16l184 -701q0 -1 1 -3.5t0.5 -8.5t-2.5 -10.5t-9.5 -8t-18.5 -3.5h-247q-17 0 -21 17l-17 82h-228l-42 -83q-8 -16 -26 -16h-238q0 1 -4 0t-8.5 1t-8.5 5t-3.5 10.5t6.5 18.5zM31 25h183l42 83q8 16 26 16h263q18 0 21 -17
l17 -82h192l-170 651h-205zM321 856l-3 3t-4.5 7.5t-2 10.5t6.5 11t19 10l198 60q20 7 28 -12l80 -189l2 -4t2 -8.5t-1 -11.5t-9.5 -9t-20.5 -4h-160q-9 0 -16 7zM340 273l103 205q6 12 13.5 16.5t13 2.5t10.5 -6t8 -9l3 -4l42 -205q4 -16 -3 -24.5t-16 -8.5h-9h-146
q-17 0 -22 8t-1 16zM388 863l85 -93h107l-57 134zM401 290h76l-22 105z" />
    <glyph glyph-name="Aacute" unicode="&#xc1;" horiz-adv-x="799" 
d="M-32 10l397 701q8 15 26 15h238q17 0 21 -16l184 -701q0 -1 1 -3.5t0.5 -8.5t-2.5 -10.5t-9.5 -8t-18.5 -3.5h-247q-17 0 -21 17l-17 82h-228l-42 -83q-8 -16 -26 -16h-238q0 1 -4 0t-8.5 1t-8.5 5t-3.5 10.5t6.5 18.5zM31 25h183l42 83q8 16 26 16h263q18 0 21 -17
l17 -82h192l-170 651h-205zM340 273l103 205q6 12 13.5 16.5t13 2.5t10.5 -6t8 -9l3 -4l42 -205q4 -16 -3 -24.5t-16 -8.5h-9h-146q-17 0 -22 8t-1 16zM382 757l135 189q12 18 31 12l181 -60q5 -1 9.5 -3.5t9.5 -13t-16 -25.5l-155 -129q-9 -7 -18 -7h-160q0 1 -4.5 0
t-9.5 1t-9.5 5t-3 11.5t9.5 19.5zM401 290h76l-22 105zM449 770h107l112 93l-124 41z" />
    <glyph glyph-name="Acircumflex" unicode="&#xc2;" horiz-adv-x="799" 
d="M-32 10l397 701q8 15 26 15h238q17 0 21 -16l184 -701q0 -1 1 -3.5t0.5 -8.5t-2.5 -10.5t-9.5 -8t-18.5 -3.5h-247q-17 0 -21 17l-17 82h-228l-42 -83q-8 -16 -26 -16h-238q0 1 -4 0t-8.5 1t-8.5 5t-3.5 10.5t6.5 18.5zM31 25h183l42 83q8 16 26 16h263q18 0 21 -17
l17 -82h192l-170 651h-205zM287 776l144 162q10 10 22 10h168q12 0 18 -10l98 -162q1 -2 2 -4.5t2.5 -9.5t0 -12t-9 -9.5t-21.5 -4.5h-150q-13 0 -19 11l-27 51l-42 -51q-9 -11 -22 -11h-150q-2 0 -5 0.5t-9.5 2.5t-10 6t-1.5 12t12 19zM340 273l103 205q6 12 13.5 16.5
t13 2.5t10.5 -6t8 -9l3 -4l42 -205q4 -16 -3 -24.5t-16 -8.5h-9h-146q-17 0 -22 8t-1 16zM358 786h87l58 71q12 15 22.5 15t14.5 -8l4 -7l38 -71h86l-67 112h-143zM401 290h76l-22 105z" />
    <glyph glyph-name="Atilde" unicode="&#xc3;" horiz-adv-x="799" 
d="M-32 10l397 701q8 15 26 15h238q17 0 21 -16l184 -701q0 -1 1 -3.5t0.5 -8.5t-2.5 -10.5t-9.5 -8t-18.5 -3.5h-247q-17 0 -21 17l-17 82h-228l-42 -83q-8 -16 -26 -16h-238q0 1 -4 0t-8.5 1t-8.5 5t-3.5 10.5t6.5 18.5zM31 25h183l42 83q8 16 26 16h263q18 0 21 -17
l17 -82h192l-170 651h-205zM292 768q14 99 57 153.5t115 54.5q21 0 40 -5.5t30 -12t21.5 -13.5t12.5 -8q2 6 3 11q1 11 10 18t18 7h135q11 0 17.5 -8t4.5 -17q-29 -207 -171 -207q-21 0 -40.5 5.5t-30.5 12t-21.5 13.5t-12.5 8q-1 -2 -1.5 -6t-0.5 -6q-1 -11 -10.5 -18
t-18.5 -7h-136q-11 0 -17 8t-4 17zM340 273l103 205q6 12 13.5 16.5t13 2.5t10.5 -6t8 -9l3 -4l42 -205q4 -16 -3 -24.5t-16 -8.5h-9h-146q-17 0 -22 8t-1 16zM346 793h88q15 38 51 38q24 0 51.5 -20t55.5 -20q43 0 69 29t40 103h-87q-16 -37 -51 -37q-23 0 -51.5 20
t-55.5 20q-43 0 -69.5 -29.5t-40.5 -103.5zM401 290h76l-22 105z" />
    <glyph glyph-name="Adieresis" unicode="&#xc4;" horiz-adv-x="799" 
d="M-32 10l397 701q8 15 26 15h238q17 0 21 -16l184 -701q0 -1 1 -3.5t0.5 -8.5t-2.5 -10.5t-9.5 -8t-18.5 -3.5h-247q-17 0 -21 17l-17 82h-228l-42 -83q-8 -16 -26 -16h-238q0 1 -4 0t-8.5 1t-8.5 5t-3.5 10.5t6.5 18.5zM31 25h183l42 83q8 16 26 16h263q18 0 21 -17
l17 -82h192l-170 651h-205zM303 852q8 50 45.5 83.5t87.5 33.5t78.5 -33.5t20.5 -83.5t-45.5 -83t-87.5 -33t-78.5 33t-20.5 83zM340 273l103 205q6 12 13.5 16.5t13 2.5t10.5 -6t8 -9l3 -4l42 -205q4 -16 -3 -24.5t-16 -8.5h-9h-146q-17 0 -22 8t-1 16zM353 852
q-5 -30 10 -48t46 -18t51 18t25 48q5 31 -10.5 49t-46.5 18t-50.5 -18t-24.5 -49zM401 290h76l-22 105zM511 852q8 50 45.5 83.5t87.5 33.5t78.5 -33.5t20.5 -83.5t-45.5 -83t-87.5 -33t-78.5 33t-20.5 83zM561 852q-5 -30 10 -48t46 -18t51 18t25 48q5 31 -10.5 49
t-46.5 18t-50.5 -18t-24.5 -49z" />
    <glyph glyph-name="Aring" unicode="&#xc5;" horiz-adv-x="799" 
d="M-32 10l390 688q-8 27 -3 63q10 67 62.5 113t119.5 46t106.5 -46t29.5 -113q-4 -31 -21 -61l182 -691q0 -1 1 -3.5t0.5 -8.5t-2.5 -10.5t-9.5 -8t-18.5 -3.5h-247q-17 0 -21 17l-17 82h-228l-42 -83q-8 -16 -26 -16h-238q0 1 -4 0t-8.5 1t-8.5 5t-3.5 10.5t6.5 18.5z
M31 25h183l42 83q8 16 26 16h263q18 0 21 -17l17 -82h192l-175 667q-3 9 4 20q15 25 19 49q7 46 -20.5 77.5t-73.5 31.5t-81.5 -31.5t-42.5 -77.5q-5 -30 4 -50q4 -11 -2 -22zM340 273l103 205q6 12 13.5 16.5t13 2.5t10.5 -6t8 -9l3 -4l42 -205q4 -16 -3 -24.5t-16 -8.5h-9
h-146q-17 0 -22 8t-1 16zM401 290h76l-22 105zM447 761q4 28 26 47.5t50 19.5t45 -19.5t13 -47.5t-26.5 -47.5t-50.5 -19.5t-44.5 19.5t-12.5 47.5zM497 761q-3 -17 14 -17t20 17t-15 17q-16 0 -19 -17z" />
    <glyph glyph-name="AE" unicode="&#xc6;" horiz-adv-x="1147" 
d="M-30 12l491 701q10 13 24 13h720q11 0 17 -8t4 -17l-25 -176q-1 -11 -10.5 -18t-18.5 -7h-336l-5 -36h303q11 0 17 -8t4 -17l-25 -176q-1 -11 -10.5 -18t-18.5 -7h-303l-5 -37h345q11 0 17 -8t4 -17l-25 -176q-1 -11 -10.5 -18t-18.5 -7h-602q-11 0 -17 8t-4 17l14 97
h-176l-69 -108q-8 -14 -25 -14h-240q0 1 -4.5 0t-9.5 1t-8.5 5t-2.5 11.5t9 19.5zM36 25h182l69 108q9 14 24 14h217q9 0 16 -7t6 -18l-14 -97h552l18 126h-345q-9 0 -16 7t-6 18l13 87q2 9 10 17t19 8h303l18 126h-303q-9 0 -16 7t-6 18l13 86q2 9 10 17t18 8h336l18 126
h-680zM394 299l151 237q9 14 24 14h17q9 0 16 -7t6 -18l-34 -237q-2 -9 -10 -17t-19 -8h-134q-20 0 -24 9t1 18zM458 313h69l20 139z" />
    <glyph glyph-name="Ccedilla" unicode="&#xc7;" horiz-adv-x="688" 
d="M41 352q24 165 155 273t305 108q86 0 166 -36.5t128 -99.5q13 -16 -4 -33l-157 -159q-3 -4 -8.5 -7.5t-15 -3t-15.5 11.5q-23 38 -58 61t-68 23q-52 0 -91.5 -37t-48.5 -98t19.5 -99t80.5 -38q31 0 73.5 19.5t78.5 52.5q8 7 18 7.5t18 -7.5l113 -143q5 -7 4 -17t-8 -17
q-115 -109 -265 -139l-9 -14q52 -35 43 -94q-9 -63 -61.5 -100.5t-124.5 -37.5q-59 0 -110 38q-15 12 -4 31l53 90q3 6 10 11q-18 12 -4 33l30 45q-130 30 -196.5 132.5t-46.5 243.5zM91 352q-19 -132 47.5 -223.5t192.5 -109.5q17 -2 20.5 -11.5t-1.5 -17.5l-5 -8l-23 -33
q24 -2 40.5 -17.5t12.5 -41.5t-24.5 -42t-46.5 -16q-12 0 -30 7l-24 -42q36 -19 66 -19q57 0 90.5 24t38.5 64q2 18 -8.5 34.5t-32.5 24.5q-26 10 -9 36l32 47q9 12 20 13q126 22 228 109l-85 107q-88 -69 -168 -69q-74 0 -114 53.5t-29 133.5q11 79 67 132t130 53
q85 0 147 -80l118 119q-43 47 -111 75.5t-137 28.5q-155 0 -268 -93.5t-134 -237.5zM288 -103q9 -15 23 -15q12 0 14 8q0 9 -17 9q-4 0 -20 -2z" />
    <glyph glyph-name="Egrave" unicode="&#xc8;" 
d="M25 0l101 701q1 11 10.5 18t18.5 7h593q11 0 17 -8t4 -17l-25 -176q-1 -11 -10.5 -18t-18.5 -7h-336l-5 -36h303q11 0 17 -8t4 -17l-25 -176q-1 -11 -10.5 -18t-18.5 -7h-303l-5 -37h345q11 0 17 -8t4 -17l-25 -176q-1 -11 -10.5 -18t-18.5 -7h-602q-11 0 -17 8t-4 17z
M79 25h552l18 126h-345q-9 0 -16 7t-6 18l13 87q2 9 10 17t19 8h303l18 126h-303q-9 0 -16 7t-6 18l13 86q2 9 9.5 17t18.5 8h336l18 126h-543zM269 856l-3 3t-4.5 7.5t-2 10.5t6.5 11t19 10l198 60q20 7 28 -12l80 -189l2 -4t2 -8.5t-1 -11.5t-9.5 -9t-20.5 -4h-160
q-9 0 -16 7zM336 863l85 -93h107l-57 134z" />
    <glyph glyph-name="Eacute" unicode="&#xc9;" 
d="M25 0l101 701q1 11 10.5 18t18.5 7h593q11 0 17 -8t4 -17l-25 -176q-1 -11 -10.5 -18t-18.5 -7h-336l-5 -36h303q11 0 17 -8t4 -17l-25 -176q-1 -11 -10.5 -18t-18.5 -7h-303l-5 -37h345q11 0 17 -8t4 -17l-25 -176q-1 -11 -10.5 -18t-18.5 -7h-602q-11 0 -17 8t-4 17z
M79 25h552l18 126h-345q-9 0 -16 7t-6 18l13 87q2 9 10 17t19 8h303l18 126h-303q-9 0 -16 7t-6 18l13 86q2 9 9.5 17t18.5 8h336l18 126h-543zM330 757l135 189q12 18 31 12l181 -60q5 -1 9.5 -3.5t9.5 -13t-16 -25.5l-155 -129q-9 -7 -18 -7h-160q0 1 -4.5 0t-9.5 1
t-9.5 5t-3 11.5t9.5 19.5zM397 770h107l112 93l-124 41z" />
    <glyph glyph-name="Ecircumflex" unicode="&#xca;" 
d="M25 0l101 701q1 11 10.5 18t18.5 7h593q11 0 17 -8t4 -17l-25 -176q-1 -11 -10.5 -18t-18.5 -7h-336l-5 -36h303q11 0 17 -8t4 -17l-25 -176q-1 -11 -10.5 -18t-18.5 -7h-303l-5 -37h345q11 0 17 -8t4 -17l-25 -176q-1 -11 -10.5 -18t-18.5 -7h-602q-11 0 -17 8t-4 17z
M79 25h552l18 126h-345q-9 0 -16 7t-6 18l13 87q2 9 10 17t19 8h303l18 126h-303q-9 0 -16 7t-6 18l13 86q2 9 9.5 17t18.5 8h336l18 126h-543zM235 776l144 162q10 10 22 10h168q12 0 18 -10l98 -162q1 -2 2 -4.5t2.5 -9.5t0 -12t-9 -9.5t-21.5 -4.5h-150q-13 0 -19 11
l-27 51l-42 -51q-9 -11 -22 -11h-150q-2 0 -5 0.5t-9.5 2.5t-10 6t-1.5 12t12 19zM306 786h87l58 71q12 15 22.5 15t14.5 -8l4 -7l38 -71h86l-67 112h-143z" />
    <glyph glyph-name="Edieresis" unicode="&#xcb;" 
d="M25 0l101 701q1 11 10.5 18t18.5 7h593q11 0 17 -8t4 -17l-25 -176q-1 -11 -10.5 -18t-18.5 -7h-336l-5 -36h303q11 0 17 -8t4 -17l-25 -176q-1 -11 -10.5 -18t-18.5 -7h-303l-5 -37h345q11 0 17 -8t4 -17l-25 -176q-1 -11 -10.5 -18t-18.5 -7h-602q-11 0 -17 8t-4 17z
M79 25h552l18 126h-345q-9 0 -16 7t-6 18l13 87q2 9 10 17t19 8h303l18 126h-303q-9 0 -16 7t-6 18l13 86q2 9 9.5 17t18.5 8h336l18 126h-543zM251 852q8 50 45.5 83.5t87.5 33.5t78.5 -33.5t20.5 -83.5t-45.5 -83t-87.5 -33t-78.5 33t-20.5 83zM301 852q-5 -30 10 -48
t46 -18t51 18t25 48q5 31 -10.5 49t-46.5 18t-50.5 -18t-24.5 -49zM459 852q8 50 45.5 83.5t87.5 33.5t78.5 -33.5t20.5 -83.5t-45.5 -83t-87.5 -33t-78.5 33t-20.5 83zM509 852q-5 -30 10 -48t46 -18t51 18t25 48q5 31 -10.5 49t-46.5 18t-50.5 -18t-24.5 -49z" />
    <glyph glyph-name="Igrave" unicode="&#xcc;" horiz-adv-x="332" 
d="M25 0l101 701q1 11 10.5 18t18.5 7h232q11 0 17 -8t4 -17l-101 -701q-1 -11 -10.5 -18t-18.5 -7h-232q-11 0 -17 8t-4 17zM79 25h182l93 651h-182zM87 856l-3 3t-4.5 7.5t-2 10.5t6.5 11t19 10l198 60q20 7 28 -12l80 -189l2 -4t2 -8.5t-1 -11.5t-9.5 -9t-20.5 -4h-160
q-9 0 -16 7zM154 863l85 -93h107l-57 134z" />
    <glyph glyph-name="Iacute" unicode="&#xcd;" horiz-adv-x="332" 
d="M25 0l101 701q1 11 10.5 18t18.5 7h232q11 0 17 -8t4 -17l-101 -701q-1 -11 -10.5 -18t-18.5 -7h-232q-11 0 -17 8t-4 17zM79 25h182l93 651h-182zM148 757l135 189q12 18 31 12l181 -60q5 -1 9.5 -3.5t9.5 -13t-16 -25.5l-155 -129q-9 -7 -18 -7h-160q0 1 -4.5 0t-9.5 1
t-9.5 5t-3 11.5t9.5 19.5zM215 770h107l112 93l-124 41z" />
    <glyph glyph-name="Icircumflex" unicode="&#xce;" horiz-adv-x="332" 
d="M25 0l101 701q1 11 10.5 18t18.5 7h232q11 0 17 -8t4 -17l-101 -701q-1 -11 -10.5 -18t-18.5 -7h-232q-11 0 -17 8t-4 17zM53 776l144 162q10 10 22 10h168q12 0 18 -10l98 -162q1 -2 2 -4.5t2.5 -9.5t0 -12t-9 -9.5t-21.5 -4.5h-150q-13 0 -19 11l-27 51l-42 -51
q-9 -11 -22 -11h-150q-2 0 -5 0.5t-9.5 2.5t-10 6t-1.5 12t12 19zM79 25h182l93 651h-182zM124 786h87l58 71q12 15 22.5 15t14.5 -8l4 -7l38 -71h86l-67 112h-143z" />
    <glyph glyph-name="Idieresis" unicode="&#xcf;" horiz-adv-x="332" 
d="M25 0l101 701q1 11 10.5 18t18.5 7h232q11 0 17 -8t4 -17l-101 -701q-1 -11 -10.5 -18t-18.5 -7h-232q-11 0 -17 8t-4 17zM69 852q8 50 45.5 83.5t87.5 33.5t78.5 -33.5t20.5 -83.5t-45.5 -83t-87.5 -33t-78.5 33t-20.5 83zM79 25h182l93 651h-182zM119 852
q-5 -30 10 -48t46 -18t51 18t25 48q5 31 -10.5 49t-46.5 18t-50.5 -18t-24.5 -49zM277 852q8 50 45.5 83.5t87.5 33.5t78.5 -33.5t20.5 -83.5t-45.5 -83t-87.5 -33t-78.5 33t-20.5 83zM327 852q-5 -30 10 -48t46 -18t51 18t25 48q5 31 -10.5 49t-46.5 18t-50.5 -18
t-24.5 -49z" />
    <glyph glyph-name="Eth" unicode="&#xd0;" horiz-adv-x="802" 
d="M17 291l17 119q1 11 10.5 18t18.5 7h68l38 266q1 11 10.5 18t18.5 7h313q182 0 279.5 -102.5t72.5 -272.5t-154 -273t-316 -103h-304q-11 0 -17 8t-4 17l38 266h-68q-11 0 -17 8t-4 17zM71 316h68q9 0 15.5 -7t5.5 -18l-38 -266h279q169 0 279.5 88.5t132.5 237.5
t-61.5 237t-248.5 88h-288l-38 -266q-2 -9 -10 -17t-19 -8h-68zM326 180l16 111q2 9 10 17t19 8h98l9 69h-98q-9 0 -15.5 7t-5.5 18l16 111q2 9 10 17t19 8h76q78 0 117.5 -55t27.5 -142q-12 -85 -64 -139.5t-127 -54.5h-87q-9 0 -15.5 7t-5.5 18zM380 205h62q51 0 87 37.5
t46 106.5t-18 108t-85 39h-51l-8 -61h98q11 0 17 -8t4 -17l-17 -119q-1 -11 -10.5 -18t-18.5 -7h-98z" />
    <glyph glyph-name="Ntilde" unicode="&#xd1;" horiz-adv-x="781" 
d="M25 0l101 701q1 11 10.5 18t18.5 7h194q12 0 18 -10l189 -302l41 287q1 11 10.5 18t18.5 7h210q11 0 17 -8t4 -17l-101 -701q-1 -11 -10.5 -18t-18.5 -7h-194q-12 0 -18 10l-188 300l-41 -285q-1 -11 -10.5 -18t-18.5 -7h-211q-11 0 -17 8t-4 17zM79 25h161l48 333
q3 20 15 24t22 -2l10 -7l218 -348h157l93 651h-160l-48 -335q-3 -20 -15 -24t-22 3l-10 6l-219 350h-157zM283 768q14 99 57 153.5t115 54.5q21 0 40 -5.5t30 -12t21.5 -13.5t12.5 -8q2 6 3 11q1 11 10 18t18 7h135q11 0 17.5 -8t4.5 -17q-29 -207 -171 -207
q-21 0 -40.5 5.5t-30.5 12t-21.5 13.5t-12.5 8q-1 -2 -1.5 -6t-0.5 -6q-1 -11 -10.5 -18t-18.5 -7h-136q-11 0 -17 8t-4 17zM337 793h88q15 38 51 38q24 0 51.5 -20t55.5 -20q43 0 69 29t40 103h-87q-16 -37 -51 -37q-23 0 -51.5 20t-55.5 20q-43 0 -69.5 -29.5
t-40.5 -103.5z" />
    <glyph glyph-name="Ograve" unicode="&#xd2;" horiz-adv-x="800" 
d="M41 351q24 167 156 274.5t309 107.5t278 -108t77 -274q-24 -167 -156.5 -276.5t-309.5 -109.5t-277.5 109t-76.5 277zM91 351q-21 -146 66 -241t245 -95t273 95.5t136 240.5q21 144 -67 238t-246 94t-272 -93.5t-135 -238.5zM278 350q12 80 71 135t132 55q72 0 112 -54.5
t29 -135.5t-67.5 -136.5t-128.5 -55.5q-73 0 -116.5 56t-31.5 136zM311 856l-3 3t-4.5 7.5t-2 10.5t6.5 11t19 10l198 60q20 7 28 -12l80 -189l2 -4t2 -8.5t-1 -11.5t-9.5 -9t-20.5 -4h-160q-9 0 -16 7zM328 350q-9 -61 23 -101.5t82 -40.5q49 0 89.5 40t49.5 102t-20 101
t-78 39q-51 0 -94 -39.5t-52 -100.5zM378 863l85 -93h107l-57 134z" />
    <glyph glyph-name="Oacute" unicode="&#xd3;" horiz-adv-x="800" 
d="M41 351q24 167 156 274.5t309 107.5t278 -108t77 -274q-24 -167 -156.5 -276.5t-309.5 -109.5t-277.5 109t-76.5 277zM91 351q-21 -146 66 -241t245 -95t273 95.5t136 240.5q21 144 -67 238t-246 94t-272 -93.5t-135 -238.5zM278 350q12 80 71 135t132 55q72 0 112 -54.5
t29 -135.5t-67.5 -136.5t-128.5 -55.5q-73 0 -116.5 56t-31.5 136zM328 350q-9 -61 23 -101.5t82 -40.5q49 0 89.5 40t49.5 102t-20 101t-78 39q-51 0 -94 -39.5t-52 -100.5zM372 757l135 189q12 18 31 12l181 -60q5 -1 9.5 -3.5t9.5 -13t-16 -25.5l-155 -129q-9 -7 -18 -7
h-160q0 1 -4.5 0t-9.5 1t-9.5 5t-3 11.5t9.5 19.5zM439 770h107l112 93l-124 41z" />
    <glyph glyph-name="Ocircumflex" unicode="&#xd4;" horiz-adv-x="800" 
d="M41 351q24 167 156 274.5t309 107.5t278 -108t77 -274q-24 -167 -156.5 -276.5t-309.5 -109.5t-277.5 109t-76.5 277zM91 351q-21 -146 66 -241t245 -95t273 95.5t136 240.5q21 144 -67 238t-246 94t-272 -93.5t-135 -238.5zM277 776l144 162q10 10 22 10h168
q12 0 18 -10l98 -162q1 -2 2 -4.5t2.5 -9.5t0 -12t-9 -9.5t-21.5 -4.5h-150q-13 0 -19 11l-27 51l-42 -51q-9 -11 -22 -11h-150q-2 0 -5 0.5t-9.5 2.5t-10 6t-1.5 12t12 19zM278 350q12 80 71 135t132 55q72 0 112 -54.5t29 -135.5t-67.5 -136.5t-128.5 -55.5
q-73 0 -116.5 56t-31.5 136zM328 350q-9 -61 23 -101.5t82 -40.5q49 0 89.5 40t49.5 102t-20 101t-78 39q-51 0 -94 -39.5t-52 -100.5zM348 786h87l58 71q12 15 22.5 15t14.5 -8l4 -7l38 -71h86l-67 112h-143z" />
    <glyph glyph-name="Otilde" unicode="&#xd5;" horiz-adv-x="800" 
d="M41 351q24 167 156 274.5t309 107.5t278 -108t77 -274q-24 -167 -156.5 -276.5t-309.5 -109.5t-277.5 109t-76.5 277zM91 351q-21 -146 66 -241t245 -95t273 95.5t136 240.5q21 144 -67 238t-246 94t-272 -93.5t-135 -238.5zM278 350q12 80 71 135t132 55q72 0 112 -54.5
t29 -135.5t-67.5 -136.5t-128.5 -55.5q-73 0 -116.5 56t-31.5 136zM282 768q14 99 57 153.5t115 54.5q21 0 40 -5.5t30 -12t21.5 -13.5t12.5 -8q2 6 3 11q1 11 10 18t18 7h135q11 0 17.5 -8t4.5 -17q-29 -207 -171 -207q-21 0 -40.5 5.5t-30.5 12t-21.5 13.5t-12.5 8
q-1 -2 -1.5 -6t-0.5 -6q-1 -11 -10.5 -18t-18.5 -7h-136q-11 0 -17 8t-4 17zM328 350q-9 -61 23 -101.5t82 -40.5q49 0 89.5 40t49.5 102t-20 101t-78 39q-51 0 -94 -39.5t-52 -100.5zM336 793h88q15 38 51 38q24 0 51.5 -20t55.5 -20q43 0 69 29t40 103h-87
q-16 -37 -51 -37q-23 0 -51.5 20t-55.5 20q-43 0 -69.5 -29.5t-40.5 -103.5z" />
    <glyph glyph-name="Odieresis" unicode="&#xd6;" horiz-adv-x="800" 
d="M41 351q24 167 156 274.5t309 107.5t278 -108t77 -274q-24 -167 -156.5 -276.5t-309.5 -109.5t-277.5 109t-76.5 277zM91 351q-21 -146 66 -241t245 -95t273 95.5t136 240.5q21 144 -67 238t-246 94t-272 -93.5t-135 -238.5zM278 350q12 80 71 135t132 55q72 0 112 -54.5
t29 -135.5t-67.5 -136.5t-128.5 -55.5q-73 0 -116.5 56t-31.5 136zM293 852q8 50 45.5 83.5t87.5 33.5t78.5 -33.5t20.5 -83.5t-45.5 -83t-87.5 -33t-78.5 33t-20.5 83zM328 350q-9 -61 23 -101.5t82 -40.5q49 0 89.5 40t49.5 102t-20 101t-78 39q-51 0 -94 -39.5
t-52 -100.5zM343 852q-5 -30 10 -48t46 -18t51 18t25 48q5 31 -10.5 49t-46.5 18t-50.5 -18t-24.5 -49zM501 852q8 50 45.5 83.5t87.5 33.5t78.5 -33.5t20.5 -83.5t-45.5 -83t-87.5 -33t-78.5 33t-20.5 83zM551 852q-5 -30 10 -48t46 -18t51 18t25 48q5 31 -10.5 49
t-46.5 18t-50.5 -18t-24.5 -49z" />
    <glyph glyph-name="multiply" unicode="&#xd7;" horiz-adv-x="520" 
d="M59 198q-6 9 -4 19.5t9 16.5l109 95l-82 95q-6 9 -3.5 19t9.5 17l113 99q9 8 19.5 7.5t15.5 -7.5l82 -96l109 96q9 8 19.5 7.5t15.5 -7.5l85 -99q6 -9 4 -19.5t-9 -16.5l-109 -95l81 -95q6 -9 4 -19.5t-9 -16.5l-113 -99q-9 -8 -19.5 -7.5t-15.5 7.5l-82 96l-109 -96
q-9 -8 -19.5 -7.5t-15.5 7.5zM114 216l55 -64l109 96q7 7 17.5 7.5t17.5 -7.5l82 -96l73 64l-82 95q-5 5 -4 16.5t9 19.5l109 95l-54 64l-109 -96q-7 -7 -18 -7.5t-18 7.5l-81 96l-73 -64l82 -95q5 -5 4 -16.5t-9 -19.5z" />
    <glyph glyph-name="Oslash" unicode="&#xd8;" horiz-adv-x="800" 
d="M41 351q24 167 156 274.5t309 107.5q5 0 15 -0.5t13 -0.5l42 82q8 17 26 17h127q0 -1 3.5 0t8 -1t8.5 -4.5t3.5 -10t-5.5 -17.5l-53 -106q93 -48 138 -138t29 -203q-24 -167 -156.5 -276.5t-309.5 -109.5q-26 0 -66 4l-42 -82q-8 -16 -26 -16h-127q0 1 -3.5 0t-8 1
t-8.5 5t-3.5 10.5t5.5 17.5l61 119q-79 51 -115 136.5t-21 190.5zM91 351q-14 -97 21.5 -173.5t111.5 -119.5q7 -4 9 -13t-2 -18l-54 -106h74l43 85q11 20 30 16q44 -7 78 -7q158 0 273 95.5t136 240.5q15 105 -29 185.5t-134 118.5q-20 9 -10 31l48 95h-74l-42 -83
q-9 -19 -28 -17q-30 2 -44 2q-158 0 -272 -93.5t-135 -238.5zM278 350q10 71 58.5 123.5t112.5 63.5q21 4 26.5 -4.5t0.5 -18.5l-4 -10l-131 -260q-6 -13 -13 -18.5t-12.5 -3.5t-10 5t-7.5 7l-2 4q-26 51 -18 112zM327 321l73 146q-62 -41 -72 -117q-1 -10 -1 -29zM388 192
l150 298q8 17 18.5 19.5t17.5 -3.5l6 -5q56 -56 42 -151q-11 -81 -67.5 -136.5t-128.5 -55.5q-14 0 -23 1q-27 4 -15 33zM450 209q45 7 79.5 45.5t42.5 95.5q7 46 -10 83z" />
    <glyph glyph-name="Ugrave" unicode="&#xd9;" horiz-adv-x="753" 
d="M58 297l58 404q1 11 10.5 18t18.5 7h232q11 0 17 -8t4 -17l-58 -404q-6 -41 15 -65t55 -24q33 0 58 23.5t31 65.5l58 404q1 11 10.5 18t18.5 7h232q11 0 17 -8t4 -17l-58 -404q-22 -150 -134 -241t-273 -91q-162 0 -250 91t-66 241zM108 297q-19 -129 55 -205.5
t218 -76.5q143 0 237 76.5t113 205.5l54 379h-182l-54 -379q-9 -61 -50.5 -100t-95.5 -39q-55 0 -88.5 39.5t-24.5 99.5l54 379h-182zM298 856l-3 3t-4.5 7.5t-2 10.5t6.5 11t19 10l198 60q20 7 28 -12l80 -189l2 -4t2 -8.5t-1 -11.5t-9.5 -9t-20.5 -4h-160q-9 0 -16 7z
M365 863l85 -93h107l-57 134z" />
    <glyph glyph-name="Uacute" unicode="&#xda;" horiz-adv-x="753" 
d="M58 297l58 404q1 11 10.5 18t18.5 7h232q11 0 17 -8t4 -17l-58 -404q-6 -41 15 -65t55 -24q33 0 58 23.5t31 65.5l58 404q1 11 10.5 18t18.5 7h232q11 0 17 -8t4 -17l-58 -404q-22 -150 -134 -241t-273 -91q-162 0 -250 91t-66 241zM108 297q-19 -129 55 -205.5
t218 -76.5q143 0 237 76.5t113 205.5l54 379h-182l-54 -379q-9 -61 -50.5 -100t-95.5 -39q-55 0 -88.5 39.5t-24.5 99.5l54 379h-182zM359 757l135 189q12 18 31 12l181 -60q5 -1 9.5 -3.5t9.5 -13t-16 -25.5l-155 -129q-9 -7 -18 -7h-160q0 1 -4.5 0t-9.5 1t-9.5 5t-3 11.5
t9.5 19.5zM426 770h107l112 93l-124 41z" />
    <glyph glyph-name="Ucircumflex" unicode="&#xdb;" horiz-adv-x="753" 
d="M58 297l58 404q1 11 10.5 18t18.5 7h232q11 0 17 -8t4 -17l-58 -404q-6 -41 15 -65t55 -24q33 0 58 23.5t31 65.5l58 404q1 11 10.5 18t18.5 7h232q11 0 17 -8t4 -17l-58 -404q-22 -150 -134 -241t-273 -91q-162 0 -250 91t-66 241zM108 297q-19 -129 55 -205.5
t218 -76.5q143 0 237 76.5t113 205.5l54 379h-182l-54 -379q-9 -61 -50.5 -100t-95.5 -39q-55 0 -88.5 39.5t-24.5 99.5l54 379h-182zM264 776l144 162q10 10 22 10h168q12 0 18 -10l98 -162q1 -2 2 -4.5t2.5 -9.5t0 -12t-9 -9.5t-21.5 -4.5h-150q-14 0 -19 11l-27 51
l-42 -51q-9 -11 -22 -11h-150q-2 0 -5 0.5t-9.5 2.5t-10 6t-1.5 12t12 19zM335 786h87l58 71q12 15 22.5 15t14.5 -8l4 -7l38 -71h86l-67 112h-143z" />
    <glyph glyph-name="Udieresis" unicode="&#xdc;" horiz-adv-x="753" 
d="M58 297l58 404q1 11 10.5 18t18.5 7h232q11 0 17 -8t4 -17l-58 -404q-6 -41 15 -65t55 -24q33 0 58 23.5t31 65.5l58 404q1 11 10.5 18t18.5 7h232q11 0 17 -8t4 -17l-58 -404q-22 -150 -134 -241t-273 -91q-162 0 -250 91t-66 241zM108 297q-19 -129 55 -205.5
t218 -76.5q143 0 237 76.5t113 205.5l54 379h-182l-54 -379q-9 -61 -50.5 -100t-95.5 -39q-55 0 -88.5 39.5t-24.5 99.5l54 379h-182zM280 852q8 50 45.5 83.5t87.5 33.5t78.5 -33.5t20.5 -83.5t-45.5 -83t-87.5 -33t-78.5 33t-20.5 83zM330 852q-5 -30 10 -48t46 -18t51 18
t25 48q5 31 -10.5 49t-46.5 18t-50.5 -18t-24.5 -49zM488 852q8 50 45.5 83.5t87.5 33.5t78.5 -33.5t20.5 -83.5t-45.5 -83t-87.5 -33t-78.5 33t-20.5 83zM538 852q-5 -30 10 -48t46 -18t51 18t25 48q5 31 -10.5 49t-46.5 18t-50.5 -18t-24.5 -49z" />
    <glyph glyph-name="Yacute" unicode="&#xdd;" horiz-adv-x="719" 
d="M67 689l-2 4t-1.5 8.5t1.5 11.5t9.5 9t20.5 4h231q15 0 20 -13l86 -227l146 226q9 14 25 14h231q0 -1 4.5 0t9.5 -1t9 -5t3 -11.5t-9 -19.5l-317 -477l-31 -212q-1 -11 -10.5 -18t-18.5 -7h-232q-11 0 -17 8t-4 17l30 207zM129 676l172 -451q2 -7 1 -12l-27 -188h182
l27 193q1 4 5 12l296 446h-174l-166 -256q-12 -20 -23.5 -20t-16.5 10l-5 9l-97 257h-174zM342 757l135 189q12 18 31 12l181 -60q5 -1 9.5 -3.5t9.5 -13t-16 -25.5l-155 -129q-9 -7 -18 -7h-160q0 1 -4.5 0t-9.5 1t-9.5 5t-3 11.5t9.5 19.5zM409 770h107l112 93l-124 41z
" />
    <glyph glyph-name="Thorn" unicode="&#xde;" horiz-adv-x="698" 
d="M25 0l101 701q1 11 10.5 18t18.5 7h232q11 0 17 -8t4 -17l-9 -61h75q143 0 221.5 -74.5t60.5 -198.5q-19 -131 -119 -210.5t-244 -79.5h-75l-11 -77q-1 -11 -10.5 -18t-18.5 -7h-232q-11 0 -17 8t-4 17zM79 25h182l11 77q2 9 10 17t18 8h100q126 0 208 65t98 175
q14 102 -49 162.5t-190 60.5h-100q-9 0 -15.5 7t-5.5 18l8 61h-182zM297 278l23 161q2 9 10 17t19 8h90q42 0 63 -29.5t15 -74.5q-7 -46 -37 -76.5t-72 -30.5h-90q-9 0 -15.5 7t-5.5 18zM351 303h65q43 0 51 57q7 54 -35 54h-65z" />
    <glyph glyph-name="germandbls" unicode="&#xdf;" horiz-adv-x="670" 
d="M15 0l71 496q19 128 115.5 204.5t235.5 76.5q135 0 211.5 -62.5t61.5 -167.5q-12 -85 -82 -155q45 -28 65.5 -74t12.5 -101q-16 -111 -113.5 -176.5t-237.5 -65.5h-47q-16 0 -21 16q-9 -16 -26 -16h-225q-11 0 -17 8t-4 17zM69 25h175l70 488q7 45 34 71t69 26
q41 0 58.5 -26.5t11.5 -70.5q-11 -83 -90 -95l-15 -109q55 -1 84 -21.5t23 -64.5q-13 -88 -133 -90l-15 -108h22q125 0 203 52.5t90 139.5q7 49 -15.5 88t-68.5 56q-12 4 -16.5 10.5t-2.5 12t6 10.5t8 8l4 3q34 24 58.5 63t30.5 79q12 81 -48.5 130.5t-181.5 49.5
t-200 -62.5t-94 -168.5zM314 170q10 13 24 13h23q44 0 59.5 9t18.5 31q3 19 -10 27.5t-57 8.5h-23q-13 0 -20 13zM355 453q10 13 24 13q32 0 43 9t15 38q4 31 -1 39t-26 8q-24 0 -33 -8.5t-13 -38.5z" />
    <glyph glyph-name="agrave" unicode="&#xe0;" horiz-adv-x="613" 
d="M13 162q8 59 41.5 102.5t88.5 65.5q-13 3 -16 16l-28 150q-2 10 3.5 19t15.5 12q157 55 287 55q127 0 193.5 -60t50.5 -168l-51 -354q-1 -11 -10.5 -18t-18.5 -7h-221q-11 0 -17 8t-4 17q-110 -35 -134 -35q-95 0 -144 54.5t-36 142.5zM63 162q-10 -69 25 -108t112 -39
q91 0 142 59q16 16 25.5 12.5t14.5 -15.5l4 -12l-5 -34h171l47 329q12 85 -39 131.5t-162 46.5q-108 0 -245 -43l19 -103q3 0 7 2q87 26 148 26q48 0 75 -21.5t22 -62.5q-1 -11 -9.5 -18.5t-18.5 -7.5h-125q-44 0 -84 -10q-109 -28 -124 -132zM207 702l-3 3t-4.5 7.5
t-2 10.5t6.5 11t19 10l198 60q20 7 28 -12l80 -189l2 -4t2 -8.5t-1 -11.5t-9.5 -9t-20.5 -4h-160q-10 0 -17 7zM224 350q34 4 54 4h87q-15 10 -46 10q-36 0 -95 -14zM227 181q4 31 27.5 50t55.5 19h78q9 0 15.5 -7t5.5 -18l-7 -50q-2 -9 -6 -14q-42 -53 -104 -53
q-33 0 -51 20.5t-14 52.5zM273 709l86 -93h107l-57 134zM277 181q-2 -13 2.5 -18t19.5 -5q29 0 54 25l3 17h-53q-15 0 -19.5 -3.5t-6.5 -15.5z" />
    <glyph glyph-name="aacute" unicode="&#xe1;" horiz-adv-x="613" 
d="M13 162q8 59 41.5 102.5t88.5 65.5q-13 3 -16 16l-28 150q-2 10 3.5 19t15.5 12q157 55 287 55q127 0 193.5 -60t50.5 -168l-51 -354q-1 -11 -10.5 -18t-18.5 -7h-221q-11 0 -17 8t-4 17q-110 -35 -134 -35q-95 0 -144 54.5t-36 142.5zM63 162q-10 -69 25 -108t112 -39
q91 0 142 59q16 16 25.5 12.5t14.5 -15.5l4 -12l-5 -34h171l47 329q12 85 -39 131.5t-162 46.5q-108 0 -245 -43l19 -103q3 0 7 2q87 26 148 26q48 0 75 -21.5t22 -62.5q-1 -11 -9.5 -18.5t-18.5 -7.5h-125q-44 0 -84 -10q-109 -28 -124 -132zM224 350q34 4 54 4h87
q-15 10 -46 10q-36 0 -95 -14zM227 181q4 31 27.5 50t55.5 19h78q9 0 15.5 -7t5.5 -18l-7 -50q-2 -9 -6 -14q-42 -53 -104 -53q-33 0 -51 20.5t-14 52.5zM268 603l134 189q12 18 31 12l182 -60q5 -1 9.5 -3.5t9.5 -13t-16 -25.5l-155 -129q-9 -7 -18 -7h-160q0 1 -4.5 0
t-9.5 1t-9.5 5t-3 11.5t9.5 19.5zM277 181q-2 -13 2.5 -18t19.5 -5q29 0 54 25l3 17h-53q-15 0 -19.5 -3.5t-6.5 -15.5zM335 616h107l112 93l-124 41z" />
    <glyph glyph-name="acircumflex" unicode="&#xe2;" horiz-adv-x="613" 
d="M13 162q8 59 41.5 102.5t88.5 65.5q-13 3 -16 16l-28 150q-2 10 3.5 19t15.5 12q157 55 287 55q127 0 193.5 -60t50.5 -168l-51 -354q-1 -11 -10.5 -18t-18.5 -7h-221q-11 0 -17 8t-4 17q-110 -35 -134 -35q-95 0 -144 54.5t-36 142.5zM63 162q-10 -69 25 -108t112 -39
q91 0 142 59q16 16 25.5 12.5t14.5 -15.5l4 -12l-5 -34h171l47 329q12 85 -39 131.5t-162 46.5q-108 0 -245 -43l19 -103q3 0 7 2q87 26 148 26q48 0 75 -21.5t22 -62.5q-1 -11 -9.5 -18.5t-18.5 -7.5h-125q-44 0 -84 -10q-109 -28 -124 -132zM173 622l144 162q10 10 21 10
h168q13 0 19 -10l98 -162q1 -2 2 -4.5t2.5 -9.5t0 -12t-9 -9.5t-21.5 -4.5h-150q-13 0 -19 11l-27 51l-42 -51q-9 -11 -22 -11h-150q-2 0 -5 0.5t-9.5 2.5t-10 6t-1.5 12t12 19zM224 350q34 4 54 4h87q-15 10 -46 10q-36 0 -95 -14zM227 181q4 31 27.5 50t55.5 19h78
q9 0 15.5 -7t5.5 -18l-7 -50q-2 -9 -6 -14q-42 -53 -104 -53q-33 0 -51 20.5t-14 52.5zM244 632h87l58 71q12 15 22.5 15t14.5 -8l4 -7l37 -71h87l-67 112h-143zM277 181q-2 -13 2.5 -18t19.5 -5q29 0 54 25l3 17h-53q-15 0 -19.5 -3.5t-6.5 -15.5z" />
    <glyph glyph-name="atilde" unicode="&#xe3;" horiz-adv-x="613" 
d="M13 162q8 59 41.5 102.5t88.5 65.5q-13 3 -16 16l-28 150q-2 10 3.5 19t15.5 12q157 55 287 55q127 0 193.5 -60t50.5 -168l-51 -354q-1 -11 -10.5 -18t-18.5 -7h-221q-11 0 -17 8t-4 17q-110 -35 -134 -35q-95 0 -144 54.5t-36 142.5zM63 162q-10 -69 25 -108t112 -39
q91 0 142 59q16 16 25.5 12.5t14.5 -15.5l4 -12l-5 -34h171l47 329q12 85 -39 131.5t-162 46.5q-108 0 -245 -43l19 -103q3 0 7 2q87 26 148 26q48 0 75 -21.5t22 -62.5q-1 -11 -9.5 -18.5t-18.5 -7.5h-125q-44 0 -84 -10q-109 -28 -124 -132zM177 614q14 99 57 153.5
t115 54.5q21 0 40.5 -5.5t30.5 -12t21.5 -13.5t12.5 -8q1 2 1 6q1 3 1 5q1 11 10.5 18t18.5 7h135q11 0 17 -8t4 -17q-29 -207 -170 -207q-21 0 -40.5 5.5t-30.5 12t-21.5 13.5t-12.5 8q-2 -4 -3 -12q-1 -11 -10 -18t-18 -7h-136q-11 0 -17.5 8t-4.5 17zM224 350q34 4 54 4
h87q-15 10 -46 10q-36 0 -95 -14zM227 181q4 31 27.5 50t55.5 19h78q9 0 15.5 -7t5.5 -18l-7 -50q-2 -9 -6 -14q-42 -53 -104 -53q-33 0 -51 20.5t-14 52.5zM232 639h88q15 38 51 38q24 0 51.5 -20t55.5 -20q43 0 69 29t40 103h-87q-16 -37 -52 -37q-23 0 -51 20t-55 20
q-43 0 -69.5 -29.5t-40.5 -103.5zM277 181q-2 -13 2.5 -18t19.5 -5q29 0 54 25l3 17h-53q-15 0 -19.5 -3.5t-6.5 -15.5z" />
    <glyph glyph-name="adieresis" unicode="&#xe4;" horiz-adv-x="613" 
d="M13 162q8 59 41.5 102.5t88.5 65.5q-13 3 -16 16l-28 150q-2 10 3.5 19t15.5 12q157 55 287 55q127 0 193.5 -60t50.5 -168l-51 -354q-1 -11 -10.5 -18t-18.5 -7h-221q-11 0 -17 8t-4 17q-110 -35 -134 -35q-95 0 -144 54.5t-36 142.5zM63 162q-10 -69 25 -108t112 -39
q91 0 142 59q16 16 25.5 12.5t14.5 -15.5l4 -12l-5 -34h171l47 329q12 85 -39 131.5t-162 46.5q-108 0 -245 -43l19 -103q3 0 7 2q87 26 148 26q48 0 75 -21.5t22 -62.5q-1 -11 -9.5 -18.5t-18.5 -7.5h-125q-44 0 -84 -10q-109 -28 -124 -132zM189 698q8 51 45 84t87 33
t78.5 -33.5t21.5 -83.5q-8 -50 -45.5 -83t-87.5 -33t-78.5 33t-20.5 83zM224 350q34 4 54 4h87q-15 10 -46 10q-36 0 -95 -14zM227 181q4 31 27.5 50t55.5 19h78q9 0 15.5 -7t5.5 -18l-7 -50q-2 -9 -6 -14q-42 -53 -104 -53q-33 0 -51 20.5t-14 52.5zM239 698q-5 -30 10 -48
t46 -18t51 18t25 48q5 31 -10.5 49t-46.5 18t-50.5 -18t-24.5 -49zM277 181q-2 -13 2.5 -18t19.5 -5q29 0 54 25l3 17h-53q-15 0 -19.5 -3.5t-6.5 -15.5zM397 698q8 51 45 84t87 33t78.5 -33.5t21.5 -83.5q-8 -50 -45.5 -83t-87.5 -33t-78.5 33t-20.5 83zM447 698
q-5 -30 10 -48t46 -18t51 18t25 48q5 31 -10.5 49t-46.5 18t-50.5 -18t-24.5 -49z" />
    <glyph glyph-name="aring" unicode="&#xe5;" horiz-adv-x="613" 
d="M13 162q8 59 41.5 102.5t88.5 65.5q-13 3 -16 16l-28 150q-2 10 3.5 19t15.5 12q157 55 287 55q127 0 193.5 -60t50.5 -168l-51 -354q-1 -11 -10.5 -18t-18.5 -7h-221q-11 0 -17 8t-4 17q-110 -35 -134 -35q-95 0 -144 54.5t-36 142.5zM63 162q-10 -69 25 -108t112 -39
q91 0 142 59q16 16 25.5 12.5t14.5 -15.5l4 -12l-5 -34h171l47 329q12 85 -39 131.5t-162 46.5q-108 0 -245 -43l19 -103q3 0 7 2q87 26 148 26q48 0 75 -21.5t22 -62.5q-1 -11 -9.5 -18.5t-18.5 -7.5h-125q-44 0 -84 -10q-109 -28 -124 -132zM224 350q34 4 54 4h87
q-15 10 -46 10q-36 0 -95 -14zM227 181q4 31 27.5 50t55.5 19h78q9 0 15.5 -7t5.5 -18l-7 -50q-2 -9 -6 -14q-42 -53 -104 -53q-33 0 -51 20.5t-14 52.5zM260 703q9 62 59 105.5t112 43.5t99 -43.5t28 -105.5t-58.5 -105.5t-111.5 -43.5t-99.5 43.5t-28.5 105.5zM277 181
q-2 -13 2.5 -18t19.5 -5q29 0 54 25l3 17h-53q-15 0 -19.5 -3.5t-6.5 -15.5zM310 703q-6 -41 19 -70t66 -29t74 29t39 70t-18.5 70t-65.5 29t-74.5 -29t-39.5 -70zM345 703q4 27 25.5 45.5t48.5 18.5t42.5 -18.5t11.5 -45.5t-25 -45.5t-48 -18.5t-43 18.5t-12 45.5zM395 703
q-2 -14 12 -14t16 14t-12 14t-16 -14z" />
    <glyph glyph-name="ae" unicode="&#xe6;" horiz-adv-x="958" 
d="M13 162q8 59 41.5 102.5t88.5 65.5q-13 3 -16 16l-28 150q-2 10 4 19.5t16 12.5q156 54 287 54q107 0 169 -40q69 38 159 38q4 0 12 -0.5t12 -0.5q143 -8 208 -105.5t33 -251.5q-2 -10 -10.5 -17t-17.5 -7h-110l77 -88q6 -8 5 -18t-9 -17q-113 -108 -283 -108
q-141 0 -207 85q-88 -88 -229 -88q-104 0 -159.5 54t-42.5 144zM63 162q-10 -68 31 -108t128 -40q138 0 208 92q12 16 22.5 16t15.5 -8l4 -7q50 -90 186 -90q133 0 225 75l-71 81q-59 -40 -117 -40q-41 0 -68 21.5t-35 60.5q-3 16 4 24.5t16 8.5h9h333q20 132 -40 207
t-188 75q-82 0 -144 -39q-15 -10 -28 0q-54 41 -155 41q-105 0 -246 -44l19 -102q4 1 6 2q87 26 151 26q48 0 75.5 -22t22.5 -62q-1 -11 -9.5 -18.5t-18.5 -7.5h-127q-45 0 -85 -10q-109 -28 -124 -132zM224 350q36 4 55 4h88q-13 10 -46 10q-36 0 -97 -14zM227 181
q4 32 28 50.5t56 18.5h80q9 0 15.5 -7t5.5 -18l-7 -50q-3 -11 -6 -14q-44 -53 -106 -53q-33 0 -51.5 20t-14.5 53zM277 181q-2 -13 3 -18t20 -5q30 0 56 26l3 16h-55q-15 0 -20 -4t-7 -15zM603 332q14 42 43 70t68 28q41 0 62.5 -31t12.5 -74q-2 -9 -10 -16t-18 -7h-137
q-30 0 -21 30zM658 198q15 -15 44 -15q28 0 60 15h-104zM665 352h75q-5 28 -33 28q-25 0 -42 -28z" />
    <glyph glyph-name="ccedilla" unicode="&#xe7;" horiz-adv-x="561" 
d="M29 271q20 139 119.5 224t239.5 85q95 0 163 -45.5t93 -127.5q3 -9 -2 -19t-15 -14l-190 -76q-24 -9 -31 13q-10 37 -42 37q-20 0 -36 -18.5t-22 -57.5t5 -58t31 -19q31 0 49 41q13 28 37 16l170 -84q9 -4 11 -14t-3 -18q-70 -126 -222 -160l-10 -16q52 -35 43 -94
q-9 -63 -61.5 -100.5t-124.5 -37.5q-59 0 -110 38q-15 12 -4 31l53 90q3 6 10 11q-18 12 -4 33l31 47q-99 26 -146.5 104t-31.5 189zM79 271q-15 -104 32 -170t144 -80q16 -3 19.5 -12t-1.5 -17l-5 -8l-24 -35q24 -2 40.5 -17.5t12.5 -41.5t-24.5 -42t-46.5 -16q-12 0 -30 7
l-24 -42q36 -19 66 -19q57 0 90.5 24t38.5 64q2 18 -8.5 34.5t-32.5 24.5q-26 10 -9 36l33 49q6 11 20 13q118 21 179 110l-126 62q-34 -50 -88 -50q-46 0 -66.5 36.5t-12.5 90.5q8 53 38.5 89.5t76.5 36.5q52 0 75 -45l142 57q-25 57 -79 88.5t-129 31.5q-122 0 -203 -70
t-98 -189zM210 -103q9 -15 23 -15q12 0 14 8q0 9 -17 9q-4 0 -20 -2z" />
    <glyph glyph-name="egrave" unicode="&#xe8;" horiz-adv-x="614" 
d="M29 271q20 140 120 224.5t242 84.5q4 0 12 -0.5t12 -0.5q142 -8 207 -105.5t33 -251.5q-2 -10 -10.5 -17t-17.5 -7h-110l77 -88q6 -8 5 -18t-9 -17q-113 -108 -282 -108q-148 0 -223.5 83t-55.5 221zM79 271q-17 -118 44.5 -186t191.5 -68q132 0 224 75l-71 81
q-59 -40 -116 -40q-41 0 -68 21.5t-35 60.5q-3 16 4 24.5t16 8.5h9h332q20 132 -40 207t-187 75q-123 0 -205 -70t-99 -189zM202 702l-3 3t-4.5 7.5t-2 10.5t6.5 11t19 10l198 60q20 7 28 -12l80 -189l2 -4t2 -8.5t-1 -11.5t-9.5 -9t-20.5 -4h-160q-10 0 -17 7zM260 332
q14 42 43 70t68 28q41 0 62 -31t12 -74q-2 -9 -10 -16t-18 -7h-136q-30 0 -21 30zM268 709l86 -93h107l-57 134zM315 198q15 -15 44 -15q27 0 59 15h-103zM322 352h74q-5 28 -32 28q-25 0 -42 -28z" />
    <glyph glyph-name="eacute" unicode="&#xe9;" horiz-adv-x="614" 
d="M29 271q20 140 120 224.5t242 84.5q4 0 12 -0.5t12 -0.5q142 -8 207 -105.5t33 -251.5q-2 -10 -10.5 -17t-17.5 -7h-110l77 -88q6 -8 5 -18t-9 -17q-113 -108 -282 -108q-148 0 -223.5 83t-55.5 221zM79 271q-17 -118 44.5 -186t191.5 -68q132 0 224 75l-71 81
q-59 -40 -116 -40q-41 0 -68 21.5t-35 60.5q-3 16 4 24.5t16 8.5h9h332q20 132 -40 207t-187 75q-123 0 -205 -70t-99 -189zM260 332q14 42 43 70t68 28q41 0 62 -31t12 -74q-2 -9 -10 -16t-18 -7h-136q-30 0 -21 30zM263 603l134 189q12 18 31 12l182 -60q5 -1 9.5 -3.5
t9.5 -13t-16 -25.5l-155 -129q-9 -7 -18 -7h-160q0 1 -4.5 0t-9.5 1t-9.5 5t-3 11.5t9.5 19.5zM315 198q15 -15 44 -15q27 0 59 15h-103zM322 352h74q-5 28 -32 28q-25 0 -42 -28zM330 616h107l112 93l-124 41z" />
    <glyph glyph-name="ecircumflex" unicode="&#xea;" horiz-adv-x="614" 
d="M29 271q20 140 120 224.5t242 84.5q4 0 12 -0.5t12 -0.5q142 -8 207 -105.5t33 -251.5q-2 -10 -10.5 -17t-17.5 -7h-110l77 -88q6 -8 5 -18t-9 -17q-113 -108 -282 -108q-148 0 -223.5 83t-55.5 221zM79 271q-17 -118 44.5 -186t191.5 -68q132 0 224 75l-71 81
q-59 -40 -116 -40q-41 0 -68 21.5t-35 60.5q-3 16 4 24.5t16 8.5h9h332q20 132 -40 207t-187 75q-123 0 -205 -70t-99 -189zM168 622l144 162q10 10 21 10h168q13 0 19 -10l98 -162q1 -2 2 -4.5t2.5 -9.5t0 -12t-9 -9.5t-21.5 -4.5h-150q-14 0 -19 11l-27 51l-42 -51
q-9 -11 -22 -11h-150q-2 0 -5 0.5t-9.5 2.5t-10 6t-1.5 12t12 19zM239 632h87l58 71q12 15 22.5 15t14.5 -8l4 -7l37 -71h87l-67 112h-143zM260 332q14 42 43 70t68 28q41 0 62 -31t12 -74q-2 -9 -10 -16t-18 -7h-136q-30 0 -21 30zM315 198q15 -15 44 -15q27 0 59 15h-103z
M322 352h74q-5 28 -32 28q-25 0 -42 -28z" />
    <glyph glyph-name="edieresis" unicode="&#xeb;" horiz-adv-x="614" 
d="M29 271q20 140 120 224.5t242 84.5q4 0 12 -0.5t12 -0.5q142 -8 207 -105.5t33 -251.5q-2 -10 -10.5 -17t-17.5 -7h-110l77 -88q6 -8 5 -18t-9 -17q-113 -108 -282 -108q-148 0 -223.5 83t-55.5 221zM79 271q-17 -118 44.5 -186t191.5 -68q132 0 224 75l-71 81
q-59 -40 -116 -40q-41 0 -68 21.5t-35 60.5q-3 16 4 24.5t16 8.5h9h332q20 132 -40 207t-187 75q-123 0 -205 -70t-99 -189zM184 698q8 51 45 84t87 33t78.5 -33.5t21.5 -83.5q-8 -50 -45.5 -83t-87.5 -33t-78.5 33t-20.5 83zM234 698q-5 -30 10 -48t46 -18t51 18t25 48
q5 31 -10.5 49t-46.5 18t-50.5 -18t-24.5 -49zM260 332q14 42 43 70t68 28q41 0 62 -31t12 -74q-2 -9 -10 -16t-18 -7h-136q-30 0 -21 30zM315 198q15 -15 44 -15q27 0 59 15h-103zM322 352h74q-5 28 -32 28q-25 0 -42 -28zM392 698q8 51 45 84t87 33t78.5 -33.5t21.5 -83.5
q-8 -50 -45.5 -83t-87.5 -33t-78.5 33t-20.5 83zM442 698q-5 -30 10 -48t46 -18t51 18t25 48q5 31 -10.5 49t-46.5 18t-50.5 -18t-24.5 -49z" />
    <glyph glyph-name="igrave" unicode="&#xec;" horiz-adv-x="335" 
d="M30 0l79 547q1 11 10 18t18 7h225q11 0 17.5 -8t4.5 -17l-79 -547q-1 -11 -10.5 -18t-18.5 -7h-225q-11 0 -17 8t-4 17zM67 702l-3 3t-4.5 7.5t-2 10.5t6.5 11t19 10l198 60q20 7 28 -12l80 -189l2 -4t2 -8.5t-1 -11.5t-9.5 -9t-20.5 -4h-160q-10 0 -17 7zM84 25h175
l71 497h-175zM133 709l86 -93h107l-57 134z" />
    <glyph glyph-name="iacute" unicode="&#xed;" horiz-adv-x="335" 
d="M30 0l79 547q1 11 10 18t18 7h225q11 0 17.5 -8t4.5 -17l-79 -547q-1 -11 -10.5 -18t-18.5 -7h-225q-11 0 -17 8t-4 17zM84 25h175l71 497h-175zM128 603l134 189q12 18 31 12l182 -60q5 -1 9.5 -3.5t9.5 -13t-16 -25.5l-155 -129q-9 -7 -18 -7h-160q0 1 -4.5 0t-9.5 1
t-9.5 5t-3 11.5t9.5 19.5zM195 616h107l112 93l-124 41z" />
    <glyph glyph-name="icircumflex" unicode="&#xee;" horiz-adv-x="335" 
d="M30 0l79 547q1 11 10 18t18 7h225q11 0 17.5 -8t4.5 -17l-79 -547q-1 -11 -10.5 -18t-18.5 -7h-225q-11 0 -17 8t-4 17zM33 622l144 162q10 10 21 10h168q13 0 19 -10l98 -162q1 -2 2 -4.5t2.5 -9.5t0 -12t-9 -9.5t-21.5 -4.5h-150q-13 0 -19 11l-27 51l-42 -51
q-9 -11 -22 -11h-150q-2 0 -5 0.5t-9.5 2.5t-10 6t-1.5 12t12 19zM84 25h175l71 497h-175zM104 632h87l58 71q12 15 22.5 15t14.5 -8l4 -7l37 -71h87l-67 112h-143z" />
    <glyph glyph-name="idieresis" unicode="&#xef;" horiz-adv-x="335" 
d="M30 0l79 547q1 11 10 18t18 7h225q11 0 17.5 -8t4.5 -17l-79 -547q-1 -11 -10.5 -18t-18.5 -7h-225q-11 0 -17 8t-4 17zM49 698q8 51 45 84t87 33t78.5 -33.5t21.5 -83.5q-8 -50 -45.5 -83t-87.5 -33t-78.5 33t-20.5 83zM84 25h175l71 497h-175zM99 698q-5 -30 10 -48
t46 -18t51 18t25 48q5 31 -10.5 49t-46.5 18t-50.5 -18t-24.5 -49zM257 698q8 51 45 84t87 33t78.5 -33.5t21.5 -83.5q-8 -50 -45.5 -83t-87.5 -33t-78.5 33t-20.5 83zM307 698q-5 -30 10 -48t46 -18t51 18t25 48q5 31 -10.5 49t-46.5 18t-50.5 -18t-24.5 -49z" />
    <glyph glyph-name="eth" unicode="&#xf0;" horiz-adv-x="617" 
d="M17 227q10 74 51.5 131t105.5 87v1l-1 2l-20 100q-2 9 4.5 19t15.5 13l67 21q-30 19 -74 39q-42 20 4 45l164 89q10 6 21 2q90 -31 157 -85l144 48q10 3 19 -1.5t11 -14.5l19 -101q2 -10 -4 -19.5t-16 -12.5l-66 -21q73 -123 52 -266q-22 -152 -129.5 -245t-262.5 -93
q-134 0 -206.5 71.5t-55.5 190.5zM67 227q-14 -97 44 -154.5t175 -57.5q135 0 225.5 77.5t109.5 210.5q21 144 -63 262q-9 15 -5.5 24t13.5 13l9 3l76 25l-10 53l-133 -44q-13 -4 -22 4q-63 52 -144 82l-108 -59q46 -26 80 -50q16 -14 13 -24t-15 -16l-11 -5l-93 -31l10 -52
l159 52q15 5 25 -6q48 -55 63 -116q4 -18 -6.5 -25t-23.5 -5l-13 1q-41 34 -125 34q-29 0 -50 -4q-74 -14 -121.5 -64t-58.5 -128zM233 238q6 39 35.5 63t69.5 24q41 0 64.5 -24.5t17.5 -63.5t-36.5 -63.5t-70.5 -24.5t-63 25t-17 64zM283 238q-6 -39 38 -39t49 38t-39 38
q-43 0 -48 -37zM325 472q28 -1 63 -10q-12 18 -18 25z" />
    <glyph glyph-name="ntilde" unicode="&#xf1;" horiz-adv-x="682" 
d="M30 0l79 547q1 11 10 18t18 7h225q11 0 17.5 -8t4.5 -17l-2 -13q64 48 148 48q97 0 149.5 -65t37.5 -168l-50 -349q-1 -11 -10.5 -18t-18.5 -7h-225q-11 0 -17 8t-4 17l41 284q7 50 -33 50q-47 0 -56 -63l-39 -271q-1 -11 -10.5 -18t-18.5 -7h-225q-11 0 -17 8t-4 17z
M84 25h175l35 246q7 48 38 80.5t75 32.5q40 0 61 -28.5t15 -71.5l-37 -259h175l46 324q12 85 -27.5 134t-116.5 49q-94 0 -157 -77q-14 -15 -24 -12t-14 15l-5 11l7 53h-175zM229 614q14 99 57 153.5t115 54.5q21 0 40.5 -5.5t30.5 -12t21.5 -13.5t12.5 -8q1 2 1 6q1 3 1 5
q1 11 10.5 18t18.5 7h135q11 0 17 -8t4 -17q-29 -207 -170 -207q-21 0 -40.5 5.5t-30.5 12t-21.5 13.5t-12.5 8q-2 -4 -3 -12q-1 -11 -10 -18t-18 -7h-136q-11 0 -17.5 8t-4.5 17zM284 639h88q15 38 51 38q24 0 51.5 -20t55.5 -20q43 0 69 29t40 103h-87q-16 -37 -52 -37
q-23 0 -51 20t-55 20q-43 0 -69.5 -29.5t-40.5 -103.5z" />
    <glyph glyph-name="ograve" unicode="&#xf2;" horiz-adv-x="648" 
d="M29 274q20 139 124.5 222.5t254.5 83.5t229.5 -83.5t59.5 -222.5t-124 -223t-254 -84t-230 84t-60 223zM79 274q-17 -118 49 -187.5t198 -69.5t218 69.5t103 187.5t-49 187t-198 69t-218 -69t-103 -187zM223 702l-3 3t-4.5 7.5t-2 10.5t6.5 11t19 10l198 60q20 7 28 -12
l80 -189l2 -4t2 -8.5t-1 -11.5t-9.5 -9t-20.5 -4h-160q-10 0 -17 7zM256 271q8 56 42.5 93.5t83.5 37.5t72.5 -37.5t15.5 -93.5t-42.5 -93.5t-83.5 -37.5t-72.5 37.5t-15.5 93.5zM289 709l86 -93h107l-57 134zM306 271q-6 -40 7 -60.5t38 -20.5t44 20.5t25 60.5t-7 60.5
t-38 20.5t-44 -20.5t-25 -60.5z" />
    <glyph glyph-name="oacute" unicode="&#xf3;" horiz-adv-x="648" 
d="M29 274q20 139 124.5 222.5t254.5 83.5t229.5 -83.5t59.5 -222.5t-124 -223t-254 -84t-230 84t-60 223zM79 274q-17 -118 49 -187.5t198 -69.5t218 69.5t103 187.5t-49 187t-198 69t-218 -69t-103 -187zM256 271q8 56 42.5 93.5t83.5 37.5t72.5 -37.5t15.5 -93.5
t-42.5 -93.5t-83.5 -37.5t-72.5 37.5t-15.5 93.5zM284 603l134 189q12 18 31 12l182 -60q5 -1 9.5 -3.5t9.5 -13t-16 -25.5l-155 -129q-9 -7 -18 -7h-160q0 1 -4.5 0t-9.5 1t-9.5 5t-3 11.5t9.5 19.5zM306 271q-6 -40 7 -60.5t38 -20.5t44 20.5t25 60.5t-7 60.5t-38 20.5
t-44 -20.5t-25 -60.5zM351 616h107l112 93l-124 41z" />
    <glyph glyph-name="ocircumflex" unicode="&#xf4;" horiz-adv-x="648" 
d="M29 274q20 139 124.5 222.5t254.5 83.5t229.5 -83.5t59.5 -222.5t-124 -223t-254 -84t-230 84t-60 223zM79 274q-17 -118 49 -187.5t198 -69.5t218 69.5t103 187.5t-49 187t-198 69t-218 -69t-103 -187zM189 622l144 162q10 10 21 10h168q13 0 19 -10l98 -162
q1 -2 2 -4.5t2.5 -9.5t0 -12t-9 -9.5t-21.5 -4.5h-150q-13 0 -19 11l-27 51l-42 -51q-9 -11 -22 -11h-150q-2 0 -5 0.5t-9.5 2.5t-10 6t-1.5 12t12 19zM256 271q8 56 42.5 93.5t83.5 37.5t72.5 -37.5t15.5 -93.5t-42.5 -93.5t-83.5 -37.5t-72.5 37.5t-15.5 93.5zM260 632h87
l58 71q12 15 22.5 15t14.5 -8l4 -7l37 -71h87l-67 112h-143zM306 271q-6 -40 7 -60.5t38 -20.5t44 20.5t25 60.5t-7 60.5t-38 20.5t-44 -20.5t-25 -60.5z" />
    <glyph glyph-name="otilde" unicode="&#xf5;" horiz-adv-x="648" 
d="M29 274q20 139 124.5 222.5t254.5 83.5t229.5 -83.5t59.5 -222.5t-124 -223t-254 -84t-230 84t-60 223zM79 274q-17 -118 49 -187.5t198 -69.5t218 69.5t103 187.5t-49 187t-198 69t-218 -69t-103 -187zM193 614q14 99 57 153.5t115 54.5q21 0 40.5 -5.5t30.5 -12
t21.5 -13.5t12.5 -8q1 2 1 6q1 3 1 5q1 11 10.5 18t18.5 7h135q11 0 17 -8t4 -17q-29 -207 -170 -207q-21 0 -40.5 5.5t-30.5 12t-21.5 13.5t-12.5 8q-2 -4 -3 -12q-1 -11 -10 -18t-18 -7h-136q-11 0 -17.5 8t-4.5 17zM248 639h88q15 38 51 38q24 0 51.5 -20t55.5 -20
q43 0 69 29t40 103h-87q-16 -37 -52 -37q-23 0 -51 20t-55 20q-43 0 -69.5 -29.5t-40.5 -103.5zM256 271q8 56 42.5 93.5t83.5 37.5t72.5 -37.5t15.5 -93.5t-42.5 -93.5t-83.5 -37.5t-72.5 37.5t-15.5 93.5zM306 271q-6 -40 7 -60.5t38 -20.5t44 20.5t25 60.5t-7 60.5
t-38 20.5t-44 -20.5t-25 -60.5z" />
    <glyph glyph-name="odieresis" unicode="&#xf6;" horiz-adv-x="648" 
d="M29 274q20 139 124.5 222.5t254.5 83.5t229.5 -83.5t59.5 -222.5t-124 -223t-254 -84t-230 84t-60 223zM79 274q-17 -118 49 -187.5t198 -69.5t218 69.5t103 187.5t-49 187t-198 69t-218 -69t-103 -187zM205 698q8 51 45 84t87 33t78.5 -33.5t21.5 -83.5
q-8 -50 -45.5 -83t-87.5 -33t-78.5 33t-20.5 83zM255 698q-5 -30 10 -48t46 -18t51 18t25 48q5 31 -10.5 49t-46.5 18t-50.5 -18t-24.5 -49zM256 271q8 56 42.5 93.5t83.5 37.5t72.5 -37.5t15.5 -93.5t-42.5 -93.5t-83.5 -37.5t-72.5 37.5t-15.5 93.5zM306 271
q-6 -40 7 -60.5t38 -20.5t44 20.5t25 60.5t-7 60.5t-38 20.5t-44 -20.5t-25 -60.5zM413 698q8 51 45 84t87 33t78.5 -33.5t21.5 -83.5q-8 -50 -45.5 -83t-87.5 -33t-78.5 33t-20.5 83zM463 698q-5 -30 10 -48t46 -18t51 18t25 48q5 31 -10.5 49t-46.5 18t-50.5 -18
t-24.5 -49z" />
    <glyph glyph-name="divide" unicode="&#xf7;" horiz-adv-x="520" 
d="M42 259l20 140q1 11 10.5 18t18.5 7h460q11 0 17 -8t4 -17l-20 -140q-1 -11 -10 -18t-18 -7h-460q-11 0 -17.5 8t-4.5 17zM96 284h410l13 90h-410zM156 148q8 50 45.5 83.5t87.5 33.5t78.5 -33.5t20.5 -83.5t-45 -83t-87 -33t-79 33t-21 83zM206 148q-5 -30 10.5 -48
t46.5 -18q30 0 50 18t25 48q5 31 -10 49t-46 18t-51 -18t-25 -49zM208 508q8 50 45.5 83.5t87.5 33.5t78.5 -33.5t20.5 -83.5t-45.5 -83t-87.5 -33t-78.5 33t-20.5 83zM258 508q-5 -30 10.5 -48t46.5 -18q30 0 50 18t25 48q5 31 -10 49t-46 18t-51 -18t-25 -49z" />
    <glyph glyph-name="oslash" unicode="&#xf8;" horiz-adv-x="648" 
d="M29 274q20 139 124.5 222.5t254.5 83.5q20 0 30 -1l50 106q8 17 26 17h88h3.5t8 -1t8 -4.5t4 -10t-4.5 -17.5l-57 -120q77 -36 112 -108t21 -167q-20 -139 -124 -223t-254 -84q-5 0 -14.5 0.5t-13.5 0.5l-54 -115q-8 -17 -27 -17h-88h-3.5t-8 1t-8 4.5t-4 10t4.5 17.5
l61 128q-78 37 -113.5 109t-21.5 168zM79 274q-13 -88 21.5 -149t108.5 -89q8 -3 11.5 -12t-0.5 -20l-56 -118h36l55 116q8 19 27 17q30 -2 44 -2q132 0 218 69.5t103 187.5q13 87 -21 148t-107 88q-8 3 -11.5 12t0.5 20l52 110h-35l-51 -108q-10 -20 -29 -17q-21 3 -45 3
q-132 0 -218 -69t-103 -187zM241 271q9 64 47 106t93 44q18 0 23 -8t1 -17l-4 -8l-101 -213q-10 -21 -21 -22.5t-17 7.5l-7 8q-23 42 -14 103zM290 266l43 89q-34 -29 -42 -84q0 -1 -1 -3v-2zM325 154l101 213q10 21 21 22.5t17 -7.5l7 -9q23 -44 14 -102q-9 -64 -47 -106
t-93 -44q-18 0 -23 8t-1 17zM394 187q33 28 41 84q0 1 1 3v2z" />
    <glyph glyph-name="ugrave" unicode="&#xf9;" horiz-adv-x="672" 
d="M44 198l50 349q1 11 10 18t18 7h225q11 0 17.5 -8t4.5 -17l-41 -284q-7 -50 28 -50q41 0 51 63l39 271q1 11 10 18t18 7h225q11 0 17.5 -8t4.5 -17l-79 -547q-1 -11 -10.5 -18t-18.5 -7h-225q-11 0 -17 8t-4 17l2 11q-64 -46 -143 -46q-95 0 -146 65t-36 168zM94 198
q-12 -84 26.5 -133.5t112.5 -49.5q90 0 151 75q15 15 24.5 12t14.5 -14l5 -12l-7 -51h175l71 497h-175l-35 -246q-7 -47 -36.5 -80t-72.5 -33q-39 0 -57.5 29t-12.5 71l37 259h-175zM229 702l-3 3t-4.5 7.5t-2 10.5t6.5 11t19 10l198 60q20 7 28 -12l80 -189l2 -4t2 -8.5
t-1 -11.5t-9.5 -9t-20.5 -4h-160q-10 0 -17 7zM295 709l86 -93h107l-57 134z" />
    <glyph glyph-name="uacute" unicode="&#xfa;" horiz-adv-x="672" 
d="M44 198l50 349q1 11 10 18t18 7h225q11 0 17.5 -8t4.5 -17l-41 -284q-7 -50 28 -50q41 0 51 63l39 271q1 11 10 18t18 7h225q11 0 17.5 -8t4.5 -17l-79 -547q-1 -11 -10.5 -18t-18.5 -7h-225q-11 0 -17 8t-4 17l2 11q-64 -46 -143 -46q-95 0 -146 65t-36 168zM94 198
q-12 -84 26.5 -133.5t112.5 -49.5q90 0 151 75q15 15 24.5 12t14.5 -14l5 -12l-7 -51h175l71 497h-175l-35 -246q-7 -47 -36.5 -80t-72.5 -33q-39 0 -57.5 29t-12.5 71l37 259h-175zM290 603l134 189q12 18 31 12l182 -60q5 -1 9.5 -3.5t9.5 -13t-16 -25.5l-155 -129
q-9 -7 -18 -7h-160q0 1 -4.5 0t-9.5 1t-9.5 5t-3 11.5t9.5 19.5zM357 616h107l112 93l-124 41z" />
    <glyph glyph-name="ucircumflex" unicode="&#xfb;" horiz-adv-x="672" 
d="M44 198l50 349q1 11 10 18t18 7h225q11 0 17.5 -8t4.5 -17l-41 -284q-7 -50 28 -50q41 0 51 63l39 271q1 11 10 18t18 7h225q11 0 17.5 -8t4.5 -17l-79 -547q-1 -11 -10.5 -18t-18.5 -7h-225q-11 0 -17 8t-4 17l2 11q-64 -46 -143 -46q-95 0 -146 65t-36 168zM94 198
q-12 -84 26.5 -133.5t112.5 -49.5q90 0 151 75q15 15 24.5 12t14.5 -14l5 -12l-7 -51h175l71 497h-175l-35 -246q-7 -47 -36.5 -80t-72.5 -33q-39 0 -57.5 29t-12.5 71l37 259h-175zM195 622l144 162q10 10 21 10h168q13 0 19 -10l98 -162q1 -2 2 -4.5t2.5 -9.5t0 -12
t-9 -9.5t-21.5 -4.5h-150q-13 0 -19 11l-27 51l-42 -51q-9 -11 -22 -11h-150q-2 0 -5 0.5t-9.5 2.5t-10 6t-1.5 12t12 19zM266 632h87l58 71q12 15 22.5 15t14.5 -8l4 -7l37 -71h87l-67 112h-143z" />
    <glyph glyph-name="udieresis" unicode="&#xfc;" horiz-adv-x="672" 
d="M44 198l50 349q1 11 10 18t18 7h225q11 0 17.5 -8t4.5 -17l-41 -284q-7 -50 28 -50q41 0 51 63l39 271q1 11 10 18t18 7h225q11 0 17.5 -8t4.5 -17l-79 -547q-1 -11 -10.5 -18t-18.5 -7h-225q-11 0 -17 8t-4 17l2 11q-64 -46 -143 -46q-95 0 -146 65t-36 168zM94 198
q-12 -84 26.5 -133.5t112.5 -49.5q90 0 151 75q15 15 24.5 12t14.5 -14l5 -12l-7 -51h175l71 497h-175l-35 -246q-7 -47 -36.5 -80t-72.5 -33q-39 0 -57.5 29t-12.5 71l37 259h-175zM211 698q8 51 45 84t87 33t78.5 -33.5t21.5 -83.5q-8 -50 -45.5 -83t-87.5 -33t-78.5 33
t-20.5 83zM261 698q-5 -30 10 -48t46 -18t51 18t25 48q5 31 -10.5 49t-46.5 18t-50.5 -18t-24.5 -49zM419 698q8 51 45 84t87 33t78.5 -33.5t21.5 -83.5q-8 -50 -45.5 -83t-87.5 -33t-78.5 33t-20.5 83zM469 698q-5 -30 10 -48t46 -18t51 18t25 48q5 31 -10.5 49t-46.5 18
t-50.5 -18t-24.5 -49z" />
    <glyph glyph-name="yacute" unicode="&#xfd;" horiz-adv-x="624" 
d="M-59 -127l115 148q20 25 39 5q24 -25 52 -25q23 0 35 16l2 2l-148 518q-1 1 -1.5 3.5t-1 8.5t1.5 10.5t9.5 8.5t19.5 4h231q18 0 22 -17l48 -237l101 236q8 18 26 18h224q0 -1 4 0t8.5 -1t8.5 -5t4 -10.5t-6 -17.5l-310 -585q-100 -182 -289 -182q-112 0 -194 69
q-15 13 -1 33zM-5 -133q64 -46 148 -46q82 0 139 35.5t100 114.5l291 551h-169l-126 -294q-8 -19 -20 -19t-20 9l-8 9l-60 295h-175l141 -495q3 -11 -5 -23l-10 -13q-30 -40 -81 -40q-37 0 -64 20zM272 603l134 189q12 18 31 12l182 -60q5 -1 9.5 -3.5t9.5 -13t-16 -25.5
l-155 -129q-9 -7 -18 -7h-160q0 1 -4.5 0t-9.5 1t-9.5 5t-3 11.5t9.5 19.5zM339 616h107l112 93l-124 41z" />
    <glyph glyph-name="thorn" unicode="&#xfe;" 
d="M7 -194l135 936q1 11 10.5 18t18.5 7h225q11 0 17 -8t4 -17l-28 -195q55 33 119 33q124 0 187.5 -86t43.5 -224q-20 -135 -106 -219t-208 -84q-67 0 -115 34l-28 -195q-1 -11 -10.5 -18t-18.5 -7h-225q-11 0 -17 8t-4 17zM61 -169h175l32 225q3 21 14.5 25t21.5 -3l10 -6
q40 -55 118 -55q101 0 170.5 67.5t86.5 185.5q17 121 -34 190.5t-155 69.5q-74 0 -127 -54q-18 -15 -27 -11.5t-12 15.5l-3 12l32 225h-175zM300 276q8 55 42 93t83 38t72.5 -37.5t15.5 -93.5t-42.5 -93.5t-83.5 -37.5t-72 38t-15 93zM350 276q-6 -41 6.5 -61t37.5 -20
t44 20.5t25 60.5t-7.5 60.5t-38.5 20.5t-43 -20t-24 -61z" />
    <glyph glyph-name="ydieresis" unicode="&#xff;" horiz-adv-x="624" 
d="M-59 -127l115 148q20 25 39 5q24 -25 52 -25q23 0 35 16l2 2l-148 518q-1 1 -1.5 3.5t-1 8.5t1.5 10.5t9.5 8.5t19.5 4h231q18 0 22 -17l48 -237l101 236q8 18 26 18h224q0 -1 4 0t8.5 -1t8.5 -5t4 -10.5t-6 -17.5l-310 -585q-100 -182 -289 -182q-112 0 -194 69
q-15 13 -1 33zM-5 -133q64 -46 148 -46q82 0 139 35.5t100 114.5l291 551h-169l-126 -294q-8 -19 -20 -19t-20 9l-8 9l-60 295h-175l141 -495q3 -11 -5 -23l-10 -13q-30 -40 -81 -40q-37 0 -64 20zM193 698q8 51 45 84t87 33t78.5 -33.5t21.5 -83.5q-8 -50 -45.5 -83
t-87.5 -33t-78.5 33t-20.5 83zM243 698q-5 -30 10 -48t46 -18t51 18t25 48q5 31 -10.5 49t-46.5 18t-50.5 -18t-24.5 -49zM401 698q8 51 45 84t87 33t78.5 -33.5t21.5 -83.5q-8 -50 -45.5 -83t-87.5 -33t-78.5 33t-20.5 83zM451 698q-5 -30 10 -48t46 -18t51 18t25 48
q5 31 -10.5 49t-46.5 18t-50.5 -18t-24.5 -49z" />
    <glyph glyph-name="Amacron" unicode="&#x100;" horiz-adv-x="799" 
d="M-32 10l397 701q8 15 26 15h238q17 0 21 -16l184 -701q0 -1 1 -3.5t0.5 -8.5t-2.5 -10.5t-9.5 -8t-18.5 -3.5h-247q-17 0 -21 17l-17 82h-228l-42 -83q-8 -16 -26 -16h-238q0 1 -4 0t-8.5 1t-8.5 5t-3.5 10.5t6.5 18.5zM31 25h183l42 83q8 16 26 16h263q18 0 21 -17
l17 -82h192l-170 651h-205zM337 778l21 148q1 11 10.5 18t18.5 7h300q11 0 17 -8t4 -17l-21 -148q-1 -11 -10 -18t-18 -7h-300q-11 0 -17.5 8t-4.5 17zM340 273l103 205q6 12 13.5 16.5t13 2.5t10.5 -6t8 -9l3 -4l42 -205q4 -16 -3 -24.5t-16 -8.5h-9h-146q-17 0 -22 8
t-1 16zM391 803h250l14 98h-250zM401 290h76l-22 105z" />
    <glyph glyph-name="amacron" unicode="&#x101;" horiz-adv-x="613" 
d="M13 162q8 59 41.5 102.5t88.5 65.5q-13 3 -16 16l-28 150q-2 10 3.5 19t15.5 12q157 55 287 55q127 0 193.5 -60t50.5 -168l-51 -354q-1 -11 -10.5 -18t-18.5 -7h-221q-11 0 -17 8t-4 17q-110 -35 -134 -35q-95 0 -144 54.5t-36 142.5zM63 162q-10 -69 25 -108t112 -39
q91 0 142 59q16 16 25.5 12.5t14.5 -15.5l4 -12l-5 -34h171l47 329q12 85 -39 131.5t-162 46.5q-108 0 -245 -43l19 -103q3 0 7 2q87 26 148 26q48 0 75 -21.5t22 -62.5q-1 -11 -9.5 -18.5t-18.5 -7.5h-125q-44 0 -84 -10q-109 -28 -124 -132zM223 624l21 148q1 11 10.5 18
t18.5 7h300q11 0 17 -8t4 -17l-21 -148q-1 -11 -10.5 -18t-18.5 -7h-300q-11 0 -17 8t-4 17zM224 350q34 4 54 4h87q-15 10 -46 10q-36 0 -95 -14zM227 181q4 31 27.5 50t55.5 19h78q9 0 15.5 -7t5.5 -18l-7 -50q-2 -9 -6 -14q-42 -53 -104 -53q-33 0 -51 20.5t-14 52.5z
M277 181q-2 -13 2.5 -18t19.5 -5q29 0 54 25l3 17h-53q-15 0 -19.5 -3.5t-6.5 -15.5zM277 649h250l14 98h-250z" />
    <glyph glyph-name="Abreve" unicode="&#x102;" horiz-adv-x="799" 
d="M-32 10l397 701q8 15 26 15h238q17 0 21 -16l184 -701q0 -1 1 -3.5t0.5 -8.5t-2.5 -10.5t-9.5 -8t-18.5 -3.5h-247q-17 0 -21 17l-17 82h-228l-42 -83q-8 -16 -26 -16h-238q0 1 -4 0t-8.5 1t-8.5 5t-3.5 10.5t6.5 18.5zM31 25h183l42 83q8 16 26 16h263q18 0 21 -17
l17 -82h192l-170 651h-205zM324 922q1 10 9 18t20 8h135q10 0 16 -7t5 -16q-1 -27 20 -27t28 27q2 10 11 16.5t18 6.5h135q10 0 16.5 -7t4.5 -19q-17 -89 -83 -143.5t-155 -54.5t-139 54.5t-41 143.5zM340 273l103 205q6 12 13.5 16.5t13 2.5t10.5 -6t8 -9l3 -4l42 -205
q4 -16 -3 -24.5t-16 -8.5h-9h-146q-17 0 -22 8t-1 16zM373 898q2 -58 38.5 -91t100.5 -33t109.5 32.5t64.5 91.5h-88q-11 -22 -31.5 -36t-44.5 -14t-40.5 13.5t-21.5 36.5h-87zM401 290h76l-22 105z" />
    <glyph glyph-name="abreve" unicode="&#x103;" horiz-adv-x="613" 
d="M13 162q8 59 41.5 102.5t88.5 65.5q-13 3 -16 16l-28 150q-2 10 3.5 19t15.5 12q157 55 287 55q127 0 193.5 -60t50.5 -168l-51 -354q-1 -11 -10.5 -18t-18.5 -7h-221q-11 0 -17 8t-4 17q-110 -35 -134 -35q-95 0 -144 54.5t-36 142.5zM63 162q-10 -69 25 -108t112 -39
q91 0 142 59q16 16 25.5 12.5t14.5 -15.5l4 -12l-5 -34h171l47 329q12 85 -39 131.5t-162 46.5q-108 0 -245 -43l19 -103q3 0 7 2q87 26 148 26q48 0 75 -21.5t22 -62.5q-1 -11 -9.5 -18.5t-18.5 -7.5h-125q-44 0 -84 -10q-109 -28 -124 -132zM210 768q1 10 8.5 18t19.5 8
h135q10 0 16.5 -7t5.5 -16q-1 -27 20 -27t28 27q2 10 10.5 16.5t17.5 6.5h135q10 0 17 -7.5t5 -18.5q-17 -89 -83 -143.5t-155 -54.5t-139 54.5t-41 143.5zM224 350q34 4 54 4h87q-15 10 -46 10q-36 0 -95 -14zM227 181q4 31 27.5 50t55.5 19h78q9 0 15.5 -7t5.5 -18l-7 -50
q-2 -9 -6 -14q-42 -53 -104 -53q-33 0 -51 20.5t-14 52.5zM259 744q2 -58 38 -91t100 -33t109.5 32.5t64.5 91.5h-87q-11 -22 -31.5 -36t-44.5 -14t-40.5 13.5t-21.5 36.5h-87zM277 181q-2 -13 2.5 -18t19.5 -5q29 0 54 25l3 17h-53q-15 0 -19.5 -3.5t-6.5 -15.5z" />
    <glyph glyph-name="Aogonek" unicode="&#x104;" horiz-adv-x="799" 
d="M-32 10l397 701q8 15 26 15h238q17 0 21 -16l184 -701q0 -1 1 -3.5t0.5 -8.5t-2.5 -10.5t-9.5 -8t-18.5 -3.5h-54q-2 -3 -4.5 -6t-4.5 -6t-3 -4q11 15 27 -7l46 -64q9 -12 -1 -28q-61 -89 -155 -89q-46 0 -80 27t-25 86q6 43 38 91h-31q-17 0 -21 17l-17 82h-228l-42 -83
q-8 -16 -26 -16h-238q0 1 -4 0t-8.5 1t-8.5 5t-3.5 10.5t6.5 18.5zM31 25h183l42 83q8 16 26 16h263q18 0 21 -17l17 -82h57q21 0 25 -9.5t-3 -19.5l-7 -10q-47 -57 -54 -102q-9 -63 62 -63q54 0 96 49l-19 27q-20 -16 -40 -16q-16 0 -25.5 11.5t-7.5 28.5q4 29 55 93
q9 11 23 11h30l-170 651h-205zM340 273l103 205q6 12 13.5 16.5t13 2.5t10.5 -6t8 -9l3 -4l42 -205q4 -16 -3 -24.5t-16 -8.5h-9h-146q-17 0 -22 8t-1 16zM401 290h76l-22 105z" />
    <glyph glyph-name="aogonek" unicode="&#x105;" horiz-adv-x="618" 
d="M13 162q17 121 130 167q-13 3 -16 17l-28 150q-2 10 4 19.5t16 12.5q156 54 288 54q128 0 195.5 -60t51.5 -168l-51 -354q-1 -11 -10.5 -18t-18.5 -7h-33q-2 -3 -4.5 -6t-4.5 -6t-3 -4q11 15 27 -7l46 -64q9 -12 -1 -28q-61 -89 -155 -89q-46 0 -80 27t-25 86q6 43 38 91
h-26q-11 0 -17 8t-4 17v1q-59 -37 -137 -37q-96 0 -145.5 54.5t-36.5 143.5zM63 162q-10 -69 26 -108.5t113 -39.5q93 0 146 61q16 16 25.5 12.5t13.5 -15.5l4 -12l-5 -35h44q21 0 25 -9.5t-3 -19.5l-7 -10q-47 -57 -54 -102q-9 -63 62 -63q54 0 96 49l-19 27
q-20 -16 -40 -16q-16 0 -25.5 11.5t-7.5 28.5q4 29 55 93q9 11 23 11h22l47 329q12 85 -39.5 131.5t-164.5 46.5q-106 0 -247 -44l19 -102q4 0 8 2q87 26 150 26q48 0 76 -21.5t24 -61.5v-1l-1 -1q-2 -9 -9.5 -17t-18.5 -8h-128q-45 0 -85 -10q-110 -28 -125 -132zM224 350
q36 4 56 4h88q-15 10 -46 10q-37 0 -98 -14zM227 181q4 32 28.5 50.5t56.5 18.5h81q9 0 15.5 -7t5.5 -18l-7 -50q-3 -11 -6 -14q-44 -53 -107 -53q-33 0 -52 20t-15 53zM277 181q-2 -13 3 -18t21 -5q31 0 57 26l3 16h-56q-16 0 -21 -4t-7 -15z" />
    <glyph glyph-name="Cacute" unicode="&#x106;" horiz-adv-x="688" 
d="M41 352q24 165 155 273t305 108q86 0 166 -36.5t128 -99.5q13 -16 -4 -33l-157 -159q-3 -4 -8.5 -7.5t-15 -3t-15.5 11.5q-23 38 -58 61t-68 23q-52 0 -91.5 -37t-48.5 -98t19.5 -99t80.5 -38q31 0 73.5 19.5t78.5 52.5q8 7 18 7.5t18 -7.5l113 -143q5 -7 4 -17t-8 -17
q-72 -68 -165 -108t-180 -40q-171 0 -267.5 110t-72.5 277zM91 352q-21 -147 62.5 -242t234.5 -95q70 0 147 31t140 84l-85 107q-88 -69 -168 -69q-74 0 -114 53.5t-29 133.5q11 79 67 132t130 53q85 0 147 -80l118 119q-43 47 -111 75.5t-137 28.5q-155 0 -268 -93.5
t-134 -237.5zM376 757l135 189q12 18 31 12l181 -60q5 -1 9.5 -3.5t9.5 -13t-16 -25.5l-155 -129q-9 -7 -18 -7h-160q0 1 -4.5 0t-9.5 1t-9.5 5t-3 11.5t9.5 19.5zM443 770h107l112 93l-124 41z" />
    <glyph glyph-name="cacute" unicode="&#x107;" horiz-adv-x="561" 
d="M29 271q20 139 119.5 224t239.5 85q95 0 163 -45.5t93 -127.5q3 -9 -2 -19t-15 -14l-190 -76q-24 -9 -31 13q-10 37 -42 37q-20 0 -36 -18.5t-22 -57.5t5 -58t31 -19q31 0 49 41q13 28 37 16l170 -84q20 -10 8 -33q-44 -80 -126.5 -124t-182.5 -44q-140 0 -213.5 84
t-54.5 220zM79 271q-17 -117 43.5 -185.5t181.5 -68.5q80 0 143 30.5t102 85.5l-126 62q-34 -50 -88 -50q-46 0 -66.5 36.5t-12.5 90.5q8 53 38.5 89.5t76.5 36.5q52 0 75 -45l142 57q-25 57 -79 88.5t-129 31.5q-122 0 -203 -70t-98 -189zM258 603l134 189q12 18 31 12
l182 -60q5 -1 9.5 -3.5t9.5 -13t-16 -25.5l-155 -129q-9 -7 -18 -7h-160q0 1 -4.5 0t-9.5 1t-9.5 5t-3 11.5t9.5 19.5zM325 616h107l112 93l-124 41z" />
    <glyph glyph-name="Ccaron" unicode="&#x10c;" horiz-adv-x="688" 
d="M41 352q24 165 155 273t305 108q86 0 166 -36.5t128 -99.5q13 -16 -4 -33l-157 -159q-3 -4 -8.5 -7.5t-15 -3t-15.5 11.5q-23 38 -58 61t-68 23q-52 0 -91.5 -37t-48.5 -98t19.5 -99t80.5 -38q31 0 73.5 19.5t78.5 52.5q8 7 18 7.5t18 -7.5l113 -143q5 -7 4 -17t-8 -17
q-72 -68 -165 -108t-180 -40q-171 0 -267.5 110t-72.5 277zM91 352q-21 -147 62.5 -242t234.5 -95q70 0 147 31t140 84l-85 107q-88 -69 -168 -69q-74 0 -114 53.5t-29 133.5q11 79 67 132t130 53q85 0 147 -80l118 119q-43 47 -111 75.5t-137 28.5q-155 0 -268 -93.5
t-134 -237.5zM274 908q-1 2 -2 4.5t-2.5 9.5t0 12t9 9.5t21.5 4.5h165q13 0 19 -11l31 -59l47 59q9 11 23 11h165q2 0 5 -0.5t9.5 -2.5t10 -6t1.5 -12t-12 -19l-159 -178q-10 -10 -21 -10h-184q-13 0 -19 10zM342 898l77 -128h159l115 128h-102l-64 -79q-13 -16 -23.5 -16
t-14.5 8l-4 8l-41 79h-102z" />
    <glyph glyph-name="ccaron" unicode="&#x10d;" horiz-adv-x="561" 
d="M29 271q20 139 119.5 224t239.5 85q95 0 163 -45.5t93 -127.5q3 -9 -2 -19t-15 -14l-190 -76q-24 -9 -31 13q-10 37 -42 37q-20 0 -36 -18.5t-22 -57.5t5 -58t31 -19q31 0 49 41q13 28 37 16l170 -84q20 -10 8 -33q-44 -80 -126.5 -124t-182.5 -44q-140 0 -213.5 84
t-54.5 220zM79 271q-17 -117 43.5 -185.5t181.5 -68.5q80 0 143 30.5t102 85.5l-126 62q-34 -50 -88 -50q-46 0 -66.5 36.5t-12.5 90.5q8 53 38.5 89.5t76.5 36.5q52 0 75 -45l142 57q-25 57 -79 88.5t-129 31.5q-122 0 -203 -70t-98 -189zM156 754q-1 2 -2.5 4.5t-3 9.5
t0 12t9 9.5t21.5 4.5h165q14 0 20 -11l30 -59l48 59q9 11 22 11h165q2 0 5 -0.5t10 -2.5t10 -6t1.5 -12t-11.5 -19l-159 -178q-10 -10 -21 -10h-184q-13 0 -19 10zM224 744l77 -128h159l114 128h-101l-64 -79q-13 -16 -23.5 -16t-14.5 8l-4 8l-41 79h-102z" />
    <glyph glyph-name="Dcaron" unicode="&#x10e;" horiz-adv-x="759" 
d="M25 0l101 701q1 11 10.5 18t18.5 7h313q182 0 279.5 -102.5t72.5 -272.5t-154 -273t-316 -103h-304q-11 0 -17 8t-4 17zM79 25h279q169 0 279.5 88.5t132.5 237.5t-61.5 237t-248.5 88h-288zM232 908q-1 2 -2 4.5t-2.5 9.5t0 12t9 9.5t21.5 4.5h165q13 0 19 -11l31 -59
l47 59q9 11 23 11h165q2 0 5 -0.5t9.5 -2.5t10 -6t1.5 -12t-12 -19l-159 -178q-10 -10 -21 -10h-184q-13 0 -19 10zM283 180l49 341q2 9 10 17t19 8h76q78 0 117.5 -55t27.5 -142q-12 -85 -64 -139.5t-127 -54.5h-87q-9 0 -15.5 7t-5.5 18zM300 898l77 -128h159l115 128
h-102l-64 -79q-13 -16 -23.5 -16t-14.5 8l-4 8l-41 79h-102zM337 205h62q51 0 87 37.5t46 106.5t-18 108t-85 39h-51z" />
    <glyph glyph-name="dcaron" unicode="&#x10f;" horiz-adv-x="847" 
d="M30 277q20 135 106 219t208 84q67 0 115 -34l28 196q1 11 10.5 18t18.5 7h225q11 0 17 -8t4 -17l-107 -742q-1 -11 -10.5 -18t-18.5 -7h-225q-10 0 -16 7.5t-5 17.5q-56 -33 -119 -33q-124 0 -187.5 86t-43.5 224zM80 277q-17 -121 34 -190.5t154 -69.5q76 0 128 54
q18 15 27 11.5t12 -15.5l3 -12l-4 -30h175l99 692h-175l-32 -226q-3 -21 -14.5 -25t-21.5 2l-10 7q-40 55 -119 55q-101 0 -170 -67.5t-86 -185.5zM256 271q8 56 42.5 93.5t83.5 37.5t72 -38t15 -93t-42 -93t-83 -38t-72.5 37.5t-15.5 93.5zM306 271q-6 -40 7 -60.5
t38 -20.5t43.5 20t24.5 61t-6.5 61t-37.5 20t-44 -20.5t-25 -60.5zM687 371l61 110q-28 32 -21 86q8 55 49.5 91t96.5 36q52 0 85 -34t24 -92q-7 -49 -45 -94l-105 -126q-9 -11 -22 -11h-104q0 1 -4 0t-8.5 1t-8.5 4.5t-4 10t6 18.5zM750 387h54l96 115q26 31 32 66
q5 37 -13.5 56.5t-52.5 19.5q-35 0 -59.5 -21t-29.5 -56q-6 -38 19 -57q16 -10 5 -30z" />
    <glyph glyph-name="Dcroat" unicode="&#x110;" horiz-adv-x="759" 
d="M25 0l101 701q1 11 10.5 18t18.5 7h313q182 0 279.5 -102.5t72.5 -272.5t-154 -273t-316 -103h-304q-11 0 -17 8t-4 17zM79 25h279q169 0 279.5 88.5t132.5 237.5t-61.5 237t-248.5 88h-288zM283 180l49 341q2 9 10 17t19 8h76q78 0 117.5 -55t27.5 -142
q-12 -85 -64 -139.5t-127 -54.5h-87q-9 0 -15.5 7t-5.5 18zM289 778l21 148q1 11 10.5 18t18.5 7h300q11 0 17 -8t4 -17l-21 -148q-1 -11 -10 -18t-18 -7h-300q-11 0 -17.5 8t-4.5 17zM337 205h62q51 0 87 37.5t46 106.5t-18 108t-85 39h-51zM343 803h250l14 98h-250z" />
    <glyph glyph-name="dcroat" unicode="&#x111;" horiz-adv-x="692" 
d="M30 277q20 135 106 219t208 84q21 0 46 -5l16 112q1 11 10.5 18t18.5 7h48l4 30q1 11 10.5 18t18.5 7h225q11 0 17 -8t4 -17l-4 -30h37q11 0 17 -8t4 -17l-16 -113q-1 -11 -10.5 -18t-18.5 -7h-37l-79 -549q-1 -11 -10.5 -18t-18.5 -7h-225q-10 0 -16 7.5t-5 17.5
q-56 -33 -119 -33q-124 0 -187.5 86t-43.5 224zM80 277q-17 -121 34 -190.5t154 -69.5q76 0 128 54q18 15 27 11.5t12 -15.5l3 -12l-4 -30h175l79 549q2 9 10 17t18 8h37l9 63h-37q-9 0 -15.5 7t-5.5 18l4 30h-175l-4 -30q-2 -9 -10 -17t-19 -8h-48l-9 -63h48q9 0 16 -7
t6 -18l-12 -83q-3 -21 -14.5 -25t-21.5 2l-10 7q-23 31 -56 44q-28 11 -63 11q-101 0 -170 -67.5t-86 -185.5zM256 271q8 56 42.5 93.5t83.5 37.5t72 -38t15 -93t-42 -93t-83 -38t-72.5 37.5t-15.5 93.5zM306 271q-6 -40 7 -60.5t38 -20.5t43.5 20t24.5 61t-6.5 61t-37.5 20
t-44 -20.5t-25 -60.5zM454 549l5 -3v3h-5z" />
    <glyph glyph-name="Emacron" unicode="&#x112;" 
d="M25 0l101 701q1 11 10.5 18t18.5 7h593q11 0 17 -8t4 -17l-25 -176q-1 -11 -10.5 -18t-18.5 -7h-336l-5 -36h303q11 0 17 -8t4 -17l-25 -176q-1 -11 -10.5 -18t-18.5 -7h-303l-5 -37h345q11 0 17 -8t4 -17l-25 -176q-1 -11 -10.5 -18t-18.5 -7h-602q-11 0 -17 8t-4 17z
M79 25h552l18 126h-345q-9 0 -16 7t-6 18l13 87q2 9 10 17t19 8h303l18 126h-303q-9 0 -16 7t-6 18l13 86q2 9 9.5 17t18.5 8h336l18 126h-543zM285 778l21 148q1 11 10.5 18t18.5 7h300q11 0 17 -8t4 -17l-21 -148q-1 -11 -10 -18t-18 -7h-300q-11 0 -17.5 8t-4.5 17z
M339 803h250l14 98h-250z" />
    <glyph glyph-name="emacron" unicode="&#x113;" horiz-adv-x="614" 
d="M29 271q20 140 120 224.5t242 84.5q4 0 12 -0.5t12 -0.5q142 -8 207 -105.5t33 -251.5q-2 -10 -10.5 -17t-17.5 -7h-110l77 -88q6 -8 5 -18t-9 -17q-113 -108 -282 -108q-148 0 -223.5 83t-55.5 221zM79 271q-17 -118 44.5 -186t191.5 -68q132 0 224 75l-71 81
q-59 -40 -116 -40q-41 0 -68 21.5t-35 60.5q-3 16 4 24.5t16 8.5h9h332q20 132 -40 207t-187 75q-123 0 -205 -70t-99 -189zM218 624l21 148q1 11 10.5 18t18.5 7h300q11 0 17 -8t4 -17l-21 -148q-1 -11 -10.5 -18t-18.5 -7h-300q-11 0 -17 8t-4 17zM260 332q14 42 43 70
t68 28q41 0 62 -31t12 -74q-2 -9 -10 -16t-18 -7h-136q-30 0 -21 30zM272 649h250l14 98h-250zM315 198q15 -15 44 -15q27 0 59 15h-103zM322 352h74q-5 28 -32 28q-25 0 -42 -28z" />
    <glyph glyph-name="Edotaccent" unicode="&#x116;" 
d="M25 0l101 701q1 11 10.5 18t18.5 7h593q11 0 17 -8t4 -17l-25 -176q-1 -11 -10.5 -18t-18.5 -7h-336l-5 -36h303q11 0 17 -8t4 -17l-25 -176q-1 -11 -10.5 -18t-18.5 -7h-303l-5 -37h345q11 0 17 -8t4 -17l-25 -176q-1 -11 -10.5 -18t-18.5 -7h-602q-11 0 -17 8t-4 17z
M79 25h552l18 126h-345q-9 0 -16 7t-6 18l13 87q2 9 10 17t19 8h303l18 126h-303q-9 0 -16 7t-6 18l13 86q2 9 9.5 17t18.5 8h336l18 126h-543zM332 857q9 60 54.5 99.5t105.5 39.5t93.5 -39.5t24.5 -99.5t-54 -99.5t-105 -39.5t-94 39.5t-25 99.5zM382 857q-6 -40 15 -64.5
t62 -24.5q40 0 67.5 24t33.5 65q6 40 -14.5 64.5t-61.5 24.5q-40 0 -68 -24t-34 -65z" />
    <glyph glyph-name="edotaccent" unicode="&#x117;" horiz-adv-x="614" 
d="M29 271q20 140 120 224.5t242 84.5q4 0 12 -0.5t12 -0.5q142 -8 207 -105.5t33 -251.5q-2 -10 -10.5 -17t-17.5 -7h-110l77 -88q6 -8 5 -18t-9 -17q-113 -108 -282 -108q-148 0 -223.5 83t-55.5 221zM79 271q-17 -118 44.5 -186t191.5 -68q132 0 224 75l-71 81
q-59 -40 -116 -40q-41 0 -68 21.5t-35 60.5q-3 16 4 24.5t16 8.5h9h332q20 132 -40 207t-187 75q-123 0 -205 -70t-99 -189zM260 332q14 42 43 70t68 28q41 0 62 -31t12 -74q-2 -9 -10 -16t-18 -7h-136q-30 0 -21 30zM265 703q9 60 54 99.5t105 39.5t94 -39.5t25 -99.5
t-54 -99.5t-105 -39.5t-94 39.5t-25 99.5zM315 198q15 -15 44 -15q27 0 59 15h-103zM315 703q-6 -40 14.5 -64.5t61.5 -24.5q40 0 68 24t34 65q6 40 -14.5 64.5t-61.5 24.5q-40 0 -68 -24t-34 -65zM322 352h74q-5 28 -32 28q-25 0 -42 -28z" />
    <glyph glyph-name="Eogonek" unicode="&#x118;" 
d="M25 0l101 701q1 11 10.5 18t18.5 7h593q11 0 17 -8t4 -17l-25 -176q-1 -11 -10.5 -18t-18.5 -7h-336l-5 -36h303q11 0 17 -8t4 -17l-25 -176q-1 -11 -10.5 -18t-18.5 -7h-303l-5 -37h345q11 0 17 -8t4 -17l-25 -176q-1 -11 -10.5 -18t-18.5 -7h-62q-2 -3 -4.5 -6t-4.5 -6
t-3 -4q11 15 27 -7l46 -64q9 -12 -1 -28q-61 -89 -155 -89q-46 0 -80 27t-25 86q6 43 38 91h-378q-11 0 -17 8t-4 17zM79 25h396q21 0 25 -9.5t-3 -19.5l-7 -10q-47 -57 -54 -102q-9 -63 62 -63q54 0 96 49l-19 27q-20 -16 -40 -16q-16 0 -25.5 11.5t-7.5 28.5q4 29 55 93
q9 11 23 11h51l18 126h-345q-9 0 -16 7t-6 18l13 87q2 9 10 17t19 8h303l18 126h-303q-9 0 -16 7t-6 18l13 86q2 9 9.5 17t18.5 8h336l18 126h-543z" />
    <glyph glyph-name="eogonek" unicode="&#x119;" horiz-adv-x="614" 
d="M29 271q20 140 120 224.5t242 84.5q4 0 12 -0.5t12 -0.5q142 -8 207 -105.5t33 -251.5q-2 -10 -10.5 -17t-17.5 -7h-110l77 -88q6 -7 5 -17.5t-9 -17.5q-82 -79 -109 -116q12 16 28 -7l46 -64q9 -12 -1 -28q-61 -89 -154 -89q-46 0 -80 27t-25 86q5 39 34 84
q-7 -1 -21 -1q-148 0 -223.5 83t-55.5 221zM79 271q-17 -118 44.5 -186t191.5 -68q28 0 66 12q19 6 25 -3.5t2 -22.5l-4 -13q-52 -59 -59 -106q-9 -63 62 -63q53 0 95 49l-19 27q-20 -16 -39 -16q-16 0 -25.5 11.5t-7.5 28.5q4 27 30 63.5t44 54l54 52.5l-71 82
q-59 -40 -116 -40q-84 0 -103 81q-4 16 3.5 24.5t16.5 9.5h9h332q20 132 -40 207t-187 75q-123 0 -205 -70t-99 -189zM260 332q14 42 43 70t68 28q41 0 62 -31t12 -74q-2 -9 -10 -16t-18 -7h-136q-30 0 -21 30zM316 198q16 -15 43 -15t59 15h-102zM322 352h74q-5 28 -32 28
q-24 0 -42 -28z" />
    <glyph glyph-name="Ecaron" unicode="&#x11a;" 
d="M25 0l101 701q1 11 10.5 18t18.5 7h593q11 0 17 -8t4 -17l-25 -176q-1 -11 -10.5 -18t-18.5 -7h-336l-5 -36h303q11 0 17 -8t4 -17l-25 -176q-1 -11 -10.5 -18t-18.5 -7h-303l-5 -37h345q11 0 17 -8t4 -17l-25 -176q-1 -11 -10.5 -18t-18.5 -7h-602q-11 0 -17 8t-4 17z
M79 25h552l18 126h-345q-9 0 -16 7t-6 18l13 87q2 9 10 17t19 8h303l18 126h-303q-9 0 -16 7t-6 18l13 86q2 9 9.5 17t18.5 8h336l18 126h-543zM228 908q-1 2 -2 4.5t-2.5 9.5t0 12t9 9.5t21.5 4.5h165q13 0 19 -11l31 -59l47 59q9 11 23 11h165q2 0 5 -0.5t9.5 -2.5t10 -6
t1.5 -12t-12 -19l-159 -178q-10 -10 -21 -10h-184q-13 0 -19 10zM296 898l77 -128h159l115 128h-102l-64 -79q-13 -16 -23.5 -16t-14.5 8l-4 8l-41 79h-102z" />
    <glyph glyph-name="ecaron" unicode="&#x11b;" horiz-adv-x="614" 
d="M29 271q20 140 120 224.5t242 84.5q4 0 12 -0.5t12 -0.5q142 -8 207 -105.5t33 -251.5q-2 -10 -10.5 -17t-17.5 -7h-110l77 -88q6 -8 5 -18t-9 -17q-113 -108 -282 -108q-148 0 -223.5 83t-55.5 221zM79 271q-17 -118 44.5 -186t191.5 -68q132 0 224 75l-71 81
q-59 -40 -116 -40q-41 0 -68 21.5t-35 60.5q-3 16 4 24.5t16 8.5h9h332q20 132 -40 207t-187 75q-123 0 -205 -70t-99 -189zM161 754q-1 2 -2.5 4.5t-3 9.5t0 12t9 9.5t21.5 4.5h165q15 0 20 -11l30 -59l48 59q9 11 22 11h165q2 0 5 -0.5t10 -2.5t10 -6t1.5 -12t-11.5 -19
l-159 -178q-10 -10 -21 -10h-184q-13 0 -19 10zM229 744l77 -128h159l114 128h-101l-64 -79q-13 -16 -23.5 -16t-14.5 8l-4 8l-41 79h-102zM260 332q14 42 43 70t68 28q41 0 62 -31t12 -74q-2 -9 -10 -16t-18 -7h-136q-30 0 -21 30zM315 198q15 -15 44 -15q27 0 59 15h-103z
M322 352h74q-5 28 -32 28q-25 0 -42 -28z" />
    <glyph glyph-name="Gbreve" unicode="&#x11e;" horiz-adv-x="738" 
d="M40 350q24 166 159.5 274.5t316.5 108.5q87 0 169 -30.5t134 -83.5q7 -7 6 -17t-9 -18l-153 -159q-20 -20 -37 -2q-27 30 -67.5 48.5t-78.5 18.5q-57 0 -100 -39t-52 -101q-9 -63 23 -102.5t90 -39.5q24 0 69 15l21 146q1 11 10.5 18t18.5 7h199q11 0 17 -8t4 -17
l-41 -289q-2 -13 -15 -21q-68 -42 -161 -68t-173 -26q-174 0 -274 109.5t-76 275.5zM90 350q-21 -146 65 -240.5t242 -94.5q67 0 149.5 22t144.5 57l36 250h-149l-20 -138q-2 -16 -19 -23q-63 -25 -105 -25q-79 0 -123.5 55t-32.5 137q11 81 71 135.5t138 54.5q90 0 161 -63
l116 119q-47 39 -116.5 63t-139.5 24q-163 0 -280 -94t-138 -239zM320 922q1 10 9 18t20 8h135q10 0 16 -7t5 -16q-1 -27 20 -27t28 27q2 10 11 16.5t18 6.5h135q10 0 16.5 -7t4.5 -19q-17 -89 -83 -143.5t-155 -54.5t-139 54.5t-41 143.5zM369 898q2 -58 38.5 -91
t100.5 -33t109.5 32.5t64.5 91.5h-88q-11 -22 -31.5 -36t-44.5 -14t-40.5 13.5t-21.5 36.5h-87z" />
    <glyph glyph-name="gbreve" unicode="&#x11f;" horiz-adv-x="654" 
d="M-3 -122l93 151q12 18 31 13q-54 36 -77.5 102.5t-10.5 152.5q18 125 98 204t189 79q64 0 111 -31q7 23 28 23h224q11 0 17.5 -8t4.5 -17l-73 -502q-18 -125 -122 -199.5t-248 -74.5q-78 0 -147 21t-114 54q-16 13 -4 32zM51 -123q90 -56 218 -56q129 0 214 61t99 163
l69 477h-174l-4 -26q-3 -21 -14.5 -25.5t-21.5 1.5l-10 7q-38 51 -115 51q-87 0 -150.5 -62.5t-78.5 -170.5q-11 -78 10 -134t67 -83q39 -22 88 -22q73 0 126 50q18 15 27 11.5t11 -15.5l3 -13l-7 -52q-7 -45 -46 -69.5t-95 -24.5q-80 0 -150 38zM140 31q64 -36 134 -36
q75 0 83 43q-53 -30 -116 -30q-57 0 -101 23zM229 768q1 10 9 18t19 8h135q10 0 16.5 -7t5.5 -16q-1 -27 20 -27t28 27q2 10 10.5 16.5t17.5 6.5h135q10 0 17 -7.5t5 -18.5q-17 -89 -83 -143.5t-155 -54.5t-139 54.5t-41 143.5zM242 291q8 52 40.5 88t78.5 36t68.5 -36
t14.5 -88t-40.5 -87.5t-78.5 -35.5t-68.5 35.5t-14.5 87.5zM278 744q2 -58 38 -91t100 -33t109.5 32.5t64.5 91.5h-87q-11 -22 -31.5 -36t-44.5 -14t-40.5 13.5t-21.5 36.5h-87zM292 291q-5 -36 6.5 -54.5t33.5 -18.5q23 0 40 18.5t22 54.5q11 74 -40 74q-23 0 -39.5 -18
t-22.5 -56z" />
    <glyph glyph-name="Gcommaaccent" unicode="&#x122;" horiz-adv-x="738" 
d="M40 350q24 166 159.5 274.5t316.5 108.5q87 0 169 -30.5t134 -83.5q7 -7 6 -17t-9 -18l-153 -159q-20 -20 -37 -2q-27 30 -67.5 48.5t-78.5 18.5q-57 0 -100 -39t-52 -101q-9 -63 23 -102.5t90 -39.5q24 0 69 15l21 146q1 11 10.5 18t18.5 7h199q11 0 17 -8t4 -17
l-41 -289q-2 -13 -15 -21q-68 -42 -161 -68t-173 -26q-174 0 -274 109.5t-76 275.5zM90 350q-21 -146 65 -240.5t242 -94.5q67 0 149.5 22t144.5 57l36 250h-149l-20 -138q-2 -16 -19 -23q-63 -25 -105 -25q-79 0 -123.5 55t-32.5 137q11 81 71 135.5t138 54.5q90 0 161 -63
l116 119q-47 39 -116.5 63t-139.5 24q-163 0 -280 -94t-138 -239zM216 -331l61 110q-28 32 -21 86q8 55 49.5 91t96.5 36q52 0 85 -34t24 -92q-7 -49 -45 -94l-105 -126q-9 -11 -23 -11h-104q0 1 -4 0t-8.5 1t-8.5 4.5t-3.5 10t6.5 18.5zM279 -315h53l97 115q26 31 32 66
q5 37 -13.5 56.5t-52.5 19.5q-35 0 -59.5 -21t-29.5 -56q-6 -38 19 -57q16 -10 5 -30z" />
    <glyph glyph-name="gcommaaccent" unicode="&#x123;" horiz-adv-x="654" 
d="M-3 -122l93 151q12 18 31 13q-54 36 -77.5 102.5t-10.5 152.5q18 125 98 204t189 79q64 0 111 -31q7 23 28 23h224q11 0 17.5 -8t4.5 -17l-73 -502q-18 -125 -122 -199.5t-248 -74.5q-78 0 -147 21t-114 54q-16 13 -4 32zM51 -123q90 -56 218 -56q129 0 214 61t99 163
l69 477h-174l-4 -26q-3 -21 -14.5 -25.5t-21.5 1.5l-10 7q-38 51 -115 51q-87 0 -150.5 -62.5t-78.5 -170.5q-11 -78 10 -134t67 -83q39 -22 88 -22q73 0 126 50q18 15 27 11.5t11 -15.5l3 -13l-7 -52q-7 -45 -46 -69.5t-95 -24.5q-80 0 -150 38zM140 31q64 -36 134 -36
q75 0 83 43q-53 -30 -116 -30q-57 0 -101 23zM242 291q8 52 40.5 88t78.5 36t68.5 -36t14.5 -88t-40.5 -87.5t-78.5 -35.5t-68.5 35.5t-14.5 87.5zM291 681q7 49 45 94l105 126q9 11 22 11h104q0 -1 4 0t8.5 -1t8.5 -4.5t4 -10t-6 -18.5l-61 -110q28 -32 21 -86
q-8 -55 -49.5 -91t-96.5 -36q-52 0 -85 34t-24 92zM292 291q-5 -36 6.5 -54.5t33.5 -18.5q23 0 40 18.5t22 54.5q11 74 -40 74q-23 0 -39.5 -18t-22.5 -56zM341 681q-5 -37 13.5 -56.5t52.5 -19.5q35 0 59.5 21t29.5 56q6 38 -19 57q-16 10 -5 30l51 93h-54l-96 -115
q-26 -31 -32 -66z" />
    <glyph glyph-name="hbar" unicode="&#x127;" horiz-adv-x="677" 
d="M35 0l78 538h-51q-11 0 -17.5 8t-4.5 17l17 119q1 11 10.5 18t18.5 7h51l5 35q1 11 10.5 18t18.5 7h225q11 0 17 -8t4 -17l-5 -35h72q11 0 17 -8t4 -17l-15 -104q20 4 45 4q97 0 149.5 -65t37.5 -168l-50 -349q-1 -11 -10.5 -18t-18.5 -7h-225q-11 0 -17 8t-4 17l41 284
q7 50 -33 50q-47 0 -56 -63l-39 -271q-1 -11 -10.5 -18t-18.5 -7h-225q-11 0 -17 8t-4 17zM89 25h175l35 246q7 48 38 80.5t75 32.5q40 0 61 -28.5t15 -71.5l-37 -259h175l46 324q12 85 -27.5 134t-116.5 49q-39 0 -75 -14q-48 -20 -82 -63q-14 -15 -24 -12t-15 15l-4 11
l13 94q2 9 10 17t19 8h72l10 69h-72q-9 0 -16 7t-6 18l5 35h-175l-5 -35q-2 -9 -9.5 -17t-18.5 -8h-51l-10 -69h51q9 0 15.5 -7t5.5 -18zM387 534q2 2 6 4h-5z" />
    <glyph glyph-name="Itilde" unicode="&#x128;" horiz-adv-x="332" 
d="M25 0l101 701q1 11 10.5 18t18.5 7h232q11 0 17 -8t4 -17l-101 -701q-1 -11 -10.5 -18t-18.5 -7h-232q-11 0 -17 8t-4 17zM58 768q14 99 57 153.5t115 54.5q21 0 40 -5.5t30 -12t21.5 -13.5t12.5 -8q2 6 3 11q1 11 10 18t18 7h135q11 0 17.5 -8t4.5 -17
q-29 -207 -171 -207q-21 0 -40.5 5.5t-30.5 12t-21.5 13.5t-12.5 8q-1 -2 -1.5 -6t-0.5 -6q-1 -11 -10.5 -18t-18.5 -7h-136q-11 0 -17 8t-4 17zM79 25h182l93 651h-182zM112 793h88q15 38 51 38q24 0 51.5 -20t55.5 -20q43 0 69 29t40 103h-87q-16 -37 -51 -37
q-23 0 -51.5 20t-55.5 20q-43 0 -69.5 -29.5t-40.5 -103.5z" />
    <glyph glyph-name="itilde" unicode="&#x129;" horiz-adv-x="335" 
d="M30 0l79 547q1 11 10 18t18 7h225q11 0 17.5 -8t4.5 -17l-79 -547q-1 -11 -10.5 -18t-18.5 -7h-225q-11 0 -17 8t-4 17zM37 614q14 99 57 153.5t115 54.5q21 0 40.5 -5.5t30.5 -12t21.5 -13.5t12.5 -8q1 2 1 6q1 3 1 5q1 11 10.5 18t18.5 7h135q11 0 17 -8t4 -17
q-29 -207 -170 -207q-21 0 -40.5 5.5t-30.5 12t-21.5 13.5t-12.5 8q-2 -4 -3 -12q-1 -11 -10 -18t-18 -7h-136q-11 0 -17.5 8t-4.5 17zM84 25h175l71 497h-175zM92 639h88q15 38 51 38q24 0 51.5 -20t55.5 -20q43 0 69 29t40 103h-87q-16 -37 -52 -37q-23 0 -51 20t-55 20
q-43 0 -69.5 -29.5t-40.5 -103.5z" />
    <glyph glyph-name="Imacron" unicode="&#x12a;" horiz-adv-x="332" 
d="M25 0l101 701q1 11 10.5 18t18.5 7h232q11 0 17 -8t4 -17l-101 -701q-1 -11 -10.5 -18t-18.5 -7h-232q-11 0 -17 8t-4 17zM79 25h182l93 651h-182zM103 778l21 148q1 11 10.5 18t18.5 7h300q11 0 17 -8t4 -17l-21 -148q-1 -11 -10 -18t-18 -7h-300q-11 0 -17.5 8t-4.5 17
zM157 803h250l14 98h-250z" />
    <glyph glyph-name="imacron" unicode="&#x12b;" horiz-adv-x="335" 
d="M30 0l79 547q1 11 10 18t18 7h225q11 0 17.5 -8t4.5 -17l-79 -547q-1 -11 -10.5 -18t-18.5 -7h-225q-11 0 -17 8t-4 17zM83 624l21 148q1 11 10.5 18t18.5 7h300q11 0 17 -8t4 -17l-21 -148q-1 -11 -10.5 -18t-18.5 -7h-300q-11 0 -17 8t-4 17zM84 25h175l71 497h-175z
M137 649h250l14 98h-250z" />
    <glyph glyph-name="Iogonek" unicode="&#x12e;" horiz-adv-x="332" 
d="M25 0l101 701q1 11 10.5 18t18.5 7h232q11 0 17 -8t4 -17l-101 -701q-1 -11 -10.5 -18t-18.5 -7h-37q-2 -3 -4.5 -6t-4.5 -6t-3 -4q11 15 27 -7l46 -64q9 -12 -1 -28q-61 -89 -155 -89q-46 0 -80 27t-25 86q6 43 38 91h-33q-11 0 -17 8t-4 17zM79 25h51q21 0 25 -9.5
t-3 -19.5l-7 -10q-47 -57 -54 -102q-9 -63 62 -63q54 0 96 49l-19 27q-20 -16 -40 -16q-16 0 -25.5 11.5t-7.5 28.5q4 29 55 93q9 11 23 11h26l93 651h-182z" />
    <glyph glyph-name="iogonek" unicode="&#x12f;" horiz-adv-x="311" 
d="M18 0l79 547q1 11 10 18t18 7h225q11 0 17.5 -8t4.5 -17l-79 -547q-1 -11 -10.5 -18t-18.5 -7h-42q-2 -3 -4.5 -6t-4.5 -6t-3 -4q11 15 27 -7l46 -64q9 -12 -1 -28q-61 -89 -155 -89q-46 0 -80 27t-25 86q6 43 38 91h-21q-11 0 -17 8t-4 17zM72 25h39q21 0 25 -9.5
t-3 -19.5l-7 -10q-47 -57 -54 -102q-9 -63 62 -63q54 0 96 49l-19 27q-20 -16 -40 -16q-16 0 -25.5 11.5t-7.5 28.5q4 29 55 93q9 11 23 11h31l71 497h-175zM118 703q9 60 54 99.5t105 39.5t94 -39.5t25 -99.5t-54 -99.5t-105 -39.5t-94 39.5t-25 99.5zM168 703
q-6 -40 14.5 -64.5t61.5 -24.5q40 0 68 24t34 65q6 40 -14.5 64.5t-61.5 24.5q-40 0 -68 -24t-34 -65z" />
    <glyph glyph-name="Idotaccent" unicode="&#x130;" horiz-adv-x="332" 
d="M25 0l101 701q1 11 10.5 18t18.5 7h232q11 0 17 -8t4 -17l-101 -701q-1 -11 -10.5 -18t-18.5 -7h-232q-11 0 -17 8t-4 17zM79 25h182l93 651h-182zM150 857q9 60 54.5 99.5t105.5 39.5t93.5 -39.5t24.5 -99.5t-54 -99.5t-105 -39.5t-94 39.5t-25 99.5zM200 857
q-6 -40 15 -64.5t62 -24.5q40 0 67.5 24t33.5 65q6 40 -14.5 64.5t-61.5 24.5q-40 0 -68 -24t-34 -65z" />
    <glyph glyph-name="dotlessi" unicode="&#x131;" horiz-adv-x="335" 
d="M30 0l79 547q1 11 10 18t18 7h225q11 0 17.5 -8t4.5 -17l-79 -547q-1 -11 -10.5 -18t-18.5 -7h-225q-11 0 -17 8t-4 17zM84 25h175l71 497h-175z" />
    <glyph glyph-name="IJ" unicode="&#x132;" horiz-adv-x="901" 
d="M25 0l101 701q1 11 10.5 18t18.5 7h232q11 0 17 -8t4 -17l-101 -701q-1 -11 -10.5 -18t-18.5 -7h-232q-11 0 -17 8t-4 17zM79 25h182l93 651h-182zM319 95q-11 15 3 31l126 150q21 25 39 4q30 -36 63 -54t55 -18q15 0 22.5 6.5t10.5 27.5l36 251h-213q-11 0 -17 8t-4 17
l26 183q1 11 10.5 18t18.5 7h471q11 0 17 -8t4 -17l-67 -464q-19 -127 -108 -199.5t-220 -72.5q-173 0 -273 130zM373 114q85 -99 226 -99q113 0 184 57.5t87 164.5l63 439h-421l-19 -133h213q9 0 16 -7t6 -18l-40 -276q-5 -38 -30.5 -61t-59.5 -23q-67 0 -133 66z" />
    <glyph glyph-name="ij" unicode="&#x133;" horiz-adv-x="683" 
d="M30 0l79 547q1 11 10 18t18 7h225q11 0 17.5 -8t4.5 -17l-79 -547q-1 -11 -10.5 -18t-18.5 -7h-225q-11 0 -17 8t-4 17zM84 25h175l71 497h-175zM130 703q9 60 54 99.5t105 39.5t94 -39.5t25 -99.5t-54 -99.5t-105 -39.5t-94 39.5t-25 99.5zM180 703q-6 -40 14.5 -64.5
t61.5 -24.5q40 0 68 24t34 65q6 40 -14.5 64.5t-61.5 24.5q-40 0 -68 -24t-34 -65zM199 -161l72 154q14 27 37 15q24 -12 43 -12q11 -1 15 2.5t6 18.5l77 530q1 11 10 18t18 7h225q11 0 17.5 -8t4.5 -17l-81 -564q-14 -97 -90 -154.5t-183 -56.5q-95 0 -163 37q-17 10 -8 30
zM254 -156q53 -22 123 -22q91 -1 148 42.5t68 118.5l77 539h-175l-73 -505q-5 -32 -26.5 -52t-52.5 -19q-17 0 -38 6zM460 703q9 61 56.5 100t111.5 39t100.5 -39t27.5 -100t-56.5 -100t-111.5 -39t-100.5 39t-27.5 100zM510 703q-6 -39 17 -64t68 -25t75 24.5t36 64.5
t-17 64.5t-68 24.5q-44 0 -74.5 -24.5t-36.5 -64.5z" />
    <glyph glyph-name="Jcircumflex" unicode="&#x134;" horiz-adv-x="569" 
d="M-13 95q-11 15 3 31l126 150q21 25 39 4q30 -36 63 -54t55 -18q15 0 22.5 6.5t10.5 27.5l36 251h-213q-11 0 -17 8t-4 17l26 183q1 11 10.5 18t18.5 7h471q11 0 17 -8t4 -17l-67 -464q-19 -127 -108 -199.5t-220 -72.5q-173 0 -273 130zM41 114q85 -99 226 -99
q113 0 184 57.5t87 164.5l63 439h-421l-19 -133h213q9 0 16 -7t6 -18l-40 -276q-5 -38 -30.5 -61t-59.5 -23q-67 0 -133 66zM178 776l144 162q10 10 22 10h168q12 0 18 -10l98 -162q1 -2 2 -4.5t2.5 -9.5t0 -12t-9 -9.5t-21.5 -4.5h-150q-14 0 -19 11l-27 51l-42 -51
q-9 -11 -22 -11h-150q-2 0 -5 0.5t-9.5 2.5t-10 6t-1.5 12t12 19zM249 786h87l58 71q12 15 22.5 15t14.5 -8l4 -7l38 -71h86l-67 112h-143z" />
    <glyph glyph-name="jcircumflex" unicode="&#x135;" horiz-adv-x="338" 
d="M-136 -161l72 154q14 27 37 15q24 -12 43 -12q11 -1 15 2.5t6 18.5l77 530q1 11 10 18t18 7h225q11 0 17.5 -8t4.5 -17l-81 -564q-14 -97 -90 -154.5t-183 -56.5q-95 0 -163 37q-17 10 -8 30zM-81 -156q53 -22 123 -22q91 -1 148 42.5t68 118.5l77 539h-175l-73 -505
q-5 -32 -26.5 -52t-52.5 -19q-17 0 -38 6zM29 622l144 162q10 10 21 10h168q13 0 19 -10l98 -162q1 -2 2 -4.5t2.5 -9.5t0 -12t-9 -9.5t-21.5 -4.5h-150q-13 0 -19 11l-27 51l-42 -51q-9 -11 -22 -11h-150q-2 0 -5 0.5t-9.5 2.5t-10 6t-1.5 12t12 19zM100 632h87l58 71
q12 15 22.5 15t14.5 -8l4 -7l37 -71h87l-67 112h-143z" />
    <glyph glyph-name="Kcommaaccent" unicode="&#x136;" horiz-adv-x="773" 
d="M25 0l101 701q1 11 10.5 18t18.5 7h232q11 0 17 -8t4 -17l-25 -176l192 192q9 9 21 9h267q2 0 5 -0.5t9.5 -3.5t9.5 -7t1 -12.5t-13 -18.5l-276 -268l197 -403v-1q1 -1 2 -3.5t1.5 -5t1 -6t-0.5 -6.5t-3 -6t-5.5 -5t-9 -3.5t-13.5 -1.5h-277q-14 0 -19 12l-98 212
l-46 -44l-22 -155q-1 -11 -10.5 -18t-18.5 -7h-232q-11 0 -17 8t-4 17zM79 25h182l20 140q2 10 9 17l78 76q26 25 40 -4l106 -229h217l-186 381q-8 17 7 30l248 240h-200l-235 -234q-18 -16 -27.5 -12.5t-11.5 16.5l-3 12l31 218h-182zM193 -331l61 110q-28 32 -21 86
q8 55 49.5 91t96.5 36q52 0 85 -34t24 -92q-7 -49 -45 -94l-105 -126q-9 -11 -23 -11h-104q0 1 -4 0t-8.5 1t-8.5 4.5t-3.5 10t6.5 18.5zM256 -315h53l97 115q26 31 32 66q5 37 -13.5 56.5t-52.5 19.5q-35 0 -59.5 -21t-29.5 -56q-6 -38 19 -57q16 -10 5 -30z" />
    <glyph glyph-name="kcedilla" unicode="&#x137;" horiz-adv-x="662" 
d="M-30 -203l53 90q3 6 10 11q-18 12 -4 33l29 44h-2q-11 0 -17 8t-4 17l107 742q1 11 10.5 18t18.5 7h225q11 0 17 -8t4 -17l-39 -272l97 94q10 8 19 8h254q2 0 5.5 -0.5t10 -3.5t10 -7.5t1 -12.5t-13.5 -18l-215 -198l140 -319v-1q1 -1 2 -3.5t1.5 -5t0.5 -6t-0.5 -6.5
t-2.5 -6t-5.5 -5t-9 -3.5t-13.5 -1.5h-267q-15 0 -20 14l-45 130l-17 -119q-1 -11 -10.5 -18t-18.5 -7h-45l-9 -15q52 -35 43 -94q-9 -63 -61.5 -100.5t-124.5 -37.5q-59 0 -110 38q-15 12 -4 31zM25 -203q36 -19 66 -19q57 0 90.5 24t38.5 64q2 18 -8.5 34.5t-32.5 24.5
q-26 10 -9 36l35 51q9 13 24 13h35l17 119q2 10 9 17l31 28q15 12 24 11t13 -9l3 -8l54 -158h208l-131 298q-7 16 8 30l183 169h-185l-138 -134q-18 -15 -27.5 -11.5t-12.5 15.5l-2 13l45 312h-175l-99 -692h18q20 0 24.5 -9.5t-1.5 -18.5l-6 -9l-27 -39q24 -2 40.5 -17.5
t12.5 -41.5t-24.5 -42t-46.5 -16q-13 0 -30 7zM63 -103q9 -15 23 -15q12 0 14 8q0 9 -17 9q-4 0 -20 -2z" />
    <glyph glyph-name="kgreenlandic" unicode="&#x138;" horiz-adv-x="655" 
d="M30 0l79 547q1 11 10 18t18 7h225q11 0 17.5 -8t4.5 -17l-11 -74l95 91q10 8 19 8h254q2 0 5.5 -0.5t10 -3.5t10 -7.5t1 -12.5t-13.5 -18l-215 -198l140 -319l1 -1q0 -1 1 -3.5t1.5 -5t0.5 -6t-0.5 -6.5t-2.5 -6t-5.5 -5t-9 -3.5t-13.5 -1.5h-267q-15 0 -20 14l-43 126
l-17 -115q-1 -11 -10.5 -18t-18.5 -7h-225q-11 0 -17 8t-4 17zM84 25h175l17 121q2 9 10 17l28 26q15 12 24 11t12 -9l4 -8l54 -158h208l-131 298q-7 16 8 30l183 169h-185l-136 -132q-18 -15 -27 -11.5t-12 15.5l-2 13l16 115h-175z" />
    <glyph glyph-name="Lacute" unicode="&#x139;" horiz-adv-x="584" 
d="M25 0l101 701q1 11 10.5 18t18.5 7h232q11 0 17 -8t4 -17l-70 -483h267q11 0 17.5 -8t4.5 -17l-28 -193q-1 -11 -10.5 -18t-18.5 -7h-524q-11 0 -17 8t-4 17zM79 25h474l20 143h-267q-9 0 -15.5 7t-5.5 18l69 483h-182zM141 757l135 189q12 18 31 12l181 -60
q5 -1 9.5 -3.5t9.5 -13t-16 -25.5l-155 -129q-9 -7 -18 -7h-160q0 1 -4.5 0t-9.5 1t-9.5 5t-3 11.5t9.5 19.5zM208 770h107l112 93l-124 41z" />
    <glyph glyph-name="lacute" unicode="&#x13a;" horiz-adv-x="345" 
d="M35 0l107 742q1 11 10.5 18t18.5 7h225q11 0 17 -8t4 -17l-107 -742q-1 -11 -10.5 -18t-18.5 -7h-225q-11 0 -17 8t-4 17zM89 25h175l99 692h-175zM161 798l135 189q12 17 30 12l182 -60q5 -1 9.5 -3.5t9.5 -13t-16 -25.5l-155 -129q-9 -7 -18 -7h-160q0 1 -4.5 0t-9.5 1
t-9.5 5t-3 11.5t9.5 19.5zM228 811h107l112 93l-124 41z" />
    <glyph glyph-name="Lcommaaccent" unicode="&#x13b;" horiz-adv-x="584" 
d="M25 0l101 701q1 11 10.5 18t18.5 7h232q11 0 17 -8t4 -17l-70 -483h267q11 0 17.5 -8t4.5 -17l-28 -193q-1 -11 -10.5 -18t-18.5 -7h-524q-11 0 -17 8t-4 17zM79 25h474l20 143h-267q-9 0 -15.5 7t-5.5 18l69 483h-182zM112 -331l61 110q-28 32 -21 86q8 55 49.5 91
t96.5 36q52 0 85 -34t24 -92q-7 -49 -45 -94l-105 -126q-9 -11 -23 -11h-104q0 1 -4 0t-8.5 1t-8.5 4.5t-3.5 10t6.5 18.5zM175 -315h53l97 115q26 31 32 66q5 37 -13.5 56.5t-52.5 19.5q-35 0 -59.5 -21t-29.5 -56q-6 -38 19 -57q16 -10 5 -30z" />
    <glyph glyph-name="lcommaaccent" unicode="&#x13c;" horiz-adv-x="345" 
d="M-7 -331l61 110q-28 32 -21 86q8 55 49.5 91t96.5 36q52 0 85 -34t24 -92q-7 -49 -45 -94l-105 -126q-9 -11 -23 -11h-104q0 1 -4 0t-8.5 1t-8.5 4.5t-3.5 10t6.5 18.5zM35 0l107 742q1 11 10.5 18t18.5 7h225q11 0 17 -8t4 -17l-107 -742q-1 -11 -10.5 -18t-18.5 -7
h-225q-11 0 -17 8t-4 17zM56 -315h53l97 115q26 31 32 66q5 37 -13.5 56.5t-52.5 19.5q-35 0 -59.5 -21t-29.5 -56q-6 -38 19 -57q16 -10 5 -30zM89 25h175l99 692h-175z" />
    <glyph glyph-name="Lcaron" unicode="&#x13d;" horiz-adv-x="584" 
d="M25 0l101 701q1 11 10.5 18t18.5 7h232q11 0 17 -8t4 -17l-70 -483h267q11 0 17.5 -8t4.5 -17l-28 -193q-1 -11 -10.5 -18t-18.5 -7h-524q-11 0 -17 8t-4 17zM79 25h474l20 143h-267q-9 0 -15.5 7t-5.5 18l69 483h-182zM377 371l61 110q-28 32 -21 86q8 55 49.5 91
t96.5 36q52 0 85 -34t24 -92q-7 -49 -45 -94l-105 -126q-9 -11 -22 -11h-104q0 1 -4 0t-8.5 1t-8.5 4.5t-4 10t6 18.5zM440 387h54l96 115q26 31 32 66q5 37 -13.5 56.5t-52.5 19.5q-35 0 -59.5 -21t-29.5 -56q-6 -38 19 -57q16 -10 5 -30z" />
    <glyph glyph-name="lcaron" unicode="&#x13e;" horiz-adv-x="485" 
d="M35 0l107 742q1 11 10.5 18t18.5 7h225q11 0 17 -8t4 -17l-107 -742q-1 -11 -10.5 -18t-18.5 -7h-225q-11 0 -17 8t-4 17zM89 25h175l99 692h-175zM325 371l61 110q-28 32 -21 86q8 55 49.5 91t96.5 36q52 0 85 -34t24 -92q-7 -49 -45 -94l-105 -126q-9 -11 -22 -11h-104
q0 1 -4 0t-8.5 1t-8.5 4.5t-4 10t6 18.5zM388 387h54l96 115q26 31 32 66q5 37 -13.5 56.5t-52.5 19.5q-35 0 -59.5 -21t-29.5 -56q-6 -38 19 -57q16 -10 5 -30z" />
    <glyph glyph-name="Ldot" unicode="&#x13f;" horiz-adv-x="584" 
d="M25 0l101 701q1 11 10.5 18t18.5 7h232q11 0 17 -8t4 -17l-70 -483h267q11 0 17.5 -8t4.5 -17l-28 -193q-1 -11 -10.5 -18t-18.5 -7h-524q-11 0 -17 8t-4 17zM79 25h474l20 143h-267q-9 0 -15.5 7t-5.5 18l69 483h-182zM374 497q8 55 49 91t96 36q56 0 87 -36t23 -91
q-8 -56 -50 -92t-97 -36t-85.5 36.5t-22.5 91.5zM424 497q-5 -36 12.5 -57t52.5 -21q36 0 60.5 21t29.5 57q5 35 -13 56t-54 21q-35 0 -59 -21t-29 -56z" />
    <glyph glyph-name="ldot" unicode="&#x140;" horiz-adv-x="447" 
d="M35 0l107 742q1 11 10.5 18t18.5 7h225q11 0 17 -8t4 -17l-47 -323q38 23 80 23q55 0 85.5 -36.5t22.5 -91.5t-49 -91t-96 -36q-42 0 -73 23l-30 -210q-1 -11 -10.5 -18t-18.5 -7h-225q-11 0 -17 8t-4 17zM89 25h175l38 267q3 18 15 24.5t23.5 0t11.5 -19.5
q2 -28 19.5 -44t48.5 -16q35 0 59 21t29 56q5 36 -13 57t-53 21q-65 0 -85 -61l-49 5l55 381h-175z" />
    <glyph glyph-name="Lslash" unicode="&#x141;" horiz-adv-x="606" 
d="M4 405q-1 10 6 19.5t16 11.5l87 25l35 240q1 11 10.5 18t18.5 7h232q11 0 17 -8t4 -17l-23 -159l102 29q11 3 19.5 -2t9.5 -15l18 -135q1 -10 -5.5 -19.5t-15.5 -11.5l-156 -44l-19 -126h267q11 0 17.5 -8t4.5 -17l-28 -193q-1 -11 -10.5 -18t-18.5 -7h-524q-11 0 -17 8
t-4 17l38 263l-34 -9q-10 -3 -18 2.5t-10 14.5zM58 395l12 -86l41 11q5 1 9.5 1.5t7.5 -0.5t5.5 -2.5t3.5 -4t2 -4.5t1 -4.5v-4v-3.5v-2l-39 -271h474l20 143h-267q-9 0 -15.5 7t-5.5 18l24 170q3 19 22 24l150 42l-12 87l-110 -31q-5 -1 -9 -1.5t-7 0t-5.5 2t-3.5 3t-2 3.5
t-1.5 4t-0.5 4.5v4v3.5v1l24 167h-182l-33 -234q-3 -19 -22 -24z" />
    <glyph glyph-name="lslash" unicode="&#x142;" horiz-adv-x="373" 
d="M-9 417q-1 10 6 19.5t16 11.5l115 32l38 262q1 11 10.5 18t18.5 7h225q11 0 17 -8t4 -17l-26 -183l40 12q10 3 19 -2t10 -15l18 -135q1 -10 -5.5 -19.5t-15.5 -11.5l-95 -26l-52 -362q-1 -11 -10.5 -18t-18.5 -7h-225q-11 0 -17 8t-4 17l41 283l-62 -17q-10 -3 -18 2
t-10 15zM44 407l12 -86l70 19q5 1 9.5 1.5t7.5 -0.5t5.5 -2.5t3.5 -4t2 -4.5t1 -4.5v-4v-3.5v-2l-42 -291h175l51 356q3 19 22 24l88 24l-12 87l-49 -14q-6 -2 -11 -2t-8 1t-5 3.5t-3 5t-1.5 5.5t0 5t0.5 4v2l27 191h-175l-37 -256q-3 -19 -21 -24z" />
    <glyph glyph-name="Nacute" unicode="&#x143;" horiz-adv-x="781" 
d="M25 0l101 701q1 11 10.5 18t18.5 7h194q12 0 18 -10l189 -302l41 287q1 11 10.5 18t18.5 7h210q11 0 17 -8t4 -17l-101 -701q-1 -11 -10.5 -18t-18.5 -7h-194q-12 0 -18 10l-188 300l-41 -285q-1 -11 -10.5 -18t-18.5 -7h-211q-11 0 -17 8t-4 17zM79 25h161l48 333
q3 20 15 24t22 -2l10 -7l218 -348h157l93 651h-160l-48 -335q-3 -20 -15 -24t-22 3l-10 6l-219 350h-157zM373 757l135 189q12 18 31 12l181 -60q5 -1 9.5 -3.5t9.5 -13t-16 -25.5l-155 -129q-9 -7 -18 -7h-160q0 1 -4.5 0t-9.5 1t-9.5 5t-3 11.5t9.5 19.5zM440 770h107
l112 93l-124 41z" />
    <glyph glyph-name="nacute" unicode="&#x144;" horiz-adv-x="682" 
d="M30 0l79 547q1 11 10 18t18 7h225q11 0 17.5 -8t4.5 -17l-2 -13q64 48 148 48q97 0 149.5 -65t37.5 -168l-50 -349q-1 -11 -10.5 -18t-18.5 -7h-225q-11 0 -17 8t-4 17l41 284q7 50 -33 50q-47 0 -56 -63l-39 -271q-1 -11 -10.5 -18t-18.5 -7h-225q-11 0 -17 8t-4 17z
M84 25h175l35 246q7 48 38 80.5t75 32.5q40 0 61 -28.5t15 -71.5l-37 -259h175l46 324q12 85 -27.5 134t-116.5 49q-94 0 -157 -77q-14 -15 -24 -12t-14 15l-5 11l7 53h-175zM320 603l134 189q12 18 31 12l182 -60q5 -1 9.5 -3.5t9.5 -13t-16 -25.5l-155 -129q-9 -7 -18 -7
h-160q0 1 -4.5 0t-9.5 1t-9.5 5t-3 11.5t9.5 19.5zM387 616h107l112 93l-124 41z" />
    <glyph glyph-name="Ncommaaccent" unicode="&#x145;" horiz-adv-x="781" 
d="M25 0l101 701q1 11 10.5 18t18.5 7h194q12 0 18 -10l189 -302l41 287q1 11 10.5 18t18.5 7h210q11 0 17 -8t4 -17l-101 -701q-1 -11 -10.5 -18t-18.5 -7h-194q-12 0 -18 10l-188 300l-41 -285q-1 -11 -10.5 -18t-18.5 -7h-211q-11 0 -17 8t-4 17zM79 25h161l48 333
q3 20 15 24t22 -2l10 -7l218 -348h157l93 651h-160l-48 -335q-3 -20 -15 -24t-22 3l-10 6l-219 350h-157zM211 -331l61 110q-28 32 -21 86q8 55 49.5 91t96.5 36q52 0 85 -34t24 -92q-7 -49 -45 -94l-105 -126q-9 -11 -23 -11h-104q0 1 -4 0t-8.5 1t-8.5 4.5t-3.5 10
t6.5 18.5zM274 -315h53l97 115q26 31 32 66q5 37 -13.5 56.5t-52.5 19.5q-35 0 -59.5 -21t-29.5 -56q-6 -38 19 -57q16 -10 5 -30z" />
    <glyph glyph-name="ncommaaccent" unicode="&#x146;" horiz-adv-x="682" 
d="M30 0l79 547q1 11 10 18t18 7h225q11 0 17.5 -8t4.5 -17l-2 -13q64 48 148 48q97 0 149.5 -65t37.5 -168l-50 -349q-1 -11 -10.5 -18t-18.5 -7h-225q-11 0 -17 8t-4 17l41 284q7 50 -33 50q-47 0 -56 -63l-39 -271q-1 -11 -10.5 -18t-18.5 -7h-225q-11 0 -17 8t-4 17z
M84 25h175l35 246q7 48 38 80.5t75 32.5q40 0 61 -28.5t15 -71.5l-37 -259h175l46 324q12 85 -27.5 134t-116.5 49q-94 0 -157 -77q-14 -15 -24 -12t-14 15l-5 11l7 53h-175zM167 -331l61 110q-28 32 -21 86q8 55 49.5 91t96.5 36q52 0 85 -34t24 -92q-7 -49 -45 -94
l-105 -126q-9 -11 -23 -11h-104q0 1 -4 0t-8.5 1t-8.5 4.5t-3.5 10t6.5 18.5zM230 -315h53l97 115q26 31 32 66q5 37 -13.5 56.5t-52.5 19.5q-35 0 -59.5 -21t-29.5 -56q-6 -38 19 -57q16 -10 5 -30z" />
    <glyph glyph-name="Ncaron" unicode="&#x147;" horiz-adv-x="781" 
d="M25 0l101 701q1 11 10.5 18t18.5 7h194q12 0 18 -10l189 -302l41 287q1 11 10.5 18t18.5 7h210q11 0 17 -8t4 -17l-101 -701q-1 -11 -10.5 -18t-18.5 -7h-194q-12 0 -18 10l-188 300l-41 -285q-1 -11 -10.5 -18t-18.5 -7h-211q-11 0 -17 8t-4 17zM79 25h161l48 333
q3 20 15 24t22 -2l10 -7l218 -348h157l93 651h-160l-48 -335q-3 -20 -15 -24t-22 3l-10 6l-219 350h-157zM271 908q-1 2 -2 4.5t-2.5 9.5t0 12t9 9.5t21.5 4.5h165q14 0 19 -11l31 -59l47 59q9 11 23 11h165q2 0 5 -0.5t9.5 -2.5t10 -6t1.5 -12t-12 -19l-159 -178
q-10 -10 -21 -10h-184q-13 0 -19 10zM339 898l77 -128h159l115 128h-102l-64 -79q-13 -16 -23.5 -16t-14.5 8l-4 8l-41 79h-102z" />
    <glyph glyph-name="ncaron" unicode="&#x148;" horiz-adv-x="682" 
d="M30 0l79 547q1 11 10 18t18 7h225q11 0 17.5 -8t4.5 -17l-2 -13q64 48 148 48q97 0 149.5 -65t37.5 -168l-50 -349q-1 -11 -10.5 -18t-18.5 -7h-225q-11 0 -17 8t-4 17l41 284q7 50 -33 50q-47 0 -56 -63l-39 -271q-1 -11 -10.5 -18t-18.5 -7h-225q-11 0 -17 8t-4 17z
M84 25h175l35 246q7 48 38 80.5t75 32.5q40 0 61 -28.5t15 -71.5l-37 -259h175l46 324q12 85 -27.5 134t-116.5 49q-94 0 -157 -77q-14 -15 -24 -12t-14 15l-5 11l7 53h-175zM218 754q-1 2 -2.5 4.5t-3 9.5t0 12t9 9.5t21.5 4.5h165q14 0 20 -11l30 -59l48 59q9 11 22 11
h165q2 0 5 -0.5t10 -2.5t10 -6t1.5 -12t-11.5 -19l-159 -178q-10 -10 -21 -10h-184q-13 0 -19 10zM286 744l77 -128h159l114 128h-101l-64 -79q-13 -16 -23.5 -16t-14.5 8l-4 8l-41 79h-102z" />
    <glyph glyph-name="Omacron" unicode="&#x14c;" horiz-adv-x="800" 
d="M41 351q24 167 156 274.5t309 107.5t278 -108t77 -274q-24 -167 -156.5 -276.5t-309.5 -109.5t-277.5 109t-76.5 277zM91 351q-21 -146 66 -241t245 -95t273 95.5t136 240.5q21 144 -67 238t-246 94t-272 -93.5t-135 -238.5zM278 350q12 80 71 135t132 55q72 0 112 -54.5
t29 -135.5t-67.5 -136.5t-128.5 -55.5q-73 0 -116.5 56t-31.5 136zM327 778l21 148q1 11 10.5 18t18.5 7h300q11 0 17 -8t4 -17l-21 -148q-1 -11 -10 -18t-18 -7h-300q-11 0 -17.5 8t-4.5 17zM328 350q-9 -61 23 -101.5t82 -40.5q49 0 89.5 40t49.5 102t-20 101t-78 39
q-51 0 -94 -39.5t-52 -100.5zM381 803h250l14 98h-250z" />
    <glyph glyph-name="omacron" unicode="&#x14d;" horiz-adv-x="648" 
d="M29 274q20 139 124.5 222.5t254.5 83.5t229.5 -83.5t59.5 -222.5t-124 -223t-254 -84t-230 84t-60 223zM79 274q-17 -118 49 -187.5t198 -69.5t218 69.5t103 187.5t-49 187t-198 69t-218 -69t-103 -187zM239 624l21 148q1 11 10.5 18t18.5 7h300q11 0 17 -8t4 -17
l-21 -148q-1 -11 -10.5 -18t-18.5 -7h-300q-11 0 -17 8t-4 17zM256 271q8 56 42.5 93.5t83.5 37.5t72.5 -37.5t15.5 -93.5t-42.5 -93.5t-83.5 -37.5t-72.5 37.5t-15.5 93.5zM293 649h250l14 98h-250zM306 271q-6 -40 7 -60.5t38 -20.5t44 20.5t25 60.5t-7 60.5t-38 20.5
t-44 -20.5t-25 -60.5z" />
    <glyph glyph-name="Ohungarumlaut" unicode="&#x150;" horiz-adv-x="800" 
d="M41 351q24 167 156 274.5t309 107.5t278 -108t77 -274q-24 -167 -156.5 -276.5t-309.5 -109.5t-277.5 109t-76.5 277zM91 351q-21 -146 66 -241t245 -95t273 95.5t136 240.5q21 144 -67 238t-246 94t-272 -93.5t-135 -238.5zM276 755l114 189q5 9 15 13t18 1l154 -53
q30 -10 8 -38l-109 -136q-9 -11 -22 -11h-160q0 1 -4 0t-9 1t-9 5t-3.5 10.5t7.5 18.5zM278 350q12 80 71 135t132 55q72 0 112 -54.5t29 -135.5t-67.5 -136.5t-128.5 -55.5q-73 0 -116.5 56t-31.5 136zM328 350q-9 -61 23 -101.5t82 -40.5q49 0 89.5 40t49.5 102t-20 101
t-78 39q-51 0 -94 -39.5t-52 -100.5zM340 770h107l78 97l-104 36zM497 755l114 189q5 9 15 13t18 1l154 -53q30 -10 8 -38l-109 -136q-9 -11 -22 -11h-160q0 1 -4 0t-9 1t-9 5t-3.5 10.5t7.5 18.5zM561 770h107l78 97l-104 36z" />
    <glyph glyph-name="ohungarumlaut" unicode="&#x151;" horiz-adv-x="648" 
d="M29 274q20 139 124.5 222.5t254.5 83.5t229.5 -83.5t59.5 -222.5t-124 -223t-254 -84t-230 84t-60 223zM79 274q-17 -118 49 -187.5t198 -69.5t218 69.5t103 187.5t-49 187t-198 69t-218 -69t-103 -187zM188 601l114 189q5 9 15 13t18 1l154 -53q30 -10 8 -38l-109 -136
q-9 -11 -22 -11h-160q0 1 -4 0t-9 1t-9 5t-3.5 10.5t7.5 18.5zM252 616h107l78 97l-105 36zM256 271q8 56 42.5 93.5t83.5 37.5t72.5 -37.5t15.5 -93.5t-42.5 -93.5t-83.5 -37.5t-72.5 37.5t-15.5 93.5zM306 271q-6 -40 7 -60.5t38 -20.5t44 20.5t25 60.5t-7 60.5t-38 20.5
t-44 -20.5t-25 -60.5zM409 601l114 189q5 9 15 13t18 1l154 -53q30 -10 8 -38l-109 -136q-9 -11 -22 -11h-160q0 1 -4 0t-9 1t-9 5t-3.5 10.5t7.5 18.5zM473 616h107l78 97l-105 36z" />
    <glyph glyph-name="OE" unicode="&#x152;" horiz-adv-x="1127" 
d="M40 349q23 163 155.5 270t308.5 107h681q11 0 17 -8t4 -17l-25 -176q-1 -11 -10.5 -18t-18.5 -7h-336l-5 -36h303q11 0 17 -8t4 -17l-25 -176q-1 -11 -10.5 -18t-18.5 -7h-303l-5 -37h345q11 0 17 -8t4 -17l-25 -176q-1 -11 -10.5 -18t-18.5 -7h-690q-175 0 -276.5 105.5
t-78.5 268.5zM90 349q-20 -141 68 -232.5t245 -91.5h665l18 126h-345q-9 0 -16 7t-6 18l13 87q2 9 10 17t19 8h303l18 126h-303q-9 0 -16 7t-6 18l13 86q2 9 10 17t18 8h336l18 126h-656q-157 0 -271.5 -93t-134.5 -234zM278 348q11 81 67.5 136t131.5 55h88q9 0 15.5 -7
t5.5 -18l-47 -330q-2 -9 -10.5 -17t-18.5 -8l-88 -1q-75 0 -115 54.5t-29 135.5zM328 348q-9 -62 20 -101t81 -39l63 1l40 280h-63q-52 0 -92 -39t-49 -102z" />
    <glyph glyph-name="oe" unicode="&#x153;" horiz-adv-x="999" 
d="M29 274q20 139 124.5 222.5t254.5 83.5q115 0 179 -62q79 62 187 62q4 0 12 -0.5t12 -0.5q143 -8 208.5 -105.5t33.5 -251.5q-2 -10 -10.5 -17t-17.5 -7h-110l77 -88q6 -7 5 -17.5t-9 -17.5q-114 -108 -284 -108q-113 0 -175 62q-84 -62 -197 -62q-150 0 -230 84t-60 223
zM79 274q-17 -118 49 -187.5t198 -69.5q109 0 180 63q10 9 20.5 8.5t15.5 -8.5q48 -63 156 -63q132 0 226 75l-71 81q-58 -40 -118 -40q-40 0 -68 21t-37 60q-4 16 3.5 24.5t16.5 9.5h9h336q20 132 -40.5 207t-188.5 75q-100 0 -167 -64q-22 -20 -37 0q-51 64 -162 64
q-132 0 -218 -69t-103 -187zM256 271q8 56 42.5 93.5t83.5 37.5t72.5 -37.5t15.5 -93.5t-42.5 -93.5t-83.5 -37.5t-72.5 37.5t-15.5 93.5zM306 271q-6 -40 7 -60.5t38 -20.5t44 20.5t25 60.5t-7 60.5t-38 20.5t-44 -20.5t-25 -60.5zM641 332q14 42 43.5 70t69.5 28
q42 0 63.5 -31t12.5 -74q-2 -9 -10 -16t-18 -7h-140q-30 0 -21 30zM698 198q16 -15 44 -15t60 15h-104zM703 352h78q-5 28 -34 28q-25 0 -44 -28z" />
    <glyph glyph-name="Racute" unicode="&#x154;" horiz-adv-x="725" 
d="M25 0l101 701q1 11 10.5 18t18.5 7h339q151 0 227 -72.5t57 -203.5q-21 -150 -136 -229l96 -208v-1q1 -1 2 -3.5t1.5 -5t0.5 -6t-0.5 -6.5t-2.5 -6t-5.5 -5t-9 -3.5t-13.5 -1.5h-262q-16 0 -20 15l-53 167h-46l-23 -157q-1 -11 -10.5 -18t-18.5 -7h-232q-11 0 -17 8
t-4 17zM79 25h182l22 157q2 9 10 17t19 8h87q15 0 20 -15l54 -167h201l-87 190q-4 8 -0.5 18.5t13.5 15.5q107 61 128 201q16 109 -45.5 167.5t-196.5 58.5h-314zM309 358l24 167q2 9 9.5 17t18.5 8h107q47 0 71.5 -29.5t17.5 -77.5q-7 -49 -39.5 -79.5t-80.5 -30.5h-107
q-9 0 -15.5 7t-5.5 18zM354 757l135 189q12 18 31 12l181 -60q5 -1 9.5 -3.5t9.5 -13t-16 -25.5l-155 -129q-9 -7 -18 -7h-160q0 1 -4.5 0t-9.5 1t-9.5 5t-3 11.5t9.5 19.5zM362 383h82q55 0 63 60q9 57 -46 57h-82zM421 770h107l112 93l-124 41z" />
    <glyph glyph-name="racute" unicode="&#x155;" horiz-adv-x="457" 
d="M30 0l79 547q1 11 10 18t18 7h225q11 0 17.5 -8t4.5 -17l-2 -15q68 50 149 50q11 0 17 -8t4 -17l-29 -203q-1 -10 -9 -18.5t-23 -6.5q-21 3 -39 3q-99 0 -109 -71l-38 -261q-1 -11 -10.5 -18t-18.5 -7h-225q-11 0 -17 8t-4 17zM84 25h175l34 236q8 57 54.5 89t112.5 32
h17l21 148q-78 -11 -132 -77q-15 -15 -24.5 -12t-14.5 15l-5 11l8 55h-175zM205 603l134 189q12 18 31 12l182 -60q5 -1 9.5 -3.5t9.5 -13t-16 -25.5l-155 -129q-9 -7 -18 -7h-160q0 1 -4.5 0t-9.5 1t-9.5 5t-3 11.5t9.5 19.5zM272 616h107l112 93l-124 41z" />
    <glyph glyph-name="Rcommaaccent" unicode="&#x156;" horiz-adv-x="725" 
d="M25 0l101 701q1 11 10.5 18t18.5 7h339q151 0 227 -72.5t57 -203.5q-21 -150 -136 -229l96 -208v-1q1 -1 2 -3.5t1.5 -5t0.5 -6t-0.5 -6.5t-2.5 -6t-5.5 -5t-9 -3.5t-13.5 -1.5h-262q-16 0 -20 15l-53 167h-46l-23 -157q-1 -11 -10.5 -18t-18.5 -7h-232q-11 0 -17 8
t-4 17zM79 25h182l22 157q2 9 10 17t19 8h87q15 0 20 -15l54 -167h201l-87 190q-4 8 -0.5 18.5t13.5 15.5q107 61 128 201q16 109 -45.5 167.5t-196.5 58.5h-314zM179 -331l61 110q-28 32 -21 86q8 55 49.5 91t96.5 36q52 0 85 -34t24 -92q-7 -49 -45 -94l-105 -126
q-9 -11 -23 -11h-104q0 1 -4 0t-8.5 1t-8.5 4.5t-3.5 10t6.5 18.5zM242 -315h53l97 115q26 31 32 66q5 37 -13.5 56.5t-52.5 19.5q-35 0 -59.5 -21t-29.5 -56q-6 -38 19 -57q16 -10 5 -30zM309 358l24 167q2 9 9.5 17t18.5 8h107q47 0 71.5 -29.5t17.5 -77.5
q-7 -49 -39.5 -79.5t-80.5 -30.5h-107q-9 0 -15.5 7t-5.5 18zM362 383h82q55 0 63 60q9 57 -46 57h-82z" />
    <glyph glyph-name="rcommaaccent" unicode="&#x157;" horiz-adv-x="457" 
d="M-19 -331l61 110q-28 32 -21 86q8 55 49.5 91t96.5 36q52 0 85 -34t24 -92q-7 -49 -45 -94l-105 -126q-9 -11 -23 -11h-104q0 1 -4 0t-8.5 1t-8.5 4.5t-3.5 10t6.5 18.5zM30 0l79 547q1 11 10 18t18 7h225q11 0 17.5 -8t4.5 -17l-2 -15q68 50 149 50q11 0 17 -8t4 -17
l-29 -203q-1 -10 -9 -18.5t-23 -6.5q-21 3 -39 3q-99 0 -109 -71l-38 -261q-1 -11 -10.5 -18t-18.5 -7h-225q-11 0 -17 8t-4 17zM44 -315h53l97 115q26 31 32 66q5 37 -13.5 56.5t-52.5 19.5q-35 0 -59.5 -21t-29.5 -56q-6 -38 19 -57q16 -10 5 -30zM84 25h175l34 236
q8 57 54.5 89t112.5 32h17l21 148q-78 -11 -132 -77q-15 -15 -24.5 -12t-14.5 15l-5 11l8 55h-175z" />
    <glyph glyph-name="Rcaron" unicode="&#x158;" horiz-adv-x="725" 
d="M25 0l101 701q1 11 10.5 18t18.5 7h339q151 0 227 -72.5t57 -203.5q-21 -150 -136 -229l96 -208v-1q1 -1 2 -3.5t1.5 -5t0.5 -6t-0.5 -6.5t-2.5 -6t-5.5 -5t-9 -3.5t-13.5 -1.5h-262q-16 0 -20 15l-53 167h-46l-23 -157q-1 -11 -10.5 -18t-18.5 -7h-232q-11 0 -17 8
t-4 17zM79 25h182l22 157q2 9 10 17t19 8h87q15 0 20 -15l54 -167h201l-87 190q-4 8 -0.5 18.5t13.5 15.5q107 61 128 201q16 109 -45.5 167.5t-196.5 58.5h-314zM252 908q-1 2 -2 4.5t-2.5 9.5t0 12t9 9.5t21.5 4.5h165q13 0 19 -11l31 -59l47 59q9 11 23 11h165
q2 0 5 -0.5t9.5 -2.5t10 -6t1.5 -12t-12 -19l-159 -178q-10 -10 -21 -10h-184q-13 0 -19 10zM309 358l24 167q2 9 9.5 17t18.5 8h107q47 0 71.5 -29.5t17.5 -77.5q-7 -49 -39.5 -79.5t-80.5 -30.5h-107q-9 0 -15.5 7t-5.5 18zM320 898l77 -128h159l115 128h-102l-64 -79
q-13 -16 -23.5 -16t-14.5 8l-4 8l-41 79h-102zM362 383h82q55 0 63 60q9 57 -46 57h-82z" />
    <glyph glyph-name="rcaron" unicode="&#x159;" horiz-adv-x="457" 
d="M30 0l79 547q1 11 10 18t18 7h225q11 0 17.5 -8t4.5 -17l-2 -15q68 50 149 50q11 0 17 -8t4 -17l-29 -203q-1 -10 -9 -18.5t-23 -6.5q-21 3 -39 3q-99 0 -109 -71l-38 -261q-1 -11 -10.5 -18t-18.5 -7h-225q-11 0 -17 8t-4 17zM84 25h175l34 236q8 57 54.5 89t112.5 32
h17l21 148q-78 -11 -132 -77q-15 -15 -24.5 -12t-14.5 15l-5 11l8 55h-175zM103 754q-1 2 -2.5 4.5t-3 9.5t0 12t9 9.5t21.5 4.5h165q15 0 20 -11l30 -59l48 59q9 11 22 11h165q2 0 5 -0.5t10 -2.5t10 -6t1.5 -12t-11.5 -19l-159 -178q-10 -10 -21 -10h-184q-13 0 -19 10z
M171 744l77 -128h159l114 128h-101l-64 -79q-13 -16 -23.5 -16t-14.5 8l-4 8l-41 79h-102z" />
    <glyph glyph-name="Sacute" unicode="&#x15a;" horiz-adv-x="664" 
d="M2 116l111 174q19 28 40 8q43 -41 115.5 -72t120.5 -31q33 0 33 11q1 7 -10.5 12t-32 9.5t-47 10t-55.5 14t-57.5 20t-53 30t-42 43t-24.5 60t-1 78.5q17 117 117 185t244 68q86 0 167 -23.5t139 -63.5q17 -12 5 -32l-110 -176q-6 -9 -16 -13t-20 2q-50 30 -115.5 54.5
t-102.5 24.5q-12 0 -18 -3v-1q-1 -6 10.5 -11t32 -9.5t47 -10t55 -15t57 -21.5t53 -32t41.5 -45t24 -62t1 -81q-18 -124 -120 -187t-236 -63q-97 0 -190.5 31t-158.5 86q-15 13 -3 31zM56 113q58 -44 140.5 -69.5t165.5 -25.5q120 0 202 51t96 149q8 54 -13.5 92t-59.5 55.5
t-82.5 32t-83.5 24.5t-63 31t-19 52q4 20 13 30q21 24 63 24q85 0 219 -73l82 132q-114 68 -263 68q-129 0 -209.5 -55t-94.5 -148q-6 -45 9 -78t44.5 -50.5t66.5 -30t74.5 -22t68 -20t47.5 -29.5t13 -47q-5 -32 -31.5 -46.5t-58.5 -14.5q-54 0 -122.5 27t-121.5 69z
M341 757l135 189q12 18 31 12l181 -60q5 -1 9.5 -3.5t9.5 -13t-16 -25.5l-155 -129q-9 -7 -18 -7h-160q0 1 -4.5 0t-9.5 1t-9.5 5t-3 11.5t9.5 19.5zM408 770h107l112 93l-124 41z" />
    <glyph glyph-name="sacute" unicode="&#x15b;" horiz-adv-x="552" 
d="M1 79l88 140q7 12 23 14q-58 51 -46 135q14 98 96.5 156t200.5 58q139 0 256 -72q19 -12 5 -34l-94 -139q-7 -10 -19 -12q79 -54 66 -149q-14 -97 -98 -154t-205 -57q-160 0 -269 82q-16 13 -4 32zM55 77q92 -62 226 -62q105 0 170 44.5t76 116.5q6 45 -19 74.5
t-64.5 43.5t-79.5 24.5t-67 28t-23 44.5q3 23 22.5 33t40.5 10q62 0 166 -52l65 96q-99 54 -212 54q-102 0 -165.5 -45t-74.5 -119q-7 -45 17.5 -75t63.5 -43t78 -23.5t65.5 -27t22.5 -43.5q-6 -41 -64 -41q-87 0 -183 58zM249 603l134 189q12 18 31 12l182 -60
q5 -1 9.5 -3.5t9.5 -13t-16 -25.5l-155 -129q-9 -7 -18 -7h-160q0 1 -4.5 0t-9.5 1t-9.5 5t-3 11.5t9.5 19.5zM316 616h107l112 93l-124 41z" />
    <glyph glyph-name="Scedilla" unicode="&#x15e;" horiz-adv-x="664" 
d="M2 116l111 174q19 28 40 8q43 -41 115.5 -72t120.5 -31q33 0 33 11q1 7 -10.5 12t-32 9.5t-47 10t-55.5 14t-57.5 20t-53 30t-42 43t-24.5 60t-1 78.5q17 117 117 185t244 68q86 0 167 -23.5t139 -63.5q17 -12 5 -32l-110 -176q-6 -9 -16 -13t-20 2q-50 30 -115.5 54.5
t-102.5 24.5q-12 0 -18 -3v-1q-1 -6 10.5 -11t32 -9.5t47 -10t55 -15t57 -21.5t53 -32t41.5 -45t24 -62t1 -81q-15 -103 -90.5 -164.5t-181.5 -79.5l-9 -14q52 -35 43 -94q-9 -63 -61.5 -100.5t-124.5 -37.5q-59 0 -110 38q-15 12 -4 31l53 90q3 6 10 11q-18 12 -4 33l30 45
q-158 24 -256 109q-15 13 -3 31zM56 113q103 -78 252 -92q18 -2 21.5 -11t-1.5 -18l-5 -8l-24 -35q24 -2 40.5 -17.5t12.5 -41.5t-24.5 -42t-46.5 -16q-13 0 -30 7l-24 -42q36 -19 66 -19q57 0 90.5 24t38.5 64q2 18 -8.5 34.5t-32.5 24.5q-27 10 -9 36l33 48q8 11 21 13
q97 13 159.5 62t74.5 134q8 54 -13.5 92t-59.5 55.5t-82.5 32t-83.5 24.5t-63 31t-19 52q4 20 13 30q21 24 63 24q85 0 219 -73l82 132q-114 68 -263 68q-129 0 -209.5 -55t-94.5 -148q-6 -45 9 -78t44.5 -50.5t66.5 -30t74.5 -22t68 -20t47.5 -29.5t13 -47
q-5 -32 -31.5 -46.5t-58.5 -14.5q-54 0 -122.5 27t-121.5 69zM265 -103q9 -15 23 -15q12 0 14 8q0 9 -17 9q-4 0 -20 -2z" />
    <glyph glyph-name="scedilla" unicode="&#x15f;" horiz-adv-x="552" 
d="M1 79l88 140q7 12 23 14q-58 51 -46 135q14 98 96.5 156t200.5 58q139 0 256 -72q19 -12 5 -34l-94 -139q-7 -10 -19 -12q79 -54 66 -149q-11 -76 -67.5 -129t-140.5 -72l-10 -15q52 -35 43 -94q-9 -63 -61.5 -100.5t-124.5 -37.5q-59 0 -110 38q-15 12 -4 31l53 90
q3 6 10 11q-18 12 -4 33l27 40q-105 16 -183 76q-16 13 -4 32zM55 77q77 -51 181 -60q19 -2 22.5 -11t-2.5 -18l-6 -8l-21 -31q24 -2 40.5 -17.5t12.5 -41.5t-24.5 -42t-46.5 -16q-13 0 -30 7l-24 -42q36 -19 66 -19q57 0 90.5 24t38.5 64q2 18 -8.5 34.5t-32.5 24.5
q-27 10 -9 36l33 48q8 12 19 13q75 14 120 54.5t53 99.5q6 45 -19 74.5t-64.5 43.5t-79.5 24.5t-67 28t-23 44.5q3 23 22.5 33t40.5 10q62 0 166 -52l65 96q-99 54 -212 54q-102 0 -165.5 -45t-74.5 -119q-7 -45 17.5 -75t63.5 -43t78 -23.5t65.5 -27t22.5 -43.5
q-6 -41 -64 -41q-87 0 -183 58zM195 -103q9 -15 23 -15q12 0 14 8q0 9 -17 9q-4 0 -20 -2z" />
    <glyph glyph-name="Scaron" unicode="&#x160;" horiz-adv-x="664" 
d="M2 116l111 174q19 28 40 8q43 -41 115.5 -72t120.5 -31q33 0 33 11q1 7 -10.5 12t-32 9.5t-47 10t-55.5 14t-57.5 20t-53 30t-42 43t-24.5 60t-1 78.5q17 117 117 185t244 68q86 0 167 -23.5t139 -63.5q17 -12 5 -32l-110 -176q-6 -9 -16 -13t-20 2q-50 30 -115.5 54.5
t-102.5 24.5q-12 0 -18 -3v-1q-1 -6 10.5 -11t32 -9.5t47 -10t55 -15t57 -21.5t53 -32t41.5 -45t24 -62t1 -81q-18 -124 -120 -187t-236 -63q-97 0 -190.5 31t-158.5 86q-15 13 -3 31zM56 113q58 -44 140.5 -69.5t165.5 -25.5q120 0 202 51t96 149q8 54 -13.5 92t-59.5 55.5
t-82.5 32t-83.5 24.5t-63 31t-19 52q4 20 13 30q21 24 63 24q85 0 219 -73l82 132q-114 68 -263 68q-129 0 -209.5 -55t-94.5 -148q-6 -45 9 -78t44.5 -50.5t66.5 -30t74.5 -22t68 -20t47.5 -29.5t13 -47q-5 -32 -31.5 -46.5t-58.5 -14.5q-54 0 -122.5 27t-121.5 69z
M239 908q-1 2 -2 4.5t-2.5 9.5t0 12t9 9.5t21.5 4.5h165q14 0 19 -11l31 -59l47 59q9 11 23 11h165q2 0 5 -0.5t9.5 -2.5t10 -6t1.5 -12t-12 -19l-159 -178q-10 -10 -21 -10h-184q-13 0 -19 10zM307 898l77 -128h159l115 128h-102l-64 -79q-13 -16 -23.5 -16t-14.5 8l-4 8
l-41 79h-102z" />
    <glyph glyph-name="scaron" unicode="&#x161;" horiz-adv-x="552" 
d="M1 79l88 140q7 12 23 14q-58 51 -46 135q14 98 96.5 156t200.5 58q139 0 256 -72q19 -12 5 -34l-94 -139q-7 -10 -19 -12q79 -54 66 -149q-14 -97 -98 -154t-205 -57q-160 0 -269 82q-16 13 -4 32zM55 77q92 -62 226 -62q105 0 170 44.5t76 116.5q6 45 -19 74.5
t-64.5 43.5t-79.5 24.5t-67 28t-23 44.5q3 23 22.5 33t40.5 10q62 0 166 -52l65 96q-99 54 -212 54q-102 0 -165.5 -45t-74.5 -119q-7 -45 17.5 -75t63.5 -43t78 -23.5t65.5 -27t22.5 -43.5q-6 -41 -64 -41q-87 0 -183 58zM147 754q-1 2 -2.5 4.5t-3 9.5t0 12t9 9.5
t21.5 4.5h165q15 0 20 -11l30 -59l48 59q9 11 22 11h165q2 0 5 -0.5t10 -2.5t10 -6t1.5 -12t-11.5 -19l-159 -178q-10 -10 -21 -10h-184q-13 0 -19 10zM215 744l77 -128h159l114 128h-101l-64 -79q-13 -16 -23.5 -16t-14.5 8l-4 8l-41 79h-102z" />
    <glyph glyph-name="Tcedilla" unicode="&#x162;" horiz-adv-x="641" 
d="M55 518l26 183q1 11 10.5 18t18.5 7h631q11 0 17 -8t4 -17l-26 -183q-1 -11 -10.5 -18t-18.5 -7h-175l-71 -493q-1 -11 -10.5 -18t-18.5 -7h-30l-9 -15q52 -35 43 -94q-9 -63 -61.5 -100.5t-124.5 -37.5q-59 0 -110 38q-15 12 -4 31l53 90q3 6 10 11q-18 12 -4 33l29 44
h-24q-11 0 -17 8t-4 17l71 493h-174q-11 0 -17 8t-4 17zM108 543h174q9 0 16 -7t6 -18l-71 -493h40q20 0 24.5 -9.5t-1.5 -18.5l-6 -9l-27 -39q24 -2 40.5 -17.5t12.5 -41.5t-24.5 -42t-46.5 -16q-13 0 -30 7l-24 -42q36 -19 66 -19q57 0 90.5 24t38.5 64q2 18 -8.5 34.5
t-32.5 24.5q-26 10 -9 36l35 51q9 13 24 13h20l71 493q2 9 10 17t18 8h175l19 133h-581zM229 -103q9 -15 23 -15q12 0 14 8q0 9 -17 9q-4 0 -20 -2z" />
    <glyph glyph-name="tcedilla" unicode="&#x163;" horiz-adv-x="460" 
d="M37 375l21 142q1 11 10 18t18 7h50l19 128q1 11 10 18t18 7h224q11 0 17.5 -8t4.5 -17l-19 -128h103q11 0 17.5 -8t4.5 -17l-21 -142q-1 -11 -10.5 -18t-18.5 -7h-103l-20 -140q-2 -13 1.5 -17t14.5 -4q13 0 49 12q7 5 18.5 1t12.5 -18l16 -154q2 -19 -16 -28
q-41 -20 -94 -30l-8 -12q52 -35 43 -94q-9 -63 -61.5 -100.5t-124.5 -37.5q-59 0 -110 38q-15 12 -4 31l53 90q3 6 10 11q-18 12 -4 33l33 49q-60 22 -89 74t-19 122l25 174h-50q-11 0 -17 8t-4 17zM91 400h50q9 0 15.5 -7t5.5 -18l-29 -199q-9 -63 18.5 -103t86.5 -53
q9 -2 13.5 -6.5t5 -9t-1 -9t-3 -7.5t-2.5 -4l-24 -35q24 -2 40.5 -17.5t12.5 -41.5t-24.5 -42t-46.5 -16q-12 0 -30 7l-24 -42q36 -19 66 -19q57 0 90.5 24t38.5 64q2 18 -8.5 34.5t-32.5 24.5q-27 10 -9 36l32 46q8 11 20 13q36 4 70 18l-11 108q-28 -7 -38 -7
q-31 -1 -48 19.5t-12 51.5l24 165q2 9 10 17t19 8h103l13 92h-103q-9 0 -15.5 7t-5.5 18l18 128h-174l-18 -128q-2 -9 -10 -17t-19 -8h-50zM192 -103q9 -15 23 -15q12 0 14 8q0 9 -17 9q-4 0 -20 -2z" />
    <glyph glyph-name="Tcaron" unicode="&#x164;" horiz-adv-x="641" 
d="M55 518l26 183q1 11 10.5 18t18.5 7h631q11 0 17 -8t4 -17l-26 -183q-1 -11 -10.5 -18t-18.5 -7h-175l-71 -493q-1 -11 -10.5 -18t-18.5 -7h-232q-11 0 -17 8t-4 17l71 493h-174q-11 0 -17 8t-4 17zM108 543h174q9 0 16 -7t6 -18l-71 -493h182l71 493q2 9 10 17t18 8h175
l19 133h-581zM217 908q-1 2 -2 4.5t-2.5 9.5t0 12t9 9.5t21.5 4.5h165q14 0 19 -11l31 -59l47 59q9 11 23 11h165q2 0 5 -0.5t9.5 -2.5t10 -6t1.5 -12t-12 -19l-159 -178q-10 -10 -21 -10h-184q-13 0 -19 10zM285 898l77 -128h159l115 128h-102l-64 -79q-13 -16 -23.5 -16
t-14.5 8l-4 8l-41 79h-102z" />
    <glyph glyph-name="tcaron" unicode="&#x165;" horiz-adv-x="470" 
d="M37 375l21 142q1 11 10 18t18 7h50l19 128q1 11 10 18t18 7h224q11 0 17.5 -8t4.5 -17l-19 -128h103q11 0 17.5 -8t4.5 -17l-21 -142q-1 -11 -10.5 -18t-18.5 -7h-103l-20 -140q-4 -21 16 -21q13 0 49 12q7 5 18.5 1t12.5 -18l16 -154q2 -19 -16 -28q-68 -37 -174 -37
q-103 -1 -159 57t-42 154l25 174h-50q-11 0 -17 8t-4 17zM91 400h50q9 0 15.5 -7t5.5 -18l-29 -199q-11 -75 31 -118.5t127 -42.5q73 0 130 23l-11 108q-28 -7 -38 -7q-31 -1 -48 19.5t-12 51.5l24 165q2 9 10 17t19 8h103l13 92h-103q-9 0 -15.5 7t-5.5 18l18 128h-174
l-18 -128q-2 -9 -10 -17t-19 -8h-50zM394 581l60 110q-28 32 -21 86q8 55 49.5 91t96.5 36q52 0 85 -34t24 -92q-7 -49 -45 -94l-105 -126q-9 -11 -22 -11h-104q0 1 -4 0t-8.5 1t-8.5 4.5t-3.5 10t6.5 18.5zM456 597h54l96 115q26 31 32 66q5 37 -13.5 56.5t-52.5 19.5
q-35 0 -59.5 -21t-29.5 -56q-6 -37 20 -57q15 -10 4 -30z" />
    <glyph glyph-name="Umacron" unicode="&#x16a;" horiz-adv-x="753" 
d="M58 297l58 404q1 11 10.5 18t18.5 7h232q11 0 17 -8t4 -17l-58 -404q-6 -41 15 -65t55 -24q33 0 58 23.5t31 65.5l58 404q1 11 10.5 18t18.5 7h232q11 0 17 -8t4 -17l-58 -404q-22 -150 -134 -241t-273 -91q-162 0 -250 91t-66 241zM108 297q-19 -129 55 -205.5
t218 -76.5q143 0 237 76.5t113 205.5l54 379h-182l-54 -379q-9 -61 -50.5 -100t-95.5 -39q-55 0 -88.5 39.5t-24.5 99.5l54 379h-182zM314 778l21 148q1 11 10.5 18t18.5 7h300q11 0 17 -8t4 -17l-21 -148q-1 -11 -10 -18t-18 -7h-300q-11 0 -17.5 8t-4.5 17zM368 803h250
l14 98h-250z" />
    <glyph glyph-name="umacron" unicode="&#x16b;" horiz-adv-x="672" 
d="M44 198l50 349q1 11 10 18t18 7h225q11 0 17.5 -8t4.5 -17l-41 -284q-7 -50 28 -50q41 0 51 63l39 271q1 11 10 18t18 7h225q11 0 17.5 -8t4.5 -17l-79 -547q-1 -11 -10.5 -18t-18.5 -7h-225q-11 0 -17 8t-4 17l2 11q-64 -46 -143 -46q-95 0 -146 65t-36 168zM94 198
q-12 -84 26.5 -133.5t112.5 -49.5q90 0 151 75q15 15 24.5 12t14.5 -14l5 -12l-7 -51h175l71 497h-175l-35 -246q-7 -47 -36.5 -80t-72.5 -33q-39 0 -57.5 29t-12.5 71l37 259h-175zM245 624l21 148q1 11 10.5 18t18.5 7h300q11 0 17 -8t4 -17l-21 -148q-1 -11 -10.5 -18
t-18.5 -7h-300q-11 0 -17 8t-4 17zM299 649h250l14 98h-250z" />
    <glyph glyph-name="Uring" unicode="&#x16e;" horiz-adv-x="753" 
d="M58 297l58 404q1 11 10.5 18t18.5 7h232q11 0 17 -8t4 -17l-58 -404q-6 -41 15 -65t55 -24q33 0 58 23.5t31 65.5l58 404q1 11 10.5 18t18.5 7h232q11 0 17 -8t4 -17l-58 -404q-22 -150 -134 -241t-273 -91q-162 0 -250 91t-66 241zM108 297q-19 -129 55 -205.5
t218 -76.5q143 0 237 76.5t113 205.5l54 379h-182l-54 -379q-9 -61 -50.5 -100t-95.5 -39q-55 0 -88.5 39.5t-24.5 99.5l54 379h-182zM351 857q9 62 59 105.5t112 43.5t99 -43.5t28 -105.5t-58.5 -105.5t-111.5 -43.5t-99.5 43.5t-28.5 105.5zM401 857q-6 -41 19 -70t66 -29
t74 29t39 70t-18.5 70t-65.5 29t-74.5 -29t-39.5 -70zM436 857q4 27 25.5 45.5t48.5 18.5t42.5 -18.5t11.5 -45.5t-25 -45.5t-48 -18.5t-43 18.5t-12 45.5zM486 857q-2 -14 12 -14t16 14t-11 14q-15 0 -17 -14z" />
    <glyph glyph-name="uring" unicode="&#x16f;" horiz-adv-x="672" 
d="M44 198l50 349q1 11 10 18t18 7h225q11 0 17.5 -8t4.5 -17l-41 -284q-7 -50 28 -50q41 0 51 63l39 271q1 11 10 18t18 7h225q11 0 17.5 -8t4.5 -17l-79 -547q-1 -11 -10.5 -18t-18.5 -7h-225q-11 0 -17 8t-4 17l2 11q-64 -46 -143 -46q-95 0 -146 65t-36 168zM94 198
q-12 -84 26.5 -133.5t112.5 -49.5q90 0 151 75q15 15 24.5 12t14.5 -14l5 -12l-7 -51h175l71 497h-175l-35 -246q-7 -47 -36.5 -80t-72.5 -33q-39 0 -57.5 29t-12.5 71l37 259h-175zM282 703q9 62 59 105.5t112 43.5t99 -43.5t28 -105.5t-58.5 -105.5t-111.5 -43.5
t-99.5 43.5t-28.5 105.5zM332 703q-6 -41 19 -70t66 -29t74 29t39 70t-18.5 70t-65.5 29t-74.5 -29t-39.5 -70zM367 703q4 27 25.5 45.5t48.5 18.5t42.5 -18.5t11.5 -45.5t-25 -45.5t-48 -18.5t-43 18.5t-12 45.5zM417 703q-2 -14 12 -14t16 14t-12 14t-16 -14z" />
    <glyph glyph-name="Uhungarumlaut" unicode="&#x170;" horiz-adv-x="753" 
d="M58 297l58 404q1 11 10.5 18t18.5 7h232q11 0 17 -8t4 -17l-58 -404q-6 -41 15 -65t55 -24q33 0 58 23.5t31 65.5l58 404q1 11 10.5 18t18.5 7h232q11 0 17 -8t4 -17l-58 -404q-22 -150 -134 -241t-273 -91q-162 0 -250 91t-66 241zM108 297q-19 -129 55 -205.5
t218 -76.5q143 0 237 76.5t113 205.5l54 379h-182l-54 -379q-9 -61 -50.5 -100t-95.5 -39q-55 0 -88.5 39.5t-24.5 99.5l54 379h-182zM263 755l114 189q5 9 15 13t18 1l154 -53q30 -10 8 -38l-109 -136q-9 -11 -22 -11h-160q0 1 -4 0t-9 1t-9 5t-3.5 10.5t7.5 18.5zM327 770
h107l78 97l-104 36zM484 755l114 189q5 9 15 13t18 1l154 -53q30 -10 8 -38l-109 -136q-9 -11 -22 -11h-160q0 1 -4 0t-9 1t-9 5t-3.5 10.5t7.5 18.5zM548 770h107l78 97l-104 36z" />
    <glyph glyph-name="uhungarumlaut" unicode="&#x171;" horiz-adv-x="672" 
d="M44 198l50 349q1 11 10 18t18 7h225q11 0 17.5 -8t4.5 -17l-41 -284q-7 -50 28 -50q41 0 51 63l39 271q1 11 10 18t18 7h225q11 0 17.5 -8t4.5 -17l-79 -547q-1 -11 -10.5 -18t-18.5 -7h-225q-11 0 -17 8t-4 17l2 11q-64 -46 -143 -46q-95 0 -146 65t-36 168zM94 198
q-12 -84 26.5 -133.5t112.5 -49.5q90 0 151 75q15 15 24.5 12t14.5 -14l5 -12l-7 -51h175l71 497h-175l-35 -246q-7 -47 -36.5 -80t-72.5 -33q-39 0 -57.5 29t-12.5 71l37 259h-175zM194 601l114 189q5 9 15 13t18 1l154 -53q30 -10 8 -38l-109 -136q-9 -11 -22 -11h-160
q0 1 -4 0t-9 1t-9 5t-3.5 10.5t7.5 18.5zM258 616h107l78 97l-105 36zM415 601l114 189q5 9 15 13t18 1l154 -53q30 -10 8 -38l-109 -136q-9 -11 -22 -11h-160q0 1 -4 0t-9 1t-9 5t-3.5 10.5t7.5 18.5zM479 616h107l78 97l-105 36z" />
    <glyph glyph-name="Uogonek" unicode="&#x172;" horiz-adv-x="753" 
d="M58 297l58 404q1 11 10.5 18t18.5 7h232q11 0 17 -8t4 -17l-58 -404q-6 -41 15 -65t55 -24q33 0 58 23.5t31 65.5l58 404q1 11 10.5 18t18.5 7h232q11 0 17 -8t4 -17l-58 -404q-16 -107 -80 -186t-162 -117q-6 -7 -17 -21l-10 -14q11 15 27 -7l46 -64q9 -12 -1 -28
q-61 -89 -155 -89q-46 0 -80 27t-25 86q5 36 32 81q-155 5 -237 95.5t-61 236.5zM108 297q-19 -129 55 -205.5t218 -76.5l23 1q22 1 26 -8.5t-2 -19.5l-7 -10q-42 -53 -47 -94q-9 -63 62 -63q54 0 96 49l-19 27q-20 -16 -40 -16q-16 0 -25.5 11.5t-7.5 28.5q2 15 13.5 35
t22 33t32.5 39q7 7 12 9q87 31 142.5 98t68.5 162l54 379h-182l-54 -379q-9 -61 -50.5 -100t-95.5 -39q-55 0 -88.5 39.5t-24.5 99.5l54 379h-182z" />
    <glyph glyph-name="uogonek" unicode="&#x173;" horiz-adv-x="670" 
d="M44 198l50 349q1 11 10 18t18 7h225q11 0 17.5 -8t4.5 -17l-41 -284q-7 -50 33 -50q47 0 56 63l39 271q1 11 10 18t18 7h225q11 0 17.5 -8t4.5 -17l-79 -547q-1 -11 -10.5 -18t-18.5 -7h-44q-2 -3 -4.5 -6t-4.5 -6t-3 -4q11 15 27 -7l46 -64q9 -12 -1 -28
q-61 -89 -155 -89q-46 0 -80 27t-25 86q6 43 38 91h-19q-11 0 -17 8t-4 17l2 13q-65 -48 -148 -48q-97 0 -149.5 65t-37.5 168zM94 198q-12 -85 27.5 -134t116.5 -49q93 0 156 77q15 15 24.5 12t14.5 -14l5 -12l-7 -53h37q21 0 25 -9.5t-3 -19.5l-7 -10q-47 -57 -54 -102
q-9 -63 62 -63q54 0 96 49l-19 27q-20 -16 -40 -16q-16 0 -25.5 11.5t-7.5 28.5q4 29 55 93q9 11 23 11h33l71 497h-175l-35 -246q-7 -48 -38.5 -80.5t-75.5 -32.5q-40 0 -60.5 28.5t-14.5 71.5l37 259h-175z" />
    <glyph glyph-name="Wcircumflex" unicode="&#x174;" horiz-adv-x="1121" 
d="M71 693v2q0 2 -0.5 4t0 5t1.5 6t3 6t5 5t8.5 3.5t11.5 1.5h248q19 0 21 -19l31 -354l130 353q6 19 27 19l227 1q19 0 21 -19l31 -354l130 354q6 19 28 19h237h3.5t8 -1t8 -4.5t4 -10t-4.5 -17.5l-330 -701q-8 -17 -27 -17h-239q-19 0 -21 19l-28 316l-121 -316
q-6 -19 -27 -19h-239q-17 0 -21 17zM127 676l117 -651h201l153 400q6 16 18 16t22 -8l9 -8l34 -400h201l307 651h-183l-163 -441q-6 -15 -18 -15t-21 8l-9 7l-38 441l-187 -1l-163 -440q-6 -15 -18 -15t-21 8l-9 7l-38 441h-194zM393 776l144 162q10 10 22 10h168
q12 0 18 -10l98 -162q1 -2 2 -4.5t2.5 -9.5t0 -12t-9 -9.5t-21.5 -4.5h-150q-13 0 -19 11l-27 51l-42 -51q-9 -11 -22 -11h-150q-2 0 -5 0.5t-9.5 2.5t-10 6t-1.5 12t12 19zM464 786h87l58 71q12 15 22.5 15t14.5 -8l4 -7l38 -71h86l-67 112h-143z" />
    <glyph glyph-name="wcircumflex" unicode="&#x175;" horiz-adv-x="977" 
d="M44 538q0 1 -0.5 3.5t-0.5 8.5t2 10.5t9 8t18 3.5h228q9 0 15 -6t7 -13l29 -233l94 233q9 19 26 19h208q9 0 15 -6t7 -13l29 -235l96 235q9 19 26 19h217q0 -1 4 0t8.5 -1t8 -5t3.5 -10.5t-5 -17.5l-279 -547q-8 -16 -26 -16h-220q-19 0 -21 18l-25 201l-86 -201
q-8 -18 -27 -18h-220q-17 0 -21 16zM101 522l108 -497h184l114 270q7 17 19.5 17t21.5 -8l8 -9l34 -270h183l253 497h-162l-125 -307q-7 -17 -19 -17t-20 8l-9 9l-38 307h-169l-124 -307q-7 -17 -19 -17t-21 8l-8 9l-38 307h-173zM354 622l144 162q10 10 21 10h168
q13 0 19 -10l98 -162q1 -2 2 -4.5t2.5 -9.5t0 -12t-9 -9.5t-21.5 -4.5h-150q-14 0 -19 11l-27 51l-42 -51q-9 -11 -22 -11h-150q-2 0 -5 0.5t-9.5 2.5t-10 6t-1.5 12t12 19zM425 632h87l58 71q12 15 22.5 15t14.5 -8l4 -7l37 -71h87l-67 112h-143z" />
    <glyph glyph-name="Ycircumflex" unicode="&#x176;" horiz-adv-x="719" 
d="M67 689l-2 4t-1.5 8.5t1.5 11.5t9.5 9t20.5 4h231q15 0 20 -13l86 -227l146 226q9 14 25 14h231q0 -1 4.5 0t9.5 -1t9 -5t3 -11.5t-9 -19.5l-317 -477l-31 -212q-1 -11 -10.5 -18t-18.5 -7h-232q-11 0 -17 8t-4 17l30 207zM129 676l172 -451q2 -7 1 -12l-27 -188h182
l27 193q1 4 5 12l296 446h-174l-166 -256q-12 -20 -23.5 -20t-16.5 10l-5 9l-97 257h-174zM247 776l144 162q10 10 22 10h168q12 0 18 -10l98 -162q1 -2 2 -4.5t2.5 -9.5t0 -12t-9 -9.5t-21.5 -4.5h-150q-13 0 -19 11l-27 51l-42 -51q-9 -11 -22 -11h-150q-2 0 -5 0.5
t-9.5 2.5t-10 6t-1.5 12t12 19zM318 786h87l58 71q12 15 22.5 15t14.5 -8l4 -7l38 -71h86l-67 112h-143z" />
    <glyph glyph-name="ycircumflex" unicode="&#x177;" horiz-adv-x="624" 
d="M-59 -127l115 148q20 25 39 5q24 -25 52 -25q23 0 35 16l2 2l-148 518q-1 1 -1.5 3.5t-1 8.5t1.5 10.5t9.5 8.5t19.5 4h231q18 0 22 -17l48 -237l101 236q8 18 26 18h224q0 -1 4 0t8.5 -1t8.5 -5t4 -10.5t-6 -17.5l-310 -585q-100 -182 -289 -182q-112 0 -194 69
q-15 13 -1 33zM-5 -133q64 -46 148 -46q82 0 139 35.5t100 114.5l291 551h-169l-126 -294q-8 -19 -20 -19t-20 9l-8 9l-60 295h-175l141 -495q3 -11 -5 -23l-10 -13q-30 -40 -81 -40q-37 0 -64 20zM177 622l144 162q10 10 21 10h168q13 0 19 -10l98 -162q1 -2 2 -4.5
t2.5 -9.5t0 -12t-9 -9.5t-21.5 -4.5h-150q-13 0 -19 11l-27 51l-42 -51q-9 -11 -22 -11h-150q-2 0 -5 0.5t-9.5 2.5t-10 6t-1.5 12t12 19zM248 632h87l58 71q12 15 22.5 15t14.5 -8l4 -7l37 -71h87l-67 112h-143z" />
    <glyph glyph-name="Ydieresis" unicode="&#x178;" horiz-adv-x="719" 
d="M67 689l-2 4t-1.5 8.5t1.5 11.5t9.5 9t20.5 4h231q15 0 20 -13l86 -227l146 226q9 14 25 14h231q0 -1 4.5 0t9.5 -1t9 -5t3 -11.5t-9 -19.5l-317 -477l-31 -212q-1 -11 -10.5 -18t-18.5 -7h-232q-11 0 -17 8t-4 17l30 207zM129 676l172 -451q2 -7 1 -12l-27 -188h182
l27 193q1 4 5 12l296 446h-174l-166 -256q-12 -20 -23.5 -20t-16.5 10l-5 9l-97 257h-174zM263 852q8 50 45.5 83.5t87.5 33.5t78.5 -33.5t20.5 -83.5t-45.5 -83t-87.5 -33t-78.5 33t-20.5 83zM313 852q-5 -30 10 -48t46 -18t51 18t25 48q5 31 -10.5 49t-46.5 18t-50.5 -18
t-24.5 -49zM471 852q8 50 45.5 83.5t87.5 33.5t78.5 -33.5t20.5 -83.5t-45.5 -83t-87.5 -33t-78.5 33t-20.5 83zM521 852q-5 -30 10 -48t46 -18t51 18t25 48q5 31 -10.5 49t-46.5 18t-50.5 -18t-24.5 -49z" />
    <glyph glyph-name="Zacute" unicode="&#x179;" horiz-adv-x="683" 
d="M-5 0l21 145q2 10 8 16l340 337h-260q-11 0 -17.5 8t-4.5 17l26 178q1 11 10.5 18t18.5 7h624q11 0 17 -8t4 -17l-21 -145q-2 -10 -8 -16l-340 -337h279q11 0 17.5 -8t4.5 -17l-26 -178q-1 -11 -10.5 -18t-18.5 -7h-643q-11 0 -17 8t-4 17zM49 25h593l18 128h-309
q-22 0 -25 10.5t4 20.5l8 10l374 371l16 111h-574l-18 -128h290q22 0 25 -10t-5 -20l-7 -11l-374 -371zM344 757l135 189q12 18 31 12l181 -60q5 -1 9.5 -3.5t9.5 -13t-16 -25.5l-155 -129q-9 -7 -18 -7h-160q0 1 -4.5 0t-9.5 1t-9.5 5t-3 11.5t9.5 19.5zM411 770h107
l112 93l-124 41z" />
    <glyph glyph-name="zacute" unicode="&#x17a;" horiz-adv-x="568" 
d="M0 0l19 131q2 10 9 17l219 206h-161q-11 0 -17 8t-4 17l24 168q1 11 10 18t18 7h502q11 0 17.5 -8t4.5 -17l-19 -131q-2 -10 -9 -17l-219 -206h181q11 0 17 -8t4 -17l-24 -168q-1 -11 -10.5 -18t-18.5 -7h-522q-11 0 -17 8t-4 17zM54 25h472l17 118h-213
q-22 0 -25.5 10.5t4.5 20.5l8 11l256 241l14 96h-452l-17 -118h193q22 0 25.5 -10.5t-4.5 -21.5l-8 -10l-257 -241zM244 603l134 189q12 18 31 12l182 -60q5 -1 9.5 -3.5t9.5 -13t-16 -25.5l-155 -129q-9 -7 -18 -7h-160q0 1 -4.5 0t-9.5 1t-9.5 5t-3 11.5t9.5 19.5z
M311 616h107l112 93l-124 41z" />
    <glyph glyph-name="Zdotaccent" unicode="&#x17b;" horiz-adv-x="683" 
d="M-5 0l21 145q2 10 8 16l340 337h-260q-11 0 -17.5 8t-4.5 17l26 178q1 11 10.5 18t18.5 7h624q11 0 17 -8t4 -17l-21 -145q-2 -10 -8 -16l-340 -337h279q11 0 17.5 -8t4.5 -17l-26 -178q-1 -11 -10.5 -18t-18.5 -7h-643q-11 0 -17 8t-4 17zM49 25h593l18 128h-309
q-22 0 -25 10.5t4 20.5l8 10l374 371l16 111h-574l-18 -128h290q22 0 25 -10t-5 -20l-7 -11l-374 -371zM346 857q9 60 54.5 99.5t105.5 39.5t93.5 -39.5t24.5 -99.5t-54 -99.5t-105 -39.5t-94 39.5t-25 99.5zM396 857q-6 -40 15 -64.5t62 -24.5q40 0 67.5 24t33.5 65
q6 40 -14.5 64.5t-61.5 24.5q-40 0 -68 -24t-34 -65z" />
    <glyph glyph-name="zdotaccent" unicode="&#x17c;" horiz-adv-x="568" 
d="M0 0l19 131q2 10 9 17l219 206h-161q-11 0 -17 8t-4 17l24 168q1 11 10 18t18 7h502q11 0 17.5 -8t4.5 -17l-19 -131q-2 -10 -9 -17l-219 -206h181q11 0 17 -8t4 -17l-24 -168q-1 -11 -10.5 -18t-18.5 -7h-522q-11 0 -17 8t-4 17zM54 25h472l17 118h-213
q-22 0 -25.5 10.5t4.5 20.5l8 11l256 241l14 96h-452l-17 -118h193q22 0 25.5 -10.5t-4.5 -21.5l-8 -10l-257 -241zM246 703q9 60 54 99.5t105 39.5t94 -39.5t25 -99.5t-54 -99.5t-105 -39.5t-94 39.5t-25 99.5zM296 703q-6 -40 14.5 -64.5t61.5 -24.5q40 0 68 24t34 65
q6 40 -14.5 64.5t-61.5 24.5q-40 0 -68 -24t-34 -65z" />
    <glyph glyph-name="Zcaron" unicode="&#x17d;" horiz-adv-x="683" 
d="M-5 0l21 145q2 10 8 16l340 337h-260q-11 0 -17.5 8t-4.5 17l26 178q1 11 10.5 18t18.5 7h624q11 0 17 -8t4 -17l-21 -145q-2 -10 -8 -16l-340 -337h279q11 0 17.5 -8t4.5 -17l-26 -178q-1 -11 -10.5 -18t-18.5 -7h-643q-11 0 -17 8t-4 17zM49 25h593l18 128h-309
q-22 0 -25 10.5t4 20.5l8 10l374 371l16 111h-574l-18 -128h290q22 0 25 -10t-5 -20l-7 -11l-374 -371zM242 908q-1 2 -2 4.5t-2.5 9.5t0 12t9 9.5t21.5 4.5h165q13 0 19 -11l31 -59l47 59q9 11 23 11h165q2 0 5 -0.5t9.5 -2.5t10 -6t1.5 -12t-12 -19l-159 -178
q-10 -10 -21 -10h-184q-13 0 -19 10zM310 898l77 -128h159l115 128h-102l-64 -79q-13 -16 -23.5 -16t-14.5 8l-4 8l-41 79h-102z" />
    <glyph glyph-name="zcaron" unicode="&#x17e;" horiz-adv-x="568" 
d="M0 0l19 131q2 10 9 17l219 206h-161q-11 0 -17 8t-4 17l24 168q1 11 10 18t18 7h502q11 0 17.5 -8t4.5 -17l-19 -131q-2 -10 -9 -17l-219 -206h181q11 0 17 -8t4 -17l-24 -168q-1 -11 -10.5 -18t-18.5 -7h-522q-11 0 -17 8t-4 17zM54 25h472l17 118h-213
q-22 0 -25.5 10.5t4.5 20.5l8 11l256 241l14 96h-452l-17 -118h193q22 0 25.5 -10.5t-4.5 -21.5l-8 -10l-257 -241zM142 754q-1 2 -2.5 4.5t-3 9.5t0 12t9 9.5t21.5 4.5h165q14 0 20 -11l30 -59l48 59q9 11 22 11h165q2 0 5 -0.5t10 -2.5t10 -6t1.5 -12t-11.5 -19l-159 -178
q-10 -10 -21 -10h-184q-13 0 -19 10zM210 744l77 -128h159l114 128h-101l-64 -79q-13 -16 -23.5 -16t-14.5 8l-4 8l-41 79h-102z" />
    <glyph glyph-name="florin" unicode="&#x192;" horiz-adv-x="444" 
d="M-153 -157l76 154q1 1 2 3.5t5 7.5t8 7.5t11 1.5t15 -8q16 -14 35 -14t26 24l75 281h-47q-10 0 -17.5 6.5t-3.5 21.5l38 142q2 9 10.5 15.5t17.5 6.5h54l20 77q25 95 106.5 152t187.5 56q105 0 172 -43q18 -12 5 -32l-96 -154q-18 -27 -39 -9q-16 14 -37 14
q-30 1 -36 -24l-10 -37h78q10 0 17.5 -6.5t3.5 -21.5l-38 -142q-2 -9 -10.5 -15.5t-17.5 -6.5h-84l-85 -321q-25 -95 -106.5 -152t-188.5 -56q-93 0 -143 44q-12 10 -4 28zM-99 -155q43 -24 100 -24q91 -1 155 43.5t84 120.5l91 343q2 9 10.5 15.5t17.5 6.5h84l25 92h-78
q-15 0 -19.5 9t-1.5 19l17 65q9 31 34.5 50t58.5 18q21 0 41 -9l67 108q-55 25 -128 25q-90 1 -154 -43.5t-84 -120.5l-26 -99q-2 -9 -10.5 -15.5t-17.5 -6.5h-54l-24 -92h46q15 0 19.5 -9t1.5 -19l-82 -309q-9 -30 -31.5 -49.5t-52.5 -18.5q-17 0 -36 8z" />
    <glyph glyph-name="Scommaaccent" unicode="&#x218;" horiz-adv-x="664" 
d="M2 116l111 174q19 28 40 8q43 -41 115.5 -72t120.5 -31q33 0 33 11q1 7 -10.5 12t-32 9.5t-47 10t-55.5 14t-57.5 20t-53 30t-42 43t-24.5 60t-1 78.5q17 117 117 185t244 68q86 0 167 -23.5t139 -63.5q17 -12 5 -32l-110 -176q-6 -9 -16 -13t-20 2q-50 30 -115.5 54.5
t-102.5 24.5q-12 0 -18 -3v-1q-1 -6 10.5 -11t32 -9.5t47 -10t55 -15t57 -21.5t53 -32t41.5 -45t24 -62t1 -81q-18 -124 -120 -187t-236 -63q-97 0 -190.5 31t-158.5 86q-15 13 -3 31zM56 113q58 -44 140.5 -69.5t165.5 -25.5q120 0 202 51t96 149q8 54 -13.5 92t-59.5 55.5
t-82.5 32t-83.5 24.5t-63 31t-19 52q4 20 13 30q21 24 63 24q85 0 219 -73l82 132q-114 68 -263 68q-129 0 -209.5 -55t-94.5 -148q-6 -45 9 -78t44.5 -50.5t66.5 -30t74.5 -22t68 -20t47.5 -29.5t13 -47q-5 -32 -31.5 -46.5t-58.5 -14.5q-54 0 -122.5 27t-121.5 69z
M165 -331l61 110q-28 32 -21 86q8 55 49.5 91t96.5 36q52 0 85 -34t24 -92q-7 -49 -45 -94l-105 -126q-9 -11 -23 -11h-104q0 1 -4 0t-8.5 1t-8.5 4.5t-3.5 10t6.5 18.5zM228 -315h53l97 115q26 31 32 66q5 37 -13.5 56.5t-52.5 19.5q-35 0 -59.5 -21t-29.5 -56
q-6 -38 19 -57q16 -10 5 -30z" />
    <glyph glyph-name="scommaaccent" unicode="&#x219;" horiz-adv-x="552" 
d="M1 79l88 140q7 12 23 14q-58 51 -46 135q14 98 96.5 156t200.5 58q139 0 256 -72q19 -12 5 -34l-94 -139q-7 -10 -19 -12q79 -54 66 -149q-14 -97 -98 -154t-205 -57q-160 0 -269 82q-16 13 -4 32zM55 77q92 -62 226 -62q105 0 170 44.5t76 116.5q6 45 -19 74.5
t-64.5 43.5t-79.5 24.5t-67 28t-23 44.5q3 23 22.5 33t40.5 10q62 0 166 -52l65 96q-99 54 -212 54q-102 0 -165.5 -45t-74.5 -119q-7 -45 17.5 -75t63.5 -43t78 -23.5t65.5 -27t22.5 -43.5q-6 -41 -64 -41q-87 0 -183 58zM95 -331l61 110q-28 32 -21 86q8 55 49.5 91
t96.5 36q52 0 85 -34t24 -92q-7 -49 -45 -94l-105 -126q-9 -11 -23 -11h-104q0 1 -4 0t-8.5 1t-8.5 4.5t-3.5 10t6.5 18.5zM158 -315h53l97 115q26 31 32 66q5 37 -13.5 56.5t-52.5 19.5q-35 0 -59.5 -21t-29.5 -56q-6 -38 19 -57q16 -10 5 -30z" />
    <glyph glyph-name="Tcommaaccent" unicode="&#x21a;" horiz-adv-x="641" 
d="M55 518l26 183q1 11 10.5 18t18.5 7h631q11 0 17 -8t4 -17l-26 -183q-1 -11 -10.5 -18t-18.5 -7h-175l-71 -493q-1 -11 -10.5 -18t-18.5 -7h-232q-11 0 -17 8t-4 17l71 493h-174q-11 0 -17 8t-4 17zM108 543h174q9 0 16 -7t6 -18l-71 -493h182l71 493q2 9 10 17t18 8h175
l19 133h-581zM129 -331l61 110q-28 32 -21 86q8 55 49.5 91t96.5 36q52 0 85 -34t24 -92q-7 -49 -45 -94l-105 -126q-9 -11 -23 -11h-104q0 1 -4 0t-8.5 1t-8.5 4.5t-3.5 10t6.5 18.5zM192 -315h53l97 115q26 31 32 66q5 37 -13.5 56.5t-52.5 19.5q-35 0 -59.5 -21
t-29.5 -56q-6 -38 19 -57q16 -10 5 -30z" />
    <glyph glyph-name="tcommaaccent" unicode="&#x21b;" horiz-adv-x="460" 
d="M37 375l21 142q1 11 10 18t18 7h50l19 128q1 11 10 18t18 7h224q11 0 17.5 -8t4.5 -17l-19 -128h103q11 0 17.5 -8t4.5 -17l-21 -142q-1 -11 -10.5 -18t-18.5 -7h-103l-20 -140q-2 -13 1.5 -17t14.5 -4q13 0 49 12q7 5 18.5 1t12.5 -18l16 -154q2 -19 -16 -28
q-68 -37 -174 -37q-103 -1 -159 57t-42 154l25 174h-50q-11 0 -17 8t-4 17zM91 400h50q9 0 15.5 -7t5.5 -18l-29 -199q-11 -75 31 -118.5t127 -42.5q73 0 130 23l-11 108q-28 -7 -38 -7q-31 -1 -48 19.5t-12 51.5l24 165q2 9 10 17t19 8h103l13 92h-103q-9 0 -15.5 7
t-5.5 18l18 128h-174l-18 -128q-2 -9 -10 -17t-19 -8h-50zM92 -331l61 110q-28 32 -21 86q8 55 49.5 91t96.5 36q52 0 85 -34t24 -92q-7 -49 -45 -94l-105 -126q-9 -11 -23 -11h-104q0 1 -4 0t-8.5 1t-8.5 4.5t-3.5 10t6.5 18.5zM155 -315h53l97 115q26 31 32 66
q5 37 -13.5 56.5t-52.5 19.5q-35 0 -59.5 -21t-29.5 -56q-6 -38 19 -57q16 -10 5 -30z" />
    <glyph glyph-name="dotlessj" unicode="&#x237;" horiz-adv-x="338" 
d="M-136 -161l72 154q14 27 37 15q24 -12 43 -12q11 -1 15 2.5t6 18.5l77 530q1 11 10 18t18 7h225q11 0 17.5 -8t4.5 -17l-81 -564q-14 -97 -90 -154.5t-183 -56.5q-95 0 -163 37q-17 10 -8 30zM-81 -156q53 -22 123 -22q91 -1 148 42.5t68 118.5l77 539h-175l-73 -505
q-5 -32 -26.5 -52t-52.5 -19q-17 0 -38 6z" />
    <glyph glyph-name="circumflex" unicode="&#x2c6;" horiz-adv-x="350" 
d="M40 622l144 162q10 10 21 10h168q13 0 19 -10l98 -162q1 -2 2 -4.5t2.5 -9.5t0 -12t-9 -9.5t-21.5 -4.5h-150q-14 0 -19 11l-27 51l-42 -51q-9 -11 -22 -11h-150q-2 0 -5 0.5t-9.5 2.5t-10 6t-1.5 12t12 19zM111 632h87l58 71q12 15 22.5 15t14.5 -8l4 -7l37 -71h87
l-67 112h-143z" />
    <glyph glyph-name="caron" unicode="&#x2c7;" horiz-adv-x="350" 
d="M39 754q-1 2 -2.5 4.5t-3 9.5t0 12t9 9.5t21.5 4.5h165q15 0 20 -11l30 -59l48 59q9 11 22 11h165q2 0 5 -0.5t10 -2.5t10 -6t1.5 -12t-11.5 -19l-159 -178q-10 -10 -21 -10h-184q-13 0 -19 10zM107 744l77 -128h159l114 128h-101l-64 -79q-13 -16 -23.5 -16t-14.5 8
l-4 8l-41 79h-102z" />
    <glyph glyph-name="firsttonechinese" unicode="&#x2c9;" horiz-adv-x="350" 
d="M90 624l21 148q1 11 10.5 18t18.5 7h300q11 0 17 -8t4 -17l-21 -148q-1 -11 -10.5 -18t-18.5 -7h-300q-11 0 -17 8t-4 17zM144 649h250l14 98h-250z" />
    <glyph glyph-name="breve" unicode="&#x2d8;" horiz-adv-x="350" 
d="M77 768q1 10 9 18t19 8h135q10 0 16.5 -7t5.5 -16q-1 -27 20 -27t28 27q2 10 10.5 16.5t17.5 6.5h135q10 0 17 -7.5t5 -18.5q-17 -89 -83 -143.5t-155 -54.5t-139 54.5t-41 143.5zM126 744q2 -58 38 -91t100 -33t109.5 32.5t64.5 91.5h-87q-11 -22 -31.5 -36t-44.5 -14
t-40.5 13.5t-21.5 36.5h-87z" />
    <glyph glyph-name="dotaccent" unicode="&#x2d9;" horiz-adv-x="350" 
d="M137 703q9 60 54 99.5t105 39.5t94 -39.5t25 -99.5t-54 -99.5t-105 -39.5t-94 39.5t-25 99.5zM187 703q-6 -40 14.5 -64.5t61.5 -24.5q40 0 68 24t34 65q6 40 -14.5 64.5t-61.5 24.5q-40 0 -68 -24t-34 -65z" />
    <glyph glyph-name="ring" unicode="&#x2da;" horiz-adv-x="350" 
d="M127 703q9 62 59 105.5t112 43.5t99 -43.5t28 -105.5t-58.5 -105.5t-111.5 -43.5t-99.5 43.5t-28.5 105.5zM177 703q-6 -41 19 -70t66 -29t74 29t39 70t-18.5 70t-65.5 29t-74.5 -29t-39.5 -70zM212 703q4 27 25.5 45.5t48.5 18.5t42.5 -18.5t11.5 -45.5t-25 -45.5
t-48 -18.5t-43 18.5t-12 45.5zM262 703q-2 -14 12 -14t16 14t-12 14t-16 -14z" />
    <glyph glyph-name="ogonek" unicode="&#x2db;" horiz-adv-x="350" 
d="M27 -116q10 69 88 155q10 10 21 10h105h5t9.5 -2.5t10 -6t2 -12t-11.5 -19.5q-37 -44 -41 -50q11 15 27 -7l46 -64q9 -12 -1 -28q-61 -89 -155 -89q-46 0 -80 27t-25 86zM77 -116q-9 -63 62 -63q54 0 96 49l-19 27q-20 -16 -40 -16q-16 0 -25.5 11.5t-7.5 28.5
q4 25 44 78h-46q-57 -66 -64 -115z" />
    <glyph glyph-name="tilde" unicode="&#x2dc;" horiz-adv-x="350" 
d="M44 614q14 99 57 153.5t115 54.5q21 0 40.5 -5.5t30.5 -12t21.5 -13.5t12.5 -8q1 2 1 6q1 3 1 5q1 11 10.5 18t18.5 7h135q11 0 17 -8t4 -17q-29 -207 -170 -207q-21 0 -40.5 5.5t-30.5 12t-21.5 13.5t-12.5 8l-3 -12q-1 -11 -10 -18t-18 -7h-136q-11 0 -17.5 8t-4.5 17z
M99 639h88q15 38 51 38q24 0 51.5 -20t55.5 -20q43 0 69 29t40 103h-87q-16 -37 -52 -37q-23 0 -51 20t-55 20q-43 0 -69.5 -29.5t-40.5 -103.5z" />
    <glyph glyph-name="hungarumlaut" unicode="&#x2dd;" horiz-adv-x="350" 
d="M4 601l114 189q5 9 15 13t18 1l154 -53q30 -10 8 -38l-109 -136q-9 -11 -22 -11h-160q0 1 -4 0t-9 1t-9 5t-3.5 10.5t7.5 18.5zM68 616h107l78 97l-105 36zM225 601l114 189q5 9 15 13t18 1l154 -53q30 -10 8 -38l-109 -136q-9 -11 -22 -11h-160q0 1 -4 0t-9 1t-9 5
t-3.5 10.5t7.5 18.5zM289 616h107l78 97l-105 36z" />
    <glyph glyph-name="commaaccent" unicode="&#x326;" horiz-adv-x="0" 
d="M-53 -331l61 110q-28 32 -21 86q8 55 49.5 91t96.5 36q52 0 85 -34t24 -92q-7 -49 -45 -94l-105 -126q-9 -11 -23 -11h-104q0 1 -4 0t-8.5 1t-8.5 4.5t-3.5 10t6.5 18.5zM10 -315h53l97 115q26 31 32 66q5 37 -13.5 56.5t-52.5 19.5q-35 0 -59.5 -21t-29.5 -56
q-6 -38 19 -57q16 -10 5 -30z" />
    <glyph glyph-name="Delta" unicode="&#x394;" horiz-adv-x="799" 
d="M-32 10l397 701q8 15 26 15h238q17 0 21 -16l184 -701q0 -1 1 -3.5t0.5 -8.5t-2.5 -10.5t-9.5 -8t-18.5 -3.5h-819q0 1 -4 0t-8.5 1t-8.5 5t-3.5 10.5t6.5 18.5zM31 25h744l-170 651h-205zM290 175l153 304q12 20 22.5 19.5t18.5 -10.5l7 -10l62 -304q3 -16 -4 -24.5
t-16 -8.5h-9h-216q-17 0 -21.5 8.5t-0.5 16.5zM351 191h145l-41 204z" />
    <glyph glyph-name="pi" unicode="&#x3c0;" horiz-adv-x="733" 
d="M9 388q10 81 78 132.5t159 51.5h555q10 0 17 -8t5 -17l-22 -156q-2 -11 -10 -18t-18 -7h-81l-53 -366q-1 -11 -10.5 -18t-18.5 -7h-185q-11 0 -17 8t-4 17l38 263l-65 -266q-2 -9 -11 -15.5t-18 -6.5h-185q-10 0 -17 7t-4 21l64 258l-151 -49q-9 -3 -18 1t-11 12
q-28 85 -17 163zM59 388q-8 -54 9 -121l113 36q-6 30 -4 46q4 29 26 48t51 19h13q14 0 19 -9t2 -19l-90 -363h135l91 369q6 22 28 22h37q9 0 15.5 -7t5.5 -18l-52 -366h135l52 366q2 9 10 17t19 8h81l14 106h-530q-73 0 -122.5 -38.5t-57.5 -95.5zM227 346l3 13q-2 -4 -2 -8
q0 -1 -0.5 -2.5t-0.5 -2.5z" />
    <glyph glyph-name="Wgrave" unicode="&#x1e80;" horiz-adv-x="1121" 
d="M71 693v2q0 2 -0.5 4t0 5t1.5 6t3 6t5 5t8.5 3.5t11.5 1.5h248q19 0 21 -19l31 -354l130 353q6 19 27 19l227 1q19 0 21 -19l31 -354l130 354q6 19 28 19h237h3.5t8 -1t8 -4.5t4 -10t-4.5 -17.5l-330 -701q-8 -17 -27 -17h-239q-19 0 -21 19l-28 316l-121 -316
q-6 -19 -27 -19h-239q-17 0 -21 17zM127 676l117 -651h201l153 400q6 16 18 16t22 -8l9 -8l34 -400h201l307 651h-183l-163 -441q-6 -15 -18 -15t-21 8l-9 7l-38 441l-187 -1l-163 -440q-6 -15 -18 -15t-21 8l-9 7l-38 441h-194zM427 856l-3 3t-4.5 7.5t-2 10.5t6.5 11
t19 10l198 60q20 7 28 -12l80 -189l2 -4t2 -8.5t-1 -11.5t-9.5 -9t-20.5 -4h-160q-9 0 -16 7zM494 863l85 -93h107l-57 134z" />
    </font>
</defs>
</svg>
