<?xml version="1.0" standalone="no"?>
<!DOCTYPE svg PUBLIC "-//W3C//DTD SVG 1.1//EN" "http://www.w3.org/Graphics/SVG/1.1/DTD/svg11.dtd" >
<svg xmlns="http://www.w3.org/2000/svg" xmlns:xlink="http://www.w3.org/1999/xlink" version="1.1">
<metadata>
Created by FontForge 20170731 at Wed Jan  4 18:38:55 2017
 By Aleksey,,,
Copyright (c) 2014 by Julieta Ulanovsky. All rights reserved, Design Modifications and new weights 2015, Jasper @ Cannot Into Space Fonts.
</metadata>
<defs>
<font id="TruenoBdOl" horiz-adv-x="350" >
  <font-face 
    font-family="Trueno"
    font-weight="700"
    font-stretch="normal"
    units-per-em="1000"
    panose-1="0 0 8 0 0 0 0 0 0 0"
    ascent="800"
    descent="-200"
    x-height="564"
    cap-height="725"
    bbox="-303.562 -320 1470 1000"
    underline-thickness="50"
    underline-position="-200"
    unicode-range="U+0020-FB02"
  />
<missing-glyph horiz-adv-x="500" 
d="M-25 0v700q0 11 8 18t17 7h500q11 0 18 -8t7 -17v-700q0 -11 -8 -18t-17 -7h-500q-11 0 -18 8t-7 17zM25 25h450v650h-450v-650zM25 95v510q0 19 11.5 22.5t23.5 -2.5l11 -6l170 -255q9 -14 0 -28l-170 -255q-12 -15 -22.5 -12t-16.5 15zM59 64l170 255q10 16 20.5 16
t16.5 -8l5 -8l170 -255q11 -19 6.5 -28t-15.5 -10l-12 -1h-340q-21 0 -26.5 9.5t0.5 19.5zM59 636q-11 19 -6.5 28t15.5 10l12 1h340q21 0 26.5 -9.5t-0.5 -19.5l-5 -10l-170 -255q-10 -16 -20.5 -16t-16.5 8l-5 8zM75 178l115 172l-115 172v-344zM127 75h246l-123 185z
M127 625l123 -185l123 185h-246zM259 336q-9 14 0 28l170 255q12 15 22.5 12t16.5 -15l7 -11v-510q0 -19 -11.5 -22.5t-23.5 2.5l-11 6zM310 350l115 -172v344z" />
    <glyph glyph-name="fi" unicode="fi" horiz-adv-x="697" 
d="M3 406v114q0 11 8 18t17 7h48v20q0 99 66.5 154.5t164.5 55.5q67 0 116 -23q14 -6 14 -24l-6 -137v-4.5t-2 -9t-5 -10t-11 -3.5t-19 6q-33 18 -60 18q-20 0 -28.5 -7.5t-8.5 -26.5v-9h97q11 0 18 -8t7 -17v-114q0 -11 -8 -18t-17 -7h-97v-381q0 -11 -8 -18t-17 -7h-171
q-11 0 -18 8t-7 17v381h-48q-11 0 -18 8t-7 17zM53 431h48q9 0 17 -7t8 -18v-381h121v381q0 9 7 17t18 8h97v64h-97q-9 0 -17 7t-8 18v34q0 40 25 62t62 22q26 0 49 -8l3 82q-37 13 -79 13q-82 0 -131.5 -41.5t-49.5 -118.5v-45q0 -9 -7 -17t-18 -8h-48v-64zM426 694
q0 50 33 83t83 33t83.5 -33t33.5 -83t-33.5 -83.5t-83.5 -33.5t-83 33.5t-33 83.5zM431 0v539q0 11 8 18t17 7h172q11 0 18 -8t7 -17v-539q0 -11 -8 -18t-17 -7h-172q-11 0 -18 8t-7 17zM476 694q0 -31 18 -49t48 -18q31 0 49 18t18 49q0 30 -18 48t-49 18q-30 0 -48 -18
t-18 -48zM481 25h122v489h-122v-489z" />
    <glyph glyph-name="fl" unicode="fl" horiz-adv-x="714" 
d="M3 407l1 113q0 10 8 17.5t17 7.5h47v27q0 92 65 149t166 56q67 0 116 -21q15 -6 15 -24l-6 -138q0 -2 -0.5 -5t-2.5 -9.5t-6 -10.5t-12 -3t-19 9q-22 16 -50 18q-45 0 -45 -46v-2h98q11 0 18 -7.5t7 -17.5l-1 -113q0 -10 -8 -17.5t-17 -7.5h-97v-382q0 -11 -8 -18t-17 -7
h-171q-11 0 -18 8t-7 17v382h-48q-10 0 -17.5 7t-7.5 18zM53 432h48q9 0 17 -7t8 -18v-382h121v382q0 9 7 17t18 8h97l1 63h-98q-9 0 -17 7t-8 18v27q0 42 27.5 69.5t69.5 26.5q20 -1 40 -8l3 81q-36 11 -80 11q-84 1 -132.5 -42t-48.5 -113v-52q0 -9 -7 -17t-18 -8h-47z
M442 0v742q0 11 8 18t17 7h173q11 0 18 -8t7 -17v-742q0 -11 -8 -18t-17 -7h-173q-11 0 -18 8t-7 17zM492 25h123v692h-123v-692z" />
    <glyph glyph-name=".notdef" horiz-adv-x="500" 
d="M-25 0v700q0 11 8 18t17 7h500q11 0 18 -8t7 -17v-700q0 -11 -8 -18t-17 -7h-500q-11 0 -18 8t-7 17zM25 25h450v650h-450v-650zM25 95v510q0 19 11.5 22.5t23.5 -2.5l11 -6l170 -255q9 -14 0 -28l-170 -255q-12 -15 -22.5 -12t-16.5 15zM59 64l170 255q10 16 20.5 16
t16.5 -8l5 -8l170 -255q11 -19 6.5 -28t-15.5 -10l-12 -1h-340q-21 0 -26.5 9.5t0.5 19.5zM59 636q-11 19 -6.5 28t15.5 10l12 1h340q21 0 26.5 -9.5t-0.5 -19.5l-5 -10l-170 -255q-10 -16 -20.5 -16t-16.5 8l-5 8zM75 178l115 172l-115 172v-344zM127 75h246l-123 185z
M127 625l123 -185l123 185h-246zM259 336q-9 14 0 28l170 255q12 15 22.5 12t16.5 -15l7 -11v-510q0 -19 -11.5 -22.5t-23.5 2.5l-11 6zM310 350l115 -172v344z" />
    <glyph glyph-name=".null" horiz-adv-x="0" 
 />
    <glyph glyph-name="nonmarkingreturn" horiz-adv-x="333" 
 />
    <glyph glyph-name="space" unicode=" " horiz-adv-x="232" 
 />
    <glyph glyph-name="exclam" unicode="!" horiz-adv-x="254" 
d="M23 76q0 46 31 77t77 31q47 0 78 -30.5t31 -77.5t-31 -78t-78 -31q-46 0 -77 31t-31 78zM27 515v3v178q0 11 8 18t17 7h164q11 0 18 -8t7 -17v-178v-3l-30 -278q-1 -9 -8.5 -15.5t-16.5 -6.5h-104q-10 0 -17 6.5t-8 15.5zM73 76q0 -28 15.5 -43.5t42.5 -15.5t43 15.5
t16 43.5q0 26 -16 42t-43 16q-26 0 -42 -15.5t-16 -42.5zM77 519l27 -254h60l27 254v152h-114v-152z" />
    <glyph glyph-name="quotedbl" unicode="&#x22;" horiz-adv-x="439" 
d="M35 427v273q0 11 8 18t17 7h130q11 0 18 -8t7 -17v-273q0 -11 -8 -18t-17 -7h-130q-11 0 -18 8t-7 17zM85 452h80v223h-80v-223zM224 427v273q0 11 8 18t17 7h130q11 0 18 -8t7 -17v-273q0 -11 -8 -18t-17 -7h-130q-11 0 -18 8t-7 17zM274 452h80v223h-80v-223z" />
    <glyph glyph-name="numbersign" unicode="#" horiz-adv-x="735" 
d="M-10 159l14 119q1 9 8.5 15.5t16.5 6.5h114l11 93h-105q-10 0 -18 7t-7 21l13 119q1 9 8.5 15.5t16.5 6.5h113l17 141q1 9 8.5 15.5t16.5 6.5h124q10 0 18.5 -6.5t6.5 -21.5l-17 -135h90l17 141q1 9 8.5 15.5t16.5 6.5h124q10 0 18.5 -6.5t6.5 -21.5l-17 -135h107
q10 0 18 -7t7 -21l-13 -119q-1 -9 -8.5 -15.5t-16.5 -6.5h-115l-12 -93h107q10 0 18.5 -6.5t6.5 -21.5l-14 -119q-1 -9 -8.5 -15.5t-16.5 -6.5h-114l-16 -134q-1 -9 -8.5 -15.5t-16.5 -6.5h-124q-10 0 -18.5 6.5t-6.5 21.5l16 128h-89l-16 -134q-1 -9 -8.5 -15.5t-16.5 -6.5
h-124q-10 0 -18.5 6.5t-6.5 21.5l16 128h-107q-10 0 -18.5 6.5t-6.5 21.5zM43 181h107q15 0 20.5 -9t4.5 -19l-16 -128h74l16 134q1 9 8 15.5t17 6.5h139q15 0 20.5 -9t4.5 -19l-16 -128h74l16 134q1 9 8.5 15.5t16.5 6.5h114l8 69h-107q-15 0 -20.5 9t-4.5 19l18 143
q1 9 8 15.5t17 6.5h115l7 69h-107q-15 0 -20.5 9t-4.5 19l17 135h-74l-17 -141q-1 -8 -8.5 -15t-16.5 -7h-140q-15 0 -20.5 9t-4.5 19l17 135h-74l-17 -141q-1 -8 -8.5 -15t-16.5 -7h-113l-7 -69h105q15 0 20.5 -9t4.5 -19l-17 -143q-1 -8 -8.5 -15t-16.5 -7h-114zM264 278
l18 143q1 9 8.5 15.5t16.5 6.5h139q15 0 20.5 -9t4.5 -19l-18 -143q-1 -8 -8 -15t-17 -7h-139q-15 0 -20.5 9t-4.5 19zM317 300h89l12 93h-89z" />
    <glyph glyph-name="dollar" unicode="$" horiz-adv-x="644" 
d="M-5 117l69 137l2 2q1 3 2 5t3.5 4.5t5.5 3.5t6.5 1.5t8.5 -1.5t10 -7q49 -43 118 -71t119 -28q66 0 66 36q0 18 -27.5 31t-68.5 20.5t-89 24.5t-89 40.5t-68.5 70.5t-27.5 111q0 84 53.5 143t143.5 81v128q0 11 8 18t17 7h132q11 0 18 -8t7 -17v-121q124 -19 215 -77
q19 -12 9 -32l-67 -139q-5 -9 -14.5 -13t-21.5 2q-53 30 -113 50t-98 20q-52 0 -52 -26q0 -15 20.5 -26t53 -19.5t72 -19t79 -28.5t72 -43t53 -68.5t20.5 -100.5q0 -96 -63.5 -156t-164.5 -77v-129q0 -11 -8 -18t-17 -7h-132q-11 0 -18 8t-7 17v134q-132 26 -231 107
q-15 13 -6 30zM49 113q93 -69 212 -87q8 -2 14.5 -9t6.5 -16v-130h82v126q0 9 6.5 16.5t15.5 8.5q95 11 150.5 59t55.5 127q0 46 -20.5 79.5t-53 52t-72 32t-79 24.5t-72 24t-53 36.5t-20.5 56.5q0 39 30 57.5t72 18.5q92 0 213 -63l46 94q-84 48 -197 61q-9 1 -15.5 8
t-6.5 17v118h-82v-123q0 -8 -5.5 -16t-14.5 -9q-85 -17 -131 -63t-46 -116q0 -52 27.5 -87.5t68.5 -51t89 -30.5t89 -26.5t68.5 -37.5t27.5 -65q0 -43 -33.5 -64.5t-82.5 -21.5q-55 0 -122 24.5t-123 66.5z" />
    <glyph glyph-name="percent" unicode="%" horiz-adv-x="1023" 
d="M6 492q0 106 60.5 171t160.5 65t160 -65t60 -171q0 -107 -60 -172t-160 -65t-160.5 65t-60.5 172zM56 492q0 -89 45.5 -138t125.5 -49t125 49t45 138t-45 137.5t-125 48.5t-125.5 -48.5t-45.5 -137.5zM117 492q0 63 29 103.5t81 40.5t81 -40.5t29 -103.5t-29 -103.5
t-81 -40.5t-81 40.5t-29 103.5zM158 15l500 701q7 10 20 10h162h5t10 -2.5t10.5 -6t3 -12t-8.5 -19.5l-500 -701q-7 -10 -20 -10h-162h-5t-10 2.5t-10.5 6t-3 12t8.5 19.5zM167 492q0 -94 60 -94t60 94t-60 94t-60 -94zM227 25h100l464 651h-100zM576 209q0 106 60.5 171
t160.5 65t160 -65t60 -171q0 -107 -60 -172.5t-160 -65.5t-160.5 65.5t-60.5 172.5zM626 209q0 -89 45.5 -138.5t125.5 -49.5t125 49.5t45 138.5t-45 137.5t-125 48.5t-125.5 -48.5t-45.5 -137.5zM687 209q0 63 29 103.5t81 40.5t81 -40.5t29 -103.5t-29 -104t-81 -41
t-81 41t-29 104zM737 209q0 -95 60 -95t60 95q0 94 -60 94t-60 -94z" />
    <glyph glyph-name="ampersand" unicode="&#x26;" horiz-adv-x="685" 
d="M30 196q0 117 128 195q-48 76 -48 149q0 88 63 140.5t162 52.5q96 0 160.5 -50.5t64.5 -131.5q0 -69 -41 -115.5t-109 -83.5l32 -32t33 -34q17 36 29 77q0 1 0.5 3.5t3.5 7.5t7 7.5t11 1.5t16 -7l110 -78q15 -11 9 -29q-21 -58 -55 -111l89 -85q8 -7 8 -17.5t-8 -18.5
l-87 -85q-18 -16 -34 0l-84 81q-91 -66 -197 -66q-112 0 -187.5 64t-75.5 165zM80 196q0 -77 59.5 -128t153.5 -51q101 0 183 68q18 14 33 -1l82 -79l51 50l-85 81q-16 16 -4 32q33 47 55 101l-67 47q-18 -50 -38 -84q-16 -29 -39 -6q-59 58 -112 116q-12 12 -9 21t7.5 13
t8.5 5q74 37 112.5 75.5t38.5 94.5q0 57 -47.5 94.5t-127.5 37.5q-83 0 -129 -38.5t-46 -104.5q0 -65 54 -143q7 -14 4 -22.5t-12 -13.5q-62 -34 -94 -71.5t-32 -93.5zM171 208q0 64 76 113q18 13 33 -4q36 -41 142 -147q20 -20 -3 -38q-57 -44 -119 -44q-54 0 -91.5 33.5
t-37.5 86.5zM221 208q0 -31 21.5 -50.5t57.5 -19.5q32 0 65 18q-103 106 -108 111q-36 -28 -36 -59zM245 540q0 40 25 68t67 28q38 0 63 -24.5t25 -61.5q0 -43 -29 -73.5t-78 -57.5q-21 -11 -33 8q-40 59 -40 113zM295 540q0 -29 20 -65q60 37 60 75q0 36 -38 36
q-42 0 -42 -46z" />
    <glyph glyph-name="quotesingle" unicode="'" horiz-adv-x="250" 
d="M35 427v273q0 11 8 18t17 7h130q11 0 18 -8t7 -17v-273q0 -11 -8 -18t-17 -7h-130q-11 0 -18 8t-7 17zM85 452h80v223h-80v-223z" />
    <glyph glyph-name="parenleft" unicode="(" horiz-adv-x="346" 
d="M36 309q0 256 133 447q8 11 20 11h155h5t9.5 -1.5t10 -5t3.5 -12t-7 -19.5q-117 -189 -117 -420t117 -420l1 -1q0 -1 1.5 -3.5t2.5 -5t2 -6t0.5 -6.5t-2 -6t-4.5 -5t-8.5 -3.5t-13.5 -1.5h-155q-13 0 -20 11q-133 191 -133 447zM86 309q0 -234 116 -408h98
q-102 189 -102 408q0 220 102 408h-98q-116 -172 -116 -408z" />
    <glyph glyph-name="parenright" unicode=")" horiz-adv-x="358" 
d="M30 -111q116 187 116 420t-116 420v1q-1 1 -2.5 3.5t-2.5 5t-2 6t-0.5 6.5t2 6t4.5 5t8.5 3.5t13.5 1.5h155q13 0 20 -11q132 -189 132 -447t-132 -447q-8 -11 -20 -11h-155h-5t-9.5 1.5t-10 5t-3.5 12t7 19.5zM94 -99h99q115 173 115 408t-115 408h-99
q102 -189 102 -408q0 -220 -102 -408z" />
    <glyph glyph-name="asterisk" unicode="*" horiz-adv-x="378" 
d="M1 492q-5 9 -2 19.5t12 15.5l43 25l-43 23q-9 5 -12 15t2 19l43 77q5 9 15 12t20 -3l43 -26l-1 50q0 11 7.5 18t17.5 7h86q10 0 17.5 -7t7.5 -18l-1 -51l44 26q9 5 19.5 2t15.5 -12l43 -75q5 -8 2.5 -18.5t-12.5 -15.5l-44 -23l44 -25q22 -13 10 -34l-43 -76
q-13 -22 -35 -9l-44 27l1 -50q0 -10 -7 -18t-18 -8h-86q-10 0 -17.5 7.5t-7.5 18.5l1 50l-43 -25q-9 -5 -19.5 -3t-15.5 11zM57 496l18 -31l60 36q20 10 28.5 5.5t8.5 -16.5l1 -11l-1 -70h34l-1 70q0 21 9.5 26.5t19.5 0.5l9 -5l61 -37l18 31l-63 35q-19 10 -19 21t10 17
l9 6l62 33l-17 31l-60 -36q-20 -10 -28.5 -5t-9.5 16v11l1 70h-36l1 -70q0 -21 -9.5 -26.5t-18.5 0.5l-10 5l-59 36l-18 -32l61 -33q19 -10 19 -21t-9 -17l-10 -6z" />
    <glyph glyph-name="plus" unicode="+" horiz-adv-x="510" 
d="M8 272v109q0 11 8 18t17 7h142v143q0 11 8 18t17 7h109q11 0 18 -8t7 -17v-143h143q11 0 18 -8t7 -17v-109q0 -11 -8 -18t-17 -7h-143v-143q0 -11 -8 -18t-17 -7h-109q-11 0 -18 8t-7 17v143h-142q-11 0 -18 8t-7 17zM58 297h142q9 0 17 -7t8 -18v-143h59v143q0 9 7 17
t18 8h143v59h-143q-9 0 -17 7t-8 18v143h-59v-143q0 -9 -7 -17t-18 -8h-142v-59z" />
    <glyph glyph-name="comma" unicode="," horiz-adv-x="241" 
d="M4 -86l38 90q-28 29 -28 72q0 46 31 76.5t77 30.5q44 0 75.5 -29t31.5 -78q0 -40 -26 -80l-73 -106q-8 -11 -21 -11h-82h-4t-8.5 1t-9 4.5t-5 10.5t3.5 19zM64 76q0 -29 22 -44q17 -11 9 -31l-30 -72h31l65 95q18 28 18 52q0 27 -16 42t-41 15q-26 0 -42 -15.5t-16 -41.5
z" />
    <glyph glyph-name="hyphen" unicode="-" horiz-adv-x="374" 
d="M30 252v109q0 11 8 18t17 7h264q11 0 18 -8t7 -17v-109q0 -11 -8 -18t-17 -7h-264q-11 0 -18 8t-7 17zM80 277h214v59h-214v-59z" />
    <glyph glyph-name="period" unicode="." horiz-adv-x="243" 
d="M13 76q0 46 30.5 77t77.5 31t78 -30.5t31 -77.5t-31 -78t-78 -31t-77.5 31t-30.5 78zM63 76q0 -28 15.5 -43.5t42.5 -15.5t43 15.5t16 43.5q0 26 -16 42t-43 16t-42.5 -15.5t-15.5 -42.5z" />
    <glyph glyph-name="slash" unicode="/" horiz-adv-x="353" 
d="M-60 -103l323 922q7 17 24 17h145h10t13 -8.5t1 -24.5l-323 -922q-7 -17 -24 -17h-145h-10t-13 8.5t-1 24.5zM-1 -86h92l306 872h-92z" />
    <glyph glyph-name="zero" unicode="0" horiz-adv-x="703" 
d="M16 351q0 179 88 279.5t248 100.5q159 0 246.5 -100.5t87.5 -279.5t-87.5 -280t-246.5 -101q-160 0 -248 100.5t-88 280.5zM66 351q0 -163 73 -247t213 -84q138 0 211 83.5t73 247.5q0 163 -73 246.5t-211 83.5q-139 0 -212.5 -83.5t-73.5 -246.5zM199 351
q0 125 36 187.5t117 62.5q80 0 116 -63t36 -187q0 -125 -36 -188t-116 -63q-81 0 -117 63t-36 188zM249 351q0 -115 24.5 -158t78.5 -43q53 0 77.5 43.5t24.5 157.5t-24.5 157t-77.5 43q-54 0 -78.5 -42.5t-24.5 -157.5z" />
    <glyph glyph-name="one" unicode="1" horiz-adv-x="412" 
d="M-18 558v143q0 11 8 18t17 7h307q11 0 18 -8t7 -17v-701q0 -11 -8 -18t-17 -7h-178q-11 0 -18 8t-7 17v533h-104q-11 0 -18 8t-7 17zM32 583h104q9 0 17 -7t8 -18v-533h128v651h-257v-93z" />
    <glyph glyph-name="two" unicode="2" horiz-adv-x="600" 
d="M0 591q-10 19 7 32q147 110 299 110q113 0 188.5 -56.5t75.5 -151.5q0 -107 -139 -250l-102 -109h237q11 0 18 -8t7 -17v-141q0 -11 -8 -18t-17 -7h-524q-11 0 -18 8t-7 17v115q0 8 7 17l250 265q27 28 43.5 57.5t16.5 45.5q0 39 -54 39q-79 0 -175 -83q-24 -19 -38 7z
M54 595l43 -81q100 75 183 75q45 0 74.5 -24t29.5 -65q0 -59 -74 -137l-243 -258v-80h474v91h-270q-22 0 -26.5 10.5t1.5 21.5l7 10l142 151q125 128 125 216q0 70 -58 114t-156 44q-127 0 -252 -88z" />
    <glyph glyph-name="three" unicode="3" horiz-adv-x="558" 
d="M-24 89l72 135q1 1 2 3t4.5 6.5t8 6t11.5 -0.5t14 -10q71 -77 157 -77q83 0 83 66q0 33 -19 48t-65 15h-112q-11 0 -18 8t-7 17v95q0 10 7 17l115 120h-196q-11 0 -18 8t-7 17v136q0 11 8 18t17 7h462q11 0 18 -8t7 -17v-101q0 -10 -7 -17l-142 -148q81 -16 131 -72.5
t50 -140.5q0 -112 -81.5 -182.5t-211.5 -70.5q-76 0 -150.5 24.5t-126.5 65.5q-16 13 -6 32zM30 84q44 -30 106 -48.5t123 -18.5q113 0 178 56.5t65 146.5q0 69 -41 111.5t-112 54.5l-33 5q-21 3 -24.5 13.5t3.5 19.5l7 9l168 175v66h-412v-86h230q22 0 26.5 -10.5
t-2.5 -21.5l-6 -10l-149 -155v-60h87q60 0 97 -29t37 -84q0 -53 -36.5 -84.5t-96.5 -31.5q-91 0 -169 69z" />
    <glyph glyph-name="four" unicode="4" horiz-adv-x="633" 
d="M2 154v119q0 7 3 11l221 427q7 14 22 14h171h4.5t9 -1t9 -5t4.5 -11t-5 -19l-189 -375h82v125q0 11 8 18t17 7h165q11 0 18 -8t7 -17v-125h70q11 0 18 -8t7 -17v-135q0 -11 -8 -18t-17 -7h-70v-129q0 -11 -8 -18t-17 -7h-165q-11 0 -18 8t-7 17v129h-307q-11 0 -18 8
t-7 17zM52 179h307q9 0 17 -7t8 -18v-129h115v129q0 9 7 17t18 8h70v85h-70q-9 0 -17 7t-8 18v125h-115v-125q0 -9 -7 -17t-18 -8h-148q-20 0 -25.5 9t-1.5 18l5 9l189 375h-115l-211 -408v-88z" />
    <glyph glyph-name="five" unicode="5" horiz-adv-x="595" 
d="M-8 92l71 135q1 1 2 3t4.5 6.5t8 6t11.5 -0.5t14 -10q72 -78 160 -78q84 0 84 69q0 62 -84 62q-120 0 -188 -5q-10 -1 -18.5 6t-8.5 19v395q0 11 8 18t17 7h459q11 0 18 -8t7 -17v-141q0 -11 -8 -18t-17 -7h-272v-63h38q127 0 208.5 -65t81.5 -171q0 -121 -84.5 -194
t-219.5 -73q-72 0 -149 25t-136 67q-18 12 -7 32zM47 88q112 -70 237 -70q118 0 186 59t68 158q0 83 -64 134.5t-176 51.5h-63q-9 0 -17 7t-8 18v113q0 9 7 17t18 8h272v91h-409v-344q104 4 165 4q59 0 96.5 -29.5t37.5 -82.5q0 -55 -37 -87t-97 -32q-90 0 -171 70z" />
    <glyph glyph-name="six" unicode="6" horiz-adv-x="632" 
d="M16 340q0 176 95.5 284.5t253.5 108.5q137 0 239 -62q20 -12 9 -33l-68 -124q-14 -25 -37 -8q-56 40 -132 40q-110 0 -133 -97q56 36 136 36q113 0 182 -69.5t69 -181.5q0 -121 -79.5 -194t-207.5 -73q-152 0 -239.5 101.5t-87.5 271.5zM66 340q0 -153 73.5 -238
t203.5 -85q110 0 173.5 58.5t63.5 158.5q0 93 -54 147t-147 54q-101 0 -147 -64q-13 -16 -23 -13t-16 15l-6 12q-2 96 47 153.5t142 57.5q76 0 138 -35l43 79q-88 43 -192 43q-137 0 -218 -92t-81 -251zM206 232q0 54 36.5 88.5t96.5 34.5q57 0 91.5 -32.5t34.5 -87.5
q0 -58 -36 -92t-93 -34q-61 0 -95.5 36t-34.5 87zM256 232q0 -33 19.5 -53t60.5 -20q79 0 79 76q0 70 -76 70q-41 0 -62 -19.5t-21 -53.5z" />
    <glyph glyph-name="seven" unicode="7" horiz-adv-x="594" 
d="M8 559v141q0 11 8 18t17 7h545q11 0 18 -8t7 -17v-121q0 -4 -2 -10l-258 -579q-7 -15 -23 -15h-188h-4.5t-9 1t-9 4.5t-5 10.5t4.5 19l234 524h-129v-73v-5t-1.5 -9.5t-5 -10.5t-12 -3.5t-19.5 7.5l-156 98q-12 9 -12 21zM58 573l106 -67v53q0 9 7 17t18 8h193
q19 0 25 -8.5t2 -17.5l-4 -9l-234 -524h133l249 559v91h-495v-102z" />
    <glyph glyph-name="eight" unicode="8" horiz-adv-x="642" 
d="M9 195q0 57 29.5 105t79.5 79q-73 62 -73 146q0 96 77 152t198 56q123 0 199.5 -57t76.5 -156q0 -85 -65 -142q48 -31 75 -78t27 -102q0 -107 -87 -169t-225 -62q-139 0 -225.5 61t-86.5 167zM59 195q0 -80 69 -129t193 -49t193 49.5t69 131.5q0 50 -29 91t-81 63
q-13 5 -18 12t-2.5 12.5t6 10t7.5 7.5l5 3q75 41 75 123q0 74 -59 118.5t-167 44.5q-107 0 -166 -43t-59 -115q0 -80 84 -128q19 -12 18.5 -22t-11.5 -17l-10 -6q-55 -22 -86 -64t-31 -93zM177 213q0 55 39.5 85.5t104.5 30.5t105 -30.5t40 -85.5q0 -56 -40 -86.5
t-105 -30.5t-104.5 30.5t-39.5 86.5zM195 510q0 50 35 78t91 28t91 -28t35 -78q0 -49 -35 -76t-91 -27t-91 27t-35 76zM227 213q0 -67 94 -67q95 0 95 67q0 66 -95 66q-94 0 -94 -66zM245 510q0 -53 76 -53t76 53q0 56 -76 56t-76 -56z" />
    <glyph glyph-name="nine" unicode="9" horiz-adv-x="632" 
d="M5 467q0 121 79.5 194t207.5 73q152 0 239.5 -101.5t87.5 -271.5q0 -176 -95.5 -284.5t-253.5 -108.5q-137 0 -239 62q-20 12 -9 33l68 124q14 25 37 8q56 -40 132 -40q110 0 133 97q-56 -36 -136 -36q-113 0 -182 69.5t-69 181.5zM55 467q0 -93 54 -147t147 -54
q101 0 147 64q13 16 23 13t16 -15l6 -12q2 -96 -47 -153.5t-142 -57.5q-76 0 -138 35l-43 -79q88 -43 192 -43q137 0 218 92t81 251q0 153 -73.5 238t-203.5 85q-110 0 -173.5 -58.5t-63.5 -158.5zM170 466q0 58 36 92t93 34q61 0 95.5 -36t34.5 -87q0 -54 -36.5 -88.5
t-96.5 -34.5q-57 0 -91.5 32.5t-34.5 87.5zM220 466q0 -70 76 -70q41 0 62 19.5t21 53.5q0 33 -19.5 53t-60.5 20q-79 0 -79 -76z" />
    <glyph glyph-name="colon" unicode=":" horiz-adv-x="240" 
d="M13 76q0 46 30.5 77t77.5 31t78 -30.5t31 -77.5t-31 -78t-78 -31t-77.5 31t-30.5 78zM13 373q0 47 30.5 77.5t77.5 30.5t78 -30.5t31 -77.5t-31 -78t-78 -31t-77.5 31t-30.5 78zM63 76q0 -28 15.5 -43.5t42.5 -15.5t43 15.5t16 43.5q0 26 -16 42t-43 16t-42.5 -15.5
t-15.5 -42.5zM63 373q0 -28 15.5 -43.5t42.5 -15.5t43 15.5t16 43.5q0 26 -16 42t-43 16t-42.5 -15.5t-15.5 -42.5z" />
    <glyph glyph-name="semicolon" unicode=";" horiz-adv-x="242" 
d="M4 -86l38 90q-28 29 -28 72q0 46 31 76.5t77 30.5q44 0 75.5 -29t31.5 -78q0 -40 -26 -80l-73 -106q-8 -11 -21 -11h-82h-4t-8.5 1t-9 4.5t-5 10.5t3.5 19zM13 373q0 47 30.5 77.5t77.5 30.5t78 -30.5t31 -77.5t-31 -78t-78 -31t-77.5 31t-30.5 78zM63 373
q0 -28 15.5 -43.5t42.5 -15.5t43 15.5t16 43.5q0 26 -16 42t-43 16t-42.5 -15.5t-15.5 -42.5zM64 76q0 -29 22 -44q17 -11 9 -31l-30 -72h31l65 95q18 28 18 52q0 27 -16 42t-41 15q-26 0 -42 -15.5t-16 -41.5z" />
    <glyph glyph-name="less" unicode="&#x3c;" horiz-adv-x="510" 
d="M8 255v139q0 16 15 23l444 185q1 1 3.5 2t8.5 2t10.5 -0.5t8.5 -8t4 -18.5v-122q0 -16 -16 -23l-274 -110l274 -110q16 -6 16 -23v-121v-4t-1 -8.5t-4.5 -9t-10.5 -5t-19 3.5l-444 185q-15 6 -15 23zM58 272l394 -164v66l-316 127q-20 8 -20 19.5t10 19.5l10 7l316 127
v68l-394 -165v-105z" />
    <glyph glyph-name="equal" unicode="=" horiz-adv-x="510" 
d="M8 165v109q0 11 8 18t17 7h444q11 0 18 -8t7 -17v-109q0 -11 -8 -18t-17 -7h-444q-11 0 -18 8t-7 17zM8 380v109q0 11 8 18t17 7h444q11 0 18 -8t7 -17v-109q0 -11 -8 -18t-17 -7h-444q-11 0 -18 8t-7 17zM58 190h394v59h-394v-59zM58 405h394v59h-394v-59z" />
    <glyph glyph-name="greater" unicode="&#x3e;" horiz-adv-x="510" 
d="M7 77v122q0 16 16 23l275 110l-275 110q-16 6 -16 23v121v4t1 8.5t4.5 9t10.5 5t19 -3.5l445 -185q15 -6 15 -23v-139q0 -16 -15 -23l-445 -185q-1 -1 -3.5 -2t-8.5 -2t-10.5 0.5t-8.5 8t-4 18.5zM57 114l395 165v105l-395 165v-67l317 -127q20 -8 20 -19.5t-10 -19.5
l-10 -7l-317 -127v-68z" />
    <glyph glyph-name="question" unicode="?" horiz-adv-x="472" 
d="M-22 476q2 116 70 184t183 68q108 0 174 -52t66 -147q0 -48 -16 -87t-38.5 -63.5t-44.5 -46t-38 -45t-16 -48.5q0 -11 -8 -18t-17 -7h-129q-11 0 -18 8t-7 17q0 48 12.5 86t30.5 61t36.5 41t31 36.5t12.5 37.5q0 23 -10 31.5t-37 8.5q-28 0 -40.5 -14t-13.5 -52
q0 -10 -8 -17.5t-17 -7.5l-133 1q-11 0 -18 7.5t-7 17.5zM29 501l84 -1q6 43 33.5 67t68.5 24q43 0 70 -23.5t27 -66.5q0 -32 -11.5 -58t-28 -44.5t-34 -36.5t-31.5 -43t-17 -55h80q7 42 32.5 77t51 56t46.5 55.5t21 76.5q0 72 -48.5 110.5t-141.5 38.5q-90 0 -142 -45.5
t-60 -131.5zM118 76q0 46 31 77t77 31q47 0 78 -30.5t31 -77.5t-31 -78t-78 -31t-77.5 31t-30.5 78zM168 76q0 -28 15.5 -43.5t42.5 -15.5t43 15.5t16 43.5q0 26 -16 42t-43 16t-42.5 -15.5t-15.5 -42.5z" />
    <glyph glyph-name="at" unicode="@" horiz-adv-x="917" 
d="M-1 268q0 192 135.5 324.5t330.5 132.5q194 0 323.5 -128.5t129.5 -322.5q0 -119 -60 -195t-157 -76q-23 0 -33 2l41 -70q11 -18 -7 -32q-48 -35 -117.5 -56t-132.5 -21q-193 0 -323 126.5t-130 315.5zM49 268q0 -169 115 -280.5t288 -111.5q49 0 105 15t97 40l-21 36
q-81 -50 -181 -50q-151 0 -253 100t-102 251q0 153 107.5 260t260.5 107q158 0 254 -98q102 -102 102 -266q0 -77 -29.5 -132.5t-78.5 -55.5q-28 0 -45 20.5t-17 53.5v312h-72v-28q0 -16 -11.5 -18.5t-23.5 2.5l-12 5q-5 7 -17.5 17t-40 21.5t-56.5 11.5q-80 0 -130 -60
t-50 -150t58 -148t135 -58q82 0 130 69q14 17 24.5 15t16.5 -14l5 -11l2 -12q10 -41 50 -53q15 -5 42 -5q73 0 120 59t47 162q0 174 -114.5 287.5t-288.5 113.5q-175 0 -295.5 -117.5t-120.5 -289.5zM147 268q0 -130 87 -215.5t218 -85.5q96 0 170 53q-33 17 -50 49
q-58 -55 -141 -55q-98 0 -170.5 72.5t-72.5 183.5q0 108 63.5 184t166.5 76q59 0 111 -33q1 10 9 16t16 6h111q-80 66 -200 66q-132 0 -225 -92.5t-93 -224.5zM321 275q0 58 33.5 101t88.5 43q58 0 93 -43t35 -102q0 -62 -34 -106.5t-93 -44.5q-57 0 -90 45.5t-33 106.5z
M371 275q0 -45 21 -73.5t52 -28.5q34 0 55.5 28t21.5 73q0 43 -21.5 69t-56.5 26q-31 0 -51.5 -26t-20.5 -68zM701 157q0 -13 2 -18.5t3 -5.5h7q9 0 22 13.5t24.5 47t11.5 77.5q0 126 -70 212v-326z" />
    <glyph glyph-name="A" unicode="A" horiz-adv-x="770" 
d="M-28 10l302 700q7 15 23 15h183q17 0 23 -15l295 -700q1 -1 2 -3.5t2 -8.5t-0.5 -10.5t-8 -8.5t-18.5 -4h-190q-16 0 -23 16l-44 113h-272l-45 -113q-6 -16 -23 -16h-183h-4t-9 1t-9.5 4.5t-4.5 10.5t4 19zM33 25h128l45 113q7 16 23 16h306q17 0 23 -16l44 -113h135
l-274 650h-150zM258 273l102 259q8 20 19.5 20t18.5 -10l8 -10l100 -259q5 -18 0 -25.5t-14 -7.5l-9 -1h-202q-18 0 -23.5 8.5t-2.5 16.5zM318 289h129l-64 165z" />
    <glyph glyph-name="B" unicode="B" horiz-adv-x="715" 
d="M45 0v700q0 11 8 18t17 7h331q125 0 203.5 -53.5t78.5 -146.5q0 -98 -79 -151q49 -26 76 -73.5t27 -106.5q0 -102 -81.5 -160.5t-212.5 -58.5h-343q-11 0 -18 8t-7 17zM95 25h318q117 0 180.5 46t63.5 123q0 60 -33.5 100.5t-90.5 51.5q-10 2 -13.5 7.5t-2 12.5t4.5 13.5
t6 10.5l3 5q48 13 75 48t27 82q0 67 -60.5 108.5t-171.5 41.5h-306v-650zM222 137v155q0 9 7 17t18 8h144q57 0 94.5 -26.5t37.5 -74.5q0 -50 -37.5 -77t-94.5 -27h-144q-9 0 -17 7t-8 18zM222 420v144q0 9 7 17t18 8h144q47 0 78.5 -26t31.5 -70q0 -45 -31 -71.5t-79 -26.5
h-144q-9 0 -17 7t-8 18zM272 162h119q82 0 82 54q0 51 -82 51h-119v-105zM272 445h119q60 0 60 48q0 46 -60 46h-119v-94z" />
    <glyph glyph-name="C" unicode="C" horiz-adv-x="692" 
d="M-1 352q0 162 115 270.5t284 108.5q83 0 163 -34t137 -92q16 -16 1 -33l-103 -122q-21 -21 -38 0q-31 38 -74 60t-83 22q-73 0 -121.5 -51t-48.5 -127q0 -78 49 -129.5t121 -51.5q38 0 81.5 20t76.5 54q18 18 36 0l104 -110q16 -18 0 -34q-60 -62 -142.5 -99t-164.5 -37
q-168 0 -280.5 110.5t-112.5 274.5zM49 352q0 -144 97.5 -239.5t245.5 -95.5q65 0 133 28t121 76l-70 74q-84 -72 -175 -72q-94 0 -157 67t-63 164q0 96 63.5 162t156.5 66q95 0 175 -78l70 82q-49 44 -115.5 69.5t-132.5 25.5q-150 0 -249.5 -94t-99.5 -235z" />
    <glyph glyph-name="D" unicode="D" horiz-adv-x="767" 
d="M45 0v700q0 11 8 18t17 7h301q175 0 286 -104.5t111 -270.5t-113 -270.5t-291 -104.5h-294q-11 0 -18 8t-7 17zM95 25h269q160 0 257 90t97 235q0 146 -95.5 235.5t-251.5 89.5h-276v-650zM223 142v416q0 9 7 17t18 8h119q95 0 157.5 -66t62.5 -168q0 -101 -59.5 -166.5
t-152.5 -65.5h-127q-9 0 -17 7t-8 18zM273 167h102q72 0 117 49.5t45 132.5t-47.5 133.5t-122.5 50.5h-94v-366z" />
    <glyph glyph-name="E" unicode="E" horiz-adv-x="674" 
d="M45 0v700q0 11 8 18t17 7h548q11 0 18 -8t7 -17v-140q0 -11 -8 -18t-17 -7h-345v-89h309q11 0 18 -8t7 -17v-140q0 -11 -8 -18t-17 -7h-309v-91h356q11 0 18 -8t7 -17v-140q0 -11 -8 -18t-17 -7h-559q-11 0 -18 8t-7 17zM95 25h509v90h-356q-9 0 -17 7t-8 18v141
q0 9 7 17t18 8h309v90h-309q-9 0 -17 7t-8 18v139q0 9 7 17t18 8h345v90h-498v-650z" />
    <glyph glyph-name="F" unicode="F" horiz-adv-x="604" 
d="M45 0v700q0 11 8 18t17 7h519q11 0 18 -8t7 -17v-140q0 -11 -8 -18t-17 -7h-316v-112h289q11 0 18 -8t7 -17v-140q0 -11 -8 -18t-17 -7h-289v-233q0 -11 -8 -18t-17 -7h-178q-11 0 -18 8t-7 17zM95 25h128v233q0 9 7 17t18 8h289v90h-289q-9 0 -17 7t-8 18v162q0 9 7 17
t18 8h316v90h-469v-650z" />
    <glyph glyph-name="G" unicode="G" horiz-adv-x="743" 
d="M-1 350q0 163 118 272t293 109q83 0 164.5 -29.5t138.5 -80.5q17 -16 2 -35l-100 -121q-6 -8 -16.5 -9t-19.5 7q-34 32 -80 50.5t-90 18.5q-76 0 -127 -52t-51 -130q0 -79 51.5 -131.5t128.5 -52.5q44 0 99 25v165q0 11 8 18t17 7h154q11 0 18 -8t7 -17v-273
q0 -13 -11 -20q-60 -43 -144 -69.5t-161 -26.5q-170 0 -284.5 110t-114.5 273zM49 350q0 -143 99.5 -238t249.5 -95q65 0 138.5 22t127.5 57v235h-104v-156q0 -16 -14 -22q-76 -37 -135 -37q-97 0 -163.5 67.5t-66.5 166.5q0 98 65.5 165t162.5 67t184 -66l68 83
q-50 38 -117.5 60t-133.5 22q-156 0 -258.5 -94.5t-102.5 -236.5z" />
    <glyph glyph-name="H" unicode="H" horiz-adv-x="786" 
d="M45 0v700q0 11 8 18t17 7h178q11 0 18 -8t7 -17v-263h240v263q0 11 8 18t17 7h178q11 0 18 -8t7 -17v-700q0 -11 -8 -18t-17 -7h-178q-11 0 -18 8t-7 17v247h-240v-247q0 -11 -8 -18t-17 -7h-178q-11 0 -18 8t-7 17zM95 25h128v247q0 9 7 17t18 8h290q9 0 17 -7t8 -18
v-247h128v650h-128v-263q0 -9 -7 -17t-18 -8h-290q-9 0 -17 7t-8 18v263h-128v-650z" />
    <glyph glyph-name="I" unicode="I" horiz-adv-x="318" 
d="M45 0v700q0 11 8 18t17 7h178q11 0 18 -8t7 -17v-700q0 -11 -8 -18t-17 -7h-178q-11 0 -18 8t-7 17zM95 25h128v650h-128v-650z" />
    <glyph glyph-name="J" unicode="J" horiz-adv-x="536" 
d="M-26 118l82 119q17 25 39 3q33 -34 68 -52t61 -18t38 13.5t12 47.5v470q0 11 8 18t17 7h179q11 0 18 -8t7 -17v-474q0 -121 -72.5 -190.5t-194.5 -69.5q-155 0 -260 121q-13 15 -2 30zM27 106q87 -89 209 -89q103 0 160 54.5t57 155.5v449h-129v-445q0 -50 -27 -80.5
t-73 -30.5q-69 0 -143 65z" />
    <glyph glyph-name="K" unicode="K" horiz-adv-x="747" 
d="M45 0v700q0 11 8 18t17 7h178q11 0 18 -8t7 -17v-237l224 254q8 8 19 8h206q2 0 5.5 -0.5t10.5 -3.5t11 -7t2.5 -12.5t-10.5 -18.5l-247 -275l266 -394q1 -2 2.5 -4.5t4 -9t1.5 -12t-8 -9.5t-21 -4h-213q-14 0 -21 11l-167 248l-65 -72v-162q0 -11 -8 -18t-17 -7h-178
q-11 0 -18 8t-7 17zM95 25h128v147q0 10 6 17l93 103q22 24 40 -3l177 -264h153l-251 371q-12 16 2 31l223 248h-139l-260 -295q-16 -15 -25.5 -11.5t-13.5 15.5l-5 13v278h-128v-650z" />
    <glyph glyph-name="L" unicode="L" horiz-adv-x="560" 
d="M45 0v700q0 11 8 18t17 7h178q11 0 18 -8t7 -17v-526h272q11 0 18 -8t7 -17v-149q0 -11 -8 -18t-17 -7h-475q-11 0 -18 8t-7 17zM95 25h425v99h-272q-9 0 -17 7t-8 18v526h-128v-650z" />
    <glyph glyph-name="M" unicode="M" horiz-adv-x="910" 
d="M45 0v701q0 11 8 18t17 7h195q17 0 23 -15l167 -367l167 367q7 15 23 15h194q11 0 18 -8t7 -17v-701q0 -11 -8 -18t-17 -7h-157q-10 0 -17.5 8t-7.5 17l-1 336l-120 -276q-7 -15 -23 -15h-116q-17 0 -23 15l-120 275v-335q0 -11 -8 -18t-17 -7h-159q-11 0 -18 8t-7 17z
M95 25h109v430q0 15 12 17.5t24 -2.5l12 -5l161 -370h84l161 370q8 13 18.5 11t19.5 -12l10 -9l1 -430h107v651h-153l-183 -402q-9 -20 -20.5 -20t-18.5 10l-7 10l-183 402h-154v-651z" />
    <glyph glyph-name="N" unicode="N" horiz-adv-x="786" 
d="M45 0v700q0 11 8 18t17 7h157q12 0 20 -10l278 -372v357q0 11 8 18t17 7h166q11 0 18 -8t7 -17v-700q0 -11 -8 -18t-17 -7h-157q-12 0 -20 10l-277 371v-356q0 -11 -8 -18t-17 -7h-167q-11 0 -18 8t-7 17zM95 25h117v406q0 20 11 24t23 -3l11 -6l315 -421h119v650h-116
v-407q0 -20 -11.5 -24t-22.5 2l-11 7l-316 422h-119v-650z" />
    <glyph glyph-name="O" unicode="O" horiz-adv-x="805" 
d="M-1 351q0 164 115.5 272t287.5 108t288 -108.5t116 -271.5q0 -164 -116 -274t-288 -110t-287.5 109.5t-115.5 274.5zM49 351q0 -143 100.5 -238.5t252.5 -95.5q153 0 253.5 95.5t100.5 238.5q0 142 -100.5 236t-253.5 94t-253 -94t-100 -236zM181 350q0 98 65.5 165
t157.5 67t155.5 -67t63.5 -165t-63.5 -166t-155.5 -68t-157.5 68t-65.5 166zM231 350q0 -78 51.5 -131t121.5 -53q71 0 120 52.5t49 131.5q0 78 -49 130t-120 52q-72 0 -122.5 -52t-50.5 -130z" />
    <glyph glyph-name="P" unicode="P" horiz-adv-x="680" 
d="M45 0v700q0 11 8 18t17 7h305q142 0 224.5 -71t82.5 -198q0 -133 -82 -208.5t-225 -75.5h-102v-172q0 -11 -8 -18t-17 -7h-178q-11 0 -18 8t-7 17zM95 25h128v172q0 9 7 17t18 8h127q125 0 191 60.5t66 173.5q0 106 -65 162.5t-192 56.5h-280v-650zM223 337v223q0 9 7 17
t18 8h118q67 0 107.5 -35.5t40.5 -99.5q0 -65 -40.5 -101.5t-107.5 -36.5h-118q-9 0 -17 7t-8 18zM273 362h93q51 0 74.5 21.5t23.5 66.5q0 44 -23.5 64.5t-74.5 20.5h-93v-173z" />
    <glyph glyph-name="Q" unicode="Q" horiz-adv-x="810" 
d="M-1 351q0 164 115.5 272t287.5 108t288 -108.5t116 -271.5q0 -112 -58 -203t-156 -139q22 -15 41 -15q42 0 105 48q23 17 37 -8l63 -110q10 -17 -5 -31q-44 -39 -103 -61t-117 -22q-76 0 -139.5 42.5t-101.5 115.5q-161 11 -267 118.5t-106 264.5zM49 351
q0 -140 96 -234.5t244 -99.5q16 0 22 -14q32 -68 85 -105.5t117 -37.5q94 0 171 58l-39 68q-65 -42 -112 -42q-60 0 -105 57q-10 15 -7.5 23.5t10.5 11.5l8 4q99 37 158 120.5t59 190.5q0 142 -100.5 236t-253.5 94t-253 -94t-100 -236zM181 350q0 98 65.5 165t157.5 67
t155.5 -67t63.5 -165t-63.5 -166t-155.5 -68t-157.5 68t-65.5 166zM231 350q0 -78 51.5 -131t121.5 -53q71 0 120 52.5t49 131.5q0 78 -49 130t-120 52q-72 0 -122.5 -52t-50.5 -130z" />
    <glyph glyph-name="R" unicode="R" horiz-adv-x="724" 
d="M45 0v700q0 11 8 18t17 7h313q147 0 231.5 -70.5t84.5 -198.5q0 -160 -117 -234l133 -209l1 -1q0 -1 1.5 -3.5t2.5 -5t2 -6t0.5 -6.5t-2 -6t-4.5 -5t-8.5 -3.5t-13.5 -1.5h-202q-15 0 -22 13l-97 184h-100v-172q0 -11 -8 -18t-17 -7h-178q-11 0 -18 8t-7 17zM95 25h128
v172q0 9 7 17t18 8h140q16 0 22 -13l97 -184h141l-122 193q-13 22 10 35q113 56 113 203q0 106 -67.5 162.5t-198.5 56.5h-288v-650zM223 337v223q0 9 7 17t18 8h135q67 0 107 -35t40 -100t-40.5 -101.5t-106.5 -36.5h-135q-9 0 -17 7t-8 18zM273 362h110q50 0 73.5 21.5
t23.5 66.5q0 44 -23.5 64.5t-73.5 20.5h-110v-173z" />
    <glyph glyph-name="S" unicode="S" horiz-adv-x="644" 
d="M-5 117l69 137l2 2q1 3 2 5t3.5 4.5t5.5 3.5t6.5 1.5t8.5 -1.5t10 -7q49 -43 118 -71t119 -28q66 0 66 36q0 18 -27.5 31t-68.5 20.5t-89 24.5t-89 40.5t-68.5 70.5t-27.5 111q0 109 85 172.5t219 63.5q164 0 290 -82q19 -12 9 -32l-67 -139q-5 -9 -14.5 -13t-21.5 2
q-53 30 -113 50t-98 20q-52 0 -52 -26q0 -15 20.5 -26t53 -19.5t72 -19t79 -28.5t72 -43t53 -68.5t20.5 -100.5q0 -114 -88 -176.5t-217 -62.5q-91 0 -180 31.5t-156 86.5q-15 12 -6 30zM49 113q59 -43 135 -68.5t153 -25.5q115 0 185 50.5t70 138.5q0 46 -20.5 79.5t-53 52
t-72 32t-79 24.5t-72 24t-53 36.5t-20.5 56.5q0 39 30 57.5t72 18.5q92 0 213 -63l46 94q-112 63 -244 63q-119 0 -186.5 -51t-67.5 -135q0 -52 27.5 -87.5t68.5 -51t89 -30.5t89 -26.5t68.5 -37.5t27.5 -65q0 -43 -33.5 -64.5t-82.5 -21.5q-55 0 -122 24.5t-123 66.5z" />
    <glyph glyph-name="T" unicode="T" horiz-adv-x="611" 
d="M-18 557v144q0 11 8 18t17 7h598q11 0 18 -8t7 -17v-144q0 -11 -8 -18t-17 -7h-186v-532q0 -11 -8 -18t-17 -7h-178q-11 0 -18 8t-7 17v532h-184q-11 0 -18 8t-7 17zM32 582h184q9 0 17 -7t8 -18v-532h128v532q0 9 7 17t18 8h186v94h-548v-94z" />
    <glyph glyph-name="U" unicode="U" horiz-adv-x="758" 
d="M33 294v406q0 11 8 18t17 7h178q11 0 18 -8t7 -17v-406q0 -61 33 -94.5t88 -33.5q54 0 85 33t31 95v406q0 11 8 18t17 7h177q11 0 18 -8t7 -17v-406q0 -149 -94 -238t-250 -89q-157 0 -252.5 89t-95.5 238zM83 294q0 -129 79.5 -203t218.5 -74q138 0 216 74t78 203v381
h-127v-381q0 -79 -46 -128.5t-120 -49.5t-122.5 49.5t-48.5 128.5v381h-128v-381z" />
    <glyph glyph-name="V" unicode="V" horiz-adv-x="729" 
d="M-24 691q-1 1 -2 3.5t-1.5 8.5t1 10.5t8 8t17.5 3.5h190q18 0 24 -17l155 -447l155 447q7 17 24 17h183h4t8.5 -1.5t9 -5t5 -10t-3.5 -17.5l-275 -700q-6 -16 -23 -16h-184q-16 0 -23 16zM36 675l252 -650h150l255 650h-128l-173 -498q-4 -12 -10.5 -16.5t-13 -2.5t-12 6
t-8.5 8l-4 5l-173 498h-135z" />
    <glyph glyph-name="W" unicode="W" horiz-adv-x="1081" 
d="M-25 692q-1 1 -1.5 3.5t-1 8t1.5 10t8 8t17 3.5h190q9 0 15.5 -6t8.5 -13l113 -423l110 423q5 19 24 19h174q9 0 15.5 -6t8.5 -13l113 -423l111 423q5 19 24 19h182h3.5t8.5 -1t8.5 -4.5t5.5 -10t-2 -17.5l-231 -700q-5 -17 -24 -17h-183q-9 0 -15.5 6t-8.5 13l-106 394
l-108 -395q-5 -18 -24 -18h-184q-18 0 -24 17zM33 675l213 -650h147l127 466q3 11 9 15t12.5 1.5t12.5 -6t10 -7.5l4 -4l125 -465h146l214 650h-128l-130 -496q-3 -11 -9 -14.5t-12.5 -1.5t-12.5 5.5t-10 7.5l-4 3l-132 496h-136l-129 -496q-3 -11 -9 -14.5t-12.5 -1.5
t-12.5 5.5t-10 7.5l-4 3l-132 496h-137z" />
    <glyph glyph-name="X" unicode="X" horiz-adv-x="734" 
d="M-15 14l240 344l-225 328q-1 2 -2.5 4.5t-4 9t-1.5 12t8 9.5t21 4h207q14 0 21 -11l114 -173l114 173q8 11 21 11h209h5t10 -2t11 -6t3.5 -12t-8.5 -19l-222 -320l242 -352q1 -2 2.5 -4.5t4 -9t1.5 -12t-8 -9.5t-21 -4h-213q-14 0 -21 11l-130 192l-130 -192
q-8 -11 -21 -11h-207h-5t-10 2t-10.5 6t-3 12t8.5 19zM53 25h146l143 212q10 15 20.5 15t15.5 -8l6 -7l143 -212h153l-225 327q-10 13 0 28l204 295h-148l-127 -193q-10 -16 -20.5 -16t-15.5 8l-6 8l-127 193h-147l208 -303q9 -12 -1 -28z" />
    <glyph glyph-name="Y" unicode="Y" horiz-adv-x="680" 
d="M-27 688q-1 2 -2.5 4t-3 8.5t-0.5 11.5t8 9t20 4h178q15 0 22 -13l147 -265l143 265q7 13 22 13h178q0 -1 4.5 0t9.5 -1t9.5 -5t4.5 -11.5t-6 -19.5l-251 -468v-220q0 -11 -8 -18t-17 -7h-177q-11 0 -18 8t-7 17v215zM37 675l239 -442q3 -5 3 -12v-196h127v201q0 6 3 12
l234 437h-121l-158 -292q-10 -19 -21 -19t-17 10l-6 9l-162 292h-121z" />
    <glyph glyph-name="Z" unicode="Z" horiz-adv-x="675" 
d="M3 0v114q0 10 6 16l340 404h-308q-11 0 -18 8t-7 17v141q0 11 8 18t17 7h599q11 0 18 -8t7 -17v-114q0 -10 -6 -16l-339 -404h326q11 0 18 -8t7 -17v-141q0 -11 -8 -18t-17 -7h-618q-11 0 -18 8t-7 17zM53 25h568v91h-355q-22 0 -27 10t1 20l7 11l368 438v80h-549v-91
h337q22 0 27 -10t-2 -20l-6 -11l-369 -438v-80z" />
    <glyph glyph-name="bracketleft" unicode="[" horiz-adv-x="362" 
d="M45 -124v866q0 11 8 18t17 7h274q11 0 18 -8t7 -17v-128q0 -11 -8 -18t-17 -7h-95v-560h95q11 0 18 -8t7 -17v-128q0 -11 -8 -18t-17 -7h-274q-11 0 -18 8t-7 17zM95 -99h224v78h-95q-9 0 -17 7t-8 18v610q0 9 7 17t18 8h95v78h-224v-816z" />
    <glyph glyph-name="backslash" unicode="\" horiz-adv-x="455" 
d="M-11 803q-1 1 -1.5 3.5t-1 8t1 10t8 8t17.5 3.5h145q18 0 24 -17l323 -922q1 -1 1.5 -3.5t1 -8t-1 -10t-8 -8t-17.5 -3.5h-145q-18 0 -24 17zM48 786l306 -872h92l-306 872h-92z" />
    <glyph glyph-name="bracketright" unicode="]" horiz-adv-x="433" 
d="M64 4q0 11 8 18t17 7h95v560h-95q-11 0 -18 8t-7 17v128q0 11 8 18t17 7h274q11 0 18 -8t7 -17v-866q0 -11 -8 -18t-17 -7h-274q-11 0 -18 8t-7 17v128zM114 -21v-78h224v816h-224v-78h95q9 0 17 -7t8 -18v-610q0 -9 -7 -17t-18 -8h-95z" />
    <glyph glyph-name="asciicircum" unicode="^" horiz-adv-x="575" 
d="M9 149l186 387q6 14 23 14h139q16 0 23 -14l185 -387q1 -1 2 -3.5t2.5 -9t0 -11t-8.5 -8.5t-19 -4h-122q-17 0 -23 15l-110 239l-110 -239q-7 -15 -23 -15h-122h-4.5t-9 1t-9.5 5t-5 11t5 19zM72 163h66l126 274q9 20 20.5 20t18.5 -10l7 -10l126 -274h66l-161 337h-107z
" />
    <glyph glyph-name="underscore" unicode="_" horiz-adv-x="583" 
d="M-25 -110q0 11 8 18t17 7h583q11 0 18 -8t7 -17v-94q0 -11 -8 -18t-17 -7h-583q-11 0 -18 8t-7 17v94zM25 -135v-44h533v44h-533z" />
    <glyph glyph-name="grave" unicode="`" 
d="M25 694q-1 1 -3.5 3t-6 7.5t-4.5 11t4.5 11.5t17.5 10l156 55q17 6 29 -11l106 -168v-1q1 -1 2.5 -3.5t2.5 -5t2 -6t0.5 -6.5t-2 -6t-4.5 -5t-8.5 -3.5t-13.5 -1.5h-132q-10 0 -16 6zM90 704l90 -79h78l-71 113z" />
    <glyph glyph-name="a" unicode="a" horiz-adv-x="600" 
d="M2 161q0 88 62 137.5t170 50.5h115q-10 43 -78 43q-69 0 -150 -42q-8 -5 -18.5 -2t-15.5 14l-49 114q-4 9 -0.5 19t12.5 14q135 63 261 63q119 0 189 -58.5t71 -161.5v-352q0 -11 -8 -18t-17 -7h-169q-11 0 -18 8t-7 17v5q-58 -38 -140 -38q-94 0 -152 54t-58 140z
M52 161q0 -65 42 -104.5t118 -39.5q99 0 145 60q14 16 24 12.5t15 -15.5l6 -12v-37h119v327q-1 81 -54 125.5t-156 44.5q-105 0 -217 -49l29 -67q80 36 148 36q60 0 95 -29.5t35 -80.5v-8q0 -9 -7 -17t-18 -8h-142q-182 -1 -182 -138zM164 173q0 42 28.5 62.5t74.5 20.5h109
q9 0 17 -7t8 -18v-48q0 -1 -0.5 -3t-0.5 -3q-11 -42 -49 -67.5t-86 -25.5q-44 0 -72.5 24.5t-28.5 64.5zM214 173q0 -39 51 -39q32 0 55.5 15t30.5 37v20h-84q-32 0 -42.5 -7.5t-10.5 -25.5z" />
    <glyph glyph-name="b" unicode="b" horiz-adv-x="685" 
d="M49 0v742q0 11 8 18t17 7h173q11 0 18 -8t7 -17v-215q58 43 136 43q125 0 201.5 -84.5t76.5 -218.5q0 -132 -75 -215t-199 -83q-82 0 -140 43v-12q0 -11 -8 -18t-17 -7h-173q-11 0 -18 8t-7 17zM99 25h123v47q0 20 11 24t23 -2l11 -7q51 -68 145 -68q102 0 163 67t61 181
q0 116 -62.5 184.5t-165.5 68.5q-90 0 -141 -67q-14 -16 -24 -12.5t-15 15.5l-6 12v249h-123v-692zM222 272q0 70 40 117.5t104 47.5q65 0 105.5 -47.5t40.5 -117.5q0 -71 -40.5 -118.5t-105.5 -47.5q-64 0 -104 47t-40 119zM272 272q0 -54 26.5 -85t67.5 -31q43 0 69.5 31
t26.5 85q0 53 -26.5 84t-69.5 31q-41 0 -67.5 -31t-26.5 -84z" />
    <glyph glyph-name="c" unicode="c" horiz-adv-x="562" 
d="M-1 268q0 134 85 218t220 84q86 0 154 -34.5t107 -98.5q5 -9 3 -19t-11 -15l-124 -75q-8 -5 -18 -3.5t-15 9.5q-33 46 -89 46q-39 0 -63.5 -29.5t-24.5 -81.5q0 -54 24.5 -83t63.5 -29q62 0 88 48q13 22 35 10l126 -74q20 -12 9 -34q-37 -66 -106.5 -102t-160.5 -36
q-134 0 -218.5 83t-84.5 216zM49 268q0 -113 69 -181t184 -68q142 0 210 92l-83 49q-44 -53 -118 -53q-62 0 -100 46t-38 116q0 69 38 115t100 46q69 0 115 -48l82 50q-70 88 -204 88q-116 0 -185.5 -68.5t-69.5 -183.5z" />
    <glyph glyph-name="d" unicode="d" horiz-adv-x="686" 
d="M0 272q0 133 75.5 216t197.5 83q81 0 141 -44v215q0 11 8 18t17 7h173q11 0 18 -8t7 -17v-742q0 -11 -8 -18t-17 -7h-173q-11 0 -18 8t-7 17v11q-58 -43 -137 -43q-124 0 -200.5 85t-76.5 219zM50 272q0 -117 62 -185.5t165 -68.5q91 0 142 68q14 16 24 12.5t15 -15.5
l6 -12v-46h123v692h-123v-249q0 -20 -11 -24t-23 2l-11 7q-51 68 -146 68q-101 0 -162 -67t-61 -182zM173 268q1 71 41 118t105 47t105 -47t40 -118t-40 -118.5t-105 -47.5t-105 47.5t-41 118.5zM223 268q1 -54 27.5 -85t68.5 -31t68.5 31t26.5 85t-26 84.5t-69 30.5
t-69 -30.5t-27 -84.5z" />
    <glyph glyph-name="e" unicode="e" horiz-adv-x="602" 
d="M-1 268q0 135 85.5 218.5t220.5 83.5q5 0 13 -0.5t12 -0.5q139 -8 210 -102.5t62 -245.5q-1 -10 -8.5 -16.5t-16.5 -6.5h-108l2 -2l91 -89q7 -7 7.5 -17.5t-6.5 -17.5q-94 -103 -253 -103q-140 0 -225.5 83t-85.5 216zM49 268q0 -114 69.5 -181.5t191.5 -67.5
q121 0 199 70l-56 55q-57 -46 -128 -46q-56 0 -96 31.5t-55 87.5q-4 14 2.5 22t11.5 8.5t10 0.5h355q2 131 -60.5 201.5t-187.5 70.5q-116 0 -186 -68.5t-70 -183.5zM170 320q9 57 45.5 93.5t91.5 36.5q57 0 93 -37.5t36 -96.5q0 -9 -7 -17t-18 -8h-216q-29 0 -25 29z
M228 341h155q-14 59 -76 59q-57 0 -79 -59zM235 198q29 -50 90 -50q63 0 111 48l1 1q1 1 2 1h-204z" />
    <glyph glyph-name="f" unicode="f" horiz-adv-x="386" 
d="M3 401v114q0 11 8 18t17 7h48v25q0 98 66 154t165 56q94 0 164 -41q9 -5 11 -15.5t-2 -17.5l-61 -121q-12 -27 -37 -9q-23 17 -48 17q-37 1 -37 -34v-14h97q11 0 18 -8t7 -17v-114q0 -11 -8 -18t-17 -7h-97v-376q0 -11 -8 -18t-17 -7h-171q-11 0 -18 8t-7 17v376h-48
q-11 0 -18 8t-7 17zM53 426h48q9 0 17 -7t8 -18v-376h121v376q0 9 7 17t18 8h97v64h-97q-9 0 -17 7t-8 18v39q0 39 25 62t62 22q26 0 53 -12l37 75q-54 24 -117 24q-81 0 -131 -42t-50 -118v-50q0 -9 -7 -17t-18 -8h-48v-64z" />
    <glyph glyph-name="g" unicode="g" horiz-adv-x="647" 
d="M0 290q0 123 70.5 201.5t182.5 78.5q76 1 134 -39v8q0 11 8 18t17 7h172q11 0 18 -8t7 -17v-490q0 -125 -89 -200t-228 -75q-143 0 -254 75q-18 12 -8 32l60 117q14 26 36 10q73 -50 153 -50q53 0 80 22.5t28 61.5q-54 -38 -130 -38q-113 0 -185 80t-72 206zM50 290
q0 -108 57.5 -172t149.5 -64q89 0 135 62q14 16 24 12.5t16 -15.5l5 -12v-57q0 -62 -44 -99t-114 -37q-83 0 -157 43l-37 -72q95 -55 207 -55q123 0 195 61t72 164v465h-122v-41q0 -20 -11.5 -24t-22.5 3l-11 6q-48 63 -139 62q-91 0 -147 -62.5t-56 -167.5zM161 285
q0 67 38.5 112t100.5 45q61 0 99 -44.5t38 -112.5q0 -67 -38 -111.5t-99 -44.5q-62 0 -100.5 44.5t-38.5 111.5zM211 285q0 -49 24.5 -77.5t64.5 -28.5q39 0 63 28.5t24 77.5q0 51 -24 79t-63 28q-40 0 -64.5 -28.5t-24.5 -78.5z" />
    <glyph glyph-name="h" unicode="h" horiz-adv-x="678" 
d="M49 0v742q0 11 8 18t17 7h173q11 0 18 -8t7 -17v-224q61 52 156 54q100 0 161 -64t61 -168v-340q0 -11 -8 -18t-17 -7h-173q-11 0 -18 8t-7 17v292q0 77 -70 77q-39 0 -62 -27.5t-23 -75.5v-266q0 -11 -8 -18t-17 -7h-173q-11 0 -18 8t-7 17zM99 25h123v241
q0 65 36.5 109t98.5 44q54 0 87 -35.5t33 -91.5v-267h123v315q0 85 -46.5 133.5t-125.5 48.5q-111 -2 -160 -85q-11 -15 -21 -12t-17 14l-8 11v267h-123v-692z" />
    <glyph glyph-name="i" unicode="i" horiz-adv-x="311" 
d="M40 694q0 50 33 83t83 33t83 -33t33 -83t-33 -83.5t-83 -33.5t-83 33.5t-33 83.5zM44 0v539q0 11 8 18t17 7h172q11 0 18 -8t7 -17v-539q0 -11 -8 -18t-17 -7h-172q-11 0 -18 8t-7 17zM90 694q0 -31 18 -49t48 -18t48 18t18 49q0 30 -18 48t-48 18t-48 -18t-18 -48z
M94 25h122v489h-122v-489z" />
    <glyph glyph-name="j" unicode="j" horiz-adv-x="319" 
d="M-110 -157l44 121q2 5 5 9t11.5 7.5t19.5 -4.5q26 -15 48 -15q15 -1 21.5 6t6.5 28v544q0 11 8 18t17 7h173q11 0 18 -8t7 -17v-555q0 -98 -63.5 -154.5t-157.5 -55.5q-85 0 -148 39q-17 10 -10 30zM-56 -154q46 -22 104 -22q77 -1 124 41t47 119v530h-123v-519
q0 -38 -21.5 -61.5t-56.5 -22.5q-23 0 -47 9zM34 693q0 51 35.5 84t87.5 33q53 0 88 -33t35 -84t-35 -83.5t-88 -32.5q-52 0 -87.5 33t-35.5 83zM84 693q0 -29 20 -47.5t53 -18.5q34 0 53.5 18.5t19.5 47.5q0 30 -19.5 48.5t-53.5 18.5q-33 0 -53 -18.5t-20 -48.5z" />
    <glyph glyph-name="k" unicode="k" horiz-adv-x="630" 
d="M49 0v742q0 11 8 18t17 7h173q11 0 18 -8t7 -17v-329l135 143q8 8 18 8h196q2 0 5.5 -0.5t10.5 -3.5t10.5 -7.5t2.5 -12.5t-11 -18l-185 -193l194 -316v-1q1 -1 2.5 -3.5t2.5 -5t2 -6t0.5 -6.5t-2 -6t-4.5 -5t-8.5 -3.5t-13.5 -1.5h-205q-15 0 -22 13l-100 178l-28 -29
v-137q0 -11 -8 -18t-17 -7h-173q-11 0 -18 8t-7 17zM99 25h123v122q0 10 7 17l58 61q11 14 21 10.5t13.5 -7.5t5.5 -8l110 -195h145l-180 294q-10 16 3 30l157 165h-126l-171 -181q-16 -15 -25.5 -11t-13.5 16l-4 12v367h-123v-692z" />
    <glyph glyph-name="l" unicode="l" horiz-adv-x="321" 
d="M49 0v742q0 11 8 18t17 7h173q11 0 18 -8t7 -17v-742q0 -11 -8 -18t-17 -7h-173q-11 0 -18 8t-7 17zM99 25h123v692h-123v-692z" />
    <glyph glyph-name="m" unicode="m" horiz-adv-x="1037" 
d="M44 0v539q0 11 8 18t17 7h172q11 0 18 -8t7 -17v-20q62 51 153 53q121 0 181 -93q65 91 189 93q99 0 159 -64.5t60 -167.5v-340q0 -11 -8 -18t-17 -7h-172q-11 0 -18 8t-7 17v292q0 78 -68 78q-37 -2 -58.5 -29t-21.5 -74v-267q0 -11 -8 -18t-17 -7h-173q-11 0 -18 8
t-7 17v292q0 78 -67 78q-38 -2 -60 -29t-22 -74v-267q0 -11 -8 -18t-17 -7h-172q-11 0 -18 8t-7 17zM94 25h122v242q0 64 35.5 107.5t96.5 45.5q54 0 85.5 -35.5t31.5 -92.5v-267h123v242q0 64 35 107.5t95 45.5q53 0 85.5 -35.5t32.5 -92.5v-267h122v315q0 86 -45 134
t-124 48q-121 -1 -167 -107q-10 -19 -20.5 -19t-18.5 10l-8 11q-37 105 -156 105q-108 -2 -156 -85q-11 -15 -21.5 -12t-17.5 14l-8 11v64h-122v-489z" />
    <glyph glyph-name="n" unicode="n" horiz-adv-x="673" 
d="M44 0v539q0 11 8 18t17 7h173q11 0 18 -8t7 -17v-20q60 51 155 53q100 0 161 -64t61 -168v-340q0 -11 -8 -18t-17 -7h-172q-11 0 -18 8t-7 17v292q0 77 -70 77q-36 0 -58 -22.5t-27 -62.5v-284q0 -11 -8 -18t-17 -7h-173q-11 0 -18 8t-7 17zM94 25h123v260v3q6 57 42 94
t93 37q54 0 87 -35.5t33 -91.5v-267h122v315q0 85 -46.5 133.5t-125.5 48.5q-110 -2 -159 -84q-11 -15 -21 -12t-18 14l-7 11v63h-123v-489z" />
    <glyph glyph-name="o" unicode="o" horiz-adv-x="637" 
d="M-1 270q0 134 89 217t231 83q141 0 230 -83t89 -217q0 -135 -89 -218t-230 -83q-142 0 -231 83t-89 218zM49 270q0 -114 73.5 -182.5t196.5 -68.5t196 68.5t73 182.5t-73 182t-196 68q-124 0 -197 -68t-73 -182zM173 268q0 71 40.5 118t105.5 47q64 0 104.5 -47
t40.5 -118t-40.5 -118t-104.5 -47q-65 0 -105.5 47t-40.5 118zM223 268q0 -54 26.5 -84.5t69.5 -30.5q42 0 68.5 30.5t26.5 84.5t-26.5 84.5t-68.5 30.5q-43 0 -69.5 -30.5t-26.5 -84.5z" />
    <glyph glyph-name="p" unicode="p" horiz-adv-x="685" 
d="M49 -194v733q0 11 8 18t17 7h173q11 0 18 -8t7 -17v-12q58 43 136 43q125 0 201.5 -84.5t76.5 -218.5q0 -132 -75 -215t-199 -83q-82 0 -140 43v-206q0 -11 -8 -18t-17 -7h-173q-11 0 -18 8t-7 17zM99 -169h123v241q0 20 11 24t23 -2l11 -7q51 -68 145 -68q102 0 163 67
t61 181q0 116 -62.5 184.5t-165.5 68.5q-90 0 -141 -67q-14 -16 -24 -12.5t-15 15.5l-6 12v46h-123v-683zM222 272q0 70 40 117.5t104 47.5q65 0 105.5 -47.5t40.5 -117.5q0 -71 -40.5 -118.5t-105.5 -47.5q-64 0 -104 47t-40 119zM272 272q0 -54 26.5 -85t67.5 -31
q43 0 69.5 31t26.5 85q0 53 -26.5 84t-69.5 31q-41 0 -67.5 -31t-26.5 -84z" />
    <glyph glyph-name="q" unicode="q" horiz-adv-x="686" 
d="M0 272q0 133 75.5 216t197.5 83q81 0 141 -44v12q0 11 8 18t17 7h173q11 0 18 -8t7 -17v-733q0 -11 -8 -18t-17 -7h-173q-11 0 -18 8t-7 17v205q-58 -43 -137 -43q-124 0 -200.5 85t-76.5 219zM50 272q0 -117 62 -185.5t165 -68.5q91 0 142 68q14 16 24 12.5t15 -15.5
l6 -12v-240h123v683h-123v-46q0 -20 -11 -24t-23 2l-11 7q-51 68 -146 68q-101 0 -162 -67t-61 -182zM173 268q1 71 41 118t105 47t105 -47t40 -118t-40 -118.5t-105 -47.5t-105 47.5t-41 118.5zM223 268q1 -54 27.5 -85t68.5 -31t68.5 31t26.5 85t-26 84.5t-69 30.5
t-69 -30.5t-27 -84.5z" />
    <glyph glyph-name="r" unicode="r" horiz-adv-x="427" 
d="M44 0v539q0 11 8 18t17 7h173q11 0 18 -8t7 -17v-22q61 53 150 55q10 0 17.5 -7.5t7.5 -17.5v-156q0 -10 -6.5 -18t-20.5 -7q-66 6 -104 -19.5t-44 -71.5v-275q0 -11 -8 -18t-17 -7h-173q-11 0 -18 8t-7 17zM94 25h123v252v3q7 63 55 99.5t120 37.5v103q-84 -10 -128 -85
q-11 -15 -21.5 -12t-18.5 14l-7 11v66h-123v-489z" />
    <glyph glyph-name="s" unicode="s" horiz-adv-x="513" 
d="M-6 80l55 110q4 9 12.5 13t23.5 -4q88 -62 177 -62q34 0 34 12q0 8 -28.5 15t-69.5 18.5t-82 31t-69.5 61.5t-28.5 101q0 93 69.5 144.5t174.5 51.5q126 0 235 -64q9 -5 11.5 -15.5t-2.5 -18.5l-59 -112q-5 -9 -15 -12t-19 2q-94 51 -158 51q-28 0 -28 -12q0 -7 29 -13.5
t71 -18t83.5 -31t70.5 -62t29 -101.5q0 -93 -72 -145t-180 -52q-152 0 -257 81q-17 13 -7 31zM48 77q88 -59 210 -59q93 0 147.5 39t54.5 108q0 46 -29 75t-70.5 42t-83.5 24t-71 31.5t-29 53.5q0 32 23.5 47t54.5 15q66 0 159 -45l36 68q-89 46 -188 46q-89 0 -141.5 -39
t-52.5 -107q0 -46 28.5 -74.5t69.5 -41.5t82 -24t69.5 -32t28.5 -55q0 -33 -25.5 -47.5t-58.5 -14.5q-89 0 -181 56z" />
    <glyph glyph-name="t" unicode="t" horiz-adv-x="435" 
d="M-6 401v113q0 11 8 18t17 7h50v125q0 11 8 18t17 7h172q11 0 18 -8t7 -17v-124h116q11 0 18 -8t7 -17v-114q0 -11 -8 -18t-17 -7h-116v-186q0 -23 5 -29t20 -5q21 0 57 16q6 5 18 1.5t16 -17.5l34 -120q5 -19 -11 -29q-68 -40 -157 -40t-146.5 52t-57.5 144v213h-50
q-11 0 -18 8t-7 17zM44 426h50q9 0 17 -7t8 -18v-238q0 -71 41.5 -108.5t112.5 -37.5q61 0 114 25l-21 74q-28 -10 -50 -10q-34 -1 -54.5 22t-20.5 62v211q0 9 7 17t18 8h116v64h-116q-9 0 -17 7t-8 18v124h-122v-125q0 -9 -7 -17t-18 -8h-50v-63z" />
    <glyph glyph-name="u" unicode="u" horiz-adv-x="663" 
d="M28 199v340q0 11 8 18t17 7h173q11 0 18 -8t7 -17v-291q0 -78 65 -78q37 1 58.5 28t21.5 75v266q0 11 8 18t17 7h173q11 0 18 -8t7 -17v-539q0 -11 -8 -18t-17 -7h-173q-11 0 -18 8t-7 17v19q-60 -51 -150 -51q-98 0 -158 63.5t-60 167.5zM78 199q0 -85 45 -133t123 -48
q105 0 153 84q11 15 21.5 12t17.5 -14l8 -11v-64h123v489h-123v-241q0 -64 -34.5 -108t-95.5 -45q-52 0 -83.5 36t-31.5 92v266h-123v-315z" />
    <glyph glyph-name="v" unicode="v" horiz-adv-x="571" 
d="M-28 530q-1 1 -2 3.5t-1.5 8.5t1 10.5t8 8t17.5 3.5h178q19 0 24 -18l92 -303l93 303q5 18 24 18h172h4t8 -1.5t9 -5t5 -10t-3 -17.5l-203 -539q-6 -16 -23 -16h-177q-16 0 -23 16zM31 514l184 -489h143l184 489h-118l-111 -363q-4 -12 -10 -16t-12.5 -2t-12.5 6t-10 8
l-3 4l-111 363h-123z" />
    <glyph glyph-name="w" unicode="w" horiz-adv-x="937" 
d="M-28 530q-1 1 -1.5 3.5t-1.5 8.5t0.5 10.5t8 8t17.5 3.5h176q19 0 24 -18l87 -291l84 291q5 18 24 18h165q19 0 24 -18l87 -292l85 292q5 18 24 18h169h4t8 -1.5t9 -5t5 -10t-3 -17.5l-197 -539q-6 -16 -23 -16h-171q-19 0 -24 18l-82 265l-82 -265q-5 -18 -24 -18h-172
q-17 0 -23 16zM31 514l178 -489h137l100 324q4 12 10 16t12.5 2t12.5 -6t9 -8l4 -4l100 -324h136l178 489h-114l-104 -355q-3 -11 -9.5 -15.5t-13 -2.5t-12 6t-9.5 8l-4 4l-106 355h-127l-103 -355q-3 -11 -9.5 -15.5t-13 -2.5t-12 6t-9.5 8l-4 4l-106 355h-121z" />
    <glyph glyph-name="x" unicode="x" horiz-adv-x="606" 
d="M-17 14l175 262l-163 249q-1 2 -2.5 4.5t-3.5 9t-1 12t8 9.5t20 4h198q14 0 22 -12l69 -119l74 119q9 12 21 12h189h5t9.5 -2t10.5 -6t3.5 -12t-7.5 -19l-162 -248l174 -263q1 -2 2.5 -4.5t3.5 -9t1 -12t-8 -9.5t-20 -4h-199q-14 0 -22 12l-77 134l-88 -135
q-8 -11 -21 -11h-190h-5t-10 2t-10.5 6t-3.5 12t8 19zM51 25h129l103 158q12 16 21.5 16t15.5 -9l6 -8l90 -157h139l-158 238q-10 14 0 28l146 223h-129l-89 -143q-11 -17 -21.5 -17t-15.5 8l-6 9l-82 143h-138l147 -224q10 -14 0 -28z" />
    <glyph glyph-name="y" unicode="y" horiz-adv-x="580" 
d="M-35 529q-1 1 -2 3.5t-2 8.5t0.5 10.5t8 8.5t18.5 4h178q17 0 23 -16l108 -291l94 290q5 17 24 17h172h4t8.5 -1.5t9 -5t5 -10t-3.5 -17.5l-233 -595q-66 -162 -231 -162q-94 0 -172 60q-17 14 -6 33l72 118q5 9 14 12t23 -5q31 -24 55 -24q31 0 44 29l9 17zM22 -140
q55 -37 124 -37q132 0 185 130l219 561h-117l-111 -341q-4 -12 -10 -17t-12.5 -2.5t-12 6.5t-9.5 8l-3 4l-126 342h-123l209 -492q5 -10 0 -21l-13 -27q-28 -57 -90 -57q-32 0 -64 18z" />
    <glyph glyph-name="z" unicode="z" horiz-adv-x="553" 
d="M9 0v104q0 10 6 16l229 264h-200q-11 0 -18 8t-7 17v130q0 11 8 18t17 7h471q11 0 18 -8t7 -17v-104q0 -10 -6 -16l-228 -264h218q11 0 18 -8t7 -17v-130q0 -11 -8 -18t-17 -7h-490q-11 0 -18 8t-7 17zM59 25h440v80h-248q-22 0 -26.5 10.5t1.5 20.5l6 10l258 298v70
h-421v-80h230q22 0 26.5 -10t-1.5 -20l-6 -11l-259 -298v-70z" />
    <glyph glyph-name="braceleft" unicode="{" horiz-adv-x="356" 
d="M-1 243v132q0 11 8 18t17 7h39l10 1q2 2 2 17v186q0 87 48 125.5t152 38.5h67q11 0 18 -8t7 -17v-127q0 -11 -8 -18t-17 -7q-45 0 -54 -7t-9 -33v-122q0 -85 -47 -120q47 -35 47 -121v-121q0 -26 9 -33t54 -7q11 0 18 -8t7 -17v-128q0 -11 -8 -18t-17 -7h-67
q-104 0 -152 39t-48 126v185l-3 18q-3 1 -9 1h-39q-11 0 -18 8t-7 17zM49 268h14q27 0 42 -14q20 -18 20 -55v-185q0 -68 29.5 -91.5t120.5 -23.5h42v79q-88 8 -88 89v121q0 49 -13.5 68.5t-51.5 28.5q-16 4 -16 16t8 23l8 10q38 8 51.5 27.5t13.5 67.5v122q0 82 88 89v78
h-42q-91 0 -120.5 -23.5t-29.5 -90.5v-186q0 -37 -19 -54q-17 -14 -43 -14h-14v-82z" />
    <glyph glyph-name="bar" unicode="|" horiz-adv-x="299" 
d="M60 -110v913q0 11 8 18t17 7h129q11 0 18 -8t7 -17v-913q0 -11 -8 -18t-17 -7h-129q-11 0 -18 8t-7 17zM110 -85h79v863h-79v-863z" />
    <glyph glyph-name="braceright" unicode="}" horiz-adv-x="391" 
d="M42 2q0 11 8 18t17 7q44 0 53.5 7t9.5 33v121q0 86 46 120q-46 34 -46 121v122q0 26 -9.5 33t-53.5 7q-11 0 -18 8t-7 17v127q0 11 8 18t17 7h66q104 0 152 -38.5t48 -125.5v-186l2 -17l1 -1h4.5h5.5h38q11 0 18 -8t7 -17v-132q0 -11 -8 -18t-17 -7h-38l-10 -1
q-3 -5 -3 -18v-185q0 -87 -48 -126t-152 -39h-66q-11 0 -18 8t-7 17v128zM92 -22v-79h41q91 0 120.5 23.5t29.5 91.5v185q0 38 19 55q17 14 44 14h13v82h-13q-29 0 -44 14q-19 17 -19 54v186q0 67 -29.5 90.5t-120.5 23.5h-41v-78q88 -7 88 -89v-122q0 -49 13 -68.5
t52 -28.5q15 -5 15 -16t-8 -22l-8 -10q-38 -8 -51 -27.5t-13 -68.5v-121q0 -82 -88 -89z" />
    <glyph glyph-name="asciitilde" unicode="~" horiz-adv-x="510" 
d="M31 242q0 92 34.5 143.5t103.5 51.5q34 0 66 -12.5t50.5 -25.5t20.5 -13h1h2.5t1.5 1t1.5 3t1 6.5t0.5 10.5q0 11 8 18t17 7h115q11 0 18 -8t7 -17q0 -92 -34 -143.5t-104 -51.5q-35 0 -66.5 13t-50 25.5t-20.5 12.5h-3q-4 -6 -4 -21q0 -11 -8 -18t-17 -7h-116
q-11 0 -18 8t-7 17zM82 267h67q6 24 23 36q14 10 32 10q28 0 68 -25.5t69 -25.5q41 0 62 27t25 93h-67q-11 -46 -55 -46q-27 0 -68 25.5t-69 25.5q-42 0 -62.5 -26.5t-24.5 -93.5z" />
    <glyph glyph-name="nbspace" unicode="&#xa0;" horiz-adv-x="232" 
 />
    <glyph glyph-name="exclamdown" unicode="&#xa1;" horiz-adv-x="254" 
d="M26 21v3l30 277q1 9 8.5 15.5t16.5 6.5h104q9 0 16.5 -6.5t8.5 -15.5l30 -277v-3v-179q0 -11 -8 -18t-17 -7h-164q-11 0 -18 8t-7 17v179zM27 462q0 47 31 78.5t78 31.5q46 0 77 -31.5t31 -78.5q0 -46 -31 -77t-77 -31q-47 0 -78 30.5t-31 77.5zM76 20v-153h114v153
l-27 253h-60zM77 462q0 -27 15.5 -42.5t43.5 -15.5q26 0 42 15.5t16 42.5t-16 43.5t-42 16.5q-28 0 -43.5 -16t-15.5 -44z" />
    <glyph glyph-name="cent" unicode="&#xa2;" horiz-adv-x="559" 
d="M-1 268q0 111 59.5 189t159.5 103v139q0 11 8 18t17 7h134q11 0 18 -8t7 -17v-141q109 -31 163 -121q5 -9 3 -19t-11 -15l-124 -75q-8 -5 -18 -3.5t-15 9.5q-33 46 -89 46q-39 0 -63.5 -29.5t-24.5 -81.5q0 -54 24.5 -83t63.5 -29q62 0 88 48q13 22 35 10l126 -74
q20 -12 9 -34q-54 -95 -167 -126v-135q0 -11 -8 -18t-17 -7h-134q-11 0 -18 8t-7 17v133q-102 25 -160.5 102t-58.5 187zM49 268q0 -99 53 -163.5t145 -80.5q21 -4 21 -25v-128h84v130q0 21 20 24q90 19 140 86l-83 49q-44 -53 -118 -53q-62 0 -100 46t-38 116q0 69 38 115
t100 46q69 0 115 -48l82 50q-49 62 -136 82q-20 4 -20 24v136h-84v-134q0 -8 -6 -16t-15 -9q-92 -17 -145 -82t-53 -165z" />
    <glyph glyph-name="sterling" unicode="&#xa3;" horiz-adv-x="557" 
d="M3 0v134q0 11 8 18t17 7h51v97h-51q-11 0 -18 8t-7 17v118q0 11 8 18t17 7h51v50q0 121 70 190t193 69q138 0 231 -93q13 -13 4 -29l-67 -130q-1 -1 -2 -3.5t-4.5 -6.5t-8 -6t-11 0t-14.5 10q-56 59 -109 59q-28 0 -40.5 -14t-12.5 -50v-46h142q11 0 18 -8t7 -17v-118
q0 -11 -8 -18t-17 -7h-142v-97h233q11 0 18 -8t7 -17v-134q0 -11 -8 -18t-17 -7h-513q-11 0 -18 8t-7 17zM53 25h463v84h-233q-9 0 -17 7t-8 18v147q0 9 7 17t18 8h142v68h-142q-9 0 -17 7t-8 18v71q0 52 27.5 83t75.5 31q59 0 120 -51l43 84q-75 66 -182 66
q-104 0 -158.5 -53.5t-54.5 -155.5v-75q0 -9 -7 -17t-18 -8h-51v-68h51q9 0 17 -7t8 -18v-147q0 -9 -7 -17t-18 -8h-51v-84z" />
    <glyph glyph-name="currency" unicode="&#xa4;" horiz-adv-x="701" 
d="M6 70q-8 9 -7.5 19t7.5 17l89 88q-30 60 -30 127q0 66 28 122l-87 86q-8 7 -8 18t8 18l97 97q9 8 19 7.5t17 -7.5l86 -86q60 29 125 29q66 0 127 -29l85 86q8 8 18 8t18 -8l97 -97q8 -9 7.5 -19t-7.5 -17l-86 -85q28 -56 28 -123t-31 -127l89 -88q8 -9 7.5 -19t-7.5 -17
l-97 -97q-8 -7 -18 -7t-18 7l-90 92q-59 -27 -122 -27q-61 0 -120 27l-91 -92q-9 -8 -19 -7.5t-17 7.5zM59 88l62 -62l86 87q13 13 30 4q55 -29 113 -29q59 0 115 29q17 9 30 -4l85 -87l62 62l-85 84q-13 14 -3 31q33 53 33 118t-30 114q-10 18 3 31l82 81l-62 62l-80 -82
q-14 -14 -30 -4q-58 32 -120 32q-63 0 -117 -32q-17 -10 -31 4l-81 82l-62 -62l83 -81q14 -14 3 -31q-30 -49 -30 -114q0 -66 32 -118q10 -18 -3 -31zM200 321q0 62 44 106t106 44t107 -44t45 -106t-44.5 -105t-107.5 -43q-62 0 -106 43.5t-44 104.5zM250 321
q0 -41 29 -69.5t71 -28.5t72 29t30 69q0 41 -29.5 70.5t-72.5 29.5q-41 0 -70.5 -29.5t-29.5 -70.5z" />
    <glyph glyph-name="yen" unicode="&#xa5;" horiz-adv-x="665" 
d="M-27 689q-1 2 -2.5 4t-3 8.5t-0.5 11.5t8 9t20 4h178q15 0 22 -13l147 -267l143 267q7 13 22 13h178q0 -1 4.5 0t9.5 -1t9.5 -5t4.5 -11.5t-6 -19.5l-174 -325h73q11 0 18 -8t7 -17v-65q0 -11 -8 -18t-17 -7h-135l-8 -15h143q11 0 18 -8t7 -17v-66q0 -11 -8 -18t-17 -7
h-150v-118q0 -11 -8 -18t-17 -7h-177q-11 0 -18 8t-7 17v118h-160q-11 0 -18 8t-7 17v66q0 11 8 18t17 7h150l-8 15h-142q-11 0 -18 8t-7 17v65q0 11 8 18t17 7h80zM37 676l176 -325q9 -20 4 -28t-15 -9h-11h-97v-15h132q16 0 22 -13l28 -52q3 -4 3 -12v-13q0 -9 -7 -17
t-18 -8h-160v-16h160q9 0 17 -7t8 -18v-118h127v118q0 9 7 17t18 8h150v16h-150q-9 0 -17 7t-8 18v18q0 6 3 12l25 47q7 13 22 13h125v15h-90q-20 0 -25.5 9t-1.5 19l5 9l174 325h-121l-158 -294q-10 -19 -21 -19t-17 9l-6 10l-162 294h-121z" />
    <glyph glyph-name="brokenbar" unicode="&#xa6;" horiz-adv-x="299" 
d="M60 -110v343q0 11 8 18t17 7h129q11 0 18 -8t7 -17v-343q0 -11 -8 -18t-17 -7h-129q-11 0 -18 8t-7 17zM60 461v342q0 11 8 18t17 7h129q11 0 18 -8t7 -17v-342q0 -11 -8 -18t-17 -7h-129q-11 0 -18 8t-7 17zM110 -85h79v293h-79v-293zM110 486h79v292h-79v-292z" />
    <glyph glyph-name="section" unicode="&#xa7;" horiz-adv-x="545" 
d="M-7 -1l49 107q12 28 37 11q94 -64 178 -64q19 0 30 3.5t13 7.5l2 3q0 9 -30.5 18t-73.5 22t-86.5 33t-74 61.5t-30.5 98.5q0 86 79 135q-46 38 -46 100q0 83 68 133.5t174 50.5q122 0 235 -64q20 -12 10 -33l-52 -106q-5 -9 -14.5 -12.5t-19.5 1.5q-96 50 -157 50
q-39 0 -39 -13q0 -10 31 -19t75 -22t88 -33t75 -62t31 -99q0 -84 -76 -136q42 -38 42 -99q0 -83 -70.5 -134t-179.5 -51q-144 0 -260 82q-16 11 -8 30zM48 -2q97 -61 213 -61q95 0 147.5 38.5t52.5 96.5q0 31 -10.5 46t-42.5 34q-19 13 -18 23t12 16l10 6q39 16 61 45.5
t22 64.5q0 43 -31 71.5t-75 43t-88 27.5t-75 35.5t-31 57.5q0 31 26 47t63 16q66 0 158 -44l30 61q-94 47 -190 47q-91 0 -141.5 -38t-50.5 -96q0 -28 11.5 -45t47.5 -36q19 -12 18.5 -22t-11.5 -16l-10 -7q-89 -33 -89 -109q0 -42 30.5 -70.5t73.5 -43t86.5 -27.5t74 -35.5
t30.5 -56.5q0 -32 -28 -48t-67 -16q-88 0 -181 56zM161 311q0 34 28.5 50.5t69.5 16.5q50 0 88.5 -19.5t38.5 -60.5q0 -33 -28.5 -50t-70.5 -17q-50 0 -88 19.5t-38 60.5zM211 311q0 -5 6.5 -11t25 -12.5t44.5 -6.5q49 0 49 17q0 4 -6.5 10.5t-25.5 13t-45 6.5
q-48 0 -48 -17z" />
    <glyph glyph-name="dieresis" unicode="&#xa8;" horiz-adv-x="368" 
d="M-24 692q0 44 29.5 73.5t73.5 29.5t73 -29.5t29 -73.5t-29 -73.5t-73 -29.5t-73.5 29.5t-29.5 73.5zM26 692q0 -25 14 -39t39 -14q24 0 38 14t14 39q0 24 -14.5 38.5t-37.5 14.5q-25 0 -39 -14.5t-14 -38.5zM169 692q0 44 29.5 73.5t73.5 29.5t73.5 -29.5t29.5 -73.5
t-29.5 -73.5t-73.5 -29.5t-73.5 29.5t-29.5 73.5zM219 692q0 -25 14 -39t39 -14q24 0 38.5 14t14.5 39q0 24 -14.5 38.5t-38.5 14.5q-25 0 -39 -14.5t-14 -38.5z" />
    <glyph glyph-name="copyright" unicode="&#xa9;" horiz-adv-x="725" 
d="M-1 348q0 150 106 258t258 108t257.5 -106.5t105.5 -257.5q0 -150 -106.5 -258t-258.5 -108t-257 107t-105 257zM49 348q0 -130 90.5 -222t221.5 -92q132 0 223.5 93t91.5 223t-91 222t-222 92q-132 0 -223 -93t-91 -223zM79 348q0 117 82 201.5t202 84.5
q119 0 201.5 -83t82.5 -201t-83 -202t-203 -84q-119 0 -200.5 83.5t-81.5 200.5zM129 348q0 -97 67 -165.5t165 -68.5q99 0 167.5 69.5t68.5 166.5t-68 165.5t-166 68.5q-99 0 -166.5 -69t-67.5 -167zM169 349q0 82 57.5 136.5t142.5 54.5q89 0 150 -63q16 -16 1 -33
l-48 -57q-19 -23 -38 0q-28 33 -63 33q-29 0 -48.5 -19.5t-19.5 -49.5q0 -31 19.5 -51.5t48.5 -20.5q33 0 64 31q7 7 18 7t18 -8l48 -51q15 -17 0 -34q-65 -68 -153 -68q-83 0 -140 55.5t-57 137.5zM219 349q0 -62 41.5 -102.5t105.5 -40.5q54 0 99 36l-14 16
q-41 -29 -80 -29q-50 0 -84 35.5t-34 86.5q0 50 34 84.5t84 34.5q43 0 80 -30l15 17q-45 33 -97 33q-65 0 -107.5 -40.5t-42.5 -100.5z" />
    <glyph glyph-name="ordfeminine" unicode="&#xaa;" horiz-adv-x="393" 
d="M-4 553q0 71 61 102q-8 5 -10 12l-28 76q-4 9 0.5 19t13.5 13q91 35 171 35q79 0 128 -37.5t48 -104.5v-210q0 -11 -8 -18t-17 -7h-116q-16 0 -22 14q-35 -19 -83 -19q-61 0 -99.5 34.5t-38.5 90.5zM46 553q0 -35 22.5 -55t65.5 -20q59 0 85 36q14 16 24 12.5t15 -15.5
l6 -12v-16h66v185q1 43 -30.5 67.5t-95.5 24.5q-59 0 -130 -23l11 -29q3 1 9 2.5t9 2.5q45 12 73 12q38 0 63 -18.5t25 -52.5v-5q0 -9 -7 -17t-18 -8h-87q-22 0 -38 -3q-68 -12 -68 -68zM108 562q0 29 20.5 43.5t48.5 14.5h62q9 0 17 -7t8 -18v-34q0 -7 -3 -13
q-28 -47 -86 -47q-28 0 -47.5 17t-19.5 44zM158 562q0 -6 2.5 -8.5t14.5 -2.5q26 0 39 17v2h-37q-10 0 -14.5 -2t-4.5 -2.5v-3.5zM159 674h32q-5 1 -15 1q-11 0 -17 -1z" />
    <glyph glyph-name="guillemotleft" unicode="&#xab;" horiz-adv-x="502" 
d="M-19 252q-10 14 0 28l120 184q8 11 21 11h140h5t9.5 -1.5t10 -5t3.5 -11.5t-6 -19l-99 -172l99 -172q1 -2 2.5 -4t3 -8.5t0.5 -11.5t-8 -9t-20 -4h-140q-15 0 -21 11zM32 266l104 -159h83l-85 147q-7 13 0 24l85 147h-83zM203 252q-10 14 0 28l120 184q8 11 21 11h140h5
t9.5 -2t10.5 -5.5t4 -11.5t-7 -19l-100 -171l100 -171v-1q1 -1 2.5 -3.5t2.5 -5t1.5 -6t0 -6.5t-2 -6t-4.5 -5t-8.5 -3.5t-13.5 -1.5h-140q-15 0 -21 11zM254 266l104 -159h83l-86 146q-8 14 0 26l86 146h-83z" />
    <glyph glyph-name="logicalnot" unicode="&#xac;" horiz-adv-x="578" 
d="M8 317v109q0 11 8 18t17 7h481q11 0 18 -8t7 -17v-289q0 -11 -8 -18t-17 -7h-124q-11 0 -18 8t-7 17v155h-332q-11 0 -18 8t-7 17zM58 342h332q9 0 17 -7t8 -18v-155h74v239h-431v-59z" />
    <glyph glyph-name="softhyphen" unicode="&#xad;" horiz-adv-x="374" 
d="M30 252v109q0 11 8 18t17 7h264q11 0 18 -8t7 -17v-109q0 -11 -8 -18t-17 -7h-264q-11 0 -18 8t-7 17zM80 277h214v59h-214v-59z" />
    <glyph glyph-name="registered" unicode="&#xae;" horiz-adv-x="725" 
d="M-1 348q0 150 106 258t258 108t257.5 -106.5t105.5 -257.5q0 -150 -106.5 -258t-258.5 -108t-257 107t-105 257zM49 348q0 -130 90.5 -222t221.5 -92q132 0 223.5 93t91.5 223t-91 222t-222 92q-132 0 -223 -93t-91 -223zM79 348q0 117 82 201.5t202 84.5
q119 0 201.5 -83t82.5 -201t-83 -202t-203 -84q-119 0 -200.5 83.5t-81.5 200.5zM129 348q0 -97 67 -165.5t165 -68.5q99 0 167.5 69.5t68.5 166.5t-68 165.5t-166 68.5q-99 0 -166.5 -69t-67.5 -167zM209 200v320q0 11 8 18t17 7h138q72 0 115 -36t43 -100q0 -71 -49 -111
l55 -84q1 -2 2.5 -4.5t3.5 -9t1 -12t-8 -9.5t-20 -4h-91q-15 0 -22 13l-41 77h-23v-65q0 -11 -8 -18t-17 -7h-79q-11 0 -18 8t-7 17zM259 225h29v65q0 9 7 17t18 8h63q16 0 22 -13l41 -77h30l-43 66q-14 23 10 36q44 22 44 82q0 86 -108 86h-113v-270zM288 352v107q0 9 7 17
t18 8h59q36 0 59 -21.5t23 -56.5t-23 -57t-59 -22h-59q-9 0 -17 7t-8 18zM338 377h34q18 0 25 6.5t7 22.5q0 15 -7 21.5t-25 6.5h-34v-57z" />
    <glyph glyph-name="macron" unicode="&#xaf;" 
d="M11 632v116q0 11 8 18t17 7h278q11 0 18 -8t7 -17v-116q0 -11 -8 -18t-17 -7h-278q-11 0 -18 8t-7 17zM61 657h228v66h-228v-66z" />
    <glyph glyph-name="degree" unicode="&#xb0;" horiz-adv-x="374" 
d="M58 699q0 59 42.5 101t101.5 42q60 0 102 -42t42 -101t-42 -101t-102 -42q-59 0 -101.5 42t-42.5 101zM108 699q0 -38 28 -65.5t66 -27.5q39 0 66.5 27.5t27.5 65.5t-27.5 65.5t-66.5 27.5q-38 0 -66 -27.5t-28 -65.5zM125 699q0 32 23 54t54 22q32 0 54.5 -22.5
t22.5 -53.5t-22.5 -53.5t-54.5 -22.5q-31 0 -54 22t-23 54zM175 699q0 -10 8 -18t19 -8q12 0 19.5 7.5t7.5 18.5t-7.5 18.5t-19.5 7.5q-11 0 -19 -8t-8 -18z" />
    <glyph glyph-name="plusminus" unicode="&#xb1;" horiz-adv-x="510" 
d="M8 2v110q0 11 8 18t17 7h444q11 0 18 -8t7 -17v-110q0 -11 -8 -18t-17 -7h-444q-11 0 -18 8t-7 17zM8 348v105q0 11 8 18t17 7h142v137q0 11 8 18t17 7h109q11 0 18 -8t7 -17v-137h143q11 0 18 -8t7 -17v-105q0 -11 -8 -18t-17 -7h-143v-136q0 -11 -8 -18t-17 -7h-109
q-11 0 -18 8t-7 17v136h-142q-11 0 -18 8t-7 17zM58 27h394v60h-394v-60zM58 373h142q9 0 17 -7t8 -18v-136h59v136q0 9 7 17t18 8h143v55h-143q-9 0 -17 7t-8 18v137h-59v-137q0 -9 -7 -17t-18 -8h-142v-55z" />
    <glyph glyph-name="twosuperior" unicode="&#xb2;" horiz-adv-x="389" 
d="M-4 629q-9 19 8 32q99 69 197 69q74 0 125 -36.5t51 -98.5q0 -71 -91 -158l-38 -38h115q11 0 18 -8t7 -17v-91q0 -11 -8 -18t-17 -7h-331q-11 0 -18 8t-7 17v75q0 11 7 18l155 154q10 10 17.5 21t10.5 18t3 9v3.5t-4 2t-14 1.5q-46 0 -102 -47q-24 -19 -38 7zM51 633
l21 -39q60 41 110 41q27 0 47.5 -15t20.5 -42q0 -33 -45 -82l-148 -148v-40h281v41h-151q-22 0 -26.5 10.5t1.5 21.5l7 11l83 81q75 72 75 122q0 36 -33.5 60.5t-92.5 24.5q-75 0 -150 -47z" />
    <glyph glyph-name="threesuperior" unicode="&#xb3;" horiz-adv-x="365" 
d="M-17 342l49 89q1 1 2 3.5t5 6.5t8.5 6t11.5 -0.5t14 -10.5q40 -46 89 -46q21 0 28 6t7 18t-7 17t-29 5h-72q-11 0 -18 8t-7 17v61q0 10 8 18l50 49h-96q-11 0 -18 8t-7 17v85q0 11 8 18t17 7h295q11 0 18 -8t7 -17v-67q0 -10 -8 -18l-70 -67q44 -15 71 -49t27 -83
q0 -72 -54.5 -117t-139.5 -45q-107 0 -182 57q-18 14 -7 32zM38 338q58 -35 134 -35q68 0 106 31.5t38 80.5q0 74 -84 89l-20 4q-21 4 -24 15t4 19l8 9l96 92v31h-245v-35h132q22 0 26 -10.5t-3 -21.5l-6 -11l-86 -85v-25h47q37 0 61.5 -19t24.5 -53t-24.5 -54t-60.5 -20
q-55 0 -102 38z" />
    <glyph glyph-name="acute" unicode="&#xb4;" 
d="M23 613l106 168q11 18 29 11l156 -55q2 0 4.5 -1t8 -5t8 -8.5t0 -12t-12.5 -16.5l-130 -113q-7 -6 -16 -6h-132h-5t-9.5 1.5t-10.5 5t-3.5 12t7.5 19.5zM89 625h78l90 79l-97 34z" />
    <glyph glyph-name="mu" unicode="&#xb5;" horiz-adv-x="684" 
d="M49 -194v733q0 11 8 18t17 7h173q11 0 18 -8t7 -17v-291q0 -78 65 -78q37 1 58.5 28t21.5 75v266q0 11 8 18t17 7h173q11 0 18 -8t7 -17v-539q0 -11 -8 -18t-17 -7h-173q-11 0 -18 8t-7 17v19q-58 -49 -145 -51v-162q0 -11 -8 -18t-17 -7h-173q-11 0 -18 8t-7 17z
M99 -169h123v163q0 12 8 19t18 6l20 -1q104 0 152 84q11 15 21.5 12t18.5 -14l7 -11v-64h123v489h-123v-241q0 -64 -34.5 -108t-95.5 -45q-52 0 -83.5 36t-31.5 92v266h-123v-683z" />
    <glyph glyph-name="paragraph" unicode="&#xb6;" horiz-adv-x="650" 
d="M-31 529q0 99 67.5 168.5t200.5 69.5h343q11 0 18 -8t7 -17v-849q0 -11 -8 -18t-17 -7h-129q-11 0 -18 8t-7 17v727h-50v-727q0 -11 -8 -18t-17 -7h-128q-11 0 -18 8t-7 17v407h-2q-63 0 -110 23t-71 59.5t-35 73.5t-11 73zM19 529q0 -31 8 -59.5t26.5 -57t55 -45.5
t87.5 -17h27q9 0 17 -7t8 -18v-407h78v727q0 9 7 17t18 8h100q9 0 17 -7t8 -18v-727h79v799h-318q-114 0 -166 -53.5t-52 -134.5z" />
    <glyph glyph-name="periodcentered" unicode="&#xb7;" horiz-adv-x="240" 
d="M13 289q0 46 30.5 76.5t75.5 30.5q46 0 76.5 -30.5t30.5 -76.5t-30.5 -76.5t-76.5 -30.5q-45 0 -75.5 30.5t-30.5 76.5zM63 289q0 -26 15 -41.5t41 -15.5t41.5 15.5t15.5 41.5t-15.5 41.5t-41.5 15.5t-41 -15.5t-15 -41.5z" />
    <glyph glyph-name="cedilla" unicode="&#xb8;" 
d="M42 -194l32 71q0 1 1 3.5t5 7t8 6.5t11 0t15 -9q13 -13 32 -13q17 0 17 12q0 11 -21 11q-10 0 -32 -4h-11h-3.5t-7.5 1.5t-8 5t-2.5 11t5.5 18.5l47 98q6 14 23 14h97h4.5t9 -1t9 -5t4.5 -11t-5 -19l-20 -41q58 -30 58 -94q0 -58 -43 -93t-107 -35q-58 0 -109 35
q-17 12 -9 31zM97 -194q34 -16 63 -16q47 0 73.5 21.5t26.5 56.5q0 44 -49 57q-30 7 -16 35l14 29h-40l-21 -44q28 -2 46.5 -18.5t18.5 -42.5t-19.5 -44t-47.5 -18q-21 0 -38 8z" />
    <glyph glyph-name="onesuperior" unicode="&#xb9;" horiz-adv-x="274" 
d="M-15 607v93q0 11 8 18t17 7h201q11 0 18 -8t7 -17v-417q0 -11 -8 -18t-17 -7h-122q-11 0 -18 8t-7 17v299h-54q-11 0 -18 8t-7 17zM35 632h54q9 0 17 -7t8 -18v-299h72v367h-151v-43z" />
    <glyph glyph-name="ordmasculine" unicode="&#xba;" horiz-adv-x="413" 
d="M-5 619q0 86 59 138.5t152 52.5t152.5 -52.5t59.5 -138.5q0 -85 -59.5 -137.5t-152.5 -52.5q-92 0 -151.5 52.5t-59.5 137.5zM45 619q0 -64 42.5 -102t118.5 -38t119 38t43 102q0 65 -43 103t-119 38q-75 0 -118 -38.5t-43 -102.5zM114 618q0 43 25.5 72t66.5 29
t66.5 -29t25.5 -72t-25.5 -72t-66.5 -29t-66.5 29t-25.5 72zM164 618q0 -51 42 -51t42 51t-42 51t-42 -51z" />
    <glyph glyph-name="guillemotright" unicode="&#xbb;" horiz-adv-x="508" 
d="M13 94l99 172l-99 172q-1 2 -2.5 4t-3 8.5t-0.5 11.5t8 9t20 4h140q15 0 21 -11l120 -184q10 -14 0 -28l-120 -184q-8 -11 -21 -11h-140h-5t-9.5 1.5t-10 5t-3.5 11.5t6 19zM78 107h83l104 159l-104 159h-83l85 -147q7 -13 0 -24zM235 94l99 172l-99 172q-1 2 -2.5 4
t-3 8.5t-0.5 11.5t8 9t20 4h140q15 0 21 -11l120 -184q10 -14 0 -28l-120 -184q-8 -11 -21 -11h-140h-5t-9.5 1.5t-10 5t-3.5 11.5t6 19zM300 107h83l104 159l-104 159h-83l85 -147q7 -13 0 -24z" />
    <glyph glyph-name="onequarter" unicode="&#xbc;" horiz-adv-x="881" 
d="M-15 607v93q0 11 8 18t17 7h201q11 0 18 -8t7 -17v-417q0 -11 -8 -18t-17 -7h-122q-11 0 -18 8t-7 17v299h-54q-11 0 -18 8t-7 17zM35 632h54q9 0 17 -7t8 -18v-299h72v367h-151v-43zM47 15l500 701q7 10 20 10h162h5t10 -2.5t10.5 -6t3 -12t-8.5 -19.5l-500 -701
q-7 -10 -20 -10h-162h-5t-10 2.5t-10.5 6t-3 12t8.5 19.5zM116 25h100l464 651h-100zM465 87v79q0 8 3 12l134 251q6 13 22 13h117h4.5t9.5 -1t9.5 -4.5t4.5 -11t-6 -19.5l-62 -121h109q11 0 18 -8t7 -17v-64h33q11 0 18 -8t7 -17v-84q0 -11 -8 -18t-17 -7h-33v-62
q0 -11 -8 -18t-17 -7h-113q-11 0 -18 8t-7 17v62h-182q-11 0 -18 8t-7 17zM515 112h182q9 0 17 -7t8 -18v-62h63v62q0 9 7 17t18 8h33v34h-33q-9 0 -17 7t-8 18v64h-63v-64q0 -9 -7 -17t-18 -8h-83q-20 0 -25.5 9t-0.5 18l4 9l108 210h-61l-124 -232v-48zM655 196h17v33z
" />
    <glyph glyph-name="onehalf" unicode="&#xbd;" horiz-adv-x="902" 
d="M-15 607v93q0 11 8 18t17 7h201q11 0 18 -8t7 -17v-417q0 -11 -8 -18t-17 -7h-122q-11 0 -18 8t-7 17v299h-54q-11 0 -18 8t-7 17zM35 632h54q9 0 17 -7t8 -18v-299h72v367h-151v-43zM47 15l500 701q7 10 20 10h162h5t10 -2.5t10.5 -6t3 -12t-8.5 -19.5l-500 -701
q-7 -10 -20 -10h-162h-5t-10 2.5t-10.5 6t-3 12t8.5 19.5zM116 25h100l464 651h-100zM509 346q-9 19 8 32q99 69 197 69q74 0 125 -36.5t51 -99.5q0 -70 -91 -157l-39 -39h116q11 0 18 -8t7 -17v-90q0 -11 -8 -18t-17 -7h-331q-11 0 -18 8t-7 17v75q0 11 7 18l155 153
q31 34 31 49v3t-4.5 2.5t-13.5 1.5q-41 0 -102 -48q-23 -19 -38 8zM564 350l21 -39q60 41 110 41q28 0 48 -15t20 -42q0 -34 -45 -83v-1l-148 -146v-40h281v40h-151q-22 0 -26.5 10.5t2.5 21.5l6 11l83 82q75 72 75 121q0 37 -33.5 61.5t-92.5 24.5q-75 0 -150 -47z" />
    <glyph glyph-name="threequarters" unicode="&#xbe;" horiz-adv-x="940" 
d="M-17 342l49 89q1 1 2 3.5t5 6.5t8.5 6t11.5 -0.5t14 -10.5q40 -46 89 -46q21 0 28 6t7 18t-7 17t-29 5h-72q-11 0 -18 8t-7 17v61q0 10 8 18l50 49h-96q-11 0 -18 8t-7 17v85q0 11 8 18t17 7h295q11 0 18 -8t7 -17v-67q0 -10 -8 -18l-70 -67q44 -15 71 -49t27 -83
q0 -72 -54.5 -117t-139.5 -45q-107 0 -182 57q-18 14 -7 32zM38 338q58 -35 134 -35q68 0 106 31.5t38 80.5q0 74 -84 89l-20 4q-21 4 -24 15t4 19l8 9l96 92v31h-245v-35h132q22 0 26 -10.5t-3 -21.5l-6 -11l-86 -85v-25h47q37 0 61.5 -19t24.5 -53t-24.5 -54t-60.5 -20
q-55 0 -102 38zM107 15l500 701q7 10 20 10h162h5t10 -2.5t10.5 -6t3 -12t-8.5 -19.5l-500 -701q-7 -10 -20 -10h-162h-5t-10 2.5t-10.5 6t-3 12t8.5 19.5zM176 25h100l464 651h-100zM524 87v79q0 8 3 12l134 251q7 13 22 13h117h4.5t9.5 -1t9.5 -4.5t4.5 -11t-6 -19.5
l-62 -121h109q11 0 18 -8t7 -17v-64h33q11 0 18 -8t7 -17v-84q0 -11 -8 -18t-17 -7h-33v-62q0 -11 -8 -18t-17 -7h-113q-11 0 -18 8t-7 17v62h-182q-11 0 -18 8t-7 17zM574 112h182q9 0 17 -7t8 -18v-62h63v62q0 9 7 17t18 8h33v34h-33q-9 0 -17 7t-8 18v64h-63v-64
q0 -9 -7 -17t-18 -8h-83q-20 0 -25.5 9t-1.5 18l5 9l108 210h-61l-124 -232v-48zM714 196h17v33z" />
    <glyph glyph-name="questiondown" unicode="&#xbf;" horiz-adv-x="472" 
d="M0 10q0 48 16 87t38.5 64t45 46t38.5 44.5t16 48.5q0 11 8 18t17 7h129q11 0 18 -8t7 -17q0 -58 -19.5 -103t-42.5 -66.5t-42.5 -46t-19.5 -47.5q0 -22 10 -30.5t38 -8.5t40.5 14t13.5 53q0 10 7.5 17t17.5 7l133 -1q11 0 18 -7t7 -18q-2 -116 -70 -184t-183 -68
q-109 0 -175 52t-66 147zM50 10q0 -72 49 -110.5t142 -38.5q90 0 142 45.5t60 131.5l-84 1q-6 -42 -33 -66.5t-69 -24.5q-43 0 -70.5 23t-27.5 66q0 32 11.5 58.5t28.5 45t34.5 36.5t31.5 43t17 55h-80q-7 -42 -32.5 -77t-51.5 -56t-47 -55.5t-21 -76.5zM137 463q0 47 31 78
t78 31q46 0 77 -31t31 -78q0 -46 -31 -77t-77 -31q-47 0 -78 30.5t-31 77.5zM187 463q0 -26 16 -42t43 -16q26 0 42 15.5t16 42.5t-16 43t-42 16q-27 0 -43 -15.5t-16 -43.5z" />
    <glyph glyph-name="Agrave" unicode="&#xc0;" horiz-adv-x="770" 
d="M-28 10l302 700q7 15 23 15h183q17 0 23 -15l295 -700q1 -1 2 -3.5t2 -8.5t-0.5 -10.5t-8 -8.5t-18.5 -4h-190q-16 0 -23 16l-44 113h-272l-45 -113q-6 -16 -23 -16h-183h-4t-9 1t-9.5 4.5t-4.5 10.5t4 19zM33 25h128l45 113q7 16 23 16h306q17 0 23 -16l44 -113h135
l-274 650h-150zM195 855q-1 1 -3.5 3t-6 7.5t-4.5 11t4.5 11.5t17.5 10l156 55q17 6 29 -11l106 -168v-1q1 -1 2.5 -3.5t2.5 -5t2 -6t0.5 -6.5t-2 -6t-4.5 -5t-8.5 -3.5t-13.5 -1.5h-132q-10 0 -16 6zM258 273l102 259q8 20 19.5 20t18.5 -10l8 -10l100 -259q5 -18 0 -25.5
t-14 -7.5l-9 -1h-202q-18 0 -23.5 8.5t-2.5 16.5zM260 865l90 -79h78l-71 113zM318 289h129l-64 165z" />
    <glyph glyph-name="Aacute" unicode="&#xc1;" horiz-adv-x="770" 
d="M-28 10l302 700q7 15 23 15h183q17 0 23 -15l295 -700q1 -1 2 -3.5t2 -8.5t-0.5 -10.5t-8 -8.5t-18.5 -4h-190q-16 0 -23 16l-44 113h-272l-45 -113q-6 -16 -23 -16h-183h-4t-9 1t-9.5 4.5t-4.5 10.5t4 19zM33 25h128l45 113q7 16 23 16h306q17 0 23 -16l44 -113h135
l-274 650h-150zM258 273l102 259q8 20 19.5 20t18.5 -10l8 -10l100 -259q5 -18 0 -25.5t-14 -7.5l-9 -1h-202q-18 0 -23.5 8.5t-2.5 16.5zM278 774l106 168q11 18 29 11l156 -55q2 0 4.5 -1t8 -5t8 -8.5t0 -12t-12.5 -16.5l-130 -113q-7 -6 -16 -6h-132h-5t-9.5 1.5t-10.5 5
t-3.5 12t7.5 19.5zM318 289h129l-64 165zM344 786h78l90 79l-97 34z" />
    <glyph glyph-name="Acircumflex" unicode="&#xc2;" horiz-adv-x="770" 
d="M-28 10l302 700q7 15 23 15h183q17 0 23 -15l295 -700q1 -1 2 -3.5t2 -8.5t-0.5 -10.5t-8 -8.5t-18.5 -4h-190q-16 0 -23 16l-44 113h-272l-45 -113q-6 -16 -23 -16h-183h-4t-9 1t-9.5 4.5t-4.5 10.5t4 19zM33 25h128l45 113q7 16 23 16h306q17 0 23 -16l44 -113h135
l-274 650h-150zM183 786l113 151q8 10 20 10h138q12 0 20 -10l113 -151q1 -2 3 -4.5t4 -9.5t1.5 -12t-7.5 -9.5t-21 -4.5h-124q-14 0 -21 11l-37 55l-37 -55q-8 -11 -21 -11h-124q-2 0 -5 0.5t-10 2.5t-11 6t-3 12t9 19zM253 796h61l50 74q10 15 20.5 15t15.5 -7l6 -8
l50 -74h61l-76 101h-112zM258 273l102 259q8 20 19.5 20t18.5 -10l8 -10l100 -259q5 -18 0 -25.5t-14 -7.5l-9 -1h-202q-18 0 -23.5 8.5t-2.5 16.5zM318 289h129l-64 165z" />
    <glyph glyph-name="Atilde" unicode="&#xc3;" horiz-adv-x="770" 
d="M-28 10l302 700q7 15 23 15h183q17 0 23 -15l295 -700q1 -1 2 -3.5t2 -8.5t-0.5 -10.5t-8 -8.5t-18.5 -4h-190q-16 0 -23 16l-44 113h-272l-45 -113q-6 -16 -23 -16h-183h-4t-9 1t-9.5 4.5t-4.5 10.5t4 19zM33 25h128l45 113q7 16 23 16h306q17 0 23 -16l44 -113h135
l-274 650h-150zM182 782q0 85 32.5 133t97.5 48q20 0 39 -5t32 -11.5t23 -13.5t16 -12l5 -5h3q3 3 3 17q0 11 8 18t17 7h105q11 0 18 -8t7 -17q0 -85 -32 -132.5t-97 -47.5q-20 0 -39.5 5t-32.5 11.5t-23 13.5t-16 12l-5 5h-2q-3 -3 -3 -18q0 -11 -8 -18t-17 -7h-106
q-11 0 -18 8t-7 17zM233 807h58q7 24 21 34q14 9 31 9q28 0 60 -23.5t56 -23.5q37 0 55.5 23t22.5 82h-57q-5 -21 -20 -32q-12 -10 -33 -10q-28 0 -60 23.5t-55 23.5q-37 0 -56 -23.5t-23 -82.5zM258 273l102 259q8 20 19.5 20t18.5 -10l8 -10l100 -259q5 -18 0 -25.5
t-14 -7.5l-9 -1h-202q-18 0 -23.5 8.5t-2.5 16.5zM318 289h129l-64 165z" />
    <glyph glyph-name="Adieresis" unicode="&#xc4;" horiz-adv-x="770" 
d="M-28 10l302 700q7 15 23 15h183q17 0 23 -15l295 -700q1 -1 2 -3.5t2 -8.5t-0.5 -10.5t-8 -8.5t-18.5 -4h-190q-16 0 -23 16l-44 113h-272l-45 -113q-6 -16 -23 -16h-183h-4t-9 1t-9.5 4.5t-4.5 10.5t4 19zM33 25h128l45 113q7 16 23 16h306q17 0 23 -16l44 -113h135
l-274 650h-150zM186 852q0 44 29.5 73.5t73.5 29.5t73.5 -29.5t29.5 -73.5t-29.5 -73t-73.5 -29t-73.5 29t-29.5 73zM236 852q0 -23 14.5 -37.5t38.5 -14.5t38.5 14.5t14.5 37.5q0 25 -14.5 39t-38.5 14t-38.5 -14t-14.5 -39zM258 273l102 259q8 20 19.5 20t18.5 -10l8 -10
l100 -259q5 -18 0 -25.5t-14 -7.5l-9 -1h-202q-18 0 -23.5 8.5t-2.5 16.5zM318 289h129l-64 165zM379 852q0 44 29.5 73.5t73.5 29.5t73.5 -29.5t29.5 -73.5t-29.5 -73t-73.5 -29t-73.5 29t-29.5 73zM429 852q0 -23 14.5 -37.5t38.5 -14.5t38.5 14.5t14.5 37.5
q0 25 -14.5 39t-38.5 14t-38.5 -14t-14.5 -39z" />
    <glyph glyph-name="Aring" unicode="&#xc5;" horiz-adv-x="770" 
d="M-28 10l289 671q-26 38 -26 87q0 63 44.5 107.5t108.5 44.5t109 -44.5t45 -107.5q0 -50 -27 -87l283 -671q1 -1 2 -3.5t2 -8.5t-0.5 -10.5t-8 -8.5t-18.5 -4h-190q-16 0 -23 16l-44 113h-272l-45 -113q-6 -16 -23 -16h-183h-4t-9 1t-9.5 4.5t-4.5 10.5t4 19zM33 25h128
l45 113q7 16 23 16h306q17 0 23 -16l44 -113h135l-274 650q-6 14 5 27q24 26 24 66q0 42 -30.5 72t-73.5 30t-73 -30t-30 -72q0 -40 24 -67q10 -12 4 -26zM258 273l102 259q8 20 19.5 20t18.5 -10l8 -10l100 -259q5 -18 0 -25.5t-14 -7.5l-9 -1h-202q-18 0 -23.5 8.5
t-2.5 16.5zM309 768q0 33 23 56t56 23t56.5 -23t23.5 -56t-23.5 -56t-56.5 -23t-56 23t-23 56zM318 289h129l-64 165zM359 768q0 -12 8.5 -20.5t20.5 -8.5q13 0 21.5 8.5t8.5 20.5t-8.5 20.5t-21.5 8.5q-12 0 -20.5 -8.5t-8.5 -20.5z" />
    <glyph glyph-name="AE" unicode="&#xc6;" horiz-adv-x="1102" 
d="M-27 12l398 700q8 13 22 13h98l7 1h548q11 0 18 -8t7 -17v-141q0 -11 -8 -18t-17 -7h-346v-89h310q11 0 18 -8t7 -17v-139q0 -11 -8 -18t-17 -7h-310v-92h357q11 0 18 -8t7 -17v-140q0 -11 -8 -18t-17 -7h-559q-11 0 -18 8t-7 17v123h-200l-71 -135q-6 -13 -22 -13h-185
q0 1 -4.5 0t-10 1t-10 5t-4 11.5t6.5 19.5zM38 25h127l71 135q7 13 22 13h240q9 0 17 -7t8 -18v-123h509v90h-357q-9 0 -17 7t-8 18v142q0 9 7 17t18 8h310v89h-310q-9 0 -17 7t-8 18v139q0 9 7 17t18 8h346v91h-516h-3q-3 -1 -4 -1h-90zM304 288l152 288q7 13 22 13h20
q9 0 17 -7t8 -18v-288q0 -9 -7 -17t-18 -8h-172q-20 0 -25.5 9.5t-0.5 18.5zM367 301h106v200z" />
    <glyph glyph-name="Ccedilla" unicode="&#xc7;" horiz-adv-x="692" 
d="M-1 352q0 162 115 270.5t284 108.5q83 0 163 -34t137 -92q16 -16 1 -33l-103 -122q-21 -21 -38 0q-31 38 -74 60t-83 22q-73 0 -121.5 -51t-48.5 -127q0 -78 49 -129.5t121 -51.5q38 0 81.5 20t76.5 54q18 18 36 0l104 -110q16 -18 0 -34q-48 -49 -111.5 -83.5
t-129.5 -46.5l-6 -11q58 -30 58 -94q0 -58 -43 -93t-107 -35q-58 0 -109 35q-17 12 -9 31l32 71q0 1 1 3.5t5 7t8 6.5t11 0t15 -9q13 -13 32 -13q17 0 17 12q0 11 -21 11q-10 0 -32 -4h-11h-3.5t-7.5 1.5t-8 5t-2.5 11t5.5 18.5l24 48q-137 27 -222.5 131.5t-85.5 245.5z
M49 352q0 -132 83.5 -224.5t214.5 -107.5q17 -2 22 -11t1 -17l-3 -8l-19 -39q27 -2 46 -18.5t19 -42.5t-19.5 -44t-47.5 -18q-21 0 -38 8l-11 -24q34 -16 63 -16q47 0 73.5 21.5t26.5 56.5q0 44 -49 57q-30 7 -16 35l24 47q6 13 18 14q117 17 209 100l-70 74
q-84 -72 -175 -72q-94 0 -157 67t-63 164q0 96 63.5 162t156.5 66q95 0 175 -78l70 82q-49 44 -115.5 69.5t-132.5 25.5q-150 0 -249.5 -94t-99.5 -235z" />
    <glyph glyph-name="Egrave" unicode="&#xc8;" horiz-adv-x="674" 
d="M45 0v700q0 11 8 18t17 7h548q11 0 18 -8t7 -17v-140q0 -11 -8 -18t-17 -7h-345v-89h309q11 0 18 -8t7 -17v-140q0 -11 -8 -18t-17 -7h-309v-91h356q11 0 18 -8t7 -17v-140q0 -11 -8 -18t-17 -7h-559q-11 0 -18 8t-7 17zM95 25h509v90h-356q-9 0 -17 7t-8 18v141
q0 9 7 17t18 8h309v90h-309q-9 0 -17 7t-8 18v139q0 9 7 17t18 8h345v90h-498v-650zM156 855q-1 1 -3.5 3t-6 7.5t-4.5 11t4.5 11.5t17.5 10l156 55q17 6 29 -11l106 -168l1 -1q0 -1 1.5 -3.5t2.5 -5t2 -6t0.5 -6.5t-2 -6t-4.5 -5t-8.5 -3.5t-13.5 -1.5h-132q-10 0 -16 6z
M221 865l90 -79h78l-71 113z" />
    <glyph glyph-name="Eacute" unicode="&#xc9;" horiz-adv-x="674" 
d="M45 0v700q0 11 8 18t17 7h548q11 0 18 -8t7 -17v-140q0 -11 -8 -18t-17 -7h-345v-89h309q11 0 18 -8t7 -17v-140q0 -11 -8 -18t-17 -7h-309v-91h356q11 0 18 -8t7 -17v-140q0 -11 -8 -18t-17 -7h-559q-11 0 -18 8t-7 17zM95 25h509v90h-356q-9 0 -17 7t-8 18v141
q0 9 7 17t18 8h309v90h-309q-9 0 -17 7t-8 18v139q0 9 7 17t18 8h345v90h-498v-650zM239 774l106 168q11 18 29 11l156 -55q2 0 4.5 -1t8 -5t8 -8.5t0 -12t-12.5 -16.5l-130 -113q-8 -6 -16 -6h-132h-5t-9.5 1.5t-10.5 5t-3.5 12t7.5 19.5zM305 786h78l90 79l-97 34z" />
    <glyph glyph-name="Ecircumflex" unicode="&#xca;" horiz-adv-x="674" 
d="M45 0v700q0 11 8 18t17 7h548q11 0 18 -8t7 -17v-140q0 -11 -8 -18t-17 -7h-345v-89h309q11 0 18 -8t7 -17v-140q0 -11 -8 -18t-17 -7h-309v-91h356q11 0 18 -8t7 -17v-140q0 -11 -8 -18t-17 -7h-559q-11 0 -18 8t-7 17zM95 25h509v90h-356q-9 0 -17 7t-8 18v141
q0 9 7 17t18 8h309v90h-309q-9 0 -17 7t-8 18v139q0 9 7 17t18 8h345v90h-498v-650zM144 786l113 151q8 10 20 10h138q12 0 20 -10l113 -151q1 -2 3 -4.5t4 -9.5t1.5 -12t-7.5 -9.5t-21 -4.5h-124q-14 0 -21 11l-37 55l-37 -55q-8 -11 -21 -11h-124q-2 0 -5 0.5t-10 2.5
t-11 6t-3 12t9 19zM214 796h61l50 74q10 15 20.5 15t16.5 -7l5 -8l50 -74h61l-76 101h-112z" />
    <glyph glyph-name="Edieresis" unicode="&#xcb;" horiz-adv-x="674" 
d="M45 0v700q0 11 8 18t17 7h548q11 0 18 -8t7 -17v-140q0 -11 -8 -18t-17 -7h-345v-89h309q11 0 18 -8t7 -17v-140q0 -11 -8 -18t-17 -7h-309v-91h356q11 0 18 -8t7 -17v-140q0 -11 -8 -18t-17 -7h-559q-11 0 -18 8t-7 17zM95 25h509v90h-356q-9 0 -17 7t-8 18v141
q0 9 7 17t18 8h309v90h-309q-9 0 -17 7t-8 18v139q0 9 7 17t18 8h345v90h-498v-650zM147 852q0 44 29.5 73.5t73.5 29.5t73.5 -29.5t29.5 -73.5t-29.5 -73t-73.5 -29t-73.5 29t-29.5 73zM197 852q0 -23 14.5 -37.5t38.5 -14.5t38.5 14.5t14.5 37.5q0 25 -14.5 39t-38.5 14
t-38.5 -14t-14.5 -39zM340 852q0 44 29.5 73.5t73.5 29.5t73.5 -29.5t29.5 -73.5t-29.5 -73t-73.5 -29t-73.5 29t-29.5 73zM390 852q0 -23 14.5 -37.5t38.5 -14.5t38.5 14.5t14.5 37.5q0 25 -14.5 39t-38.5 14t-38.5 -14t-14.5 -39z" />
    <glyph glyph-name="Igrave" unicode="&#xcc;" horiz-adv-x="318" 
d="M-31 855q-1 1 -3.5 3t-6 7.5t-4.5 11t4.5 11.5t17.5 10l156 55q17 6 29 -11l106 -168v-1q1 -1 2.5 -3.5t2.5 -5t2 -6t0.5 -6.5t-2 -6t-4.5 -5t-8.5 -3.5t-13.5 -1.5h-132q-10 0 -16 6zM34 865l90 -79h78l-71 113zM45 0v700q0 11 8 18t17 7h178q11 0 18 -8t7 -17v-700
q0 -11 -8 -18t-17 -7h-178q-11 0 -18 8t-7 17zM95 25h128v650h-128v-650z" />
    <glyph glyph-name="Iacute" unicode="&#xcd;" horiz-adv-x="318" 
d="M45 0v700q0 11 8 18t17 7h178q11 0 18 -8t7 -17v-700q0 -11 -8 -18t-17 -7h-178q-11 0 -18 8t-7 17zM51 774l106 168q11 18 29 11l156 -55q2 0 4.5 -1t8 -5t8 -8.5t0 -12t-12.5 -16.5l-130 -113q-8 -6 -16 -6h-132h-5t-9.5 1.5t-10.5 5t-3.5 12t7.5 19.5zM95 25h128v650
h-128v-650zM117 786h78l90 79l-97 34z" />
    <glyph glyph-name="Icircumflex" unicode="&#xce;" horiz-adv-x="318" 
d="M-43 786l113 151q8 10 20 10h138q12 0 20 -10l113 -151q1 -2 3 -4.5t4 -9.5t1.5 -12t-7.5 -9.5t-21 -4.5h-124q-14 0 -21 11l-37 55l-37 -55q-8 -11 -21 -11h-124q-2 0 -5 0.5t-10 2.5t-11 6t-3 12t9 19zM27 796h61l50 74q10 15 20.5 15t15.5 -7l6 -8l50 -74h61l-76 101
h-112zM45 0v700q0 11 8 18t17 7h178q11 0 18 -8t7 -17v-700q0 -11 -8 -18t-17 -7h-178q-11 0 -18 8t-7 17zM95 25h128v650h-128v-650z" />
    <glyph glyph-name="Idieresis" unicode="&#xcf;" horiz-adv-x="318" 
d="M-40 852q0 44 29.5 73.5t73.5 29.5t73.5 -29.5t29.5 -73.5t-29.5 -73t-73.5 -29t-73.5 29t-29.5 73zM10 852q0 -23 14.5 -37.5t38.5 -14.5t38.5 14.5t14.5 37.5q0 25 -14.5 39t-38.5 14t-38.5 -14t-14.5 -39zM45 0v700q0 11 8 18t17 7h178q11 0 18 -8t7 -17v-700
q0 -11 -8 -18t-17 -7h-178q-11 0 -18 8t-7 17zM95 25h128v650h-128v-650zM153 852q0 44 29.5 73.5t73.5 29.5t73.5 -29.5t29.5 -73.5t-29.5 -73t-73.5 -29t-73.5 29t-29.5 73zM203 852q0 -23 14.5 -37.5t38.5 -14.5t38.5 14.5t14.5 37.5q0 25 -14.5 39t-38.5 14t-38.5 -14
t-14.5 -39z" />
    <glyph glyph-name="Eth" unicode="&#xd0;" horiz-adv-x="799" 
d="M-25 304v94q0 11 8 18t17 7h77v277q0 11 8 18t17 7h301q175 0 286 -104.5t111 -270.5t-113 -270.5t-291 -104.5h-294q-11 0 -18 8t-7 17v279h-77q-11 0 -18 8t-7 17zM25 329h77q9 0 17 -7t8 -18v-279h269q160 0 257 90t97 235q0 146 -95.5 235.5t-251.5 89.5h-276v-277
q0 -9 -7 -17t-18 -8h-77v-44zM254 142v162q0 9 7 17t18 8h134v44h-134q-9 0 -17 7t-8 18v160q0 9 7 17t18 8h120q95 0 157.5 -66t62.5 -168q0 -101 -59.5 -166.5t-152.5 -65.5h-128q-9 0 -17 7t-8 18zM304 167h103q72 0 117 49.5t45 132.5t-47.5 133.5t-122.5 50.5h-95v-110
h134q11 0 18 -8t7 -17v-94q0 -11 -8 -18t-17 -7h-134v-112z" />
    <glyph glyph-name="Ntilde" unicode="&#xd1;" horiz-adv-x="786" 
d="M45 0v700q0 11 8 18t17 7h157q12 0 20 -10l278 -372v357q0 11 8 18t17 7h166q11 0 18 -8t7 -17v-700q0 -11 -8 -18t-17 -7h-157q-12 0 -20 10l-277 371v-356q0 -11 -8 -18t-17 -7h-167q-11 0 -18 8t-7 17zM95 25h117v406q0 20 11 24t23 -3l11 -6l315 -421h119v650h-116
v-407q0 -20 -11.5 -24t-22.5 2l-11 7l-316 422h-119v-650zM190 782q0 85 32.5 133t97.5 48q20 0 39 -5t32 -11.5t23 -13.5t16 -12l5 -5h3q3 3 3 17q0 11 8 18t17 7h105q11 0 18 -8t7 -17q0 -85 -32 -132.5t-97 -47.5q-20 0 -39.5 5t-32.5 11.5t-23 13.5t-16 12l-5 5h-2
q-3 -3 -3 -18q0 -11 -8 -18t-17 -7h-106q-11 0 -18 8t-7 17zM241 807h58q7 24 21 34q13 9 31 9q28 0 60 -23.5t56 -23.5q37 0 55.5 23t22.5 82h-57q-5 -21 -20 -32q-12 -10 -33 -10q-28 0 -60 23.5t-55 23.5q-37 0 -56 -23.5t-23 -82.5z" />
    <glyph glyph-name="Ograve" unicode="&#xd2;" horiz-adv-x="805" 
d="M-1 351q0 164 115.5 272t287.5 108t288 -108.5t116 -271.5q0 -164 -116 -274t-288 -110t-287.5 109.5t-115.5 274.5zM49 351q0 -143 100.5 -238.5t252.5 -95.5q153 0 253.5 95.5t100.5 238.5q0 142 -100.5 236t-253.5 94t-253 -94t-100 -236zM181 350q0 98 65.5 165
t157.5 67t155.5 -67t63.5 -165t-63.5 -166t-155.5 -68t-157.5 68t-65.5 166zM205 855q-1 1 -3.5 3t-6 7.5t-4.5 11t4.5 11.5t17.5 10l156 55q17 6 29 -11l106 -168v-1q1 -1 2.5 -3.5t2.5 -5t2 -6t0.5 -6.5t-2 -6t-4.5 -5t-8.5 -3.5t-13.5 -1.5h-132q-10 0 -16 6zM231 350
q0 -78 51.5 -131t121.5 -53q71 0 120 52.5t49 131.5q0 78 -49 130t-120 52q-72 0 -122.5 -52t-50.5 -130zM270 865l90 -79h78l-71 113z" />
    <glyph glyph-name="Oacute" unicode="&#xd3;" horiz-adv-x="805" 
d="M-1 351q0 164 115.5 272t287.5 108t288 -108.5t116 -271.5q0 -164 -116 -274t-288 -110t-287.5 109.5t-115.5 274.5zM49 351q0 -143 100.5 -238.5t252.5 -95.5q153 0 253.5 95.5t100.5 238.5q0 142 -100.5 236t-253.5 94t-253 -94t-100 -236zM181 350q0 98 65.5 165
t157.5 67t155.5 -67t63.5 -165t-63.5 -166t-155.5 -68t-157.5 68t-65.5 166zM231 350q0 -78 51.5 -131t121.5 -53q71 0 120 52.5t49 131.5q0 78 -49 130t-120 52q-72 0 -122.5 -52t-50.5 -130zM287 774l106 168q11 18 29 11l156 -55q2 0 4.5 -1t8 -5t8 -8.5t0 -12
t-12.5 -16.5l-130 -113q-8 -6 -16 -6h-132h-5t-9.5 1.5t-10.5 5t-3.5 12t7.5 19.5zM353 786h78l90 79l-97 34z" />
    <glyph glyph-name="Ocircumflex" unicode="&#xd4;" horiz-adv-x="805" 
d="M-1 351q0 164 115.5 272t287.5 108t288 -108.5t116 -271.5q0 -164 -116 -274t-288 -110t-287.5 109.5t-115.5 274.5zM49 351q0 -143 100.5 -238.5t252.5 -95.5q153 0 253.5 95.5t100.5 238.5q0 142 -100.5 236t-253.5 94t-253 -94t-100 -236zM181 350q0 98 65.5 165
t157.5 67t155.5 -67t63.5 -165t-63.5 -166t-155.5 -68t-157.5 68t-65.5 166zM193 786l113 151q8 10 20 10h138q12 0 20 -10l113 -151q1 -2 3 -4.5t4 -9.5t1.5 -12t-7.5 -9.5t-21 -4.5h-124q-14 0 -21 11l-37 55l-37 -55q-8 -11 -21 -11h-124q-2 0 -5 0.5t-10 2.5t-11 6
t-3 12t9 19zM231 350q0 -78 51.5 -131t121.5 -53q71 0 120 52.5t49 131.5q0 78 -49 130t-120 52q-72 0 -122.5 -52t-50.5 -130zM263 796h61l50 74q10 15 20.5 15t15.5 -7l6 -8l50 -74h61l-76 101h-112z" />
    <glyph glyph-name="Otilde" unicode="&#xd5;" horiz-adv-x="805" 
d="M-1 351q0 164 115.5 272t287.5 108t288 -108.5t116 -271.5q0 -164 -116 -274t-288 -110t-287.5 109.5t-115.5 274.5zM49 351q0 -143 100.5 -238.5t252.5 -95.5q153 0 253.5 95.5t100.5 238.5q0 142 -100.5 236t-253.5 94t-253 -94t-100 -236zM181 350q0 98 65.5 165
t157.5 67t155.5 -67t63.5 -165t-63.5 -166t-155.5 -68t-157.5 68t-65.5 166zM192 782q0 85 32.5 133t97.5 48q20 0 39 -5t32 -11.5t23 -13.5t16 -12l5 -5h3q3 3 3 17q0 11 8 18t17 7h105q11 0 18 -8t7 -17q0 -85 -32 -132.5t-97 -47.5q-20 0 -39.5 5t-32.5 11.5t-23 13.5
t-16 12l-5 5h-2q-3 -3 -3 -18q0 -11 -8 -18t-17 -7h-106q-11 0 -18 8t-7 17zM231 350q0 -78 51.5 -131t121.5 -53q71 0 120 52.5t49 131.5q0 78 -49 130t-120 52q-72 0 -122.5 -52t-50.5 -130zM243 807h58q7 24 21 34q13 9 31 9q28 0 60 -23.5t56 -23.5q37 0 55.5 23
t22.5 82h-57q-5 -21 -20 -32q-12 -10 -33 -10q-28 0 -60 23.5t-55 23.5q-37 0 -56 -23.5t-23 -82.5z" />
    <glyph glyph-name="Odieresis" unicode="&#xd6;" horiz-adv-x="805" 
d="M-1 351q0 164 115.5 272t287.5 108t288 -108.5t116 -271.5q0 -164 -116 -274t-288 -110t-287.5 109.5t-115.5 274.5zM49 351q0 -143 100.5 -238.5t252.5 -95.5q153 0 253.5 95.5t100.5 238.5q0 142 -100.5 236t-253.5 94t-253 -94t-100 -236zM181 350q0 98 65.5 165
t157.5 67t155.5 -67t63.5 -165t-63.5 -166t-155.5 -68t-157.5 68t-65.5 166zM196 852q0 44 29.5 73.5t73.5 29.5t73.5 -29.5t29.5 -73.5t-29.5 -73t-73.5 -29t-73.5 29t-29.5 73zM231 350q0 -78 51.5 -131t121.5 -53q71 0 120 52.5t49 131.5q0 78 -49 130t-120 52
q-72 0 -122.5 -52t-50.5 -130zM246 852q0 -23 14.5 -37.5t38.5 -14.5t38.5 14.5t14.5 37.5q0 25 -14.5 39t-38.5 14t-38.5 -14t-14.5 -39zM389 852q0 44 29.5 73.5t73.5 29.5t73.5 -29.5t29.5 -73.5t-29.5 -73t-73.5 -29t-73.5 29t-29.5 73zM439 852q0 -23 14.5 -37.5
t38.5 -14.5t38.5 14.5t14.5 37.5q0 25 -14.5 39t-38.5 14t-38.5 -14t-14.5 -39z" />
    <glyph glyph-name="multiply" unicode="&#xd7;" horiz-adv-x="510" 
d="M41 190q-8 9 -7.5 19t7.5 17l102 101l-102 100q-7 7 -7 18t7 18l77 77q8 7 18.5 7t17.5 -7l101 -101l100 101q9 8 19 7.5t17 -7.5l77 -77q8 -9 7.5 -19t-7.5 -17l-101 -100l101 -101q7 -8 7 -18.5t-7 -17.5l-77 -77q-7 -7 -18 -7t-18 7l-100 102l-101 -102
q-9 -8 -19 -7.5t-17 7.5zM94 208l42 -42l101 102q7 8 18 8t18 -8l100 -102l42 42l-101 101q-7 7 -7 17.5t7 18.5l101 100l-42 42l-100 -101q-7 -7 -17.5 -7t-18.5 7l-101 101l-42 -42l102 -100q8 -7 8 -18t-8 -18z" />
    <glyph glyph-name="Oslash" unicode="&#xd8;" horiz-adv-x="805" 
d="M-1 351q0 164 115.5 272t287.5 108q14 0 40 -2l30 88q7 17 24 17h100h10t13 -8.5t1 -24.5l-38 -107q103 -46 163.5 -137t60.5 -206q0 -164 -116 -274t-288 -110q-38 0 -72 6l-33 -94q-7 -17 -24 -17h-100h-10t-13 8.5t-1 24.5l44 125q-90 50 -142 137t-52 194zM49 351
q0 -98 50 -176.5t136 -119.5q8 -4 12 -13t1 -18l-40 -112h47l34 97q3 8 11.5 13t17.5 3q35 -8 84 -8q153 0 253.5 95.5t100.5 238.5q0 105 -58 187t-156 119q-22 9 -15 31l34 96h-47l-31 -90q-8 -20 -28 -17q-23 4 -53 4q-153 0 -253 -94t-100 -236zM181 350q0 98 65.5 165
t157.5 67h4q17 0 23 -8t3 -16l-2 -9l-129 -369q-6 -17 -16 -19.5t-17 3.5l-7 5q-82 72 -82 181zM231 350q0 -65 38 -115l103 294q-61 -11 -101 -61t-40 -118zM340 153l135 387q10 28 37 14q51 -30 81 -84.5t30 -119.5q0 -98 -63.5 -166t-155.5 -68q-18 0 -44 4q-28 4 -20 33
zM398 166h6q71 0 120 52.5t49 131.5q0 89 -61 142z" />
    <glyph glyph-name="Ugrave" unicode="&#xd9;" horiz-adv-x="758" 
d="M33 294v406q0 11 8 18t17 7h178q11 0 18 -8t7 -17v-406q0 -61 33 -94.5t88 -33.5q54 0 85 33t31 95v406q0 11 8 18t17 7h177q11 0 18 -8t7 -17v-406q0 -149 -94 -238t-250 -89q-157 0 -252.5 89t-95.5 238zM83 294q0 -129 79.5 -203t218.5 -74q138 0 216 74t78 203v381
h-127v-381q0 -79 -46 -128.5t-120 -49.5t-122.5 49.5t-48.5 128.5v381h-128v-381zM189 855q-1 1 -3.5 3t-6 7.5t-4.5 11t4.5 11.5t17.5 10l156 55q17 6 29 -11l106 -168v-1q1 -1 2.5 -3.5t2.5 -5t2 -6t0.5 -6.5t-2 -6t-4.5 -5t-8.5 -3.5t-13.5 -1.5h-132q-10 0 -16 6z
M254 865l90 -79h78l-71 113z" />
    <glyph glyph-name="Uacute" unicode="&#xda;" horiz-adv-x="758" 
d="M33 294v406q0 11 8 18t17 7h178q11 0 18 -8t7 -17v-406q0 -61 33 -94.5t88 -33.5q54 0 85 33t31 95v406q0 11 8 18t17 7h177q11 0 18 -8t7 -17v-406q0 -149 -94 -238t-250 -89q-157 0 -252.5 89t-95.5 238zM83 294q0 -129 79.5 -203t218.5 -74q138 0 216 74t78 203v381
h-127v-381q0 -79 -46 -128.5t-120 -49.5t-122.5 49.5t-48.5 128.5v381h-128v-381zM272 774l106 168q11 18 29 11l156 -55q2 0 4.5 -1t8 -5t8 -8.5t0 -12t-12.5 -16.5l-130 -113q-7 -6 -16 -6h-132h-5t-9.5 1.5t-10.5 5t-3.5 12t7.5 19.5zM338 786h78l90 79l-97 34z" />
    <glyph glyph-name="Ucircumflex" unicode="&#xdb;" horiz-adv-x="758" 
d="M33 294v406q0 11 8 18t17 7h178q11 0 18 -8t7 -17v-406q0 -61 33 -94.5t88 -33.5q54 0 85 33t31 95v406q0 11 8 18t17 7h177q11 0 18 -8t7 -17v-406q0 -149 -94 -238t-250 -89q-157 0 -252.5 89t-95.5 238zM83 294q0 -129 79.5 -203t218.5 -74q138 0 216 74t78 203v381
h-127v-381q0 -79 -46 -128.5t-120 -49.5t-122.5 49.5t-48.5 128.5v381h-128v-381zM178 786l113 151q8 10 20 10h138q12 0 20 -10l113 -151q1 -2 3 -4.5t4 -9.5t1.5 -12t-7.5 -9.5t-21 -4.5h-124q-14 0 -21 11l-37 55l-37 -55q-8 -11 -21 -11h-124q-2 0 -5 0.5t-10 2.5t-11 6
t-3 12t9 19zM248 796h61l50 74q10 15 20.5 15t16.5 -7l5 -8l50 -74h61l-76 101h-112z" />
    <glyph glyph-name="Udieresis" unicode="&#xdc;" horiz-adv-x="758" 
d="M33 294v406q0 11 8 18t17 7h178q11 0 18 -8t7 -17v-406q0 -61 33 -94.5t88 -33.5q54 0 85 33t31 95v406q0 11 8 18t17 7h177q11 0 18 -8t7 -17v-406q0 -149 -94 -238t-250 -89q-157 0 -252.5 89t-95.5 238zM83 294q0 -129 79.5 -203t218.5 -74q138 0 216 74t78 203v381
h-127v-381q0 -79 -46 -128.5t-120 -49.5t-122.5 49.5t-48.5 128.5v381h-128v-381zM181 852q0 44 29.5 73.5t73.5 29.5t73.5 -29.5t29.5 -73.5t-29.5 -73t-73.5 -29t-73.5 29t-29.5 73zM231 852q0 -23 14.5 -37.5t38.5 -14.5t38.5 14.5t14.5 37.5q0 25 -14.5 39t-38.5 14
t-38.5 -14t-14.5 -39zM374 852q0 44 29.5 73.5t73.5 29.5t73.5 -29.5t29.5 -73.5t-29.5 -73t-73.5 -29t-73.5 29t-29.5 73zM424 852q0 -23 14.5 -37.5t38.5 -14.5t38.5 14.5t14.5 37.5q0 25 -14.5 39t-38.5 14t-38.5 -14t-14.5 -39z" />
    <glyph glyph-name="Yacute" unicode="&#xdd;" horiz-adv-x="680" 
d="M-27 688q-1 2 -2.5 4t-3 8.5t-0.5 11.5t8 9t20 4h178q15 0 22 -13l147 -265l143 265q7 13 22 13h178q0 -1 4.5 0t9.5 -1t9.5 -5t4.5 -11.5t-6 -19.5l-251 -468v-220q0 -11 -8 -18t-17 -7h-177q-11 0 -18 8t-7 17v215zM37 675l239 -442q3 -5 3 -12v-196h127v201q0 6 3 12
l234 437h-121l-158 -292q-10 -19 -21 -19t-17 10l-6 9l-162 292h-121zM232 774l106 168q11 18 29 11l156 -55q2 0 4.5 -1t8 -5t8 -8.5t0 -12t-12.5 -16.5l-130 -113q-7 -6 -16 -6h-132h-5t-9.5 1.5t-10.5 5t-3.5 12t7.5 19.5zM298 786h78l90 79l-97 34z" />
    <glyph glyph-name="Thorn" unicode="&#xde;" horiz-adv-x="689" 
d="M45 0v700q0 11 8 18t17 7h178q11 0 18 -8t7 -17v-67h97q146 0 233.5 -71t87.5 -195q0 -129 -87 -204.5t-234 -75.5h-97v-87q0 -11 -8 -18t-17 -7h-178q-11 0 -18 8t-7 17zM95 25h128v87q0 9 7 17t18 8h122q130 0 200.5 61t70.5 169q0 101 -70 158.5t-201 57.5h-122
q-9 0 -17 7t-8 18v67h-128v-650zM223 248v224q0 9 7 17t18 8h115q67 0 106.5 -36t39.5 -99q0 -64 -39.5 -101.5t-106.5 -37.5h-115q-9 0 -17 7t-8 18zM273 273h90q50 0 73 22t23 67q0 85 -96 85h-90v-174z" />
    <glyph glyph-name="germandbls" unicode="&#xdf;" horiz-adv-x="662" 
d="M33 0v492q0 128 81 205.5t215 77.5q124 0 203.5 -61t79.5 -164q0 -96 -69 -160q51 -26 81 -71.5t30 -104.5q0 -108 -84.5 -173.5t-218.5 -65.5h-49q-11 0 -18 8t-7 17v123q0 11 8 18t17 7h41q94 0 94 67q0 65 -106 65h-18q-11 0 -18 8t-7 17v122q0 11 8 18t17 7
q44 0 63 18t19 55t-16 53.5t-49 16.5q-75 0 -75 -91v-504q0 -11 -8 -18t-17 -7h-172q-11 0 -18 8t-7 17zM83 25h122v479q0 63 33.5 102t91.5 39q52 0 83.5 -33t31.5 -87q0 -51 -28.5 -83.5t-78.5 -38.5v-73q66 -2 107.5 -31t41.5 -84q0 -54 -40 -85.5t-104 -31.5h-16v-73h24
q118 0 185.5 52.5t67.5 136.5q0 54 -32.5 92t-87.5 53q-13 4 -18.5 10t-3.5 12t5.5 11.5t7.5 9.5l4 3q38 20 60.5 59.5t22.5 85.5q0 79 -62 127t-171 48q-116 0 -181 -62.5t-65 -170.5v-467z" />
    <glyph glyph-name="agrave" unicode="&#xe0;" horiz-adv-x="600" 
d="M2 161q0 88 62 137.5t170 50.5h115q-10 43 -78 43q-69 0 -150 -42q-8 -5 -18.5 -2t-15.5 14l-49 114q-4 9 -0.5 19t12.5 14q135 63 261 63q119 0 189 -58.5t71 -161.5v-352q0 -11 -8 -18t-17 -7h-169q-11 0 -18 8t-7 17v5q-58 -38 -140 -38q-94 0 -152 54t-58 140z
M52 161q0 -65 42 -104.5t118 -39.5q99 0 145 60q14 16 24 12.5t15 -15.5l6 -12v-37h119v327q-1 81 -54 125.5t-156 44.5q-105 0 -217 -49l29 -67q80 36 148 36q60 0 95 -29.5t35 -80.5v-8q0 -9 -7 -17t-18 -8h-142q-182 -1 -182 -138zM109 694q-1 1 -3.5 3t-6 7.5t-4.5 11
t4.5 11.5t17.5 10l156 55q17 6 29 -11l106 -168v-1q1 -1 2.5 -3.5t2.5 -5t2 -6t0.5 -6.5t-2 -6t-4.5 -5t-8.5 -3.5t-13.5 -1.5h-132q-10 0 -16 6zM164 173q0 42 28.5 62.5t74.5 20.5h109q9 0 17 -7t8 -18v-48q0 -1 -0.5 -3t-0.5 -3q-11 -42 -49 -67.5t-86 -25.5
q-44 0 -72.5 24.5t-28.5 64.5zM174 704l90 -79h78l-71 113zM214 173q0 -39 51 -39q32 0 55.5 15t30.5 37v20h-84q-32 0 -42.5 -7.5t-10.5 -25.5z" />
    <glyph glyph-name="aacute" unicode="&#xe1;" horiz-adv-x="600" 
d="M2 161q0 88 62 137.5t170 50.5h115q-10 43 -78 43q-69 0 -150 -42q-8 -5 -18.5 -2t-15.5 14l-49 114q-4 9 -0.5 19t12.5 14q135 63 261 63q119 0 189 -58.5t71 -161.5v-352q0 -11 -8 -18t-17 -7h-169q-11 0 -18 8t-7 17v5q-58 -38 -140 -38q-94 0 -152 54t-58 140z
M52 161q0 -65 42 -104.5t118 -39.5q99 0 145 60q14 16 24 12.5t15 -15.5l6 -12v-37h119v327q-1 81 -54 125.5t-156 44.5q-105 0 -217 -49l29 -67q80 36 148 36q60 0 95 -29.5t35 -80.5v-8q0 -9 -7 -17t-18 -8h-142q-182 -1 -182 -138zM164 173q0 42 28.5 62.5t74.5 20.5h109
q9 0 17 -7t8 -18v-48q0 -1 -0.5 -3t-0.5 -3q-11 -42 -49 -67.5t-86 -25.5q-44 0 -72.5 24.5t-28.5 64.5zM192 613l106 168q11 18 29 11l156 -55q2 0 4.5 -1t8 -5t8 -8.5t0 -12t-12.5 -16.5l-130 -113q-7 -6 -16 -6h-132h-5t-9.5 1.5t-10.5 5t-3.5 12t7.5 19.5zM214 173
q0 -39 51 -39q32 0 55.5 15t30.5 37v20h-84q-32 0 -42.5 -7.5t-10.5 -25.5zM258 625h78l90 79l-97 34z" />
    <glyph glyph-name="acircumflex" unicode="&#xe2;" horiz-adv-x="600" 
d="M2 161q0 88 62 137.5t170 50.5h115q-10 43 -78 43q-69 0 -150 -42q-8 -5 -18.5 -2t-15.5 14l-49 114q-4 9 -0.5 19t12.5 14q135 63 261 63q119 0 189 -58.5t71 -161.5v-352q0 -11 -8 -18t-17 -7h-169q-11 0 -18 8t-7 17v5q-58 -38 -140 -38q-94 0 -152 54t-58 140z
M52 161q0 -65 42 -104.5t118 -39.5q99 0 145 60q14 16 24 12.5t15 -15.5l6 -12v-37h119v327q-1 81 -54 125.5t-156 44.5q-105 0 -217 -49l29 -67q80 36 148 36q60 0 95 -29.5t35 -80.5v-8q0 -9 -7 -17t-18 -8h-142q-182 -1 -182 -138zM97 625l113 151q8 10 20 10h138
q12 0 20 -10l113 -151q1 -2 3 -4.5t4 -9.5t1.5 -12t-7.5 -9.5t-21 -4.5h-124q-14 0 -21 11l-37 55l-37 -55q-8 -11 -21 -11h-124q-2 0 -5 0.5t-10 2.5t-11 6t-3 12t9 19zM164 173q0 42 28.5 62.5t74.5 20.5h109q9 0 17 -7t8 -18v-48q0 -1 -0.5 -3t-0.5 -3q-11 -42 -49 -67.5
t-86 -25.5q-44 0 -72.5 24.5t-28.5 64.5zM167 635h61l50 74q10 15 20.5 15t15.5 -8l6 -7l50 -74h61l-76 101h-112zM214 173q0 -39 51 -39q32 0 55.5 15t30.5 37v20h-84q-32 0 -42.5 -7.5t-10.5 -25.5z" />
    <glyph glyph-name="atilde" unicode="&#xe3;" horiz-adv-x="600" 
d="M2 161q0 88 62 137.5t170 50.5h115q-10 43 -78 43q-69 0 -150 -42q-8 -5 -18.5 -2t-15.5 14l-49 114q-4 9 -0.5 19t12.5 14q135 63 261 63q119 0 189 -58.5t71 -161.5v-352q0 -11 -8 -18t-17 -7h-169q-11 0 -18 8t-7 17v5q-58 -38 -140 -38q-94 0 -152 54t-58 140z
M52 161q0 -65 42 -104.5t118 -39.5q99 0 145 60q14 16 24 12.5t15 -15.5l6 -12v-37h119v327q-1 81 -54 125.5t-156 44.5q-105 0 -217 -49l29 -67q80 36 148 36q60 0 95 -29.5t35 -80.5v-8q0 -9 -7 -17t-18 -8h-142q-182 -1 -182 -138zM96 621q0 85 32.5 133t97.5 48
q20 0 39 -5t32 -12t23 -13.5t16 -11.5l5 -5h3q3 3 3 17q0 11 8 18t17 7h105q11 0 18 -8t7 -17q0 -85 -32 -132.5t-97 -47.5q-20 0 -39.5 5t-32.5 12t-23 13.5t-16 11.5l-5 5h-2q-3 -3 -3 -18q0 -11 -8 -18t-17 -7h-106q-11 0 -18 8t-7 17zM147 646h58q7 24 21 34q13 9 31 9
q28 0 60 -23.5t56 -23.5q37 0 55.5 23t22.5 82h-57q-5 -21 -20 -32q-13 -10 -33 -10q-28 0 -60 23.5t-55 23.5q-37 0 -56 -23.5t-23 -82.5zM164 173q0 42 28.5 62.5t74.5 20.5h109q9 0 17 -7t8 -18v-48q0 -1 -0.5 -3t-0.5 -3q-11 -42 -49 -67.5t-86 -25.5q-44 0 -72.5 24.5
t-28.5 64.5zM214 173q0 -39 51 -39q32 0 55.5 15t30.5 37v20h-84q-32 0 -42.5 -7.5t-10.5 -25.5z" />
    <glyph glyph-name="adieresis" unicode="&#xe4;" horiz-adv-x="600" 
d="M2 161q0 88 62 137.5t170 50.5h115q-10 43 -78 43q-69 0 -150 -42q-8 -5 -18.5 -2t-15.5 14l-49 114q-4 9 -0.5 19t12.5 14q135 63 261 63q119 0 189 -58.5t71 -161.5v-352q0 -11 -8 -18t-17 -7h-169q-11 0 -18 8t-7 17v5q-58 -38 -140 -38q-94 0 -152 54t-58 140z
M52 161q0 -65 42 -104.5t118 -39.5q99 0 145 60q14 16 24 12.5t15 -15.5l6 -12v-37h119v327q-1 81 -54 125.5t-156 44.5q-105 0 -217 -49l29 -67q80 36 148 36q60 0 95 -29.5t35 -80.5v-8q0 -9 -7 -17t-18 -8h-142q-182 -1 -182 -138zM100 691q0 44 29.5 73.5t73.5 29.5
t73.5 -29.5t29.5 -73.5t-29.5 -73t-73.5 -29t-73.5 29t-29.5 73zM150 691q0 -23 14.5 -37.5t38.5 -14.5t38.5 14.5t14.5 37.5q0 25 -14.5 39t-38.5 14t-38.5 -14t-14.5 -39zM164 173q0 42 28.5 62.5t74.5 20.5h109q9 0 17 -7t8 -18v-48q0 -1 -0.5 -3t-0.5 -3
q-11 -42 -49 -67.5t-86 -25.5q-44 0 -72.5 24.5t-28.5 64.5zM214 173q0 -39 51 -39q32 0 55.5 15t30.5 37v20h-84q-32 0 -42.5 -7.5t-10.5 -25.5zM293 691q0 44 29.5 73.5t73.5 29.5t73.5 -29.5t29.5 -73.5t-29.5 -73t-73.5 -29t-73.5 29t-29.5 73zM343 691
q0 -23 14.5 -37.5t38.5 -14.5t38.5 14.5t14.5 37.5q0 25 -14.5 39t-38.5 14t-38.5 -14t-14.5 -39z" />
    <glyph glyph-name="aring" unicode="&#xe5;" horiz-adv-x="600" 
d="M2 161q0 88 62 137.5t170 50.5h115q-10 43 -78 43q-69 0 -150 -42q-8 -5 -18.5 -2t-15.5 14l-49 114q-4 9 -0.5 19t12.5 14q135 63 261 63q119 0 189 -58.5t71 -161.5v-352q0 -11 -8 -18t-17 -7h-169q-11 0 -18 8t-7 17v5q-58 -38 -140 -38q-94 0 -152 54t-58 140z
M52 161q0 -65 42 -104.5t118 -39.5q99 0 145 60q14 16 24 12.5t15 -15.5l6 -12v-37h119v327q-1 81 -54 125.5t-156 44.5q-105 0 -217 -49l29 -67q80 36 148 36q60 0 95 -29.5t35 -80.5v-8q0 -9 -7 -17t-18 -8h-142q-182 -1 -182 -138zM153 694q0 60 42.5 102.5t103.5 42.5
t103.5 -42.5t42.5 -102.5t-42.5 -102.5t-103.5 -42.5t-103.5 42.5t-42.5 102.5zM164 173q0 42 28.5 62.5t74.5 20.5h109q9 0 17 -7t8 -18v-48q0 -1 -0.5 -3t-0.5 -3q-11 -42 -49 -67.5t-86 -25.5q-44 0 -72.5 24.5t-28.5 64.5zM203 694q0 -39 28 -67t68 -28t68 28t28 67
t-28 67t-68 28t-68 -28t-28 -67zM214 173q0 -39 51 -39q32 0 55.5 15t30.5 37v20h-84q-32 0 -42.5 -7.5t-10.5 -25.5zM221 694q0 32 23 54.5t55 22.5t55 -22.5t23 -54.5t-23 -54.5t-55 -22.5t-55 22.5t-23 54.5zM271 694q0 -11 8 -19t20 -8t20 8t8 19t-8.5 19t-19.5 8
t-19.5 -8t-8.5 -19z" />
    <glyph glyph-name="ae" unicode="&#xe6;" horiz-adv-x="966" 
d="M2 159q0 87 63 134.5t170 48.5h118q-7 50 -80 50q-72 0 -161 -43q-26 -11 -35 15l-40 116q-7 22 14 31q140 61 261 61q113 0 182 -52q69 50 169 50h19q137 -7 214.5 -100t70.5 -239q-1 -10 -8.5 -17t-16.5 -7h-354q27 -59 94 -59q64 0 112 48q16 16 35 0l91 -89
q7 -7 7.5 -17.5t-6.5 -17.5q-94 -103 -254 -103q-144 0 -222 94q-75 -96 -222 -96q-99 0 -160 52.5t-61 139.5zM52 159q0 -65 44.5 -103.5t126.5 -38.5q141 0 199 102q10 18 21 18t17 -9l5 -8q61 -101 202 -101q122 0 200 70l-56 55q-57 -46 -129 -46q-58 0 -99.5 35
t-53.5 94q-6 30 25 30h364q-2 122 -69.5 192.5t-185.5 70.5q-94 0 -153 -51q-17 -13 -33 1q-55 52 -165 52q-101 0 -220 -48l24 -68q86 36 157 36q59 0 95 -29.5t36 -80.5v-15q0 -9 -7 -17t-18 -8h-144q-183 -1 -183 -133zM164 173q0 42 30 64.5t76 22.5h109q9 0 17 -7
t8 -18v-62q0 -6 -3 -12q-44 -82 -135 -82q-44 0 -73 26t-29 68zM214 173q0 -44 52 -44q58 0 88 51v30h-84q-56 0 -56 -37zM399 142q-13 12 -8 22t17 16l12 6h5q20 -4 20 -25v-3q0 -22 -10.5 -27t-20.5 1l-10 6zM527 319q9 58 45.5 96.5t91.5 38.5q57 0 93.5 -40t36.5 -99
q0 -9 -7 -17t-18 -8h-217q-29 0 -25 29zM584 340h157q-14 64 -77 64q-57 0 -80 -64z" />
    <glyph glyph-name="ccedilla" unicode="&#xe7;" horiz-adv-x="562" 
d="M-1 268q0 134 85 218t220 84q86 0 154 -34.5t107 -98.5q5 -9 3 -19t-11 -15l-124 -75q-8 -5 -18 -3.5t-15 9.5q-33 46 -89 46q-39 0 -63.5 -29.5t-24.5 -81.5q0 -54 24.5 -83t63.5 -29q62 0 88 48q13 22 35 10l126 -74q9 -5 11.5 -16t-2.5 -18q-60 -108 -196 -132l-6 -13
q58 -30 58 -94q0 -58 -43 -93t-107 -35q-58 0 -109 35q-17 12 -9 31l32 71q0 1 1 3.5t5 7t8 6.5t11 0t15 -9q13 -13 32 -13q17 0 17 12q0 11 -21 11q-10 0 -32 -4h-11h-3.5t-7.5 1.5t-8 5t-2.5 11t5.5 18.5l25 51q-103 23 -163.5 101t-60.5 189zM49 268q0 -103 57.5 -168.5
t156.5 -77.5q17 -2 22 -11t1 -17l-3 -8l-20 -41q27 -2 46 -18.5t19 -42.5t-19.5 -44t-47.5 -18q-21 0 -38 8l-11 -24q34 -16 63 -16q47 0 73.5 21.5t26.5 56.5q0 44 -49 57q-30 7 -16 35l25 49q6 12 19 14q105 15 158 88l-83 49q-44 -53 -118 -53q-62 0 -100 46t-38 116
q0 69 38 115t100 46q69 0 115 -48l82 50q-70 88 -204 88q-116 0 -185.5 -68.5t-69.5 -183.5z" />
    <glyph glyph-name="egrave" unicode="&#xe8;" horiz-adv-x="602" 
d="M-1 268q0 135 85.5 218.5t220.5 83.5q5 0 13.5 -0.5t12.5 -0.5q139 -8 209.5 -102t61.5 -246q-1 -10 -8.5 -16.5t-16.5 -6.5h-108l2 -2l91 -89q7 -7 7.5 -17.5t-6.5 -17.5q-94 -103 -253 -103q-140 0 -225.5 83t-85.5 216zM49 268q0 -114 69.5 -181.5t191.5 -67.5
q121 0 199 70l-56 55q-57 -46 -128 -46q-56 0 -96 31.5t-55 87.5q-4 14 2.5 22t11.5 8.5t10 0.5h355q2 131 -60.5 201.5t-187.5 70.5q-116 0 -186 -68.5t-70 -183.5zM111 694q-1 1 -3.5 3t-6 7.5t-4.5 11t4.5 11.5t17.5 10l156 55q17 6 29 -11l106 -168v-1q1 -1 2.5 -3.5
t2.5 -5t2 -6t0.5 -6.5t-2 -6t-4.5 -5t-8.5 -3.5t-13.5 -1.5h-132q-10 0 -16 6zM170 320q9 57 45.5 93.5t91.5 36.5q57 0 93 -37.5t36 -96.5q0 -9 -7 -17t-18 -8h-216q-29 0 -25 29zM176 704l90 -79h78l-71 113zM228 341h155q-14 59 -76 59q-57 0 -79 -59zM235 198
q29 -50 90 -50q63 0 111 48l1 1q1 1 2 1h-204z" />
    <glyph glyph-name="eacute" unicode="&#xe9;" horiz-adv-x="602" 
d="M-1 268q0 135 85.5 218.5t220.5 83.5q5 0 13 -0.5t12 -0.5q139 -8 210 -102.5t62 -245.5q-1 -10 -8.5 -16.5t-16.5 -6.5h-108l2 -2l91 -89q7 -7 7.5 -17.5t-6.5 -17.5q-94 -103 -253 -103q-140 0 -225.5 83t-85.5 216zM49 268q0 -114 69.5 -181.5t191.5 -67.5
q121 0 199 70l-56 55q-57 -46 -128 -46q-56 0 -96 31.5t-55 87.5q-4 14 2.5 22t11.5 8.5t10 0.5h355q2 131 -60.5 201.5t-187.5 70.5q-116 0 -186 -68.5t-70 -183.5zM170 320q9 57 45.5 93.5t91.5 36.5q57 0 93 -37.5t36 -96.5q0 -9 -7 -17t-18 -8h-216q-29 0 -25 29z
M193 613l106 168q11 18 29 11l156 -55q2 0 4.5 -1t8 -5t8 -8.5t0 -12t-12.5 -16.5l-130 -113q-8 -6 -16 -6h-132h-5t-9.5 1.5t-10.5 5t-3.5 12t7.5 19.5zM228 341h155q-14 59 -76 59q-57 0 -79 -59zM235 198q29 -50 90 -50q63 0 111 48l1 1q1 1 2 1h-204zM259 625h78l90 79
l-97 34z" />
    <glyph glyph-name="ecircumflex" unicode="&#xea;" horiz-adv-x="602" 
d="M-1 268q0 135 85.5 218.5t220.5 83.5q5 0 13 -0.5t12 -0.5q139 -8 210 -102.5t62 -245.5q-1 -10 -8.5 -16.5t-16.5 -6.5h-108l2 -2l91 -89q7 -7 7.5 -17.5t-6.5 -17.5q-94 -103 -253 -103q-140 0 -225.5 83t-85.5 216zM49 268q0 -114 69.5 -181.5t191.5 -67.5
q121 0 199 70l-56 55q-57 -46 -128 -46q-56 0 -96 31.5t-55 87.5q-4 14 2.5 22t11.5 8.5t10 0.5h355q2 131 -60.5 201.5t-187.5 70.5q-116 0 -186 -68.5t-70 -183.5zM99 624l113 151q8 10 20 10h138q12 0 20 -10l113 -151q1 -2 3 -4.5t4 -9.5t1.5 -12t-7.5 -9.5t-21 -4.5
h-124q-14 0 -21 11l-37 55l-37 -55q-8 -11 -21 -11h-124q-2 0 -5 0.5t-10 2.5t-11 6t-3 12t9 19zM169 634h61l50 74q10 15 20.5 15t15.5 -7l6 -8l50 -74h61l-76 101h-112zM170 320q9 57 45.5 93.5t91.5 36.5q57 0 93 -37.5t36 -96.5q0 -9 -7 -17t-18 -8h-216q-29 0 -25 29z
M228 341h155q-14 59 -76 59q-57 0 -79 -59zM235 198q29 -50 90 -50q63 0 111 48l1 1q1 1 2 1h-204z" />
    <glyph glyph-name="edieresis" unicode="&#xeb;" horiz-adv-x="602" 
d="M-1 268q0 135 85.5 218.5t220.5 83.5q5 0 13 -0.5t12 -0.5q139 -8 210 -102.5t62 -245.5q-1 -10 -8.5 -16.5t-16.5 -6.5h-108l2 -2l91 -89q7 -7 7.5 -17.5t-6.5 -17.5q-94 -103 -253 -103q-140 0 -225.5 83t-85.5 216zM49 268q0 -114 69.5 -181.5t191.5 -67.5
q121 0 199 70l-56 55q-57 -46 -128 -46q-56 0 -96 31.5t-55 87.5q-4 14 2.5 22t11.5 8.5t10 0.5h355q2 131 -60.5 201.5t-187.5 70.5q-116 0 -186 -68.5t-70 -183.5zM102 691q0 44 29.5 73.5t73.5 29.5t73.5 -29.5t29.5 -73.5t-29.5 -73t-73.5 -29t-73.5 29t-29.5 73z
M152 691q0 -23 14.5 -37.5t38.5 -14.5t38.5 14.5t14.5 37.5q0 25 -14.5 39t-38.5 14t-38.5 -14t-14.5 -39zM170 320q9 57 45.5 93.5t91.5 36.5q57 0 93 -37.5t36 -96.5q0 -9 -7 -17t-18 -8h-216q-29 0 -25 29zM228 341h155q-14 59 -76 59q-57 0 -79 -59zM235 198
q29 -50 90 -50q63 0 111 48l1 1q1 1 2 1h-204zM295 691q0 44 29.5 73.5t73.5 29.5t73.5 -29.5t29.5 -73.5t-29.5 -73t-73.5 -29t-73.5 29t-29.5 73zM345 691q0 -23 14.5 -37.5t38.5 -14.5t38.5 14.5t14.5 37.5q0 25 -14.5 39t-38.5 14t-38.5 -14t-14.5 -39z" />
    <glyph glyph-name="igrave" unicode="&#xec;" horiz-adv-x="311" 
d="M-34 694q-1 1 -3.5 3t-6 7.5t-4.5 11t4.5 11.5t17.5 10l156 55q17 6 29 -11l106 -168l1 -1q0 -1 1.5 -3.5t2.5 -5t2 -6t0.5 -6.5t-2 -6t-4.5 -5t-8.5 -3.5t-13.5 -1.5h-132q-10 0 -16 6zM31 704l90 -79h78l-71 113zM44 0v539q0 11 8 18t17 7h172q11 0 18 -8t7 -17v-539
q0 -11 -8 -18t-17 -7h-172q-11 0 -18 8t-7 17zM94 25h122v489h-122v-489z" />
    <glyph glyph-name="iacute" unicode="&#xed;" horiz-adv-x="311" 
d="M44 0v539q0 11 8 18t17 7h172q11 0 18 -8t7 -17v-539q0 -11 -8 -18t-17 -7h-172q-11 0 -18 8t-7 17zM48 613l106 168q11 18 29 11l156 -55q2 0 4.5 -1t8 -5t8 -8.5t0 -12t-12.5 -16.5l-130 -113q-7 -6 -16 -6h-132h-5t-9.5 1.5t-10.5 5t-3.5 12t7.5 19.5zM94 25h122v489
h-122v-489zM114 625h78l90 79l-97 34z" />
    <glyph glyph-name="icircumflex" unicode="&#xee;" horiz-adv-x="311" 
d="M-46 625l113 151q8 10 20 10h138q12 0 20 -10l113 -151q1 -2 3 -4.5t4 -9.5t1.5 -12t-7.5 -9.5t-21 -4.5h-124q-14 0 -21 11l-37 55l-37 -55q-8 -11 -21 -11h-124q-2 0 -5 0.5t-10 2.5t-11 6t-3 12t9 19zM24 635h61l50 74q10 15 20.5 15t16.5 -8l5 -7l50 -74h61l-76 101
h-112zM44 0v539q0 11 8 18t17 7h172q11 0 18 -8t7 -17v-539q0 -11 -8 -18t-17 -7h-172q-11 0 -18 8t-7 17zM94 25h122v489h-122v-489z" />
    <glyph glyph-name="idieresis" unicode="&#xef;" horiz-adv-x="311" 
d="M-43 691q0 44 29.5 73.5t73.5 29.5t73.5 -29.5t29.5 -73.5t-29.5 -73t-73.5 -29t-73.5 29t-29.5 73zM7 691q0 -23 14.5 -37.5t38.5 -14.5t38.5 14.5t14.5 37.5q0 25 -14.5 39t-38.5 14t-38.5 -14t-14.5 -39zM44 0v539q0 11 8 18t17 7h172q11 0 18 -8t7 -17v-539
q0 -11 -8 -18t-17 -7h-172q-11 0 -18 8t-7 17zM94 25h122v489h-122v-489zM150 691q0 44 29.5 73.5t73.5 29.5t73.5 -29.5t29.5 -73.5t-29.5 -73t-73.5 -29t-73.5 29t-29.5 73zM200 691q0 -23 14.5 -37.5t38.5 -14.5t38.5 14.5t14.5 37.5q0 25 -14.5 39t-38.5 14t-38.5 -14
t-14.5 -39z" />
    <glyph glyph-name="eth" unicode="&#xf0;" horiz-adv-x="604" 
d="M-3 226q0 110 69.5 177t182.5 67q51 0 97 -16q-19 28 -50 59l-148 -49q-10 -3 -19.5 1.5t-12.5 14.5l-26 80q-3 10 2 19.5t14 12.5l65 21q-33 21 -80 43q-2 1 -4.5 2.5t-8 6t-7.5 9.5t2 12t16 14l116 70q10 6 22 2q89 -36 158 -87l130 44q9 4 19 -1.5t13 -14.5l27 -80
q3 -10 -1.5 -19.5t-14.5 -12.5l-63 -21q110 -137 110 -296q0 -142 -89 -229.5t-233 -87.5q-128 0 -207 71t-79 188zM47 226q0 -96 63 -152.5t173 -56.5q126 0 199 72t73 195q0 159 -121 291q-13 16 -10.5 25t11.5 12l9 4l74 25l-11 32l-119 -40q-11 -5 -23 4q-64 50 -145 84
l-66 -40q37 -19 87 -55q18 -14 16.5 -24t-11.5 -15l-11 -5l-90 -30l11 -32l139 46q14 5 25 -6q84 -81 114 -167q4 -13 -6.5 -19t-23.5 -6l-13 1q-19 22 -58 36.5t-84 14.5q-94 0 -148 -52t-54 -142zM162 234q0 54 36 87.5t92 33.5q57 0 94 -34.5t37 -88.5q0 -55 -36.5 -88.5
t-94.5 -33.5q-56 0 -92 34.5t-36 89.5zM212 234q0 -35 20.5 -54.5t57.5 -19.5q40 0 60.5 19t20.5 53t-20.5 53.5t-60.5 19.5q-78 0 -78 -71z" />
    <glyph glyph-name="ntilde" unicode="&#xf1;" horiz-adv-x="673" 
d="M44 0v539q0 11 8 18t17 7h173q11 0 18 -8t7 -17v-20q60 51 155 53q100 0 161 -64t61 -168v-340q0 -11 -8 -18t-17 -7h-172q-11 0 -18 8t-7 17v292q0 77 -70 77q-36 0 -58 -22.5t-27 -62.5v-284q0 -11 -8 -18t-17 -7h-173q-11 0 -18 8t-7 17zM94 25h123v260v3q6 57 42 94
t93 37q54 0 87 -35.5t33 -91.5v-267h122v315q0 85 -46.5 133.5t-125.5 48.5q-110 -2 -159 -84q-11 -15 -21 -12t-18 14l-7 11v63h-123v-489zM150 621q0 85 32.5 133t97.5 48q20 0 39 -5t32 -12t23 -13.5t16 -11.5l5 -5h3q3 3 3 17q0 11 8 18t17 7h105q11 0 18 -8t7 -17
q0 -85 -32 -132.5t-97 -47.5q-20 0 -39.5 5t-32.5 12t-23 13.5t-16 11.5l-5 5h-2q-3 -3 -3 -18q0 -11 -8 -18t-17 -7h-106q-11 0 -18 8t-7 17zM201 646h58q7 24 21 34q13 9 31 9q28 0 60 -23.5t56 -23.5q37 0 55.5 23t22.5 82h-57q-5 -21 -20 -32q-12 -10 -33 -10
q-28 0 -60 23.5t-55 23.5q-37 0 -56 -23.5t-23 -82.5z" />
    <glyph glyph-name="ograve" unicode="&#xf2;" horiz-adv-x="637" 
d="M-1 270q0 134 89 217t231 83q141 0 230 -83t89 -217q0 -135 -89 -218t-230 -83q-142 0 -231 83t-89 218zM49 270q0 -114 73.5 -182.5t196.5 -68.5t196 68.5t73 182.5t-73 182t-196 68q-124 0 -197 -68t-73 -182zM129 694q-1 1 -3.5 3t-6 7.5t-4.5 11t4.5 11.5t17.5 10
l156 55q17 6 29 -11l106 -168v-1q1 -1 2.5 -3.5t2.5 -5t2 -6t0.5 -6.5t-2 -6t-4.5 -5t-8.5 -3.5t-13.5 -1.5h-132q-10 0 -16 6zM173 268q0 71 40.5 118t105.5 47q64 0 104.5 -47t40.5 -118t-40.5 -118t-104.5 -47q-65 0 -105.5 47t-40.5 118zM194 704l90 -79h78l-71 113z
M223 268q0 -54 26.5 -84.5t69.5 -30.5q42 0 68.5 30.5t26.5 84.5t-26.5 84.5t-68.5 30.5q-43 0 -69.5 -30.5t-26.5 -84.5z" />
    <glyph glyph-name="oacute" unicode="&#xf3;" horiz-adv-x="637" 
d="M-1 270q0 134 89 217t231 83q141 0 230 -83t89 -217q0 -135 -89 -218t-230 -83q-142 0 -231 83t-89 218zM49 270q0 -114 73.5 -182.5t196.5 -68.5t196 68.5t73 182.5t-73 182t-196 68q-124 0 -197 -68t-73 -182zM173 268q0 71 40.5 118t105.5 47q64 0 104.5 -47
t40.5 -118t-40.5 -118t-104.5 -47q-65 0 -105.5 47t-40.5 118zM211 613l106 168q11 18 29 11l156 -55q2 0 4.5 -1t8 -5t8 -8.5t0 -12t-12.5 -16.5l-130 -113q-8 -6 -16 -6h-132h-5t-9.5 1.5t-10.5 5t-3.5 12t7.5 19.5zM223 268q0 -54 26.5 -84.5t69.5 -30.5q42 0 68.5 30.5
t26.5 84.5t-26.5 84.5t-68.5 30.5q-43 0 -69.5 -30.5t-26.5 -84.5zM277 625h78l90 79l-97 34z" />
    <glyph glyph-name="ocircumflex" unicode="&#xf4;" horiz-adv-x="637" 
d="M-1 270q0 134 89 217t231 83q141 0 230 -83t89 -217q0 -135 -89 -218t-230 -83q-142 0 -231 83t-89 218zM49 270q0 -114 73.5 -182.5t196.5 -68.5t196 68.5t73 182.5t-73 182t-196 68q-124 0 -197 -68t-73 -182zM117 624l113 151q8 10 20 10h138q12 0 20 -10l113 -151
q1 -2 3 -4.5t4 -9.5t1.5 -12t-7.5 -9.5t-21 -4.5h-124q-14 0 -21 11l-37 55l-37 -55q-8 -11 -21 -11h-124q-2 0 -5 0.5t-10 2.5t-11 6t-3 12t9 19zM173 268q0 71 40.5 118t105.5 47q64 0 104.5 -47t40.5 -118t-40.5 -118t-104.5 -47q-65 0 -105.5 47t-40.5 118zM187 634h61
l50 74q10 15 20.5 15t15.5 -7l6 -8l50 -74h61l-76 101h-112zM223 268q0 -54 26.5 -84.5t69.5 -30.5q42 0 68.5 30.5t26.5 84.5t-26.5 84.5t-68.5 30.5q-43 0 -69.5 -30.5t-26.5 -84.5z" />
    <glyph glyph-name="otilde" unicode="&#xf5;" horiz-adv-x="637" 
d="M-1 270q0 134 89 217t231 83q141 0 230 -83t89 -217q0 -135 -89 -218t-230 -83q-142 0 -231 83t-89 218zM49 270q0 -114 73.5 -182.5t196.5 -68.5t196 68.5t73 182.5t-73 182t-196 68q-124 0 -197 -68t-73 -182zM115 621q0 85 32.5 133t97.5 48q20 0 39 -5t32 -12
t23 -13.5t15 -11.5l6 -5h3q3 3 3 17q0 11 8 18t17 7h105q11 0 18 -8t7 -17q0 -85 -32 -132.5t-97 -47.5q-20 0 -39.5 5t-32.5 12t-23 13.5t-15 11.5l-6 5h-2q-3 -3 -3 -18q0 -11 -8 -18t-17 -7h-106q-11 0 -18 8t-7 17zM166 646h58q7 24 21 34q13 9 31 9q28 0 60 -23.5
t56 -23.5q37 0 55.5 23t22.5 82h-57q-5 -21 -20 -32q-13 -10 -33 -10q-28 0 -60 23.5t-55 23.5q-37 0 -56 -23.5t-23 -82.5zM173 268q0 71 40.5 118t105.5 47q64 0 104.5 -47t40.5 -118t-40.5 -118t-104.5 -47q-65 0 -105.5 47t-40.5 118zM223 268q0 -54 26.5 -84.5
t69.5 -30.5q42 0 68.5 30.5t26.5 84.5t-26.5 84.5t-68.5 30.5q-43 0 -69.5 -30.5t-26.5 -84.5z" />
    <glyph glyph-name="odieresis" unicode="&#xf6;" horiz-adv-x="637" 
d="M-1 270q0 134 89 217t231 83q141 0 230 -83t89 -217q0 -135 -89 -218t-230 -83q-142 0 -231 83t-89 218zM49 270q0 -114 73.5 -182.5t196.5 -68.5t196 68.5t73 182.5t-73 182t-196 68q-124 0 -197 -68t-73 -182zM120 691q0 44 29.5 73.5t73.5 29.5t73.5 -29.5t29.5 -73.5
t-29.5 -73t-73.5 -29t-73.5 29t-29.5 73zM170 691q0 -23 14.5 -37.5t38.5 -14.5t38.5 14.5t14.5 37.5q0 25 -14.5 39t-38.5 14t-38.5 -14t-14.5 -39zM173 268q0 71 40.5 118t105.5 47q64 0 104.5 -47t40.5 -118t-40.5 -118t-104.5 -47q-65 0 -105.5 47t-40.5 118zM223 268
q0 -54 26.5 -84.5t69.5 -30.5q42 0 68.5 30.5t26.5 84.5t-26.5 84.5t-68.5 30.5q-43 0 -69.5 -30.5t-26.5 -84.5zM313 691q0 44 29.5 73.5t73.5 29.5t73.5 -29.5t29.5 -73.5t-29.5 -73t-73.5 -29t-73.5 29t-29.5 73zM363 691q0 -23 14.5 -37.5t38.5 -14.5t38.5 14.5
t14.5 37.5q0 25 -14.5 39t-38.5 14t-38.5 -14t-14.5 -39z" />
    <glyph glyph-name="divide" unicode="&#xf7;" horiz-adv-x="510" 
d="M8 272v109q0 11 8 18t17 7h444q11 0 18 -8t7 -17v-109q0 -11 -8 -18t-17 -7h-444q-11 0 -18 8t-7 17zM58 297h394v59h-394v-59zM144 149q0 43 30 73t73 30q44 0 73.5 -29.5t29.5 -73.5t-29.5 -73.5t-73.5 -29.5q-43 0 -73 30t-30 73zM144 506q0 44 29.5 73.5t73.5 29.5
t73.5 -29.5t29.5 -73.5t-29.5 -73t-73.5 -29t-73.5 29t-29.5 73zM194 149q0 -24 14.5 -38.5t38.5 -14.5q25 0 39 14.5t14 38.5t-14 38.5t-39 14.5q-24 0 -38.5 -14.5t-14.5 -38.5zM194 506q0 -23 14.5 -37.5t38.5 -14.5q25 0 39 14t14 38q0 25 -14 39t-39 14
q-24 0 -38.5 -14t-14.5 -39z" />
    <glyph glyph-name="oslash" unicode="&#xf8;" horiz-adv-x="637" 
d="M-1 270q0 134 89 217t231 83q25 0 35 -1l36 110q5 17 24 17h71q5 0 10.5 -0.5t12 -9t1.5 -23.5l-40 -122q80 -35 124.5 -106.5t44.5 -164.5q0 -135 -89 -218t-230 -83q-25 0 -35 1l-39 -120q-5 -17 -24 -17h-71q-5 0 -10.5 0.5t-12 9t-1.5 23.5l43 132q-80 35 -125 106.5
t-45 165.5zM49 270q0 -85 42 -145.5t117 -87.5q10 -3 14.5 -12.5t1.5 -19.5l-40 -122h19l39 122q6 19 27 17q24 -3 50 -3q123 0 196 68.5t73 182.5q0 85 -41.5 145t-116.5 87q-9 3 -14 12.5t-2 19.5l37 112h-19l-36 -112q-7 -19 -27 -17q-24 3 -50 3q-124 0 -197 -68
t-73 -182zM162 268q0 78 43.5 128.5t113.5 50.5h2l14 -1q32 -2 22 -33l-92 -282q-3 -10 -8.5 -15t-10.5 -5t-9.5 1.5t-7.5 3.5l-3 3q-64 49 -64 149zM212 268q0 -45 19 -80l67 207q-39 -8 -62.5 -41t-23.5 -86zM280 123l92 282q5 17 15 19.5t17 -2.5l8 -6q63 -50 63 -148
q0 -78 -43 -128.5t-113 -50.5h-2l-15 1q-32 2 -22 33zM339 141q40 7 63 39.5t23 87.5q0 44 -19 79z" />
    <glyph glyph-name="ugrave" unicode="&#xf9;" horiz-adv-x="663" 
d="M28 199v340q0 11 8 18t17 7h173q11 0 18 -8t7 -17v-291q0 -78 65 -78q37 1 58.5 28t21.5 75v266q0 11 8 18t17 7h173q11 0 18 -8t7 -17v-539q0 -11 -8 -18t-17 -7h-173q-11 0 -18 8t-7 17v19q-60 -51 -150 -51q-98 0 -158 63.5t-60 167.5zM78 199q0 -85 45 -133t123 -48
q105 0 153 84q11 15 21.5 12t17.5 -14l8 -11v-64h123v489h-123v-241q0 -64 -34.5 -108t-95.5 -45q-52 0 -83.5 36t-31.5 92v266h-123v-315zM137 694q-1 1 -3.5 3t-6 7.5t-4.5 11t4.5 11.5t17.5 10l156 55q17 6 29 -11l106 -168v-1q1 -1 2.5 -3.5t2.5 -5t2 -6t0.5 -6.5t-2 -6
t-4.5 -5t-8.5 -3.5t-13.5 -1.5h-132q-10 0 -16 6zM202 704l90 -79h78l-71 113z" />
    <glyph glyph-name="uacute" unicode="&#xfa;" horiz-adv-x="663" 
d="M28 199v340q0 11 8 18t17 7h173q11 0 18 -8t7 -17v-291q0 -78 65 -78q37 1 58.5 28t21.5 75v266q0 11 8 18t17 7h173q11 0 18 -8t7 -17v-539q0 -11 -8 -18t-17 -7h-173q-11 0 -18 8t-7 17v19q-60 -51 -150 -51q-98 0 -158 63.5t-60 167.5zM78 199q0 -85 45 -133t123 -48
q105 0 153 84q11 15 21.5 12t17.5 -14l8 -11v-64h123v489h-123v-241q0 -64 -34.5 -108t-95.5 -45q-52 0 -83.5 36t-31.5 92v266h-123v-315zM219 613l106 168q11 18 29 11l156 -55q2 0 4.5 -1t8 -5t8 -8.5t0 -12t-12.5 -16.5l-130 -113q-8 -6 -16 -6h-132h-5t-9.5 1.5
t-10.5 5t-3.5 12t7.5 19.5zM285 625h78l90 79l-97 34z" />
    <glyph glyph-name="ucircumflex" unicode="&#xfb;" horiz-adv-x="663" 
d="M28 199v340q0 11 8 18t17 7h173q11 0 18 -8t7 -17v-291q0 -78 65 -78q37 1 58.5 28t21.5 75v266q0 11 8 18t17 7h173q11 0 18 -8t7 -17v-539q0 -11 -8 -18t-17 -7h-173q-11 0 -18 8t-7 17v19q-60 -51 -150 -51q-98 0 -158 63.5t-60 167.5zM78 199q0 -85 45 -133t123 -48
q105 0 153 84q11 15 21.5 12t17.5 -14l8 -11v-64h123v489h-123v-241q0 -64 -34.5 -108t-95.5 -45q-52 0 -83.5 36t-31.5 92v266h-123v-315zM125 625l113 151q8 10 20 10h138q12 0 20 -10l113 -151q1 -2 3 -4.5t4 -9.5t1.5 -12t-7.5 -9.5t-21 -4.5h-124q-14 0 -21 11l-37 55
l-37 -55q-8 -11 -21 -11h-124q-2 0 -5 0.5t-10 2.5t-11 6t-3 12t9 19zM195 635h61l50 74q10 15 20.5 15t15.5 -8l6 -7l50 -74h61l-76 101h-112z" />
    <glyph glyph-name="udieresis" unicode="&#xfc;" horiz-adv-x="663" 
d="M28 199v340q0 11 8 18t17 7h173q11 0 18 -8t7 -17v-291q0 -78 65 -78q37 1 58.5 28t21.5 75v266q0 11 8 18t17 7h173q11 0 18 -8t7 -17v-539q0 -11 -8 -18t-17 -7h-173q-11 0 -18 8t-7 17v19q-60 -51 -150 -51q-98 0 -158 63.5t-60 167.5zM78 199q0 -85 45 -133t123 -48
q105 0 153 84q11 15 21.5 12t17.5 -14l8 -11v-64h123v489h-123v-241q0 -64 -34.5 -108t-95.5 -45q-52 0 -83.5 36t-31.5 92v266h-123v-315zM128 691q0 44 29.5 73.5t73.5 29.5t73.5 -29.5t29.5 -73.5t-29.5 -73t-73.5 -29t-73.5 29t-29.5 73zM178 691q0 -23 14.5 -37.5
t38.5 -14.5t38.5 14.5t14.5 37.5q0 25 -14.5 39t-38.5 14t-38.5 -14t-14.5 -39zM321 691q0 44 29.5 73.5t73.5 29.5t73.5 -29.5t29.5 -73.5t-29.5 -73t-73.5 -29t-73.5 29t-29.5 73zM371 691q0 -23 14.5 -37.5t38.5 -14.5t38.5 14.5t14.5 37.5q0 25 -14.5 39t-38.5 14
t-38.5 -14t-14.5 -39z" />
    <glyph glyph-name="yacute" unicode="&#xfd;" horiz-adv-x="580" 
d="M-35 529q-1 1 -2 3.5t-2 8.5t0.5 10.5t8 8.5t18.5 4h178q17 0 23 -16l108 -291l94 290q5 17 24 17h172h4t8.5 -1.5t9 -5t5 -10t-3.5 -17.5l-233 -595q-66 -162 -231 -162q-94 0 -172 60q-17 14 -6 33l72 118q5 9 14 12t23 -5q31 -24 55 -24q31 0 44 29l9 17zM22 -140
q55 -37 124 -37q132 0 185 130l219 561h-117l-111 -341q-4 -12 -10 -17t-12.5 -2.5t-12 6.5t-9.5 8l-3 4l-126 342h-123l209 -492q5 -10 0 -21l-13 -27q-28 -57 -90 -57q-32 0 -64 18zM183 613l106 168q11 18 29 11l156 -55q2 0 4.5 -1t8 -5t8 -8.5t0 -12t-12.5 -16.5
l-130 -113q-8 -6 -16 -6h-132h-5t-9.5 1.5t-10.5 5t-3.5 12t7.5 19.5zM249 625h78l90 79l-97 34z" />
    <glyph glyph-name="thorn" unicode="&#xfe;" horiz-adv-x="685" 
d="M49 -194v936q0 11 8 18t17 7h173q11 0 18 -8t7 -17v-215q58 43 136 43q125 0 201.5 -84.5t76.5 -218.5q0 -132 -75 -215t-199 -83q-82 0 -140 43v-206q0 -11 -8 -18t-17 -7h-173q-11 0 -18 8t-7 17zM99 -169h123v241q0 20 11 24t23 -2l11 -7q51 -68 145 -68q102 0 163 67
t61 181q0 116 -62.5 184.5t-165.5 68.5q-90 0 -141 -67q-14 -16 -24 -12.5t-15 15.5l-6 12v249h-123v-886zM222 272q0 70 40 117.5t104 47.5q65 0 105.5 -47.5t40.5 -117.5q0 -71 -40.5 -118.5t-105.5 -47.5q-64 0 -104 47t-40 119zM272 272q0 -54 26.5 -85t67.5 -31
q43 0 69.5 31t26.5 85q0 53 -26.5 84t-69.5 31q-41 0 -67.5 -31t-26.5 -84z" />
    <glyph glyph-name="ydieresis" unicode="&#xff;" horiz-adv-x="580" 
d="M-35 529q-1 1 -2 3.5t-2 8.5t0.5 10.5t8 8.5t18.5 4h178q17 0 23 -16l108 -291l94 290q5 17 24 17h172h4t8.5 -1.5t9 -5t5 -10t-3.5 -17.5l-233 -595q-66 -162 -231 -162q-94 0 -172 60q-17 14 -6 33l72 118q5 9 14 12t23 -5q31 -24 55 -24q31 0 44 29l9 17zM22 -140
q55 -37 124 -37q132 0 185 130l219 561h-117l-111 -341q-4 -12 -10 -17t-12.5 -2.5t-12 6.5t-9.5 8l-3 4l-126 342h-123l209 -492q5 -10 0 -21l-13 -27q-28 -57 -90 -57q-32 0 -64 18zM92 691q0 44 29.5 73.5t73.5 29.5t73.5 -29.5t29.5 -73.5t-29.5 -73t-73.5 -29t-73.5 29
t-29.5 73zM142 691q0 -23 14.5 -37.5t38.5 -14.5t38.5 14.5t14.5 37.5q0 25 -14.5 39t-38.5 14t-38.5 -14t-14.5 -39zM285 691q0 44 29.5 73.5t73.5 29.5t73.5 -29.5t29.5 -73.5t-29.5 -73t-73.5 -29t-73.5 29t-29.5 73zM335 691q0 -23 14.5 -37.5t38.5 -14.5t38.5 14.5
t14.5 37.5q0 25 -14.5 39t-38.5 14t-38.5 -14t-14.5 -39z" />
    <glyph glyph-name="Amacron" unicode="&#x100;" horiz-adv-x="770" 
d="M-28 10l302 700q7 15 23 15h183q17 0 23 -15l295 -700q1 -1 2 -3.5t2 -8.5t-0.5 -10.5t-8 -8.5t-18.5 -4h-190q-16 0 -23 16l-44 113h-272l-45 -113q-6 -16 -23 -16h-183h-4t-9 1t-9.5 4.5t-4.5 10.5t4 19zM33 25h128l45 113q7 16 23 16h306q17 0 23 -16l44 -113h135
l-274 650h-150zM221 793v116q0 11 8 18t17 7h278q11 0 18 -8t7 -17v-116q0 -11 -8 -18t-17 -7h-278q-11 0 -18 8t-7 17zM258 273l102 259q8 20 19.5 20t18.5 -10l8 -10l100 -259q5 -18 0 -25.5t-14 -7.5l-9 -1h-202q-18 0 -23.5 8.5t-2.5 16.5zM271 818h228v66h-228v-66z
M318 289h129l-64 165z" />
    <glyph glyph-name="amacron" unicode="&#x101;" horiz-adv-x="600" 
d="M2 161q0 88 62 137.5t170 50.5h115q-10 43 -78 43q-69 0 -150 -42q-8 -5 -18.5 -2t-15.5 14l-49 114q-4 9 -0.5 19t12.5 14q135 63 261 63q119 0 189 -58.5t71 -161.5v-352q0 -11 -8 -18t-17 -7h-169q-11 0 -18 8t-7 17v5q-58 -38 -140 -38q-94 0 -152 54t-58 140z
M52 161q0 -65 42 -104.5t118 -39.5q99 0 145 60q14 16 24 12.5t15 -15.5l6 -12v-37h119v327q-1 81 -54 125.5t-156 44.5q-105 0 -217 -49l29 -67q80 36 148 36q60 0 95 -29.5t35 -80.5v-8q0 -9 -7 -17t-18 -8h-142q-182 -1 -182 -138zM135 632v116q0 11 8 18t17 7h278
q11 0 18 -8t7 -17v-116q0 -11 -8 -18t-17 -7h-278q-11 0 -18 8t-7 17zM164 173q0 42 28.5 62.5t74.5 20.5h109q9 0 17 -7t8 -18v-48q0 -1 -0.5 -3t-0.5 -3q-11 -42 -49 -67.5t-86 -25.5q-44 0 -72.5 24.5t-28.5 64.5zM185 657h228v66h-228v-66zM214 173q0 -39 51 -39
q32 0 55.5 15t30.5 37v20h-84q-32 0 -42.5 -7.5t-10.5 -25.5z" />
    <glyph glyph-name="Abreve" unicode="&#x102;" horiz-adv-x="770" 
d="M-28 10l302 700q7 15 23 15h183q17 0 23 -15l295 -700q1 -1 2 -3.5t2 -8.5t-0.5 -10.5t-8 -8.5t-18.5 -4h-190q-16 0 -23 16l-44 113h-272l-45 -113q-6 -16 -23 -16h-183h-4t-9 1t-9.5 4.5t-4.5 10.5t4 19zM33 25h128l45 113q7 16 23 16h306q17 0 23 -16l44 -113h135
l-274 650h-150zM196 919q-1 10 6 18t19 8h108q10 0 17 -7t8 -16q3 -35 31 -35t31 35q1 10 8.5 16.5t16.5 6.5h108q10 0 18 -7.5t7 -18.5q-5 -81 -57 -131.5t-132 -50.5t-132 50.5t-57 131.5zM249 895q10 -51 46 -79.5t90 -28.5q55 0 90 28.5t46 79.5h-60q-9 -26 -29 -42
t-47 -16t-47.5 16t-28.5 42h-60zM258 273l102 259q8 20 19.5 20t18.5 -10l8 -10l100 -259q5 -18 0 -25.5t-14 -7.5l-9 -1h-202q-18 0 -23.5 8.5t-2.5 16.5zM318 289h129l-64 165z" />
    <glyph glyph-name="abreve" unicode="&#x103;" horiz-adv-x="600" 
d="M2 161q0 88 62 137.5t170 50.5h115q-10 43 -78 43q-69 0 -150 -42q-8 -5 -18.5 -2t-15.5 14l-49 114q-4 9 -0.5 19t12.5 14q135 63 261 63q119 0 189 -58.5t71 -161.5v-352q0 -11 -8 -18t-17 -7h-169q-11 0 -18 8t-7 17v5q-58 -38 -140 -38q-94 0 -152 54t-58 140z
M52 161q0 -65 42 -104.5t118 -39.5q99 0 145 60q14 16 24 12.5t15 -15.5l6 -12v-37h119v327q-1 81 -54 125.5t-156 44.5q-105 0 -217 -49l29 -67q80 36 148 36q60 0 95 -29.5t35 -80.5v-8q0 -9 -7 -17t-18 -8h-142q-182 -1 -182 -138zM110 758q-1 10 6 18t19 8h108
q10 0 17 -7t8 -16q3 -35 31 -35t31 35q1 10 8.5 16.5t16.5 6.5h108q10 0 18 -7.5t7 -18.5q-5 -81 -57 -131.5t-132 -50.5t-132 50.5t-57 131.5zM163 734q10 -51 46 -79.5t90 -28.5q55 0 90 28.5t46 79.5h-60q-9 -26 -29 -42t-47 -16t-47.5 16t-28.5 42h-60zM164 173
q0 42 28.5 62.5t74.5 20.5h109q9 0 17 -7t8 -18v-48q0 -1 -0.5 -3t-0.5 -3q-11 -42 -49 -67.5t-86 -25.5q-44 0 -72.5 24.5t-28.5 64.5zM214 173q0 -39 51 -39q32 0 55.5 15t30.5 37v20h-84q-32 0 -42.5 -7.5t-10.5 -25.5z" />
    <glyph glyph-name="Aogonek" unicode="&#x104;" horiz-adv-x="770" 
d="M-28 10l302 701q7 15 23 15h183q17 0 23 -15l295 -701q1 -1 2 -3.5t2 -8.5t-0.5 -10.5t-8 -8.5t-18.5 -4h-38q-29 -45 -31 -65q9 4 18 19q18 27 40 2l44 -51q12 -14 3 -29q-47 -79 -130 -79q-43 0 -78 27t-35 81q0 44 28 95h-10q-16 0 -23 16l-45 113h-271l-46 -113
q-6 -16 -23 -16h-183h-4t-9 1t-9.5 4.5t-4.5 10.5t4 19zM33 25h128l46 113q7 16 23 16h305q17 0 23 -16l45 -113h38q21 0 26.5 -9.5t0.5 -19.5l-6 -10q-44 -67 -44 -106q0 -58 63 -58q46 0 77 40l-13 15q-20 -18 -43 -18q-16 0 -27 8q-19 14 -19 41q0 38 47 106q7 11 21 11
h13l-274 651h-150zM258 273l103 259q8 20 19.5 20t19.5 -10l7 -10l101 -259q6 -18 1 -25.5t-15 -7.5l-9 -1h-204q-18 0 -23.5 8.5t-2.5 16.5zM318 289h130l-64 166z" />
    <glyph glyph-name="aogonek" unicode="&#x105;" horiz-adv-x="605" 
d="M2 161q0 88 62.5 137.5t170.5 50.5h117q-12 43 -80 43t-151 -42q-9 -5 -19.5 -2t-14.5 14l-49 114q-4 9 -0.5 19t12.5 14q135 63 263 63q119 0 189.5 -58.5t71.5 -161.5v-352q0 -11 -8 -18t-17 -7h-28q-30 -45 -32 -65q8 4 19 19q18 27 40 2l44 -51q12 -14 3 -29
q-46 -79 -130 -79q-43 0 -78 27t-35 81q0 44 28 95q-11 0 -18.5 8t-7.5 17v5q-58 -38 -141 -38q-95 0 -153 54.5t-58 139.5zM52 161q0 -65 42 -104.5t119 -39.5q100 0 146 60q14 16 24 12.5t15 -15.5l6 -12v-37h21q22 0 27 -9.5t-1 -19.5l-6 -10q-43 -60 -43 -106
q0 -58 63 -58q46 0 77 40l-13 15q-22 -18 -43 -18q-16 0 -28 8q-19 14 -19 41q0 36 48 106q7 11 21 11h16v327q-1 81 -54.5 125.5t-156.5 44.5q-104 0 -219 -49l29 -67q81 36 149 36q59 0 94.5 -29t37.5 -80v-9q0 -9 -7 -17t-18 -8h-144q-92 -1 -137.5 -37t-45.5 -101z
M164 173q0 41 29 62t75 21h111q9 0 17 -7t8 -18v-50q0 -5 -1 -7q-11 -40 -50.5 -65t-86.5 -25q-44 0 -73 24.5t-29 64.5zM214 173q0 -39 52 -39q31 0 56.5 16t31.5 35v21h-86q-34 0 -44 -7.5t-10 -25.5z" />
    <glyph glyph-name="Cacute" unicode="&#x106;" horiz-adv-x="692" 
d="M-1 352q0 162 115 270.5t284 108.5q83 0 163 -34t137 -92q16 -16 1 -33l-103 -122q-21 -21 -38 0q-31 38 -74 60t-83 22q-73 0 -121.5 -51t-48.5 -127q0 -78 49 -129.5t121 -51.5q38 0 81.5 20t76.5 54q18 18 36 0l104 -110q16 -18 0 -34q-60 -62 -142.5 -99t-164.5 -37
q-168 0 -280.5 110.5t-112.5 274.5zM49 352q0 -144 97.5 -239.5t245.5 -95.5q65 0 133 28t121 76l-70 74q-84 -72 -175 -72q-94 0 -157 67t-63 164q0 96 63.5 162t156.5 66q95 0 175 -78l70 82q-49 44 -115.5 69.5t-132.5 25.5q-150 0 -249.5 -94t-99.5 -235zM276 774
l106 168q11 18 29 11l156 -55q2 0 4.5 -1t8 -5t8 -8.5t0 -12t-12.5 -16.5l-130 -113q-7 -6 -16 -6h-132h-5t-9.5 1.5t-10.5 5t-3.5 12t7.5 19.5zM342 786h78l90 79l-97 34z" />
    <glyph glyph-name="cacute" unicode="&#x107;" horiz-adv-x="562" 
d="M-1 268q0 134 85 218t220 84q86 0 154 -34.5t107 -98.5q5 -9 3 -19t-11 -15l-124 -75q-8 -5 -18 -3.5t-15 9.5q-33 46 -89 46q-39 0 -63.5 -29.5t-24.5 -81.5q0 -54 24.5 -83t63.5 -29q62 0 88 48q13 22 35 10l126 -74q20 -12 9 -34q-37 -66 -106.5 -102t-160.5 -36
q-134 0 -218.5 83t-84.5 216zM49 268q0 -113 69 -181t184 -68q142 0 210 92l-83 49q-44 -53 -118 -53q-62 0 -100 46t-38 116q0 69 38 115t100 46q69 0 115 -48l82 50q-70 88 -204 88q-116 0 -185.5 -68.5t-69.5 -183.5zM185 613l106 168q11 18 29 11l156 -55q2 0 4.5 -1
t8 -5t8 -8.5t0 -12t-12.5 -16.5l-130 -113q-8 -6 -16 -6h-132h-5t-9.5 1.5t-10.5 5t-3.5 12t7.5 19.5zM251 625h78l90 79l-97 34z" />
    <glyph glyph-name="Ccaron" unicode="&#x10c;" horiz-adv-x="692" 
d="M-1 352q0 162 115 270.5t284 108.5q83 0 163 -34t137 -92q16 -16 1 -33l-103 -122q-21 -21 -38 0q-31 38 -74 60t-83 22q-73 0 -121.5 -51t-48.5 -127q0 -78 49 -129.5t121 -51.5q38 0 81.5 20t76.5 54q18 18 36 0l104 -110q16 -18 0 -34q-60 -62 -142.5 -99t-164.5 -37
q-168 0 -280.5 110.5t-112.5 274.5zM49 352q0 -144 97.5 -239.5t245.5 -95.5q65 0 133 28t121 76l-70 74q-84 -72 -175 -72q-94 0 -157 67t-63 164q0 96 63.5 162t156.5 66q95 0 175 -78l70 82q-49 44 -115.5 69.5t-132.5 25.5q-150 0 -249.5 -94t-99.5 -235zM163 907
q-1 2 -3 4.5t-4 9.5t-1.5 12t7.5 9.5t21 4.5h135q14 0 21 -11l40 -61l40 61q8 11 21 11h135h5t10 -2.5t10.5 -6t3 -12t-8.5 -19.5l-121 -164q-7 -10 -20 -10h-150q-12 0 -20 10zM233 897l84 -114h124l84 114h-72l-53 -81q-10 -16 -20.5 -16t-15.5 8l-6 8l-53 81h-72z" />
    <glyph glyph-name="ccaron" unicode="&#x10d;" horiz-adv-x="562" 
d="M-1 268q0 134 85 218t220 84q86 0 154 -34.5t107 -98.5q5 -9 3 -19t-11 -15l-124 -75q-8 -5 -18 -3.5t-15 9.5q-33 46 -89 46q-39 0 -63.5 -29.5t-24.5 -81.5q0 -54 24.5 -83t63.5 -29q62 0 88 48q13 22 35 10l126 -74q20 -12 9 -34q-37 -66 -106.5 -102t-160.5 -36
q-134 0 -218.5 83t-84.5 216zM49 268q0 -113 69 -181t184 -68q142 0 210 92l-83 49q-44 -53 -118 -53q-62 0 -100 46t-38 116q0 69 38 115t100 46q69 0 115 -48l82 50q-70 88 -204 88q-116 0 -185.5 -68.5t-69.5 -183.5zM73 745q-1 2 -3 4.5t-4 9.5t-1.5 12t7.5 9.5t21 4.5
h135q14 0 21 -11l40 -61l40 61q8 11 21 11h135h5t10 -2.5t10.5 -6t3 -12t-8.5 -19.5l-121 -164q-7 -10 -20 -10h-150q-12 0 -20 10zM143 735l84 -114h124l84 114h-72l-53 -81q-10 -16 -20.5 -16t-15.5 8l-6 8l-53 81h-72z" />
    <glyph glyph-name="Dcaron" unicode="&#x10e;" horiz-adv-x="767" 
d="M45 0v700q0 11 8 18t17 7h301q175 0 286 -104.5t111 -270.5t-113 -270.5t-291 -104.5h-294q-11 0 -18 8t-7 17zM95 25h269q160 0 257 90t97 235q0 146 -95.5 235.5t-251.5 89.5h-276v-650zM138 907q-1 2 -3 4.5t-4 9.5t-1.5 12t7.5 9.5t21 4.5h135q14 0 21 -11l40 -61
l40 61q8 11 21 11h135h5t10 -2.5t10.5 -6t3 -12t-8.5 -19.5l-121 -164q-7 -10 -20 -10h-150q-12 0 -20 10zM208 897l84 -114h124l84 114h-72l-53 -81q-10 -16 -20.5 -16t-16.5 8l-5 8l-53 81h-72zM223 142v416q0 9 7 17t18 8h119q95 0 157.5 -66t62.5 -168
q0 -101 -59.5 -166.5t-152.5 -65.5h-127q-9 0 -17 7t-8 18zM273 167h102q72 0 117 49.5t45 132.5t-47.5 133.5t-122.5 50.5h-94v-366z" />
    <glyph glyph-name="dcaron" unicode="&#x10f;" horiz-adv-x="786" 
d="M0 272q0 133 75.5 216t197.5 83q81 0 141 -44v215q0 11 8 18t17 7h173q11 0 18 -8t7 -17v-742q0 -11 -8 -18t-17 -7h-173q-11 0 -18 8t-7 17v11q-58 -43 -137 -43q-124 0 -200.5 85t-76.5 219zM50 272q0 -117 62 -185.5t165 -68.5q91 0 142 68q14 16 24 12.5t15 -15.5
l6 -12v-46h123v692h-123v-249q0 -20 -11 -24t-23 2l-11 7q-51 68 -146 68q-101 0 -162 -67t-61 -182zM173 268q1 71 41 118t105 47t105 -47t40 -118t-40 -118.5t-105 -47.5t-105 47.5t-41 118.5zM223 268q1 -54 27.5 -85t68.5 -31t68.5 31t26.5 85t-26 84.5t-69 30.5
t-69 -30.5t-27 -84.5zM627 433l38 90q-28 29 -28 72q0 46 31 76.5t77 30.5q44 0 75.5 -29t31.5 -78q0 -40 -26 -80l-73 -106q-8 -11 -21 -11h-82h-4t-8.5 1t-9 4.5t-5 10.5t3.5 19zM687 595q0 -29 22 -44q17 -11 9 -31l-30 -72h31l65 95q18 28 18 52q0 27 -16 42t-41 15
q-26 0 -42 -15.5t-16 -41.5z" />
    <glyph glyph-name="Dcroat" unicode="&#x110;" horiz-adv-x="767" 
d="M45 0v700q0 11 8 18t17 7h301q175 0 286 -104.5t111 -270.5t-113 -270.5t-291 -104.5h-294q-11 0 -18 8t-7 17zM95 25h269q160 0 257 90t97 235q0 146 -95.5 235.5t-251.5 89.5h-276v-650zM194 793v116q0 11 8 18t17 7h278q11 0 18 -8t7 -17v-116q0 -11 -8 -18t-17 -7
h-278q-11 0 -18 8t-7 17zM223 142v416q0 9 7 17t18 8h119q95 0 157.5 -66t62.5 -168q0 -101 -59.5 -166.5t-152.5 -65.5h-127q-9 0 -17 7t-8 18zM244 818h228v66h-228v-66zM273 167h102q72 0 117 49.5t45 132.5t-47.5 133.5t-122.5 50.5h-94v-366z" />
    <glyph glyph-name="dcroat" unicode="&#x111;" horiz-adv-x="686" 
d="M0 272q0 133 75.5 216t197.5 83q81 0 141 -44v43h-60q-11 0 -18 8t-7 17v89q0 11 8 18t17 7h60v33q0 11 8 18t17 7h173q11 0 18 -8t7 -17v-33h40q11 0 18 -8t7 -17v-89q0 -11 -8 -18t-17 -7h-40v-570q0 -11 -8 -18t-17 -7h-173q-11 0 -18 8t-7 17v11q-58 -43 -137 -43
q-124 0 -200.5 85t-76.5 219zM50 272q0 -117 62 -185.5t165 -68.5q91 0 142 68q14 16 24 12.5t15 -15.5l6 -12v-46h123v570q0 9 7 17t18 8h40v39h-40q-9 0 -17 7t-8 18v33h-123v-33q0 -9 -7 -17t-18 -8h-60v-39h60q9 0 17 -7t8 -18v-127q0 -20 -11 -24t-23 2l-11 7
q-51 68 -146 68q-101 0 -162 -67t-61 -182zM173 268q1 71 41 118t105 47t105 -47t40 -118t-40 -118.5t-105 -47.5t-105 47.5t-41 118.5zM223 268q1 -54 27.5 -85t68.5 -31t68.5 31t26.5 85t-26 84.5t-69 30.5t-69 -30.5t-27 -84.5z" />
    <glyph glyph-name="Emacron" unicode="&#x112;" horiz-adv-x="674" 
d="M45 0v700q0 11 8 18t17 7h548q11 0 18 -8t7 -17v-140q0 -11 -8 -18t-17 -7h-345v-89h309q11 0 18 -8t7 -17v-140q0 -11 -8 -18t-17 -7h-309v-91h356q11 0 18 -8t7 -17v-140q0 -11 -8 -18t-17 -7h-559q-11 0 -18 8t-7 17zM95 25h509v90h-356q-9 0 -17 7t-8 18v141
q0 9 7 17t18 8h309v90h-309q-9 0 -17 7t-8 18v139q0 9 7 17t18 8h345v90h-498v-650zM182 793v116q0 11 8 18t17 7h278q11 0 18 -8t7 -17v-116q0 -11 -8 -18t-17 -7h-278q-11 0 -18 8t-7 17zM232 818h228v66h-228v-66z" />
    <glyph glyph-name="emacron" unicode="&#x113;" horiz-adv-x="602" 
d="M-1 268q0 135 85.5 218.5t220.5 83.5q5 0 13 -0.5t12 -0.5q139 -8 210 -102.5t62 -245.5q-1 -10 -8.5 -16.5t-16.5 -6.5h-108l2 -2l91 -89q7 -7 7.5 -17.5t-6.5 -17.5q-94 -103 -253 -103q-140 0 -225.5 83t-85.5 216zM49 268q0 -114 69.5 -181.5t191.5 -67.5
q121 0 199 70l-56 55q-57 -46 -128 -46q-56 0 -96 31.5t-55 87.5q-4 14 2.5 22t11.5 8.5t10 0.5h355q2 131 -60.5 201.5t-187.5 70.5q-116 0 -186 -68.5t-70 -183.5zM137 632v116q0 11 8 18t17 7h278q11 0 18 -8t7 -17v-116q0 -11 -8 -18t-17 -7h-278q-11 0 -18 8t-7 17z
M170 320q9 57 45.5 93.5t91.5 36.5q57 0 93 -37.5t36 -96.5q0 -9 -7 -17t-18 -8h-216q-29 0 -25 29zM187 657h228v66h-228v-66zM228 341h155q-14 59 -76 59q-57 0 -79 -59zM235 198q29 -50 90 -50q63 0 111 48l1 1q1 1 2 1h-204z" />
    <glyph glyph-name="Edotaccent" unicode="&#x116;" horiz-adv-x="674" 
d="M45 0v700q0 11 8 18t17 7h548q11 0 18 -8t7 -17v-140q0 -11 -8 -18t-17 -7h-345v-89h309q11 0 18 -8t7 -17v-140q0 -11 -8 -18t-17 -7h-309v-91h356q11 0 18 -8t7 -17v-140q0 -11 -8 -18t-17 -7h-559q-11 0 -18 8t-7 17zM95 25h509v90h-356q-9 0 -17 7t-8 18v141
q0 9 7 17t18 8h309v90h-309q-9 0 -17 7t-8 18v139q0 9 7 17t18 8h345v90h-498v-650zM230 855q0 49 33 82.5t83 33.5t83 -33.5t33 -82.5q0 -50 -33 -83.5t-83 -33.5t-83 33.5t-33 83.5zM280 855q0 -31 18 -49t48 -18t48 18t18 49q0 30 -18 48t-48 18t-48 -18t-18 -48z" />
    <glyph glyph-name="edotaccent" unicode="&#x117;" horiz-adv-x="602" 
d="M-1 268q0 135 85.5 218.5t220.5 83.5q5 0 13 -0.5t12 -0.5q139 -8 210 -102.5t62 -245.5q-1 -10 -8.5 -16.5t-16.5 -6.5h-108l2 -2l91 -89q7 -7 7.5 -17.5t-6.5 -17.5q-94 -103 -253 -103q-140 0 -225.5 83t-85.5 216zM49 268q0 -114 69.5 -181.5t191.5 -67.5
q121 0 199 70l-56 55q-57 -46 -128 -46q-56 0 -96 31.5t-55 87.5q-4 14 2.5 22t11.5 8.5t10 0.5h355q2 131 -60.5 201.5t-187.5 70.5q-116 0 -186 -68.5t-70 -183.5zM170 320q9 57 45.5 93.5t91.5 36.5q57 0 93 -37.5t36 -96.5q0 -9 -7 -17t-18 -8h-216q-29 0 -25 29z
M185 694q0 50 33.5 83t82.5 33t82.5 -33t33.5 -83t-33 -83.5t-83 -33.5t-83 33.5t-33 83.5zM228 341h155q-14 59 -76 59q-57 0 -79 -59zM235 198q29 -50 90 -50q63 0 111 48l1 1q1 1 2 1h-204zM235 694q0 -31 18 -49t48 -18t48 18t18 49q0 30 -18 48t-48 18t-48 -18t-18 -48
z" />
    <glyph glyph-name="Eogonek" unicode="&#x118;" horiz-adv-x="678" 
d="M45 0v700q0 11 8 18t17 7h553q11 0 18 -8t7 -17v-136q0 -11 -8 -18t-17 -7h-350v-93h314q11 0 18 -8t7 -17v-136q0 -11 -8 -18t-17 -7h-314v-99h360q11 0 18 -8t7 -17v-136q0 -11 -8 -18t-17 -7h-58q-29 -46 -31 -65q9 4 18 19q18 28 40 3l45 -51q11 -13 2 -30
q-48 -79 -130 -79q-43 0 -77.5 26.5t-34.5 81.5q0 44 27 95h-364q-11 0 -18 8t-7 17zM95 25h384q22 0 27 -9.5t0 -19.5l-6 -10q-43 -64 -43 -106q0 -58 62 -58q44 0 77 40l-13 15q-20 -18 -43 -18q-15 0 -26 8q-20 13 -20 41q0 39 47 106q7 11 21 11h46v86h-360q-9 0 -17 7
t-8 18v149q0 9 7 17t18 8h314v86h-314q-9 0 -17 7t-8 18v143q0 9 7 17t18 8h350v86h-503v-650z" />
    <glyph glyph-name="eogonek" unicode="&#x119;" horiz-adv-x="602" 
d="M0 269q0 133 83 216.5t223 84.5q19 0 29 -1q135 -8 206 -103t61 -245q-1 -10 -8.5 -16.5t-16.5 -6.5h-108l2 -2l91 -89q17 -17 2 -34q-38 -44 -70 -93t-33 -70q8 6 17 19l2 2q1 2 3 4t4.5 4t6 3t7.5 0.5t8.5 -3.5t8.5 -8l44 -51q12 -14 3 -29q-45 -79 -129 -79
q-43 0 -78 27t-35 82q0 43 24 91q-21 -3 -39 -3q-139 0 -223.5 83t-84.5 217zM50 269q0 -115 69 -182.5t189 -67.5q45 0 85 20q14 7 22 -2t9 -22v-13q-51 -70 -51 -121q0 -59 63 -59q46 0 76 40l-13 15q-20 -18 -42 -18q-20 0 -33 15t-13 35q0 60 100 178l-58 57
q-58 -47 -128 -47q-57 0 -96 32t-54 87q-1 12 -0.5 18.5t8 9.5t10.5 3.5t6 0.5h354q2 128 -59.5 199.5t-177.5 72.5h-10q-120 -1 -188 -69.5t-68 -181.5zM170 319q8 57 45.5 94t92.5 37q56 0 92 -38.5t36 -95.5q0 -9 -7 -17t-18 -8h-216q-28 0 -25 28zM227 341h156
q-14 59 -75 59q-59 0 -81 -59zM236 198q28 -51 89 -51q62 0 111 49l1 1q1 1 2 1h-203z" />
    <glyph glyph-name="Ecaron" unicode="&#x11a;" horiz-adv-x="674" 
d="M45 0v700q0 11 8 18t17 7h548q11 0 18 -8t7 -17v-140q0 -11 -8 -18t-17 -7h-345v-89h309q11 0 18 -8t7 -17v-140q0 -11 -8 -18t-17 -7h-309v-91h356q11 0 18 -8t7 -17v-140q0 -11 -8 -18t-17 -7h-559q-11 0 -18 8t-7 17zM95 25h509v90h-356q-9 0 -17 7t-8 18v141
q0 9 7 17t18 8h309v90h-309q-9 0 -17 7t-8 18v139q0 9 7 17t18 8h345v90h-498v-650zM126 907q-1 2 -3 4.5t-4 9.5t-1.5 12t7.5 9.5t21 4.5h135q14 0 21 -11l40 -61l40 61q8 11 21 11h135h5t10 -2.5t10.5 -6t3 -12t-8.5 -19.5l-121 -164q-7 -10 -20 -10h-150q-12 0 -20 10z
M196 897l84 -114h124l84 114h-72l-53 -81q-10 -16 -20.5 -16t-16.5 8l-5 8l-53 81h-72z" />
    <glyph glyph-name="ecaron" unicode="&#x11b;" horiz-adv-x="602" 
d="M-1 268q0 135 85.5 218.5t220.5 83.5q5 0 13 -0.5t12 -0.5q139 -8 210 -102.5t62 -245.5q-1 -10 -8.5 -16.5t-16.5 -6.5h-108l2 -2l91 -89q7 -7 7.5 -17.5t-6.5 -17.5q-94 -103 -253 -103q-140 0 -225.5 83t-85.5 216zM49 268q0 -114 69.5 -181.5t191.5 -67.5
q121 0 199 70l-56 55q-57 -46 -128 -46q-56 0 -96 31.5t-55 87.5q-4 14 2.5 22t11.5 8.5t10 0.5h355q2 131 -60.5 201.5t-187.5 70.5q-116 0 -186 -68.5t-70 -183.5zM80 745q-1 2 -3 4.5t-4 9.5t-1.5 12t7.5 9.5t21 4.5h135q14 0 21 -11l40 -61l40 61q8 11 21 11h135h5
t10 -2.5t10.5 -6t3 -12t-8.5 -19.5l-121 -164q-7 -10 -20 -10h-150q-12 0 -20 10zM150 735l84 -114h124l84 114h-72l-53 -81q-10 -16 -20.5 -16t-16.5 8l-5 8l-53 81h-72zM170 320q9 57 45.5 93.5t91.5 36.5q57 0 93 -37.5t36 -96.5q0 -9 -7 -17t-18 -8h-216q-29 0 -25 29z
M228 341h155q-14 59 -76 59q-57 0 -79 -59zM235 198q29 -50 90 -50q63 0 111 48l1 1q1 1 2 1h-204z" />
    <glyph glyph-name="Gbreve" unicode="&#x11e;" horiz-adv-x="743" 
d="M-1 350q0 163 118 272t293 109q83 0 164.5 -29.5t138.5 -80.5q17 -16 2 -35l-100 -121q-6 -8 -16.5 -9t-19.5 7q-34 32 -80 50.5t-90 18.5q-76 0 -127 -52t-51 -130q0 -79 51.5 -131.5t128.5 -52.5q44 0 99 25v165q0 11 8 18t17 7h154q11 0 18 -8t7 -17v-273
q0 -13 -11 -20q-60 -43 -144 -69.5t-161 -26.5q-170 0 -284.5 110t-114.5 273zM49 350q0 -143 99.5 -238t249.5 -95q65 0 138.5 22t127.5 57v235h-104v-156q0 -16 -14 -22q-76 -37 -135 -37q-97 0 -163.5 67.5t-66.5 166.5q0 98 65.5 165t162.5 67t184 -66l68 83
q-50 38 -117.5 60t-133.5 22q-156 0 -258.5 -94.5t-102.5 -236.5zM203 919q-1 10 6 18t19 8h108q10 0 17 -7t8 -16q3 -35 31 -35t31 35q1 10 8.5 16.5t16.5 6.5h108q10 0 18 -7.5t7 -18.5q-5 -81 -57 -131.5t-132 -50.5t-132 50.5t-57 131.5zM256 895q10 -51 46 -79.5
t90 -28.5q55 0 90 28.5t46 79.5h-60q-9 -26 -29 -42t-47 -16t-47.5 16t-28.5 42h-60z" />
    <glyph glyph-name="gbreve" unicode="&#x11f;" horiz-adv-x="647" 
d="M0 290q0 123 70.5 201.5t182.5 78.5q76 1 134 -39v8q0 11 8 18t17 7h172q11 0 18 -8t7 -17v-490q0 -125 -89 -200t-228 -75q-143 0 -254 75q-18 12 -8 32l60 117q14 26 36 10q73 -50 153 -50q53 0 80 22.5t28 61.5q-54 -38 -130 -38q-113 0 -185 80t-72 206zM50 290
q0 -108 57.5 -172t149.5 -64q89 0 135 62q14 16 24 12.5t16 -15.5l5 -12v-57q0 -62 -44 -99t-114 -37q-83 0 -157 43l-37 -72q95 -55 207 -55q123 0 195 61t72 164v465h-122v-41q0 -20 -11.5 -24t-22.5 3l-11 6q-48 63 -139 62q-91 0 -147 -62.5t-56 -167.5zM135 758
q-1 10 6 18t19 8h108q10 0 17 -7t8 -16q3 -35 31 -35t31 35q1 10 8.5 16.5t16.5 6.5h108q10 0 18 -7.5t7 -18.5q-5 -81 -57 -131.5t-132 -50.5t-132 50.5t-57 131.5zM161 285q0 67 38.5 112t100.5 45q61 0 99 -44.5t38 -112.5q0 -67 -38 -111.5t-99 -44.5q-62 0 -100.5 44.5
t-38.5 111.5zM188 734q10 -51 46 -79.5t90 -28.5t89.5 28.5t46.5 79.5h-60q-9 -26 -29 -42t-47 -16t-47.5 16t-28.5 42h-60zM211 285q0 -49 24.5 -77.5t64.5 -28.5q39 0 63 28.5t24 77.5q0 51 -24 79t-63 28q-40 0 -64.5 -28.5t-24.5 -78.5z" />
    <glyph glyph-name="Gcommaaccent" unicode="&#x122;" horiz-adv-x="743" 
d="M-1 350q0 163 118 272t293 109q83 0 164.5 -29.5t138.5 -80.5q17 -16 2 -35l-100 -121q-6 -8 -16.5 -9t-19.5 7q-34 32 -80 50.5t-90 18.5q-76 0 -127 -52t-51 -130q0 -79 51.5 -131.5t128.5 -52.5q44 0 99 25v165q0 11 8 18t17 7h154q11 0 18 -8t7 -17v-273
q0 -13 -11 -20q-60 -43 -144 -69.5t-161 -26.5q-170 0 -284.5 110t-114.5 273zM49 350q0 -143 99.5 -238t249.5 -95q65 0 138.5 22t127.5 57v235h-104v-156q0 -16 -14 -22q-76 -37 -135 -37q-97 0 -163.5 67.5t-66.5 166.5q0 98 65.5 165t162.5 67t184 -66l68 83
q-50 38 -117.5 60t-133.5 22q-156 0 -258.5 -94.5t-102.5 -236.5zM280 -285l38 89q-28 28 -28 72q0 46 31 77t77 31q44 0 75.5 -29t31.5 -78q0 -42 -26 -80l-73 -106q-8 -11 -21 -11h-82h-4t-9 1t-9.5 4.5t-4.5 10.5t4 19zM340 -124q0 -29 22 -44q17 -13 9 -31l-30 -71h31
l65 95q18 26 18 52q0 27 -16 42t-41 15q-26 0 -42 -15.5t-16 -42.5z" />
    <glyph glyph-name="gcommaaccent" unicode="&#x123;" horiz-adv-x="647" 
d="M0 290q0 123 70.5 201.5t182.5 78.5q76 1 134 -39v8q0 11 8 18t17 7h172q11 0 18 -8t7 -17v-490q0 -125 -89 -200t-228 -75q-143 0 -254 75q-18 12 -8 32l60 117q14 26 36 10q73 -50 153 -50q53 0 80 22.5t28 61.5q-54 -38 -130 -38q-113 0 -185 80t-72 206zM50 290
q0 -108 57.5 -172t149.5 -64q89 0 135 62q14 16 24 12.5t16 -15.5l5 -12v-57q0 -62 -44 -99t-114 -37q-83 0 -157 43l-37 -72q95 -55 207 -55q123 0 195 61t72 164v465h-122v-41q0 -20 -11.5 -24t-22.5 3l-11 6q-48 63 -139 62q-91 0 -147 -62.5t-56 -167.5zM161 285
q0 67 38.5 112t100.5 45q61 0 99 -44.5t38 -112.5q0 -67 -38 -111.5t-99 -44.5q-62 0 -100.5 44.5t-38.5 111.5zM210 662q0 42 26 80l73 106q8 11 21 11h82h4t9 -1t9.5 -4.5t4.5 -10.5t-4 -19l-38 -89q28 -28 28 -72q0 -46 -31 -77t-77 -31q-44 0 -75.5 29t-31.5 78z
M211 285q0 -49 24.5 -77.5t64.5 -28.5q39 0 63 28.5t24 77.5q0 51 -24 79t-63 28q-40 0 -64.5 -28.5t-24.5 -78.5zM260 662q0 -27 16 -42t41 -15q26 0 42 15.5t16 42.5q0 29 -22 44q-17 13 -9 31l30 71h-31l-65 -95q-18 -26 -18 -52z" />
    <glyph glyph-name="hbar" unicode="&#x127;" horiz-adv-x="743" 
d="M-30 576v94q0 11 8 18t17 7h54v47q0 11 8 18t17 7h173q11 0 18 -8t7 -17v-47h93q11 0 18 -8t7 -17v-94q0 -5 -1 -7q19 3 39 3q100 0 161 -64t61 -168v-340q0 -11 -8 -18t-17 -7h-173q-11 0 -18 8t-7 17v292q0 77 -70 77q-39 0 -62 -27.5t-23 -75.5v-266q0 -11 -8 -18
t-17 -7h-173q-11 0 -18 8t-7 17v551h-54q-11 0 -18 8t-7 17zM20 601h54q9 0 17 -7t8 -18v-551h123v241q0 65 36.5 109t98.5 44q54 0 87 -35.5t33 -91.5v-267h123v315q0 85 -46.5 133.5t-125.5 48.5q-31 0 -60 -8q-65 -18 -100 -77q-11 -15 -21 -12t-17 14l-8 11v126
q0 9 7 17t18 8h93v44h-93q-9 0 -17 7t-8 18v47h-123v-47q0 -9 -7 -17t-18 -8h-54v-44zM272 518q24 21 52 33h-52v-33z" />
    <glyph glyph-name="Itilde" unicode="&#x128;" horiz-adv-x="318" 
d="M-44 782q0 85 32.5 133t97.5 48q20 0 39 -5t32 -11.5t23 -13.5t16 -12l5 -5h3q3 3 3 17q0 11 8 18t17 7h105q11 0 18 -8t7 -17q0 -85 -32 -132.5t-97 -47.5q-20 0 -39.5 5t-32.5 11.5t-23 13.5t-16 12l-5 5h-2q-3 -3 -3 -18q0 -11 -8 -18t-17 -7h-106q-11 0 -18 8t-7 17z
M7 807h58q7 24 21 34q14 9 31 9q28 0 60 -23.5t56 -23.5q37 0 55.5 23t22.5 82h-57q-5 -21 -20 -32q-12 -10 -33 -10q-28 0 -60 23.5t-55 23.5q-37 0 -56 -23.5t-23 -82.5zM45 0v700q0 11 8 18t17 7h178q11 0 18 -8t7 -17v-700q0 -11 -8 -18t-17 -7h-178q-11 0 -18 8t-7 17z
M95 25h128v650h-128v-650z" />
    <glyph glyph-name="itilde" unicode="&#x129;" horiz-adv-x="311" 
d="M-48 621q0 85 32.5 133t97.5 48q20 0 39 -5t32 -12t23 -13.5t16 -11.5l5 -5h3q3 3 3 17q0 11 8 18t17 7h105q11 0 18 -8t7 -17q0 -85 -32 -132.5t-97 -47.5q-20 0 -39.5 5t-32.5 12t-23 13.5t-16 11.5l-5 5h-2q-3 -3 -3 -18q0 -11 -8 -18t-17 -7h-106q-11 0 -18 8t-7 17z
M3 646h58q7 24 21 34q13 9 31 9q28 0 60 -23.5t56 -23.5q37 0 55.5 23t22.5 82h-57q-5 -21 -20 -32q-12 -10 -33 -10q-28 0 -60 23.5t-55 23.5q-37 0 -56 -23.5t-23 -82.5zM44 0v539q0 11 8 18t17 7h172q11 0 18 -8t7 -17v-539q0 -11 -8 -18t-17 -7h-172q-11 0 -18 8t-7 17z
M94 25h122v489h-122v-489z" />
    <glyph glyph-name="Imacron" unicode="&#x12a;" horiz-adv-x="318" 
d="M-5 793v116q0 11 8 18t17 7h278q11 0 18 -8t7 -17v-116q0 -11 -8 -18t-17 -7h-278q-11 0 -18 8t-7 17zM45 0v700q0 11 8 18t17 7h178q11 0 18 -8t7 -17v-700q0 -11 -8 -18t-17 -7h-178q-11 0 -18 8t-7 17zM45 818h228v66h-228v-66zM95 25h128v650h-128v-650z" />
    <glyph glyph-name="imacron" unicode="&#x12b;" horiz-adv-x="311" 
d="M-9 632v116q0 11 8 18t17 7h278q11 0 18 -8t7 -17v-116q0 -11 -8 -18t-17 -7h-278q-11 0 -18 8t-7 17zM41 657h228v66h-228v-66zM44 0v539q0 11 8 18t17 7h172q11 0 18 -8t7 -17v-539q0 -11 -8 -18t-17 -7h-172q-11 0 -18 8t-7 17zM94 25h122v489h-122v-489z" />
    <glyph glyph-name="Iogonek" unicode="&#x12e;" horiz-adv-x="318" 
d="M45 0v701q0 11 8 18t17 7h178q11 0 18 -8t7 -17v-701q0 -11 -8 -18t-17 -7h-25q-30 -46 -32 -65q9 4 19 19q18 27 40 2l44 -51q12 -14 3 -29q-46 -79 -130 -79q-43 0 -78 27t-35 81q0 44 28 95h-12q-11 0 -18 8t-7 17zM95 25h31q21 0 26.5 -9.5t-0.5 -19.5l-5 -10
q-43 -65 -43 -106q0 -58 63 -58q46 0 77 40l-13 15q-20 -18 -44 -18q-16 0 -28 9q-18 14 -18 40q0 36 48 106q7 11 21 11h13v651h-128v-651z" />
    <glyph glyph-name="iogonek" unicode="&#x12f;" horiz-adv-x="290" 
d="M29 693q0 50 33.5 83.5t83.5 33.5t83.5 -33.5t33.5 -83.5t-33.5 -83t-83.5 -33t-83.5 33t-33.5 83zM35 0v539q0 11 8 18t17 7h172q11 0 18 -8t7 -17v-539q0 -11 -8 -18t-17 -7h-27q-30 -45 -32 -65q8 4 19 19q18 27 40 2l44 -51q12 -14 3 -29q-46 -79 -130 -79
q-43 0 -78 26.5t-35 81.5q0 44 28 95h-4q-11 0 -18 8t-7 17zM79 693q0 -29 18.5 -47.5t48.5 -18.5q31 0 49 18t18 48q0 31 -18 49t-49 18q-30 0 -48.5 -18t-18.5 -49zM85 25h23q21 0 26.5 -9.5t-0.5 -19.5l-5 -10q-43 -65 -43 -106q0 -58 63 -58q46 0 77 40l-13 15
q-22 -18 -43 -18q-16 0 -28 8q-19 14 -19 41q0 36 48 106q7 11 21 11h15v489h-122v-489z" />
    <glyph glyph-name="Idotaccent" unicode="&#x130;" horiz-adv-x="318" 
d="M43 855q0 49 33.5 82.5t82.5 33.5t82.5 -33.5t33.5 -82.5q0 -50 -33 -83.5t-83 -33.5t-83 33.5t-33 83.5zM45 0v700q0 11 8 18t17 7h178q11 0 18 -8t7 -17v-700q0 -11 -8 -18t-17 -7h-178q-11 0 -18 8t-7 17zM93 855q0 -31 18 -49t48 -18t48 18t18 49q0 30 -18 48t-48 18
t-48 -18t-18 -48zM95 25h128v650h-128v-650z" />
    <glyph glyph-name="dotlessi" unicode="&#x131;" horiz-adv-x="311" 
d="M44 0v539q0 11 8 18t17 7h172q11 0 18 -8t7 -17v-539q0 -11 -8 -18t-17 -7h-172q-11 0 -18 8t-7 17zM94 25h122v489h-122v-489z" />
    <glyph glyph-name="IJ" unicode="&#x132;" horiz-adv-x="853" 
d="M45 0v700q0 11 8 18t17 7h178q11 0 18 -8t7 -17v-700q0 -11 -8 -18t-17 -7h-178q-11 0 -18 8t-7 17zM95 25h128v650h-128v-650zM292 118l82 119q17 25 39 3q33 -34 68 -52t61 -18t38 13.5t12 47.5v301h-215q-11 0 -18 8t-7 17v144q0 11 8 18t17 7h419q11 0 18 -8t7 -17
v-474q0 -121 -72.5 -190.5t-194.5 -69.5q-155 0 -260 121q-13 15 -2 30zM345 106q87 -89 209 -89q103 0 160 54.5t57 155.5v449h-369v-94h215q9 0 17 -7t8 -18v-326q0 -50 -27 -80.5t-73 -30.5q-69 0 -143 65z" />
    <glyph glyph-name="ij" unicode="&#x133;" horiz-adv-x="630" 
d="M40 694q0 50 33 83t83 33t83 -33t33 -83t-33 -83.5t-83 -33.5t-83 33.5t-33 83.5zM44 0v539q0 11 8 18t17 7h172q11 0 18 -8t7 -17v-539q0 -11 -8 -18t-17 -7h-172q-11 0 -18 8t-7 17zM90 694q0 -31 18 -49t48 -18t48 18t18 49q0 30 -18 48t-48 18t-48 -18t-18 -48z
M94 25h122v489h-122v-489zM201 -157l44 121q2 5 5 9t11.5 7.5t19.5 -4.5q25 -15 48 -15q15 -1 21.5 6t6.5 28v544q0 11 8 18t17 7h173q11 0 18 -8t7 -17v-555q0 -98 -63.5 -154.5t-157.5 -55.5q-85 0 -148 39q-17 10 -10 30zM255 -154q46 -22 104 -22q77 -1 124 41t47 119
v530h-123v-519q0 -38 -21.5 -61.5t-56.5 -22.5q-23 0 -47 9zM345 693q0 51 35.5 84t87.5 33q53 0 88 -33t35 -84t-35 -83.5t-88 -32.5q-52 0 -87.5 33t-35.5 83zM395 693q0 -29 20 -47.5t53 -18.5q34 0 53.5 18.5t19.5 47.5q0 30 -19.5 48.5t-53.5 18.5q-33 0 -53 -18.5
t-20 -48.5z" />
    <glyph glyph-name="Jcircumflex" unicode="&#x134;" horiz-adv-x="536" 
d="M-26 118l82 119q17 25 39 3q33 -34 68 -52t61 -18t38 13.5t12 47.5v301h-215q-11 0 -18 8t-7 17v144q0 11 8 18t17 7h419q11 0 18 -8t7 -17v-474q0 -121 -72.5 -190.5t-194.5 -69.5q-155 0 -260 121q-13 15 -2 30zM27 106q87 -89 209 -89q103 0 160 54.5t57 155.5v449
h-369v-94h215q9 0 17 -7t8 -18v-326q0 -50 -27 -80.5t-73 -30.5q-69 0 -143 65zM64 786l113 151q8 10 20 10h138q12 0 20 -10l113 -151q1 -2 3 -4.5t4 -9.5t1.5 -12t-7.5 -9.5t-21 -4.5h-124q-14 0 -21 11l-37 55l-37 -55q-8 -11 -21 -11h-124q-2 0 -5 0.5t-10 2.5t-11 6
t-3 12t9 19zM134 796h61l50 74q10 15 20.5 15t16.5 -7l5 -8l50 -74h61l-76 101h-112z" />
    <glyph glyph-name="jcircumflex" unicode="&#x135;" horiz-adv-x="308" 
d="M-114 -158l40 119q10 29 36 14q28 -16 52 -16q17 -1 24.5 8t7.5 38v534q0 11 8 18t17 7h173q11 0 18 -8t7 -17v-559q0 -95 -59.5 -151t-156.5 -55q-88 2 -155 38q-18 10 -12 30zM-59 -153q51 -22 112 -23q79 -1 122.5 40t43.5 116v534h-123v-509q0 -43 -21 -70t-61 -26
q-24 0 -49 9zM-51 625l113 151q8 10 20 10h138q12 0 20 -10l113 -151q1 -2 3 -4.5t4 -9.5t1.5 -12t-7.5 -9.5t-21 -4.5h-124q-14 0 -21 11l-37 55l-37 -55q-8 -11 -21 -11h-124q-2 0 -5 0.5t-10 2.5t-11 6t-3 12t9 19zM19 635h61l50 74q10 15 20.5 15t15.5 -8l6 -7l50 -74
h61l-76 101h-112z" />
    <glyph glyph-name="Kcommaaccent" unicode="&#x136;" horiz-adv-x="747" 
d="M45 0v700q0 11 8 18t17 7h178q11 0 18 -8t7 -17v-237l224 254q8 8 19 8h206q2 0 5.5 -0.5t10.5 -3.5t11 -7t2.5 -12.5t-10.5 -18.5l-247 -275l266 -394q1 -2 2.5 -4.5t4 -9t1.5 -12t-8 -9.5t-21 -4h-213q-14 0 -21 11l-167 248l-65 -72v-162q0 -11 -8 -18t-17 -7h-178
q-11 0 -18 8t-7 17zM95 25h128v147q0 10 6 17l93 103q22 24 40 -3l177 -264h153l-251 371q-12 16 2 31l223 248h-139l-260 -295q-16 -15 -25.5 -11.5t-13.5 15.5l-5 13v278h-128v-650zM252 -285l38 89q-28 28 -28 72q0 46 31 77t77 31q44 0 75.5 -29t31.5 -78q0 -42 -26 -80
l-73 -106q-8 -11 -21 -11h-82h-4t-9 1t-9.5 4.5t-4.5 10.5t4 19zM312 -124q0 -29 22 -44q17 -13 9 -31l-30 -71h31l65 95q18 26 18 52q0 27 -16 42t-41 15q-26 0 -42 -15.5t-16 -42.5z" />
    <glyph glyph-name="kcedilla" unicode="&#x137;" horiz-adv-x="630" 
d="M1 -193l31 71q0 1 1 3.5t5 7t8 6.5t11 0t15 -9q14 -12 30 -12q19 0 19 14t-20 14q-17 0 -31 -3q-2 0 -5 -0.5t-10.5 0.5t-10.5 4.5t-5.5 11t5.5 20.5l20 42q-15 6 -15 23v742q0 11 8 18t17 7h173q11 0 18 -8t7 -17v-329l135 143q8 8 18 8h196q2 0 5.5 -0.5t10.5 -3.5
t10.5 -7.5t2.5 -12.5t-11 -18l-185 -193l194 -316v-1q1 -1 2.5 -3.5t2.5 -5t2 -6t0.5 -6.5t-2 -6t-4.5 -5t-8.5 -3.5t-13.5 -1.5h-205q-15 0 -22 13l-100 178l-28 -29v-137q0 -11 -8 -18t-17 -7h-31l-6 -11q58 -31 58 -92q0 -59 -42.5 -95t-108.5 -36q-56 0 -107 36
q-17 12 -9 30zM56 -193q32 -16 61 -16q50 0 75.5 22t25.5 59q0 19 -13 34t-36 21q-11 3 -16 8.5t-4.5 11.5t1.5 10t3 6l26 49q7 13 22 13h21v122q0 10 7 17l58 61q11 14 21 10.5t13.5 -7.5t5.5 -8l110 -195h145l-180 294q-10 16 3 30l157 165h-126l-171 -181
q-16 -15 -25.5 -11t-13.5 16l-4 12v367h-123v-692h5q20 0 25.5 -9t0.5 -18l-4 -9l-18 -37q26 -2 44 -18.5t19 -44.5q1 -29 -19.5 -47t-49.5 -18q-18 0 -36 8z" />
    <glyph glyph-name="kgreenlandic" unicode="&#x138;" horiz-adv-x="624" 
d="M44 0v539q0 11 8 18t17 7h172q11 0 18 -8t7 -17v-126l135 143q8 8 18 8h196q2 0 5.5 -0.5t10.5 -3.5t10.5 -7.5t2.5 -12.5t-11 -18l-185 -193l194 -316v-1q1 -1 2.5 -3.5t2.5 -5t2 -6t0.5 -6.5t-2 -6t-4.5 -5t-8.5 -3.5t-13.5 -1.5h-205q-15 0 -22 13l-100 178l-28 -29
v-137q0 -11 -8 -18t-17 -7h-172q-11 0 -18 8t-7 17zM94 25h122v122q0 10 7 17l58 61q11 14 21 10.5t13.5 -7.5t5.5 -8l110 -195h145l-180 294q-10 16 3 30l157 165h-126l-171 -181q-16 -15 -25.5 -11t-13.5 16l-4 12v164h-122v-489z" />
    <glyph glyph-name="Lacute" unicode="&#x139;" horiz-adv-x="560" 
d="M45 0v700q0 11 8 18t17 7h178q11 0 18 -8t7 -17v-526h272q11 0 18 -8t7 -17v-149q0 -11 -8 -18t-17 -7h-475q-11 0 -18 8t-7 17zM48 774l106 168q11 18 29 11l156 -55q2 0 4.5 -1t8 -5t8 -8.5t0 -12t-12.5 -16.5l-130 -113q-7 -6 -16 -6h-132h-5t-9.5 1.5t-10.5 5
t-3.5 12t7.5 19.5zM95 25h425v99h-272q-9 0 -17 7t-8 18v526h-128v-650zM114 786h78l90 79l-97 34z" />
    <glyph glyph-name="lacute" unicode="&#x13a;" horiz-adv-x="321" 
d="M49 0v742q0 11 8 18t17 7h173q11 0 18 -8t7 -17v-742q0 -11 -8 -18t-17 -7h-173q-11 0 -18 8t-7 17zM53 816l106 168q11 18 29 11l156 -55q2 0 4.5 -1t8 -5t8 -8.5t0 -12t-12.5 -16.5l-130 -113q-7 -6 -16 -6h-132h-5t-9.5 1.5t-10.5 5t-3.5 12t7.5 19.5zM99 25h123v692
h-123v-692zM119 828h78l90 79l-97 34z" />
    <glyph glyph-name="Lcommaaccent" unicode="&#x13b;" horiz-adv-x="560" 
d="M45 0v700q0 11 8 18t17 7h178q11 0 18 -8t7 -17v-526h272q11 0 18 -8t7 -17v-149q0 -11 -8 -18t-17 -7h-475q-11 0 -18 8t-7 17zM95 25h425v99h-272q-9 0 -17 7t-8 18v526h-128v-650zM179 -285l38 89q-28 28 -28 72q0 46 31 77t77 31q44 0 75.5 -29t31.5 -78
q0 -42 -26 -80l-73 -106q-8 -11 -21 -11h-82h-4t-9 1t-9.5 4.5t-4.5 10.5t4 19zM239 -124q0 -29 22 -44q17 -13 9 -31l-30 -71h31l65 95q18 26 18 52q0 27 -16 42t-41 15q-26 0 -42 -15.5t-16 -42.5z" />
    <glyph glyph-name="lcommaaccent" unicode="&#x13c;" horiz-adv-x="321" 
d="M49 0v742q0 11 8 18t17 7h173q11 0 18 -8t7 -17v-742q0 -11 -8 -18t-17 -7h-173q-11 0 -18 8t-7 17zM50 -285l38 89q-28 28 -28 72q0 46 31 77t77 31q44 0 75.5 -29t31.5 -78q0 -42 -26 -80l-73 -106q-8 -11 -21 -11h-82h-4t-9 1t-9.5 4.5t-4.5 10.5t4 19zM99 25h123v692
h-123v-692zM110 -124q0 -29 22 -44q17 -13 9 -31l-30 -71h31l65 95q18 26 18 52q0 27 -16 42t-41 15q-26 0 -42 -15.5t-16 -42.5z" />
    <glyph glyph-name="Lcaron" unicode="&#x13d;" horiz-adv-x="560" 
d="M45 0v700q0 11 8 18t17 7h178q11 0 18 -8t7 -17v-526h272q11 0 18 -8t7 -17v-149q0 -11 -8 -18t-17 -7h-475q-11 0 -18 8t-7 17zM95 25h425v99h-272q-9 0 -17 7t-8 18v526h-128v-650zM333 425l38 90q-28 29 -28 72q0 46 31 76.5t77 30.5q44 0 75.5 -29t31.5 -78
q0 -40 -26 -80l-73 -106q-8 -11 -21 -11h-82h-4t-8.5 1t-9 4.5t-5 10.5t3.5 19zM393 587q0 -29 22 -44q17 -11 9 -31l-30 -72h31l65 95q18 28 18 52q0 27 -16 42t-41 15q-26 0 -42 -15.5t-16 -41.5z" />
    <glyph glyph-name="lcaron" unicode="&#x13e;" horiz-adv-x="406" 
d="M49 0v742q0 11 8 18t17 7h173q11 0 18 -8t7 -17v-742q0 -11 -8 -18t-17 -7h-173q-11 0 -18 8t-7 17zM99 25h123v692h-123v-692zM247 433l38 90q-28 29 -28 72q0 46 31 76.5t77 30.5q44 0 75.5 -29t31.5 -78q0 -40 -26 -80l-73 -106q-8 -11 -21 -11h-82h-4t-8.5 1t-9 4.5
t-5 10.5t3.5 19zM307 595q0 -29 22 -44q17 -11 9 -31l-30 -72h31l65 95q18 28 18 52q0 27 -16 42t-41 15q-26 0 -42 -15.5t-16 -41.5z" />
    <glyph glyph-name="Ldot" unicode="&#x13f;" horiz-adv-x="560" 
d="M45 0v700q0 11 8 18t17 7h178q11 0 18 -8t7 -17v-526h272q11 0 18 -8t7 -17v-149q0 -11 -8 -18t-17 -7h-475q-11 0 -18 8t-7 17zM95 25h425v99h-272q-9 0 -17 7t-8 18v526h-128v-650zM307 480q0 46 30.5 76.5t75.5 30.5q46 0 77 -30.5t31 -76.5t-31 -76.5t-77 -30.5
q-45 0 -75.5 30.5t-30.5 76.5zM357 480q0 -26 15 -41.5t41 -15.5t42 15.5t16 41.5t-16 41.5t-42 15.5t-41 -15.5t-15 -41.5z" />
    <glyph glyph-name="ldot" unicode="&#x140;" horiz-adv-x="393" 
d="M49 0v742q0 11 8 18t17 7h173q11 0 18 -8t7 -17v-742q0 -11 -8 -18t-17 -7h-173q-11 0 -18 8t-7 17zM99 25h123v692h-123v-692zM239 312q0 46 30.5 77t77.5 31q46 0 76.5 -31t30.5 -77t-30.5 -77t-76.5 -31q-47 0 -77.5 31t-30.5 77zM289 312q0 -27 15.5 -42.5
t42.5 -15.5q26 0 41.5 15.5t15.5 42.5t-15.5 42.5t-41.5 15.5q-27 0 -42.5 -15.5t-15.5 -42.5z" />
    <glyph glyph-name="Lslash" unicode="&#x141;" horiz-adv-x="580" 
d="M-37 409q-3 10 2.5 19.5t14.5 11.5l84 25v235q0 11 8 18t17 7h178q11 0 18 -8t7 -17v-170l112 33q10 3 19 -2t12 -15l29 -105q3 -10 -2.5 -19.5t-14.5 -11.5l-155 -45v-191h272q11 0 18 -8t7 -17v-149q0 -11 -8 -18t-17 -7h-475q-11 0 -18 8t-7 17v300l-41 -12
q-10 -3 -19 2t-12 15zM18 399l15 -56l49 14q15 4 23 -2.5t8.5 -11.5t0.5 -10v-308h425v99h-272q-9 0 -17 7t-8 18v235q0 19 18 24l149 43l-15 57l-120 -35q-12 -1 -18.5 -1t-9.5 8t-3.5 10.5t-0.5 6.5v178h-128v-229q0 -19 -18 -24z" />
    <glyph glyph-name="lslash" unicode="&#x142;" horiz-adv-x="343" 
d="M-58 421q-3 10 2 19t15 12l111 32v258q0 11 8 18t17 7h173q11 0 18 -8t7 -17v-194l50 15q10 3 19 -2t12 -15l29 -105q3 -10 -2.5 -19.5t-14.5 -11.5l-93 -27v-383q0 -11 -8 -18t-17 -7h-173q-11 0 -18 8t-7 17v319l-67 -19q-10 -3 -19.5 2.5t-11.5 14.5zM-3 411l16 -56
l75 21q15 4 23 -2.5t8.5 -11.5t0.5 -10v-327h123v377q0 19 18 24l87 25l-15 57l-58 -17q-15 -4 -23 2.5t-8.5 11.5t-0.5 10v202h-123v-252q0 -19 -18 -24z" />
    <glyph glyph-name="Nacute" unicode="&#x143;" horiz-adv-x="786" 
d="M45 0v700q0 11 8 18t17 7h157q12 0 20 -10l278 -372v357q0 11 8 18t17 7h166q11 0 18 -8t7 -17v-700q0 -11 -8 -18t-17 -7h-157q-12 0 -20 10l-277 371v-356q0 -11 -8 -18t-17 -7h-167q-11 0 -18 8t-7 17zM95 25h117v406q0 20 11 24t23 -3l11 -6l315 -421h119v650h-116
v-407q0 -20 -11.5 -24t-22.5 2l-11 7l-316 422h-119v-650zM286 774l106 168q11 18 29 11l156 -55q2 0 4.5 -1t8 -5t8 -8.5t0 -12t-12.5 -16.5l-130 -113q-7 -6 -16 -6h-132h-5t-9.5 1.5t-10.5 5t-3.5 12t7.5 19.5zM352 786h78l90 79l-97 34z" />
    <glyph glyph-name="nacute" unicode="&#x144;" horiz-adv-x="673" 
d="M44 0v539q0 11 8 18t17 7h173q11 0 18 -8t7 -17v-20q60 51 155 53q100 0 161 -64t61 -168v-340q0 -11 -8 -18t-17 -7h-172q-11 0 -18 8t-7 17v292q0 77 -70 77q-36 0 -58 -22.5t-27 -62.5v-284q0 -11 -8 -18t-17 -7h-173q-11 0 -18 8t-7 17zM94 25h123v260v3q6 57 42 94
t93 37q54 0 87 -35.5t33 -91.5v-267h122v315q0 85 -46.5 133.5t-125.5 48.5q-110 -2 -159 -84q-11 -15 -21 -12t-18 14l-7 11v63h-123v-489zM246 613l106 168q11 18 29 11l156 -55q2 0 4.5 -1t8 -5t8 -8.5t0 -12t-12.5 -16.5l-130 -113q-7 -6 -16 -6h-132h-5t-9.5 1.5
t-10.5 5t-3.5 12t7.5 19.5zM312 625h78l90 79l-97 34z" />
    <glyph glyph-name="Ncommaaccent" unicode="&#x145;" horiz-adv-x="786" 
d="M45 0v700q0 11 8 18t17 7h157q12 0 20 -10l278 -372v357q0 11 8 18t17 7h166q11 0 18 -8t7 -17v-700q0 -11 -8 -18t-17 -7h-157q-12 0 -20 10l-277 371v-356q0 -11 -8 -18t-17 -7h-167q-11 0 -18 8t-7 17zM95 25h117v406q0 20 11 24t23 -3l11 -6l315 -421h119v650h-116
v-407q0 -20 -11.5 -24t-22.5 2l-11 7l-316 422h-119v-650zM282 -285l38 89q-28 28 -28 72q0 46 31 77t77 31q44 0 75.5 -29t31.5 -78q0 -42 -26 -80l-73 -106q-8 -11 -21 -11h-82h-4t-9 1t-9.5 4.5t-4.5 10.5t4 19zM342 -124q0 -29 22 -44q17 -13 9 -31l-30 -71h31l65 95
q18 26 18 52q0 27 -16 42t-41 15q-26 0 -42 -15.5t-16 -42.5z" />
    <glyph glyph-name="ncommaaccent" unicode="&#x146;" horiz-adv-x="673" 
d="M44 0v539q0 11 8 18t17 7h173q11 0 18 -8t7 -17v-20q60 51 155 53q100 0 161 -64t61 -168v-340q0 -11 -8 -18t-17 -7h-172q-11 0 -18 8t-7 17v292q0 77 -70 77q-36 0 -58 -22.5t-27 -62.5v-284q0 -11 -8 -18t-17 -7h-173q-11 0 -18 8t-7 17zM94 25h123v260v3q6 57 42 94
t93 37q54 0 87 -35.5t33 -91.5v-267h122v315q0 85 -46.5 133.5t-125.5 48.5q-110 -2 -159 -84q-11 -15 -21 -12t-18 14l-7 11v63h-123v-489zM230 -285l38 89q-28 28 -28 72q0 46 31 77t77 31q44 0 75.5 -29t31.5 -78q0 -42 -26 -80l-73 -106q-8 -11 -21 -11h-82h-4t-9 1
t-9.5 4.5t-4.5 10.5t4 19zM290 -124q0 -29 22 -44q17 -13 9 -31l-30 -71h31l65 95q18 26 18 52q0 27 -16 42t-41 15q-26 0 -42 -15.5t-16 -42.5z" />
    <glyph glyph-name="Ncaron" unicode="&#x147;" horiz-adv-x="786" 
d="M45 0v700q0 11 8 18t17 7h157q12 0 20 -10l278 -372v357q0 11 8 18t17 7h166q11 0 18 -8t7 -17v-700q0 -11 -8 -18t-17 -7h-157q-12 0 -20 10l-277 371v-356q0 -11 -8 -18t-17 -7h-167q-11 0 -18 8t-7 17zM95 25h117v406q0 20 11 24t23 -3l11 -6l315 -421h119v650h-116
v-407q0 -20 -11.5 -24t-22.5 2l-11 7l-316 422h-119v-650zM173 907q-1 2 -3 4.5t-4 9.5t-1.5 12t7.5 9.5t21 4.5h135q14 0 21 -11l40 -61l40 61q8 11 21 11h135h5t10 -2.5t10.5 -6t3 -12t-8.5 -19.5l-121 -164q-7 -10 -20 -10h-150q-12 0 -20 10zM243 897l84 -114h124
l84 114h-72l-53 -81q-10 -16 -20.5 -16t-15.5 8l-6 8l-53 81h-72z" />
    <glyph glyph-name="ncaron" unicode="&#x148;" horiz-adv-x="673" 
d="M44 0v539q0 11 8 18t17 7h173q11 0 18 -8t7 -17v-20q60 51 155 53q100 0 161 -64t61 -168v-340q0 -11 -8 -18t-17 -7h-172q-11 0 -18 8t-7 17v292q0 77 -70 77q-36 0 -58 -22.5t-27 -62.5v-284q0 -11 -8 -18t-17 -7h-173q-11 0 -18 8t-7 17zM94 25h123v260v3q6 57 42 94
t93 37q54 0 87 -35.5t33 -91.5v-267h122v315q0 85 -46.5 133.5t-125.5 48.5q-110 -2 -159 -84q-11 -15 -21 -12t-18 14l-7 11v63h-123v-489zM133 746q-1 2 -3 4.5t-4 9.5t-1.5 12t7.5 9.5t21 4.5h135q14 0 21 -11l40 -61l40 61q8 11 21 11h135h5t10 -2.5t10.5 -6t3 -12
t-8.5 -19.5l-121 -164q-7 -10 -20 -10h-150q-12 0 -20 10zM203 736l84 -114h124l84 114h-72l-53 -81q-10 -16 -20.5 -16t-15.5 8l-6 8l-53 81h-72z" />
    <glyph glyph-name="Omacron" unicode="&#x14c;" horiz-adv-x="805" 
d="M-1 351q0 164 115.5 272t287.5 108t288 -108.5t116 -271.5q0 -164 -116 -274t-288 -110t-287.5 109.5t-115.5 274.5zM49 351q0 -143 100.5 -238.5t252.5 -95.5q153 0 253.5 95.5t100.5 238.5q0 142 -100.5 236t-253.5 94t-253 -94t-100 -236zM181 350q0 98 65.5 165
t157.5 67t155.5 -67t63.5 -165t-63.5 -166t-155.5 -68t-157.5 68t-65.5 166zM231 350q0 -78 51.5 -131t121.5 -53q71 0 120 52.5t49 131.5q0 78 -49 130t-120 52q-72 0 -122.5 -52t-50.5 -130zM231 793v116q0 11 8 18t17 7h278q11 0 18 -8t7 -17v-116q0 -11 -8 -18t-17 -7
h-278q-11 0 -18 8t-7 17zM281 818h228v66h-228v-66z" />
    <glyph glyph-name="omacron" unicode="&#x14d;" horiz-adv-x="637" 
d="M-1 270q0 134 89 217t231 83q141 0 230 -83t89 -217q0 -135 -89 -218t-230 -83q-142 0 -231 83t-89 218zM49 270q0 -114 73.5 -182.5t196.5 -68.5t196 68.5t73 182.5t-73 182t-196 68q-124 0 -197 -68t-73 -182zM154 632v116q0 11 8 18t17 7h278q11 0 18 -8t7 -17v-116
q0 -11 -8 -18t-17 -7h-278q-11 0 -18 8t-7 17zM173 268q0 71 40.5 118t105.5 47q64 0 104.5 -47t40.5 -118t-40.5 -118t-104.5 -47q-65 0 -105.5 47t-40.5 118zM204 657h228v66h-228v-66zM223 268q0 -54 26.5 -84.5t69.5 -30.5q42 0 68.5 30.5t26.5 84.5t-26.5 84.5
t-68.5 30.5q-43 0 -69.5 -30.5t-26.5 -84.5z" />
    <glyph glyph-name="Ohungarumlaut" unicode="&#x150;" horiz-adv-x="805" 
d="M-1 351q0 164 115.5 272t287.5 108t288 -108.5t116 -271.5q0 -164 -116 -274t-288 -110t-287.5 109.5t-115.5 274.5zM49 351q0 -143 100.5 -238.5t252.5 -95.5q153 0 253.5 95.5t100.5 238.5q0 142 -100.5 236t-253.5 94t-253 -94t-100 -236zM181 350q0 98 65.5 165
t157.5 67t155.5 -67t63.5 -165t-63.5 -166t-155.5 -68t-157.5 68t-65.5 166zM199 771l85 171q10 20 31 12l131 -48q28 -14 11 -38l-90 -123q-7 -10 -20 -10h-126h-4.5t-9 1t-9 5t-4.5 11t5 19zM231 350q0 -78 51.5 -131t121.5 -53q71 0 120 52.5t49 131.5q0 78 -49 130
t-120 52q-72 0 -122.5 -52t-50.5 -130zM261 785h73l63 86l-79 29zM393 771l85 171q10 20 31 12l131 -48q28 -14 11 -38l-90 -123q-7 -10 -20 -10h-126h-4.5t-9 1t-9 5t-4.5 11t5 19zM455 785h73l63 86l-79 29z" />
    <glyph glyph-name="ohungarumlaut" unicode="&#x151;" horiz-adv-x="637" 
d="M-1 270q0 134 89 217t231 83q141 0 230 -83t89 -217q0 -135 -89 -218t-230 -83q-142 0 -231 83t-89 218zM49 270q0 -114 73.5 -182.5t196.5 -68.5t196 68.5t73 182.5t-73 182t-196 68q-124 0 -197 -68t-73 -182zM123 609l85 171q10 20 31 12l131 -48q28 -14 11 -38
l-90 -123q-7 -10 -20 -10h-126h-4.5t-9 1t-9 5t-4.5 11t5 19zM173 268q0 71 40.5 118t105.5 47q64 0 104.5 -47t40.5 -118t-40.5 -118t-104.5 -47q-65 0 -105.5 47t-40.5 118zM185 623h73l63 86l-79 29zM223 268q0 -54 26.5 -84.5t69.5 -30.5q42 0 68.5 30.5t26.5 84.5
t-26.5 84.5t-68.5 30.5q-43 0 -69.5 -30.5t-26.5 -84.5zM317 609l85 171q10 20 31 12l131 -48q28 -14 11 -38l-90 -123q-7 -10 -20 -10h-126h-4.5t-9 1t-9 5t-4.5 11t5 19zM379 623h73l63 86l-79 29z" />
    <glyph glyph-name="OE" unicode="&#x152;" horiz-adv-x="1113" 
d="M-1 349q0 161 115.5 269t286.5 108h657q11 0 18 -8t7 -17v-141q0 -11 -8 -18t-17 -7h-346v-89h309q11 0 18 -8t7 -17v-139q0 -11 -8 -18t-17 -7h-309v-92h356q11 0 18 -8t7 -17v-140q0 -11 -8 -18t-17 -7h-667q-170 0 -286 107t-116 267zM49 349q0 -139 100.5 -231.5
t251.5 -92.5h642v90h-356q-9 0 -17 7t-8 18v142q0 9 7 17t18 8h309v89h-309q-9 0 -17 7t-8 18v139q0 9 7 17t18 8h346v91h-632q-152 0 -252 -93.5t-100 -233.5zM181 348q0 98 63.5 164.5t157.5 66.5h107q9 0 17 -7t8 -18v-410q0 -9 -7.5 -17t-17.5 -8l-107 -1q-95 0 -158 66
t-63 164zM231 348q0 -78 49 -129t122 -51l82 1v360h-82q-74 0 -122.5 -51t-48.5 -130z" />
    <glyph glyph-name="oe" unicode="&#x153;" horiz-adv-x="1019" 
d="M-1 270q0 134 89 217t231 83q125 0 202 -77q71 77 194 77h19q137 -7 214.5 -100t70.5 -239q-1 -10 -8.5 -17t-16.5 -7h-357q27 -59 97 -59q64 0 114 48q18 16 34 0l91 -89q7 -7 7.5 -17.5t-6.5 -17.5q-97 -103 -255 -103q-124 0 -198 77q-75 -77 -202 -77q-142 0 -231 83
t-89 218zM49 270q0 -114 73.5 -182.5t196.5 -68.5q120 0 182 80q18 23 40 0q59 -80 178 -80q121 0 201 70l-56 55q-59 -46 -130 -46q-59 0 -100.5 34.5t-54.5 94.5q-3 13 2.5 20t11 8.5t10.5 1.5h367q-2 122 -69.5 192.5t-185.5 70.5q-117 0 -173 -80q-9 -13 -19 -13
t-14.5 4.5t-6.5 7.5q-62 81 -183 81q-124 0 -197 -68t-73 -182zM173 268q0 71 40.5 118t105.5 47q64 0 104.5 -47t40.5 -118t-40.5 -118t-104.5 -47q-65 0 -105.5 47t-40.5 118zM223 268q0 -54 26.5 -84.5t69.5 -30.5q42 0 68.5 30.5t26.5 84.5t-26.5 84.5t-68.5 30.5
q-43 0 -69.5 -30.5t-26.5 -84.5zM577 319q9 59 46.5 97t92.5 38q58 0 94.5 -40t36.5 -99q0 -9 -7 -17t-18 -8h-220q-29 0 -25 29zM634 340h160q-7 30 -27 47t-51 17q-59 0 -82 -64z" />
    <glyph glyph-name="Racute" unicode="&#x154;" horiz-adv-x="724" 
d="M45 0v700q0 11 8 18t17 7h313q147 0 231.5 -70.5t84.5 -198.5q0 -160 -117 -234l133 -209l1 -1q0 -1 1.5 -3.5t2.5 -5t2 -6t0.5 -6.5t-2 -6t-4.5 -5t-8.5 -3.5t-13.5 -1.5h-202q-15 0 -22 13l-97 184h-100v-172q0 -11 -8 -18t-17 -7h-178q-11 0 -18 8t-7 17zM95 25h128
v172q0 9 7 17t18 8h140q16 0 22 -13l97 -184h141l-122 193q-13 22 10 35q113 56 113 203q0 106 -67.5 162.5t-198.5 56.5h-288v-650zM223 337v223q0 9 7 17t18 8h135q67 0 107 -35t40 -100t-40.5 -101.5t-106.5 -36.5h-135q-9 0 -17 7t-8 18zM256 774l106 168q11 18 29 11
l156 -55q2 0 4.5 -1t8 -5t8 -8.5t0 -12t-12.5 -16.5l-130 -113q-7 -6 -16 -6h-132h-5t-9.5 1.5t-10.5 5t-3.5 12t7.5 19.5zM273 362h110q50 0 73.5 21.5t23.5 66.5q0 44 -23.5 64.5t-73.5 20.5h-110v-173zM322 786h78l90 79l-97 34z" />
    <glyph glyph-name="racute" unicode="&#x155;" horiz-adv-x="427" 
d="M44 0v539q0 11 8 18t17 7h173q11 0 18 -8t7 -17v-22q61 53 150 55q10 0 17.5 -7.5t7.5 -17.5v-156q0 -10 -6.5 -18t-20.5 -7q-66 6 -104 -19.5t-44 -71.5v-275q0 -11 -8 -18t-17 -7h-173q-11 0 -18 8t-7 17zM94 25h123v252v3q7 63 55 99.5t120 37.5v103q-84 -10 -128 -85
q-11 -15 -21.5 -12t-18.5 14l-7 11v66h-123v-489zM117 613l106 168q11 18 29 11l156 -55q2 0 4.5 -1t8 -5t8 -8.5t0 -12t-12.5 -16.5l-130 -113q-8 -6 -16 -6h-132h-5t-9.5 1.5t-10.5 5t-3.5 12t7.5 19.5zM183 625h78l90 79l-97 34z" />
    <glyph glyph-name="Rcommaaccent" unicode="&#x156;" horiz-adv-x="724" 
d="M45 0v700q0 11 8 18t17 7h313q147 0 231.5 -70.5t84.5 -198.5q0 -160 -117 -234l133 -209l1 -1q0 -1 1.5 -3.5t2.5 -5t2 -6t0.5 -6.5t-2 -6t-4.5 -5t-8.5 -3.5t-13.5 -1.5h-202q-15 0 -22 13l-97 184h-100v-172q0 -11 -8 -18t-17 -7h-178q-11 0 -18 8t-7 17zM95 25h128
v172q0 9 7 17t18 8h140q16 0 22 -13l97 -184h141l-122 193q-13 22 10 35q113 56 113 203q0 106 -67.5 162.5t-198.5 56.5h-288v-650zM223 337v223q0 9 7 17t18 8h135q67 0 107 -35t40 -100t-40.5 -101.5t-106.5 -36.5h-135q-9 0 -17 7t-8 18zM248 -285l38 89q-28 28 -28 72
q0 46 31 77t77 31q44 0 75.5 -29t31.5 -78q0 -42 -26 -80l-73 -106q-8 -11 -21 -11h-82h-4t-9 1t-9.5 4.5t-4.5 10.5t4 19zM273 362h110q50 0 73.5 21.5t23.5 66.5q0 44 -23.5 64.5t-73.5 20.5h-110v-173zM308 -124q0 -29 22 -44q17 -13 9 -31l-30 -71h31l65 95q18 26 18 52
q0 27 -16 42t-41 15q-26 0 -42 -15.5t-16 -42.5z" />
    <glyph glyph-name="rcommaaccent" unicode="&#x157;" horiz-adv-x="427" 
d="M39 -285l38 89q-28 28 -28 72q0 46 31 77t77 31q44 0 75.5 -29t31.5 -78q0 -42 -26 -80l-73 -106q-8 -11 -21 -11h-82h-4t-9 1t-9.5 4.5t-4.5 10.5t4 19zM44 0v539q0 11 8 18t17 7h173q11 0 18 -8t7 -17v-22q61 53 150 55q10 0 17.5 -7.5t7.5 -17.5v-156q0 -10 -6.5 -18
t-20.5 -7q-66 6 -104 -19.5t-44 -71.5v-275q0 -11 -8 -18t-17 -7h-173q-11 0 -18 8t-7 17zM94 25h123v252v3q7 63 55 99.5t120 37.5v103q-84 -10 -128 -85q-11 -15 -21.5 -12t-18.5 14l-7 11v66h-123v-489zM99 -124q0 -29 22 -44q17 -13 9 -31l-30 -71h31l65 95q18 26 18 52
q0 27 -16 42t-41 15q-26 0 -42 -15.5t-16 -42.5z" />
    <glyph glyph-name="Rcaron" unicode="&#x158;" horiz-adv-x="724" 
d="M45 0v700q0 11 8 18t17 7h313q147 0 231.5 -70.5t84.5 -198.5q0 -160 -117 -234l133 -209l1 -1q0 -1 1.5 -3.5t2.5 -5t2 -6t0.5 -6.5t-2 -6t-4.5 -5t-8.5 -3.5t-13.5 -1.5h-202q-15 0 -22 13l-97 184h-100v-172q0 -11 -8 -18t-17 -7h-178q-11 0 -18 8t-7 17zM95 25h128
v172q0 9 7 17t18 8h140q16 0 22 -13l97 -184h141l-122 193q-13 22 10 35q113 56 113 203q0 106 -67.5 162.5t-198.5 56.5h-288v-650zM143 907q-1 2 -3 4.5t-4 9.5t-1.5 12t7.5 9.5t21 4.5h135q14 0 21 -11l40 -61l40 61q8 11 21 11h135h5t10 -2.5t10.5 -6t3 -12t-8.5 -19.5
l-121 -164q-7 -10 -20 -10h-150q-12 0 -20 10zM213 897l84 -114h124l84 114h-72l-53 -81q-10 -16 -20.5 -16t-15.5 8l-6 8l-53 81h-72zM223 337v223q0 9 7 17t18 8h135q67 0 107 -35t40 -100t-40.5 -101.5t-106.5 -36.5h-135q-9 0 -17 7t-8 18zM273 362h110q50 0 73.5 21.5
t23.5 66.5q0 44 -23.5 64.5t-73.5 20.5h-110v-173z" />
    <glyph glyph-name="rcaron" unicode="&#x159;" horiz-adv-x="427" 
d="M4 746q-1 2 -3 4.5t-4 9.5t-1.5 12t7.5 9.5t21 4.5h135q14 0 21 -11l40 -61l40 61q8 11 21 11h135h5t10 -2.5t10.5 -6t3 -12t-8.5 -19.5l-121 -164q-7 -10 -20 -10h-150q-12 0 -20 10zM44 0v539q0 11 8 18t17 7h173q11 0 18 -8t7 -17v-22q61 53 150 55q10 0 17.5 -7.5
t7.5 -17.5v-156q0 -10 -6.5 -18t-20.5 -7q-66 6 -104 -19.5t-44 -71.5v-275q0 -11 -8 -18t-17 -7h-173q-11 0 -18 8t-7 17zM74 736l84 -114h124l84 114h-72l-53 -81q-10 -16 -20.5 -16t-16.5 8l-5 8l-53 81h-72zM94 25h123v252v3q7 63 55 99.5t120 37.5v103
q-84 -10 -128 -85q-11 -15 -21.5 -12t-18.5 14l-7 11v66h-123v-489z" />
    <glyph glyph-name="Sacute" unicode="&#x15a;" horiz-adv-x="644" 
d="M-5 117l69 137l2 2q1 3 2 5t3.5 4.5t5.5 3.5t6.5 1.5t8.5 -1.5t10 -7q49 -43 118 -71t119 -28q66 0 66 36q0 18 -27.5 31t-68.5 20.5t-89 24.5t-89 40.5t-68.5 70.5t-27.5 111q0 109 85 172.5t219 63.5q164 0 290 -82q19 -12 9 -32l-67 -139q-5 -9 -14.5 -13t-21.5 2
q-53 30 -113 50t-98 20q-52 0 -52 -26q0 -15 20.5 -26t53 -19.5t72 -19t79 -28.5t72 -43t53 -68.5t20.5 -100.5q0 -114 -88 -176.5t-217 -62.5q-91 0 -180 31.5t-156 86.5q-15 12 -6 30zM49 113q59 -43 135 -68.5t153 -25.5q115 0 185 50.5t70 138.5q0 46 -20.5 79.5t-53 52
t-72 32t-79 24.5t-72 24t-53 36.5t-20.5 56.5q0 39 30 57.5t72 18.5q92 0 213 -63l46 94q-112 63 -244 63q-119 0 -186.5 -51t-67.5 -135q0 -52 27.5 -87.5t68.5 -51t89 -30.5t89 -26.5t68.5 -37.5t27.5 -65q0 -43 -33.5 -64.5t-82.5 -21.5q-55 0 -122 24.5t-123 66.5z
M232 774l106 168q11 18 29 11l156 -55q2 0 4.5 -1t8 -5t8 -8.5t0 -12t-12.5 -16.5l-130 -113q-7 -6 -16 -6h-132h-5t-9.5 1.5t-10.5 5t-3.5 12t7.5 19.5zM298 786h78l90 79l-97 34z" />
    <glyph glyph-name="sacute" unicode="&#x15b;" horiz-adv-x="513" 
d="M-6 80l55 110q4 9 12.5 13t23.5 -4q88 -62 177 -62q34 0 34 12q0 8 -28.5 15t-69.5 18.5t-82 31t-69.5 61.5t-28.5 101q0 93 69.5 144.5t174.5 51.5q126 0 235 -64q9 -5 11.5 -15.5t-2.5 -18.5l-59 -112q-5 -9 -15 -12t-19 2q-94 51 -158 51q-28 0 -28 -12q0 -7 29 -13.5
t71 -18t83.5 -31t70.5 -62t29 -101.5q0 -93 -72 -145t-180 -52q-152 0 -257 81q-17 13 -7 31zM48 77q88 -59 210 -59q93 0 147.5 39t54.5 108q0 46 -29 75t-70.5 42t-83.5 24t-71 31.5t-29 53.5q0 32 23.5 47t54.5 15q66 0 159 -45l36 68q-89 46 -188 46q-89 0 -141.5 -39
t-52.5 -107q0 -46 28.5 -74.5t69.5 -41.5t82 -24t69.5 -32t28.5 -55q0 -33 -25.5 -47.5t-58.5 -14.5q-89 0 -181 56zM158 613l106 168q11 18 29 11l156 -55q2 0 4.5 -1t8 -5t8 -8.5t0 -12t-12.5 -16.5l-130 -113q-7 -6 -16 -6h-132h-5t-9.5 1.5t-10.5 5t-3.5 12t7.5 19.5z
M224 625h78l90 79l-97 34z" />
    <glyph glyph-name="Scedilla" unicode="&#x15e;" horiz-adv-x="644" 
d="M-5 117l69 137l2 2q1 3 2 5t3.5 4.5t5.5 3.5t6.5 1.5t8.5 -1.5t10 -7q49 -43 118 -71t119 -28q66 0 66 36q0 18 -27.5 31t-68.5 20.5t-89 24.5t-89 40.5t-68.5 70.5t-27.5 111q0 109 85 172.5t219 63.5q164 0 290 -82q19 -12 9 -32l-67 -139q-5 -9 -14.5 -13t-21.5 2
q-53 30 -113 50t-98 20q-52 0 -52 -26q0 -15 20.5 -26t53 -19.5t72 -19t79 -28.5t72 -43t53 -68.5t20.5 -100.5q0 -95 -64 -155.5t-164 -77.5l-6 -13q58 -30 58 -94q0 -58 -43 -93t-107 -35q-58 0 -109 35q-17 12 -9 31l32 71q0 1 1 3.5t5 7t8 6.5t11 0t15 -9q13 -13 32 -13
q17 0 17 12q0 11 -21 11q-10 0 -32 -4h-11h-3.5t-7.5 1.5t-8 5t-2.5 11t5.5 18.5l23 47q-153 23 -261 113q-15 13 -6 30zM49 113q108 -81 253 -93q18 -1 23 -10t1 -18l-3 -8l-19 -39q27 -2 46 -18.5t19 -42.5t-19.5 -44t-47.5 -18q-21 0 -38 8l-11 -24q34 -16 63 -16
q47 0 73.5 21.5t26.5 56.5q0 44 -49 57q-30 7 -16 35l25 49q5 12 19 14q91 12 144 60t53 125q0 46 -20.5 79.5t-53 52t-72 32t-79 24.5t-72 24t-53 36.5t-20.5 56.5q0 39 30 57.5t72 18.5q92 0 213 -63l46 94q-112 63 -244 63q-119 0 -186.5 -51t-67.5 -135
q0 -52 27.5 -87.5t68.5 -51t89 -30.5t89 -26.5t68.5 -37.5t27.5 -65q0 -43 -33.5 -64.5t-82.5 -21.5q-55 0 -122 24.5t-123 66.5z" />
    <glyph glyph-name="scedilla" unicode="&#x15f;" horiz-adv-x="513" 
d="M-6 80l55 110q4 9 12.5 13t23.5 -4q88 -62 177 -62q34 0 34 12q0 8 -28.5 15t-69.5 18.5t-82 31t-69.5 61.5t-28.5 101q0 93 69.5 144.5t174.5 51.5q126 0 235 -64q9 -5 11.5 -15.5t-2.5 -18.5l-59 -112q-5 -9 -15 -12t-19 2q-94 51 -158 51q-28 0 -28 -12q0 -7 29 -13.5
t71 -18t83.5 -31t70.5 -62t29 -101.5q0 -74 -47 -123t-124 -66l-7 -14q58 -30 58 -94q0 -58 -43 -93t-107 -35q-58 0 -109 35q-17 12 -9 31l32 71q0 1 1 3.5t5 7t8 6.5t11 0t15 -9q13 -13 32 -13q17 0 17 12q0 11 -21 11q-10 0 -32 -4h-11h-3.5t-7 1.5t-7.5 5t-2.5 11
t5.5 18.5l22 46q-109 17 -185 76q-17 13 -7 31zM48 77q74 -50 178 -58q18 -1 23 -10t1 -17l-4 -9l-18 -38q27 -2 46 -18.5t19 -42.5t-19.5 -44t-47.5 -18q-21 0 -38 8l-11 -24q34 -16 63 -16q47 0 73.5 21.5t26.5 56.5q0 44 -49 57q-30 7 -16 35l25 49q6 13 17 14
q69 13 106 49t37 93q0 46 -29 75t-70.5 42t-83.5 24t-71 31.5t-29 53.5q0 32 23.5 47t54.5 15q66 0 159 -45l36 68q-89 46 -188 46q-89 0 -141.5 -39t-52.5 -107q0 -46 28.5 -74.5t69.5 -41.5t82 -24t69.5 -32t28.5 -55q0 -33 -25.5 -47.5t-58.5 -14.5q-89 0 -181 56z" />
    <glyph glyph-name="Scaron" unicode="&#x160;" horiz-adv-x="644" 
d="M-5 117l69 137l2 2q1 3 2 5t3.5 4.5t5.5 3.5t6.5 1.5t8.5 -1.5t10 -7q49 -43 118 -71t119 -28q66 0 66 36q0 18 -27.5 31t-68.5 20.5t-89 24.5t-89 40.5t-68.5 70.5t-27.5 111q0 109 85 172.5t219 63.5q164 0 290 -82q19 -12 9 -32l-67 -139q-5 -9 -14.5 -13t-21.5 2
q-53 30 -113 50t-98 20q-52 0 -52 -26q0 -15 20.5 -26t53 -19.5t72 -19t79 -28.5t72 -43t53 -68.5t20.5 -100.5q0 -114 -88 -176.5t-217 -62.5q-91 0 -180 31.5t-156 86.5q-15 12 -6 30zM49 113q59 -43 135 -68.5t153 -25.5q115 0 185 50.5t70 138.5q0 46 -20.5 79.5t-53 52
t-72 32t-79 24.5t-72 24t-53 36.5t-20.5 56.5q0 39 30 57.5t72 18.5q92 0 213 -63l46 94q-112 63 -244 63q-119 0 -186.5 -51t-67.5 -135q0 -52 27.5 -87.5t68.5 -51t89 -30.5t89 -26.5t68.5 -37.5t27.5 -65q0 -43 -33.5 -64.5t-82.5 -21.5q-55 0 -122 24.5t-123 66.5z
M119 907q-1 2 -3 4.5t-4 9.5t-1.5 12t7.5 9.5t21 4.5h135q14 0 21 -11l40 -61l40 61q8 11 21 11h135h5t10 -2.5t10.5 -6t3 -12t-8.5 -19.5l-121 -164q-7 -10 -20 -10h-150q-12 0 -20 10zM189 897l84 -114h124l84 114h-72l-53 -81q-10 -16 -20.5 -16t-15.5 8l-6 8l-53 81h-72
z" />
    <glyph glyph-name="scaron" unicode="&#x161;" horiz-adv-x="513" 
d="M-6 80l55 110q4 9 12.5 13t23.5 -4q88 -62 177 -62q34 0 34 12q0 8 -28.5 15t-69.5 18.5t-82 31t-69.5 61.5t-28.5 101q0 93 69.5 144.5t174.5 51.5q126 0 235 -64q9 -5 11.5 -15.5t-2.5 -18.5l-59 -112q-5 -9 -15 -12t-19 2q-94 51 -158 51q-28 0 -28 -12q0 -7 29 -13.5
t71 -18t83.5 -31t70.5 -62t29 -101.5q0 -93 -72 -145t-180 -52q-152 0 -257 81q-17 13 -7 31zM46 746q-1 2 -3 4.5t-4 9.5t-1.5 12t7.5 9.5t21 4.5h135q14 0 21 -11l40 -61l40 61q8 11 21 11h135h5t10 -2.5t10.5 -6t3 -12t-8.5 -19.5l-121 -164q-7 -10 -20 -10h-150
q-12 0 -20 10zM48 77q88 -59 210 -59q93 0 147.5 39t54.5 108q0 46 -29 75t-70.5 42t-83.5 24t-71 31.5t-29 53.5q0 32 23.5 47t54.5 15q66 0 159 -45l36 68q-89 46 -188 46q-89 0 -141.5 -39t-52.5 -107q0 -46 28.5 -74.5t69.5 -41.5t82 -24t69.5 -32t28.5 -55
q0 -33 -25.5 -47.5t-58.5 -14.5q-89 0 -181 56zM116 736l84 -114h124l84 114h-72l-53 -81q-10 -16 -20.5 -16t-16.5 8l-5 8l-53 81h-72z" />
    <glyph glyph-name="Tcedilla" unicode="&#x162;" horiz-adv-x="611" 
d="M-18 557v144q0 11 8 18t17 7h598q11 0 18 -8t7 -17v-144q0 -11 -8 -18t-17 -7h-186v-532q0 -11 -8 -18t-17 -7h-18l-6 -13q58 -30 58 -94q0 -58 -43 -93t-107 -35q-58 0 -109 35q-17 12 -9 31l32 71q0 1 1 3.5t5 7t8 6.5t11 0t15 -9q13 -13 32 -13q17 0 17 12
q0 11 -21 11q-10 0 -32 -4h-11h-3.5t-7.5 1.5t-7.5 5t-2.5 11t5 18.5l23 48h-8q-11 0 -18 8t-7 17v532h-184q-11 0 -18 8t-7 17zM32 582h184q9 0 17 -7t8 -18v-532h23q20 0 25.5 -9t1.5 -18l-4 -9l-22 -44q28 -2 47 -18.5t19 -42.5t-19.5 -44t-47.5 -18q-21 0 -38 8l-11 -24
q34 -16 63 -16q47 0 73.5 21.5t26.5 56.5q0 44 -49 57q-30 7 -16 35l26 51q7 14 22 14h8v532q0 9 7 17t18 8h186v94h-548v-94z" />
    <glyph glyph-name="tcedilla" unicode="&#x163;" horiz-adv-x="435" 
d="M-6 401v113q0 11 8 18t17 7h50v125q0 11 8 18t17 7h172q11 0 18 -8t7 -17v-124h116q11 0 18 -8t7 -17v-114q0 -11 -8 -18t-17 -7h-116v-186q0 -23 5 -29t20 -5q21 0 57 16q6 5 18 1.5t16 -17.5l34 -120q5 -19 -12 -29q-37 -22 -87 -32l-6 -13q58 -30 58 -94
q0 -58 -43 -93t-107 -35q-58 0 -109 35q-17 12 -9 31l32 71q0 1 1 3.5t5 7t8 6.5t11 0t15 -9q13 -13 32 -13q17 0 17 12q0 11 -21 11q-10 0 -32 -4h-11h-3.5t-7.5 1.5t-7.5 5t-2.5 11t5 18.5l25 52q-57 20 -90 67.5t-33 116.5v213h-50q-11 0 -18 8t-7 17zM44 426h50
q9 0 17 -7t8 -18v-238q0 -121 114 -142q28 -5 18 -36l-20 -40q28 -2 47 -18.5t19 -42.5t-19.5 -44t-47.5 -18q-21 0 -38 8l-11 -24q34 -16 63 -16q47 0 73.5 21.5t26.5 56.5q0 44 -49 57q-30 8 -16 35l24 48q6 13 18 14q35 4 66 20l-21 74q-28 -10 -50 -10q-34 -1 -54.5 22
t-20.5 62v211q0 9 7 17t18 8h116v64h-116q-9 0 -17 7t-8 18v124h-122v-125q0 -9 -7 -17t-18 -8h-50v-63z" />
    <glyph glyph-name="Tcaron" unicode="&#x164;" horiz-adv-x="611" 
d="M-18 557v144q0 11 8 18t17 7h598q11 0 18 -8t7 -17v-144q0 -11 -8 -18t-17 -7h-186v-532q0 -11 -8 -18t-17 -7h-178q-11 0 -18 8t-7 17v532h-184q-11 0 -18 8t-7 17zM32 582h184q9 0 17 -7t8 -18v-532h128v532q0 9 7 17t18 8h186v94h-548v-94zM97 907q-1 2 -3 4.5t-4 9.5
t-1.5 12t7.5 9.5t21 4.5h135q14 0 21 -11l40 -61l40 61q8 11 21 11h135h5t10 -2.5t10.5 -6t3 -12t-8.5 -19.5l-121 -164q-7 -10 -20 -10h-150q-12 0 -20 10zM167 897l84 -114h124l84 114h-72l-53 -81q-10 -16 -20.5 -16t-15.5 8l-6 8l-53 81h-72z" />
    <glyph glyph-name="tcaron" unicode="&#x165;" horiz-adv-x="428" 
d="M-6 401v113q0 11 8 18t17 7h50v125q0 11 8 18t17 7h172q11 0 18 -8t7 -17v-124h116q11 0 18 -8t7 -17v-114q0 -11 -8 -18t-17 -7h-116v-186q0 -23 5.5 -29t19.5 -5q21 0 57 16q6 5 18 1.5t16 -17.5l34 -120q5 -19 -11 -29q-68 -40 -157 -40t-146.5 52t-57.5 144v213h-50
q-11 0 -18 8t-7 17zM44 426h50q9 0 17 -7t8 -18v-238q0 -71 41.5 -108.5t112.5 -37.5q61 0 114 25l-21 74q-28 -10 -50 -10q-34 -1 -54.5 22t-20.5 62v211q0 9 7 17t18 8h116v64h-116q-9 0 -17 7t-8 18v124h-122v-125q0 -9 -7 -17t-18 -8h-50v-63zM284 589l38 90
q-28 29 -28 72q0 46 31 76.5t77 30.5q44 0 75.5 -29t31.5 -78q0 -40 -26 -80l-73 -106q-8 -11 -21 -11h-82h-4t-8.5 1t-9 4.5t-5 10.5t3.5 19zM344 751q0 -29 22 -44q17 -11 9 -31l-30 -72h31l65 95q18 28 18 52q0 27 -16 42t-41 15q-26 0 -42 -15.5t-16 -41.5z" />
    <glyph glyph-name="Umacron" unicode="&#x16a;" horiz-adv-x="758" 
d="M33 294v406q0 11 8 18t17 7h178q11 0 18 -8t7 -17v-406q0 -61 33 -94.5t88 -33.5q54 0 85 33t31 95v406q0 11 8 18t17 7h177q11 0 18 -8t7 -17v-406q0 -149 -94 -238t-250 -89q-157 0 -252.5 89t-95.5 238zM83 294q0 -129 79.5 -203t218.5 -74q138 0 216 74t78 203v381
h-127v-381q0 -79 -46 -128.5t-120 -49.5t-122.5 49.5t-48.5 128.5v381h-128v-381zM215 793v116q0 11 8 18t17 7h278q11 0 18 -8t7 -17v-116q0 -11 -8 -18t-17 -7h-278q-11 0 -18 8t-7 17zM265 818h228v66h-228v-66z" />
    <glyph glyph-name="umacron" unicode="&#x16b;" horiz-adv-x="663" 
d="M28 199v340q0 11 8 18t17 7h173q11 0 18 -8t7 -17v-291q0 -78 65 -78q37 1 58.5 28t21.5 75v266q0 11 8 18t17 7h173q11 0 18 -8t7 -17v-539q0 -11 -8 -18t-17 -7h-173q-11 0 -18 8t-7 17v19q-60 -51 -150 -51q-98 0 -158 63.5t-60 167.5zM78 199q0 -85 45 -133t123 -48
q105 0 153 84q11 15 21.5 12t17.5 -14l8 -11v-64h123v489h-123v-241q0 -64 -34.5 -108t-95.5 -45q-52 0 -83.5 36t-31.5 92v266h-123v-315zM163 632v116q0 11 8 18t17 7h278q11 0 18 -8t7 -17v-116q0 -11 -8 -18t-17 -7h-278q-11 0 -18 8t-7 17zM213 657h228v66h-228v-66z
" />
    <glyph glyph-name="Uring" unicode="&#x16e;" horiz-adv-x="758" 
d="M33 294v406q0 11 8 18t17 7h178q11 0 18 -8t7 -17v-406q0 -61 33 -94.5t88 -33.5q54 0 85 33t31 95v406q0 11 8 18t17 7h177q11 0 18 -8t7 -17v-406q0 -149 -94 -238t-250 -89q-157 0 -252.5 89t-95.5 238zM83 294q0 -129 79.5 -203t218.5 -74q138 0 216 74t78 203v381
h-127v-381q0 -79 -46 -128.5t-120 -49.5t-122.5 49.5t-48.5 128.5v381h-128v-381zM233 855q0 60 42.5 102.5t103.5 42.5t103.5 -42.5t42.5 -102.5t-42.5 -102.5t-103.5 -42.5t-103.5 42.5t-42.5 102.5zM283 855q0 -39 28 -67t68 -28t68 28t28 67t-28 67t-68 28t-68 -28
t-28 -67zM301 855q0 32 23 54.5t55 22.5t55 -22.5t23 -54.5t-23 -54.5t-55 -22.5t-55 22.5t-23 54.5zM351 855q0 -11 8 -19t20 -8t20 8t8 19t-8.5 19t-19.5 8t-19.5 -8t-8.5 -19z" />
    <glyph glyph-name="uring" unicode="&#x16f;" horiz-adv-x="663" 
d="M28 199v340q0 11 8 18t17 7h173q11 0 18 -8t7 -17v-291q0 -78 65 -78q37 1 58.5 28t21.5 75v266q0 11 8 18t17 7h173q11 0 18 -8t7 -17v-539q0 -11 -8 -18t-17 -7h-173q-11 0 -18 8t-7 17v19q-60 -51 -150 -51q-98 0 -158 63.5t-60 167.5zM78 199q0 -85 45 -133t123 -48
q105 0 153 84q11 15 21.5 12t17.5 -14l8 -11v-64h123v489h-123v-241q0 -64 -34.5 -108t-95.5 -45q-52 0 -83.5 36t-31.5 92v266h-123v-315zM181 694q0 60 42.5 102.5t103.5 42.5t103.5 -42.5t42.5 -102.5t-42.5 -102.5t-103.5 -42.5t-103.5 42.5t-42.5 102.5zM231 694
q0 -39 28 -67t68 -28t68 28t28 67t-28 67t-68 28t-68 -28t-28 -67zM249 694q0 32 23 54.5t55 22.5t55 -22.5t23 -54.5t-23 -54.5t-55 -22.5t-55 22.5t-23 54.5zM299 694q0 -11 8 -19t20 -8t20 8t8 19t-8.5 19t-19.5 8t-19.5 -8t-8.5 -19z" />
    <glyph glyph-name="Uhungarumlaut" unicode="&#x170;" horiz-adv-x="758" 
d="M33 294v406q0 11 8 18t17 7h178q11 0 18 -8t7 -17v-406q0 -61 33 -94.5t88 -33.5q54 0 85 33t31 95v406q0 11 8 18t17 7h177q11 0 18 -8t7 -17v-406q0 -149 -94 -238t-250 -89q-157 0 -252.5 89t-95.5 238zM83 294q0 -129 79.5 -203t218.5 -74q138 0 216 74t78 203v381
h-127v-381q0 -79 -46 -128.5t-120 -49.5t-122.5 49.5t-48.5 128.5v381h-128v-381zM184 771l85 171q10 20 31 12l131 -48q28 -14 11 -38l-90 -123q-7 -10 -20 -10h-126h-4.5t-9 1t-9 5t-4.5 11t5 19zM246 785h73l63 86l-79 29zM378 771l85 171q10 20 31 12l131 -48
q28 -14 11 -38l-90 -123q-7 -10 -20 -10h-126h-4.5t-9 1t-9 5t-4.5 11t5 19zM440 785h73l63 86l-79 29z" />
    <glyph glyph-name="uhungarumlaut" unicode="&#x171;" horiz-adv-x="663" 
d="M28 199v340q0 11 8 18t17 7h173q11 0 18 -8t7 -17v-291q0 -78 65 -78q37 1 58.5 28t21.5 75v266q0 11 8 18t17 7h173q11 0 18 -8t7 -17v-539q0 -11 -8 -18t-17 -7h-173q-11 0 -18 8t-7 17v19q-60 -51 -150 -51q-98 0 -158 63.5t-60 167.5zM78 199q0 -85 45 -133t123 -48
q105 0 153 84q11 15 21.5 12t17.5 -14l8 -11v-64h123v489h-123v-241q0 -64 -34.5 -108t-95.5 -45q-52 0 -83.5 36t-31.5 92v266h-123v-315zM131 610l85 171q10 20 31 12l131 -48q28 -14 11 -38l-90 -123q-7 -10 -20 -10h-126h-4.5t-9 1t-9 5t-4.5 11t5 19zM193 624h73l63 86
l-79 29zM325 610l85 171q10 20 31 12l131 -48q28 -14 11 -38l-90 -123q-7 -10 -20 -10h-126h-4.5t-9 1t-9 5t-4.5 11t5 19zM387 624h73l63 86l-79 29z" />
    <glyph glyph-name="Uogonek" unicode="&#x172;" horiz-adv-x="759" 
d="M33 294v407q0 11 8 18t17 7h177q11 0 18 -8t7 -17v-407q0 -60 33.5 -94t88.5 -34q54 0 85 33t31 95v407q0 11 8 18t17 7h178q11 0 18 -8t7 -17v-407q0 -111 -54 -191t-151 -114q-39 -58 -41 -79q9 4 18 19q18 27 40 2l44 -51q12 -14 3 -29q-47 -79 -130 -79q-43 0 -78 27
t-35 81q0 43 23 87q-151 5 -241.5 93.5t-90.5 233.5zM83 294q0 -129 79.5 -203t218.5 -74l28 1q22 1 27.5 -9t-0.5 -20l-5 -10q-39 -56 -39 -99q0 -58 63 -58q46 0 77 40l-13 15q-20 -18 -43 -18q-16 0 -27 8q-19 14 -19 41q0 38 54 116q5 7 13 10q86 28 132.5 94.5
t46.5 165.5v382h-128v-382q0 -80 -46 -129t-120 -49q-75 0 -123.5 49t-48.5 129v382h-127v-382z" />
    <glyph glyph-name="uogonek" unicode="&#x173;" horiz-adv-x="660" 
d="M29 199v340q0 11 8 18t17 7h172q11 0 18 -8t7 -17v-291q0 -78 69 -78q36 1 57 25t24 68v276q0 11 8 18t17 7h172q11 0 18 -8t7 -17v-539q0 -11 -8 -18t-17 -7h-29q-30 -43 -32 -65q8 4 19 19q18 27 40 2l44 -51q12 -14 3 -29q-46 -79 -130 -79q-43 0 -78 27t-35 81
q0 44 28 95h-2q-11 0 -18 8t-7 17v20q-61 -52 -152 -52q-99 0 -159.5 63.5t-60.5 167.5zM79 199q0 -85 45.5 -133t124.5 -48q107 0 155 84q11 15 21.5 12t18.5 -14l7 -11v-64h21q21 0 26.5 -9.5t-0.5 -19.5l-5 -10q-43 -65 -43 -106q0 -58 63 -58q46 0 77 40l-13 15
q-22 -18 -43 -18q-16 0 -28 8q-19 14 -19 41q0 37 49 106q7 11 20 11h17v489h-122v-252v-1q-4 -60 -39 -100t-92 -41q-54 0 -86.5 35.5t-32.5 92.5v266h-122v-315z" />
    <glyph glyph-name="Wcircumflex" unicode="&#x174;" horiz-adv-x="1081" 
d="M-25 692q-1 1 -1.5 3.5t-1 8t1.5 10t8 8t17 3.5h190q9 0 15.5 -6t8.5 -13l113 -423l110 423q5 19 24 19h174q9 0 15.5 -6t8.5 -13l113 -423l111 423q5 19 24 19h182h3.5t8.5 -1t8.5 -4.5t5.5 -10t-2 -17.5l-231 -700q-5 -17 -24 -17h-183q-9 0 -15.5 6t-8.5 13l-106 394
l-108 -395q-5 -18 -24 -18h-184q-18 0 -24 17zM33 675l213 -650h147l127 466q3 11 9 15t12.5 1.5t12.5 -6t10 -7.5l4 -4l125 -465h146l214 650h-128l-130 -496q-3 -11 -9 -14.5t-12.5 -1.5t-12.5 5.5t-10 7.5l-4 3l-132 496h-136l-129 -496q-3 -11 -9 -14.5t-12.5 -1.5
t-12.5 5.5t-10 7.5l-4 3l-132 496h-137zM312 786l113 151q8 10 20 10h138q12 0 20 -10l113 -151q1 -2 3 -4.5t4 -9.5t1.5 -12t-7.5 -9.5t-21 -4.5h-124q-14 0 -21 11l-37 55l-37 -55q-8 -11 -21 -11h-124q-2 0 -5 0.5t-10 2.5t-11 6t-3 12t9 19zM382 796h61l50 74
q10 15 20.5 15t16.5 -7l5 -8l50 -74h61l-76 101h-112z" />
    <glyph glyph-name="wcircumflex" unicode="&#x175;" horiz-adv-x="937" 
d="M-28 530q-1 1 -1.5 3.5t-1.5 8.5t0.5 10.5t8 8t17.5 3.5h176q19 0 24 -18l87 -291l84 291q5 18 24 18h165q19 0 24 -18l87 -292l85 292q5 18 24 18h169h4t8 -1.5t9 -5t5 -10t-3 -17.5l-197 -539q-6 -16 -23 -16h-171q-19 0 -24 18l-82 265l-82 -265q-5 -18 -24 -18h-172
q-17 0 -23 16zM31 514l178 -489h137l100 324q4 12 10 16t12.5 2t12.5 -6t9 -8l4 -4l100 -324h136l178 489h-114l-104 -355q-3 -11 -9.5 -15.5t-13 -2.5t-12 6t-9.5 8l-4 4l-106 355h-127l-103 -355q-3 -11 -9.5 -15.5t-13 -2.5t-12 6t-9.5 8l-4 4l-106 355h-121zM267 625
l113 151q8 10 20 10h138q12 0 20 -10l113 -151q1 -2 3 -4.5t4 -9.5t1.5 -12t-7.5 -9.5t-21 -4.5h-124q-14 0 -21 11l-37 55l-37 -55q-8 -11 -21 -11h-124q-2 0 -5 0.5t-10 2.5t-11 6t-3 12t9 19zM337 635h61l50 74q10 15 20.5 15t15.5 -8l6 -7l50 -74h61l-76 101h-112z" />
    <glyph glyph-name="Ycircumflex" unicode="&#x176;" horiz-adv-x="680" 
d="M-27 688q-1 2 -2.5 4t-3 8.5t-0.5 11.5t8 9t20 4h178q15 0 22 -13l147 -265l143 265q7 13 22 13h178q0 -1 4.5 0t9.5 -1t9.5 -5t4.5 -11.5t-6 -19.5l-251 -468v-220q0 -11 -8 -18t-17 -7h-177q-11 0 -18 8t-7 17v215zM37 675l239 -442q3 -5 3 -12v-196h127v201q0 6 3 12
l234 437h-121l-158 -292q-10 -19 -21 -19t-17 10l-6 9l-162 292h-121zM138 786l113 151q8 10 20 10h138q12 0 20 -10l113 -151q1 -2 3 -4.5t4 -9.5t1.5 -12t-7.5 -9.5t-21 -4.5h-124q-14 0 -21 11l-37 55l-37 -55q-8 -11 -21 -11h-124q-2 0 -5 0.5t-10 2.5t-11 6t-3 12t9 19
zM208 796h61l50 74q10 15 20.5 15t16.5 -7l5 -8l50 -74h61l-76 101h-112z" />
    <glyph glyph-name="ycircumflex" unicode="&#x177;" horiz-adv-x="580" 
d="M-35 529q-1 1 -2 3.5t-2 8.5t0.5 10.5t8 8.5t18.5 4h178q17 0 23 -16l108 -291l94 290q5 17 24 17h172h4t8.5 -1.5t9 -5t5 -10t-3.5 -17.5l-233 -595q-66 -162 -231 -162q-94 0 -172 60q-17 14 -6 33l72 118q5 9 14 12t23 -5q31 -24 55 -24q31 0 44 29l9 17zM22 -140
q55 -37 124 -37q132 0 185 130l219 561h-117l-111 -341q-4 -12 -10 -17t-12.5 -2.5t-12 6.5t-9.5 8l-3 4l-126 342h-123l209 -492q5 -10 0 -21l-13 -27q-28 -57 -90 -57q-32 0 -64 18zM89 625l113 151q8 10 20 10h138q12 0 20 -10l113 -151q1 -2 3 -4.5t4 -9.5t1.5 -12
t-7.5 -9.5t-21 -4.5h-124q-14 0 -21 11l-37 55l-37 -55q-8 -11 -21 -11h-124q-2 0 -5 0.5t-10 2.5t-11 6t-3 12t9 19zM159 635h61l50 74q10 15 20.5 15t15.5 -8l6 -7l50 -74h61l-76 101h-112z" />
    <glyph glyph-name="Ydieresis" unicode="&#x178;" horiz-adv-x="680" 
d="M-27 688q-1 2 -2.5 4t-3 8.5t-0.5 11.5t8 9t20 4h178q15 0 22 -13l147 -265l143 265q7 13 22 13h178q0 -1 4.5 0t9.5 -1t9.5 -5t4.5 -11.5t-6 -19.5l-251 -468v-220q0 -11 -8 -18t-17 -7h-177q-11 0 -18 8t-7 17v215zM37 675l239 -442q3 -5 3 -12v-196h127v201q0 6 3 12
l234 437h-121l-158 -292q-10 -19 -21 -19t-17 10l-6 9l-162 292h-121zM141 852q0 44 29.5 73.5t73.5 29.5t73.5 -29.5t29.5 -73.5t-29.5 -73t-73.5 -29t-73.5 29t-29.5 73zM191 852q0 -23 14.5 -37.5t38.5 -14.5t38.5 14.5t14.5 37.5q0 25 -14.5 39t-38.5 14t-38.5 -14
t-14.5 -39zM334 852q0 44 29.5 73.5t73.5 29.5t73.5 -29.5t29.5 -73.5t-29.5 -73t-73.5 -29t-73.5 29t-29.5 73zM384 852q0 -23 14.5 -37.5t38.5 -14.5t38.5 14.5t14.5 37.5q0 25 -14.5 39t-38.5 14t-38.5 -14t-14.5 -39z" />
    <glyph glyph-name="Zacute" unicode="&#x179;" horiz-adv-x="675" 
d="M3 0v114q0 10 6 16l340 404h-308q-11 0 -18 8t-7 17v141q0 11 8 18t17 7h599q11 0 18 -8t7 -17v-114q0 -10 -6 -16l-339 -404h326q11 0 18 -8t7 -17v-141q0 -11 -8 -18t-17 -7h-618q-11 0 -18 8t-7 17zM53 25h568v91h-355q-22 0 -27 10t1 20l7 11l368 438v80h-549v-91
h337q22 0 27 -10t-2 -20l-6 -11l-369 -438v-80zM245 774l106 168q11 18 29 11l156 -55q2 0 4.5 -1t8 -5t8 -8.5t0 -12t-12.5 -16.5l-130 -113q-7 -6 -16 -6h-132h-5t-9.5 1.5t-10.5 5t-3.5 12t7.5 19.5zM311 786h78l90 79l-97 34z" />
    <glyph glyph-name="zacute" unicode="&#x17a;" horiz-adv-x="553" 
d="M9 0v104q0 10 6 16l229 264h-200q-11 0 -18 8t-7 17v130q0 11 8 18t17 7h471q11 0 18 -8t7 -17v-104q0 -10 -6 -16l-228 -264h218q11 0 18 -8t7 -17v-130q0 -11 -8 -18t-17 -7h-490q-11 0 -18 8t-7 17zM59 25h440v80h-248q-22 0 -26.5 10.5t1.5 20.5l6 10l258 298v70
h-421v-80h230q22 0 26.5 -10t-1.5 -20l-6 -11l-259 -298v-70zM169 613l106 168q11 18 29 11l156 -55q2 0 4.5 -1t8 -5t8 -8.5t0 -12t-12.5 -16.5l-130 -113q-8 -6 -16 -6h-132h-5t-9.5 1.5t-10.5 5t-3.5 12t7.5 19.5zM235 625h78l90 79l-97 34z" />
    <glyph glyph-name="Zdotaccent" unicode="&#x17b;" horiz-adv-x="675" 
d="M3 0v114q0 10 6 16l340 404h-308q-11 0 -18 8t-7 17v141q0 11 8 18t17 7h599q11 0 18 -8t7 -17v-114q0 -10 -6 -16l-339 -404h326q11 0 18 -8t7 -17v-141q0 -11 -8 -18t-17 -7h-618q-11 0 -18 8t-7 17zM53 25h568v91h-355q-22 0 -27 10t1 20l7 11l368 438v80h-549v-91
h337q22 0 27 -10t-2 -20l-6 -11l-369 -438v-80zM237 855q0 49 33.5 82.5t82.5 33.5t82.5 -33.5t33.5 -82.5q0 -50 -33 -83.5t-83 -33.5t-83 33.5t-33 83.5zM287 855q0 -31 18 -49t48 -18t48 18t18 49q0 30 -18 48t-48 18t-48 -18t-18 -48z" />
    <glyph glyph-name="zdotaccent" unicode="&#x17c;" horiz-adv-x="553" 
d="M9 0v104q0 10 6 16l229 264h-200q-11 0 -18 8t-7 17v130q0 11 8 18t17 7h471q11 0 18 -8t7 -17v-104q0 -10 -6 -16l-228 -264h218q11 0 18 -8t7 -17v-130q0 -11 -8 -18t-17 -7h-490q-11 0 -18 8t-7 17zM59 25h440v80h-248q-22 0 -26.5 10.5t1.5 20.5l6 10l258 298v70
h-421v-80h230q22 0 26.5 -10t-1.5 -20l-6 -11l-259 -298v-70zM161 694q0 50 33.5 83t82.5 33t82.5 -33t33.5 -83t-33 -83.5t-83 -33.5t-83 33.5t-33 83.5zM211 694q0 -31 18 -49t48 -18t48 18t18 49q0 30 -18 48t-48 18t-48 -18t-18 -48z" />
    <glyph glyph-name="Zcaron" unicode="&#x17d;" horiz-adv-x="675" 
d="M3 0v114q0 10 6 16l340 404h-308q-11 0 -18 8t-7 17v141q0 11 8 18t17 7h599q11 0 18 -8t7 -17v-114q0 -10 -6 -16l-339 -404h326q11 0 18 -8t7 -17v-141q0 -11 -8 -18t-17 -7h-618q-11 0 -18 8t-7 17zM53 25h568v91h-355q-22 0 -27 10t1 20l7 11l368 438v80h-549v-91
h337q22 0 27 -10t-2 -20l-6 -11l-369 -438v-80zM132 907q-1 2 -3 4.5t-4 9.5t-1.5 12t7.5 9.5t21 4.5h135q14 0 21 -11l40 -61l40 61q8 11 21 11h135h5t10 -2.5t10.5 -6t3 -12t-8.5 -19.5l-121 -164q-7 -10 -20 -10h-150q-12 0 -20 10zM202 897l84 -114h124l84 114h-72
l-53 -81q-10 -16 -20.5 -16t-16.5 8l-5 8l-53 81h-72z" />
    <glyph glyph-name="zcaron" unicode="&#x17e;" horiz-adv-x="553" 
d="M9 0v104q0 10 6 16l229 264h-200q-11 0 -18 8t-7 17v130q0 11 8 18t17 7h471q11 0 18 -8t7 -17v-104q0 -10 -6 -16l-228 -264h218q11 0 18 -8t7 -17v-130q0 -11 -8 -18t-17 -7h-490q-11 0 -18 8t-7 17zM56 745q-1 2 -3 4.5t-4 9.5t-1.5 12t7.5 9.5t21 4.5h135
q14 0 21 -11l40 -61l40 61q8 11 21 11h135h5t10 -2.5t10.5 -6t3 -12t-8.5 -19.5l-121 -164q-7 -10 -20 -10h-150q-12 0 -20 10zM59 25h440v80h-248q-22 0 -26.5 10.5t1.5 20.5l6 10l258 298v70h-421v-80h230q22 0 26.5 -10t-1.5 -20l-6 -11l-259 -298v-70zM126 735l84 -114
h124l84 114h-72l-53 -81q-10 -16 -20.5 -16t-16.5 8l-5 8l-53 81h-72z" />
    <glyph glyph-name="florin" unicode="&#x192;" horiz-adv-x="410" 
d="M-136 -154l44 119q0 1 1 3.5t4 7.5t7 7t11.5 0.5t15.5 -8.5q19 -17 42 -17q32 -2 37 46l41 326h-45q-10 0 -18.5 6.5t-6.5 21.5l14 111q1 9 8.5 15.5t16.5 6.5h51l10 87q11 90 77.5 145t162.5 54q97 0 161 -43q18 -12 8 -32l-58 -118q-14 -27 -37 -9q-21 16 -48 18
q-42 0 -48 -46l-7 -56h94q10 0 18.5 -6.5t6.5 -21.5l-14 -111q-1 -9 -8.5 -15.5t-16.5 -6.5h-100l-43 -357q-12 -92 -75.5 -146.5t-160.5 -53.5q-85 2 -138 44q-13 10 -7 29zM-83 -153q41 -22 92 -24q79 -1 128 41t58 115l46 379q1 8 8 15t17 7h100l8 61h-94q-15 0 -20.5 9
t-4.5 19l10 84q5 40 32.5 65.5t67.5 24.5q24 -1 50 -13l36 73q-51 24 -114 24q-79 1 -130.5 -41t-59.5 -114l-13 -109q-1 -8 -8.5 -15t-16.5 -7h-51l-8 -61h45q15 0 20.5 -9t4.5 -19l-44 -354q-5 -39 -27 -65t-61 -25q-19 0 -44 11z" />
    <glyph glyph-name="Scommaaccent" unicode="&#x218;" horiz-adv-x="644" 
d="M-5 117l69 137l2 2q1 3 2 5t3.5 4.5t5.5 3.5t6.5 1.5t8.5 -1.5t10 -7q49 -43 118 -71t119 -28q66 0 66 36q0 18 -27.5 31t-68.5 20.5t-89 24.5t-89 40.5t-68.5 70.5t-27.5 111q0 109 85 172.5t219 63.5q164 0 290 -82q19 -12 9 -32l-67 -139q-5 -9 -14.5 -13t-21.5 2
q-53 30 -113 50t-98 20q-52 0 -52 -26q0 -15 20.5 -26t53 -19.5t72 -19t79 -28.5t72 -43t53 -68.5t20.5 -100.5q0 -114 -88 -176.5t-217 -62.5q-91 0 -180 31.5t-156 86.5q-15 12 -6 30zM49 113q59 -43 135 -68.5t153 -25.5q115 0 185 50.5t70 138.5q0 46 -20.5 79.5t-53 52
t-72 32t-79 24.5t-72 24t-53 36.5t-20.5 56.5q0 39 30 57.5t72 18.5q92 0 213 -63l46 94q-112 63 -244 63q-119 0 -186.5 -51t-67.5 -135q0 -52 27.5 -87.5t68.5 -51t89 -30.5t89 -26.5t68.5 -37.5t27.5 -65q0 -43 -33.5 -64.5t-82.5 -21.5q-55 0 -122 24.5t-123 66.5z
M220 -285l38 89q-28 28 -28 72q0 46 31 77t77 31q44 0 75.5 -29t31.5 -78q0 -42 -26 -80l-73 -106q-8 -11 -21 -11h-82h-4t-9 1t-9.5 4.5t-4.5 10.5t4 19zM280 -124q0 -29 22 -44q17 -13 9 -31l-30 -71h31l65 95q18 26 18 52q0 27 -16 42t-41 15q-26 0 -42 -15.5t-16 -42.5z
" />
    <glyph glyph-name="scommaaccent" unicode="&#x219;" horiz-adv-x="513" 
d="M-6 80l55 110q4 9 12.5 13t23.5 -4q88 -62 177 -62q34 0 34 12q0 8 -28.5 15t-69.5 18.5t-82 31t-69.5 61.5t-28.5 101q0 93 69.5 144.5t174.5 51.5q126 0 235 -64q9 -5 11.5 -15.5t-2.5 -18.5l-59 -112q-5 -9 -15 -12t-19 2q-94 51 -158 51q-28 0 -28 -12q0 -7 29 -13.5
t71 -18t83.5 -31t70.5 -62t29 -101.5q0 -93 -72 -145t-180 -52q-152 0 -257 81q-17 13 -7 31zM48 77q88 -59 210 -59q93 0 147.5 39t54.5 108q0 46 -29 75t-70.5 42t-83.5 24t-71 31.5t-29 53.5q0 32 23.5 47t54.5 15q66 0 159 -45l36 68q-89 46 -188 46q-89 0 -141.5 -39
t-52.5 -107q0 -46 28.5 -74.5t69.5 -41.5t82 -24t69.5 -32t28.5 -55q0 -33 -25.5 -47.5t-58.5 -14.5q-89 0 -181 56zM144 -285l38 89q-28 28 -28 72q0 46 31 77t77 31q44 0 75.5 -29t31.5 -78q0 -42 -26 -80l-73 -106q-8 -11 -21 -11h-82h-4t-9 1t-9.5 4.5t-4.5 10.5t4 19z
M204 -124q0 -29 22 -44q17 -13 9 -31l-30 -71h31l65 95q18 26 18 52q0 27 -16 42t-41 15q-26 0 -42 -15.5t-16 -42.5z" />
    <glyph glyph-name="Tcommaaccent" unicode="&#x21a;" horiz-adv-x="611" 
d="M-18 557v144q0 11 8 18t17 7h598q11 0 18 -8t7 -17v-144q0 -11 -8 -18t-17 -7h-186v-532q0 -11 -8 -18t-17 -7h-178q-11 0 -18 8t-7 17v532h-184q-11 0 -18 8t-7 17zM32 582h184q9 0 17 -7t8 -18v-532h128v532q0 9 7 17t18 8h186v94h-548v-94zM182 -285l38 89
q-28 28 -28 72q0 46 31 77t77 31q44 0 75.5 -29t31.5 -78q0 -42 -26 -80l-73 -106q-8 -11 -21 -11h-82h-4t-9 1t-9.5 4.5t-4.5 10.5t4 19zM242 -124q0 -29 22 -44q17 -13 9 -31l-30 -71h31l65 95q18 26 18 52q0 27 -16 42t-41 15q-26 0 -42 -15.5t-16 -42.5z" />
    <glyph glyph-name="tcommaaccent" unicode="&#x21b;" horiz-adv-x="435" 
d="M-6 401v113q0 11 8 18t17 7h50v125q0 11 8 18t17 7h172q11 0 18 -8t7 -17v-124h116q11 0 18 -8t7 -17v-114q0 -11 -8 -18t-17 -7h-116v-186q0 -23 5 -29t20 -5q21 0 57 16q6 5 18 1.5t16 -17.5l34 -120q5 -19 -11 -29q-68 -40 -157 -40t-146.5 52t-57.5 144v213h-50
q-11 0 -18 8t-7 17zM44 426h50q9 0 17 -7t8 -18v-238q0 -71 41.5 -108.5t112.5 -37.5q61 0 114 25l-21 74q-28 -10 -50 -10q-34 -1 -54.5 22t-20.5 62v211q0 9 7 17t18 8h116v64h-116q-9 0 -17 7t-8 18v124h-122v-125q0 -9 -7 -17t-18 -8h-50v-63zM147 -285l38 89
q-28 28 -28 72q0 46 31 77t77 31q44 0 75.5 -29t31.5 -78q0 -42 -26 -80l-73 -106q-8 -11 -21 -11h-82h-4t-9 1t-9.5 4.5t-4.5 10.5t4 19zM207 -124q0 -29 22 -44q17 -13 9 -31l-30 -71h31l65 95q18 26 18 52q0 27 -16 42t-41 15q-26 0 -42 -15.5t-16 -42.5z" />
    <glyph glyph-name="dotlessj" unicode="&#x237;" horiz-adv-x="308" 
d="M-114 -158l40 119q10 29 36 14q28 -16 52 -16q17 -1 24.5 8t7.5 38v534q0 11 8 18t17 7h173q11 0 18 -8t7 -17v-559q0 -95 -59.5 -151t-156.5 -55q-88 2 -155 38q-18 10 -12 30zM-59 -153q51 -22 112 -23q79 -1 122.5 40t43.5 116v534h-123v-509q0 -43 -21 -70t-61 -26
q-24 0 -49 9z" />
    <glyph glyph-name="circumflex" unicode="&#x2c6;" 
d="M-27 626l113 151q8 10 20 10h138q12 0 20 -10l113 -151q1 -2 3 -4.5t4 -9.5t1.5 -12t-7.5 -9.5t-21 -4.5h-124q-14 0 -21 11l-37 55l-37 -55q-8 -11 -21 -11h-124q-2 0 -5 0.5t-10 2.5t-11 6t-3 12t9 19zM43 636h61l50 74q10 15 20.5 15t15.5 -7l6 -8l50 -74h61l-76 101
h-112z" />
    <glyph glyph-name="caron" unicode="&#x2c7;" 
d="M-41 747q-1 2 -3 4.5t-4 9.5t-1.5 12t7.5 9.5t21 4.5h135q14 0 21 -11l40 -61l40 61q8 11 21 11h135h5t10 -2.5t10.5 -6t3 -12t-8.5 -19.5l-121 -164q-7 -10 -20 -10h-150q-12 0 -20 10zM29 737l84 -114h124l84 114h-72l-53 -81q-10 -16 -20.5 -16t-15.5 8l-6 8l-53 81
h-72z" />
    <glyph glyph-name="firsttonechinese" unicode="&#x2c9;" 
d="M11 632v116q0 11 8 18t17 7h278q11 0 18 -8t7 -17v-116q0 -11 -8 -18t-17 -7h-278q-11 0 -18 8t-7 17zM61 657h228v66h-228v-66z" />
    <glyph glyph-name="breve" unicode="&#x2d8;" 
d="M-14 758q-1 10 6 18t19 8h108q10 0 17 -7t8 -16q3 -35 31 -35t31 35q1 10 8.5 16.5t16.5 6.5h108q10 0 18 -7.5t7 -18.5q-5 -81 -57 -131.5t-132 -50.5t-132 50.5t-57 131.5zM39 734q10 -51 46 -79.5t90 -28.5q55 0 90 28.5t46 79.5h-60q-9 -26 -29 -42t-47 -16t-47.5 16
t-28.5 42h-60z" />
    <glyph glyph-name="dotaccent" unicode="&#x2d9;" 
d="M59 694q0 50 33.5 83t82.5 33t82.5 -33t33.5 -83t-33 -83.5t-83 -33.5t-83 33.5t-33 83.5zM109 694q0 -31 18 -49t48 -18t48 18t18 49q0 30 -18 48t-48 18t-48 -18t-18 -48z" />
    <glyph glyph-name="ring" unicode="&#x2da;" 
d="M29 694q0 60 42.5 102.5t103.5 42.5t103.5 -42.5t42.5 -102.5t-42.5 -102.5t-103.5 -42.5t-103.5 42.5t-42.5 102.5zM79 694q0 -39 28 -67t68 -28t68 28t28 67t-28 67t-68 28t-68 -28t-28 -67zM97 694q0 32 23 54.5t55 22.5t55 -22.5t23 -54.5t-23 -54.5t-55 -22.5
t-55 22.5t-23 54.5zM147 694q0 -11 8 -19t20 -8t20 8t8 19t-8.5 19t-19.5 8t-19.5 -8t-8.5 -19z" />
    <glyph glyph-name="ogonek" unicode="&#x2db;" 
d="M53 -120q0 66 65 153q7 10 20 10h84h5t10 -2.5t10.5 -6t3 -12t-8.5 -19.5q-50 -68 -52 -93q8 4 19 19q18 27 40 2l44 -51q12 -14 3 -29q-47 -79 -130 -79q-43 0 -78 27t-35 81zM103 -120q0 -58 63 -58q46 0 77 40l-13 15q-22 -18 -43 -18q-13 0 -26 8q-21 13 -21 41
q0 32 34 85h-23q-48 -69 -48 -113z" />
    <glyph glyph-name="tilde" unicode="&#x2dc;" 
d="M-28 621q0 85 32.5 133t97.5 48q20 0 39 -5t32 -12t23 -13.5t16 -11.5l5 -5h3q3 3 3 17q0 11 8 18t17 7h105q11 0 18 -8t7 -17q0 -85 -32 -132.5t-97 -47.5q-20 0 -39.5 5t-32.5 12t-23 13.5t-16 11.5l-5 5h-2q-3 -3 -3 -18q0 -11 -8 -18t-17 -7h-106q-11 0 -18 8t-7 17z
M23 646h58q7 24 21 34q14 9 31 9q28 0 60 -23.5t56 -23.5q37 0 55.5 23t22.5 82h-57q-5 -21 -20 -32q-12 -10 -33 -10q-28 0 -60 23.5t-55 23.5q-37 0 -56 -23.5t-23 -82.5z" />
    <glyph glyph-name="hungarumlaut" unicode="&#x2dd;" 
d="M-52 611l85 171q10 20 31 12l131 -48q28 -14 11 -38l-90 -123q-7 -10 -20 -10h-126h-4.5t-9 1t-9 5t-4.5 11t5 19zM10 625h73l63 86l-79 29zM142 611l85 171q10 20 31 12l131 -48q28 -14 11 -38l-90 -123q-7 -10 -20 -10h-126h-4.5t-9 1t-9 5t-4.5 11t5 19zM204 625h73
l63 86l-79 29z" />
    <glyph glyph-name="commaaccent" unicode="&#x326;" horiz-adv-x="0" 
d="M4 -285l38 89q-28 28 -28 72q0 46 31 77t77 31q44 0 75.5 -29t31.5 -78q0 -42 -26 -80l-73 -106q-8 -11 -21 -11h-82h-4t-9 1t-9.5 4.5t-4.5 10.5t4 19zM64 -124q0 -29 22 -44q17 -13 9 -31l-30 -71h31l65 95q18 26 18 52q0 27 -16 42t-41 15q-26 0 -42 -15.5t-16 -42.5z
" />
    <glyph glyph-name="Delta" unicode="&#x394;" horiz-adv-x="770" 
d="M-28 10l302 700q7 15 23 15h183q17 0 23 -15l295 -700q1 -1 2 -3.5t2 -8.5t-0.5 -10.5t-8 -8.5t-18.5 -4h-780h-4t-9 1t-9.5 4.5t-4.5 10.5t4 19zM33 25h704l-274 650h-150zM206 138l154 394q8 20 19.5 20t18.5 -10l8 -10l153 -394q6 -18 1 -25.5t-14 -8.5h-10h-307
q-18 0 -23.5 8.5t-2.5 17.5zM266 154h233l-116 300z" />
    <glyph glyph-name="pi" unicode="&#x3c0;" horiz-adv-x="729" 
d="M-41 384q-1 78 58.5 129t146.5 51h553q10 0 17.5 -8t7.5 -17l1 -121q0 -10 -7.5 -17.5t-17.5 -7.5h-101v-393q0 -11 -8 -18t-17 -7h-143q-11 0 -18 8t-7 17v393h-42l-42 -396q-1 -9 -8.5 -15.5t-16.5 -6.5h-142q-10 0 -18 7t-7 21l41 390h-3q-21 0 -32.5 -10.5
t-10.5 -27.5q0 -25 19 -57q13 -27 -14 -36l-119 -41q-21 -7 -30 12q-40 75 -40 151zM9 384q0 -50 25 -108l71 25q-12 29 -12 53q-1 40 26 64.5t67 24.5h31q14 0 20 -9t5 -19l-41 -390h92l42 396q1 9 8 15.5t17 6.5h89q9 0 17 -7t8 -18v-393h93v393q0 9 7 17t18 8h101l-1 71
h-528q-70 0 -113 -37.5t-42 -92.5z" />
    <glyph glyph-name="Wgrave" unicode="&#x1e80;" horiz-adv-x="1081" 
d="M-25 692q-1 1 -1.5 3.5t-1 8t1.5 10t8 8t17 3.5h190q9 0 15.5 -6t8.5 -13l113 -423l110 423q5 19 24 19h174q9 0 15.5 -6t8.5 -13l113 -423l111 423q5 19 24 19h182h3.5t8.5 -1t8.5 -4.5t5.5 -10t-2 -17.5l-231 -700q-5 -17 -24 -17h-183q-9 0 -15.5 6t-8.5 13l-106 394
l-108 -395q-5 -18 -24 -18h-184q-18 0 -24 17zM33 675l213 -650h147l127 466q3 11 9 15t12.5 1.5t12.5 -6t10 -7.5l4 -4l125 -465h146l214 650h-128l-130 -496q-3 -11 -9 -14.5t-12.5 -1.5t-12.5 5.5t-10 7.5l-4 3l-132 496h-136l-129 -496q-3 -11 -9 -14.5t-12.5 -1.5
t-12.5 5.5t-10 7.5l-4 3l-132 496h-137zM324 855q-1 1 -3.5 3t-6 7.5t-4.5 11t4.5 11.5t17.5 10l156 55q17 6 29 -11l106 -168l1 -1q0 -1 1.5 -3.5t2.5 -5t2 -6t0.5 -6.5t-2 -6t-4.5 -5t-8.5 -3.5t-13.5 -1.5h-132q-10 0 -16 6zM389 865l90 -79h78l-71 113z" />
    <glyph glyph-name="wgrave" unicode="&#x1e81;" horiz-adv-x="937" 
d="M-28 530q-1 1 -1.5 3.5t-1.5 8.5t0.5 10.5t8 8t17.5 3.5h176q19 0 24 -18l87 -291l84 291q5 18 24 18h165q19 0 24 -18l87 -292l85 292q5 18 24 18h169h4t8 -1.5t9 -5t5 -10t-3 -17.5l-197 -539q-6 -16 -23 -16h-171q-19 0 -24 18l-82 265l-82 -265q-5 -18 -24 -18h-172
q-17 0 -23 16zM31 514l178 -489h137l100 324q4 12 10 16t12.5 2t12.5 -6t9 -8l4 -4l100 -324h136l178 489h-114l-104 -355q-3 -11 -9.5 -15.5t-13 -2.5t-12 6t-9.5 8l-4 4l-106 355h-127l-103 -355q-3 -11 -9.5 -15.5t-13 -2.5t-12 6t-9.5 8l-4 4l-106 355h-121zM279 694
q-1 1 -3.5 3t-6 7.5t-4.5 11t4.5 11.5t17.5 10l156 55q17 6 29 -11l106 -168v-1q1 -1 2.5 -3.5t2.5 -5t2 -6t0.5 -6.5t-2 -6t-4.5 -5t-8.5 -3.5t-13.5 -1.5h-132q-10 0 -16 6zM344 704l90 -79h78l-71 113z" />
    <glyph glyph-name="Wacute" unicode="&#x1e82;" horiz-adv-x="1081" 
d="M-25 692q-1 1 -1.5 3.5t-1 8t1.5 10t8 8t17 3.5h190q9 0 15.5 -6t8.5 -13l113 -423l110 423q5 19 24 19h174q9 0 15.5 -6t8.5 -13l113 -423l111 423q5 19 24 19h182h3.5t8.5 -1t8.5 -4.5t5.5 -10t-2 -17.5l-231 -700q-5 -17 -24 -17h-183q-9 0 -15.5 6t-8.5 13l-106 394
l-108 -395q-5 -18 -24 -18h-184q-18 0 -24 17zM33 675l213 -650h147l127 466q3 11 9 15t12.5 1.5t12.5 -6t10 -7.5l4 -4l125 -465h146l214 650h-128l-130 -496q-3 -11 -9 -14.5t-12.5 -1.5t-12.5 5.5t-10 7.5l-4 3l-132 496h-136l-129 -496q-3 -11 -9 -14.5t-12.5 -1.5
t-12.5 5.5t-10 7.5l-4 3l-132 496h-137zM407 774l106 168q11 18 29 11l156 -55q2 0 4.5 -1t8 -5t8 -8.5t0 -12t-12.5 -16.5l-130 -113q-8 -6 -16 -6h-132h-5t-9.5 1.5t-10.5 5t-3.5 12t7.5 19.5zM473 786h78l90 79l-97 34z" />
    <glyph glyph-name="wacute" unicode="&#x1e83;" horiz-adv-x="937" 
d="M-28 530q-1 1 -1.5 3.5t-1.5 8.5t0.5 10.5t8 8t17.5 3.5h176q19 0 24 -18l87 -291l84 291q5 18 24 18h165q19 0 24 -18l87 -292l85 292q5 18 24 18h169h4t8 -1.5t9 -5t5 -10t-3 -17.5l-197 -539q-6 -16 -23 -16h-171q-19 0 -24 18l-82 265l-82 -265q-5 -18 -24 -18h-172
q-17 0 -23 16zM31 514l178 -489h137l100 324q4 12 10 16t12.5 2t12.5 -6t9 -8l4 -4l100 -324h136l178 489h-114l-104 -355q-3 -11 -9.5 -15.5t-13 -2.5t-12 6t-9.5 8l-4 4l-106 355h-127l-103 -355q-3 -11 -9.5 -15.5t-13 -2.5t-12 6t-9.5 8l-4 4l-106 355h-121zM361 613
l106 168q11 18 29 11l156 -55q2 0 4.5 -1t8 -5t8 -8.5t0 -12t-12.5 -16.5l-130 -113q-8 -6 -16 -6h-132h-5t-9.5 1.5t-10.5 5t-3.5 12t7.5 19.5zM427 625h78l90 79l-97 34z" />
    <glyph glyph-name="Wdieresis" unicode="&#x1e84;" horiz-adv-x="1081" 
d="M-25 692q-1 1 -1.5 3.5t-1 8t1.5 10t8 8t17 3.5h190q9 0 15.5 -6t8.5 -13l113 -423l110 423q5 19 24 19h174q9 0 15.5 -6t8.5 -13l113 -423l111 423q5 19 24 19h182h3.5t8.5 -1t8.5 -4.5t5.5 -10t-2 -17.5l-231 -700q-5 -17 -24 -17h-183q-9 0 -15.5 6t-8.5 13l-106 394
l-108 -395q-5 -18 -24 -18h-184q-18 0 -24 17zM33 675l213 -650h147l127 466q3 11 9 15t12.5 1.5t12.5 -6t10 -7.5l4 -4l125 -465h146l214 650h-128l-130 -496q-3 -11 -9 -14.5t-12.5 -1.5t-12.5 5.5t-10 7.5l-4 3l-132 496h-136l-129 -496q-3 -11 -9 -14.5t-12.5 -1.5
t-12.5 5.5t-10 7.5l-4 3l-132 496h-137zM315 852q0 44 29.5 73.5t73.5 29.5t73.5 -29.5t29.5 -73.5t-29.5 -73t-73.5 -29t-73.5 29t-29.5 73zM365 852q0 -23 14.5 -37.5t38.5 -14.5t38.5 14.5t14.5 37.5q0 25 -14.5 39t-38.5 14t-38.5 -14t-14.5 -39zM508 852
q0 44 29.5 73.5t73.5 29.5t73.5 -29.5t29.5 -73.5t-29.5 -73t-73.5 -29t-73.5 29t-29.5 73zM558 852q0 -23 14.5 -37.5t38.5 -14.5t38.5 14.5t14.5 37.5q0 25 -14.5 39t-38.5 14t-38.5 -14t-14.5 -39z" />
    <glyph glyph-name="wdieresis" unicode="&#x1e85;" horiz-adv-x="937" 
d="M-28 530q-1 1 -1.5 3.5t-1.5 8.5t0.5 10.5t8 8t17.5 3.5h176q19 0 24 -18l87 -291l84 291q5 18 24 18h165q19 0 24 -18l87 -292l85 292q5 18 24 18h169h4t8 -1.5t9 -5t5 -10t-3 -17.5l-197 -539q-6 -16 -23 -16h-171q-19 0 -24 18l-82 265l-82 -265q-5 -18 -24 -18h-172
q-17 0 -23 16zM31 514l178 -489h137l100 324q4 12 10 16t12.5 2t12.5 -6t9 -8l4 -4l100 -324h136l178 489h-114l-104 -355q-3 -11 -9.5 -15.5t-13 -2.5t-12 6t-9.5 8l-4 4l-106 355h-127l-103 -355q-3 -11 -9.5 -15.5t-13 -2.5t-12 6t-9.5 8l-4 4l-106 355h-121zM270 691
q0 44 29.5 73.5t73.5 29.5t73.5 -29.5t29.5 -73.5t-29.5 -73t-73.5 -29t-73.5 29t-29.5 73zM320 691q0 -23 14.5 -37.5t38.5 -14.5t38.5 14.5t14.5 37.5q0 25 -14.5 39t-38.5 14t-38.5 -14t-14.5 -39zM463 691q0 44 29.5 73.5t73.5 29.5t73.5 -29.5t29.5 -73.5t-29.5 -73
t-73.5 -29t-73.5 29t-29.5 73zM513 691q0 -23 14.5 -37.5t38.5 -14.5t38.5 14.5t14.5 37.5q0 25 -14.5 39t-38.5 14t-38.5 -14t-14.5 -39z" />
    <glyph glyph-name="Ygrave" unicode="&#x1ef2;" horiz-adv-x="680" 
d="M-27 688q-1 2 -2.5 4t-3 8.5t-0.5 11.5t8 9t20 4h178q15 0 22 -13l147 -265l143 265q7 13 22 13h178q0 -1 4.5 0t9.5 -1t9.5 -5t4.5 -11.5t-6 -19.5l-251 -468v-220q0 -11 -8 -18t-17 -7h-177q-11 0 -18 8t-7 17v215zM37 675l239 -442q3 -5 3 -12v-196h127v201q0 6 3 12
l234 437h-121l-158 -292q-10 -19 -21 -19t-17 10l-6 9l-162 292h-121zM150 855q-1 1 -3.5 3t-6 7.5t-4.5 11t4.5 11.5t17.5 10l156 55q17 6 29 -11l106 -168l1 -1q0 -1 1.5 -3.5t2.5 -5t2 -6t0.5 -6.5t-2 -6t-4.5 -5t-8.5 -3.5t-13.5 -1.5h-132q-10 0 -16 6zM215 865l90 -79
h78l-71 113z" />
    </font>
</defs>
</svg>
