<?xml version="1.0" standalone="no"?>
<!DOCTYPE svg PUBLIC "-//W3C//DTD SVG 1.1//EN" "http://www.w3.org/Graphics/SVG/1.1/DTD/svg11.dtd" >
<svg xmlns="http://www.w3.org/2000/svg" xmlns:xlink="http://www.w3.org/1999/xlink" version="1.1">
<metadata>
Created by FontForge 20170731 at Wed Jan  4 18:31:49 2017
 By Aleksey,,,
Copyright (c) 2011-2015, Julieta Ulanovsky (julieta.ulanovsky@gmail.com), Design Modifications and new weights 2015, Jasper @ Cannot Into Space Fonts (cannotintospacefonts@gmail.com)
</metadata>
<defs>
<font id="TruenoSBdIt" horiz-adv-x="767" >
  <font-face 
    font-family="Trueno"
    font-weight="600"
    font-style="italic"
    font-stretch="normal"
    units-per-em="1000"
    panose-1="0 0 7 0 0 0 0 0 0 0"
    ascent="800"
    descent="-200"
    x-height="537"
    cap-height="700"
    bbox="-276 -284 1457.41 974"
    underline-thickness="50"
    underline-position="-200"
    unicode-range="U+0020-FB02"
  />
<missing-glyph horiz-adv-x="500" 
d="M0 0l101 700h500l-101 -700h-500zM64 95l206 255l-133 255zM87 50h340l-133 255zM174 650l133 -255l207 255h-340zM330 350l134 -255l73 510z" />
    <glyph glyph-name="fi" unicode="fi" horiz-adv-x="674" 
d="M90 412l16 106h72l6 47q13 88 77 136t148 48q59 0 101 -21l-25 -128q-39 21 -76 21q-63 2 -72 -62l-6 -41h127l-16 -106h-127l-59 -412h-153l59 412h-72zM447 0l78 538h153l-78 -538h-153zM540 691q5 37 32 61.5t63 24.5q37 0 57 -24t15 -62q-5 -37 -32.5 -61.5
t-64.5 -24.5q-36 0 -55.5 24t-14.5 62z" />
    <glyph glyph-name="fl" unicode="fl" horiz-adv-x="693" 
d="M90 412l17 106h71l8 56q11 80 73 129.5t151 48.5q62 -2 100 -20l-22 -129q-27 22 -65 24q-34 1 -58.5 -20.5t-29.5 -56.5l-4 -32h128l-17 -106h-127l-59 -412h-153l59 412h-72zM460 0l107 742h154l-107 -742h-154z" />
    <glyph glyph-name=".notdef" horiz-adv-x="500" 
d="M0 0l101 700h500l-101 -700h-500zM64 95l206 255l-133 255zM87 50h340l-133 255zM174 650l133 -255l207 255h-340zM330 350l134 -255l73 510z" />
    <glyph glyph-name=".null" horiz-adv-x="0" 
 />
    <glyph glyph-name="nonmarkingreturn" horiz-adv-x="333" 
 />
    <glyph glyph-name="space" unicode=" " horiz-adv-x="241" 
 />
    <glyph glyph-name="exclam" unicode="!" horiz-adv-x="240" 
d="M61 71q5 35 30 57t58 22q34 0 52.5 -22t13.5 -57t-30 -57.5t-59 -22.5q-33 0 -51.5 23t-13.5 57zM116 236l15 282l25 177h146l-25 -177l-67 -282h-94z" />
    <glyph glyph-name="quotedbl" unicode="&#x22;" horiz-adv-x="414" 
d="M123 434l38 266h116l-38 -266h-116zM301 434l38 266h116l-38 -266h-116z" />
    <glyph glyph-name="numbersign" unicode="#" horiz-adv-x="732" 
d="M42 160l28 111h138l40 151h-135l28 111h137l45 167h111l-45 -167h152l45 167h112l-45 -167h136l-27 -111h-139l-40 -151h135l-28 -111h-137l-43 -160h-111l43 160h-152l-43 -160h-112l43 160h-136zM319 271h152l41 151h-152z" />
    <glyph glyph-name="dollar" unicode="$" horiz-adv-x="637" 
d="M35 106l82 129q47 -47 112 -76t121 -29q49 0 79 17.5t34 49.5q4 30 -20.5 51t-64.5 31t-86 26t-84.5 35.5t-60 60.5t-13.5 99q11 79 72.5 132.5t156.5 68.5l21 145h120l-20 -141q119 -12 206 -74l-80 -131q-50 33 -107.5 52.5t-100.5 19.5q-41 0 -67 -14.5t-30 -42.5
q-3 -23 10.5 -40t38 -27t56.5 -21t65.5 -20.5t65 -26t54.5 -38t34 -56.5t4 -80q-12 -88 -81 -142t-170 -66l-22 -149h-120l22 151q-138 20 -227 106z" />
    <glyph glyph-name="percent" unicode="%" horiz-adv-x="1007" 
d="M105 493q14 98 73.5 154t147.5 56q89 0 132.5 -56.5t29.5 -153.5q-14 -98 -74 -155t-149 -57q-88 0 -131 57t-29 155zM175 0l607 700h144l-605 -700h-146zM204 493q-8 -59 11.5 -92t62.5 -33q44 0 73.5 33t37.5 92q8 58 -11.5 91t-63.5 33q-43 0 -72.5 -33t-37.5 -91z
M620 208q14 98 73.5 154.5t147.5 56.5q89 0 132.5 -56.5t29.5 -154.5t-73.5 -154.5t-148.5 -56.5t-132 56.5t-29 154.5zM719 208q-8 -59 11.5 -92t62.5 -33q44 0 73.5 33t37.5 92t-11.5 92t-63.5 33q-43 0 -72.5 -33t-37.5 -92z" />
    <glyph glyph-name="ampersand" unicode="&#x26;" horiz-adv-x="678" 
d="M83 195q10 66 53.5 109.5t116.5 80.5q-48 84 -38 157q11 74 70.5 119.5t147.5 45.5q85 0 133 -43t38 -111q-5 -35 -22.5 -64t-47 -52.5t-57 -39.5t-67.5 -35q44 -58 103 -126q41 54 70 117l87 -73q-35 -65 -84 -126l92 -103l-89 -78l-87 100q-103 -80 -215 -80
q-100 0 -158.5 57t-45.5 145zM212 206q-7 -45 21 -73t76 -28q60 0 123 47q-70 81 -128 157q-85 -48 -92 -103zM336 542q-6 -46 26 -106q55 27 85.5 53.5t35.5 62.5q4 29 -13 46.5t-48 17.5q-34 0 -57.5 -20.5t-28.5 -53.5z" />
    <glyph glyph-name="quotesingle" unicode="'" horiz-adv-x="236" 
d="M123 434l38 266h116l-38 -266h-116z" />
    <glyph glyph-name="parenleft" unicode="(" horiz-adv-x="337" 
d="M112 309q36 253 188 433h137q-147 -191 -181 -433q-35 -245 56 -433h-137q-99 177 -63 433z" />
    <glyph glyph-name="parenright" unicode=")" horiz-adv-x="354" 
d="M55 -124q149 192 183 433t-58 433h138q100 -180 64 -433t-189 -433h-138z" />
    <glyph glyph-name="asterisk" unicode="*" horiz-adv-x="368" 
d="M96 507l93 48l-79 47l49 71l78 -51l12 98h78l-15 -98l91 50l29 -70l-94 -47l80 -48l-49 -70l-78 50l-12 -97h-78l16 98l-92 -50z" />
    <glyph glyph-name="plus" unicode="+" horiz-adv-x="506" 
d="M73 275l14 102h171l25 170h98l-25 -170h171l-14 -102h-171l-25 -169h-98l25 169h-171z" />
    <glyph glyph-name="comma" unicode="," horiz-adv-x="232" 
d="M17 -92l56 101q-28 22 -22 62q5 34 30 56t58 22q31 0 50 -21t14 -57q-4 -33 -30 -62l-81 -101h-75z" />
    <glyph glyph-name="hyphen" unicode="-" horiz-adv-x="372" 
d="M94 255l14 102h259l-15 -102h-258z" />
    <glyph glyph-name="period" unicode="." horiz-adv-x="235" 
d="M50 71q5 35 30.5 57t58.5 22q34 0 52 -22t13 -57t-29.5 -57.5t-58.5 -22.5q-33 0 -52 23t-14 57z" />
    <glyph glyph-name="slash" unicode="/" horiz-adv-x="346" 
d="M-47 -112l454 924h130l-455 -924h-129z" />
    <glyph glyph-name="zero" unicode="0" horiz-adv-x="699" 
d="M95 351q25 171 117 262.5t240 91.5q147 0 213 -91.5t41 -262.5q-25 -172 -117.5 -264t-239.5 -92q-148 0 -213.5 92t-40.5 264zM257 351q-18 -123 8.5 -179t101.5 -56q74 0 116.5 56t60.5 179q18 122 -9 177.5t-101 55.5q-75 0 -117 -55t-60 -178z" />
    <glyph glyph-name="one" unicode="1" horiz-adv-x="404" 
d="M91 567l19 133h290l-101 -700h-158l82 567h-132z" />
    <glyph glyph-name="two" unicode="2" horiz-adv-x="596" 
d="M43 0l16 108l291 268q83 75 91 127q5 33 -16.5 51.5t-64.5 18.5q-90 0 -204 -88l-44 118q150 104 290 104q104 0 162 -49.5t46 -131.5q-14 -97 -165 -232l-178 -162h310l-19 -132h-515z" />
    <glyph glyph-name="three" unicode="3" horiz-adv-x="552" 
d="M11 75l82 125q67 -81 165 -81q57 0 92.5 26t41.5 72q7 47 -20.5 71t-86.5 24h-107l13 88l188 171h-263l19 128h450l-14 -94l-210 -191l33 -4q81 -12 123.5 -61.5t30.5 -129.5q-14 -101 -95 -163.5t-201 -62.5q-69 0 -133.5 22.5t-107.5 59.5z" />
    <glyph glyph-name="four" unicode="4" horiz-adv-x="622" 
d="M51 158l16 112l289 430h152l-274 -414h168l22 154h147l-22 -154h97l-18 -128h-97l-23 -158h-147l23 158h-333z" />
    <glyph glyph-name="five" unicode="5" horiz-adv-x="589" 
d="M29 79l81 125q71 -83 170 -83q57 0 93 27t43 75q7 45 -21.5 69.5t-85.5 24.5q-115 0 -190 -5l57 388h448l-19 -132h-303l-18 -123l73 1q118 0 181 -59t49 -153q-16 -109 -99.5 -174.5t-207.5 -65.5q-66 0 -134.5 23t-116.5 62z" />
    <glyph glyph-name="six" unicode="6" horiz-adv-x="627" 
d="M92 339q24 167 124.5 267.5t245.5 100.5q56 0 114 -15.5t98 -40.5l-77 -116q-59 45 -143 45q-88 0 -140 -54t-64 -149q66 82 187 82q104 0 156 -61.5t37 -164.5q-16 -110 -95 -175t-196 -65q-138 0 -204 92.5t-43 253.5zM248 231q-7 -44 19.5 -75t83.5 -31
q54 0 89.5 28.5t42.5 80.5q7 49 -18.5 76.5t-78.5 27.5q-57 0 -94.5 -30.5t-43.5 -76.5z" />
    <glyph glyph-name="seven" unicode="7" horiz-adv-x="586" 
d="M116 568l19 132h534l-16 -113l-351 -587h-167l340 568h-219l-14 -98z" />
    <glyph glyph-name="eight" unicode="8" horiz-adv-x="637" 
d="M65 195q9 60 53 108.5t110 71.5q-43 24 -64.5 64t-14.5 86q12 84 85.5 133t185.5 49q113 0 172 -50.5t47 -135.5q-7 -46 -37.5 -85t-76.5 -61q57 -23 84.5 -70.5t18.5 -107.5q-13 -94 -97.5 -149t-212.5 -55q-130 0 -198 54.5t-55 147.5zM218 212q-7 -48 23 -73.5
t94 -25.5q63 0 101 25.5t45 72.5q7 46 -24 71.5t-95 25.5q-63 0 -100 -25t-44 -71zM280 512q-6 -40 20.5 -62.5t80.5 -22.5q53 0 85 22t38 63t-20 63.5t-79 22.5q-112 0 -125 -86z" />
    <glyph glyph-name="nine" unicode="9" horiz-adv-x="627" 
d="M58 49l77 116q59 -45 143 -45q88 0 140 54t64 149q-66 -82 -187 -82q-104 0 -156 61.5t-37 164.5q16 110 95 175t196 65q138 0 204 -92.5t43 -253.5q-24 -167 -124.5 -267.5t-245.5 -100.5q-56 0 -114 15.5t-98 40.5zM249 466q-7 -49 18.5 -76.5t78.5 -27.5
q57 0 94.5 30.5t43.5 76.5q7 44 -19.5 75t-83.5 31q-54 0 -89.5 -28.5t-42.5 -80.5z" />
    <glyph glyph-name="colon" unicode=":" horiz-adv-x="231" 
d="M50 71q5 35 30.5 57t58.5 22q34 0 52 -22t13 -57t-29.5 -57.5t-58.5 -22.5q-33 0 -52 23t-14 57zM93 368q5 35 30 57t58 22q34 0 52.5 -22t13.5 -57t-29.5 -57.5t-58.5 -22.5q-33 0 -52 23t-14 57z" />
    <glyph glyph-name="semicolon" unicode=";" horiz-adv-x="233" 
d="M17 -92l56 101q-28 22 -22 62q5 34 30 56t58 22q31 0 50 -21t14 -57q-4 -33 -30 -62l-81 -101h-75zM93 368q5 35 30 57t58 22q34 0 52.5 -22t13.5 -57t-29.5 -57.5t-58.5 -22.5q-33 0 -52 23t-14 57z" />
    <glyph glyph-name="less" unicode="&#x3c;" horiz-adv-x="506" 
d="M70 260l19 129l467 186l-17 -114l-358 -136l319 -137l-16 -114z" />
    <glyph glyph-name="equal" unicode="=" horiz-adv-x="506" 
d="M57 168l15 102h440l-15 -102h-440zM88 382l15 102h440l-15 -102h-440z" />
    <glyph glyph-name="greater" unicode="&#x3e;" horiz-adv-x="506" 
d="M45 81l16 114l359 136l-320 137l17 114l412 -186l-19 -129z" />
    <glyph glyph-name="question" unicode="?" horiz-adv-x="462" 
d="M72 481q17 104 84.5 162t169.5 58q97 0 147 -45t38 -127q-6 -43 -27 -77t-47 -57.5t-52 -45.5t-46 -50.5t-25 -62.5h-116q8 53 34 93t53 60.5t51.5 50.5t29.5 64q5 35 -14 52.5t-58 17.5q-85 0 -103 -94zM154 71q5 35 30 57t59 22q33 0 51.5 -22t13.5 -57t-30 -57.5
t-58 -22.5q-34 0 -52.5 22.5t-13.5 57.5z" />
    <glyph glyph-name="at" unicode="@" horiz-adv-x="936" 
d="M65 267q17 120 91 219.5t185 156.5t234 57q187 0 292.5 -121t79.5 -305q-16 -112 -78.5 -179.5t-147.5 -67.5q-99 0 -106 78v15q-68 -82 -170 -82q-89 0 -146 65.5t-42 166.5q15 100 82.5 168t161.5 68q53 0 89.5 -25t43.5 -42l8 56h117l-49 -340q-7 -50 34 -50
q34 0 67 47.5t43 118.5q22 148 -57 245t-235 97q-147 0 -264.5 -101t-138.5 -245q-20 -141 64 -234.5t229 -93.5q108 0 199 60l34 -77q-48 -32 -117.5 -52t-128.5 -20q-185 0 -292 119t-82 298zM386 275q-8 -54 16.5 -92t71.5 -38q50 0 85 37t43 92q8 52 -17.5 87.5
t-76.5 35.5q-46 0 -80 -35t-42 -87z" />
    <glyph glyph-name="A" unicode="A" horiz-adv-x="759" 
d="M-3 0l405 700h163l198 -700h-169l-35 136h-324l-75 -136h-163zM305 263h221l-71 272z" />
    <glyph glyph-name="B" unicode="B" horiz-adv-x="712" 
d="M77 0l101 700h322q116 0 176.5 -47t48.5 -128q-8 -57 -47 -98.5t-97 -55.5q66 -13 98.5 -60.5t22.5 -116.5q-13 -90 -91.5 -142t-200.5 -52h-333zM254 129h156q56 0 91 22.5t41 62.5q5 38 -23.5 60t-84.5 22h-156zM295 418h156q44 0 73 20.5t34 57.5q5 36 -17.5 55.5
t-67.5 19.5h-156z" />
    <glyph glyph-name="C" unicode="C" horiz-adv-x="694" 
d="M78 351q22 151 143.5 252.5t280.5 101.5q75 0 145 -31.5t114 -84.5l-108 -112q-30 42 -75.5 66.5t-93.5 24.5q-90 0 -160.5 -62t-83.5 -153t39.5 -153.5t142.5 -62.5q47 0 99 22t95 60l78 -101q-64 -58 -144.5 -91.5t-156.5 -33.5q-157 0 -247 103t-68 255z" />
    <glyph glyph-name="D" unicode="D" horiz-adv-x="769" 
d="M77 0l101 700h297q163 0 251 -97.5t66 -252.5q-23 -155 -141 -252.5t-283 -97.5h-291zM254 133h143q88 0 154.5 60.5t79.5 155.5q14 96 -36.5 157t-141.5 61h-136z" />
    <glyph glyph-name="E" unicode="E" horiz-adv-x="668" 
d="M77 0l101 700h533l-19 -131h-375l-22 -152h338l-19 -131h-338l-22 -155h386l-19 -131h-544z" />
    <glyph glyph-name="F" unicode="F" horiz-adv-x="595" 
d="M77 0l101 700h503l-20 -131h-344l-25 -172h316l-19 -132h-316l-38 -265h-158z" />
    <glyph glyph-name="G" unicode="G" horiz-adv-x="745" 
d="M77 350q22 152 146.5 253.5t287.5 101.5q77 0 148 -27.5t118 -74.5l-105 -113q-34 36 -82 57t-99 21q-93 0 -166 -63t-86 -155q-13 -93 42 -156t148 -63q63 0 142 38l27 184h137l-39 -269q-62 -41 -143.5 -66t-153.5 -25q-159 0 -251.5 102.5t-70.5 254.5z" />
    <glyph glyph-name="H" unicode="H" horiz-adv-x="787" 
d="M77 0l101 700h158l-42 -292h317l42 292h158l-101 -700h-158l40 276h-317l-40 -276h-158z" />
    <glyph glyph-name="I" unicode="I" horiz-adv-x="313" 
d="M77 0l101 700h158l-101 -700h-158z" />
    <glyph glyph-name="J" unicode="J" horiz-adv-x="524" 
d="M11 102l89 112q63 -78 137 -78q39 0 64.5 23.5t32.5 68.5l68 472h159l-69 -476q-16 -109 -87 -170t-181 -61q-136 0 -213 109z" />
    <glyph glyph-name="K" unicode="K" horiz-adv-x="737" 
d="M77 0l101 700h158l-46 -318l337 318h183l-305 -292l222 -408h-190l-160 285l-117 -112l-25 -173h-158z" />
    <glyph glyph-name="L" unicode="L" horiz-adv-x="552" 
d="M77 0l101 700h158l-81 -562h300l-20 -138h-458z" />
    <glyph glyph-name="M" unicode="M" horiz-adv-x="915" 
d="M77 0l101 700h177l142 -428l265 428h176l-101 -700h-142l68 472l-244 -401h-103l-128 401l-68 -472h-143z" />
    <glyph glyph-name="N" unicode="N" horiz-adv-x="788" 
d="M77 0l101 700h144l275 -450l65 450h150l-101 -700h-144l-274 449l-65 -449h-151z" />
    <glyph glyph-name="O" unicode="O" horiz-adv-x="806" 
d="M77 350q22 153 144.5 254t283.5 101t253.5 -101.5t70.5 -253.5t-144.5 -254.5t-282.5 -102.5t-253.5 102.5t-71.5 254.5zM239 350q-13 -91 41.5 -155t143.5 -64q88 0 159 63.5t84 155.5t-39.5 154.5t-140.5 62.5q-89 0 -162 -63t-86 -154z" />
    <glyph glyph-name="P" unicode="P" horiz-adv-x="678" 
d="M77 0l101 700h297q134 0 197.5 -63.5t47.5 -179.5q-17 -122 -100 -189.5t-217 -67.5h-139l-29 -200h-158zM283 332h131q137 0 155 120q8 58 -23 87.5t-98 29.5h-131z" />
    <glyph glyph-name="Q" unicode="Q" horiz-adv-x="815" 
d="M77 350q22 153 144.5 254t283.5 101t253.5 -101.5t70.5 -253.5q-16 -115 -94.5 -205t-191.5 -129q37 -53 88 -53q52 0 131 55l42 -103q-98 -77 -209 -77q-70 0 -123 41t-80 114q-156 4 -246.5 105.5t-68.5 251.5zM239 350q-13 -91 41.5 -155t143.5 -64q88 0 159 63.5
t84 155.5t-39.5 154.5t-140.5 62.5q-89 0 -162 -63t-86 -154z" />
    <glyph glyph-name="R" unicode="R" horiz-adv-x="724" 
d="M77 0l101 700h304q137 0 203 -63.5t49 -179.5q-24 -165 -164 -226l116 -231h-179l-82 200h-15h-146l-29 -200h-158zM283 332h146q136 0 154 120q8 58 -23 87.5t-97 29.5h-146z" />
    <glyph glyph-name="S" unicode="S" horiz-adv-x="637" 
d="M35 106l82 129q47 -47 112 -76t121 -29q49 0 79 17.5t34 49.5q4 30 -20.5 51t-64.5 31t-86 26t-84.5 35.5t-60 60.5t-13.5 99q13 95 96 151t205 56q151 0 255 -76l-80 -131q-50 33 -107.5 52.5t-100.5 19.5q-41 0 -67 -14.5t-30 -42.5q-3 -23 10.5 -40t38 -27t56.5 -21
t65.5 -20.5t65 -26t54.5 -38t34 -56.5t4 -80q-15 -100 -99.5 -155.5t-205.5 -55.5q-85 0 -162.5 30t-130.5 81z" />
    <glyph glyph-name="T" unicode="T" horiz-adv-x="601" 
d="M90 566l19 134h585l-19 -134h-214l-82 -566h-158l82 566h-213z" />
    <glyph glyph-name="U" unicode="U" horiz-adv-x="760" 
d="M106 293l59 407h158l-59 -407q-11 -75 27 -118.5t110 -43.5q71 0 119.5 43.5t59.5 118.5l59 407h158l-59 -407q-20 -139 -116 -219.5t-241 -80.5q-146 0 -220.5 81t-54.5 219z" />
    <glyph glyph-name="V" unicode="V" horiz-adv-x="716" 
d="M101 700h170l115 -528l268 528h163l-379 -700h-163z" />
    <glyph glyph-name="W" unicode="W" horiz-adv-x="1066" 
d="M101 700h170l71 -528l222 528h155l72 -528l222 528h162l-333 -700h-163l-69 499l-216 -499h-163z" />
    <glyph glyph-name="X" unicode="X" horiz-adv-x="721" 
d="M8 0l303 358l-185 342h184l115 -214l178 214h187l-281 -335l200 -365h-189l-131 233l-196 -233h-185z" />
    <glyph glyph-name="Y" unicode="Y" horiz-adv-x="666" 
d="M98 700h159l134 -314l220 314h159l-323 -474l-33 -226h-158l32 222z" />
    <glyph glyph-name="Z" unicode="Z" horiz-adv-x="672" 
d="M31 0l15 107l459 461h-379l19 132h591l-15 -106l-458 -462h397l-20 -132h-609z" />
    <glyph glyph-name="bracketleft" unicode="[" horiz-adv-x="356" 
d="M59 -124l125 866h259l-17 -119h-122l-91 -628h122l-17 -119h-259z" />
    <glyph glyph-name="backslash" unicode="\" horiz-adv-x="484" 
d="M168 812h130l188 -924h-130z" />
    <glyph glyph-name="bracketright" unicode="]" horiz-adv-x="446" 
d="M92 -124l17 119h122l91 628h-122l17 119h259l-125 -866h-259z" />
    <glyph glyph-name="asciicircum" unicode="^" horiz-adv-x="563" 
d="M50 135l242 390h130l128 -390h-113l-93 301l-181 -301h-113z" />
    <glyph glyph-name="underscore" unicode="_" horiz-adv-x="577" 
d="M-29 -204l12 88h577l-12 -88h-577z" />
    <glyph glyph-name="grave" unicode="`" horiz-adv-x="350" 
d="M149 712l150 53l84 -163h-123z" />
    <glyph glyph-name="a" unicode="a" horiz-adv-x="596" 
d="M55 161q11 76 71 118.5t158 43.5h148l1 10q6 43 -19 66.5t-80 23.5q-76 0 -167 -47l-33 106q133 62 252 62q108 0 160.5 -51t40.5 -142l-50 -351h-151l9 63q-65 -70 -179 -70q-85 0 -128.5 46.5t-32.5 121.5zM201 171q-5 -31 15 -49.5t59 -18.5q48 0 86.5 23t50.5 58
l6 48h-121q-87 0 -96 -61z" />
    <glyph glyph-name="b" unicode="b" horiz-adv-x="683" 
d="M79 0l107 742h154l-41 -283q72 84 182 84q113 0 172 -76.5t41 -200.5q-17 -122 -96.5 -197t-192.5 -75t-161 84l-11 -78h-154zM272 271q-10 -66 21.5 -107.5t91.5 -41.5q59 0 101.5 41.5t52.5 107.5q9 65 -22 106.5t-90 41.5t-102 -41.5t-53 -106.5z" />
    <glyph glyph-name="c" unicode="c" horiz-adv-x="563" 
d="M66 267q18 124 105 200t211 76q157 0 217 -113l-115 -75q-39 58 -115 57q-56 0 -97.5 -40t-50.5 -104q-10 -65 20 -105.5t87 -40.5q84 0 134 63l95 -72q-89 -119 -256 -119q-122 0 -187 75.5t-48 197.5z" />
    <glyph glyph-name="d" unicode="d" horiz-adv-x="685" 
d="M67 271q18 123 97.5 198t191.5 75q114 0 162 -85l41 283h153l-107 -742h-153l11 79q-71 -85 -182 -85q-115 0 -173.5 76t-40.5 201zM220 267q-9 -66 22.5 -107.5t92.5 -41.5q59 0 102 41.5t53 107.5t-21.5 107.5t-90.5 41.5q-60 0 -103.5 -41.5t-54.5 -107.5z" />
    <glyph glyph-name="e" unicode="e" horiz-adv-x="597" 
d="M66 267q18 124 106 200t211 76q139 0 194 -85.5t24 -235.5h-386q6 -51 38.5 -79.5t84.5 -28.5q80 0 145 57l69 -82q-100 -95 -244 -95q-128 0 -193.5 75t-48.5 198zM225 313h245q6 53 -21.5 85t-80.5 32q-50 0 -88 -31.5t-55 -85.5z" />
    <glyph glyph-name="f" unicode="f" horiz-adv-x="372" 
d="M90 407l15 107h72l7 51q12 87 76 135.5t149 48.5q83 0 135 -38l-71 -112q-28 23 -63 23q-28 0 -48.5 -16t-24.5 -47l-7 -45h127l-15 -107h-127l-59 -407h-153l59 407h-72z" />
    <glyph glyph-name="g" unicode="g" horiz-adv-x="645" 
d="M38 -129l73 108q68 -54 159 -54q66 0 109.5 32.5t51.5 87.5l9 61q-67 -78 -173 -78q-104 0 -158.5 71.5t-38.5 188.5q16 114 90 184.5t177 70.5q107 1 155 -78l11 73h153l-71 -488q-16 -114 -104.5 -182t-218.5 -68q-129 0 -224 71zM213 284q-8 -62 21 -100.5t86 -38.5
q56 0 96.5 38.5t49.5 100.5t-20.5 101t-85.5 39t-96.5 -39t-50.5 -101z" />
    <glyph glyph-name="h" unicode="h" horiz-adv-x="675" 
d="M79 0l107 742h154l-43 -299q71 99 200 101q91 0 136.5 -56t32.5 -150l-49 -338h-154l42 293q8 51 -16.5 80.5t-73.5 29.5q-57 -1 -96.5 -39.5t-47.5 -98.5l-38 -265h-154z" />
    <glyph glyph-name="i" unicode="i" horiz-adv-x="302" 
d="M74 0l78 538h154l-78 -538h-154zM168 691q5 38 31.5 62t63.5 24t56.5 -24t14.5 -62t-32 -62t-64 -24t-56 24t-14 62z" />
    <glyph glyph-name="j" unicode="j" horiz-adv-x="308" 
d="M-110 -165l59 113q29 -21 59 -21q58 0 67 63l79 548h153l-80 -554q-13 -88 -74 -136.5t-141 -48.5q-72 0 -122 36zM163 691q5 38 33.5 62t67.5 24q40 0 61 -24t16 -62t-33.5 -62t-68.5 -24q-38 0 -59.5 24.5t-16.5 61.5z" />
    <glyph glyph-name="k" unicode="k" horiz-adv-x="619" 
d="M79 0l107 742h154l-59 -408l226 203h175l-226 -207l158 -330h-182l-98 219l-80 -73l-21 -146h-154z" />
    <glyph glyph-name="l" unicode="l" horiz-adv-x="313" 
d="M79 0l107 742h154l-107 -742h-154z" />
    <glyph glyph-name="m" unicode="m" horiz-adv-x="1039" 
d="M74 0l78 538h154l-14 -93q71 97 196 99q68 0 111 -32.5t54 -91.5q69 122 211 124q89 0 134 -55.5t31 -150.5l-49 -338h-153l42 293q7 52 -16.5 81t-71.5 29q-55 -1 -93 -39t-46 -98l-38 -266h-153l42 293q7 51 -16 80.5t-71 29.5q-55 -1 -93.5 -39t-46.5 -98l-38 -266
h-154z" />
    <glyph glyph-name="n" unicode="n" horiz-adv-x="670" 
d="M74 0l78 538h154l-14 -94q71 98 200 100q90 0 135.5 -56t32.5 -150l-49 -338h-154l42 293q8 51 -16.5 80.5t-73.5 29.5q-57 -1 -96 -39.5t-47 -98.5l-38 -265h-154z" />
    <glyph glyph-name="o" unicode="o" horiz-adv-x="633" 
d="M67 269q18 124 108 199t220 75q129 0 198 -75.5t51 -198.5t-108.5 -199t-219.5 -76q-130 0 -198.5 76t-50.5 199zM221 267q-10 -66 21.5 -107t91.5 -41q59 0 102 41t53 107t-21.5 107t-90.5 41q-60 0 -103 -41t-53 -107z" />
    <glyph glyph-name="p" unicode="p" horiz-adv-x="684" 
d="M51 -194l106 732h154l-12 -79q72 84 182 84q113 0 172 -76.5t41 -200.5q-17 -122 -96.5 -197t-192.5 -75t-161 84l-39 -272h-154zM272 271q-10 -66 21.5 -107.5t91.5 -41.5q59 0 101.5 41.5t52.5 107.5q9 65 -22 106.5t-90 41.5t-102 -41.5t-53 -106.5z" />
    <glyph glyph-name="q" unicode="q" horiz-adv-x="685" 
d="M67 271q18 123 97.5 198t191.5 75q114 0 162 -85l12 79h153l-106 -732h-153l39 273q-71 -85 -182 -85q-115 0 -173.5 76t-40.5 201zM220 267q-9 -66 22.5 -107.5t92.5 -41.5q59 0 102 41.5t53 107.5t-21.5 107.5t-90.5 41.5q-60 0 -103.5 -41.5t-54.5 -107.5z" />
    <glyph glyph-name="r" unicode="r" horiz-adv-x="416" 
d="M74 0l78 538h154l-14 -97q72 102 192 103l-21 -145q-81 7 -134.5 -32t-63.5 -108l-37 -259h-154z" />
    <glyph glyph-name="s" unicode="s" horiz-adv-x="499" 
d="M28 69l65 104q78 -67 177 -67q68 0 74 42q3 23 -23.5 38t-66 26t-78 27t-62 51t-16.5 87q12 80 78.5 124t158.5 44q114 0 201 -60l-68 -105q-85 52 -157 52q-62 0 -68 -40q-3 -22 24 -36t67 -25.5t79.5 -28t63.5 -52t16 -88.5q-12 -80 -80 -124t-163 -44q-139 0 -222 75z
" />
    <glyph glyph-name="t" unicode="t" horiz-adv-x="426" 
d="M82 408l15 106h75l21 148h153l-21 -148h146l-15 -107h-146l-32 -222q-4 -33 7 -48t36 -14q29 0 75 20l15 -113q-69 -37 -145 -37q-75 0 -116 43t-29 123l36 249h-75z" />
    <glyph glyph-name="u" unicode="u" horiz-adv-x="660" 
d="M87 200l49 338h154l-43 -294q-7 -51 15.5 -80t69.5 -29q55 1 93 39t46 98l39 266h153l-78 -538h-153l14 95q-70 -101 -195 -101q-89 0 -133 55.5t-31 150.5z" />
    <glyph glyph-name="v" unicode="v" horiz-adv-x="556" 
d="M74 537l160 1l70 -392l183 392h153l-281 -538h-158z" />
    <glyph glyph-name="w" unicode="w" horiz-adv-x="923" 
d="M74 537l158 1l64 -385l172 385h151l62 -385l174 385h152l-274 -538h-154l-65 355l-166 -355h-154z" />
    <glyph glyph-name="x" unicode="x" horiz-adv-x="589" 
d="M7 0l226 275l-135 263h176l75 -163l129 163h168l-209 -262l143 -276h-177l-83 176l-143 -176h-170z" />
    <glyph glyph-name="y" unicode="y" horiz-adv-x="564" 
d="M-29 -149l81 111q30 -29 65 -29q48 0 78 48l20 30l-147 527h159l87 -370l181 370h154l-323 -598q-77 -141 -217 -141q-82 0 -138 52z" />
    <glyph glyph-name="z" unicode="z" horiz-adv-x="548" 
d="M38 0l14 97l323 319l-267 1l17 120h459l-14 -97l-323 -319h286l-17 -122z" />
    <glyph glyph-name="braceleft" unicode="{" horiz-adv-x="347" 
d="M64 248l17 122h36q21 0 31.5 10.5t14.5 35.5l27 191q10 75 53 105.5t136 30.5h59l-17 -119q-52 0 -74 -14.5t-27 -51.5l-19 -132q-8 -53 -29 -80t-65 -37q42 -11 55.5 -38t5.5 -80l-19 -132q-5 -37 12 -51.5t69 -14.5l-17 -119h-59q-93 0 -126.5 30.5t-22.5 106.5l27 190
q4 25 -3.5 36t-28.5 11h-36z" />
    <glyph glyph-name="bar" unicode="|" horiz-adv-x="289" 
d="M71 -111l132 916h115l-132 -916h-115z" />
    <glyph glyph-name="braceright" unicode="}" horiz-adv-x="395" 
d="M69 -126l17 119q51 0 73 15t27 51l19 132q8 53 29.5 80t66.5 38q-42 10 -56.5 37t-6.5 80l19 132q5 37 -12 51.5t-68 14.5l17 119h59q93 0 126.5 -30.5t22.5 -105.5l-27 -191q-4 -25 3.5 -35.5t28.5 -10.5h36l-17 -122h-36q-21 0 -31.5 -11t-14.5 -36l-27 -190
q-11 -76 -53.5 -106.5t-135.5 -30.5h-59z" />
    <glyph glyph-name="asciitilde" unicode="~" horiz-adv-x="506" 
d="M95 245q24 163 131 163q37 0 78.5 -26.5t55.5 -26.5q34 0 41 48h104q-24 -163 -130 -163q-39 0 -80 26t-55 26q-35 0 -41 -47h-104z" />
    <glyph glyph-name="nbspace" unicode="&#xa0;" horiz-adv-x="241" 
 />
    <glyph glyph-name="exclamdown" unicode="&#xa1;" horiz-adv-x="239" 
d="M32 -158l26 177l66 282h94l-14 -282l-26 -177h-146zM120 465q5 35 30 57.5t59 22.5q33 0 51 -22.5t13 -57.5t-29.5 -57t-57.5 -22q-34 0 -52.5 22.5t-13.5 56.5z" />
    <glyph glyph-name="cent" unicode="&#xa2;" horiz-adv-x="558" 
d="M66 267q16 109 86.5 181.5t173.5 89.5l22 158h123l-23 -159q107 -21 151 -107l-115 -75q-39 58 -115 57q-56 0 -97.5 -40t-50.5 -104q-10 -65 20 -105.5t87 -40.5q84 0 134 63l95 -72q-67 -90 -186 -113l-22 -151h-123l22 149q-98 17 -148 89.5t-34 179.5z" />
    <glyph glyph-name="sterling" unicode="&#xa3;" horiz-adv-x="554" 
d="M31 0l18 125h78l23 160h-78l16 110h78l12 81q16 110 84.5 170.5t178.5 60.5q124 0 195 -87l-77 -120q-57 69 -121 69q-88 0 -102 -96l-11 -78h170l-16 -110h-170l-23 -160h265l-18 -125h-502z" />
    <glyph glyph-name="currency" unicode="&#xa4;" horiz-adv-x="705" 
d="M40 82l116 102q-31 65 -21 137t56 133l-83 99l99 90l86 -101q69 39 143 39q73 0 132 -38l115 100l74 -90l-114 -99q29 -63 19 -133q-10 -74 -60 -138l87 -101l-100 -90l-90 105q-67 -35 -138 -35t-128 35l-120 -105zM256 321q-8 -56 28 -95t95 -39t107 39.5t56 94.5
q8 56 -28.5 95.5t-95.5 39.5t-106.5 -39.5t-55.5 -95.5z" />
    <glyph glyph-name="yen" unicode="&#xa5;" horiz-adv-x="653" 
d="M91 142l9 62h185l3 18l-21 52h-157l9 61h124l-145 365h159l134 -314l220 314h159l-249 -365h123l-9 -61h-156l-31 -48l-4 -22h181l-9 -62h-181l-20 -142h-159l20 142h-185z" />
    <glyph glyph-name="brokenbar" unicode="&#xa6;" horiz-adv-x="289" 
d="M71 -111l49 343h115l-49 -343h-115zM153 461l50 344h115l-50 -344h-115z" />
    <glyph glyph-name="section" unicode="&#xa7;" horiz-adv-x="530" 
d="M17 -10l58 98q86 -68 179 -68q37 0 61 13t27 33q4 24 -24.5 40.5t-70 29.5t-83 30t-67 51.5t-18.5 84.5q14 94 129 131q-43 22 -57 46t-9 59q10 69 73.5 112.5t159.5 43.5q112 0 203 -59l-62 -98q-90 52 -155 52q-34 0 -56 -12t-25 -32q-4 -25 25 -42t71 -29.5t84 -29.5
t68 -51.5t19 -85.5q-7 -44 -40.5 -79.5t-80.5 -52.5q36 -21 49.5 -44t7.5 -61q-10 -69 -76 -113t-165 -44q-134 0 -225 77zM217 312q-4 -27 25 -44.5t75 -17.5q39 0 62.5 13t26.5 35q4 27 -25 44t-76 17q-81 0 -88 -47z" />
    <glyph glyph-name="dieresis" unicode="&#xa8;" horiz-adv-x="375" 
d="M109 694q4 33 27.5 54t55.5 21t49.5 -21t12.5 -54q-5 -32 -28.5 -53.5t-55.5 -21.5q-31 0 -48.5 21.5t-12.5 53.5zM297 694q4 33 27.5 54t55.5 21t49 -21t13 -54q-4 -32 -28 -53.5t-56 -21.5q-31 0 -48.5 21.5t-12.5 53.5z" />
    <glyph glyph-name="copyright" unicode="&#xa9;" horiz-adv-x="732" 
d="M77 348q20 140 133 240.5t255 100.5t225.5 -99.5t63.5 -239.5t-133.5 -240.5t-255.5 -100.5q-141 0 -224.5 99.5t-63.5 239.5zM149 348q-16 -109 49.5 -186.5t177.5 -77.5q113 0 201.5 78t104.5 188q16 109 -50 186.5t-178 77.5t-200.5 -78t-104.5 -188zM245 349
q10 71 68 119t133 48q77 0 124 -55l-51 -53q-33 43 -81 43q-43 0 -76.5 -29t-39.5 -72t19 -72.5t68 -29.5q48 0 92 39l37 -48q-66 -59 -143 -59q-74 0 -117 48.5t-33 120.5z" />
    <glyph glyph-name="ordfeminine" unicode="&#xaa;" horiz-adv-x="390" 
d="M105 553q7 45 43.5 69.5t98.5 24.5h90l1 7q3 24 -12 36.5t-48 12.5q-46 0 -109 -25l-15 71q89 34 161 34q69 0 103.5 -30.5t25.5 -85.5l-29 -209h-104l6 44q-43 -49 -115 -49q-52 0 -78 27.5t-19 72.5zM206 561q-2 -18 9 -28.5t33 -10.5q48 0 77 38l5 36h-68
q-51 0 -56 -35z" />
    <glyph glyph-name="guillemetleft" unicode="&#xab;" horiz-adv-x="487" 
d="M47 265l145 181h126l-133 -181l81 -182h-126zM255 265l145 181h125l-132 -181l80 -182h-125z" />
    <glyph glyph-name="logicalnot" unicode="&#xac;" horiz-adv-x="573" 
d="M79 319l15 102h472l-41 -282h-111l26 180h-361z" />
    <glyph glyph-name="softhyphen" unicode="&#xad;" horiz-adv-x="372" 
d="M94 255l14 102h259l-15 -102h-258z" />
    <glyph glyph-name="registered" unicode="&#xae;" horiz-adv-x="732" 
d="M77 348q20 140 133 240.5t255 100.5t225.5 -99.5t63.5 -239.5t-133.5 -240.5t-255.5 -100.5q-141 0 -224.5 99.5t-63.5 239.5zM149 348q-16 -109 49.5 -186.5t177.5 -77.5q113 0 201.5 78t104.5 188q16 109 -50 186.5t-178 77.5t-200.5 -78t-104.5 -188zM265 197l47 325
h138q64 0 95 -29.5t23 -82.5q-11 -77 -77 -105l55 -108h-83l-38 94h-8h-66l-14 -94h-72zM359 349h66q31 0 50.5 15t23.5 43t-11 42.5t-46 14.5h-66z" />
    <glyph glyph-name="macron" unicode="&#xaf;" horiz-adv-x="350" 
d="M131 634l16 108h271l-16 -108h-271z" />
    <glyph glyph-name="degree" unicode="&#xb0;" horiz-adv-x="365" 
d="M184 698q7 48 46 82.5t87 34.5q49 0 79.5 -34.5t23.5 -82.5t-47 -82.5t-89 -34.5q-48 0 -77.5 34.5t-22.5 82.5zM245 698q-3 -23 11 -38.5t37 -15.5q24 0 43.5 16t22.5 38t-12 38t-39 16q-23 0 -41.5 -16t-21.5 -38z" />
    <glyph glyph-name="plusminus" unicode="&#xb1;" horiz-adv-x="506" 
d="M34 7l15 102h440l-15 -102h-440zM83 349l15 99h171l23 164h98l-23 -164h171l-15 -99h-171l-23 -164h-98l23 164h-171z" />
    <glyph glyph-name="twosuperior" unicode="&#xb2;" horiz-adv-x="387" 
d="M75 284l10 70l178 157q48 43 52 69q2 17 -9.5 26.5t-35.5 9.5q-55 0 -126 -53l-30 79q97 62 185 62q65 0 102 -30t30 -79q-8 -61 -102 -138l-103 -88h185l-12 -85h-324z" />
    <glyph glyph-name="threesuperior" unicode="&#xb3;" horiz-adv-x="361" 
d="M55 330l56 83q41 -52 100 -52q68 0 76 53q4 24 -12 37t-49 13h-69l8 58l114 97h-162l12 80h286l-9 -62l-124 -105l20 -4q48 -7 73.5 -36.5t18.5 -76.5q-9 -61 -60 -98.5t-126 -37.5q-95 0 -153 51z" />
    <glyph glyph-name="acute" unicode="&#xb4;" horiz-adv-x="350" 
d="M137 602l129 163l136 -54l-143 -109h-122z" />
    <glyph glyph-name="mu" unicode="&#xb5;" horiz-adv-x="681" 
d="M51 -194l106 732h154l-43 -294q-7 -51 16 -80t70 -29q55 1 92.5 39t45.5 98l39 266h154l-78 -538h-154l14 94q-70 -100 -195 -100q-20 0 -39 3l-28 -191h-154z" />
    <glyph glyph-name="paragraph" unicode="&#xb6;" horiz-adv-x="639" 
d="M73 533q12 88 79.5 148.5t187.5 60.5h328l-122 -849h-115l109 758h-110l-109 -758h-115l63 440h-28q-56 0 -94 20.5t-53 50.5t-21.5 65t0.5 64z" />
    <glyph glyph-name="periodcentered" unicode="&#xb7;" horiz-adv-x="231" 
d="M82 289q4 33 28.5 54.5t57.5 21.5q32 0 50 -21t14 -55q-5 -34 -30 -56t-57 -22t-50 22t-13 56z" />
    <glyph glyph-name="cedilla" unicode="&#xb8;" horiz-adv-x="350" 
d="M40 -202l39 67q20 -20 49 -20q19 0 32.5 11t15.5 27t-8.5 26t-32.5 10q-12 0 -36 -4l60 99h87l-41 -64q30 -8 45 -29.5t11 -51.5q-7 -46 -43.5 -73.5t-88.5 -27.5q-51 0 -89 30z" />
    <glyph glyph-name="onesuperior" unicode="&#xb9;" horiz-adv-x="270" 
d="M100 613l13 87h189l-60 -416h-108l47 329h-81z" />
    <glyph glyph-name="ordmasculine" unicode="&#xba;" horiz-adv-x="411" 
d="M113 619q11 74 67 119t138 45t125.5 -45t32.5 -119t-67 -119t-138 -45t-125 45t-33 119zM219 617q-5 -36 12.5 -58t50.5 -22q34 0 58 22t29 58q5 37 -12 59t-51 22q-33 0 -57.5 -22.5t-29.5 -58.5z" />
    <glyph glyph-name="guillemetright" unicode="&#xbb;" horiz-adv-x="495" 
d="M60 83l133 181l-81 182h126l93 -182l-145 -181h-126zM268 83l133 181l-81 182h126l93 -182l-145 -181h-126z" />
    <glyph glyph-name="onequarter" unicode="&#xbc;" horiz-adv-x="859" 
d="M61 0l607 700h144l-605 -700h-146zM100 613l13 87h189l-60 -416h-108l47 329h-81zM490 90l10 73l174 253h104l-167 -248h95l13 92h102l-13 -92h59l-11 -78h-59l-13 -90h-102l13 90h-205z" />
    <glyph glyph-name="onehalf" unicode="&#xbd;" horiz-adv-x="882" 
d="M61 0l607 700h144l-605 -700h-146zM100 613l13 87h189l-60 -416h-108l47 329h-81zM529 0l10 70l178 156q48 42 52 70q2 17 -9.5 26.5t-35.5 9.5q-53 0 -126 -53l-31 78q96 63 187 63q65 0 101.5 -30t29.5 -79q-8 -61 -102 -138l-103 -89h185l-12 -84h-324z" />
    <glyph glyph-name="threequarters" unicode="&#xbe;" horiz-adv-x="919" 
d="M55 330l56 83q41 -52 100 -52q68 0 76 53q4 24 -12 37t-49 13h-69l8 58l114 97h-162l12 80h286l-9 -62l-124 -105l20 -4q48 -7 73.5 -36.5t18.5 -76.5q-9 -61 -60 -98.5t-126 -37.5q-95 0 -153 51zM121 0l607 700h144l-605 -700h-146zM550 90l10 73l174 253h104
l-167 -248h95l13 92h102l-13 -92h59l-11 -78h-59l-13 -90h-102l13 90h-205z" />
    <glyph glyph-name="questiondown" unicode="&#xbf;" horiz-adv-x="462" 
d="M28 8q6 43 27 77t47 57.5t52 45.5t46 50.5t25 62.5h116q-8 -53 -34 -93t-52.5 -60.5t-51 -50.5t-29.5 -64q-5 -35 14 -52.5t58 -17.5q86 0 102 94l119 -1q-17 -104 -84.5 -162t-169.5 -58q-97 0 -147 45t-38 127zM232 466q5 35 30 57.5t59 22.5q33 0 51.5 -23t13.5 -57
q-5 -35 -30 -57t-58 -22q-34 0 -52.5 22t-13.5 57z" />
    <glyph glyph-name="Agrave" unicode="&#xc0;" horiz-adv-x="759" 
d="M-3 0l405 700h163l198 -700h-169l-35 136h-324l-75 -136h-163zM305 263h221l-71 272zM336 875l151 53l83 -163h-123z" />
    <glyph glyph-name="Aacute" unicode="&#xc1;" horiz-adv-x="759" 
d="M-3 0l405 700h163l198 -700h-169l-35 136h-324l-75 -136h-163zM305 263h221l-71 272zM410 765l130 163l135 -54l-143 -109h-122z" />
    <glyph glyph-name="Acircumflex" unicode="&#xc2;" horiz-adv-x="759" 
d="M-3 0l405 700h163l198 -700h-169l-35 136h-324l-75 -136h-163zM305 263h221l-71 272zM318 773l131 148h128l87 -148h-113l-47 85l-73 -85h-113z" />
    <glyph glyph-name="Atilde" unicode="&#xc3;" horiz-adv-x="759" 
d="M-3 0l405 700h163l198 -700h-169l-35 136h-324l-75 -136h-163zM305 263h221l-71 272zM321 785q22 151 122 151q25 0 46 -12.5t36.5 -25t27.5 -12.5q33 0 39 44h95q-21 -149 -121 -149q-34 0 -66 24.5t-44 24.5q-34 0 -40 -45h-95z" />
    <glyph glyph-name="Adieresis" unicode="&#xc4;" horiz-adv-x="759" 
d="M-3 0l405 700h163l198 -700h-169l-35 136h-324l-75 -136h-163zM305 263h221l-71 272zM337 857q4 33 27.5 54t55.5 21t49 -21t13 -54q-4 -32 -27.5 -53t-55.5 -21t-49 21t-13 53zM525 857q4 33 27.5 54t55.5 21t49 -21t13 -54q-4 -32 -27.5 -53t-55.5 -21t-49 21t-13 53z
" />
    <glyph glyph-name="Aring" unicode="&#xc5;" horiz-adv-x="759" 
d="M-3 0l394 681q-32 36 -24 88q7 52 49.5 89t95.5 37q52 0 84 -36.5t24 -89.5q-8 -52 -50 -88l193 -681h-169l-35 136h-324l-75 -136h-163zM305 263h221l-71 272zM434 769q-3 -23 12 -39.5t40 -16.5t45 16.5t23 39.5q4 24 -11.5 40.5t-40.5 16.5t-44.5 -16.5t-23.5 -40.5z
" />
    <glyph glyph-name="AE" unicode="&#xc6;" horiz-adv-x="1085" 
d="M-3 0l502 700h629l-19 -131h-375l-22 -152h338l-19 -131h-338l-22 -154h386l-19 -132h-543l22 154h-250l-105 -154h-165zM349 274h185l44 300h-22z" />
    <glyph glyph-name="Ccedilla" unicode="&#xc7;" horiz-adv-x="694" 
d="M78 351q22 151 143.5 252.5t280.5 101.5q75 0 145 -31.5t114 -84.5l-108 -112q-30 42 -75.5 66.5t-93.5 24.5q-90 0 -160.5 -62t-83.5 -153t39.5 -153.5t142.5 -62.5q47 0 99 22t95 60l78 -101q-114 -103 -257 -122l-29 -46q30 -8 45 -29.5t11 -51.5q-7 -46 -43.5 -73.5
t-88.5 -27.5q-51 0 -89 30l39 67q20 -20 49 -20q19 0 32.5 11t15.5 27t-8.5 26t-32.5 10q-12 0 -36 -4l48 80q-139 15 -215.5 115t-56.5 241z" />
    <glyph glyph-name="Egrave" unicode="&#xc8;" horiz-adv-x="668" 
d="M77 0l101 700h533l-19 -131h-375l-22 -152h338l-19 -131h-338l-22 -155h386l-19 -131h-544zM301 875l151 53l83 -163h-123z" />
    <glyph glyph-name="Eacute" unicode="&#xc9;" horiz-adv-x="668" 
d="M77 0l101 700h533l-19 -131h-375l-22 -152h338l-19 -131h-338l-22 -155h386l-19 -131h-544zM375 765l130 163l135 -54l-143 -109h-122z" />
    <glyph glyph-name="Ecircumflex" unicode="&#xca;" horiz-adv-x="668" 
d="M77 0l101 700h533l-19 -131h-375l-22 -152h338l-19 -131h-338l-22 -155h386l-19 -131h-544zM284 773l131 148h128l87 -148h-113l-47 85l-73 -85h-113z" />
    <glyph glyph-name="Edieresis" unicode="&#xcb;" horiz-adv-x="668" 
d="M77 0l101 700h533l-19 -131h-375l-22 -152h338l-19 -131h-338l-22 -155h386l-19 -131h-544zM303 857q4 33 27.5 54t55.5 21t49 -21t13 -54q-4 -32 -27.5 -53t-55.5 -21t-49 21t-13 53zM491 857q4 33 27.5 54t55.5 21t49 -21t13 -54q-4 -32 -27.5 -53t-55.5 -21t-49 21
t-13 53z" />
    <glyph glyph-name="Igrave" unicode="&#xcc;" horiz-adv-x="313" 
d="M77 0l101 700h158l-101 -700h-158zM112 875l151 53l83 -163h-123z" />
    <glyph glyph-name="Iacute" unicode="&#xcd;" horiz-adv-x="313" 
d="M77 0l101 700h158l-101 -700h-158zM186 765l130 163l135 -54l-143 -109h-122z" />
    <glyph glyph-name="Icircumflex" unicode="&#xce;" horiz-adv-x="313" 
d="M77 0l101 700h158l-101 -700h-158zM94 773l131 148h128l87 -148h-113l-47 85l-73 -85h-113z" />
    <glyph glyph-name="Idieresis" unicode="&#xcf;" horiz-adv-x="313" 
d="M77 0l101 700h158l-101 -700h-158zM113 857q4 33 27.5 54t55.5 21t49 -21t13 -54q-4 -32 -27.5 -53t-55.5 -21t-49 21t-13 53zM301 857q4 33 27.5 54t55.5 21t49 -21t13 -54q-4 -32 -27.5 -53t-55.5 -21t-49 21t-13 53z" />
    <glyph glyph-name="Eth" unicode="&#xd0;" horiz-adv-x="797" 
d="M44 307l13 88h105l44 305h297q163 0 251 -97.5t66 -252.5q-23 -155 -141 -252.5t-283 -97.5h-291l44 307h-105zM282 133h143q88 0 154.5 60.5t79.5 155.5q14 96 -36.5 157t-141.5 61h-136l-25 -172h172l-13 -88h-172z" />
    <glyph glyph-name="Ntilde" unicode="&#xd1;" horiz-adv-x="788" 
d="M77 0l101 700h144l275 -450l65 450h150l-101 -700h-144l-274 449l-65 -449h-151zM335 785q22 151 122 151q25 0 46 -12.5t36.5 -25t27.5 -12.5q33 0 39 44h95q-21 -149 -121 -149q-34 0 -66 24.5t-44 24.5q-34 0 -40 -45h-95z" />
    <glyph glyph-name="Ograve" unicode="&#xd2;" horiz-adv-x="806" 
d="M77 350q22 153 144.5 254t283.5 101t253.5 -101.5t70.5 -253.5t-144.5 -254.5t-282.5 -102.5t-253.5 102.5t-71.5 254.5zM239 350q-13 -91 41.5 -155t143.5 -64q88 0 159 63.5t84 155.5t-39.5 154.5t-140.5 62.5q-89 0 -162 -63t-86 -154zM352 875l151 53l83 -163h-123z
" />
    <glyph glyph-name="Oacute" unicode="&#xd3;" horiz-adv-x="806" 
d="M77 350q22 153 144.5 254t283.5 101t253.5 -101.5t70.5 -253.5t-144.5 -254.5t-282.5 -102.5t-253.5 102.5t-71.5 254.5zM239 350q-13 -91 41.5 -155t143.5 -64q88 0 159 63.5t84 155.5t-39.5 154.5t-140.5 62.5q-89 0 -162 -63t-86 -154zM426 765l130 163l135 -54
l-143 -109h-122z" />
    <glyph glyph-name="Ocircumflex" unicode="&#xd4;" horiz-adv-x="806" 
d="M77 350q22 153 144.5 254t283.5 101t253.5 -101.5t70.5 -253.5t-144.5 -254.5t-282.5 -102.5t-253.5 102.5t-71.5 254.5zM239 350q-13 -91 41.5 -155t143.5 -64q88 0 159 63.5t84 155.5t-39.5 154.5t-140.5 62.5q-89 0 -162 -63t-86 -154zM334 773l131 148h128l87 -148
h-113l-47 85l-73 -85h-113z" />
    <glyph glyph-name="Otilde" unicode="&#xd5;" horiz-adv-x="806" 
d="M77 350q22 153 144.5 254t283.5 101t253.5 -101.5t70.5 -253.5t-144.5 -254.5t-282.5 -102.5t-253.5 102.5t-71.5 254.5zM239 350q-13 -91 41.5 -155t143.5 -64q88 0 159 63.5t84 155.5t-39.5 154.5t-140.5 62.5q-89 0 -162 -63t-86 -154zM337 785q22 151 122 151
q25 0 46 -12.5t36.5 -25t27.5 -12.5q33 0 39 44h95q-21 -149 -121 -149q-34 0 -66 24.5t-44 24.5q-34 0 -40 -45h-95z" />
    <glyph glyph-name="Odieresis" unicode="&#xd6;" horiz-adv-x="806" 
d="M77 350q22 153 144.5 254t283.5 101t253.5 -101.5t70.5 -253.5t-144.5 -254.5t-282.5 -102.5t-253.5 102.5t-71.5 254.5zM239 350q-13 -91 41.5 -155t143.5 -64q88 0 159 63.5t84 155.5t-39.5 154.5t-140.5 62.5q-89 0 -162 -63t-86 -154zM353 857q4 33 27.5 54t55.5 21
t49 -21t13 -54q-4 -32 -27.5 -53t-55.5 -21t-49 21t-13 53zM541 857q4 33 27.5 54t55.5 21t49 -21t13 -54q-4 -32 -27.5 -53t-55.5 -21t-49 21t-13 53z" />
    <glyph glyph-name="multiply" unicode="&#xd7;" horiz-adv-x="506" 
d="M93 206l136 120l-102 120l81 72l102 -121l138 121l59 -72l-136 -120l102 -120l-81 -72l-102 121l-138 -121z" />
    <glyph glyph-name="Oslash" unicode="&#xd8;" horiz-adv-x="806" 
d="M77 350q22 153 144.5 254t283.5 101q31 0 68 -5l54 109h90l-65 -132q97 -40 145 -127.5t32 -199.5q-22 -152 -144.5 -254.5t-282.5 -102.5q-42 0 -82 8l-58 -117h-89l70 142q-91 43 -136.5 129t-29.5 195zM239 350q-8 -57 12 -105.5t61 -78.5l196 400q-7 1 -21 1
q-89 0 -162 -63t-86 -154zM385 135q17 -4 39 -4q88 0 159 63.5t84 155.5q9 62 -13.5 113t-68.5 78z" />
    <glyph glyph-name="Ugrave" unicode="&#xd9;" horiz-adv-x="760" 
d="M106 293l59 407h158l-59 -407q-11 -75 27 -118.5t110 -43.5q71 0 119.5 43.5t59.5 118.5l59 407h158l-59 -407q-20 -139 -116 -219.5t-241 -80.5q-146 0 -220.5 81t-54.5 219zM336 875l151 53l83 -163h-123z" />
    <glyph glyph-name="Uacute" unicode="&#xda;" horiz-adv-x="760" 
d="M106 293l59 407h158l-59 -407q-11 -75 27 -118.5t110 -43.5q71 0 119.5 43.5t59.5 118.5l59 407h158l-59 -407q-20 -139 -116 -219.5t-241 -80.5q-146 0 -220.5 81t-54.5 219zM410 765l130 163l135 -54l-143 -109h-122z" />
    <glyph glyph-name="Ucircumflex" unicode="&#xdb;" horiz-adv-x="760" 
d="M106 293l59 407h158l-59 -407q-11 -75 27 -118.5t110 -43.5q71 0 119.5 43.5t59.5 118.5l59 407h158l-59 -407q-20 -139 -116 -219.5t-241 -80.5q-146 0 -220.5 81t-54.5 219zM318 773l131 148h128l87 -148h-113l-47 85l-73 -85h-113z" />
    <glyph glyph-name="Udieresis" unicode="&#xdc;" horiz-adv-x="760" 
d="M106 293l59 407h158l-59 -407q-11 -75 27 -118.5t110 -43.5q71 0 119.5 43.5t59.5 118.5l59 407h158l-59 -407q-20 -139 -116 -219.5t-241 -80.5q-146 0 -220.5 81t-54.5 219zM337 857q4 33 27.5 54t55.5 21t49 -21t13 -54q-4 -32 -27.5 -53t-55.5 -21t-49 21t-13 53z
M525 857q4 33 27.5 54t55.5 21t49 -21t13 -54q-4 -32 -27.5 -53t-55.5 -21t-49 21t-13 53z" />
    <glyph glyph-name="Yacute" unicode="&#xdd;" horiz-adv-x="666" 
d="M98 700h159l134 -314l220 314h159l-323 -474l-33 -226h-158l32 222zM363 765l130 163l135 -54l-143 -109h-122z" />
    <glyph glyph-name="Thorn" unicode="&#xde;" horiz-adv-x="686" 
d="M77 0l101 700h158l-14 -94h131q140 0 209 -63.5t53 -175.5q-17 -119 -105 -185.5t-227 -66.5h-131l-17 -115h-158zM270 241h124q69 0 109.5 31t48.5 90q8 57 -23.5 87.5t-100.5 30.5h-124z" />
    <glyph glyph-name="germandbls" unicode="&#xdf;" horiz-adv-x="660" 
d="M65 0l71 491q17 118 98.5 188t203.5 70q112 0 173 -54t48 -144q-7 -54 -42 -99.5t-85 -68.5q64 -17 97 -61.5t24 -108.5q-14 -95 -97 -154t-207 -59h-50l16 114h47q59 0 96.5 27t44.5 72q7 47 -27 72t-101 25h-17l16 113q56 0 90.5 27.5t42.5 77.5q7 48 -16 74.5
t-70 26.5q-53 0 -87.5 -33.5t-43.5 -93.5l-72 -502h-153z" />
    <glyph glyph-name="agrave" unicode="&#xe0;" horiz-adv-x="596" 
d="M55 161q11 76 71 118.5t158 43.5h148l1 10q6 43 -19 66.5t-80 23.5q-76 0 -167 -47l-33 106q133 62 252 62q108 0 160.5 -51t40.5 -142l-50 -351h-151l9 63q-65 -70 -179 -70q-85 0 -128.5 46.5t-32.5 121.5zM201 171q-5 -31 15 -49.5t59 -18.5q48 0 86.5 23t50.5 58
l6 48h-121q-87 0 -96 -61zM229 712l150 53l84 -163h-123z" />
    <glyph glyph-name="aacute" unicode="&#xe1;" horiz-adv-x="596" 
d="M55 161q11 76 71 118.5t158 43.5h148l1 10q6 43 -19 66.5t-80 23.5q-76 0 -167 -47l-33 106q133 62 252 62q108 0 160.5 -51t40.5 -142l-50 -351h-151l9 63q-65 -70 -179 -70q-85 0 -128.5 46.5t-32.5 121.5zM201 171q-5 -31 15 -49.5t59 -18.5q48 0 86.5 23t50.5 58
l6 48h-121q-87 0 -96 -61zM303 602l129 163l135 -54l-142 -109h-122z" />
    <glyph glyph-name="acircumflex" unicode="&#xe2;" horiz-adv-x="596" 
d="M55 161q11 76 71 118.5t158 43.5h148l1 10q6 43 -19 66.5t-80 23.5q-76 0 -167 -47l-33 106q133 62 252 62q108 0 160.5 -51t40.5 -142l-50 -351h-151l9 63q-65 -70 -179 -70q-85 0 -128.5 46.5t-32.5 121.5zM201 171q-5 -31 15 -49.5t59 -18.5q48 0 86.5 23t50.5 58
l6 48h-121q-87 0 -96 -61zM211 610l130 148h128l88 -148h-113l-48 85l-72 -85h-113z" />
    <glyph glyph-name="atilde" unicode="&#xe3;" horiz-adv-x="596" 
d="M55 161q11 76 71 118.5t158 43.5h148l1 10q6 43 -19 66.5t-80 23.5q-76 0 -167 -47l-33 106q133 62 252 62q108 0 160.5 -51t40.5 -142l-50 -351h-151l9 63q-65 -70 -179 -70q-85 0 -128.5 46.5t-32.5 121.5zM201 171q-5 -31 15 -49.5t59 -18.5q48 0 86.5 23t50.5 58
l6 48h-121q-87 0 -96 -61zM214 622q22 151 121 151q32 0 65 -25t45 -25q34 0 40 44h95q-21 -149 -122 -149q-34 0 -66 24.5t-44 24.5q-33 0 -39 -45h-95z" />
    <glyph glyph-name="adieresis" unicode="&#xe4;" horiz-adv-x="596" 
d="M55 161q11 76 71 118.5t158 43.5h148l1 10q6 43 -19 66.5t-80 23.5q-76 0 -167 -47l-33 106q133 62 252 62q108 0 160.5 -51t40.5 -142l-50 -351h-151l9 63q-65 -70 -179 -70q-85 0 -128.5 46.5t-32.5 121.5zM201 171q-5 -31 15 -49.5t59 -18.5q48 0 86.5 23t50.5 58
l6 48h-121q-87 0 -96 -61zM230 694q4 33 27.5 54t55.5 21t49 -21t13 -54q-4 -32 -28 -53t-56 -21q-31 0 -48.5 21t-12.5 53zM418 694q4 33 27.5 54t55.5 21t49 -21t13 -54q-4 -32 -28 -53t-56 -21q-31 0 -48.5 21t-12.5 53z" />
    <glyph glyph-name="aring" unicode="&#xe5;" horiz-adv-x="596" 
d="M55 161q11 76 71 118.5t158 43.5h148l1 10q6 43 -19 66.5t-80 23.5q-76 0 -167 -47l-33 106q133 62 252 62q108 0 160.5 -51t40.5 -142l-50 -351h-151l9 63q-65 -70 -179 -70q-85 0 -128.5 46.5t-32.5 121.5zM201 171q-5 -31 15 -49.5t59 -18.5q48 0 86.5 23t50.5 58
l6 48h-121q-87 0 -96 -61zM276 692q7 49 47.5 84t89.5 35t79.5 -35t23.5 -84q-8 -50 -48 -84.5t-89 -34.5q-50 0 -80 35t-23 84zM339 692q-3 -23 11 -39t38 -16t43.5 16t22.5 39t-11.5 38.5t-38.5 15.5t-43 -16t-22 -38z" />
    <glyph glyph-name="ae" unicode="&#xe6;" horiz-adv-x="968" 
d="M55 158q10 75 69.5 115t158.5 41h149l3 19q6 43 -19.5 66.5t-80.5 23.5q-83 0 -180 -47l-20 108q136 60 251 60q124 0 175 -65q78 64 184 64q132 0 194 -84.5t36 -224.5h-398q2 -57 35 -88.5t88 -31.5q82 0 146 58l69 -84q-100 -94 -244 -94q-78 0 -130.5 31t-76.5 87
q-82 -119 -240 -119q-89 0 -134.5 45.5t-34.5 119.5zM201 171q-5 -34 15 -54t59 -20q90 0 141 80l-2 1l8 59h-119q-93 0 -102 -66zM432 173l17 -12l-2 9zM587 312h246q7 54 -21 88.5t-80 34.5q-50 0 -89 -34t-56 -89z" />
    <glyph glyph-name="ccedilla" unicode="&#xe7;" horiz-adv-x="563" 
d="M66 267q18 124 105 200t211 76q157 0 217 -113l-115 -75q-39 58 -115 57q-56 0 -97.5 -40t-50.5 -104q-10 -65 20 -105.5t87 -40.5q84 0 134 63l95 -72q-73 -99 -206 -116l-31 -47q30 -8 45 -29.5t11 -51.5q-7 -46 -43.5 -73.5t-88.5 -27.5q-51 0 -89 30l39 67
q20 -20 49 -20q19 0 32.5 11t15.5 27t-8.5 26t-32.5 10q-12 0 -36 -4l49 81q-106 12 -159.5 85.5t-37.5 185.5z" />
    <glyph glyph-name="egrave" unicode="&#xe8;" horiz-adv-x="597" 
d="M66 267q18 124 106 200t211 76q139 0 194 -85.5t24 -235.5h-386q6 -51 38.5 -79.5t84.5 -28.5q80 0 145 57l69 -82q-100 -95 -244 -95q-128 0 -193.5 75t-48.5 198zM225 313h245q6 53 -21.5 85t-80.5 32q-50 0 -88 -31.5t-55 -85.5zM233 712l150 53l84 -163h-123z" />
    <glyph glyph-name="eacute" unicode="&#xe9;" horiz-adv-x="597" 
d="M66 267q18 124 106 200t211 76q139 0 194 -85.5t24 -235.5h-386q6 -51 38.5 -79.5t84.5 -28.5q80 0 145 57l69 -82q-100 -95 -244 -95q-128 0 -193.5 75t-48.5 198zM225 313h245q6 53 -21.5 85t-80.5 32q-50 0 -88 -31.5t-55 -85.5zM307 602l129 163l135 -54l-142 -109
h-122z" />
    <glyph glyph-name="ecircumflex" unicode="&#xea;" horiz-adv-x="597" 
d="M66 267q18 124 106 200t211 76q139 0 194 -85.5t24 -235.5h-386q6 -51 38.5 -79.5t84.5 -28.5q80 0 145 57l69 -82q-100 -95 -244 -95q-128 0 -193.5 75t-48.5 198zM215 610l130 148h128l88 -148h-113l-48 85l-72 -85h-113zM225 313h245q6 53 -21.5 85t-80.5 32
q-50 0 -88 -31.5t-55 -85.5z" />
    <glyph glyph-name="edieresis" unicode="&#xeb;" horiz-adv-x="597" 
d="M66 267q18 124 106 200t211 76q139 0 194 -85.5t24 -235.5h-386q6 -51 38.5 -79.5t84.5 -28.5q80 0 145 57l69 -82q-100 -95 -244 -95q-128 0 -193.5 75t-48.5 198zM225 313h245q6 53 -21.5 85t-80.5 32q-50 0 -88 -31.5t-55 -85.5zM234 694q4 33 27.5 54t55.5 21t49 -21
t13 -54q-4 -32 -28 -53t-56 -21q-31 0 -48.5 21t-12.5 53zM422 694q4 33 27.5 54t55.5 21t49 -21t13 -54q-4 -32 -28 -53t-56 -21q-31 0 -48.5 21t-12.5 53z" />
    <glyph glyph-name="igrave" unicode="&#xec;" horiz-adv-x="302" 
d="M74 0l78 538h154l-78 -538h-154zM84 712l150 53l84 -163h-123z" />
    <glyph glyph-name="iacute" unicode="&#xed;" horiz-adv-x="302" 
d="M74 0l78 538h154l-78 -538h-154zM158 602l129 163l135 -54l-142 -109h-122z" />
    <glyph glyph-name="icircumflex" unicode="&#xee;" horiz-adv-x="302" 
d="M66 610l130 148h128l88 -148h-113l-48 85l-72 -85h-113zM74 0l78 538h154l-78 -538h-154z" />
    <glyph glyph-name="idieresis" unicode="&#xef;" horiz-adv-x="302" 
d="M74 0l78 538h154l-78 -538h-154zM85 694q4 33 27.5 54t55.5 21t49 -21t13 -54q-4 -32 -28 -53t-56 -21q-31 0 -48.5 21t-12.5 53zM273 694q4 33 27.5 54t55.5 21t49 -21t13 -54q-4 -32 -28 -53t-56 -21q-31 0 -48.5 21t-12.5 53z" />
    <glyph glyph-name="eth" unicode="&#xf0;" horiz-adv-x="600" 
d="M59 225q14 100 85 160t174 60q52 0 95 -18t62 -48q-16 84 -93 171l-167 -54l-13 74l119 39q-52 41 -114 73l113 67q84 -37 147 -93l145 47l12 -75l-100 -33q114 -142 88 -316q-19 -131 -108.5 -208.5t-221.5 -77.5q-117 0 -177.5 63t-45.5 169zM208 234q-7 -49 20 -79
t80 -30q54 0 90 29t43 76q7 49 -20.5 78.5t-81.5 29.5q-53 0 -88.5 -28.5t-42.5 -75.5z" />
    <glyph glyph-name="ntilde" unicode="&#xf1;" horiz-adv-x="670" 
d="M74 0l78 538h154l-14 -94q71 98 200 100q90 0 135.5 -56t32.5 -150l-49 -338h-154l42 293q8 51 -16.5 80.5t-73.5 29.5q-57 -1 -96 -39.5t-47 -98.5l-38 -265h-154zM269 622q22 151 121 151q32 0 65 -25t45 -25q34 0 40 44h95q-21 -149 -122 -149q-34 0 -66 24.5
t-44 24.5q-33 0 -39 -45h-95z" />
    <glyph glyph-name="ograve" unicode="&#xf2;" horiz-adv-x="633" 
d="M67 269q18 124 108 199t220 75q129 0 198 -75.5t51 -198.5t-108.5 -199t-219.5 -76q-130 0 -198.5 76t-50.5 199zM221 267q-10 -66 21.5 -107t91.5 -41q59 0 102 41t53 107t-21.5 107t-90.5 41q-60 0 -103 -41t-53 -107zM249 712l150 53l84 -163h-123z" />
    <glyph glyph-name="oacute" unicode="&#xf3;" horiz-adv-x="633" 
d="M67 269q18 124 108 199t220 75q129 0 198 -75.5t51 -198.5t-108.5 -199t-219.5 -76q-130 0 -198.5 76t-50.5 199zM221 267q-10 -66 21.5 -107t91.5 -41q59 0 102 41t53 107t-21.5 107t-90.5 41q-60 0 -103 -41t-53 -107zM323 602l129 163l135 -54l-142 -109h-122z" />
    <glyph glyph-name="ocircumflex" unicode="&#xf4;" horiz-adv-x="633" 
d="M67 269q18 124 108 199t220 75q129 0 198 -75.5t51 -198.5t-108.5 -199t-219.5 -76q-130 0 -198.5 76t-50.5 199zM221 267q-10 -66 21.5 -107t91.5 -41q59 0 102 41t53 107t-21.5 107t-90.5 41q-60 0 -103 -41t-53 -107zM232 610l130 148h128l88 -148h-113l-48 85
l-72 -85h-113z" />
    <glyph glyph-name="otilde" unicode="&#xf5;" horiz-adv-x="633" 
d="M67 269q18 124 108 199t220 75q129 0 198 -75.5t51 -198.5t-108.5 -199t-219.5 -76q-130 0 -198.5 76t-50.5 199zM221 267q-10 -66 21.5 -107t91.5 -41q59 0 102 41t53 107t-21.5 107t-90.5 41q-60 0 -103 -41t-53 -107zM235 622q22 151 121 151q32 0 65 -25t45 -25
q34 0 40 44h95q-21 -149 -122 -149q-34 0 -66 24.5t-44 24.5q-33 0 -39 -45h-95z" />
    <glyph glyph-name="odieresis" unicode="&#xf6;" horiz-adv-x="633" 
d="M67 269q18 124 108 199t220 75q129 0 198 -75.5t51 -198.5t-108.5 -199t-219.5 -76q-130 0 -198.5 76t-50.5 199zM221 267q-10 -66 21.5 -107t91.5 -41q59 0 102 41t53 107t-21.5 107t-90.5 41q-60 0 -103 -41t-53 -107zM251 694q4 33 27.5 54t55.5 21t49 -21t13 -54
q-4 -32 -28 -53t-56 -21q-31 0 -48.5 21t-12.5 53zM439 694q4 33 27.5 54t55.5 21t49 -21t13 -54q-4 -32 -28 -53t-56 -21q-31 0 -48.5 21t-12.5 53z" />
    <glyph glyph-name="divide" unicode="&#xf7;" horiz-adv-x="506" 
d="M73 275l14 102h440l-14 -102h-440zM195 153q4 33 28 54t56 21q31 0 48.5 -21t12.5 -54q-5 -32 -28.5 -53.5t-54.5 -21.5t-49 21.5t-13 53.5zM246 510q4 33 28 54t56 21q31 0 48.5 -21t12.5 -54q-5 -32 -28 -53.5t-54 -21.5q-32 0 -49.5 21.5t-13.5 53.5z" />
    <glyph glyph-name="oslash" unicode="&#xf8;" horiz-adv-x="633" 
d="M67 269q18 124 108 199t220 75q32 0 56 -4l60 130h64l-67 -145q77 -29 113 -95.5t23 -159.5q-18 -123 -108.5 -199t-219.5 -76q-31 0 -54 4l-67 -141h-65l74 156q-78 29 -114 96t-23 160zM211 267q-14 -95 46 -139l141 299q-6 1 -19 1q-64 0 -111 -44.5t-57 -116.5z
M312 107q6 -1 20 -1q64 0 109.5 44.5t56.5 116.5q14 98 -45 139z" />
    <glyph glyph-name="ugrave" unicode="&#xf9;" horiz-adv-x="660" 
d="M87 200l49 338h154l-43 -294q-7 -51 15.5 -80t69.5 -29q55 1 93 39t46 98l39 266h153l-78 -538h-153l14 95q-70 -101 -195 -101q-89 0 -133 55.5t-31 150.5zM258 712l150 53l84 -163h-123z" />
    <glyph glyph-name="uacute" unicode="&#xfa;" horiz-adv-x="660" 
d="M87 200l49 338h154l-43 -294q-7 -51 15.5 -80t69.5 -29q55 1 93 39t46 98l39 266h153l-78 -538h-153l14 95q-70 -101 -195 -101q-89 0 -133 55.5t-31 150.5zM332 602l129 163l135 -54l-142 -109h-122z" />
    <glyph glyph-name="ucircumflex" unicode="&#xfb;" horiz-adv-x="660" 
d="M87 200l49 338h154l-43 -294q-7 -51 15.5 -80t69.5 -29q55 1 93 39t46 98l39 266h153l-78 -538h-153l14 95q-70 -101 -195 -101q-89 0 -133 55.5t-31 150.5zM240 610l130 148h128l88 -148h-113l-48 85l-72 -85h-113z" />
    <glyph glyph-name="udieresis" unicode="&#xfc;" horiz-adv-x="660" 
d="M87 200l49 338h154l-43 -294q-7 -51 15.5 -80t69.5 -29q55 1 93 39t46 98l39 266h153l-78 -538h-153l14 95q-70 -101 -195 -101q-89 0 -133 55.5t-31 150.5zM259 694q4 33 27.5 54t55.5 21t49 -21t13 -54q-4 -32 -28 -53t-56 -21q-31 0 -48.5 21t-12.5 53zM447 694
q4 33 27.5 54t55.5 21t49 -21t13 -54q-4 -32 -28 -53t-56 -21q-31 0 -48.5 21t-12.5 53z" />
    <glyph glyph-name="yacute" unicode="&#xfd;" horiz-adv-x="564" 
d="M-29 -149l81 111q30 -29 65 -29q48 0 78 48l20 30l-147 527h159l87 -370l181 370h154l-323 -598q-77 -141 -217 -141q-82 0 -138 52zM290 602l129 163l135 -54l-142 -109h-122z" />
    <glyph glyph-name="thorn" unicode="&#xfe;" horiz-adv-x="684" 
d="M51 -194l135 936h154l-41 -283q72 84 182 84q113 0 172 -76.5t41 -200.5q-17 -122 -96.5 -197t-192.5 -75t-161 84l-39 -272h-154zM272 271q-10 -66 21.5 -107.5t91.5 -41.5q59 0 101.5 41.5t52.5 107.5q9 65 -22 106.5t-90 41.5t-102 -41.5t-53 -106.5z" />
    <glyph glyph-name="ydieresis" unicode="&#xff;" horiz-adv-x="564" 
d="M-29 -149l81 111q30 -29 65 -29q48 0 78 48l20 30l-147 527h159l87 -370l181 370h154l-323 -598q-77 -141 -217 -141q-82 0 -138 52zM217 694q4 33 27.5 54t55.5 21t49 -21t13 -54q-4 -32 -28 -53t-56 -21q-31 0 -48.5 21t-12.5 53zM405 694q4 33 27.5 54t55.5 21t49 -21
t13 -54q-4 -32 -28 -53t-56 -21q-31 0 -48.5 21t-12.5 53z" />
    <glyph glyph-name="Amacron" unicode="&#x100;" horiz-adv-x="759" 
d="M-3 0l405 700h163l198 -700h-169l-35 136h-324l-75 -136h-163zM305 263h221l-71 272zM360 797l15 108h271l-15 -108h-271z" />
    <glyph glyph-name="amacron" unicode="&#x101;" horiz-adv-x="596" 
d="M55 161q11 76 71 118.5t158 43.5h148l1 10q6 43 -19 66.5t-80 23.5q-76 0 -167 -47l-33 106q133 62 252 62q108 0 160.5 -51t40.5 -142l-50 -351h-151l9 63q-65 -70 -179 -70q-85 0 -128.5 46.5t-32.5 121.5zM201 171q-5 -31 15 -49.5t59 -18.5q48 0 86.5 23t50.5 58
l6 48h-121q-87 0 -96 -61zM252 634l16 108h271l-16 -108h-271z" />
    <glyph glyph-name="Abreve" unicode="&#x102;" horiz-adv-x="759" 
d="M-3 0l405 700h163l198 -700h-169l-35 136h-324l-75 -136h-163zM305 263h221l-71 272zM356 919h98q-2 -27 12 -43.5t38 -16.5t42.5 16.5t23.5 43.5h98q-13 -70 -61.5 -112t-116.5 -42q-67 0 -104 42t-30 112z" />
    <glyph glyph-name="abreve" unicode="&#x103;" horiz-adv-x="596" 
d="M55 161q11 76 71 118.5t158 43.5h148l1 10q6 43 -19 66.5t-80 23.5q-76 0 -167 -47l-33 106q133 62 252 62q108 0 160.5 -51t40.5 -142l-50 -351h-151l9 63q-65 -70 -179 -70q-85 0 -128.5 46.5t-32.5 121.5zM201 171q-5 -31 15 -49.5t59 -18.5q48 0 86.5 23t50.5 58
l6 48h-121q-87 0 -96 -61zM249 756h98q-2 -27 11.5 -43.5t37.5 -16.5t43 16.5t24 43.5h98q-13 -70 -61.5 -112t-116.5 -42q-67 0 -104 42t-30 112z" />
    <glyph glyph-name="Aogonek" unicode="&#x104;" horiz-adv-x="759" 
d="M-3 0l406 700h162l198 -700h-45q-54 -63 -59 -96q-3 -25 21 -25q21 0 49 31l33 -48q-46 -64 -112 -64q-35 0 -57 20t-16 61q8 51 65 121h-48l-36 136h-321l-76 -136h-164zM304 263h225l-73 273z" />
    <glyph glyph-name="aogonek" unicode="&#x105;" horiz-adv-x="600" 
d="M55 161q11 76 71 118.5t158 43.5h150l1 11q5 43 -20.5 66t-80.5 23q-76 0 -167 -47l-33 106q135 62 253 62q108 0 161 -51t41 -142l-51 -351h-38q-55 -63 -60 -96q-3 -25 22 -25q22 0 48 31l34 -48q-47 -64 -113 -64q-35 0 -57 20t-16 61q8 54 67 121h-38l9 63
q-65 -70 -179 -70q-86 0 -129.5 46.5t-32.5 121.5zM201 171q-5 -31 15.5 -49.5t59.5 -18.5q47 0 86.5 23t50.5 56l7 50h-122q-46 0 -69.5 -14.5t-27.5 -46.5z" />
    <glyph glyph-name="Cacute" unicode="&#x106;" horiz-adv-x="694" 
d="M78 351q22 151 143.5 252.5t280.5 101.5q75 0 145 -31.5t114 -84.5l-108 -112q-30 42 -75.5 66.5t-93.5 24.5q-90 0 -160.5 -62t-83.5 -153t39.5 -153.5t142.5 -62.5q47 0 99 22t95 60l78 -101q-64 -58 -144.5 -91.5t-156.5 -33.5q-157 0 -247 103t-68 255zM409 765
l130 163l135 -54l-143 -109h-122z" />
    <glyph glyph-name="cacute" unicode="&#x107;" horiz-adv-x="563" 
d="M66 267q18 124 105 200t211 76q157 0 217 -113l-115 -75q-39 58 -115 57q-56 0 -97.5 -40t-50.5 -104q-10 -65 20 -105.5t87 -40.5q84 0 134 63l95 -72q-89 -119 -256 -119q-122 0 -187 75.5t-48 197.5zM298 602l129 163l135 -54l-142 -109h-122z" />
    <glyph glyph-name="Ccircumflex" unicode="&#x108;" horiz-adv-x="694" 
d="M78 351q22 151 143.5 252.5t280.5 101.5q75 0 145 -31.5t114 -84.5l-108 -112q-30 42 -75.5 66.5t-93.5 24.5q-90 0 -160.5 -62t-83.5 -153t39.5 -153.5t142.5 -62.5q47 0 99 22t95 60l78 -101q-64 -58 -144.5 -91.5t-156.5 -33.5q-157 0 -247 103t-68 255zM318 773
l131 148h128l87 -148h-113l-47 85l-73 -85h-113z" />
    <glyph glyph-name="ccircumflex" unicode="&#x109;" horiz-adv-x="563" 
d="M66 267q18 124 105 200t211 76q157 0 217 -113l-115 -75q-39 58 -115 57q-56 0 -97.5 -40t-50.5 -104q-10 -65 20 -105.5t87 -40.5q84 0 134 63l95 -72q-89 -119 -256 -119q-122 0 -187 75.5t-48 197.5zM206 610l130 148h128l88 -148h-113l-48 85l-72 -85h-113z" />
    <glyph glyph-name="Cdotaccent" unicode="&#x10a;" horiz-adv-x="694" 
d="M78 351q22 151 143.5 252.5t280.5 101.5q75 0 145 -31.5t114 -84.5l-108 -112q-30 42 -75.5 66.5t-93.5 24.5q-90 0 -160.5 -62t-83.5 -153t39.5 -153.5t142.5 -62.5q47 0 99 22t95 60l78 -101q-64 -58 -144.5 -91.5t-156.5 -33.5q-157 0 -247 103t-68 255zM420 854
q5 38 31.5 62t63.5 24t56.5 -24t14.5 -62t-31.5 -62t-63.5 -24t-56.5 24t-14.5 62z" />
    <glyph glyph-name="cdotaccent" unicode="&#x10b;" horiz-adv-x="563" 
d="M66 267q18 124 105 200t211 76q157 0 217 -113l-115 -75q-39 58 -115 57q-56 0 -97.5 -40t-50.5 -104q-10 -65 20 -105.5t87 -40.5q84 0 134 63l95 -72q-89 -119 -256 -119q-122 0 -187 75.5t-48 197.5zM308 691q5 38 31.5 62t63.5 24t56.5 -24t14.5 -62t-32 -62t-64 -24
t-56 24t-14 62z" />
    <glyph glyph-name="Ccaron" unicode="&#x10c;" horiz-adv-x="694" 
d="M78 351q22 151 143.5 252.5t280.5 101.5q75 0 145 -31.5t114 -84.5l-108 -112q-30 42 -75.5 66.5t-93.5 24.5q-90 0 -160.5 -62t-83.5 -153t39.5 -153.5t142.5 -62.5q47 0 99 22t95 60l78 -101q-64 -58 -144.5 -91.5t-156.5 -33.5q-157 0 -247 103t-68 255zM323 921h124
l48 -92l76 92h124l-140 -160h-138z" />
    <glyph glyph-name="ccaron" unicode="&#x10d;" horiz-adv-x="563" 
d="M66 267q18 124 105 200t211 76q157 0 217 -113l-115 -75q-39 58 -115 57q-56 0 -97.5 -40t-50.5 -104q-10 -65 20 -105.5t87 -40.5q84 0 134 63l95 -72q-89 -119 -256 -119q-122 0 -187 75.5t-48 197.5zM210 758h124l49 -92l75 92h124l-140 -160h-138z" />
    <glyph glyph-name="Dcaron" unicode="&#x10e;" horiz-adv-x="769" 
d="M77 0l101 700h297q163 0 251 -97.5t66 -252.5q-23 -155 -141 -252.5t-283 -97.5h-291zM254 133h143q88 0 154.5 60.5t79.5 155.5q14 96 -36.5 157t-141.5 61h-136zM303 921h124l48 -92l76 92h124l-140 -160h-138z" />
    <glyph glyph-name="dcaron" unicode="&#x10f;" horiz-adv-x="763" 
d="M67 271q18 123 97.5 198t191.5 75q114 0 162 -85l41 283h153l-107 -742h-153l11 79q-71 -85 -182 -85q-115 0 -173.5 76t-40.5 201zM220 267q-9 -66 22.5 -107.5t92.5 -41.5q59 0 102 41.5t53 107.5t-21.5 107.5t-90.5 41.5q-60 0 -103.5 -41.5t-54.5 -107.5zM711 446
l57 101q-28 22 -22 62q5 34 30 56t58 22q31 0 50 -21t14 -57q-4 -33 -30 -62l-82 -101h-75z" />
    <glyph glyph-name="Dcroat" unicode="&#x110;" horiz-adv-x="769" 
d="M77 0l101 700h297q163 0 251 -97.5t66 -252.5q-23 -155 -141 -252.5t-283 -97.5h-291zM254 133h143q88 0 154.5 60.5t79.5 155.5q14 96 -36.5 157t-141.5 61h-136zM340 797l15 108h271l-15 -108h-271z" />
    <glyph glyph-name="dcroat" unicode="&#x111;" horiz-adv-x="688" 
d="M67 271q18 123 97.5 198t191.5 75q114 0 162 -85l20 141h-90l13 84h90l8 58h153l-8 -58h67l-13 -84h-67l-86 -600h-153l11 79q-71 -85 -182 -85q-115 0 -173.5 76t-40.5 201zM220 267q-9 -66 22.5 -107.5t92.5 -41.5q59 0 102 41.5t53 107.5t-21.5 107.5t-90.5 41.5
q-60 0 -103.5 -41.5t-54.5 -107.5z" />
    <glyph glyph-name="Emacron" unicode="&#x112;" horiz-adv-x="668" 
d="M77 0l101 700h533l-19 -131h-375l-22 -152h338l-19 -131h-338l-22 -155h386l-19 -131h-544zM325 797l15 108h271l-15 -108h-271z" />
    <glyph glyph-name="emacron" unicode="&#x113;" horiz-adv-x="597" 
d="M66 267q18 124 106 200t211 76q139 0 194 -85.5t24 -235.5h-386q6 -51 38.5 -79.5t84.5 -28.5q80 0 145 57l69 -82q-100 -95 -244 -95q-128 0 -193.5 75t-48.5 198zM225 313h245q6 53 -21.5 85t-80.5 32q-50 0 -88 -31.5t-55 -85.5zM256 634l16 108h271l-16 -108h-271z
" />
    <glyph glyph-name="Ebreve" unicode="&#x114;" horiz-adv-x="668" 
d="M77 0l101 700h533l-19 -131h-375l-22 -152h338l-19 -131h-338l-22 -155h386l-19 -131h-544zM322 919h98q-2 -27 12 -43.5t38 -16.5t42.5 16.5t23.5 43.5h98q-13 -70 -61.5 -112t-116.5 -42q-67 0 -104 42t-30 112z" />
    <glyph glyph-name="ebreve" unicode="&#x115;" horiz-adv-x="597" 
d="M66 267q18 124 106 200t211 76q139 0 194 -85.5t24 -235.5h-386q6 -51 38.5 -79.5t84.5 -28.5q80 0 145 57l69 -82q-100 -95 -244 -95q-128 0 -193.5 75t-48.5 198zM225 313h245q6 53 -21.5 85t-80.5 32q-50 0 -88 -31.5t-55 -85.5zM253 756h98q-2 -27 11.5 -43.5
t37.5 -16.5t43 16.5t24 43.5h98q-13 -70 -61.5 -112t-116.5 -42q-67 0 -104 42t-30 112z" />
    <glyph glyph-name="Edotaccent" unicode="&#x116;" horiz-adv-x="668" 
d="M77 0l101 700h533l-19 -131h-375l-22 -152h338l-19 -131h-338l-22 -155h386l-19 -131h-544zM386 854q5 38 31.5 62t63.5 24t56.5 -24t14.5 -62t-31.5 -62t-63.5 -24t-56.5 24t-14.5 62z" />
    <glyph glyph-name="edotaccent" unicode="&#x117;" horiz-adv-x="597" 
d="M66 267q18 124 106 200t211 76q139 0 194 -85.5t24 -235.5h-386q6 -51 38.5 -79.5t84.5 -28.5q80 0 145 57l69 -82q-100 -95 -244 -95q-128 0 -193.5 75t-48.5 198zM225 313h245q6 53 -21.5 85t-80.5 32q-50 0 -88 -31.5t-55 -85.5zM317 691q5 38 31.5 62t63.5 24
t56.5 -24t14.5 -62t-32 -62t-64 -24t-56 24t-14 62z" />
    <glyph glyph-name="Eogonek" unicode="&#x118;" horiz-adv-x="674" 
d="M77 0l101 700h539l-18 -126h-381l-23 -157h343l-18 -126h-343l-24 -165h392l-18 -126h-70q-56 -66 -60 -96q-3 -25 22 -25q23 0 49 31l34 -48q-47 -64 -113 -64q-35 0 -57 20t-16 61q7 50 66 121h-405z" />
    <glyph glyph-name="eogonek" unicode="&#x119;" horiz-adv-x="597" 
d="M67 269q18 121 102.5 196.5t213.5 77.5q135 2 192.5 -84t26.5 -237h-387q5 -50 37 -79t86 -29q81 0 145 58l69 -84q-127 -125 -135 -182q-4 -27 22 -27q20 0 48 31l33 -48q-48 -64 -111 -64q-35 0 -57 20t-16 62q9 62 77 140q-52 -26 -108 -26q-126 0 -191 75.5
t-47 199.5zM225 313h245q6 52 -22 84.5t-79 32.5t-90.5 -32.5t-53.5 -84.5z" />
    <glyph glyph-name="Ecaron" unicode="&#x11a;" horiz-adv-x="668" 
d="M77 0l101 700h533l-19 -131h-375l-22 -152h338l-19 -131h-338l-22 -155h386l-19 -131h-544zM289 921h124l48 -92l76 92h124l-140 -160h-138z" />
    <glyph glyph-name="ecaron" unicode="&#x11b;" horiz-adv-x="597" 
d="M66 267q18 124 106 200t211 76q139 0 194 -85.5t24 -235.5h-386q6 -51 38.5 -79.5t84.5 -28.5q80 0 145 57l69 -82q-100 -95 -244 -95q-128 0 -193.5 75t-48.5 198zM219 758h124l49 -92l75 92h124l-140 -160h-138zM225 313h245q6 53 -21.5 85t-80.5 32q-50 0 -88 -31.5
t-55 -85.5z" />
    <glyph glyph-name="Gcircumflex" unicode="&#x11c;" horiz-adv-x="745" 
d="M77 350q22 152 146.5 253.5t287.5 101.5q77 0 148 -27.5t118 -74.5l-105 -113q-34 36 -82 57t-99 21q-93 0 -166 -63t-86 -155q-13 -93 42 -156t148 -63q63 0 142 38l27 184h137l-39 -269q-62 -41 -143.5 -66t-153.5 -25q-159 0 -251.5 102.5t-70.5 254.5zM328 773
l131 148h128l87 -148h-113l-47 85l-73 -85h-113z" />
    <glyph glyph-name="gcircumflex" unicode="&#x11d;" horiz-adv-x="645" 
d="M38 -129l73 108q68 -54 159 -54q66 0 109.5 32.5t51.5 87.5l9 61q-67 -78 -173 -78q-104 0 -158.5 71.5t-38.5 188.5q16 114 90 184.5t177 70.5q107 1 155 -78l11 73h153l-71 -488q-16 -114 -104.5 -182t-218.5 -68q-129 0 -224 71zM213 284q-8 -62 21 -100.5t86 -38.5
q56 0 96.5 38.5t49.5 100.5t-20.5 101t-85.5 39t-96.5 -39t-50.5 -101zM237 610l130 148h128l88 -148h-113l-48 85l-72 -85h-113z" />
    <glyph glyph-name="Gbreve" unicode="&#x11e;" horiz-adv-x="745" 
d="M77 350q22 152 146.5 253.5t287.5 101.5q77 0 148 -27.5t118 -74.5l-105 -113q-34 36 -82 57t-99 21q-93 0 -166 -63t-86 -155q-13 -93 42 -156t148 -63q63 0 142 38l27 184h137l-39 -269q-62 -41 -143.5 -66t-153.5 -25q-159 0 -251.5 102.5t-70.5 254.5zM366 919h98
q-2 -27 12 -43.5t38 -16.5t42.5 16.5t23.5 43.5h98q-13 -70 -61.5 -112t-116.5 -42q-67 0 -104 42t-30 112z" />
    <glyph glyph-name="gbreve" unicode="&#x11f;" horiz-adv-x="645" 
d="M38 -129l73 108q68 -54 159 -54q66 0 109.5 32.5t51.5 87.5l9 61q-67 -78 -173 -78q-104 0 -158.5 71.5t-38.5 188.5q16 114 90 184.5t177 70.5q107 1 155 -78l11 73h153l-71 -488q-16 -114 -104.5 -182t-218.5 -68q-129 0 -224 71zM213 284q-8 -62 21 -100.5t86 -38.5
q56 0 96.5 38.5t49.5 100.5t-20.5 101t-85.5 39t-96.5 -39t-50.5 -101zM275 756h98q-2 -27 11.5 -43.5t37.5 -16.5t43 16.5t24 43.5h98q-13 -70 -61.5 -112t-116.5 -42q-67 0 -104 42t-30 112z" />
    <glyph glyph-name="Gdotaccent" unicode="&#x120;" horiz-adv-x="745" 
d="M77 350q22 152 146.5 253.5t287.5 101.5q77 0 148 -27.5t118 -74.5l-105 -113q-34 36 -82 57t-99 21q-93 0 -166 -63t-86 -155q-13 -93 42 -156t148 -63q63 0 142 38l27 184h137l-39 -269q-62 -41 -143.5 -66t-153.5 -25q-159 0 -251.5 102.5t-70.5 254.5zM430 854
q5 38 31.5 62t63.5 24t56.5 -24t14.5 -62t-31.5 -62t-63.5 -24t-56.5 24t-14.5 62z" />
    <glyph glyph-name="gdotaccent" unicode="&#x121;" horiz-adv-x="645" 
d="M38 -129l73 108q68 -54 159 -54q66 0 109.5 32.5t51.5 87.5l9 61q-67 -78 -173 -78q-104 0 -158.5 71.5t-38.5 188.5q16 114 90 184.5t177 70.5q107 1 155 -78l11 73h153l-71 -488q-16 -114 -104.5 -182t-218.5 -68q-129 0 -224 71zM213 284q-8 -62 21 -100.5t86 -38.5
q56 0 96.5 38.5t49.5 100.5t-20.5 101t-85.5 39t-96.5 -39t-50.5 -101zM339 691q5 38 31.5 62t63.5 24t56.5 -24t14.5 -62t-32 -62t-64 -24t-56 24t-14 62z" />
    <glyph glyph-name="Gcommaaccent" unicode="&#x122;" horiz-adv-x="745" 
d="M77 350q22 152 146.5 253.5t287.5 101.5q77 0 148 -27.5t118 -74.5l-105 -113q-34 36 -82 57t-99 21q-93 0 -166 -63t-86 -155q-13 -93 42 -156t148 -63q63 0 142 38l27 184h137l-39 -269q-62 -41 -143.5 -66t-153.5 -25q-159 0 -251.5 102.5t-70.5 254.5zM268 -284
l57 101q-28 22 -22 62q4 34 29.5 56t58.5 22q31 0 50 -21t14 -56q-4 -32 -30 -63l-82 -101h-75z" />
    <glyph glyph-name="gcommaaccent" unicode="&#x123;" horiz-adv-x="645" 
d="M38 -129l73 108q68 -54 159 -54q66 0 109.5 32.5t51.5 87.5l9 61q-67 -78 -173 -78q-104 0 -158.5 71.5t-38.5 188.5q16 114 90 184.5t177 70.5q107 1 155 -78l11 73h153l-71 -488q-16 -114 -104.5 -182t-218.5 -68q-129 0 -224 71zM213 284q-8 -62 21 -100.5t86 -38.5
q56 0 96.5 38.5t49.5 100.5t-20.5 101t-85.5 39t-96.5 -39t-50.5 -101zM336 658q4 32 30 63l81 101h75l-56 -101q28 -22 22 -62q-4 -34 -29.5 -56t-58.5 -22q-31 0 -50 21t-14 56z" />
    <glyph glyph-name="Hcircumflex" unicode="&#x124;" horiz-adv-x="787" 
d="M77 0l101 700h158l-42 -292h317l42 292h158l-101 -700h-158l40 276h-317l-40 -276h-158zM339 773l131 148h128l87 -148h-113l-47 85l-73 -85h-113z" />
    <glyph glyph-name="hcircumflex" unicode="&#x125;" horiz-adv-x="675" 
d="M79 0l107 742h154l-43 -299q71 99 200 101q91 0 136.5 -56t32.5 -150l-49 -338h-154l42 293q8 51 -16.5 80.5t-73.5 29.5q-57 -1 -96.5 -39.5t-47.5 -98.5l-38 -265h-154zM97 815l131 148h128l87 -148h-113l-47 85l-73 -85h-113z" />
    <glyph glyph-name="Hbar" unicode="&#x126;" horiz-adv-x="862" 
d="M102 513l14 96h86l13 91h158l-13 -91h317l13 91h158l-13 -91h87l-14 -96h-87l-74 -513h-158l40 276h-317l-40 -276h-158l74 513h-86zM331 408h317l15 105h-317z" />
    <glyph glyph-name="hbar" unicode="&#x127;" horiz-adv-x="766" 
d="M79 0l84 580h-81l12 87h81l11 75h154l-11 -75h126l-12 -87h-126l-20 -137q71 99 200 101q91 0 136.5 -56t32.5 -150l-49 -338h-154l42 293q8 51 -16.5 80.5t-73.5 29.5q-57 -1 -96.5 -39.5t-47.5 -98.5l-38 -265h-154z" />
    <glyph glyph-name="Itilde" unicode="&#x128;" horiz-adv-x="313" 
d="M77 0l101 700h158l-101 -700h-158zM97 785q22 151 122 151q25 0 46 -12.5t36.5 -25t27.5 -12.5q33 0 39 44h95q-21 -149 -121 -149q-34 0 -66 24.5t-44 24.5q-34 0 -40 -45h-95z" />
    <glyph glyph-name="itilde" unicode="&#x129;" horiz-adv-x="302" 
d="M69 622q22 151 121 151q32 0 65 -25t45 -25q34 0 40 44h95q-21 -149 -122 -149q-34 0 -66 24.5t-44 24.5q-33 0 -39 -45h-95zM74 0l78 538h154l-78 -538h-154z" />
    <glyph glyph-name="Imacron" unicode="&#x12a;" horiz-adv-x="313" 
d="M77 0l101 700h158l-101 -700h-158zM136 797l15 108h271l-15 -108h-271z" />
    <glyph glyph-name="imacron" unicode="&#x12b;" horiz-adv-x="302" 
d="M74 0l78 538h154l-78 -538h-154zM107 634l16 108h271l-16 -108h-271z" />
    <glyph glyph-name="Ibreve" unicode="&#x12c;" horiz-adv-x="313" 
d="M77 0l101 700h158l-101 -700h-158zM132 919h98q-2 -27 12 -43.5t38 -16.5t42.5 16.5t23.5 43.5h98q-13 -70 -61.5 -112t-116.5 -42q-67 0 -104 42t-30 112z" />
    <glyph glyph-name="ibreve" unicode="&#x12d;" horiz-adv-x="302" 
d="M74 0l78 538h154l-78 -538h-154zM104 756h98q-2 -27 11.5 -43.5t37.5 -16.5t43 16.5t24 43.5h98q-13 -70 -61.5 -112t-116.5 -42q-67 0 -104 42t-30 112z" />
    <glyph glyph-name="Iogonek" unicode="&#x12e;" horiz-adv-x="313" 
d="M61 -121q8 52 66 121h-50l101 700h158l-101 -700h-33q-54 -63 -59 -96q-3 -25 20 -25q22 0 50 31l34 -48q-47 -64 -113 -64q-35 0 -57 20t-16 61z" />
    <glyph glyph-name="iogonek" unicode="&#x12f;" horiz-adv-x="283" 
d="M43 -121q8 52 66 121h-43l78 538h153l-78 -538h-35q-54 -63 -59 -96q-3 -25 21 -25q23 0 49 31l34 -48q-47 -64 -113 -64q-35 0 -57 20t-16 61zM159 691q5 38 32 62t63 24q37 0 57 -24t15 -62q-5 -37 -32.5 -61.5t-64.5 -24.5q-36 0 -55.5 24t-14.5 62z" />
    <glyph glyph-name="Idotaccent" unicode="&#x130;" horiz-adv-x="313" 
d="M77 0l101 700h158l-101 -700h-158zM196 854q5 38 31.5 62t63.5 24t56.5 -24t14.5 -62t-31.5 -62t-63.5 -24t-56.5 24t-14.5 62z" />
    <glyph glyph-name="dotlessi" unicode="&#x131;" horiz-adv-x="302" 
d="M74 0l78 538h154l-78 -538h-154z" />
    <glyph glyph-name="IJ" unicode="&#x132;" horiz-adv-x="836" 
d="M77 0l101 700h158l-101 -700h-158zM324 102l89 112q63 -78 137 -78q39 0 64.5 23.5t32.5 68.5l49 338h-241l19 134h400l-69 -476q-16 -109 -87 -170t-181 -61q-136 0 -213 109z" />
    <glyph glyph-name="ij" unicode="&#x133;" horiz-adv-x="610" 
d="M74 0l78 538h154l-78 -538h-154zM168 691q5 38 31.5 62t63.5 24t56.5 -24t14.5 -62t-32 -62t-64 -24t-56 24t-14 62zM192 -165l59 113q29 -21 59 -21q58 0 67 63l79 548h153l-80 -554q-13 -88 -74 -136.5t-141 -48.5q-72 0 -122 36zM465 691q5 38 33.5 62t67.5 24
q40 0 61 -24t16 -62t-33.5 -62t-68.5 -24q-38 0 -59.5 24.5t-16.5 61.5z" />
    <glyph glyph-name="Jcircumflex" unicode="&#x134;" horiz-adv-x="524" 
d="M11 102l89 112q63 -78 137 -78q39 0 64.5 23.5t32.5 68.5l49 338h-241l19 134h400l-69 -476q-16 -109 -87 -170t-181 -61q-136 0 -213 109zM195 773l131 148h128l87 -148h-113l-47 85l-73 -85h-113z" />
    <glyph glyph-name="jcircumflex" unicode="&#x135;" horiz-adv-x="297" 
d="M-114 -165l52 110q28 -18 64 -20q31 -1 50 19t24 58l78 536h153l-81 -559q-12 -85 -67.5 -132.5t-140.5 -46.5q-79 2 -132 35zM62 610l130 148h128l88 -148h-113l-48 85l-72 -85h-113z" />
    <glyph glyph-name="Kcommaaccent" unicode="&#x136;" horiz-adv-x="737" 
d="M77 0l101 700h158l-46 -318l337 318h183l-305 -292l222 -408h-190l-160 285l-117 -112l-25 -173h-158zM237 -284l57 101q-28 22 -22 62q4 34 29.5 56t58.5 22q31 0 50 -21t14 -56q-4 -32 -30 -63l-82 -101h-75z" />
    <glyph glyph-name="kcommaaccent" unicode="&#x137;" horiz-adv-x="619" 
d="M-5 -201l39 67q17 -19 45 -19q22 0 36.5 11.5t16.5 30.5q2 18 -9 28.5t-31 10.5t-35 -3l48 75h-26l107 742h154l-59 -408l226 203h175l-226 -207l158 -330h-182l-98 219l-80 -73l-21 -146h-41l-32 -49q29 -7 45 -28.5t12 -49.5q-6 -47 -43.5 -75t-92.5 -28q-49 0 -86 29z
" />
    <glyph glyph-name="kgreenlandic" unicode="&#x138;" horiz-adv-x="613" 
d="M74 0l78 538h154l-30 -202l226 202h175l-228 -207l159 -331h-182l-98 220l-79 -72l-21 -148h-154z" />
    <glyph glyph-name="Lacute" unicode="&#x139;" horiz-adv-x="552" 
d="M77 0l101 700h158l-81 -562h300l-20 -138h-458zM185 765l130 163l135 -54l-143 -109h-122z" />
    <glyph glyph-name="lacute" unicode="&#x13a;" horiz-adv-x="313" 
d="M79 0l107 742h154l-107 -742h-154zM193 807l130 163l135 -54l-143 -109h-122z" />
    <glyph glyph-name="Lcommaaccent" unicode="&#x13b;" horiz-adv-x="552" 
d="M77 0l101 700h158l-81 -562h300l-20 -138h-458zM168 -284l57 101q-28 22 -22 62q4 34 29.5 56t58.5 22q31 0 50 -21t14 -56q-4 -32 -30 -63l-82 -101h-75z" />
    <glyph glyph-name="lcommaaccent" unicode="&#x13c;" horiz-adv-x="313" 
d="M34 -284l57 101q-28 22 -22 62q4 34 29.5 56t58.5 22q31 0 50 -21t14 -56q-4 -32 -30 -63l-82 -101h-75zM79 0l107 742h154l-107 -742h-154z" />
    <glyph glyph-name="Lcaron" unicode="&#x13d;" horiz-adv-x="552" 
d="M77 0l101 700h158l-81 -562h300l-20 -138h-458zM421 428l56 101q-28 22 -22 62q5 34 30 56t58 22q31 0 50 -21t14 -57q-4 -33 -30 -62l-81 -101h-75z" />
    <glyph glyph-name="lcaron" unicode="&#x13e;" horiz-adv-x="379" 
d="M79 0l107 742h154l-107 -742h-154zM324 438l57 101q-28 22 -22 62q5 34 30 56t58 22q31 0 50 -21t14 -57q-4 -33 -30 -62l-82 -101h-75z" />
    <glyph glyph-name="Ldot" unicode="&#x13f;" horiz-adv-x="552" 
d="M77 0l101 700h158l-81 -562h300l-20 -138h-458zM401 476q4 34 28.5 55.5t57.5 21.5q32 0 50 -21.5t13 -55.5q-4 -34 -29 -55.5t-57 -21.5q-33 0 -50.5 21.5t-12.5 55.5z" />
    <glyph glyph-name="ldot" unicode="&#x140;" horiz-adv-x="375" 
d="M79 0l107 742h154l-107 -742h-154zM305 311q5 35 29 57t58 22q33 0 51.5 -22.5t13.5 -56.5q-4 -34 -29 -56t-58 -22t-51.5 22t-13.5 56z" />
    <glyph glyph-name="Lslash" unicode="&#x141;" horiz-adv-x="570" 
d="M53 417l107 30l37 253h158l-30 -207l155 44l12 -98l-182 -51l-36 -250h299l-20 -138h-457l49 342l-79 -22z" />
    <glyph glyph-name="lslash" unicode="&#x142;" horiz-adv-x="363" 
d="M47 429l134 38l40 275h154l-33 -229l90 25l11 -99l-116 -33l-59 -406h-154l52 362l-106 -30z" />
    <glyph glyph-name="Nacute" unicode="&#x143;" horiz-adv-x="788" 
d="M77 0l101 700h144l275 -450l65 450h150l-101 -700h-144l-274 449l-65 -449h-151zM424 765l130 163l135 -54l-143 -109h-122z" />
    <glyph glyph-name="nacute" unicode="&#x144;" horiz-adv-x="670" 
d="M74 0l78 538h154l-14 -94q71 98 200 100q90 0 135.5 -56t32.5 -150l-49 -338h-154l42 293q8 51 -16.5 80.5t-73.5 29.5q-57 -1 -96 -39.5t-47 -98.5l-38 -265h-154zM358 602l129 163l135 -54l-142 -109h-122z" />
    <glyph glyph-name="Ncommaaccent" unicode="&#x145;" horiz-adv-x="788" 
d="M77 0l101 700h144l275 -450l65 450h150l-101 -700h-144l-274 449l-65 -449h-151zM272 -284l57 101q-28 22 -22 62q4 34 29.5 56t58.5 22q31 0 50 -21t14 -56q-4 -32 -30 -63l-82 -101h-75z" />
    <glyph glyph-name="ncommaaccent" unicode="&#x146;" horiz-adv-x="670" 
d="M74 0l78 538h154l-14 -94q71 98 200 100q90 0 135.5 -56t32.5 -150l-49 -338h-154l42 293q8 51 -16.5 80.5t-73.5 29.5q-57 -1 -96 -39.5t-47 -98.5l-38 -265h-154zM217 -284l57 101q-28 22 -22 62q4 34 29.5 56t58.5 22q31 0 50 -21t14 -56q-4 -32 -30 -63l-82 -101h-75
z" />
    <glyph glyph-name="Ncaron" unicode="&#x147;" horiz-adv-x="788" 
d="M77 0l101 700h144l275 -450l65 450h150l-101 -700h-144l-274 449l-65 -449h-151zM337 921h124l48 -92l76 92h124l-140 -160h-138z" />
    <glyph glyph-name="ncaron" unicode="&#x148;" horiz-adv-x="670" 
d="M74 0l78 538h154l-14 -94q71 98 200 100q90 0 135.5 -56t32.5 -150l-49 -338h-154l42 293q8 51 -16.5 80.5t-73.5 29.5q-57 -1 -96 -39.5t-47 -98.5l-38 -265h-154zM270 758h124l49 -92l75 92h124l-140 -160h-138z" />
    <glyph glyph-name="Eng" unicode="&#x14a;" horiz-adv-x="788" 
d="M77 0l101 700h144l275 -450l65 450h150l-101 -700h-1q-16 -98 -88 -155t-177 -57q-109 0 -176 64l79 122q58 -43 117 -43q37 0 62 20t34 58l-268 440l-65 -449h-151z" />
    <glyph glyph-name="eng" unicode="&#x14b;" horiz-adv-x="670" 
d="M74 0l78 538h154l-14 -94q71 98 200 100q90 0 135.5 -56t32.5 -150l-52 -356q-12 -86 -73 -134.5t-142 -48.5q-72 0 -122 36l59 113q31 -21 60 -21q57 0 66 63l43 303q8 51 -16.5 80.5t-73.5 29.5q-57 -1 -96 -39.5t-47 -98.5l-38 -265h-154z" />
    <glyph glyph-name="Omacron" unicode="&#x14c;" horiz-adv-x="806" 
d="M77 350q22 153 144.5 254t283.5 101t253.5 -101.5t70.5 -253.5t-144.5 -254.5t-282.5 -102.5t-253.5 102.5t-71.5 254.5zM239 350q-13 -91 41.5 -155t143.5 -64q88 0 159 63.5t84 155.5t-39.5 154.5t-140.5 62.5q-89 0 -162 -63t-86 -154zM376 797l15 108h271l-15 -108
h-271z" />
    <glyph glyph-name="omacron" unicode="&#x14d;" horiz-adv-x="633" 
d="M67 269q18 124 108 199t220 75q129 0 198 -75.5t51 -198.5t-108.5 -199t-219.5 -76q-130 0 -198.5 76t-50.5 199zM221 267q-10 -66 21.5 -107t91.5 -41q59 0 102 41t53 107t-21.5 107t-90.5 41q-60 0 -103 -41t-53 -107zM273 634l16 108h271l-16 -108h-271z" />
    <glyph glyph-name="Obreve" unicode="&#x14e;" horiz-adv-x="806" 
d="M77 350q22 153 144.5 254t283.5 101t253.5 -101.5t70.5 -253.5t-144.5 -254.5t-282.5 -102.5t-253.5 102.5t-71.5 254.5zM239 350q-13 -91 41.5 -155t143.5 -64q88 0 159 63.5t84 155.5t-39.5 154.5t-140.5 62.5q-89 0 -162 -63t-86 -154zM372 919h98q-2 -27 12 -43.5
t38 -16.5t42.5 16.5t23.5 43.5h98q-13 -70 -61.5 -112t-116.5 -42q-67 0 -104 42t-30 112z" />
    <glyph glyph-name="obreve" unicode="&#x14f;" horiz-adv-x="633" 
d="M67 269q18 124 108 199t220 75q129 0 198 -75.5t51 -198.5t-108.5 -199t-219.5 -76q-130 0 -198.5 76t-50.5 199zM221 267q-10 -66 21.5 -107t91.5 -41q59 0 102 41t53 107t-21.5 107t-90.5 41q-60 0 -103 -41t-53 -107zM270 756h98q-2 -27 11.5 -43.5t37.5 -16.5
t43 16.5t24 43.5h98q-13 -70 -61.5 -112t-116.5 -42q-67 0 -104 42t-30 112z" />
    <glyph glyph-name="Ohungarumlaut" unicode="&#x150;" horiz-adv-x="806" 
d="M77 350q22 153 144.5 254t283.5 101t253.5 -101.5t70.5 -253.5t-144.5 -254.5t-282.5 -102.5t-253.5 102.5t-71.5 254.5zM239 350q-13 -91 41.5 -155t143.5 -64q88 0 159 63.5t84 155.5t-39.5 154.5t-140.5 62.5q-89 0 -162 -63t-86 -154zM341 763l109 167l113 -47
l-108 -120h-114zM526 763l108 167l114 -47l-108 -120h-114z" />
    <glyph glyph-name="ohungarumlaut" unicode="&#x151;" horiz-adv-x="633" 
d="M67 269q18 124 108 199t220 75q129 0 198 -75.5t51 -198.5t-108.5 -199t-219.5 -76q-130 0 -198.5 76t-50.5 199zM221 267q-10 -66 21.5 -107t91.5 -41q59 0 102 41t53 107t-21.5 107t-90.5 41q-60 0 -103 -41t-53 -107zM237 600l110 167l113 -47l-109 -120h-114z
M422 600l109 167l114 -47l-109 -120h-114z" />
    <glyph glyph-name="OE" unicode="&#x152;" horiz-adv-x="1108" 
d="M77 350q22 149 144 249.5t282 100.5h648l-19 -131h-375l-22 -152h337l-19 -131h-337l-22 -154h386l-19 -132h-659q-159 0 -253 100t-72 250zM239 349q-13 -92 39.5 -153.5t143.5 -61.5l114 1l62 429h-114q-91 0 -161.5 -61.5t-83.5 -153.5z" />
    <glyph glyph-name="oe" unicode="&#x153;" horiz-adv-x="1026" 
d="M67 269q18 124 108 199t220 75q138 0 194 -99q81 99 212 99q132 0 194.5 -84.5t36.5 -224.5h-401q2 -57 35.5 -88.5t89.5 -31.5q81 0 147 57l69 -82q-101 -95 -246 -95q-138 0 -189 99q-85 -99 -221 -99q-130 0 -198.5 76t-50.5 199zM221 267q-10 -66 21.5 -107t91.5 -41
q59 0 102 41t53 107t-21.5 107t-90.5 41q-60 0 -103 -41t-53 -107zM641 312h249q7 54 -21.5 88t-80.5 34q-51 0 -90.5 -33.5t-56.5 -88.5z" />
    <glyph glyph-name="Racute" unicode="&#x154;" horiz-adv-x="724" 
d="M77 0l101 700h304q137 0 203 -63.5t49 -179.5q-24 -165 -164 -226l116 -231h-179l-82 200h-15h-146l-29 -200h-158zM283 332h146q136 0 154 120q8 58 -23 87.5t-97 29.5h-146zM391 765l130 163l135 -54l-143 -109h-122z" />
    <glyph glyph-name="racute" unicode="&#x155;" horiz-adv-x="416" 
d="M74 0l78 538h154l-14 -97q72 102 192 103l-21 -145q-81 7 -134.5 -32t-63.5 -108l-37 -259h-154zM225 602l129 163l135 -54l-142 -109h-122z" />
    <glyph glyph-name="Rcommaaccent" unicode="&#x156;" horiz-adv-x="724" 
d="M77 0l101 700h304q137 0 203 -63.5t49 -179.5q-24 -165 -164 -226l116 -231h-179l-82 200h-15h-146l-29 -200h-158zM237 -284l57 101q-28 22 -22 62q4 34 29.5 56t58.5 22q31 0 50 -21t14 -56q-4 -32 -30 -63l-82 -101h-75zM283 332h146q136 0 154 120q8 58 -23 87.5
t-97 29.5h-146z" />
    <glyph glyph-name="rcommaaccent" unicode="&#x157;" horiz-adv-x="416" 
d="M25 -284l57 101q-28 22 -22 62q4 34 29.5 56t58.5 22q31 0 50 -21t14 -56q-4 -32 -30 -63l-82 -101h-75zM74 0l78 538h154l-14 -97q72 102 192 103l-21 -145q-81 7 -134.5 -32t-63.5 -108l-37 -259h-154z" />
    <glyph glyph-name="Rcaron" unicode="&#x158;" horiz-adv-x="724" 
d="M77 0l101 700h304q137 0 203 -63.5t49 -179.5q-24 -165 -164 -226l116 -231h-179l-82 200h-15h-146l-29 -200h-158zM283 332h146q136 0 154 120q8 58 -23 87.5t-97 29.5h-146zM304 921h124l48 -92l76 92h124l-140 -160h-138z" />
    <glyph glyph-name="rcaron" unicode="&#x159;" horiz-adv-x="416" 
d="M74 0l78 538h154l-14 -97q72 102 192 103l-21 -145q-81 7 -134.5 -32t-63.5 -108l-37 -259h-154zM137 758h124l49 -92l75 92h124l-140 -160h-138z" />
    <glyph glyph-name="Sacute" unicode="&#x15a;" horiz-adv-x="637" 
d="M35 106l82 129q47 -47 112 -76t121 -29q49 0 79 17.5t34 49.5q4 30 -20.5 51t-64.5 31t-86 26t-84.5 35.5t-60 60.5t-13.5 99q13 95 96 151t205 56q151 0 255 -76l-80 -131q-50 33 -107.5 52.5t-100.5 19.5q-41 0 -67 -14.5t-30 -42.5q-3 -23 10.5 -40t38 -27t56.5 -21
t65.5 -20.5t65 -26t54.5 -38t34 -56.5t4 -80q-15 -100 -99.5 -155.5t-205.5 -55.5q-85 0 -162.5 30t-130.5 81zM363 765l130 163l135 -54l-143 -109h-122z" />
    <glyph glyph-name="sacute" unicode="&#x15b;" horiz-adv-x="499" 
d="M28 69l65 104q78 -67 177 -67q68 0 74 42q3 23 -23.5 38t-66 26t-78 27t-62 51t-16.5 87q12 80 78.5 124t158.5 44q114 0 201 -60l-68 -105q-85 52 -157 52q-62 0 -68 -40q-3 -22 24 -36t67 -25.5t79.5 -28t63.5 -52t16 -88.5q-12 -80 -80 -124t-163 -44q-139 0 -222 75z
M265 602l129 163l135 -54l-142 -109h-122z" />
    <glyph glyph-name="Scircumflex" unicode="&#x15c;" horiz-adv-x="637" 
d="M35 106l82 129q47 -47 112 -76t121 -29q49 0 79 17.5t34 49.5q4 30 -20.5 51t-64.5 31t-86 26t-84.5 35.5t-60 60.5t-13.5 99q13 95 96 151t205 56q151 0 255 -76l-80 -131q-50 33 -107.5 52.5t-100.5 19.5q-41 0 -67 -14.5t-30 -42.5q-3 -23 10.5 -40t38 -27t56.5 -21
t65.5 -20.5t65 -26t54.5 -38t34 -56.5t4 -80q-15 -100 -99.5 -155.5t-205.5 -55.5q-85 0 -162.5 30t-130.5 81zM271 773l131 148h128l87 -148h-113l-47 85l-73 -85h-113z" />
    <glyph glyph-name="scircumflex" unicode="&#x15d;" horiz-adv-x="499" 
d="M28 69l65 104q78 -67 177 -67q68 0 74 42q3 23 -23.5 38t-66 26t-78 27t-62 51t-16.5 87q12 80 78.5 124t158.5 44q114 0 201 -60l-68 -105q-85 52 -157 52q-62 0 -68 -40q-3 -22 24 -36t67 -25.5t79.5 -28t63.5 -52t16 -88.5q-12 -80 -80 -124t-163 -44q-139 0 -222 75z
M173 610l130 148h128l88 -148h-113l-48 85l-72 -85h-113z" />
    <glyph glyph-name="Scedilla" unicode="&#x15e;" horiz-adv-x="637" 
d="M35 106l82 129q47 -47 112 -76t121 -29q49 0 79 17.5t34 49.5q4 30 -20.5 51t-64.5 31t-86 26t-84.5 35.5t-60 60.5t-13.5 99q13 95 96 151t205 56q151 0 255 -76l-80 -131q-50 33 -107.5 52.5t-100.5 19.5q-41 0 -67 -14.5t-30 -42.5q-3 -23 10.5 -40t38 -27t56.5 -21
t65.5 -20.5t65 -26t54.5 -38t34 -56.5t4 -80q-12 -87 -79.5 -141t-166.5 -66l-31 -49q30 -8 45 -29.5t11 -51.5q-7 -46 -43.5 -73.5t-88.5 -27.5q-51 0 -89 30l39 67q20 -20 49 -20q19 0 32.5 11t15.5 27t-8.5 26t-32.5 10q-12 0 -36 -4l49 81q-77 5 -146.5 34.5
t-117.5 75.5z" />
    <glyph glyph-name="scedilla" unicode="&#x15f;" horiz-adv-x="499" 
d="M28 69l65 104q78 -67 177 -67q68 0 74 42q3 23 -23.5 38t-66 26t-78 27t-62 51t-16.5 87q12 80 78.5 124t158.5 44q114 0 201 -60l-68 -105q-85 52 -157 52q-62 0 -68 -40q-3 -22 24 -36t67 -25.5t79.5 -28t63.5 -52t16 -88.5q-9 -67 -59 -108.5t-125 -54.5l-31 -49
q30 -8 45 -29.5t11 -51.5q-7 -46 -43.5 -73.5t-88.5 -27.5q-51 0 -89 30l39 67q20 -20 49 -20q19 0 32.5 11t15.5 27t-8.5 26t-32.5 10q-12 0 -36 -4l48 80q-118 8 -192 74z" />
    <glyph glyph-name="Scaron" unicode="&#x160;" horiz-adv-x="637" 
d="M35 106l82 129q47 -47 112 -76t121 -29q49 0 79 17.5t34 49.5q4 30 -20.5 51t-64.5 31t-86 26t-84.5 35.5t-60 60.5t-13.5 99q13 95 96 151t205 56q151 0 255 -76l-80 -131q-50 33 -107.5 52.5t-100.5 19.5q-41 0 -67 -14.5t-30 -42.5q-3 -23 10.5 -40t38 -27t56.5 -21
t65.5 -20.5t65 -26t54.5 -38t34 -56.5t4 -80q-15 -100 -99.5 -155.5t-205.5 -55.5q-85 0 -162.5 30t-130.5 81zM276 921h124l48 -92l76 92h124l-140 -160h-138z" />
    <glyph glyph-name="scaron" unicode="&#x161;" horiz-adv-x="499" 
d="M28 69l65 104q78 -67 177 -67q68 0 74 42q3 23 -23.5 38t-66 26t-78 27t-62 51t-16.5 87q12 80 78.5 124t158.5 44q114 0 201 -60l-68 -105q-85 52 -157 52q-62 0 -68 -40q-3 -22 24 -36t67 -25.5t79.5 -28t63.5 -52t16 -88.5q-12 -80 -80 -124t-163 -44q-139 0 -222 75z
M177 758h124l49 -92l75 92h124l-140 -160h-138z" />
    <glyph glyph-name="Tcedilla" unicode="&#x162;" horiz-adv-x="601" 
d="M90 566l19 134h585l-19 -134h-214l-82 -566h-29l-32 -50q30 -8 45 -29.5t11 -51.5q-7 -46 -43.5 -73.5t-88.5 -27.5q-51 0 -89 30l39 67q20 -20 49 -20q19 0 32.5 11t15.5 27t-8.5 26t-32.5 10q-12 0 -36 -4l51 85h-42l82 566h-213z" />
    <glyph glyph-name="tcedilla" unicode="&#x163;" horiz-adv-x="426" 
d="M82 408l15 106h75l21 148h153l-21 -148h146l-15 -107h-146l-32 -222q-4 -33 7 -48t36 -14q29 0 75 20l15 -113q-43 -24 -96 -33l-31 -47q30 -8 45 -29.5t11 -51.5q-7 -46 -43.5 -73.5t-88.5 -27.5q-51 0 -89 30l39 67q20 -20 49 -20q19 0 32.5 11t15.5 27t-8.5 26
t-32.5 10q-12 0 -36 -4l49 81q-58 11 -87 52.5t-19 110.5l36 249h-75z" />
    <glyph glyph-name="Tcaron" unicode="&#x164;" horiz-adv-x="601" 
d="M90 566l19 134h585l-19 -134h-214l-82 -566h-158l82 566h-213zM254 921h124l48 -92l76 92h124l-140 -160h-138z" />
    <glyph glyph-name="tcaron" unicode="&#x165;" horiz-adv-x="413" 
d="M82 408l15 106h75l21 148h153l-21 -148h146l-15 -107h-146l-32 -222q-4 -33 7 -48t36 -14q29 0 75 20l15 -113q-69 -37 -145 -37q-75 0 -116 43t-29 123l36 249h-75zM381 581l56 101q-28 22 -22 62q5 34 30 56t58 22q31 0 50 -21t14 -57q-4 -33 -30 -62l-81 -101h-75z
" />
    <glyph glyph-name="Tbar" unicode="&#x166;" horiz-adv-x="601" 
d="M90 566l19 134h585l-19 -134h-214l-82 -566h-158l82 566h-213zM291 797l15 108h271l-15 -108h-271z" />
    <glyph glyph-name="tbar" unicode="&#x167;" horiz-adv-x="426" 
d="M58 243l14 96h75l11 79h-75l14 96h75l21 148h153l-21 -148h146l-14 -96h-146l-11 -79h146l-14 -96h-146l-8 -58q-4 -33 7 -48t36 -14q29 0 75 20l15 -113q-69 -37 -145 -37q-75 0 -116 43t-29 123l12 84h-75z" />
    <glyph glyph-name="Utilde" unicode="&#x168;" horiz-adv-x="760" 
d="M106 293l59 407h158l-59 -407q-11 -75 27 -118.5t110 -43.5q71 0 119.5 43.5t59.5 118.5l59 407h158l-59 -407q-20 -139 -116 -219.5t-241 -80.5q-146 0 -220.5 81t-54.5 219zM321 785q22 151 122 151q25 0 46 -12.5t36.5 -25t27.5 -12.5q33 0 39 44h95
q-21 -149 -121 -149q-34 0 -66 24.5t-44 24.5q-34 0 -40 -45h-95z" />
    <glyph glyph-name="utilde" unicode="&#x169;" horiz-adv-x="660" 
d="M87 200l49 338h154l-43 -294q-7 -51 15.5 -80t69.5 -29q55 1 93 39t46 98l39 266h153l-78 -538h-153l14 95q-70 -101 -195 -101q-89 0 -133 55.5t-31 150.5zM243 622q22 151 121 151q32 0 65 -25t45 -25q34 0 40 44h95q-21 -149 -122 -149q-34 0 -66 24.5t-44 24.5
q-33 0 -39 -45h-95z" />
    <glyph glyph-name="Umacron" unicode="&#x16a;" horiz-adv-x="760" 
d="M106 293l59 407h158l-59 -407q-11 -75 27 -118.5t110 -43.5q71 0 119.5 43.5t59.5 118.5l59 407h158l-59 -407q-20 -139 -116 -219.5t-241 -80.5q-146 0 -220.5 81t-54.5 219zM360 797l15 108h271l-15 -108h-271z" />
    <glyph glyph-name="umacron" unicode="&#x16b;" horiz-adv-x="660" 
d="M87 200l49 338h154l-43 -294q-7 -51 15.5 -80t69.5 -29q55 1 93 39t46 98l39 266h153l-78 -538h-153l14 95q-70 -101 -195 -101q-89 0 -133 55.5t-31 150.5zM281 634l16 108h271l-16 -108h-271z" />
    <glyph glyph-name="Ubreve" unicode="&#x16c;" horiz-adv-x="760" 
d="M106 293l59 407h158l-59 -407q-11 -75 27 -118.5t110 -43.5q71 0 119.5 43.5t59.5 118.5l59 407h158l-59 -407q-20 -139 -116 -219.5t-241 -80.5q-146 0 -220.5 81t-54.5 219zM356 919h98q-2 -27 12 -43.5t38 -16.5t42.5 16.5t23.5 43.5h98q-13 -70 -61.5 -112
t-116.5 -42q-67 0 -104 42t-30 112z" />
    <glyph glyph-name="ubreve" unicode="&#x16d;" horiz-adv-x="660" 
d="M87 200l49 338h154l-43 -294q-7 -51 15.5 -80t69.5 -29q55 1 93 39t46 98l39 266h153l-78 -538h-153l14 95q-70 -101 -195 -101q-89 0 -133 55.5t-31 150.5zM278 756h98q-2 -27 11.5 -43.5t37.5 -16.5t43 16.5t24 43.5h98q-13 -70 -61.5 -112t-116.5 -42q-67 0 -104 42
t-30 112z" />
    <glyph glyph-name="Uring" unicode="&#x16e;" horiz-adv-x="760" 
d="M106 293l59 407h158l-59 -407q-11 -75 27 -118.5t110 -43.5q71 0 119.5 43.5t59.5 118.5l59 407h158l-59 -407q-20 -139 -116 -219.5t-241 -80.5q-146 0 -220.5 81t-54.5 219zM383 855q7 49 47.5 84t89.5 35t79.5 -35t23.5 -84q-8 -50 -48 -84.5t-89 -34.5q-50 0 -80 35
t-23 84zM446 855q-3 -23 11 -39t38 -16t43.5 16t22.5 39t-11.5 38.5t-38.5 15.5t-43 -16t-22 -38z" />
    <glyph glyph-name="uring" unicode="&#x16f;" horiz-adv-x="660" 
d="M87 200l49 338h154l-43 -294q-7 -51 15.5 -80t69.5 -29q55 1 93 39t46 98l39 266h153l-78 -538h-153l14 95q-70 -101 -195 -101q-89 0 -133 55.5t-31 150.5zM305 692q7 49 47.5 84t89.5 35t79.5 -35t23.5 -84q-8 -50 -48 -84.5t-89 -34.5q-50 0 -80 35t-23 84zM368 692
q-3 -23 11 -39t38 -16t43.5 16t22.5 39q3 22 -12 38t-39 16t-42.5 -15.5t-21.5 -38.5z" />
    <glyph glyph-name="Uhungarumlaut" unicode="&#x170;" horiz-adv-x="760" 
d="M106 293l59 407h158l-59 -407q-11 -75 27 -118.5t110 -43.5q71 0 119.5 43.5t59.5 118.5l59 407h158l-59 -407q-20 -139 -116 -219.5t-241 -80.5q-146 0 -220.5 81t-54.5 219zM325 763l109 167l113 -47l-108 -120h-114zM510 763l108 167l114 -47l-108 -120h-114z" />
    <glyph glyph-name="uhungarumlaut" unicode="&#x171;" horiz-adv-x="660" 
d="M87 200l49 338h154l-43 -294q-7 -51 15.5 -80t69.5 -29q55 1 93 39t46 98l39 266h153l-78 -538h-153l14 95q-70 -101 -195 -101q-89 0 -133 55.5t-31 150.5zM246 600l110 167l113 -47l-109 -120h-114zM431 600l109 167l114 -47l-109 -120h-114z" />
    <glyph glyph-name="Uogonek" unicode="&#x172;" horiz-adv-x="761" 
d="M107 293l59 407h157l-59 -407q-10 -74 28 -118t110 -44q71 0 119 43.5t59 118.5l59 407h158l-59 -407q-16 -107 -78.5 -181t-160.5 -103q-62 -73 -66 -105q-3 -25 21 -25q21 0 49 31l34 -48q-47 -64 -113 -64q-35 0 -57 20t-16 61q7 51 60 115q-10 -1 -30 -1
q-146 0 -220 81t-54 219z" />
    <glyph glyph-name="uogonek" unicode="&#x173;" horiz-adv-x="656" 
d="M88 200l49 338h153l-43 -294q-7 -51 16.5 -80t71.5 -29q52 1 89 35.5t48 88.5l41 279h153l-78 -538h-36q-55 -61 -60 -96q-3 -25 21 -25q21 0 49 31l34 -48q-47 -64 -113 -64q-35 0 -57 20t-16 61q8 52 66 121h-41l13 92q-70 -98 -196 -98q-89 0 -133 55.5t-31 150.5z
" />
    <glyph glyph-name="Wcircumflex" unicode="&#x174;" horiz-adv-x="1066" 
d="M101 700h170l71 -528l222 528h155l72 -528l222 528h162l-333 -700h-163l-69 499l-216 -499h-163zM455 773l131 148h128l87 -148h-113l-47 85l-73 -85h-113z" />
    <glyph glyph-name="wcircumflex" unicode="&#x175;" horiz-adv-x="923" 
d="M74 537l158 1l64 -385l172 385h151l62 -385l174 385h152l-274 -538h-154l-65 355l-166 -355h-154zM377 610l130 148h128l88 -148h-113l-48 85l-72 -85h-113z" />
    <glyph glyph-name="Ycircumflex" unicode="&#x176;" horiz-adv-x="666" 
d="M98 700h159l134 -314l220 314h159l-323 -474l-33 -226h-158l32 222zM271 773l131 148h128l87 -148h-113l-47 85l-73 -85h-113z" />
    <glyph glyph-name="ycircumflex" unicode="&#x177;" horiz-adv-x="564" 
d="M-29 -149l81 111q30 -29 65 -29q48 0 78 48l20 30l-147 527h159l87 -370l181 370h154l-323 -598q-77 -141 -217 -141q-82 0 -138 52zM198 610l130 148h128l88 -148h-113l-48 85l-72 -85h-113z" />
    <glyph glyph-name="Ydieresis" unicode="&#x178;" horiz-adv-x="666" 
d="M98 700h159l134 -314l220 314h159l-323 -474l-33 -226h-158l32 222zM290 857q4 33 27.5 54t55.5 21t49 -21t13 -54q-4 -32 -27.5 -53t-55.5 -21t-49 21t-13 53zM478 857q4 33 27.5 54t55.5 21t49 -21t13 -54q-4 -32 -27.5 -53t-55.5 -21t-49 21t-13 53z" />
    <glyph glyph-name="Zacute" unicode="&#x179;" horiz-adv-x="672" 
d="M31 0l15 107l459 461h-379l19 132h591l-15 -106l-458 -462h397l-20 -132h-609zM379 765l130 163l135 -54l-143 -109h-122z" />
    <glyph glyph-name="zacute" unicode="&#x17a;" horiz-adv-x="548" 
d="M38 0l14 97l323 319l-267 1l17 120h459l-14 -97l-323 -319h286l-17 -122zM281 602l129 163l135 -54l-142 -109h-122z" />
    <glyph glyph-name="Zdotaccent" unicode="&#x17b;" horiz-adv-x="672" 
d="M31 0l15 107l459 461h-379l19 132h591l-15 -106l-458 -462h397l-20 -132h-609zM389 854q5 38 31.5 62t63.5 24t56.5 -24t14.5 -62t-31.5 -62t-63.5 -24t-56.5 24t-14.5 62z" />
    <glyph glyph-name="zdotaccent" unicode="&#x17c;" horiz-adv-x="548" 
d="M38 0l14 97l323 319l-267 1l17 120h459l-14 -97l-323 -319h286l-17 -122zM291 691q5 38 31.5 62t63.5 24t56.5 -24t14.5 -62t-32 -62t-64 -24t-56 24t-14 62z" />
    <glyph glyph-name="Zcaron" unicode="&#x17d;" horiz-adv-x="672" 
d="M31 0l15 107l459 461h-379l19 132h591l-15 -106l-458 -462h397l-20 -132h-609zM292 921h124l48 -92l76 92h124l-140 -160h-138z" />
    <glyph glyph-name="zcaron" unicode="&#x17e;" horiz-adv-x="548" 
d="M38 0l14 97l323 319l-267 1l17 120h459l-14 -97l-323 -319h286l-17 -122zM193 758h124l49 -92l75 92h124l-140 -160h-138z" />
    <glyph glyph-name="florin" unicode="&#x192;" horiz-adv-x="397" 
d="M-138 -163l56 111q22 -22 56 -24q58 -1 79 74l97 364h-71l27 103h71l30 112q21 80 84 128t148 47q83 -2 136 -38l-69 -111q-24 22 -62 24q-32 1 -56.5 -19t-33.5 -54l-24 -89h128l-27 -103h-129l-103 -388q-21 -81 -81 -128.5t-144 -46.5q-69 2 -112 38z" />
    <glyph glyph-name="Scommaaccent" unicode="&#x218;" horiz-adv-x="637" 
d="M35 106l82 129q47 -47 112 -76t121 -29q49 0 79 17.5t34 49.5q4 30 -20.5 51t-64.5 31t-86 26t-84.5 35.5t-60 60.5t-13.5 99q13 95 96 151t205 56q151 0 255 -76l-80 -131q-50 33 -107.5 52.5t-100.5 19.5q-41 0 -67 -14.5t-30 -42.5q-3 -23 10.5 -40t38 -27t56.5 -21
t65.5 -20.5t65 -26t54.5 -38t34 -56.5t4 -80q-15 -100 -99.5 -155.5t-205.5 -55.5q-85 0 -162.5 30t-130.5 81zM204 -284l57 101q-28 22 -22 62q4 34 29.5 56t58.5 22q31 0 50 -21t14 -56q-4 -32 -30 -63l-82 -101h-75z" />
    <glyph glyph-name="scommaaccent" unicode="&#x219;" horiz-adv-x="499" 
d="M28 69l65 104q78 -67 177 -67q68 0 74 42q3 23 -23.5 38t-66 26t-78 27t-62 51t-16.5 87q12 80 78.5 124t158.5 44q114 0 201 -60l-68 -105q-85 52 -157 52q-62 0 -68 -40q-3 -22 24 -36t67 -25.5t79.5 -28t63.5 -52t16 -88.5q-12 -80 -80 -124t-163 -44q-139 0 -222 75z
M126 -284l57 101q-28 22 -22 62q4 34 29.5 56t58.5 22q31 0 50 -21t14 -56q-4 -32 -30 -63l-82 -101h-75z" />
    <glyph glyph-name="Tcommaaccent" unicode="&#x21a;" horiz-adv-x="601" 
d="M90 566l19 134h585l-19 -134h-214l-82 -566h-158l82 566h-213zM165 -284l57 101q-28 22 -22 62q4 34 29.5 56t58.5 22q31 0 50 -21t14 -56q-4 -32 -30 -63l-82 -101h-75z" />
    <glyph glyph-name="tcommaaccent" unicode="&#x21b;" horiz-adv-x="426" 
d="M82 408l15 106h75l21 148h153l-21 -148h146l-15 -107h-146l-32 -222q-4 -33 7 -48t36 -14q29 0 75 20l15 -113q-69 -37 -145 -37q-75 0 -116 43t-29 123l36 249h-75zM132 -284l57 101q-28 22 -22 62q4 34 29.5 56t58.5 22q31 0 50 -21t14 -56q-4 -32 -30 -63l-82 -101
h-75z" />
    <glyph glyph-name="dotlessj" unicode="&#x237;" horiz-adv-x="297" 
d="M-114 -165l52 110q28 -18 64 -20q31 -1 50 19t24 58l78 536h153l-81 -559q-12 -85 -67.5 -132.5t-140.5 -46.5q-79 2 -132 35z" />
    <glyph glyph-name="circumflex" unicode="&#x2c6;" horiz-adv-x="350" 
d="M90 612l131 148h128l87 -148h-113l-48 85l-72 -85h-113z" />
    <glyph glyph-name="caron" unicode="&#x2c7;" horiz-adv-x="350" 
d="M99 760h124l48 -92l76 92h124l-141 -160h-138z" />
    <glyph glyph-name="firsttonechinese" unicode="&#x2c9;" horiz-adv-x="350" 
d="M131 634l16 108h271l-16 -108h-271z" />
    <glyph glyph-name="breve" unicode="&#x2d8;" horiz-adv-x="350" 
d="M128 757h98q-2 -27 11.5 -43.5t37.5 -16.5t43 16.5t24 43.5h98q-13 -70 -61.5 -112t-116.5 -42q-67 0 -104 42t-30 112z" />
    <glyph glyph-name="dotaccent" unicode="&#x2d9;" horiz-adv-x="350" 
d="M192 691q5 38 31.5 62t63.5 24t56.5 -24t14.5 -62t-32 -62t-64 -24t-56 24t-14 62z" />
    <glyph glyph-name="ring" unicode="&#x2da;" horiz-adv-x="350" 
d="M155 692q7 49 47.5 84t89.5 35t79.5 -35t23.5 -84q-8 -50 -48 -84.5t-89 -34.5q-50 0 -80 35t-23 84zM218 692q-3 -23 11 -39t38 -16t43.5 16t22.5 39q3 22 -12 38t-39 16t-42.5 -15.5t-21.5 -38.5z" />
    <glyph glyph-name="ogonek" unicode="&#x2db;" horiz-adv-x="350" 
d="M65 -121q8 60 79 137h75q-68 -77 -72 -112q-3 -25 21 -25q23 0 49 31l35 -48q-47 -64 -114 -64q-35 0 -57 20t-16 61z" />
    <glyph glyph-name="tilde" unicode="&#x2dc;" horiz-adv-x="350" 
d="M93 622q22 151 121 151q32 0 65 -25t45 -25q34 0 40 44h95q-21 -149 -122 -149q-34 0 -66 24.5t-44 24.5q-33 0 -39 -45h-95z" />
    <glyph glyph-name="hungarumlaut" unicode="&#x2dd;" horiz-adv-x="350" 
d="M67 602l109 167l113 -47l-108 -120h-114zM252 602l108 167l114 -47l-108 -120h-114z" />
    <glyph glyph-name="commaaccent" unicode="&#x326;" horiz-adv-x="0" 
d="M-11 -284l57 101q-28 22 -22 62q4 34 29.5 56t58.5 22q31 0 50 -21t14 -56q-4 -32 -30 -63l-82 -101h-75z" />
    <glyph glyph-name="Delta" unicode="&#x394;" horiz-adv-x="760" 
d="M-3 0l405 700h163l198 -700h-766zM226 120h337l-108 415z" />
    <glyph glyph-name="Omega" unicode="&#x3a9;" horiz-adv-x="865" 
d="M8 0l19 129h187q-47 43 -71.5 113t-14.5 137q20 142 135.5 235.5t270.5 93.5q156 0 245 -93.5t69 -235.5q-10 -66 -54 -136t-104 -114h186l-19 -129h-343l17 120q66 38 115 107.5t59 137.5q13 91 -41 149.5t-149 58.5t-165.5 -59t-83.5 -149q-10 -69 19 -138t84 -108
l-17 -119h-344z" />
    <glyph glyph-name="pi" unicode="&#x3c0;" horiz-adv-x="728" 
d="M41 383q9 66 66 110.5t134 44.5h553l-16 -113h-133l-61 -425h-127l61 425h-108l-108 -425h-127l107 425h-38q-34 0 -58.5 -19.5t-28.5 -49.5q-5 -34 13 -70l-111 -39q-27 69 -18 136z" />
    <glyph glyph-name="Wgrave" unicode="&#x1e80;" horiz-adv-x="1066" 
d="M101 700h170l71 -528l222 528h155l72 -528l222 528h162l-333 -700h-163l-69 499l-216 -499h-163zM473 875l151 53l83 -163h-123z" />
    <glyph glyph-name="wgrave" unicode="&#x1e81;" horiz-adv-x="923" 
d="M74 537l158 1l64 -385l172 385h151l62 -385l174 385h152l-274 -538h-154l-65 355l-166 -355h-154zM395 712l150 53l84 -163h-123z" />
    <glyph glyph-name="Wacute" unicode="&#x1e82;" horiz-adv-x="1066" 
d="M101 700h170l71 -528l222 528h155l72 -528l222 528h162l-333 -700h-163l-69 499l-216 -499h-163zM547 765l130 163l135 -54l-143 -109h-122z" />
    <glyph glyph-name="wacute" unicode="&#x1e83;" horiz-adv-x="923" 
d="M74 537l158 1l64 -385l172 385h151l62 -385l174 385h152l-274 -538h-154l-65 355l-166 -355h-154zM469 602l129 163l135 -54l-142 -109h-122z" />
    <glyph glyph-name="Wdieresis" unicode="&#x1e84;" horiz-adv-x="1066" 
d="M101 700h170l71 -528l222 528h155l72 -528l222 528h162l-333 -700h-163l-69 499l-216 -499h-163zM474 857q4 33 27.5 54t55.5 21t49 -21t13 -54q-4 -32 -27.5 -53t-55.5 -21t-49 21t-13 53zM662 857q4 33 27.5 54t55.5 21t49 -21t13 -54q-4 -32 -27.5 -53t-55.5 -21
t-49 21t-13 53z" />
    <glyph glyph-name="wdieresis" unicode="&#x1e85;" horiz-adv-x="923" 
d="M74 537l158 1l64 -385l172 385h151l62 -385l174 385h152l-274 -538h-154l-65 355l-166 -355h-154zM396 694q4 33 27.5 54t55.5 21t49 -21t13 -54q-4 -32 -28 -53t-56 -21q-31 0 -48.5 21t-12.5 53zM584 694q4 33 27.5 54t55.5 21t49 -21t13 -54q-4 -32 -28 -53t-56 -21
q-31 0 -48.5 21t-12.5 53z" />
    <glyph glyph-name="Ygrave" unicode="&#x1ef2;" horiz-adv-x="666" 
d="M98 700h159l134 -314l220 314h159l-323 -474l-33 -226h-158l32 222zM289 875l151 53l83 -163h-123z" />
    <glyph glyph-name="ygrave" unicode="&#x1ef3;" horiz-adv-x="564" 
d="M-29 -149l81 111q30 -29 65 -29q48 0 78 48l20 30l-147 527h159l87 -370l181 370h154l-323 -598q-77 -141 -217 -141q-82 0 -138 52zM216 712l150 53l84 -163h-123z" />
    <glyph glyph-name="endash" unicode="&#x2013;" horiz-adv-x="407" 
d="M32 219l14 102h407l-14 -102h-407z" />
    <glyph glyph-name="emdash" unicode="&#x2014;" horiz-adv-x="662" 
d="M32 219l14 102h662l-14 -102h-662z" />
    <glyph glyph-name="quoteleft" unicode="&#x2018;" horiz-adv-x="232" 
d="M108 540q4 32 30 63l81 101h75l-56 -102q27 -21 21 -61q-5 -34 -29.5 -56t-57.5 -22q-31 0 -50 21t-14 56z" />
    <glyph glyph-name="quoteright" unicode="&#x2019;" horiz-adv-x="232" 
d="M96 460l57 101q-28 22 -22 62q4 34 29.5 56t58.5 22q31 0 50 -21t14 -57q-4 -33 -30 -62l-82 -101h-75z" />
    <glyph glyph-name="quotesinglbase" unicode="&#x201a;" horiz-adv-x="232" 
d="M17 -92l56 101q-28 22 -22 62q5 34 30 56t58 22q31 0 50 -21t14 -57q-4 -33 -30 -62l-81 -101h-75z" />
    <glyph glyph-name="quotedblleft" unicode="&#x201c;" horiz-adv-x="362" 
d="M108 541q4 33 30 62l81 101h75l-56 -101q28 -22 22 -62q-5 -34 -30 -56t-58 -22q-31 0 -50 21t-14 57zM281 541q4 33 30 62l81 101h75l-56 -101q28 -22 22 -62q-5 -34 -30 -56t-58 -22q-31 0 -50 21t-14 57z" />
    <glyph glyph-name="quotedblright" unicode="&#x201d;" horiz-adv-x="386" 
d="M96 460l57 101q-28 22 -22 62q5 34 30 56t58 22q31 0 50 -21t14 -57q-4 -33 -30 -62l-82 -101h-75zM269 460l57 101q-28 22 -22 62q5 34 30 56t58 22q31 0 50 -21t14 -57q-4 -33 -30 -62l-82 -101h-75z" />
    <glyph glyph-name="quotedblbase" unicode="&#x201e;" horiz-adv-x="405" 
d="M17 -92l56 101q-28 22 -22 62q5 34 30 56t58 22q31 0 50 -21t14 -57q-4 -33 -30 -62l-81 -101h-75zM190 -92l56 101q-28 22 -22 62q5 34 30 56t58 22q31 0 50 -21t14 -57q-4 -33 -30 -62l-81 -101h-75z" />
    <glyph glyph-name="dagger" unicode="&#x2020;" horiz-adv-x="561" 
d="M69 361l19 131h187l30 207h149l-30 -207h192l-19 -131h-192l-79 -549h-149l79 549h-187z" />
    <glyph glyph-name="daggerdbl" unicode="&#x2021;" horiz-adv-x="561" 
d="M22 34l19 131h187l28 196h-187l19 131h187l30 207h149l-30 -207h192l-19 -131h-192l-28 -196h192l-19 -131h-192l-32 -222h-149l32 222h-187z" />
    <glyph glyph-name="bullet" unicode="&#x2022;" horiz-adv-x="312" 
d="M79 274q7 52 44.5 85t87.5 33q51 0 79 -33t20 -85q-8 -53 -45 -86.5t-88 -33.5q-50 0 -77.5 34t-20.5 86z" />
    <glyph glyph-name="ellipsis" unicode="&#x2026;" horiz-adv-x="656" 
d="M50 69q4 34 29 55.5t57 21.5t50 -21.5t14 -55.5t-29 -55.5t-57 -21.5t-50 21.5t-14 55.5zM263 69q4 34 29 55.5t57 21.5t50 -21.5t14 -55.5t-29 -55.5t-57 -21.5t-50 21.5t-14 55.5zM476 69q4 34 28.5 55.5t57.5 21.5q32 0 50 -21.5t13 -55.5q-4 -34 -28.5 -55.5
t-56.5 -21.5q-33 0 -51 21.5t-13 55.5z" />
    <glyph glyph-name="perthousand" unicode="&#x2030;" horiz-adv-x="1458" 
d="M105 493q14 98 73.5 154t147.5 56q89 0 132.5 -56.5t29.5 -153.5q-14 -98 -74 -155t-149 -57q-88 0 -131 57t-29 155zM175 0l607 700h144l-605 -700h-146zM204 493q-8 -59 11.5 -92t62.5 -33q44 0 73.5 33t37.5 92q8 58 -11.5 91t-63.5 33q-43 0 -72.5 -33t-37.5 -91z
M620 208q14 98 73.5 154.5t147.5 56.5q89 0 132.5 -56.5t29.5 -154.5t-73.5 -154.5t-148.5 -56.5t-132 56.5t-29 154.5zM719 208q-8 -59 11.5 -92t62.5 -33q44 0 73.5 33t37.5 92t-11.5 92t-63.5 33q-43 0 -72.5 -33t-37.5 -92zM1071 208q14 98 73.5 154.5t147.5 56.5
q89 0 132.5 -56.5t29.5 -154.5t-73.5 -154.5t-148.5 -56.5t-132 56.5t-29 154.5zM1170 208q-8 -59 11.5 -92t62.5 -33q44 0 73.5 33t37.5 92t-11.5 92t-63.5 33q-43 0 -72.5 -33t-37.5 -92z" />
    <glyph glyph-name="guilsinglleft" unicode="&#x2039;" horiz-adv-x="279" 
d="M47 265l145 181h126l-133 -181l81 -182h-126z" />
    <glyph glyph-name="guilsinglright" unicode="&#x203a;" horiz-adv-x="287" 
d="M60 83l133 182l-81 181h126l93 -181l-145 -182h-126z" />
    <glyph glyph-name="fraction" unicode="&#x2044;" horiz-adv-x="105" 
d="M-276 0l607 700h144l-605 -700h-146z" />
    <glyph glyph-name="euro" unicode="&#x20ac;" horiz-adv-x="784" 
d="M65 239l11 74h89q2 26 4 38q2 15 8 43h-89l10 74h106q52 107 157.5 172t231.5 65q76 0 145 -31t114 -85l-108 -112q-30 42 -75.5 66.5t-94.5 24.5q-57 0 -109 -27t-87 -73h231l-10 -74h-259q-7 -17 -10 -41q-3 -21 -3 -40h260l-11 -74h-232q21 -47 65.5 -74.5
t102.5 -27.5q100 0 195 82l77 -101q-64 -58 -144 -91.5t-157 -33.5q-125 0 -210 68t-104 178h-104z" />
    <glyph glyph-name="literSign" unicode="&#x2113;" horiz-adv-x="471" 
d="M41 185l91 59l75 245q35 110 92.5 164.5t125.5 54.5q54 0 80.5 -35t17.5 -98q-6 -42 -27.5 -85t-49 -78t-67.5 -73t-71.5 -63.5t-73.5 -56.5q-36 -117 39 -117q57 0 136 81l40 -58q-102 -130 -226 -130q-132 0 -116 154l-52 -31zM270 337q63 52 110.5 116t55.5 120
q6 50 -27 50q-50 0 -88 -120z" />
    <glyph glyph-name="trademark" unicode="&#x2122;" horiz-adv-x="898" 
d="M80 607l14 93h342l-14 -93h-116l-47 -327h-112l47 327h-114zM422 280l61 420h125l76 -239l146 239h125l-61 -420h-101l38 258l-129 -216h-76l-64 216l-38 -258h-102z" />
    <glyph glyph-name="estimated" unicode="&#x212e;" horiz-adv-x="809" 
d="M116 319q18 125 128.5 213.5t249.5 88.5t224.5 -88.5t67.5 -213.5l-1 -7h-543q-6 0 -6 -4l-23 -164q-1 -9 5 -19q70 -89 193 -89q130 0 229 99h49q-54 -54 -128 -85.5t-153 -31.5q-139 0 -224.5 88.5t-67.5 212.5zM240 333q0 -5 4 -5h416q6 0 6 5l24 165q1 11 -6 20
q-74 85 -191 85q-120 0 -218 -88q-11 -9 -12 -20z" />
    <glyph glyph-name="oneeighth" unicode="&#x215b;" horiz-adv-x="875" 
d="M61 0l607 700h144l-605 -700h-146zM100 613l13 87h189l-60 -416h-108l47 329h-81zM508 116q5 35 31.5 64t66.5 42q-56 33 -48 90q7 49 53.5 78.5t117.5 29.5t108.5 -30t30.5 -82q-8 -55 -67 -86q33 -14 50 -42t12 -62q-8 -57 -61 -90t-134 -33q-82 0 -125 32.5t-35 88.5z
M613 127q-4 -25 13.5 -38.5t53.5 -13.5q73 0 81 52q4 25 -13.5 38.5t-53.5 13.5q-73 0 -81 -52zM649 302q-6 -45 57 -45q64 0 70 45q3 22 -12 34.5t-45 12.5q-64 0 -70 -47z" />
    <glyph glyph-name="threeeighths" unicode="&#x215c;" horiz-adv-x="935" 
d="M55 330l56 83q41 -52 100 -52q68 0 76 53q4 24 -12 37t-49 13h-69l8 58l114 97h-162l12 80h286l-9 -62l-124 -105l20 -4q48 -7 73.5 -36.5t18.5 -76.5q-9 -61 -60 -98.5t-126 -37.5q-95 0 -153 51zM121 0l607 700h144l-605 -700h-146zM568 116q5 35 31.5 64t66.5 42
q-56 33 -48 90q7 49 53.5 78.5t117.5 29.5t108.5 -30t30.5 -82q-8 -55 -67 -86q33 -14 50 -42t12 -62q-8 -57 -61 -90t-134 -33q-82 0 -125 32.5t-35 88.5zM673 127q-4 -25 13.5 -38.5t53.5 -13.5q73 0 81 52q4 25 -13.5 38.5t-53.5 13.5q-73 0 -81 -52zM709 302
q-6 -45 57 -45q64 0 70 45q3 22 -12 34.5t-45 12.5q-64 0 -70 -47z" />
    <glyph glyph-name="fiveeighths" unicode="&#x215d;" horiz-adv-x="951" 
d="M65 331l55 84q43 -54 103 -54q68 0 76 56q3 23 -13 36t-48 13q-84 0 -119 -5l35 239h284l-12 -84h-184l-11 -73q15 3 40 3q75 0 114.5 -33t31.5 -89q-10 -65 -62.5 -104.5t-130.5 -39.5q-92 0 -159 51zM137 0l607 700h144l-605 -700h-146zM584 116q5 35 31.5 64t66.5 42
q-56 33 -48 90q7 49 53.5 78.5t117.5 29.5t108.5 -30t30.5 -82q-8 -55 -67 -86q33 -14 50 -42t12 -62q-8 -57 -61 -90t-134 -33q-82 0 -125 32.5t-35 88.5zM689 127q-4 -25 13.5 -38.5t53.5 -13.5q73 0 81 52q4 25 -13.5 38.5t-53.5 13.5q-73 0 -81 -52zM725 302
q-6 -45 57 -45q64 0 70 45q3 22 -12 34.5t-45 12.5q-64 0 -70 -47z" />
    <glyph glyph-name="seveneighths" unicode="&#x215e;" horiz-adv-x="921" 
d="M108 0l607 700h144l-605 -700h-146zM108 556l21 144h338l-11 -75l-210 -341h-116l205 332h-122l-9 -60h-96zM554 116q5 35 31.5 64t66.5 42q-56 33 -48 90q7 49 53.5 78.5t117.5 29.5t108.5 -30t30.5 -82q-8 -55 -67 -86q33 -14 50 -42t12 -62q-8 -57 -61 -90t-134 -33
q-82 0 -125 32.5t-35 88.5zM659 127q-4 -25 13.5 -38.5t53.5 -13.5q73 0 81 52q4 25 -13.5 38.5t-53.5 13.5q-73 0 -81 -52zM695 302q-6 -45 57 -45q64 0 70 45q3 22 -12 34.5t-45 12.5q-64 0 -70 -47z" />
    <glyph glyph-name="partialdiff" unicode="&#x2202;" horiz-adv-x="627" 
d="M63 232q15 103 87 164.5t176 61.5q63 0 103 -25.5t54 -69.5q21 103 -14.5 159.5t-121.5 56.5q-91 0 -164 -54l-45 116q112 66 237 66q141 0 211 -98.5t47 -262.5q-24 -164 -116.5 -258.5t-230.5 -94.5q-117 0 -178 64.5t-45 174.5zM211 234q-7 -52 19.5 -80.5t81.5 -28.5
q57 0 91.5 31t41.5 74q7 48 -21 78t-85 30q-53 0 -87 -27.5t-41 -76.5z" />
    <glyph glyph-name="product" unicode="&#x220f;" horiz-adv-x="744" 
d="M49 -194l135 936h590l-135 -936h-154l117 810h-282l-117 -810h-154z" />
    <glyph glyph-name="summation" unicode="&#x2211;" horiz-adv-x="615" 
d="M9 -138l17 115l321 326l-219 323l17 118h562l-20 -138h-379l207 -302l-295 -304h390l-20 -138h-581z" />
    <glyph glyph-name="minus" unicode="&#x2212;" horiz-adv-x="506" 
d="M73 275l14 102h440l-14 -102h-440z" />
    <glyph glyph-name="divisionslash" unicode="&#x2215;" horiz-adv-x="346" 
d="M-47 -112l454 924h130l-455 -924h-129z" />
    <glyph glyph-name="bulletoperator" unicode="&#x2219;" horiz-adv-x="312" 
d="M79 274q7 52 44.5 85t87.5 33q51 0 79 -33t20 -85q-8 -53 -45 -86.5t-88 -33.5q-50 0 -77.5 34t-20.5 86z" />
    <glyph glyph-name="radical" unicode="&#x221a;" horiz-adv-x="702" 
d="M45 280l19 126h231l60 -402l315 743h147l-403 -903h-164l-80 436h-125z" />
    <glyph glyph-name="infinity" unicode="&#x221e;" horiz-adv-x="861" 
d="M71 299q14 92 79.5 152t151.5 60q70 0 111 -33t71 -93q47 60 98.5 93t124.5 33q86 0 134 -60t35 -151q-14 -92 -79 -151.5t-151 -59.5q-70 0 -111.5 33t-71.5 93q-47 -60 -98.5 -93.5t-123.5 -33.5q-86 0 -134.5 60t-35.5 151zM176 299q-7 -44 16 -73t64 -29
q51 0 88.5 26.5t77.5 77.5q-25 49 -55.5 75t-80.5 26q-41 0 -72 -29.5t-38 -73.5zM525 298q25 -49 55.5 -75t80.5 -26q41 0 72.5 29.5t38.5 73.5t-16.5 73t-64.5 29q-51 0 -89 -27t-77 -77z" />
    <glyph glyph-name="integral" unicode="&#x222b;" horiz-adv-x="374" 
d="M-32 -111l34 103q34 -18 59 -18q44 0 67 27t32 91q8 56 25 262t24 257q19 129 66.5 183.5t142.5 54.5q40 0 85 -22l-31 -102q-28 11 -52 11q-43 0 -64 -25t-30 -86q-7 -48 -25 -256t-26 -266q-19 -129 -67.5 -184t-143.5 -55q-60 0 -96 25z" />
    <glyph glyph-name="approxequal" unicode="&#x2248;" horiz-adv-x="506" 
d="M79 134q24 162 131 162q37 0 78.5 -26t55.5 -26q35 0 41 47h104q-24 -162 -130 -162q-39 0 -80 26t-55 26q-35 0 -41 -47h-104zM112 362q24 162 131 162q37 0 78.5 -26t55.5 -26q35 0 41 47h104q-24 -163 -131 -163q-39 0 -79.5 26.5t-54.5 26.5q-35 0 -41 -47h-104z" />
    <glyph glyph-name="notequal" unicode="&#x2260;" horiz-adv-x="506" 
d="M57 168l15 102h140l51 112h-175l15 102h207l64 139h116l-64 -139h117l-15 -102h-149l-51 -112h184l-15 -102h-217l-66 -144h-116l66 144h-107z" />
    <glyph glyph-name="lessequal" unicode="&#x2264;" horiz-adv-x="506" 
d="M34 7l15 102h440l-15 -102h-440zM81 334l18 126l466 179l-16 -110l-358 -132l320 -132l-16 -110z" />
    <glyph glyph-name="greaterequal" unicode="&#x2265;" horiz-adv-x="506" 
d="M34 7l15 102h440l-15 -102h-440zM56 162l16 109l358 133l-320 132l16 110l413 -180l-18 -125z" />
    <glyph glyph-name="lozenge" unicode="&#x25ca;" horiz-adv-x="517" 
d="M76 330l280 342l181 -342l-282 -345zM195 330l87 -163l136 163l-89 162z" />
    <glyph glyph-name="A.ss01" horiz-adv-x="764" 
d="M64 0l59 406q20 138 117 219.5t242 81.5q148 0 222.5 -81.5t54.5 -219.5l-59 -406h-158l25 173h-320l-25 -173h-158zM265 301h320l16 105q10 75 -26.5 119t-110.5 44t-123 -44t-60 -119z" />
    <glyph glyph-name="Aacute.ss01" horiz-adv-x="764" 
d="M64 0l59 406q20 138 117 219.5t242 81.5q148 0 222.5 -81.5t54.5 -219.5l-59 -406h-158l25 173h-320l-25 -173h-158zM265 301h320l16 105q10 75 -26.5 119t-110.5 44t-123 -44t-60 -119zM412 765l130 163l135 -54l-143 -109h-122z" />
    <glyph glyph-name="Abreve.ss01" horiz-adv-x="764" 
d="M64 0l59 406q20 138 117 219.5t242 81.5q148 0 222.5 -81.5t54.5 -219.5l-59 -406h-158l25 173h-320l-25 -173h-158zM265 301h320l16 105q10 75 -26.5 119t-110.5 44t-123 -44t-60 -119zM358 919h98q-2 -27 12 -43.5t38 -16.5t42.5 16.5t23.5 43.5h98q-13 -70 -61.5 -112
t-116.5 -42q-67 0 -104 42t-30 112z" />
    <glyph glyph-name="Acircumflex.ss01" horiz-adv-x="764" 
d="M64 0l59 406q20 138 117 219.5t242 81.5q148 0 222.5 -81.5t54.5 -219.5l-59 -406h-158l25 173h-320l-25 -173h-158zM265 301h320l16 105q10 75 -26.5 119t-110.5 44t-123 -44t-60 -119zM320 773l131 148h128l87 -148h-113l-47 85l-73 -85h-113z" />
    <glyph glyph-name="Adieresis.ss01" horiz-adv-x="764" 
d="M64 0l59 406q20 138 117 219.5t242 81.5q148 0 222.5 -81.5t54.5 -219.5l-59 -406h-158l25 173h-320l-25 -173h-158zM265 301h320l16 105q10 75 -26.5 119t-110.5 44t-123 -44t-60 -119zM339 857q4 33 27.5 54t55.5 21t49 -21t13 -54q-4 -32 -27.5 -53t-55.5 -21t-49 21
t-13 53zM527 857q4 33 27.5 54t55.5 21t49 -21t13 -54q-4 -32 -27.5 -53t-55.5 -21t-49 21t-13 53z" />
    <glyph glyph-name="Agrave.ss01" horiz-adv-x="764" 
d="M64 0l59 406q20 138 117 219.5t242 81.5q148 0 222.5 -81.5t54.5 -219.5l-59 -406h-158l25 173h-320l-25 -173h-158zM265 301h320l16 105q10 75 -26.5 119t-110.5 44t-123 -44t-60 -119zM338 875l151 53l83 -163h-123z" />
    <glyph glyph-name="Amacron.ss01" horiz-adv-x="764" 
d="M64 0l59 406q20 138 117 219.5t242 81.5q148 0 222.5 -81.5t54.5 -219.5l-59 -406h-158l25 173h-320l-25 -173h-158zM265 301h320l16 105q10 75 -26.5 119t-110.5 44t-123 -44t-60 -119zM362 797l15 108h271l-15 -108h-271z" />
    <glyph glyph-name="Aogonek.ss01" horiz-adv-x="769" 
d="M64 0l59 406q20 138 117 219.5t242 81.5q148 0 222.5 -81.5t54.5 -219.5l-59 -406h-38q-54 -63 -59 -96q-3 -25 21 -25q21 0 49 31l34 -48q-47 -64 -113 -64q-35 0 -57 20t-16 61q8 52 66 121h-45l25 173h-320l-25 -173h-158zM265 301h320l16 105q10 75 -26.5 119
t-110.5 44t-123 -44t-60 -119z" />
    <glyph glyph-name="Aring.ss01" horiz-adv-x="764" 
d="M64 0l59 406q20 138 117 219.5t242 81.5q148 0 222.5 -81.5t54.5 -219.5l-59 -406h-158l25 173h-320l-25 -173h-158zM265 301h320l16 105q10 75 -26.5 119t-110.5 44t-123 -44t-60 -119zM385 855q7 49 47.5 84t89.5 35t79.5 -35t23.5 -84q-8 -50 -48 -84.5t-89 -34.5
q-50 0 -80 35t-23 84zM448 855q-3 -23 11 -39t38 -16t43.5 16t22.5 39t-11.5 38.5t-38.5 15.5t-43 -16t-22 -38z" />
    <glyph glyph-name="Atilde.ss01" horiz-adv-x="764" 
d="M64 0l59 406q20 138 117 219.5t242 81.5q148 0 222.5 -81.5t54.5 -219.5l-59 -406h-158l25 173h-320l-25 -173h-158zM265 301h320l16 105q10 75 -26.5 119t-110.5 44t-123 -44t-60 -119zM323 785q22 151 122 151q25 0 46 -12.5t36.5 -25t27.5 -12.5q33 0 39 44h95
q-21 -149 -121 -149q-34 0 -66 24.5t-44 24.5q-34 0 -40 -45h-95z" />
    <glyph glyph-name="E.ss01" horiz-adv-x="601" 
d="M65 191q9 62 55.5 111t115.5 68q-46 16 -70 58.5t-16 95.5q12 82 91.5 132.5t195.5 50.5q59 0 120 -13.5t98 -35.5l-68 -120q-73 35 -155 35q-56 0 -94 -19t-43 -55q-5 -32 19.5 -53.5t68.5 -21.5h157l-18 -128h-157q-53 0 -91 -23.5t-43 -59.5q-6 -39 29 -62t93 -23
q48 0 106 16.5t93 36.5l43 -120q-52 -30 -128 -49t-149 -19q-124 0 -195 55t-58 143z" />
    <glyph glyph-name="Eacute.ss01" horiz-adv-x="601" 
d="M65 191q9 62 55.5 111t115.5 68q-46 16 -70 58.5t-16 95.5q12 82 91.5 132.5t195.5 50.5q59 0 120 -13.5t98 -35.5l-68 -120q-73 35 -155 35q-56 0 -94 -19t-43 -55q-5 -32 19.5 -53.5t68.5 -21.5h157l-18 -128h-157q-53 0 -91 -23.5t-43 -59.5q-6 -39 29 -62t93 -23
q48 0 106 16.5t93 36.5l43 -120q-52 -30 -128 -49t-149 -19q-124 0 -195 55t-58 143zM331 765l130 163l135 -54l-143 -109h-122z" />
    <glyph glyph-name="Ebreve.ss01" horiz-adv-x="601" 
d="M65 191q9 62 55.5 111t115.5 68q-46 16 -70 58.5t-16 95.5q12 82 91.5 132.5t195.5 50.5q59 0 120 -13.5t98 -35.5l-68 -120q-73 35 -155 35q-56 0 -94 -19t-43 -55q-5 -32 19.5 -53.5t68.5 -21.5h157l-18 -128h-157q-53 0 -91 -23.5t-43 -59.5q-6 -39 29 -62t93 -23
q48 0 106 16.5t93 36.5l43 -120q-52 -30 -128 -49t-149 -19q-124 0 -195 55t-58 143zM277 919h98q-2 -27 12 -43.5t38 -16.5t42.5 16.5t23.5 43.5h98q-13 -70 -61.5 -112t-116.5 -42q-67 0 -104 42t-30 112z" />
    <glyph glyph-name="Ecaron.ss01" horiz-adv-x="601" 
d="M65 191q9 62 55.5 111t115.5 68q-46 16 -70 58.5t-16 95.5q12 82 91.5 132.5t195.5 50.5q59 0 120 -13.5t98 -35.5l-68 -120q-73 35 -155 35q-56 0 -94 -19t-43 -55q-5 -32 19.5 -53.5t68.5 -21.5h157l-18 -128h-157q-53 0 -91 -23.5t-43 -59.5q-6 -39 29 -62t93 -23
q48 0 106 16.5t93 36.5l43 -120q-52 -30 -128 -49t-149 -19q-124 0 -195 55t-58 143zM244 921h124l48 -92l76 92h124l-140 -160h-138z" />
    <glyph glyph-name="Ecircumflex.ss01" horiz-adv-x="601" 
d="M65 191q9 62 55.5 111t115.5 68q-46 16 -70 58.5t-16 95.5q12 82 91.5 132.5t195.5 50.5q59 0 120 -13.5t98 -35.5l-68 -120q-73 35 -155 35q-56 0 -94 -19t-43 -55q-5 -32 19.5 -53.5t68.5 -21.5h157l-18 -128h-157q-53 0 -91 -23.5t-43 -59.5q-6 -39 29 -62t93 -23
q48 0 106 16.5t93 36.5l43 -120q-52 -30 -128 -49t-149 -19q-124 0 -195 55t-58 143zM239 773l131 148h128l87 -148h-113l-47 85l-73 -85h-113z" />
    <glyph glyph-name="Edieresis.ss01" horiz-adv-x="601" 
d="M65 191q9 62 55.5 111t115.5 68q-46 16 -70 58.5t-16 95.5q12 82 91.5 132.5t195.5 50.5q59 0 120 -13.5t98 -35.5l-68 -120q-73 35 -155 35q-56 0 -94 -19t-43 -55q-5 -32 19.5 -53.5t68.5 -21.5h157l-18 -128h-157q-53 0 -91 -23.5t-43 -59.5q-6 -39 29 -62t93 -23
q48 0 106 16.5t93 36.5l43 -120q-52 -30 -128 -49t-149 -19q-124 0 -195 55t-58 143zM258 857q4 33 27.5 54t55.5 21t49 -21t13 -54q-4 -32 -27.5 -53t-55.5 -21t-49 21t-13 53zM446 857q4 33 27.5 54t55.5 21t49 -21t13 -54q-4 -32 -27.5 -53t-55.5 -21t-49 21t-13 53z" />
    <glyph glyph-name="Edotaccent.ss01" horiz-adv-x="601" 
d="M65 191q9 62 55.5 111t115.5 68q-46 16 -70 58.5t-16 95.5q12 82 91.5 132.5t195.5 50.5q59 0 120 -13.5t98 -35.5l-68 -120q-73 35 -155 35q-56 0 -94 -19t-43 -55q-5 -32 19.5 -53.5t68.5 -21.5h157l-18 -128h-157q-53 0 -91 -23.5t-43 -59.5q-6 -39 29 -62t93 -23
q48 0 106 16.5t93 36.5l43 -120q-52 -30 -128 -49t-149 -19q-124 0 -195 55t-58 143zM341 854q5 38 31.5 62t63.5 24t56.5 -24t14.5 -62t-31.5 -62t-63.5 -24t-56.5 24t-14.5 62z" />
    <glyph glyph-name="Egrave.ss01" horiz-adv-x="601" 
d="M65 191q9 62 55.5 111t115.5 68q-46 16 -70 58.5t-16 95.5q12 82 91.5 132.5t195.5 50.5q59 0 120 -13.5t98 -35.5l-68 -120q-73 35 -155 35q-56 0 -94 -19t-43 -55q-5 -32 19.5 -53.5t68.5 -21.5h157l-18 -128h-157q-53 0 -91 -23.5t-43 -59.5q-6 -39 29 -62t93 -23
q48 0 106 16.5t93 36.5l43 -120q-52 -30 -128 -49t-149 -19q-124 0 -195 55t-58 143zM257 875l151 53l83 -163h-123z" />
    <glyph glyph-name="Emacron.ss01" horiz-adv-x="601" 
d="M65 191q9 62 55.5 111t115.5 68q-46 16 -70 58.5t-16 95.5q12 82 91.5 132.5t195.5 50.5q59 0 120 -13.5t98 -35.5l-68 -120q-73 35 -155 35q-56 0 -94 -19t-43 -55q-5 -32 19.5 -53.5t68.5 -21.5h157l-18 -128h-157q-53 0 -91 -23.5t-43 -59.5q-6 -39 29 -62t93 -23
q48 0 106 16.5t93 36.5l43 -120q-52 -30 -128 -49t-149 -19q-124 0 -195 55t-58 143zM281 797l15 108h271l-15 -108h-271z" />
    <glyph glyph-name="Eogonek.ss01" horiz-adv-x="601" 
d="M65 191q9 62 55.5 111t115.5 68q-46 16 -70 58.5t-16 95.5q12 82 91.5 132.5t195.5 50.5q59 0 120 -13.5t98 -35.5l-68 -120q-73 35 -155 35q-56 0 -94 -19t-43 -55q-5 -32 19.5 -53.5t68.5 -21.5h157l-18 -128h-157q-53 0 -91 -23.5t-43 -59.5q-6 -39 29 -62t93 -23
q48 0 106 16.5t93 36.5l43 -120q-46 -26 -102 -42q-70 -78 -76 -115q-3 -25 21 -25q23 0 49 31l34 -48q-47 -64 -113 -64q-35 0 -57 20t-16 61q8 51 64 120q-41 -6 -81 -6q-124 0 -195 55t-58 143z" />
    <glyph glyph-name="F.ss01" horiz-adv-x="549" 
d="M64 0l68 469q16 109 93 173.5t191 64.5q137 0 229 -45l-56 -136q-95 43 -179 43q-48 0 -80.5 -28t-39.5 -75l-11 -79h266l-19 -131h-266l-37 -256h-159z" />
    <glyph glyph-name="G.ss01" horiz-adv-x="746" 
d="M77 350q22 151 146 253t286 102q77 0 149 -27.5t120 -74.5l-106 -113q-34 36 -82 57t-99 21q-93 0 -166 -63t-86 -155q-13 -93 39 -156t142 -63q87 0 156 67l23 163h137l-52 -361h-117l8 58q-97 -65 -193 -65q-152 0 -239.5 102.5t-65.5 254.5z" />
    <glyph glyph-name="Gbreve.ss01" horiz-adv-x="746" 
d="M77 350q22 151 146 253t286 102q77 0 149 -27.5t120 -74.5l-106 -113q-34 36 -82 57t-99 21q-93 0 -166 -63t-86 -155q-13 -93 39 -156t142 -63q87 0 156 67l23 163h137l-52 -361h-117l8 58q-97 -65 -193 -65q-152 0 -239.5 102.5t-65.5 254.5zM351 919h98
q-2 -27 12 -43.5t38 -16.5t42.5 16.5t23.5 43.5h98q-13 -70 -61.5 -112t-116.5 -42q-67 0 -104 42t-30 112z" />
    <glyph glyph-name="Gcircumflex.ss01" horiz-adv-x="746" 
d="M77 350q22 151 146 253t286 102q77 0 149 -27.5t120 -74.5l-106 -113q-34 36 -82 57t-99 21q-93 0 -166 -63t-86 -155q-13 -93 39 -156t142 -63q87 0 156 67l23 163h137l-52 -361h-117l8 58q-97 -65 -193 -65q-152 0 -239.5 102.5t-65.5 254.5zM313 773l131 148h128
l87 -148h-113l-47 85l-73 -85h-113z" />
    <glyph glyph-name="Gcommaaccent.ss01" horiz-adv-x="746" 
d="M77 350q22 151 146 253t286 102q77 0 149 -27.5t120 -74.5l-106 -113q-34 36 -82 57t-99 21q-93 0 -166 -63t-86 -155q-13 -93 39 -156t142 -63q87 0 156 67l23 163h137l-52 -361h-117l8 58q-97 -65 -193 -65q-152 0 -239.5 102.5t-65.5 254.5zM252 -284l57 101
q-28 22 -22 62q4 34 29.5 56t58.5 22q31 0 50 -21t14 -56q-4 -32 -30 -63l-82 -101h-75z" />
    <glyph glyph-name="Gdotaccent.ss01" horiz-adv-x="746" 
d="M77 350q22 151 146 253t286 102q77 0 149 -27.5t120 -74.5l-106 -113q-34 36 -82 57t-99 21q-93 0 -166 -63t-86 -155q-13 -93 39 -156t142 -63q87 0 156 67l23 163h137l-52 -361h-117l8 58q-97 -65 -193 -65q-152 0 -239.5 102.5t-65.5 254.5zM415 854q5 38 31.5 62
t63.5 24t56.5 -24t14.5 -62t-31.5 -62t-63.5 -24t-56.5 24t-14.5 62z" />
    <glyph glyph-name="I.ss01" horiz-adv-x="498" 
d="M47 0l19 132h123l63 437h-123l19 131h404l-19 -131h-123l-63 -437h123l-19 -132h-404z" />
    <glyph glyph-name="IJ.ss01" horiz-adv-x="1022" 
d="M47 0l19 132h123l63 437h-123l19 131h404l-19 -131h-123l-63 -437h123l-19 -132h-404zM494 2l89 112q63 -78 137 -78q39 0 64.5 23.5t32.5 68.5l64 438h-241l19 134h400l-83 -576q-16 -109 -87 -170t-181 -61q-137 0 -214 109z" />
    <glyph glyph-name="Iacute.ss01" horiz-adv-x="498" 
d="M47 0l19 132h123l63 437h-123l19 131h404l-19 -131h-123l-63 -437h123l-19 -132h-404zM279 765l130 163l135 -54l-143 -109h-122z" />
    <glyph glyph-name="Ibreve.ss01" horiz-adv-x="498" 
d="M47 0l19 132h123l63 437h-123l19 131h404l-19 -131h-123l-63 -437h123l-19 -132h-404zM225 919h98q-2 -27 12 -43.5t38 -16.5t42.5 16.5t23.5 43.5h98q-13 -70 -61.5 -112t-116.5 -42q-67 0 -104 42t-30 112z" />
    <glyph glyph-name="Icircumflex.ss01" horiz-adv-x="498" 
d="M47 0l19 132h123l63 437h-123l19 131h404l-19 -131h-123l-63 -437h123l-19 -132h-404zM187 773l131 148h128l87 -148h-113l-47 85l-73 -85h-113z" />
    <glyph glyph-name="Idieresis.ss01" horiz-adv-x="498" 
d="M47 0l19 132h123l63 437h-123l19 131h404l-19 -131h-123l-63 -437h123l-19 -132h-404zM206 857q4 33 27.5 54t55.5 21t49 -21t13 -54q-4 -32 -27.5 -53t-55.5 -21t-49 21t-13 53zM394 857q4 33 27.5 54t55.5 21t49 -21t13 -54q-4 -32 -27.5 -53t-55.5 -21t-49 21t-13 53z
" />
    <glyph glyph-name="Idotaccent.ss01" horiz-adv-x="498" 
d="M47 0l19 132h123l63 437h-123l19 131h404l-19 -131h-123l-63 -437h123l-19 -132h-404zM289 854q5 38 31.5 62t63.5 24t56.5 -24t14.5 -62t-31.5 -62t-63.5 -24t-56.5 24t-14.5 62z" />
    <glyph glyph-name="Igrave.ss01" horiz-adv-x="498" 
d="M47 0l19 132h123l63 437h-123l19 131h404l-19 -131h-123l-63 -437h123l-19 -132h-404zM205 875l151 53l83 -163h-123z" />
    <glyph glyph-name="Imacron.ss01" horiz-adv-x="498" 
d="M47 0l19 132h123l63 437h-123l19 131h404l-19 -131h-123l-63 -437h123l-19 -132h-404zM229 797l15 108h271l-15 -108h-271z" />
    <glyph glyph-name="Iogonek.ss01" horiz-adv-x="498" 
d="M47 0l19 132h123l63 437h-123l19 131h404l-19 -131h-123l-63 -437h123l-19 -132h-69q-53 -64 -58 -96q-3 -25 21 -25q23 0 49 31l34 -48q-47 -64 -113 -64q-35 0 -57 20t-16 61q8 55 65 121h-260z" />
    <glyph glyph-name="Itilde.ss01" horiz-adv-x="498" 
d="M47 0l19 132h123l63 437h-123l19 131h404l-19 -131h-123l-63 -437h123l-19 -132h-404zM190 785q22 151 122 151q32 0 65 -25t45 -25q33 0 39 44h95q-21 -149 -121 -149q-34 0 -66 24.5t-44 24.5q-34 0 -40 -45h-95z" />
    <glyph glyph-name="J.ss01" horiz-adv-x="524" 
d="M-4 2l89 112q63 -78 137 -78q39 0 64.5 23.5t32.5 68.5l64 438h-241l19 134h400l-83 -576q-16 -109 -87 -170t-181 -61q-137 0 -214 109z" />
    <glyph glyph-name="M.ss01" horiz-adv-x="1183" 
d="M77 0l101 700h158l-16 -112q88 110 230 112q73 0 122.5 -39t65.5 -107q42 69 107.5 107t145.5 39q101 0 154.5 -71t37.5 -185l-64 -444h-160l58 405q10 66 -19.5 106.5t-88.5 40.5q-67 -1 -117 -50.5t-61 -124.5l-54 -377h-160l58 405q10 66 -19.5 106.5t-88.5 40.5
q-67 -1 -117 -50.5t-61 -124.5l-54 -377h-158z" />
    <glyph glyph-name="N.ss01" 
d="M77 0l101 700h158l-17 -115q91 113 243 115q108 0 164 -70.5t40 -185.5l-64 -444h-160l59 406q9 65 -23.5 105.5t-95.5 40.5q-74 -1 -128 -50.5t-65 -124.5l-54 -377h-158z" />
    <glyph glyph-name="Nacute.ss01" 
d="M77 0l101 700h158l-17 -115q91 113 243 115q108 0 164 -70.5t40 -185.5l-64 -444h-160l59 406q9 65 -23.5 105.5t-95.5 40.5q-74 -1 -128 -50.5t-65 -124.5l-54 -377h-158zM420 765l130 163l135 -54l-143 -109h-122z" />
    <glyph glyph-name="Ncaron.ss01" 
d="M77 0l101 700h158l-17 -115q91 113 243 115q108 0 164 -70.5t40 -185.5l-64 -444h-160l59 406q9 65 -23.5 105.5t-95.5 40.5q-74 -1 -128 -50.5t-65 -124.5l-54 -377h-158zM334 921h124l48 -92l76 92h124l-140 -160h-138z" />
    <glyph glyph-name="Ncommaaccent.ss01" 
d="M77 0l101 700h158l-17 -115q91 113 243 115q108 0 164 -70.5t40 -185.5l-64 -444h-160l59 406q9 65 -23.5 105.5t-95.5 40.5q-74 -1 -128 -50.5t-65 -124.5l-54 -377h-158zM261 -284l57 101q-28 22 -22 62q4 34 29.5 56t58.5 22q31 0 50 -21t14 -56q-4 -32 -30 -63
l-82 -101h-75z" />
    <glyph glyph-name="Eng.ss01" 
d="M77 0l101 700h158l-17 -115q91 113 243 115q108 0 164 -70.5t40 -185.5l-64 -444q-16 -99 -87.5 -155.5t-177.5 -56.5q-109 0 -176 64l78 122q53 -43 112 -43q38 0 62.5 22t30.5 64l57 389q9 65 -23.5 105.5t-95.5 40.5q-74 -1 -128 -50.5t-65 -124.5l-54 -377h-158z" />
    <glyph glyph-name="Ntilde.ss01" 
d="M77 0l101 700h158l-17 -115q91 113 243 115q108 0 164 -70.5t40 -185.5l-64 -444h-160l59 406q9 65 -23.5 105.5t-95.5 40.5q-74 -1 -128 -50.5t-65 -124.5l-54 -377h-158zM331 785q22 151 122 151q25 0 46 -12.5t36.5 -25t27.5 -12.5q33 0 39 44h95q-21 -149 -121 -149
q-34 0 -66 24.5t-44 24.5q-34 0 -40 -45h-95z" />
    <glyph glyph-name="Q.ss01" horiz-adv-x="806" 
d="M77 350q22 153 144.5 254t283.5 101t253.5 -101.5t70.5 -253.5q-20 -138 -125.5 -237.5t-249.5 -116.5l-17 -118h-114l18 119q-135 20 -209 118.5t-55 234.5zM239 350q-10 -74 24.5 -131t97.5 -78l21 144h114l-21 -148q73 17 127 76t65 137q13 92 -39.5 154.5
t-140.5 62.5q-89 0 -162 -63t-86 -154z" />
    <glyph glyph-name="T.ss01" horiz-adv-x="674" 
d="M112 630q149 77 323 77q172 0 302 -78l-66 -127q-79 44 -177 59l-81 -561h-158l81 561q-104 -14 -196 -59z" />
    <glyph glyph-name="Tbar.ss01" horiz-adv-x="674" 
d="M112 630q149 77 323 77q172 0 302 -78l-66 -127q-79 44 -177 59l-81 -561h-158l81 561q-104 -14 -196 -59zM317 797l15 108h271l-15 -108h-271z" />
    <glyph glyph-name="Tcaron.ss01" horiz-adv-x="674" 
d="M112 630q149 77 323 77q172 0 302 -78l-66 -127q-79 44 -177 59l-81 -561h-158l81 561q-104 -14 -196 -59zM280 921h124l48 -92l76 92h124l-140 -160h-138z" />
    <glyph glyph-name="Tcedilla.ss01" horiz-adv-x="674" 
d="M112 630q149 77 323 77q172 0 302 -78l-66 -127q-79 44 -177 59l-81 -561h-30l-32 -50q30 -8 45 -29.5t11 -51.5q-7 -46 -43.5 -73.5t-88.5 -27.5q-51 0 -89 30l39 67q20 -20 49 -20q19 0 32.5 11t15.5 27t-8.5 26t-32.5 10q-12 0 -36 -4l51 85h-41l81 561
q-104 -14 -196 -59z" />
    <glyph glyph-name="Tcommaaccent.ss01" horiz-adv-x="674" 
d="M112 630q149 77 323 77q172 0 302 -78l-66 -127q-79 44 -177 59l-81 -561h-158l81 561q-104 -14 -196 -59zM199 -284l57 101q-28 22 -22 62q4 34 29.5 56t58.5 22q31 0 50 -21t14 -56q-4 -32 -30 -63l-82 -101h-75z" />
    <glyph glyph-name="U.ss01" 
d="M102 256l64 444h160l-59 -406q-9 -65 23.5 -105.5t95.5 -40.5q74 1 128 50.5t65 124.5l54 377h158l-101 -700h-158l17 115q-91 -113 -243 -115q-108 0 -164 70.5t-40 185.5z" />
    <glyph glyph-name="Uacute.ss01" 
d="M102 256l64 444h160l-59 -406q-9 -65 23.5 -105.5t95.5 -40.5q74 1 128 50.5t65 124.5l54 377h158l-101 -700h-158l17 115q-91 -113 -243 -115q-108 0 -164 70.5t-40 185.5zM417 765l130 163l135 -54l-143 -109h-122z" />
    <glyph glyph-name="Ubreve.ss01" 
d="M102 256l64 444h160l-59 -406q-9 -65 23.5 -105.5t95.5 -40.5q74 1 128 50.5t65 124.5l54 377h158l-101 -700h-158l17 115q-91 -113 -243 -115q-108 0 -164 70.5t-40 185.5zM363 919h98q-2 -27 12 -43.5t38 -16.5t42.5 16.5t23.5 43.5h98q-13 -70 -61.5 -112t-116.5 -42
q-67 0 -104 42t-30 112z" />
    <glyph glyph-name="Ucircumflex.ss01" 
d="M102 256l64 444h160l-59 -406q-9 -65 23.5 -105.5t95.5 -40.5q74 1 128 50.5t65 124.5l54 377h158l-101 -700h-158l17 115q-91 -113 -243 -115q-108 0 -164 70.5t-40 185.5zM325 773l131 148h128l87 -148h-113l-47 85l-73 -85h-113z" />
    <glyph glyph-name="Udieresis.ss01" 
d="M102 256l64 444h160l-59 -406q-9 -65 23.5 -105.5t95.5 -40.5q74 1 128 50.5t65 124.5l54 377h158l-101 -700h-158l17 115q-91 -113 -243 -115q-108 0 -164 70.5t-40 185.5zM344 857q4 33 27.5 54t55.5 21t49 -21t13 -54q-4 -32 -27.5 -53t-55.5 -21t-49 21t-13 53z
M532 857q4 33 27.5 54t55.5 21t49 -21t13 -54q-4 -32 -27.5 -53t-55.5 -21t-49 21t-13 53z" />
    <glyph glyph-name="Ugrave.ss01" 
d="M102 256l64 444h160l-59 -406q-9 -65 23.5 -105.5t95.5 -40.5q74 1 128 50.5t65 124.5l54 377h158l-101 -700h-158l17 115q-91 -113 -243 -115q-108 0 -164 70.5t-40 185.5zM343 875l151 53l83 -163h-123z" />
    <glyph glyph-name="Uhungarumlaut.ss01" 
d="M102 256l64 444h160l-59 -406q-9 -65 23.5 -105.5t95.5 -40.5q74 1 128 50.5t65 124.5l54 377h158l-101 -700h-158l17 115q-91 -113 -243 -115q-108 0 -164 70.5t-40 185.5zM332 763l109 167l113 -47l-108 -120h-114zM517 763l108 167l114 -47l-108 -120h-114z" />
    <glyph glyph-name="Umacron.ss01" 
d="M102 256l64 444h160l-59 -406q-9 -65 23.5 -105.5t95.5 -40.5q74 1 128 50.5t65 124.5l54 377h158l-101 -700h-158l17 115q-91 -113 -243 -115q-108 0 -164 70.5t-40 185.5zM367 797l15 108h271l-15 -108h-271z" />
    <glyph glyph-name="Uogonek.ss01" 
d="M102 256l64 444h160l-59 -406q-9 -65 23.5 -105.5t95.5 -40.5q74 1 128 50.5t65 124.5l54 377h158l-101 -700h-42q-53 -64 -58 -96q-3 -25 21 -25q23 0 49 31l34 -48q-47 -64 -113 -64q-35 0 -57 20t-16 61q8 55 65 121h-41l17 115q-91 -113 -243 -115q-108 0 -164 70.5
t-40 185.5z" />
    <glyph glyph-name="Uring.ss01" 
d="M102 256l64 444h160l-59 -406q-9 -65 23.5 -105.5t95.5 -40.5q74 1 128 50.5t65 124.5l54 377h158l-101 -700h-158l17 115q-91 -113 -243 -115q-108 0 -164 70.5t-40 185.5zM390 855q7 49 47.5 84t89.5 35t79.5 -35t23.5 -84q-8 -50 -48 -84.5t-89 -34.5q-50 0 -80 35
t-23 84zM453 855q-3 -23 11 -39t38 -16t43.5 16t22.5 39t-11.5 38.5t-38.5 15.5t-43 -16t-22 -38z" />
    <glyph glyph-name="Utilde.ss01" 
d="M102 256l64 444h160l-59 -406q-9 -65 23.5 -105.5t95.5 -40.5q74 1 128 50.5t65 124.5l54 377h158l-101 -700h-158l17 115q-91 -113 -243 -115q-108 0 -164 70.5t-40 185.5zM328 785q22 151 122 151q32 0 65 -25t45 -25q33 0 39 44h95q-21 -149 -121 -149q-34 0 -66 24.5
t-44 24.5q-34 0 -40 -45h-95z" />
    <glyph glyph-name="W.ss01" horiz-adv-x="1171" 
d="M103 270l62 430h158l-62 -430q-9 -61 25.5 -100t96.5 -39q63 0 108 38.5t55 100.5l62 430h158l-62 -430q-9 -61 26 -100t99 -39q62 0 105.5 38.5t52.5 100.5l62 430h158l-62 -430q-17 -122 -104.5 -199.5t-207.5 -77.5q-81 0 -143 36t-86 94q-40 -58 -112 -94t-154 -36
q-121 0 -186.5 77.5t-48.5 199.5z" />
    <glyph glyph-name="Wacute.ss01" horiz-adv-x="1171" 
d="M103 270l62 430h158l-62 -430q-9 -61 25.5 -100t96.5 -39q63 0 108 38.5t55 100.5l62 430h158l-62 -430q-9 -61 26 -100t99 -39q62 0 105.5 38.5t52.5 100.5l62 430h158l-62 -430q-17 -122 -104.5 -199.5t-207.5 -77.5q-81 0 -143 36t-86 94q-40 -58 -112 -94t-154 -36
q-121 0 -186.5 77.5t-48.5 199.5zM615 765l130 163l135 -54l-143 -109h-122z" />
    <glyph glyph-name="Wcircumflex.ss01" horiz-adv-x="1171" 
d="M103 270l62 430h158l-62 -430q-9 -61 25.5 -100t96.5 -39q63 0 108 38.5t55 100.5l62 430h158l-62 -430q-9 -61 26 -100t99 -39q62 0 105.5 38.5t52.5 100.5l62 430h158l-62 -430q-17 -122 -104.5 -199.5t-207.5 -77.5q-81 0 -143 36t-86 94q-40 -58 -112 -94t-154 -36
q-121 0 -186.5 77.5t-48.5 199.5zM523 773l131 148h128l87 -148h-113l-47 85l-73 -85h-113z" />
    <glyph glyph-name="Wdieresis.ss01" horiz-adv-x="1171" 
d="M103 270l62 430h158l-62 -430q-9 -61 25.5 -100t96.5 -39q63 0 108 38.5t55 100.5l62 430h158l-62 -430q-9 -61 26 -100t99 -39q62 0 105.5 38.5t52.5 100.5l62 430h158l-62 -430q-17 -122 -104.5 -199.5t-207.5 -77.5q-81 0 -143 36t-86 94q-40 -58 -112 -94t-154 -36
q-121 0 -186.5 77.5t-48.5 199.5zM542 857q4 33 27.5 54t55.5 21t49 -21t13 -54q-4 -32 -27.5 -53t-55.5 -21t-49 21t-13 53zM730 857q4 33 27.5 54t55.5 21t49 -21t13 -54q-4 -32 -27.5 -53t-55.5 -21t-49 21t-13 53z" />
    <glyph glyph-name="Wgrave.ss01" horiz-adv-x="1171" 
d="M103 270l62 430h158l-62 -430q-9 -61 25.5 -100t96.5 -39q63 0 108 38.5t55 100.5l62 430h158l-62 -430q-9 -61 26 -100t99 -39q62 0 105.5 38.5t52.5 100.5l62 430h158l-62 -430q-17 -122 -104.5 -199.5t-207.5 -77.5q-81 0 -143 36t-86 94q-40 -58 -112 -94t-154 -36
q-121 0 -186.5 77.5t-48.5 199.5zM541 875l151 53l83 -163h-123z" />
    <glyph glyph-name="Y.ss01" horiz-adv-x="741" 
d="M72 -1l83 110q34 -35 87.5 -56.5t106.5 -21.5q77 0 132.5 43t65.5 111l11 78q-85 -107 -219 -109q-113 0 -172 74t-42 192l40 280h158l-38 -265q-9 -62 25 -100.5t98 -38.5q68 1 118.5 48t60.5 122l34 234h157l-75 -519q-19 -129 -116.5 -208.5t-236.5 -79.5
q-83 0 -159 29t-119 77z" />
    <glyph glyph-name="Yacute.ss01" horiz-adv-x="741" 
d="M72 -1l83 110q34 -35 87.5 -56.5t106.5 -21.5q77 0 132.5 43t65.5 111l11 78q-85 -107 -219 -109q-113 0 -172 74t-42 192l40 280h158l-38 -265q-9 -62 25 -100.5t98 -38.5q68 1 118.5 48t60.5 122l34 234h157l-75 -519q-19 -129 -116.5 -208.5t-236.5 -79.5
q-83 0 -159 29t-119 77zM401 765l130 163l135 -54l-143 -109h-122z" />
    <glyph glyph-name="Ycircumflex.ss01" horiz-adv-x="741" 
d="M72 -1l83 110q34 -35 87.5 -56.5t106.5 -21.5q77 0 132.5 43t65.5 111l11 78q-85 -107 -219 -109q-113 0 -172 74t-42 192l40 280h158l-38 -265q-9 -62 25 -100.5t98 -38.5q68 1 118.5 48t60.5 122l34 234h157l-75 -519q-19 -129 -116.5 -208.5t-236.5 -79.5
q-83 0 -159 29t-119 77zM309 773l131 148h128l87 -148h-113l-47 85l-73 -85h-113z" />
    <glyph glyph-name="Ydieresis.ss01" horiz-adv-x="741" 
d="M72 -1l83 110q34 -35 87.5 -56.5t106.5 -21.5q77 0 132.5 43t65.5 111l11 78q-85 -107 -219 -109q-113 0 -172 74t-42 192l40 280h158l-38 -265q-9 -62 25 -100.5t98 -38.5q68 1 118.5 48t60.5 122l34 234h157l-75 -519q-19 -129 -116.5 -208.5t-236.5 -79.5
q-83 0 -159 29t-119 77zM328 857q4 33 27.5 54t55.5 21t49 -21t13 -54q-4 -32 -27.5 -53t-55.5 -21t-49 21t-13 53zM516 857q4 33 27.5 54t55.5 21t49 -21t13 -54q-4 -32 -27.5 -53t-55.5 -21t-49 21t-13 53z" />
    <glyph glyph-name="Ygrave.ss01" horiz-adv-x="741" 
d="M72 -1l83 110q34 -35 87.5 -56.5t106.5 -21.5q77 0 132.5 43t65.5 111l11 78q-85 -107 -219 -109q-113 0 -172 74t-42 192l40 280h158l-38 -265q-9 -62 25 -100.5t98 -38.5q68 1 118.5 48t60.5 122l34 234h157l-75 -519q-19 -129 -116.5 -208.5t-236.5 -79.5
q-83 0 -159 29t-119 77zM327 875l151 53l83 -163h-123z" />
    <glyph glyph-name="Z.ss01" horiz-adv-x="672" 
d="M31 0l15 107l185 186h-4l16 111h48l1 5h55l158 159h-379l19 132h591l-15 -106l-184 -185h3l-16 -111h-56l-1 -5h-45l-159 -161h397l-20 -132h-609z" />
    <glyph glyph-name="Zacute.ss01" horiz-adv-x="672" 
d="M31 0l15 107l185 186h-4l16 111h48l1 5h55l158 159h-379l19 132h591l-15 -106l-184 -185h3l-16 -111h-56l-1 -5h-45l-159 -161h397l-20 -132h-609zM366 765l130 163l135 -54l-143 -109h-122z" />
    <glyph glyph-name="Zcaron.ss01" horiz-adv-x="672" 
d="M31 0l15 107l185 186h-4l16 111h48l1 5h55l158 159h-379l19 132h591l-15 -106l-184 -185h3l-16 -111h-56l-1 -5h-45l-159 -161h397l-20 -132h-609zM279 921h124l48 -92l76 92h124l-140 -160h-138z" />
    <glyph glyph-name="Zdotaccent.ss01" horiz-adv-x="672" 
d="M31 0l15 107l185 186h-4l16 111h48l1 5h55l158 159h-379l19 132h591l-15 -106l-184 -185h3l-16 -111h-56l-1 -5h-45l-159 -161h397l-20 -132h-609zM376 854q5 38 31.5 62t63.5 24t56.5 -24t14.5 -62t-31.5 -62t-63.5 -24t-56.5 24t-14.5 62z" />
    <glyph glyph-name="a.ss01" horiz-adv-x="679" 
d="M67 271q17 122 96 197t192 76q114 0 162 -84l12 78h153l-78 -538h-153l11 77q-72 -83 -181 -83q-115 0 -173.5 76t-40.5 201zM220 267q-9 -66 22.5 -107.5t92.5 -41.5q54 0 96 36t56 95l5 36q2 59 -29 95t-85 36q-60 0 -103.5 -41.5t-54.5 -107.5z" />
    <glyph glyph-name="aacute.ss01" horiz-adv-x="679" 
d="M67 271q17 122 96 197t192 76q114 0 162 -84l12 78h153l-78 -538h-153l11 77q-72 -83 -181 -83q-115 0 -173.5 76t-40.5 201zM220 267q-9 -66 22.5 -107.5t92.5 -41.5q54 0 96 36t56 95l5 36q2 59 -29 95t-85 36q-60 0 -103.5 -41.5t-54.5 -107.5zM341 602l129 163
l135 -54l-142 -109h-122z" />
    <glyph glyph-name="abreve.ss01" horiz-adv-x="679" 
d="M67 271q17 122 96 197t192 76q114 0 162 -84l12 78h153l-78 -538h-153l11 77q-72 -83 -181 -83q-115 0 -173.5 76t-40.5 201zM220 267q-9 -66 22.5 -107.5t92.5 -41.5q54 0 96 36t56 95l5 36q2 59 -29 95t-85 36q-60 0 -103.5 -41.5t-54.5 -107.5zM287 756h98
q-2 -27 11.5 -43.5t37.5 -16.5t43 16.5t24 43.5h98q-13 -70 -61.5 -112t-116.5 -42q-67 0 -104 42t-30 112z" />
    <glyph glyph-name="acircumflex.ss01" horiz-adv-x="679" 
d="M67 271q17 122 96 197t192 76q114 0 162 -84l12 78h153l-78 -538h-153l11 77q-72 -83 -181 -83q-115 0 -173.5 76t-40.5 201zM220 267q-9 -66 22.5 -107.5t92.5 -41.5q54 0 96 36t56 95l5 36q2 59 -29 95t-85 36q-60 0 -103.5 -41.5t-54.5 -107.5zM249 610l130 148h128
l88 -148h-113l-48 85l-72 -85h-113z" />
    <glyph glyph-name="adieresis.ss01" horiz-adv-x="679" 
d="M67 271q17 122 96 197t192 76q114 0 162 -84l12 78h153l-78 -538h-153l11 77q-72 -83 -181 -83q-115 0 -173.5 76t-40.5 201zM220 267q-9 -66 22.5 -107.5t92.5 -41.5q54 0 96 36t56 95l5 36q2 59 -29 95t-85 36q-60 0 -103.5 -41.5t-54.5 -107.5zM268 694q4 33 27.5 54
t55.5 21t49 -21t13 -54q-4 -32 -28 -53t-56 -21q-31 0 -48.5 21t-12.5 53zM456 694q4 33 27.5 54t55.5 21t49 -21t13 -54q-4 -32 -28 -53t-56 -21q-31 0 -48.5 21t-12.5 53z" />
    <glyph glyph-name="agrave.ss01" horiz-adv-x="679" 
d="M67 271q17 122 96 197t192 76q114 0 162 -84l12 78h153l-78 -538h-153l11 77q-72 -83 -181 -83q-115 0 -173.5 76t-40.5 201zM220 267q-9 -66 22.5 -107.5t92.5 -41.5q54 0 96 36t56 95l5 36q2 59 -29 95t-85 36q-60 0 -103.5 -41.5t-54.5 -107.5zM267 712l150 53
l84 -163h-123z" />
    <glyph glyph-name="amacron.ss01" horiz-adv-x="679" 
d="M67 271q17 122 96 197t192 76q114 0 162 -84l12 78h153l-78 -538h-153l11 77q-72 -83 -181 -83q-115 0 -173.5 76t-40.5 201zM220 267q-9 -66 22.5 -107.5t92.5 -41.5q54 0 96 36t56 95l5 36q2 59 -29 95t-85 36q-60 0 -103.5 -41.5t-54.5 -107.5zM290 634l16 108h271
l-16 -108h-271z" />
    <glyph glyph-name="aogonek.ss01" horiz-adv-x="679" 
d="M67 271q17 122 96 197t192 76q114 0 162 -84l12 78h153l-78 -538h-37q-53 -64 -58 -96q-3 -25 21 -25q23 0 49 31l34 -48q-47 -64 -113 -64q-35 0 -57 20t-16 61q8 55 65 121h-41l11 77q-72 -83 -181 -83q-115 0 -173.5 76t-40.5 201zM220 267q-9 -66 22.5 -107.5
t92.5 -41.5q54 0 96 36t56 95l5 36q2 59 -29 95t-85 36q-60 0 -103.5 -41.5t-54.5 -107.5z" />
    <glyph glyph-name="aring.ss01" horiz-adv-x="679" 
d="M67 271q17 122 96 197t192 76q114 0 162 -84l12 78h153l-78 -538h-153l11 77q-72 -83 -181 -83q-115 0 -173.5 76t-40.5 201zM220 267q-9 -66 22.5 -107.5t92.5 -41.5q54 0 96 36t56 95l5 36q2 59 -29 95t-85 36q-60 0 -103.5 -41.5t-54.5 -107.5zM314 692q7 49 47.5 84
t89.5 35t79.5 -35t23.5 -84q-8 -50 -48 -84.5t-89 -34.5q-50 0 -80 35t-23 84zM377 692q-3 -23 11 -39t38 -16t43.5 16t22.5 39t-11.5 38.5t-38.5 15.5t-43 -16t-22 -38z" />
    <glyph glyph-name="atilde.ss01" horiz-adv-x="679" 
d="M67 271q17 122 96 197t192 76q114 0 162 -84l12 78h153l-78 -538h-153l11 77q-72 -83 -181 -83q-115 0 -173.5 76t-40.5 201zM220 267q-9 -66 22.5 -107.5t92.5 -41.5q54 0 96 36t56 95l5 36q2 59 -29 95t-85 36q-60 0 -103.5 -41.5t-54.5 -107.5zM252 622
q22 151 121 151q25 0 46 -12.5t36.5 -25t27.5 -12.5q34 0 40 44h95q-21 -149 -122 -149q-34 0 -66 24.5t-44 24.5q-33 0 -39 -45h-95z" />
    <glyph glyph-name="ae.ss01" horiz-adv-x="961" 
d="M55 162q11 75 71 117.5t158 43.5h150l1 9q5 44 -20 67.5t-81 23.5q-76 0 -167 -47l-33 106q135 62 253 62q123 0 174 -65q82 64 192 64q116 1 176 -66.5t48 -184.5l-386 -97q25 -81 116 -81q79 0 154 70l76 -80q-109 -110 -257 -110q-76 0 -131 30t-82 85
q-84 -116 -242 -116q-89 0 -135 47t-35 122zM201 171q-5 -31 15.5 -49.5t59.5 -18.5q48 0 86 22.5t52 58.5l6 48h-122q-88 0 -97 -61zM588 287l250 64q-14 78 -99 78q-59 0 -99 -37.5t-52 -104.5z" />
    <glyph glyph-name="e.ss01" horiz-adv-x="605" 
d="M67 268q17 122 103 198t212 77q117 1 179.5 -66t50.5 -182l-387 -98q26 -83 116 -83q81 0 154 70l76 -80q-110 -110 -258 -110q-128 0 -196 75.5t-50 198.5zM224 289l245 64q-15 76 -95 76q-58 0 -97.5 -36t-52.5 -104z" />
    <glyph glyph-name="eacute.ss01" horiz-adv-x="605" 
d="M67 268q17 122 103 198t212 77q117 1 179.5 -66t50.5 -182l-387 -98q26 -83 116 -83q81 0 154 70l76 -80q-110 -110 -258 -110q-128 0 -196 75.5t-50 198.5zM224 289l245 64q-15 76 -95 76q-58 0 -97.5 -36t-52.5 -104zM311 602l129 163l135 -54l-142 -109h-122z" />
    <glyph glyph-name="ebreve.ss01" horiz-adv-x="605" 
d="M67 268q17 122 103 198t212 77q117 1 179.5 -66t50.5 -182l-387 -98q26 -83 116 -83q81 0 154 70l76 -80q-110 -110 -258 -110q-128 0 -196 75.5t-50 198.5zM224 289l245 64q-15 76 -95 76q-58 0 -97.5 -36t-52.5 -104zM257 756h98q-2 -27 11.5 -43.5t37.5 -16.5t43 16.5
t24 43.5h98q-13 -70 -61.5 -112t-116.5 -42q-67 0 -104 42t-30 112z" />
    <glyph glyph-name="ecaron.ss01" horiz-adv-x="605" 
d="M67 268q17 122 103 198t212 77q117 1 179.5 -66t50.5 -182l-387 -98q26 -83 116 -83q81 0 154 70l76 -80q-110 -110 -258 -110q-128 0 -196 75.5t-50 198.5zM223 758h124l49 -92l75 92h124l-140 -160h-138zM224 289l245 64q-15 76 -95 76q-58 0 -97.5 -36t-52.5 -104z
" />
    <glyph glyph-name="ecircumflex.ss01" horiz-adv-x="605" 
d="M67 268q17 122 103 198t212 77q117 1 179.5 -66t50.5 -182l-387 -98q26 -83 116 -83q81 0 154 70l76 -80q-110 -110 -258 -110q-128 0 -196 75.5t-50 198.5zM219 610l130 148h128l88 -148h-113l-48 85l-72 -85h-113zM224 289l245 64q-15 76 -95 76q-58 0 -97.5 -36
t-52.5 -104z" />
    <glyph glyph-name="edieresis.ss01" horiz-adv-x="605" 
d="M67 268q17 122 103 198t212 77q117 1 179.5 -66t50.5 -182l-387 -98q26 -83 116 -83q81 0 154 70l76 -80q-110 -110 -258 -110q-128 0 -196 75.5t-50 198.5zM224 289l245 64q-15 76 -95 76q-58 0 -97.5 -36t-52.5 -104zM238 694q4 33 27.5 54t55.5 21t49 -21t13 -54
q-4 -32 -28 -53t-56 -21q-31 0 -48.5 21t-12.5 53zM426 694q4 33 27.5 54t55.5 21t49 -21t13 -54q-4 -32 -28 -53t-56 -21q-31 0 -48.5 21t-12.5 53z" />
    <glyph glyph-name="edotaccent.ss01" horiz-adv-x="605" 
d="M67 268q17 122 103 198t212 77q117 1 179.5 -66t50.5 -182l-387 -98q26 -83 116 -83q81 0 154 70l76 -80q-110 -110 -258 -110q-128 0 -196 75.5t-50 198.5zM224 289l245 64q-15 76 -95 76q-58 0 -97.5 -36t-52.5 -104zM321 691q5 38 31.5 62t63.5 24t56.5 -24t14.5 -62
t-32 -62t-64 -24t-56 24t-14 62z" />
    <glyph glyph-name="egrave.ss01" horiz-adv-x="605" 
d="M67 268q17 122 103 198t212 77q117 1 179.5 -66t50.5 -182l-387 -98q26 -83 116 -83q81 0 154 70l76 -80q-110 -110 -258 -110q-128 0 -196 75.5t-50 198.5zM224 289l245 64q-15 76 -95 76q-58 0 -97.5 -36t-52.5 -104zM237 712l150 53l84 -163h-123z" />
    <glyph glyph-name="emacron.ss01" horiz-adv-x="605" 
d="M67 268q17 122 103 198t212 77q117 1 179.5 -66t50.5 -182l-387 -98q26 -83 116 -83q81 0 154 70l76 -80q-110 -110 -258 -110q-128 0 -196 75.5t-50 198.5zM224 289l245 64q-15 76 -95 76q-58 0 -97.5 -36t-52.5 -104zM260 634l16 108h271l-16 -108h-271z" />
    <glyph glyph-name="eogonek.ss01" horiz-adv-x="605" 
d="M67 268q17 122 103 198t212 77q117 1 179.5 -66t50.5 -182l-387 -98q26 -83 116 -83q82 0 148 58l68 -84q-126 -126 -134 -184q-3 -25 21 -25q22 0 48 31l34 -48q-47 -64 -112 -64q-35 0 -57 20t-16 61q8 62 78 141q-54 -26 -106 -26q-128 0 -196 75.5t-50 198.5z
M224 289l245 64q-15 76 -95 76q-58 0 -97.5 -36t-52.5 -104z" />
    <glyph glyph-name="f.ss01" horiz-adv-x="341" 
d="M64 0l81 565q12 87 76 135.5t149 48.5q83 0 135 -38l-71 -112q-28 23 -63 23q-28 0 -48.5 -16t-24.5 -47l-7 -45h127l-15 -107h-127l-59 -407h-153z" />
    <glyph glyph-name="g.ss01" horiz-adv-x="645" 
d="M38 -78l87 89q51 -85 146 -86q64 -1 108 32t52 88l9 62q-67 -79 -171 -79q-106 0 -161 71.5t-38 188.5q17 114 90.5 184t178.5 71q108 0 153 -79l11 74h152l-71 -488q-17 -115 -105 -183t-219 -67q-75 1 -135 33.5t-87 88.5zM213 284q-8 -62 21 -100.5t86 -38.5
q56 0 96 38.5t50 100.5q8 62 -21 100.5t-85 38.5t-96.5 -38.5t-50.5 -100.5z" />
    <glyph glyph-name="gbreve.ss01" horiz-adv-x="645" 
d="M38 -78l87 89q51 -85 146 -86q64 -1 108 32t52 88l9 62q-67 -79 -171 -79q-106 0 -161 71.5t-38 188.5q17 114 90.5 184t178.5 71q108 0 153 -79l11 74h152l-71 -488q-17 -115 -105 -183t-219 -67q-75 1 -135 33.5t-87 88.5zM213 284q-8 -62 21 -100.5t86 -38.5
q56 0 96 38.5t50 100.5q8 62 -21 100.5t-85 38.5t-96.5 -38.5t-50.5 -100.5zM270 756h98q-2 -27 11.5 -43.5t37.5 -16.5t43 16.5t24 43.5h98q-13 -70 -61.5 -112t-116.5 -42q-67 0 -104 42t-30 112z" />
    <glyph glyph-name="gcircumflex.ss01" horiz-adv-x="645" 
d="M38 -78l87 89q51 -85 146 -86q64 -1 108 32t52 88l9 62q-67 -79 -171 -79q-106 0 -161 71.5t-38 188.5q17 114 90.5 184t178.5 71q108 0 153 -79l11 74h152l-71 -488q-17 -115 -105 -183t-219 -67q-75 1 -135 33.5t-87 88.5zM213 284q-8 -62 21 -100.5t86 -38.5
q56 0 96 38.5t50 100.5q8 62 -21 100.5t-85 38.5t-96.5 -38.5t-50.5 -100.5zM232 610l130 148h128l88 -148h-113l-48 85l-72 -85h-113z" />
    <glyph glyph-name="gcommaaccent.ss01" horiz-adv-x="710" 
d="M38 -78l87 89q51 -85 146 -86q64 -1 108 32t52 88l9 62q-67 -79 -171 -79q-106 0 -161 71.5t-38 188.5q17 114 90.5 184t178.5 71q108 0 153 -79l11 74h152l-71 -488q-17 -115 -105 -183t-219 -67q-75 1 -135 33.5t-87 88.5zM213 284q-8 -62 21 -100.5t86 -38.5
q56 0 96 38.5t50 100.5q8 62 -21 100.5t-85 38.5t-96.5 -38.5t-50.5 -100.5zM332 658q4 32 30 63l81 100h75l-56 -101q27 -23 21 -62q-4 -34 -29 -55.5t-58 -21.5q-31 0 -50 21t-14 56z" />
    <glyph glyph-name="gdotaccent.ss01" horiz-adv-x="645" 
d="M38 -78l87 89q51 -85 146 -86q64 -1 108 32t52 88l9 62q-67 -79 -171 -79q-106 0 -161 71.5t-38 188.5q17 114 90.5 184t178.5 71q108 0 153 -79l11 74h152l-71 -488q-17 -115 -105 -183t-219 -67q-75 1 -135 33.5t-87 88.5zM213 284q-8 -62 21 -100.5t86 -38.5
q56 0 96 38.5t50 100.5q8 62 -21 100.5t-85 38.5t-96.5 -38.5t-50.5 -100.5zM334 691q5 38 31.5 62t63.5 24t56.5 -24t14.5 -62t-32 -62t-64 -24t-56 24t-14 62z" />
    <glyph glyph-name="l.ss01" horiz-adv-x="332" 
d="M91 178l81 564h153l-80 -554q-4 -29 7 -43.5t33 -14.5q21 0 54 15l-4 -128q-54 -24 -105 -24q-72 0 -112 47.5t-27 137.5z" />
    <glyph glyph-name="oe.ss01" horiz-adv-x="1028" 
d="M67 269q18 124 108 199t220 75q140 0 194 -100q81 99 217 100q117 1 179 -66t50 -182l-387 -98q26 -83 116 -83q81 0 154 70l76 -80q-110 -110 -257 -110q-141 0 -197 102q-83 -102 -224 -102q-130 0 -198.5 76t-50.5 199zM220 267q-10 -66 22 -107t92 -41q59 0 102 41
t53 107t-21.5 107t-90.5 41q-60 0 -103.5 -41t-53.5 -107zM647 289l245 64q-15 76 -95 76q-58 0 -97.5 -36t-52.5 -104z" />
    <glyph glyph-name="t.ss01" horiz-adv-x="390" 
d="M87 171l70 491h153l-21 -148h147l-15 -107h-147l-31 -210q-5 -38 6.5 -56.5t37.5 -17.5q28 0 73 20l15 -113q-69 -37 -142 -37q-77 0 -117.5 47t-28.5 131z" />
    <glyph glyph-name="tbar.ss01" horiz-adv-x="390" 
d="M87 171l70 491h153l-21 -148h146l-14 -96h-146l-11 -79h146l-14 -96h-146l-7 -46q-5 -38 6.5 -56.5t37.5 -17.5q28 0 73 20l15 -113q-69 -37 -142 -37q-77 0 -117.5 47t-28.5 131z" />
    <glyph glyph-name="tcaron.ss01" horiz-adv-x="390" 
d="M87 171l70 491h153l-21 -148h147l-15 -107h-147l-31 -210q-5 -38 6.5 -56.5t37.5 -17.5q28 0 73 20l15 -113q-69 -37 -142 -37q-77 0 -117.5 47t-28.5 131zM381 581l56 101q-28 22 -22 62q5 34 30 56t58 22q31 0 50 -21t14 -57q-4 -33 -30 -62l-81 -101h-75z" />
    <glyph glyph-name="tcedilla.ss01" horiz-adv-x="390" 
d="M69 -202l39 67q20 -20 49 -20q19 0 32.5 11t15.5 27t-8.5 26t-32.5 10q-12 0 -36 -4l52 85q-52 15 -77.5 59t-15.5 112l70 491h153l-21 -148h147l-15 -107h-147l-31 -210q-5 -38 6.5 -56.5t37.5 -17.5q28 0 73 20l15 -113q-57 -29 -113 -35l-28 -45q30 -8 45 -29.5
t11 -51.5q-7 -46 -43.5 -73.5t-88.5 -27.5q-51 0 -89 30z" />
    <glyph glyph-name="tcommaaccent.ss01" horiz-adv-x="390" 
d="M82 -284l57 101q-28 22 -22 62q4 34 29.5 56t58.5 22q31 0 50 -21t14 -56q-4 -32 -30 -63l-82 -101h-75zM87 171l70 491h153l-21 -148h147l-15 -107h-147l-31 -210q-5 -38 6.5 -56.5t37.5 -17.5q28 0 73 20l15 -113q-69 -37 -142 -37q-77 0 -117.5 47t-28.5 131z" />
    <glyph glyph-name="w.ss01" horiz-adv-x="976" 
d="M90 229l45 309h153l-44 -302q-7 -46 17 -74.5t70 -28.5t77 28t38 75l44 302h152l-44 -302q-7 -46 18 -74.5t72 -28.5q44 0 75 28.5t38 74.5l44 302h153l-45 -309q-15 -106 -87 -171t-175 -65q-62 0 -114 30.5t-73 79.5q-34 -49 -94.5 -79.5t-123.5 -30.5q-103 0 -157 65
t-39 171z" />
    <glyph glyph-name="wacute.ss01" horiz-adv-x="976" 
d="M90 229l45 309h153l-44 -302q-7 -46 17 -74.5t70 -28.5t77 28t38 75l44 302h152l-44 -302q-7 -46 18 -74.5t72 -28.5q44 0 75 28.5t38 74.5l44 302h153l-45 -309q-15 -106 -87 -171t-175 -65q-62 0 -114 30.5t-73 79.5q-34 -49 -94.5 -79.5t-123.5 -30.5q-103 0 -157 65
t-39 171zM495 602l129 163l135 -54l-142 -109h-122z" />
    <glyph glyph-name="wcircumflex.ss01" horiz-adv-x="976" 
d="M90 229l45 309h153l-44 -302q-7 -46 17 -74.5t70 -28.5t77 28t38 75l44 302h152l-44 -302q-7 -46 18 -74.5t72 -28.5q44 0 75 28.5t38 74.5l44 302h153l-45 -309q-15 -106 -87 -171t-175 -65q-62 0 -114 30.5t-73 79.5q-34 -49 -94.5 -79.5t-123.5 -30.5q-103 0 -157 65
t-39 171zM403 610l130 148h128l88 -148h-113l-48 85l-72 -85h-113z" />
    <glyph glyph-name="wdieresis.ss01" horiz-adv-x="976" 
d="M90 229l45 309h153l-44 -302q-7 -46 17 -74.5t70 -28.5t77 28t38 75l44 302h152l-44 -302q-7 -46 18 -74.5t72 -28.5q44 0 75 28.5t38 74.5l44 302h153l-45 -309q-15 -106 -87 -171t-175 -65q-62 0 -114 30.5t-73 79.5q-34 -49 -94.5 -79.5t-123.5 -30.5q-103 0 -157 65
t-39 171zM422 694q4 33 27.5 54t55.5 21t49 -21t13 -54q-4 -32 -28 -53t-56 -21q-31 0 -48.5 21t-12.5 53zM610 694q4 33 27.5 54t55.5 21t49 -21t13 -54q-4 -32 -28 -53t-56 -21q-31 0 -48.5 21t-12.5 53z" />
    <glyph glyph-name="wgrave.ss01" horiz-adv-x="976" 
d="M90 229l45 309h153l-44 -302q-7 -46 17 -74.5t70 -28.5t77 28t38 75l44 302h152l-44 -302q-7 -46 18 -74.5t72 -28.5q44 0 75 28.5t38 74.5l44 302h153l-45 -309q-15 -106 -87 -171t-175 -65q-62 0 -114 30.5t-73 79.5q-34 -49 -94.5 -79.5t-123.5 -30.5q-103 0 -157 65
t-39 171zM421 712l150 53l84 -163h-123z" />
    <glyph glyph-name="y.ss01" horiz-adv-x="662" 
d="M61 -125l55 109q76 -57 172 -59q65 0 109.5 36.5t53.5 97.5l11 83q-72 -97 -202 -98q-90 0 -134.5 56t-30.5 151l42 287h154l-35 -242q-7 -51 16.5 -80.5t72.5 -29.5q57 1 95.5 39t48.5 104l31 209h152l-70 -482q-17 -115 -104 -186t-211 -70q-61 1 -123.5 21.5
t-102.5 53.5z" />
    <glyph glyph-name="yacute.ss01" horiz-adv-x="662" 
d="M61 -125l55 109q76 -57 172 -59q65 0 109.5 36.5t53.5 97.5l11 83q-72 -97 -202 -98q-90 0 -134.5 56t-30.5 151l42 287h154l-35 -242q-7 -51 16.5 -80.5t72.5 -29.5q57 1 95.5 39t48.5 104l31 209h152l-70 -482q-17 -115 -104 -186t-211 -70q-61 1 -123.5 21.5
t-102.5 53.5zM333 602l129 163l135 -54l-142 -109h-122z" />
    <glyph glyph-name="ycircumflex.ss01" horiz-adv-x="662" 
d="M61 -125l55 109q76 -57 172 -59q65 0 109.5 36.5t53.5 97.5l11 83q-72 -97 -202 -98q-90 0 -134.5 56t-30.5 151l42 287h154l-35 -242q-7 -51 16.5 -80.5t72.5 -29.5q57 1 95.5 39t48.5 104l31 209h152l-70 -482q-17 -115 -104 -186t-211 -70q-61 1 -123.5 21.5
t-102.5 53.5zM241 610l130 148h128l88 -148h-113l-48 85l-72 -85h-113z" />
    <glyph glyph-name="ydieresis.ss01" horiz-adv-x="662" 
d="M61 -125l55 109q76 -57 172 -59q65 0 109.5 36.5t53.5 97.5l11 83q-72 -97 -202 -98q-90 0 -134.5 56t-30.5 151l42 287h154l-35 -242q-7 -51 16.5 -80.5t72.5 -29.5q57 1 95.5 39t48.5 104l31 209h152l-70 -482q-17 -115 -104 -186t-211 -70q-61 1 -123.5 21.5
t-102.5 53.5zM260 694q4 33 27.5 54t55.5 21t49 -21t13 -54q-4 -32 -28 -53t-56 -21q-31 0 -48.5 21t-12.5 53zM448 694q4 33 27.5 54t55.5 21t49 -21t13 -54q-4 -32 -28 -53t-56 -21q-31 0 -48.5 21t-12.5 53z" />
    <glyph glyph-name="ygrave.ss01" horiz-adv-x="662" 
d="M61 -125l55 109q76 -57 172 -59q65 0 109.5 36.5t53.5 97.5l11 83q-72 -97 -202 -98q-90 0 -134.5 56t-30.5 151l42 287h154l-35 -242q-7 -51 16.5 -80.5t72.5 -29.5q57 1 95.5 39t48.5 104l31 209h152l-70 -482q-17 -115 -104 -186t-211 -70q-61 1 -123.5 21.5
t-102.5 53.5zM259 712l150 53l84 -163h-123z" />
    <glyph glyph-name="z.ss01" horiz-adv-x="548" 
d="M38 0l14 97l132 130h-77l13 95h159l96 94l-267 1l17 120h459l-14 -97l-127 -126h73l-13 -95h-156l-100 -98h286l-17 -122z" />
    <glyph glyph-name="zacute.ss01" horiz-adv-x="548" 
d="M38 0l14 97l132 130h-77l13 95h159l96 94l-267 1l17 120h459l-14 -97l-127 -126h73l-13 -95h-156l-100 -98h286l-17 -122zM281 602l129 163l135 -54l-142 -109h-122z" />
    <glyph glyph-name="zcaron.ss01" horiz-adv-x="548" 
d="M38 0l14 97l132 130h-77l13 95h159l96 94l-267 1l17 120h459l-14 -97l-127 -126h73l-13 -95h-156l-100 -98h286l-17 -122zM193 758h124l49 -92l75 92h124l-140 -160h-138z" />
    <glyph glyph-name="zdotaccent.ss01" horiz-adv-x="548" 
d="M38 0l14 97l132 130h-77l13 95h159l96 94l-267 1l17 120h459l-14 -97l-127 -126h73l-13 -95h-156l-100 -98h286l-17 -122zM291 691q5 38 31.5 62t63.5 24t56.5 -24t14.5 -62t-32 -62t-64 -24t-56 24t-14 62z" />
    <glyph glyph-name="fi.ss01" horiz-adv-x="642" 
d="M64 0l81 565q13 88 77 136t148 48q59 0 101 -21l-25 -128q-39 21 -76 21q-63 2 -72 -62l-7 -45h127l-15 -107h-127l-59 -407h-153zM415 0l78 538h153l-78 -538h-153zM508 691q5 37 32 61.5t63 24.5q37 0 57 -24t15 -62q-5 -37 -32.5 -61.5t-64.5 -24.5q-36 0 -55.5 24
t-14.5 62z" />
    <glyph glyph-name="fl.ss01" horiz-adv-x="715" 
d="M87 391l16 107h72l10 69q13 87 85 134.5t193 46.5q117 0 172.5 -52t41.5 -148l-66 -460q-9 -58 39 -58q21 0 54 15l-3 -128q-54 -24 -105 -24q-72 0 -112.5 48t-27.5 137l67 464q5 38 -16.5 58.5t-69.5 21.5q-44 1 -70 -16.5t-31 -49.5l-8 -58h104l-16 -107h-104
l-56 -391h-153l56 391h-72z" />
    <glyph glyph-name="zero.ss01" horiz-adv-x="699" 
d="M87 301q19 136 116 220t234 84t208.5 -84t52.5 -220q-19 -137 -115.5 -221.5t-233.5 -84.5t-209.5 84.5t-52.5 221.5zM249 301q-12 -84 20.5 -133t97.5 -49t111 49t58 133q12 83 -20 131.5t-97 48.5t-111.5 -48.5t-58.5 -131.5z" />
    <glyph glyph-name="one.ss01" horiz-adv-x="404" 
d="M76 466l19 134h290l-86 -600h-158l67 466h-132z" />
    <glyph glyph-name="two.ss01" horiz-adv-x="549" 
d="M43 0l15 106l257 224q67 57 73 96q6 50 -63 50q-78 0 -183 -77l-42 118q138 92 268 92q93 0 146.5 -44t43.5 -115q-13 -86 -147 -201l-143 -117h262l-19 -132h-468z" />
    <glyph glyph-name="three.ss01" horiz-adv-x="552" 
d="M-4 -25l83 126q66 -83 165 -83q57 0 92 26.5t42 72.5q7 47 -21 71t-86 24h-107l12 88l189 171h-263l18 128h450l-13 -95l-211 -189l34 -5q81 -12 123 -62t30 -129q-14 -101 -94.5 -163.5t-200.5 -62.5q-69 0 -134 22.5t-108 59.5z" />
    <glyph glyph-name="four.ss01" horiz-adv-x="622" 
d="M36 58l16 112l289 430h152l-273 -414h168l22 154h147l-22 -154h97l-19 -128h-97l-22 -158h-147l22 158h-333z" />
    <glyph glyph-name="five.ss01" horiz-adv-x="589" 
d="M15 -21l81 125q71 -83 170 -83q57 0 93 27t43 76q7 44 -22 68.5t-86 24.5q-115 0 -188 -5l55 388h448l-18 -132h-304l-17 -123l73 1q118 0 180.5 -59t48.5 -153q-16 -109 -99 -174.5t-207 -65.5q-66 0 -134 23t-117 62z" />
    <glyph glyph-name="six.ss01" horiz-adv-x="627" 
d="M92 339q24 167 124.5 267.5t245.5 100.5q56 0 114 -15.5t98 -40.5l-77 -116q-59 45 -143 45q-88 0 -140 -54t-64 -149q66 82 187 82q104 0 156 -61.5t37 -164.5q-16 -110 -95 -175t-196 -65q-138 0 -204 92.5t-43 253.5zM248 231q-7 -44 19.5 -75t83.5 -31
q54 0 89.5 28.5t42.5 80.5q7 49 -18.5 76.5t-78.5 27.5q-57 0 -94.5 -30.5t-43.5 -76.5z" />
    <glyph glyph-name="seven.ss01" horiz-adv-x="587" 
d="M87 370l33 230h534l-16 -113l-350 -587h-167l339 568h-219l-15 -98h-139z" />
    <glyph glyph-name="eight.ss01" horiz-adv-x="637" 
d="M65 195q9 60 53 108.5t110 71.5q-43 24 -64.5 64t-14.5 86q12 84 85.5 133t185.5 49q113 0 172 -50.5t47 -135.5q-7 -46 -37.5 -85t-76.5 -61q57 -23 84.5 -70.5t18.5 -107.5q-13 -94 -97.5 -149t-212.5 -55q-130 0 -198 54.5t-55 147.5zM218 212q-7 -48 23 -73.5
t94 -25.5q63 0 101 25.5t45 72.5q7 46 -24 71.5t-95 25.5q-63 0 -100 -25t-44 -71zM280 512q-6 -40 20.5 -62.5t80.5 -22.5q53 0 85 22t38 63t-20 63.5t-79 22.5q-112 0 -125 -86z" />
    <glyph glyph-name="nine.ss01" horiz-adv-x="627" 
d="M44 -51l76 116q59 -45 144 -45q88 0 139.5 54t63.5 149q-66 -82 -187 -82q-104 0 -155.5 61.5t-36.5 164.5q16 111 94.5 175.5t195.5 64.5q138 0 204.5 -92.5t43.5 -253.5q-24 -167 -124.5 -267.5t-245.5 -100.5q-56 0 -114 15.5t-98 40.5zM235 366q-7 -49 18.5 -76.5
t78.5 -27.5q57 0 94 30.5t43 76.5q7 44 -19.5 75t-83.5 31q-54 0 -89 -28.5t-42 -80.5z" />
    <glyph glyph-name="zero.dnom" horiz-adv-x="451" 
d="M64 208q14 98 73.5 154.5t147.5 56.5q89 0 132.5 -56.5t29.5 -154.5t-73.5 -154.5t-148.5 -56.5t-132 56.5t-29 154.5zM163 208q-8 -59 11.5 -92t62.5 -33q44 0 73.5 33t37.5 92t-11.5 92t-63.5 33q-43 0 -72.5 -33t-37.5 -92z" />
    <glyph glyph-name="one.dnom" horiz-adv-x="270" 
d="M59 329l13 87h189l-60 -416h-108l47 329h-81z" />
    <glyph glyph-name="two.dnom" horiz-adv-x="387" 
d="M34 0l10 70l178 156q48 42 52 70q2 17 -9.5 26.5t-35.5 9.5q-53 0 -126 -53l-31 78q96 63 187 63q65 0 101.5 -30t29.5 -79q-8 -61 -102 -138l-103 -89h185l-12 -84h-324z" />
    <glyph glyph-name="three.dnom" horiz-adv-x="361" 
d="M14 46l56 83q40 -52 100 -52q68 0 76 53q4 24 -12 37t-49 13h-69l8 58l114 97h-162l12 80h286l-9 -63l-124 -104l20 -4q48 -7 73.5 -36.5t18.5 -76.5q-9 -61 -60 -98.5t-126 -37.5q-95 0 -153 51z" />
    <glyph glyph-name="four.dnom" horiz-adv-x="407" 
d="M38 90l10 73l174 253h104l-167 -248h95l13 92h102l-13 -92h59l-11 -78h-59l-13 -90h-102l13 90h-205z" />
    <glyph glyph-name="five.dnom" horiz-adv-x="383" 
d="M24 47l55 84q42 -54 103 -54q68 0 76 56q3 23 -13 36t-48 13q-73 0 -118 -5l34 239h284l-12 -84h-184l-11 -73q15 3 40 3q75 0 114.5 -33t31.5 -89q-10 -65 -62.5 -105t-130.5 -40q-90 0 -159 52z" />
    <glyph glyph-name="six.dnom" horiz-adv-x="407" 
d="M63 202q14 99 77.5 158.5t154.5 59.5q81 0 134 -34l-52 -77q-35 27 -89 27q-52 0 -82.5 -29t-34.5 -83q34 49 111 49q63 0 96 -36.5t24 -97.5q-10 -66 -59.5 -105t-123.5 -39q-87 0 -128.5 55.5t-27.5 151.5zM171 138q-3 -24 11 -39.5t46 -15.5q65 0 73 57q4 26 -10.5 40
t-44.5 14q-32 0 -51.5 -15.5t-23.5 -40.5z" />
    <glyph glyph-name="seven.dnom" horiz-adv-x="384" 
d="M67 272l21 144h338l-11 -75l-210 -341h-116l205 332h-122l-9 -60h-96z" />
    <glyph glyph-name="eight.dnom" horiz-adv-x="413" 
d="M46 116q5 35 31.5 64t66.5 42q-56 33 -48 90q7 49 53.5 78.5t117.5 29.5t108.5 -30t30.5 -82q-8 -55 -67 -86q33 -14 50 -42t12 -62q-8 -57 -61 -90t-134 -33q-82 0 -125 32.5t-35 88.5zM151 127q-4 -25 13.5 -38.5t53.5 -13.5q73 0 81 52q4 25 -13.5 38.5t-53.5 13.5
q-73 0 -81 -52zM187 302q-6 -45 57 -45q64 0 70 45q3 22 -12 34.5t-45 12.5q-64 0 -70 -47z" />
    <glyph glyph-name="nine.dnom" horiz-adv-x="409" 
d="M39 30l53 76q35 -26 89 -26q52 0 82.5 28.5t34.5 82.5q-37 -49 -112 -49q-63 0 -95.5 37t-23.5 98q10 66 59.5 104.5t123.5 38.5q87 0 128.5 -55t27.5 -151q-14 -99 -77.5 -159t-154.5 -60q-78 0 -135 35zM169 276q-4 -26 10 -40t44 -14q32 0 51.5 15.5t23.5 40.5
q3 24 -11 39.5t-46 15.5q-64 0 -72 -57z" />
    <glyph glyph-name="zero.numr" horiz-adv-x="451" 
d="M105 493q14 98 73.5 154t147.5 56q89 0 132.5 -56.5t29.5 -153.5q-14 -98 -74 -155t-149 -57q-88 0 -131 57t-29 155zM204 493q-8 -59 11.5 -92t62.5 -33q44 0 73.5 33t37.5 92q8 58 -11.5 91t-63.5 33q-43 0 -72.5 -33t-37.5 -91z" />
    <glyph glyph-name="one.numr" horiz-adv-x="270" 
d="M100 613l13 87h189l-60 -416h-108l47 329h-81z" />
    <glyph glyph-name="two.numr" horiz-adv-x="387" 
d="M75 284l10 70l178 157q48 43 52 69q2 17 -9.5 26.5t-35.5 9.5q-55 0 -126 -53l-30 79q97 62 185 62q65 0 102 -30t30 -79q-8 -61 -102 -138l-103 -88h185l-12 -85h-324z" />
    <glyph glyph-name="three.numr" horiz-adv-x="361" 
d="M55 330l56 83q41 -52 100 -52q68 0 76 53q4 24 -12 37t-49 13h-69l8 58l114 97h-162l12 80h286l-9 -62l-124 -105l20 -4q48 -7 73.5 -36.5t18.5 -76.5q-9 -61 -60 -98.5t-126 -37.5q-95 0 -153 51z" />
    <glyph glyph-name="four.numr" horiz-adv-x="407" 
d="M79 374l10 73l174 253h104l-167 -247h95l13 91h102l-13 -91h59l-11 -79h-59l-13 -90h-102l13 90h-205z" />
    <glyph glyph-name="five.numr" horiz-adv-x="383" 
d="M65 331l55 84q43 -54 103 -54q68 0 76 56q3 23 -13 36t-48 13q-84 0 -119 -5l35 239h284l-12 -84h-184l-11 -73q15 3 40 3q75 0 114.5 -33t31.5 -89q-10 -65 -62.5 -104.5t-130.5 -39.5q-92 0 -159 51z" />
    <glyph glyph-name="six.numr" horiz-adv-x="407" 
d="M104 486q14 99 77 158.5t154 59.5q82 0 135 -34l-53 -77q-35 27 -88 27q-52 0 -82.5 -29t-34.5 -83q35 50 111 50q63 0 96 -37t24 -98q-10 -66 -59.5 -105t-123.5 -39q-87 0 -128.5 55.5t-27.5 151.5zM212 422q-3 -24 11 -39.5t46 -15.5q65 0 73 57q4 26 -10.5 40
t-44.5 14q-32 0 -51.5 -15.5t-23.5 -40.5z" />
    <glyph glyph-name="seven.numr" horiz-adv-x="384" 
d="M108 556l21 144h338l-11 -75l-210 -341h-116l205 332h-122l-9 -60h-96z" />
    <glyph glyph-name="eight.numr" horiz-adv-x="413" 
d="M87 400q5 35 31.5 64t66.5 43q-26 14 -39 38t-9 51q8 50 54 79t116 29q71 0 109 -30t31 -82q-8 -55 -67 -85q33 -14 50 -42.5t12 -62.5q-8 -57 -61 -90t-134 -33q-82 0 -125 32.5t-35 88.5zM192 411q-4 -25 13.5 -38.5t53.5 -13.5q73 0 81 52q4 25 -13.5 38.5t-53.5 13.5
q-73 0 -81 -52zM227 586q-3 -21 12 -32.5t46 -11.5q63 0 69 44q3 23 -11.5 35t-44.5 12q-65 0 -71 -47z" />
    <glyph glyph-name="nine.numr" horiz-adv-x="409" 
d="M80 314l53 77q33 -27 88 -27q52 0 82.5 28.5t34.5 82.5q-37 -49 -111 -49q-63 0 -95.5 37t-23.5 98q10 66 59 104.5t123 38.5q87 0 129 -55t28 -151q-14 -99 -77.5 -159t-154.5 -60q-78 0 -135 35zM210 560q-4 -26 10 -40t44 -14q32 0 51.5 15.5t23.5 40.5q3 24 -11 39.5
t-46 15.5q-64 0 -72 -57z" />
    </font>
</defs>
</svg>
