<?xml version="1.0" standalone="no"?>
<!DOCTYPE svg PUBLIC "-//W3C//DTD SVG 1.1//EN" "http://www.w3.org/Graphics/SVG/1.1/DTD/svg11.dtd" >
<svg xmlns="http://www.w3.org/2000/svg" xmlns:xlink="http://www.w3.org/1999/xlink" version="1.1">
<metadata>
Created by FontForge 20170731 at Wed Jan  4 18:34:18 2017
 By Aleksey,,,
Copyright (c) 2011-2015, Julieta Ulanovsky (julieta.ulanovsky@gmail.com), Design Modifications and new weights 2015, Jasper @ Cannot Into Space Fonts
</metadata>
<defs>
<font id="TruenoExBdOlIt" horiz-adv-x="683" >
  <font-face 
    font-family="Trueno"
    font-weight="800"
    font-style="italic"
    font-stretch="normal"
    units-per-em="1000"
    panose-1="0 0 9 0 0 0 0 0 0 0"
    ascent="800"
    descent="-200"
    x-height="569"
    cap-height="726"
    bbox="-304 -345.333 1535.76 1003"
    underline-thickness="50"
    underline-position="-200"
    unicode-range="U+0020-FB02"
  />
<missing-glyph horiz-adv-x="500" 
d="M-25 0l101 700q1 10 10.5 17.5t17.5 7.5h500q11 0 17 -8t5 -17l-101 -700q-1 -11 -10.5 -18t-18.5 -7h-500q-11 0 -17 8t-4 17zM29 25h450l93 650h-450zM39 95l73 510q3 19 15 22.5t23 -2.5l10 -6l133 -255q7 -14 -4 -28l-207 -255q-14 -15 -24 -12t-14 15zM68 64
l207 255q13 16 23.5 16t14.5 -8l4 -8l133 -255q8 -19 2.5 -28t-16.5 -10l-12 -1h-340q-22 0 -26 9.5t3 19.5zM101 178l139 172l-90 172zM138 75h246l-97 185zM151 636q-8 19 -2.5 28t17.5 10l11 1h340q22 0 25.5 -9.5t-3.5 -19.5l-7 -10l-206 -255q-13 -16 -23.5 -16
t-14.5 8l-4 8zM217 625l96 -185l150 185h-246zM308 336q-7 14 4 28l206 255q15 15 25 12t15 -15l4 -11l-73 -510q-3 -19 -15 -22.5t-22 2.5l-11 6zM360 350l91 -172l49 344z" />
    <glyph glyph-name="fi" unicode="fi" horiz-adv-x="733" 
d="M56 394l19 130q1 11 10 18t18 7h49l3 17q14 98 90.5 154.5t181.5 55.5q69 0 115 -20q16 -6 12 -24l-30 -160q0 -2 -0.5 -5t-3.5 -9.5t-7 -10t-12 -3t-18 7.5q-24 16 -47 16q-26 1 -33 -19h91q20 -7 18 -25l-19 -130q-1 -11 -10.5 -18t-18.5 -7h-88l-53 -369
q-1 -11 -10.5 -18t-18.5 -7h-200q-11 0 -17 8t-4 17l53 369h-49q-11 0 -17 8t-4 17zM109 419h49q9 0 16 -7t6 -18l-53 -369h150l53 369q1 9 9 17t19 8h88l12 80h-88q-9 0 -16 7t-5 18l2 18q5 36 31.5 56.5t62.5 19.5q19 0 37 -7l19 104q-35 11 -81 11q-89 1 -147 -42
t-68 -118l-6 -42q-2 -9 -10 -17t-19 -8h-49zM445 0l78 544q2 11 11 18t18 7h202q11 0 17 -8t4 -17l-78 -544q-1 -11 -10.5 -18t-18.5 -7h-202q-11 0 -17 8t-4 17zM499 25h152l71 494h-152zM544 699q7 55 49 92t98 37t87.5 -36.5t23.5 -92.5t-50.5 -92.5t-97.5 -36.5
q-56 0 -87 37t-23 92zM594 699q-5 -36 13.5 -57.5t53.5 -21.5q36 0 61 21.5t30 57.5t-13.5 57.5t-54.5 21.5t-60.5 -21.5t-29.5 -57.5z" />
    <glyph glyph-name="fl" unicode="fl" horiz-adv-x="746" 
d="M56 395l19 129q1 11 10 18t18 7h49l3 20q13 94 89.5 151.5t183.5 56.5q65 0 114 -18q17 -7 13 -25l-29 -160q0 -2 -1 -5t-4 -9.5t-7.5 -10.5t-12.5 -3t-18 9q-18 15 -42 15q-29 1 -38 -21h88q11 0 17 -7.5t4 -17.5l-19 -129q-1 -10 -10.5 -17.5t-18.5 -7.5h-88l-53 -370
q-1 -11 -10.5 -18t-18.5 -7h-200q-11 0 -17 8t-4 17l53 370h-49q-11 0 -17 8t-4 17zM110 420h49q8 0 15 -7t6 -18l-53 -370h150l53 370q1 9 9.5 17t19.5 8h88l12 79h-89q-9 0 -16 7t-5 18l2 14q5 37 32.5 60t65.5 22q16 0 34 -6l19 103q-38 10 -81 10q-91 1 -148 -42
t-68 -116l-6 -45q-2 -9 -10 -17t-19 -8h-49zM453 0l107 742q1 11 10.5 18t18.5 7h202q10 0 16 -8t5 -17l-107 -742q-1 -11 -10.5 -18t-18.5 -7h-202q-11 0 -17 8t-4 17zM507 25h152l99 692h-152z" />
    <glyph glyph-name=".notdef" horiz-adv-x="500" 
d="M-25 0l101 700q1 10 10.5 17.5t17.5 7.5h500q11 0 17 -8t5 -17l-101 -700q-1 -11 -10.5 -18t-18.5 -7h-500q-11 0 -17 8t-4 17zM29 25h450l93 650h-450zM39 95l73 510q3 19 15 22.5t23 -2.5l10 -6l133 -255q7 -14 -4 -28l-207 -255q-14 -15 -24 -12t-14 15zM68 64
l207 255q13 16 23.5 16t14.5 -8l4 -8l133 -255q8 -19 2.5 -28t-16.5 -10l-12 -1h-340q-22 0 -26 9.5t3 19.5zM101 178l139 172l-90 172zM138 75h246l-97 185zM151 636q-8 19 -2.5 28t17.5 10l11 1h340q22 0 25.5 -9.5t-3.5 -19.5l-7 -10l-206 -255q-13 -16 -23.5 -16
t-14.5 8l-4 8zM217 625l96 -185l150 185h-246zM308 336q-7 14 4 28l206 255q15 15 25 12t15 -15l4 -11l-73 -510q-3 -19 -15 -22.5t-22 2.5l-11 6zM360 350l91 -172l49 344z" />
    <glyph glyph-name=".null" horiz-adv-x="0" 
 />
    <glyph glyph-name="nonmarkingreturn" horiz-adv-x="333" 
 />
    <glyph glyph-name="space" unicode=" " horiz-adv-x="219" 
 />
    <glyph glyph-name="exclam" unicode="!" horiz-adv-x="276" 
d="M31 87q7 51 46 84.5t90 33.5t80.5 -33t22.5 -85t-46.5 -86t-91.5 -34q-51 0 -79.5 34t-21.5 86zM81 87q-5 -32 11 -51t47 -19q32 0 54 19t27 51q5 31 -11.5 49.5t-49.5 18.5q-32 0 -53 -18.5t-25 -49.5zM92 247l2 267q0 2 1 3l26 182q1 10 10.5 17.5t17.5 7.5h192
q11 0 17 -8t5 -17l-26 -182q-1 -1 -1 -3l-74 -267q-2 -9 -10.5 -15.5t-17.5 -6.5h-121q-9 0 -15 6t-6 16zM142 275h78l67 244l22 155h-142l-22 -155z" />
    <glyph glyph-name="quotedbl" unicode="&#x22;" horiz-adv-x="478" 
d="M94 411l42 290q1 11 10.5 18t18.5 7h151q11 0 17 -8t4 -17l-42 -290q-1 -10 -10.5 -17.5t-17.5 -7.5h-151q-11 0 -17 8t-5 17zM148 436h101l34 240h-101zM301 411l42 290q1 11 10.5 18t18.5 7h151q11 0 17 -8t4 -17l-42 -290q-1 -10 -10.5 -17.5t-17.5 -7.5h-151
q-11 0 -17 8t-5 17zM355 436h101l34 240h-101z" />
    <glyph glyph-name="numbersign" unicode="#" horiz-adv-x="741" 
d="M6 149l37 138q2 9 10.5 15.5t17.5 6.5h110l20 75h-103q-10 0 -17 6.5t-4 21.5l35 138q7 22 28 22h111l36 132q2 9 10.5 15.5t17.5 6.5h144q10 0 17 -6.5t3 -21.5l-33 -126h69l36 132q2 9 10.5 15.5t17.5 6.5h145q10 0 17 -6.5t3 -21.5l-33 -126h103q11 0 18 -6.5t3 -21.5
l-36 -138q-2 -9 -10.5 -15.5t-17.5 -6.5h-111l-20 -75h104q10 0 17 -6.5t3 -21.5l-37 -138q-2 -9 -10.5 -15.5t-17.5 -6.5h-109l-34 -124q-2 -9 -10.5 -15.5t-17.5 -6.5h-145q-10 0 -17 6.5t-3 21.5l31 118h-69l-34 -124q-2 -9 -10.5 -15.5t-17.5 -6.5h-144q-10 0 -17 6.5
t-3 21.5l31 118h-104q-10 0 -17 6.5t-3 21.5zM62 171h104q15 0 19 -9t1 -19l-31 -118h93l34 124q6 22 28 22h120q15 0 19 -9t1 -19l-31 -118h94l34 124q6 22 28 22h110l23 88h-104q-15 0 -19 9t-1 19l34 125q6 22 28 22h110l23 88h-104q-27 0 -21 28l34 126h-94l-36 -132
q-2 -9 -10.5 -15.5t-17.5 -6.5h-120q-27 0 -21 28l34 126h-93l-36 -132q-2 -9 -10.5 -15.5t-17.5 -6.5h-110l-23 -88h104q15 0 19 -9t1 -19l-34 -125q-6 -22 -28 -22h-110zM319 287l34 125q6 22 28 22h120q15 0 19 -9t1 -19l-34 -125q-6 -22 -28 -22h-120q-15 0 -19 9t-1 19
zM375 309h70l20 75h-70z" />
    <glyph glyph-name="dollar" unicode="$" horiz-adv-x="655" 
d="M6 116l101 158q19 28 40 8q43 -42 112 -71.5t118 -29.5q48 0 50 22q2 12 -17 20.5t-50.5 15.5t-69 16t-74 26.5t-65.5 42.5t-43 67.5t-6 97.5q13 85 73.5 145.5t152.5 84.5l20 139q1 10 10.5 17.5t17.5 7.5h151q11 0 17 -8t5 -17l-19 -129q130 -17 217 -79q17 -12 5 -32
l-100 -160q-17 -23 -37 -11q-48 30 -110 52.5t-100 22.5q-32 0 -35 -13q-2 -11 17.5 -19.5t50.5 -16t68.5 -17.5t74 -28.5t65 -44t42.5 -69.5t6 -100q-15 -101 -91 -162t-182 -77l-19 -135q-1 -11 -10.5 -18t-18.5 -7h-151q-11 0 -17 8t-4 17l20 142q-128 30 -212 103
q-13 13 -3 31zM60 113q80 -63 197 -85q20 -4 17 -25l-19 -138h101l19 132q1 9 8.5 16.5t17.5 8.5q101 10 166 59t77 133q9 64 -23 104t-83 57t-103 31t-86.5 38t-28.5 65q5 32 32 47.5t60 15.5q89 0 212 -69l73 116q-82 52 -201 63q-9 1 -14.5 8t-4.5 17l18 126h-101
l-19 -133q-4 -21 -23 -24q-86 -19 -137.5 -67.5t-62.5 -119.5q-9 -62 23.5 -100t84 -54t103.5 -29t86 -37.5t28 -65.5q-5 -37 -36 -54.5t-71 -17.5q-54 0 -121 26t-118 67z" />
    <glyph glyph-name="percent" unicode="%" horiz-adv-x="1048" 
d="M74 492q15 107 86 172t174 65q102 0 154 -65t37 -172q-16 -107 -87 -173.5t-173 -66.5t-154.5 66.5t-36.5 173.5zM124 492q-13 -90 27 -140t122 -50q81 0 135 50.5t67 139.5q13 88 -27 137.5t-121 49.5q-82 0 -136 -49.5t-67 -137.5zM164 14l594 701q8 11 22 11h188h5
t9.5 -2t9.5 -6t1.5 -12t-11.5 -19l-593 -701q-8 -11 -22 -11h-189h-5t-9.5 2t-9.5 6t-1.5 12t11.5 19zM201 492q8 56 39.5 93.5t78.5 37.5t67 -37.5t12 -93.5t-39 -94t-78 -38t-67.5 37.5t-12.5 94.5zM234 25h128l550 651h-127zM251 492q-12 -82 37 -82q48 0 60 82
q6 42 -5 61.5t-31 19.5q-49 0 -61 -81zM625 210q16 107 87.5 172.5t173.5 65.5t154 -66t36 -172q-15 -107 -86 -173t-173 -66t-154.5 66t-37.5 173zM675 210q-13 -89 27 -139t122 -50t135.5 50t66.5 139t-27 138.5t-121 49.5q-82 0 -136 -50t-67 -138zM752 210
q8 56 39.5 93.5t78.5 37.5t67 -37.5t12 -93.5t-39 -94t-78 -38t-67.5 37.5t-12.5 94.5zM802 210q-12 -82 37 -82q48 0 60 82q12 81 -36 81q-49 0 -61 -81z" />
    <glyph glyph-name="ampersand" unicode="&#x26;" horiz-adv-x="697" 
d="M58 198q16 115 150 192q-34 73 -24 145q13 91 86 145.5t177 54.5q101 0 161.5 -52t48.5 -136q-17 -117 -174 -199q19 -24 36 -44q17 29 33 67q0 2 1 4t5 7.5t8 8t11.5 2t15.5 -7.5l114 -91q13 -10 5 -29q-34 -62 -67 -105l74 -79q16 -18 -5 -36l-116 -98q-8 -7 -18.5 -7
t-16.5 7l-68 76q-97 -57 -199 -57q-116 0 -184.5 65t-53.5 167zM108 198q-11 -79 42.5 -130.5t152.5 -51.5q97 0 187 59q20 12 32 -2l66 -73l75 63l-70 75q-15 15 1 32q34 41 64 95l-74 59q-24 -47 -44 -75q-5 -7 -10 -11t-9.5 -4.5t-8.5 1t-6.5 3t-4.5 3.5l-2 2
q-18 21 -45.5 55.5t-31.5 39.5q-11 12 -6 21t10 13t9 5q77 37 120.5 75.5t51.5 94.5q9 59 -36.5 98.5t-130.5 39.5q-88 0 -142 -40.5t-64 -109.5q-9 -66 31 -139q12 -23 -14 -36q-63 -33 -99 -70.5t-44 -91.5zM224 213q8 54 71 94q20 11 32 -4q31 -41 107 -129
q19 -22 -10 -39q-52 -29 -100 -29t-77.5 29.5t-22.5 77.5zM274 213q-4 -26 11.5 -41.5t45.5 -15.5q18 0 41 7q-46 54 -73 89q-22 -18 -25 -39zM341 536q5 36 30.5 61t61.5 25q33 0 51.5 -22t14.5 -55q-10 -65 -107 -117q-8 -5 -18 -2.5t-14 11.5q-25 49 -19 99zM391 536
q-3 -25 6 -51q46 29 52 60q3 27 -24 27q-28 0 -34 -36z" />
    <glyph glyph-name="quotesingle" unicode="'" horiz-adv-x="271" 
d="M94 411l42 290q1 11 10.5 18t18.5 7h151q11 0 17 -8t4 -17l-42 -290q-1 -10 -10.5 -17.5t-17.5 -7.5h-151q-11 0 -17 8t-5 17zM148 436h101l34 240h-101z" />
    <glyph glyph-name="parenleft" unicode="(" horiz-adv-x="359" 
d="M73 309q35 256 200 447q8 11 22 11h181h5t9 -1.5t9.5 -5t2 -12t-10.5 -19.5q-146 -193 -178 -420q-34 -227 57 -420v-1q1 -1 2 -3.5t1.5 -5t1 -6t0 -6.5t-2.5 -6t-5.5 -5t-9 -3.5t-13.5 -1.5h-181q-13 0 -19 11q-108 190 -71 447zM123 309q-34 -230 60 -408h124
q-76 195 -44 408q30 215 162 408h-125q-145 -177 -177 -408z" />
    <glyph glyph-name="parenright" unicode=")" horiz-adv-x="365" 
d="M-21 -111q145 192 179 420q32 228 -58 420v1q-1 1 -2 3.5t-1.5 5t-1 6t0.5 6.5t3 6t5.5 5t9 3.5t13.5 1.5h181q12 0 18 -11q108 -189 72 -447q-37 -257 -201 -447q-8 -11 -21 -11h-181h-5t-9.5 1.5t-9.5 5t-2 12t10 19.5zM45 -99h125q144 176 178 408q32 231 -61 408
h-124q75 -194 45 -408q-32 -216 -163 -408z" />
    <glyph glyph-name="asterisk" unicode="*" horiz-adv-x="394" 
d="M70 487q-4 9 0 19.5t14 15.5l44 23l-37 21q-8 5 -10 14.5t5 19.5l62 88q17 22 37 9l35 -24l6 45q1 10 9 18t19 8h100q11 0 17 -7.5t5 -18.5l-8 -46l42 23q10 5 20 3t14 -11l37 -86q4 -9 0 -19.5t-15 -15.5l-44 -22l38 -22q8 -5 10 -15t-5 -19l-63 -87q-6 -9 -16.5 -12
t-19.5 3l-36 24l-5 -45q-1 -10 -9 -18t-19 -8h-100q-11 0 -17 7.5t-5 18.5l9 46l-44 -23q-22 -13 -33 8zM126 491l19 -42l62 34q21 10 28.5 5.5t6.5 -16.5l-1 -11l-11 -66h48l7 65q3 21 13 26.5t19 0.5l9 -5l53 -34l30 42l-55 33q-17 12 -15.5 21.5t11.5 15.5l11 7l63 31
l-18 41l-61 -33q-21 -10 -29 -5.5t-7 15.5l1 12l11 66h-48l-9 -66q-2 -22 -12.5 -27.5t-19.5 -0.5l-9 6l-51 35l-30 -43l53 -31q18 -12 16.5 -21.5t-11.5 -15.5l-10 -7z" />
    <glyph glyph-name="plus" unicode="+" horiz-adv-x="515" 
d="M44 265l18 126q2 11 11 18t18 7h139l20 139q1 11 10.5 18t18.5 7h126q11 0 17 -8t4 -17l-20 -139h138q11 0 17 -8t4 -17l-18 -126q-1 -10 -10.5 -17.5t-17.5 -7.5h-138l-20 -139q-2 -11 -11 -18t-18 -7h-126q-11 0 -17 8t-4 17l20 139h-139q-11 0 -17 8t-5 17zM98 290
h139q9 0 15.5 -7t5.5 -18l-20 -139h76l20 139q2 9 10 17t19 8h138l11 76h-138q-9 0 -16 7t-6 18l20 139h-76l-20 -139q-1 -9 -9 -17t-19 -8h-139z" />
    <glyph glyph-name="comma" unicode="," horiz-adv-x="254" 
d="M-15 -94l57 101q-27 33 -21 79q7 51 47 85t91 34q48 0 78 -32t23 -86q-7 -45 -43 -88l-97 -117q-9 -11 -23 -11h-94q0 1 -4 0t-8.5 1t-8.5 5t-3.5 10.5t6.5 18.5zM48 -79h44l88 106q24 29 30 60q4 33 -12.5 50.5t-46.5 17.5q-31 0 -53 -19t-27 -50q-5 -33 19 -51
q15 -12 5 -31z" />
    <glyph glyph-name="hyphen" unicode="-" horiz-adv-x="377" 
d="M62 245l18 126q2 11 11 18t18 7h273q11 0 17 -8t4 -17l-18 -126q-1 -10 -10.5 -17.5t-17.5 -7.5h-273q-11 0 -17 8t-5 17zM116 270h223l11 76h-223z" />
    <glyph glyph-name="period" unicode="." horiz-adv-x="255" 
d="M21 87q7 51 46 84.5t90 33.5t80.5 -33t22.5 -85t-46.5 -86t-91.5 -34q-51 0 -79.5 34t-21.5 86zM71 87q-5 -32 11 -51t47 -19q32 0 54 19t27 51q5 31 -11.5 49.5t-49.5 18.5q-32 0 -53 -18.5t-25 -49.5z" />
    <glyph glyph-name="slash" unicode="/" horiz-adv-x="364" 
d="M-82 -99l459 915q8 17 26 17h169q4 0 9 -0.5t13 -7.5t-3 -25l-459 -915q-8 -17 -26 -17h-169q-4 0 -9 0.5t-13 7.5t3 25zM-20 -82h116l433 865h-116z" />
    <glyph glyph-name="zero" unicode="0" horiz-adv-x="708" 
d="M64 351q26 180 129.5 280.5t266.5 100.5q162 0 237.5 -100.5t49.5 -280.5t-130 -281t-266 -101q-164 0 -238.5 100.5t-48.5 281.5zM114 351q-24 -164 38 -248t206 -84q141 0 228 84t111 248q23 163 -39.5 247t-204.5 84q-143 0 -229.5 -83.5t-109.5 -247.5zM277 351
q16 117 53.5 173.5t108.5 56.5q69 0 89.5 -56.5t4.5 -173.5q-17 -116 -54.5 -173.5t-106.5 -57.5q-70 0 -91 57t-4 174zM327 351q-14 -113 -2 -147t54 -34q41 0 64.5 37t39.5 144q13 113 1 146.5t-52 33.5q-43 0 -66.5 -36.5t-38.5 -143.5z" />
    <glyph glyph-name="one" unicode="1" horiz-adv-x="425" 
d="M56 535l24 166q1 11 10.5 18t18.5 7h334q11 0 17 -8t4 -17l-101 -701q-1 -11 -10.5 -18t-18.5 -7h-209q-11 0 -17 8t-4 17l73 510h-100q-10 0 -16 8t-5 17zM110 560h100q8 0 15 -7t6 -18l-73 -510h159l93 651h-284z" />
    <glyph glyph-name="two" unicode="2" horiz-adv-x="605" 
d="M15 0l19 132q2 11 9 17l284 258q60 57 64 86q2 12 -4.5 17.5t-28.5 5.5q-73 0 -186 -83q-3 -2 -7 -4t-9.5 -3.5t-11.5 2t-9 12.5l-56 150q-7 20 12 32q177 113 331 113q114 0 184 -58t56 -154q-16 -110 -177 -253l-93 -83h212q11 0 17 -8t4 -17l-23 -162
q-1 -11 -10.5 -18t-18.5 -7h-537q-11 0 -17 8t-4 17zM69 25h487l16 112h-246q-22 0 -25 10.5t5 20.5l8 11l140 125q146 131 158 219q11 71 -43.5 116.5t-153.5 45.5q-130 0 -281 -91l39 -104q111 76 193 76q36 0 58 -19.5t17 -53.5q-7 -50 -83 -120l-275 -251z" />
    <glyph glyph-name="three" unicode="3" horiz-adv-x="567" 
d="M-14 92l106 158q1 1 2.5 3.5t6 6.5t9 6t11.5 -0.5t13 -11.5q60 -83 143 -83q35 0 50.5 11.5t18.5 37.5q4 26 -8 37t-48 11h-120q-11 0 -17 8t-5 17l16 110q1 9 10 18l114 99h-182q-11 0 -17 8t-4 17l22 154q1 10 10.5 17.5t17.5 7.5h480q11 0 17 -8t5 -17l-17 -117
q-1 -9 -10 -18l-147 -129q73 -19 111 -75t26 -138q-16 -114 -109.5 -185t-226.5 -71q-80 0 -154 25.5t-122 68.5q-14 12 -2 32zM40 87q42 -32 104.5 -51.5t126.5 -19.5q116 0 191 57t88 149q10 68 -22 111.5t-96 56.5l-30 7q-13 3 -18.5 8.5t-3.5 11t5 10.5t7 9l4 3l175 153
l12 82h-430l-15 -104h218q22 0 25 -11t-5 -21l-8 -11l-155 -134l-11 -75h95q51 0 78.5 -25.5t20.5 -72.5q-6 -46 -41 -72.5t-86 -26.5q-90 0 -157 75z" />
    <glyph glyph-name="four" unicode="4" horiz-adv-x="650" 
d="M22 143l19 138q1 6 5 11l272 420q9 14 25 14h199q0 -1 4 0t9 -1t9 -5t3 -11t-8 -19l-147 -230l12 2h193q11 0 17 -8t4 -17l-17 -116h67q11 0 17 -8t5 -17l-22 -153q-2 -11 -11 -18t-18 -7h-67l-17 -118q-1 -11 -10.5 -18t-18.5 -7h-193q-11 0 -17 8t-4 17l17 118h-306
q-11 0 -17 8t-4 17zM75 168h306q9 0 16 -7t6 -18l-17 -118h143l17 118q1 9 9 17t19 8h67l15 103h-67q-9 0 -16 7t-5 18l16 116h-143l-16 -116q-2 -9 -10 -17t-19 -8h-119q-20 0 -24 9t1 18l6 9l234 369h-143l-260 -401zM324 321h54l16 110z" />
    <glyph glyph-name="five" unicode="5" horiz-adv-x="604" 
d="M-1 94l105 157q1 1 2.5 3.5t6 6.5t9 6t11.5 -0.5t13 -11.5q58 -83 143 -83q36 0 52 12.5t19 38.5q3 23 -9 34t-48 11q-111 0 -195 -2q-10 0 -16.5 7t-5.5 18l59 410q1 11 10.5 18t18.5 7h476q11 0 17 -8t4 -17l-23 -162q-2 -11 -11 -18t-18 -7h-260l-6 -41h20
q131 0 205 -64.5t58 -171.5q-18 -123 -115.5 -197t-237.5 -74q-76 0 -151.5 26t-129.5 70q-16 12 -3 32zM53 90q48 -33 112 -53.5t125 -20.5q124 0 203 60t93 161q12 83 -46 134.5t-174 51.5h-45q-9 0 -16 7t-5 18l13 91q1 9 9 17t19 8h260l16 112h-426l-51 -360
q104 2 170 2q51 0 79 -24.5t21 -70.5q-6 -47 -41.5 -74t-86.5 -27q-92 0 -158 74z" />
    <glyph glyph-name="six" unicode="6" horiz-adv-x="641" 
d="M62 342q26 176 139.5 284.5t276.5 108.5q65 0 129.5 -17.5t109.5 -46.5q17 -12 4 -33l-100 -146q-18 -26 -38 -8q-49 41 -122 41q-91 0 -124 -63q56 28 125 28q113 0 172 -71t43 -183q-18 -123 -110.5 -196.5t-222.5 -73.5q-155 0 -230.5 103t-51.5 273zM112 342
q-22 -153 41.5 -239.5t197.5 -86.5q113 0 187.5 59.5t88.5 160.5q14 93 -33 148.5t-140 55.5q-90 0 -142 -54q-18 -16 -27.5 -12.5t-12.5 16.5l-2 12q11 81 63 127t135 46q73 0 129 -35l68 100q-87 45 -194 45q-142 0 -239 -92.5t-120 -250.5zM265 235q7 46 42 74.5t85 28.5
q48 0 73.5 -27t18.5 -74q-7 -49 -41 -77t-83 -28q-51 0 -76.5 29t-18.5 74zM315 235q-8 -53 52 -53q32 0 47 12.5t20 42.5q4 27 -7 39t-42 12q-62 0 -70 -53z" />
    <glyph glyph-name="seven" unicode="7" horiz-adv-x="607" 
d="M84 539l23 162q1 11 10.5 18t18.5 7h564q11 0 17 -8t4 -17l-20 -141q-3 -8 -4 -10l-330 -560q-7 -15 -25 -15h-220q0 1 -4 0t-9 1t-8.5 5t-3 10.5t7.5 18.5l297 504h-89l-10 -73q0 -2 -0.5 -4.5t-3 -9t-6.5 -10.5t-12 -4t-18 6l-169 98q-14 7 -10 22zM136 554l123 -71
l8 56q1 9 9 17t19 8h152q19 0 23.5 -8.5t-0.5 -17.5l-5 -9l-297 -504h165l318 540l16 111h-514z" />
    <glyph glyph-name="eight" unicode="8" horiz-adv-x="650" 
d="M32 195q8 56 44 105t89 79q-60 61 -49 144q15 98 102.5 155t211.5 57q126 0 197 -59t57 -159q-12 -81 -82 -139q42 -31 61 -78.5t12 -101.5q-16 -108 -114.5 -170t-240.5 -62t-222.5 61.5t-65.5 167.5zM82 195q-12 -80 52.5 -129.5t192.5 -49.5t207 50t91 132
q7 50 -15 91t-67 63q-18 11 -17 20.5t11 16.5l10 7q35 20 58.5 53t28.5 68q11 75 -44.5 121.5t-166.5 46.5q-110 0 -178 -44.5t-79 -117.5q-5 -34 12 -69t50 -58q16 -13 13.5 -23t-13.5 -15l-11 -6q-55 -22 -91 -64.5t-44 -92.5zM231 216q7 49 45.5 75.5t94.5 26.5
t86.5 -26.5t23.5 -75.5q-7 -48 -45 -74t-94 -26t-87 25.5t-24 74.5zM281 216q-3 -25 11.5 -37.5t56.5 -12.5q76 0 82 50q4 26 -10.5 39t-56.5 13t-60.5 -13t-22.5 -39zM289 506q7 44 40.5 68t81.5 24q49 0 76 -24t20 -68q-7 -43 -40.5 -66.5t-81.5 -23.5t-75.5 23.5
t-20.5 66.5zM339 506q-3 -20 8 -30t45 -10t48 10t17 30q3 22 -8 32t-45 10t-48 -10t-17 -32z" />
    <glyph glyph-name="nine" unicode="9" horiz-adv-x="641" 
d="M22 63l100 146q18 26 38 8q49 -41 122 -41q91 0 124 63q-56 -28 -125 -28q-113 0 -172 71t-43 183q18 123 110.5 196.5t222.5 73.5q155 0 230.5 -103t51.5 -273q-26 -176 -139.5 -284.5t-276.5 -108.5q-65 0 -129.5 17.5t-109.5 46.5q-17 12 -4 33zM78 61q87 -45 194 -45
q142 0 239 92.5t120 250.5q22 153 -41.5 239.5t-197.5 86.5q-113 0 -187.5 -59.5t-88.5 -160.5q-14 -93 33 -148.5t140 -55.5q90 0 142 54q18 16 27.5 12.5t11.5 -15.5l3 -13q-11 -81 -63 -127t-135 -46q-73 0 -129 35zM259 464q7 49 41 77t83 28q51 0 76.5 -29t18.5 -74
q-7 -46 -42 -74.5t-85 -28.5q-48 0 -73.5 27t-18.5 74zM309 464q-4 -27 7 -39t43 -12q61 0 69 53t-52 53q-32 0 -47 -12.5t-20 -42.5z" />
    <glyph glyph-name="colon" unicode=":" horiz-adv-x="254" 
d="M21 87q7 51 46 84.5t90 33.5t80.5 -33t22.5 -85t-46.5 -86t-91.5 -34q-51 0 -79.5 34t-21.5 86zM63 384q7 51 46 84.5t90 33.5q52 0 81 -33t22 -85q-8 -52 -46.5 -86t-90.5 -34q-51 0 -80 34t-22 86zM71 87q-5 -32 11 -51t47 -19q32 0 54 19t27 51q5 31 -11.5 49.5
t-49.5 18.5q-32 0 -53 -18.5t-25 -49.5zM113 384q-4 -32 12 -51t47 -19q32 0 54 19t26 51q5 31 -11.5 49.5t-48.5 18.5t-53.5 -18.5t-25.5 -49.5z" />
    <glyph glyph-name="semicolon" unicode=";" horiz-adv-x="255" 
d="M-15 -94l57 101q-27 33 -21 79q7 51 47 85t91 34q48 0 78 -32t23 -86q-7 -45 -43 -88l-97 -117q-9 -11 -23 -11h-94q0 1 -4 0t-8.5 1t-8.5 5t-3.5 10.5t6.5 18.5zM48 -79h44l88 106q24 29 30 60q4 33 -12.5 50.5t-46.5 17.5q-31 0 -53 -19t-27 -50q-5 -33 19 -51
q15 -12 5 -31zM63 384q7 51 46 84.5t90 33.5q52 0 81 -33t22 -85q-8 -52 -46.5 -86t-90.5 -34q-51 0 -80 34t-22 86zM113 384q-4 -32 12 -51t47 -19q32 0 54 19t26 51q5 31 -11.5 49.5t-48.5 18.5t-53.5 -18.5t-25.5 -49.5z" />
    <glyph glyph-name="less" unicode="&#x3c;" horiz-adv-x="515" 
d="M41 243l23 161q4 18 19 23l480 185q1 0 2 0.5t5 2t7 1.5t7.5 -0.5t6 -4t3.5 -8.5t0 -14l-20 -141q-4 -18 -20 -23l-277 -101l248 -102q15 -5 13 -23l-21 -141q0 -2 -0.5 -4t-2.5 -8.5t-6 -9t-11 -5t-17 3.5l-427 185q-14 6 -12 23zM93 260l380 -165l12 87l-290 119
q-18 9 -16.5 19.5t12.5 18.5l11 8l324 118l13 87l-427 -165z" />
    <glyph glyph-name="equal" unicode="=" horiz-adv-x="515" 
d="M28 156l19 126q1 10 10.5 17.5t17.5 7.5h453q11 0 17 -8t5 -17l-19 -126q-1 -11 -10 -18t-18 -7h-453q-11 0 -17 8t-5 17zM60 374l18 126q1 11 10.5 18t18.5 7h453q11 0 17 -8t4 -17l-18 -126q-1 -11 -10.5 -18t-18.5 -7h-453q-11 0 -17 8t-4 17zM82 181h403l11 76h-403z
M113 399h403l11 76h-403z" />
    <glyph glyph-name="greater" unicode="&#x3e;" horiz-adv-x="515" 
d="M16 67l20 141q2 17 19 23l277 101l-248 102q-16 5 -12 23l20 141q0 2 0.5 4t3 8.5t6 9t11 5t17.5 -3.5l426 -185q15 -7 13 -23l-24 -161q-2 -18 -19 -23l-479 -185q-1 0 -2 -0.5t-5 -2t-7 -1.5t-7.5 0.5t-6 4t-3.5 8.5t0 14zM71 104l427 165l18 127l-379 165l-13 -87
l290 -119q19 -9 17.5 -19.5t-13.5 -18.5l-11 -8l-324 -118z" />
    <glyph glyph-name="question" unicode="?" horiz-adv-x="486" 
d="M44 464q19 124 100 196t202 72q113 0 173 -53.5t46 -149.5q-7 -47 -28 -85.5t-46.5 -63.5t-51 -46t-44 -43.5t-22.5 -45.5q-1 -10 -10.5 -17.5t-17.5 -7.5h-151q-11 0 -17 8t-5 17q8 57 32.5 101t49.5 65.5t46 43.5t24 41q3 17 -2 22t-25 5q-21 0 -32 -12t-16 -47
q-1 -11 -10.5 -18t-18.5 -7h-155q-10 0 -16 7.5t-5 17.5zM99 489h105q10 38 36.5 61t64.5 23q35 0 55 -20.5t14 -56.5q-5 -36 -25.5 -65t-43 -46.5t-46 -48t-32.5 -66.5h102q11 33 33 61t45.5 47.5t46 40t39.5 48.5t22 62q11 74 -33.5 113.5t-142.5 39.5q-96 0 -157.5 -49.5
t-82.5 -143.5zM129 87q7 51 45 84.5t90 33.5q51 0 80.5 -33t22.5 -85t-46.5 -86t-91.5 -34q-51 0 -79.5 34t-20.5 86zM179 87q-5 -32 10.5 -51t46.5 -19q32 0 54 19t27 51q5 31 -11.5 49.5t-49.5 18.5q-31 0 -51.5 -18t-25.5 -50z" />
    <glyph glyph-name="at" unicode="@" horiz-adv-x="888" 
d="M33 268q27 191 179 323.5t342 132.5t299 -128.5t81 -320.5q-17 -118 -88.5 -193.5t-167.5 -75.5q-15 0 -22 1l30 -66q9 -19 -11 -33q-52 -37 -124.5 -58.5t-137.5 -21.5q-189 0 -298.5 126t-81.5 314zM83 268q-25 -168 72 -279t265 -111q49 0 107.5 15.5t102.5 41.5
l-17 40q-89 -51 -186 -51q-145 0 -229 98.5t-62 245.5q21 149 139.5 255t265.5 106q154 0 233 -100q79 -99 56 -257q-10 -73 -45.5 -127t-81.5 -54q-27 0 -40.5 19.5t-8.5 51.5l44 305h-79l-3 -21q-2 -15 -9 -21.5t-15 -5t-15 5.5t-9 8q-4 7 -14 16t-33 19.5t-49 10.5
q-76 0 -133 -59.5t-70 -148.5q-13 -91 35.5 -148t122.5 -57q75 0 128 64q17 18 26.5 16t13.5 -14l4 -11v-9q7 -40 48 -52q22 -4 38 -4q72 0 128 59t71 160q25 173 -71 286t-266 113t-304.5 -117.5t-159.5 -288.5zM186 268q-19 -127 52.5 -210.5t195.5 -83.5q87 0 167 49
q-29 15 -43 45q-62 -52 -139 -52q-95 0 -155.5 72t-44.5 183q16 106 88 182t172 76q53 0 96 -29q9 17 27 17h110q-65 62 -179 62q-125 0 -227 -91t-120 -220zM362 276q7 53 41.5 93.5t84.5 40.5q54 0 78 -40t17 -95q-8 -57 -43.5 -100t-89.5 -43q-52 0 -74 43.5t-14 100.5z
M412 276q-7 -42 7 -68t38 -26q28 0 48.5 25t27.5 68q5 40 -9 62.5t-43 22.5q-24 0 -44 -23t-25 -61zM704 162q-3 -21 2 -22q1 0 2 1h2q7 0 20 12.5t28.5 44.5t21.5 74q17 119 -31 199z" />
    <glyph glyph-name="A" unicode="A" horiz-adv-x="786" 
d="M-30 10l400 701q10 15 26 15h214q15 0 21 -15l187 -701q1 -1 1.5 -3.5t0.5 -8.5t-2 -10.5t-9.5 -8.5t-18.5 -4h-222q-17 0 -21 16l-21 96h-248l-50 -96q-8 -16 -26 -16h-214q0 1 -4 0t-8.5 1t-8.5 5t-3.5 10.5t6.5 18.5zM33 25h159l50 96q9 16 26 16h283q17 0 21 -16
l21 -96h167l-174 651h-181zM322 273l119 229q10 20 22 20t19 -10l6 -10l51 -229q4 -16 -3.5 -24.5t-16.5 -8.5l-9 -1h-170q-17 0 -21.5 8.5t-0.5 16.5zM384 289h98l-30 132z" />
    <glyph glyph-name="B" unicode="B" horiz-adv-x="720" 
d="M34 0l101 701q1 11 10.5 18t18.5 7h344q130 0 204 -54t61 -148q-7 -45 -34 -84.5t-67 -63.5q92 -58 75 -180q-15 -103 -107 -162t-226 -59h-359q-11 0 -17 8t-4 17zM88 25h334q119 0 191.5 47t83.5 124q8 59 -18.5 100t-80.5 53q-16 5 -15 16t11 21l9 11q49 13 81 47.5
t39 79.5q9 68 -49 110t-174 42h-319zM263 155l19 129q1 9 9.5 17t19.5 8h126q47 0 75.5 -23t22.5 -64q-6 -43 -41.5 -67.5t-82.5 -24.5h-126q-9 0 -16 7t-6 18zM302 426l18 119q1 9 9 17t19 8h126q40 0 63 -22.5t17 -60.5q-5 -38 -34.5 -62t-69.5 -24h-126q-9 0 -16 7t-6 18
zM317 180h101q62 0 67 42q3 16 -10 26.5t-46 10.5h-101zM356 451h101q42 0 47 36q2 16 -6.5 24.5t-30.5 8.5h-101z" />
    <glyph glyph-name="C" unicode="C" horiz-adv-x="690" 
d="M45 352q23 164 153.5 272t302.5 108q86 0 163.5 -35.5t126.5 -96.5q12 -17 -4 -33l-141 -142q-23 -23 -38 1q-24 38 -62 60.5t-74 22.5q-61 0 -107.5 -43.5t-56.5 -111.5t24.5 -112t95.5 -44q34 0 77.5 20t81.5 53q8 8 18.5 8t17.5 -8l102 -128q6 -8 4 -18t-9 -16
q-70 -66 -160.5 -104.5t-175.5 -38.5q-170 0 -266.5 110t-72.5 276zM95 352q-21 -145 62.5 -240.5t233.5 -95.5q68 0 142.5 29.5t136.5 80.5l-74 93q-90 -71 -176 -71q-82 0 -128.5 59.5t-33.5 146.5t76.5 146t145.5 59q88 0 155 -80l101 103q-43 46 -108 73t-134 27
q-153 0 -266 -94t-133 -236z" />
    <glyph glyph-name="D" unicode="D" horiz-adv-x="762" 
d="M34 0l101 701q1 11 10.5 18t18.5 7h307q179 0 275.5 -103.5t72.5 -271.5q-25 -169 -153.5 -272.5t-310.5 -103.5h-300q-11 0 -17 8t-4 17zM88 25h275q164 0 274 89t132 237q21 148 -61.5 236.5t-244.5 88.5h-282zM265 163l54 374q2 9 10 17t19 8h95q86 0 131.5 -60
t31.5 -153q-13 -92 -72.5 -151.5t-141.5 -59.5h-105q-9 0 -16 7t-6 18zM319 188h80q60 0 103.5 43t53.5 118q11 75 -22 119t-98 44h-70z" />
    <glyph glyph-name="E" unicode="E" 
d="M34 0l101 701q1 11 10.5 18t18.5 7h573q11 0 17 -8t4 -17l-23 -160q-1 -11 -10.5 -18t-18.5 -7h-340l-8 -60h306q11 0 17 -8t4 -17l-23 -160q-1 -11 -10.5 -18t-18.5 -7h-306l-8 -61h350q11 0 17 -8t4 -17l-23 -160q-1 -11 -10.5 -18t-18.5 -7h-583q-11 0 -17 8t-4 17z
M88 25h533l15 110h-350q-8 0 -15 7t-6 18l16 111q2 9 10 17t19 8h306l16 110h-306q-9 0 -16 7t-6 18l16 110q2 9 10 17t19 8h340l15 110h-523z" />
    <glyph glyph-name="F" unicode="F" horiz-adv-x="619" 
d="M34 0l101 701q1 11 10.5 18t18.5 7h544q11 0 17 -8t4 -17l-23 -160q-1 -11 -10.5 -18t-18.5 -7h-311l-13 -90h287q11 0 17 -8t5 -17l-23 -160q-1 -11 -10.5 -18t-18.5 -7h-287l-31 -216q-1 -11 -10.5 -18t-18.5 -7h-208q-11 0 -17 8t-4 17zM88 25h158l31 216q1 9 9 17
t19 8h287l16 110h-287q-9 0 -15.5 7t-5.5 18l20 140q2 9 10 17t19 8h311l15 110h-494z" />
    <glyph glyph-name="G" unicode="G" horiz-adv-x="740" 
d="M44 350q24 165 158.5 273.5t312.5 108.5q85 0 165 -30t132 -82q7 -7 6 -17t-8 -18l-139 -143q-20 -20 -37 -2q-28 31 -69.5 50t-82.5 19q-65 0 -115 -45t-60 -114q-10 -70 27.5 -115t103.5 -45q33 0 84 19l22 154q1 11 10.5 18t18.5 7h179q11 0 17 -8t4 -17l-40 -282
q-3 -13 -14 -21q-67 -42 -158 -68t-170 -26q-172 0 -271 109.5t-76 274.5zM94 350q-20 -144 65.5 -239t238.5 -95q67 0 147 22t140 57l35 243h-129l-21 -146q-4 -18 -18 -23q-69 -29 -121 -29q-87 0 -137 60t-37 150q13 89 79.5 149t153.5 60q93 0 166 -65l101 103
q-46 39 -113.5 62t-135.5 23q-160 0 -276.5 -94.5t-137.5 -237.5z" />
    <glyph glyph-name="H" unicode="H" horiz-adv-x="783" 
d="M34 0l101 701q1 11 10.5 18t18.5 7h208q11 0 17 -8t4 -17l-37 -254h199l37 254q1 11 10.5 18t18.5 7h208q11 0 17 -8t4 -17l-101 -701q-1 -11 -10.5 -18t-18.5 -7h-208q-11 0 -17 8t-4 17l34 236h-199l-34 -236q-1 -11 -10.5 -18t-18.5 -7h-208q-11 0 -17 8t-4 17zM88 25
h158l34 236q1 9 9 17t19 8h249q9 0 16 -7t6 -18l-34 -236h158l93 651h-158l-36 -254q-2 -9 -10 -17t-19 -8h-249q-9 0 -15.5 7t-5.5 18l36 254h-158z" />
    <glyph glyph-name="I" unicode="I" horiz-adv-x="326" 
d="M34 0l101 701q1 11 10.5 18t18.5 7h208q11 0 17 -8t4 -17l-101 -701q-1 -11 -10.5 -18t-18.5 -7h-208q-11 0 -17 8t-4 17zM88 25h158l93 651h-158z" />
    <glyph glyph-name="J" unicode="J" horiz-adv-x="554" 
d="M-12 91q-11 14 2 31l115 137q21 25 39 4q29 -35 62 -53.5t57 -18.5q19 0 29 10t14 36l67 464q1 11 10.5 18t18.5 7h210q11 0 17 -8t4 -17l-68 -469q-18 -124 -104.5 -195t-213.5 -71q-164 0 -259 125zM41 110q81 -94 213 -94q109 0 177.5 56t83.5 160l64 444h-160
l-63 -439q-6 -43 -33.5 -69.5t-67.5 -26.5q-67 0 -133 66z" />
    <glyph glyph-name="K" unicode="K" horiz-adv-x="761" 
d="M34 0l101 701q1 11 10.5 18t18.5 7h208q11 0 17 -8t4 -17l-29 -203l223 219q7 9 20 9h240q2 0 5 -0.5t10 -3.5t10 -7t0.5 -12.5t-13.5 -18.5l-280 -270l202 -400q1 -2 2 -4.5t2.5 -9t-0.5 -12t-9.5 -9.5t-21.5 -4h-249q-14 0 -19 12l-112 228l-59 -57l-23 -158
q-1 -11 -10.5 -18t-18.5 -7h-208q-11 0 -17 8t-4 17zM88 25h158l20 143q2 10 9 17l92 88q12 13 21.5 10.5t13 -6.5t4.5 -8l120 -244h190l-191 377q-8 16 7 31l252 243h-173l-265 -261q-18 -16 -27.5 -12.5t-12.5 15.5l-2 13l35 245h-158z" />
    <glyph glyph-name="L" unicode="L" horiz-adv-x="574" 
d="M34 0l101 701q1 11 10.5 18t18.5 7h208q11 0 17 -8t4 -17l-72 -502h269q11 0 17 -8t4 -17l-25 -174q-1 -11 -10.5 -18t-18.5 -7h-502q-11 0 -17 8t-4 17zM88 25h452l17 124h-269q-8 0 -15 7t-6 18l72 502h-158z" />
    <glyph glyph-name="M" unicode="M" horiz-adv-x="902" 
d="M34 0l101 701q1 11 10.5 18t18.5 7h223q16 0 20 -15l98 -335l195 335q8 15 25 15h223q11 0 17 -8t4 -17l-101 -701q-1 -11 -10.5 -18t-18.5 -7h-182q-10 0 -16.5 8t-4.5 17l41 288l-126 -228q-10 -16 -26 -16h-136q-16 0 -21 16l-60 227l-41 -287q-1 -11 -10.5 -18
t-18.5 -7h-183q-11 0 -17 8t-4 17zM88 25h133l56 390q2 13 14 15.5t23 -2.5l12 -4l87 -330h103l182 330q9 13 19.5 11t18.5 -11l9 -9l-55 -390h132l93 651h-181l-216 -373q-12 -20 -23.5 -20t-16.5 10l-6 10l-109 373h-182z" />
    <glyph glyph-name="N" unicode="N" horiz-adv-x="783" 
d="M34 0l101 701q1 11 10.5 18t18.5 7h178q12 0 18 -10l204 -333l46 318q1 11 10.5 18t18.5 7h190q11 0 17 -8t4 -17l-101 -701q-1 -11 -10.5 -18t-18.5 -7h-177q-12 0 -18 10l-204 331l-46 -316q-1 -11 -10.5 -18t-18.5 -7h-191q-11 0 -17 8t-4 17zM88 25h141l52 365
q3 20 15 24t22 -2l10 -7l235 -380h140l93 651h-140l-52 -367q-3 -20 -15 -24t-23 3l-10 6l-234 382h-141z" />
    <glyph glyph-name="O" unicode="O" horiz-adv-x="802" 
d="M45 351q23 165 155 273t306 108t275 -108t78 -273q-24 -165 -156.5 -275t-306.5 -110t-274.5 109.5t-76.5 275.5zM95 351q-21 -145 66 -240t242 -95t270 95.5t136 239.5q20 143 -67.5 237t-242.5 94q-156 0 -270 -93.5t-134 -237.5zM257 350q13 88 79.5 148t147.5 60
t127.5 -60t33.5 -148q-13 -89 -76.5 -149.5t-144.5 -60.5t-130.5 61t-36.5 149zM307 350q-10 -68 27.5 -114t96.5 -46t106.5 45.5t57.5 114.5t-24.5 113.5t-93.5 44.5q-60 0 -110 -45t-60 -113z" />
    <glyph glyph-name="P" unicode="P" 
d="M34 0l101 701q1 11 10.5 18t18.5 7h318q144 0 216.5 -72.5t53.5 -201.5q-19 -135 -113 -211.5t-238 -76.5h-85l-24 -164q-1 -11 -10.5 -18t-18.5 -7h-208q-11 0 -17 8t-4 17zM88 25h158l23 164q2 9 10 17t19 8h110q127 0 202 61.5t92 176.5q16 109 -42 166.5t-186 57.5
h-293zM292 349l28 192q2 9 10 17t19 8h100q55 0 84 -32.5t21 -87.5q-8 -56 -46.5 -89t-93.5 -33h-100q-9 0 -16 7t-6 18zM346 374h75q73 0 83 72q5 36 -10 53t-53 17h-75z" />
    <glyph glyph-name="Q" unicode="Q" horiz-adv-x="803" 
d="M45 351q23 165 155 273t306 108t275 -108t78 -273q-16 -110 -84.5 -199t-169.5 -139q11 -7 25 -7q40 0 108 45q25 17 35 -8l52 -125q7 -17 -10 -31q-50 -38 -114.5 -61t-122.5 -23q-80 0 -138 44.5t-82 120.5q-160 13 -247.5 120t-65.5 263zM95 351q-20 -140 60.5 -233.5
t227.5 -100.5q16 0 19 -16q19 -69 67 -108.5t116 -39.5q96 0 185 59l-34 83q-68 -39 -113 -39q-51 0 -83 48q-10 12 -4 21.5t10.5 12.5t9.5 5q101 40 169 121.5t84 186.5q20 143 -67.5 237t-242.5 94q-156 0 -270 -93.5t-134 -237.5zM257 350q13 88 79.5 148t147.5 60
t127.5 -60t33.5 -148q-13 -89 -76.5 -149.5t-144.5 -60.5t-130.5 61t-36.5 149zM307 350q-10 -68 27.5 -114t96.5 -46t106.5 45.5t57.5 114.5t-24.5 113.5t-93.5 44.5q-60 0 -110 -45t-60 -113z" />
    <glyph glyph-name="R" unicode="R" horiz-adv-x="725" 
d="M34 0l101 701q1 11 10.5 18t18.5 7h327q149 0 224.5 -72t56.5 -202q-21 -154 -142 -231l99 -208l1 -1q0 -1 1 -3.5t1.5 -5t1 -6t-0.5 -6.5t-3 -6t-5.5 -5t-9 -3.5t-13.5 -1.5h-236q-15 0 -20 14l-61 175h-69l-24 -164q-1 -11 -10.5 -18t-18.5 -7h-208q-11 0 -17 8t-4 17z
M88 25h158l23 164q2 9 10 17t19 8h110q15 0 20 -14l61 -175h176l-91 191q-10 22 14 35q114 59 134 201q16 108 -44.5 166t-194.5 58h-302zM292 349l28 192q2 9 10 17t19 8h119q55 0 84 -32.5t21 -87.5q-8 -56 -46.5 -89t-93.5 -33h-119q-9 0 -16 7t-6 18zM346 374h94
q73 0 83 72q5 36 -10 53t-53 17h-94z" />
    <glyph glyph-name="S" unicode="S" horiz-adv-x="655" 
d="M6 116l101 158q19 28 40 8q43 -42 112 -71.5t118 -29.5q48 0 50 22q2 12 -17 20.5t-50.5 15.5t-69 16t-74 26.5t-65.5 42.5t-43 67.5t-6 97.5q17 113 114.5 179.5t236.5 66.5q83 0 161 -23t133 -62q17 -12 5 -32l-100 -160q-17 -23 -37 -11q-48 30 -110 52.5t-100 22.5
q-32 0 -35 -13q-2 -11 17.5 -19.5t50.5 -16t68.5 -17.5t74 -28.5t65 -44t42.5 -69.5t6 -100q-12 -81 -65.5 -138t-126.5 -82t-157 -25q-94 0 -184 31t-152 85q-13 13 -3 31zM60 113q55 -43 133.5 -68.5t158.5 -25.5q118 0 198 50.5t94 144.5q9 64 -23 104t-83 57t-103 31
t-86.5 38t-28.5 65q5 32 32 47.5t60 15.5q89 0 212 -69l73 116q-106 66 -251 66q-124 0 -202.5 -53.5t-91.5 -142.5q-9 -62 23.5 -100t84 -54t103.5 -29t86 -37.5t28 -65.5q-5 -37 -36 -54.5t-71 -17.5q-54 0 -121 26t-118 67z" />
    <glyph glyph-name="T" unicode="T" horiz-adv-x="628" 
d="M58 535l24 166q1 11 10.5 18t18.5 7h616q11 0 17 -8t4 -17l-24 -166q-1 -11 -10.5 -18t-18.5 -7h-179l-73 -510q-1 -11 -10.5 -18t-18.5 -7h-209q-11 0 -17 8t-4 17l73 510h-178q-10 0 -16 8t-5 17zM112 560h178q8 0 15 -7t6 -18l-73 -510h159l73 510q2 9 10 17t19 8h179
l16 116h-566z" />
    <glyph glyph-name="U" unicode="U" horiz-adv-x="755" 
d="M66 296l58 405q1 11 10.5 18t18.5 7h208q11 0 17 -8t4 -17l-58 -405q-7 -50 17 -78t67 -28t72 27t37 79l58 405q1 11 10.5 18t18.5 7h208q11 0 17 -8t4 -17l-58 -405q-22 -150 -131.5 -240t-268.5 -90q-160 0 -245.5 90t-63.5 240zM116 296q-19 -129 52.5 -204.5
t213.5 -75.5q141 0 232.5 75t110.5 205l54 380h-158l-54 -380q-10 -70 -56.5 -113t-109.5 -43q-64 0 -100.5 43.5t-26.5 112.5l54 380h-158z" />
    <glyph glyph-name="V" unicode="V" horiz-adv-x="748" 
d="M73 692q-1 4 -2 9.5t6 15t25 9.5h222q17 0 21 -17l77 -413l195 413q9 17 27 17h213q0 -1 4 0t8.5 -1t8 -5t3.5 -10.5t-6 -17.5l-372 -701q-8 -16 -26 -16h-216q-16 0 -21 16zM131 676l155 -651h181l346 651h-159l-221 -468q-9 -20 -21 -20t-20 10l-7 10l-87 468h-167z
" />
    <glyph glyph-name="W" unicode="W" horiz-adv-x="1103" 
d="M73 693q1 1 -1 8.5t5.5 16t24.5 8.5h222q8 0 14 -5.5t7 -13.5l40 -386l148 385q9 19 27 19l203 1q20 0 22 -19l40 -386l149 386q7 19 27 19h213h3.5t8 -1t8 -4.5t4 -10t-4.5 -17.5l-331 -701q-8 -17 -27 -17h-214q-8 0 -14 5.5t-7 13.5l-38 351l-140 -351q-6 -19 -27 -19
h-214q-17 0 -21 17zM129 676l118 -651h176l171 428q7 17 19 17t21 -8l9 -9l45 -428h176l308 651h-159l-179 -466q-7 -17 -19 -17t-21 9l-9 8l-48 466l-164 -1l-179 -465q-7 -17 -19 -17t-21 9l-9 8l-48 466h-168z" />
    <glyph glyph-name="X" unicode="X" horiz-adv-x="756" 
d="M-19 14l287 343l-175 330q-1 2 -2 4.5t-2.5 9t0.5 12t9.5 9.5t21.5 4h242q14 0 19 -12l73 -149l118 149q9 12 23 12h245h5t9.5 -2t9.5 -6t1.5 -12t-10.5 -19l-266 -321l190 -352q1 -2 2 -4.5t2.5 -9t-0.5 -12t-9.5 -9.5t-21.5 -4h-250q-12 0 -19 11l-88 169l-134 -169
q-9 -11 -23 -11h-243h-5t-9.5 2t-9.5 6t-1.5 12t11.5 19zM50 25h182l151 189q12 16 22.5 16t14.5 -8l5 -8l98 -189h189l-176 327q-7 15 4 28l245 296h-184l-134 -171q-13 -16 -23.5 -16t-14.5 8l-4 8l-84 171h-182l162 -305q7 -15 -4 -28z" />
    <glyph glyph-name="Y" unicode="Y" horiz-adv-x="702" 
d="M69 689l-2 4t-1.5 8.5t1.5 11.5t9.5 9t20.5 4h208q14 0 20 -13l95 -244l163 244q8 13 24 13h207q0 -1 4.5 0t9.5 -1t8.5 -5t2.5 -11.5t-9 -19.5l-317 -473l-31 -216q-1 -11 -10.5 -18t-18.5 -7h-208q-11 0 -17 8t-4 17l31 212zM131 676l173 -446q3 -5 1 -12l-27 -193h158
l28 197q2 8 5 12l296 442h-150l-182 -273q-12 -19 -23 -19t-16 10l-5 9l-107 273h-151z" />
    <glyph glyph-name="Z" unicode="Z" horiz-adv-x="679" 
d="M-1 0l19 131q2 10 8 16l366 367h-282q-11 0 -17 8t-4 17l23 162q1 11 10.5 18t18.5 7h613q11 0 17 -8t4 -17l-19 -132q-2 -10 -8 -16l-366 -366h301q11 0 17 -8t4 -17l-23 -162q-1 -11 -10.5 -18t-18.5 -7h-632q-11 0 -17 8t-4 17zM53 25h582l16 112h-330
q-22 0 -25.5 10.5t4.5 20.5l8 10l399 400l14 98h-563l-16 -112h311q22 0 25.5 -10t-4.5 -20l-8 -11l-399 -401z" />
    <glyph glyph-name="bracketleft" unicode="[" horiz-adv-x="370" 
d="M16 -124l125 866q1 11 10.5 18t18.5 7h298q10 0 16 -8t5 -17l-22 -149q-1 -11 -10 -18t-18 -7h-94l-75 -518h94q11 0 17 -8t5 -17l-22 -149q-1 -10 -10.5 -17.5t-17.5 -7.5h-298q-11 0 -17 8t-5 17zM70 -99h248l14 99h-94q-9 0 -16 7t-5 18l81 568q2 9 10 17t19 8h94
l14 99h-248z" />
    <glyph glyph-name="backslash" unicode="\" horiz-adv-x="409" 
d="M45 800q-1 4 -2 9.5t6 14.5t24 9h169q17 0 21 -17l195 -915q1 -4 2 -9.5t-6 -14.5t-24 -9h-170q-17 0 -21 17zM101 783l184 -865h117l-185 865h-116z" />
    <glyph glyph-name="bracketright" unicode="]" horiz-adv-x="413" 
d="M13 -124l22 149q1 11 10 18t18 7h93l75 518h-93q-11 0 -17 8t-5 17l22 149q1 11 10.5 18t18.5 7h298q10 0 16 -8t5 -17l-125 -866q-1 -10 -10.5 -17.5t-17.5 -7.5h-298q-11 0 -17 8t-5 17zM67 -99h248l117 816h-248l-14 -99h93q9 0 16 -7t5 -18l-81 -568q-2 -9 -10 -17
t-19 -8h-93z" />
    <glyph glyph-name="asciicircum" unicode="^" horiz-adv-x="593" 
d="M30 152l241 383q9 14 24 14h161q16 0 21 -14l129 -383q1 -1 1.5 -3.5t1.5 -9t-1 -11t-9.5 -8.5t-19.5 -4h-141q-17 0 -21 15l-69 223l-134 -223q-9 -15 -25 -15h-141q0 1 -4 0t-9 1t-9 5t-3.5 11t7.5 19zM95 166h85l155 258q12 20 23.5 20t17.5 -10l5 -10l80 -258h85
l-113 333h-129z" />
    <glyph glyph-name="underscore" unicode="_" horiz-adv-x="592" 
d="M-54 -204l15 109q1 11 10.5 18t18.5 7h592q11 0 17 -8t4 -17l-15 -109q-2 -11 -11 -18t-18 -7h-592q-11 0 -17 8t-4 17zM-1 -179h542l9 59h-542z" />
    <glyph glyph-name="grave" unicode="`" horiz-adv-x="350" 
d="M117 699l-3 3t-5 7.5t-2.5 10.5t6.5 11t19 10l183 58q21 5 28 -11l81 -180v-1q1 -1 2 -3.5t1.5 -5t0.5 -6t-0.5 -6.5t-2.5 -6t-5.5 -5t-9 -3.5t-13.5 -1.5h-148q-10 0 -16 7zM183 707l83 -87h94l-56 125z" />
    <glyph glyph-name="a" unicode="a" horiz-adv-x="607" 
d="M18 162q13 90 83 139t180 51h102q-9 24 -60 24q-69 0 -159 -37q-10 -4 -19.5 -0.5t-12.5 14.5l-30 134q-5 22 18 32q152 58 280 58q123 0 187.5 -59t49.5 -165l-51 -353q-1 -11 -10.5 -18t-18.5 -7h-198q-11 0 -17 8t-4 17v2q-60 -36 -139 -36q-95 0 -144 54t-37 142z
M68 162q-9 -68 26.5 -107t111.5 -39q95 0 148 59q16 16 25.5 12.5t13.5 -15.5l4 -12l-5 -35h148l47 328q12 83 -37.5 128.5t-156.5 45.5t-237 -45l20 -87q90 31 154 31q54 0 83 -25.5t22 -71.5v-2q-1 -9 -9 -17t-19 -8h-133q-186 -3 -206 -140zM211 177q5 36 31.5 56
t64.5 20h92q9 0 16 -7t6 -18l-7 -49q-3 -8 -4 -10q-19 -33 -53 -52t-72 -19t-59 21.5t-15 57.5zM261 177q-2 -15 4 -22t27 -7q47 0 73 37l2 18h-67q-23 0 -30 -5.5t-9 -20.5z" />
    <glyph glyph-name="b" unicode="b" horiz-adv-x="688" 
d="M41 0l107 742q1 11 10.5 18t18.5 7h202q10 0 16 -8t5 -17l-29 -204q58 38 129 38q125 0 189 -85.5t44 -221.5q-20 -135 -106 -218t-210 -83q-73 0 -123 38l-1 -6q-1 -11 -10.5 -18t-18.5 -7h-202q-11 0 -17 8t-4 17zM95 25h152l5 38q3 21 15 25t22 -2l10 -7
q41 -61 126 -61q101 0 171 67.5t87 183.5q17 119 -35 188t-155 69q-80 0 -138 -61q-17 -15 -26.5 -11.5t-12.5 15.5l-4 12l34 236h-152zM282 274q9 62 49 104t96 42t83.5 -41.5t18.5 -104.5q-8 -63 -48 -104.5t-97 -41.5q-55 0 -82.5 42t-19.5 104zM332 274q-7 -46 10.5 -71
t49.5 -25q33 0 56.5 25t30.5 71t-10 71t-50 25q-31 0 -55.5 -25t-31.5 -71z" />
    <glyph glyph-name="c" unicode="c" horiz-adv-x="562" 
d="M33 270q20 137 117.5 221.5t236.5 84.5q92 0 157.5 -41t93.5 -115q3 -9 -1.5 -19t-14.5 -14l-166 -76q-23 -10 -32 10q-17 41 -59 41q-28 0 -50 -23.5t-28 -67.5q-6 -46 8.5 -69.5t43.5 -23.5q44 0 69 45q15 24 36 12l146 -79q8 -5 10 -14.5t-4 -18.5
q-45 -74 -124 -114.5t-175 -40.5q-137 0 -210 83.5t-54 218.5zM83 270q-17 -116 43 -184t179 -68q154 0 235 105l-104 57q-41 -52 -105 -52q-52 0 -77.5 41t-16.5 102q9 60 46 100.5t89 40.5q58 0 89 -47l119 55q-55 106 -200 106q-120 0 -200 -69.5t-97 -186.5z" />
    <glyph glyph-name="d" unicode="d" horiz-adv-x="688" 
d="M34 275q19 134 105.5 217.5t209.5 83.5q74 0 123 -38l30 204q1 11 10.5 18t18.5 7h202q10 0 16 -8t5 -17l-107 -742q-1 -11 -10.5 -18t-18.5 -7h-202q-11 0 -17 8t-4 17l1 5q-59 -37 -130 -37q-125 0 -188.5 85t-43.5 222zM84 275q-17 -119 34.5 -188t155.5 -69
q81 0 138 60q17 15 26.5 11.5t12.5 -15.5l3 -12l-5 -37h152l99 692h-152l-34 -236q-3 -21 -14.5 -25t-21.5 2l-10 7q-42 61 -126 61q-101 0 -171.5 -67.5t-86.5 -183.5zM237 270q9 63 49 104.5t96 41.5t83.5 -42t18.5 -104q-9 -63 -48.5 -105t-95.5 -42q-57 0 -84.5 42
t-18.5 105zM287 270q-7 -47 10 -72t50 -25q32 0 56.5 25t30.5 72q7 46 -10 71t-49 25q-33 0 -57 -25t-31 -71z" />
    <glyph glyph-name="e" unicode="e" horiz-adv-x="609" 
d="M33 270q19 137 118 221.5t238 84.5q17 0 25 -1q140 -8 201.5 -104t30.5 -249q-2 -10 -10.5 -17t-17.5 -7h-109l78 -89q15 -16 -4 -35q-111 -106 -276 -106q-144 0 -219 83t-55 219zM83 270q-17 -116 44 -184t188 -68q125 0 217 73l-61 69q-63 -43 -125 -43
q-47 0 -77.5 26.5t-38.5 72.5q-2 15 6 23t13 8.5t10 0.5h342q20 131 -36.5 204.5t-182.5 73.5q-120 0 -201.5 -69t-97.5 -187zM241 326q16 49 50.5 81t79.5 32q48 0 73 -33.5t17 -83.5q-2 -9 -10 -17t-18 -8h-171q-29 0 -21 29zM291 198q19 -31 62 -31t90 31h-152zM302 347
h110q-6 42 -48 42q-36 0 -62 -42z" />
    <glyph glyph-name="f" unicode="f" horiz-adv-x="409" 
d="M55 387l18 129q2 11 11 18t18 7h49l4 25q14 97 90.5 154t181.5 56q105 0 173 -42q8 -5 9 -15t-4 -18l-89 -139q-3 -5 -7.5 -9t-13 -6.5t-17.5 6.5q-21 16 -41 16q-31 0 -36 -27v-1h88q11 0 17 -8t4 -17l-18 -129q-1 -11 -10.5 -18t-18.5 -7h-88l-52 -362
q-1 -11 -10.5 -18t-18.5 -7h-200q-11 0 -17 8t-4 17l52 362h-49q-11 0 -17 8t-4 17zM108 412h49q9 0 16 -7t6 -18l-52 -362h150l52 362q1 9 9 17t19 8h88l12 79h-88q-9 0 -16 7t-6 18l4 26q5 35 32 56t61 21q22 0 46 -11l59 93q-58 25 -129 25q-89 1 -147 -42t-68 -118
l-8 -50q-1 -9 -9 -17t-19 -8h-49z" />
    <glyph glyph-name="g" unicode="g" horiz-adv-x="651" 
d="M3 -121l87 136q17 25 37 10q63 -46 147 -46q89 0 100 61q-56 -34 -126 -34q-111 0 -170.5 80.5t-41.5 207.5q18 124 99 203t191 79q71 0 120 -35v3q2 11 11 18t18 7h200q11 0 17 -8t4 -17l-71 -497q-18 -126 -119.5 -200.5t-244.5 -74.5q-150 0 -254 75q-16 11 -4 32z
M58 -123q89 -55 210 -55q126 0 209 61t98 164l68 472h-150l-5 -34q-3 -21 -15 -25t-22 2l-10 7q-40 57 -122 57q-89 0 -153.5 -62.5t-79.5 -169.5q-15 -110 32.5 -174t136.5 -64q79 0 135 56q17 15 26.5 11.5t12.5 -15.5l3 -12l-8 -55q-7 -52 -51 -82t-106 -30
q-82 0 -151 40zM225 288q8 59 46 99t91 40q54 0 80 -39.5t18 -99.5q-8 -59 -46.5 -98t-91.5 -39t-79 39t-18 98zM275 288q-7 -42 8.5 -64.5t45.5 -22.5t52 22.5t29 64.5q6 43 -9.5 66t-46.5 23q-29 0 -51 -23t-28 -66z" />
    <glyph glyph-name="h" unicode="h" 
d="M41 0l107 742q1 11 10.5 18t18.5 7h202q10 0 16 -8t5 -17l-31 -215q68 50 155 50q98 0 150.5 -64.5t37.5 -167.5l-50 -345q-1 -11 -10.5 -18t-18.5 -7h-202q-11 0 -17 8t-4 17l41 287q10 63 -43 63q-31 -1 -51 -21.5t-25 -59.5l-39 -269q-1 -11 -10.5 -18t-18.5 -7h-202
q-11 0 -17 8t-4 17zM95 25h152l35 244q8 55 44 92.5t88 38.5q47 0 71 -32t16 -81l-37 -262h152l46 320q12 85 -27.5 133.5t-117.5 48.5q-101 0 -164 -80q-14 -16 -24 -13t-15 14l-5 12l37 257h-152z" />
    <glyph glyph-name="i" unicode="i" horiz-adv-x="324" 
d="M36 0l78 544q2 11 11 18t18 7h202q11 0 17 -8t4 -17l-78 -544q-1 -11 -10.5 -18t-18.5 -7h-202q-11 0 -17 8t-4 17zM90 25h152l71 494h-152zM135 699q7 55 49 92t98 37t87.5 -36.5t23.5 -92.5t-50.5 -92.5t-97.5 -36.5q-56 0 -87 37t-23 92zM185 699q-5 -36 13.5 -57.5
t53.5 -21.5q36 0 61 21.5t30 57.5t-13.5 57.5t-54.5 21.5t-60.5 -21.5t-29.5 -57.5z" />
    <glyph glyph-name="j" unicode="j" horiz-adv-x="335" 
d="M-135 -160l67 140q16 27 38 14q22 -14 44 -14q14 0 19.5 5t7.5 22l77 537q2 11 11 18t18 7h202q11 0 17 -8t4 -17l-80 -561q-15 -98 -88.5 -154.5t-175.5 -55.5q-91 0 -153 37q-18 10 -8 30zM-80 -155q47 -22 114 -22q84 -1 139.5 42t66.5 118l77 536h-152l-74 -512
q-5 -34 -28.5 -55.5t-55.5 -21.5q-20 0 -42 8zM130 699q8 56 52.5 92.5t102.5 36.5q59 0 93 -36.5t26 -92.5q-8 -57 -52.5 -93t-103.5 -36t-92.5 36t-25.5 93zM180 699q-5 -35 15 -57t60 -22t67 22t32 57t-15.5 57t-60.5 22t-66.5 -22t-31.5 -57z" />
    <glyph glyph-name="k" unicode="k" horiz-adv-x="648" 
d="M41 0l107 742q1 11 10.5 18t18.5 7h202q10 0 16 -8t5 -17l-43 -297l123 116q10 8 20 8h228q2 0 5 -0.5t10 -3.5t10 -7.5t0.5 -12.5t-13.5 -18l-214 -196l144 -318v-1q1 -1 2 -3.5t1.5 -5t1 -6t-0.5 -6.5t-3 -6t-5.5 -5t-9 -3.5t-13.5 -1.5h-239q-14 0 -20 13l-60 159
l-11 -11l-20 -136q-1 -11 -10.5 -18t-18.5 -7h-202q-11 0 -17 8t-4 17zM95 25h152l17 121q2 12 9 17l48 43q15 12 23.5 11t11.5 -9l4 -7l67 -176h179l-134 296q-7 16 7 30l184 168h-159l-165 -155q-18 -15 -27.5 -11.5t-11.5 15.5l-2 13l48 336h-152z" />
    <glyph glyph-name="l" unicode="l" horiz-adv-x="335" 
d="M41 0l107 742q1 11 10.5 18t18.5 7h202q10 0 16 -8t5 -17l-107 -742q-1 -11 -10.5 -18t-18.5 -7h-202q-11 0 -17 8t-4 17zM95 25h152l99 692h-152z" />
    <glyph glyph-name="m" unicode="m" horiz-adv-x="1034" 
d="M36 0l78 544q2 11 11 18t18 7h202q11 0 17 -8t4 -17l-2 -16q67 49 151 49q118 0 167 -91q77 91 196 91q97 0 148.5 -64.5t36.5 -167.5l-50 -345q-1 -11 -10.5 -18t-18.5 -7h-202q-11 0 -17 8t-4 17l41 287q5 31 -6.5 47t-33.5 16q-28 -1 -47.5 -21.5t-24.5 -59.5
l-39 -269q-1 -11 -10.5 -18t-18.5 -7h-202q-11 0 -17 8t-4 17l41 287q5 31 -6.5 47t-33.5 16q-29 -1 -48.5 -21.5t-24.5 -59.5l-39 -269q-1 -11 -10.5 -18t-18.5 -7h-202q-11 0 -17 8t-4 17zM90 25h152l35 244q8 55 43 92.5t86 38.5q46 0 69 -32t15 -81l-37 -262h152l35 244
q8 55 43 92.5t85 38.5q46 0 69 -32t15 -81l-37 -262h152l46 320q12 85 -27 133.5t-115 48.5q-113 0 -176 -103q-14 -20 -24 -20t-16 10l-6 11q-12 49 -48.5 75.5t-92.5 26.5q-98 0 -159 -79q-14 -16 -24 -13t-15 15l-6 11l9 58h-152z" />
    <glyph glyph-name="n" unicode="n" horiz-adv-x="678" 
d="M36 0l78 544q2 11 11 18t18 7h202q11 0 17 -8t4 -17l-2 -17q68 50 155 50q98 0 150.5 -64.5t37.5 -167.5l-50 -345q-1 -11 -10.5 -18t-18.5 -7h-202q-11 0 -17 8t-4 17l41 287q10 63 -43 63q-31 -1 -51 -21.5t-25 -59.5l-39 -269q-1 -11 -10.5 -18t-18.5 -7h-202
q-11 0 -17 8t-4 17zM90 25h152l35 244q8 55 44 92.5t88 38.5q47 0 71 -32t16 -81l-37 -262h152l46 320q12 85 -28 133.5t-117 48.5q-101 0 -164 -80q-14 -16 -24 -13t-15 14l-5 12l9 59h-152z" />
    <glyph glyph-name="o" unicode="o" horiz-adv-x="643" 
d="M33 272q20 137 123 220.5t249 83.5t224.5 -83.5t58.5 -220.5q-19 -136 -122 -220t-249 -84t-224.5 83.5t-59.5 220.5zM83 272q-17 -115 48.5 -184.5t193.5 -69.5t212 69t101 185q17 117 -47.5 185.5t-192.5 68.5t-213 -69t-102 -185zM237 270q9 63 49 104.5t96 41.5
t83.5 -42t18.5 -104q-9 -63 -48.5 -104.5t-95.5 -41.5q-57 0 -84.5 41.5t-18.5 104.5zM287 270q-7 -47 10 -71.5t50 -24.5t56.5 25t30.5 71t-10 71t-49 25q-33 0 -57 -25t-31 -71z" />
    <glyph glyph-name="p" unicode="p" horiz-adv-x="688" 
d="M13 -194l106 738q2 11 11 18t18 7h202q11 0 17 -8t4 -17v-6q58 38 129 38q125 0 189 -85.5t44 -221.5q-20 -135 -106 -218t-210 -83q-73 0 -123 38l-29 -200q-1 -11 -10.5 -18t-18.5 -7h-202q-11 0 -17 8t-4 17zM67 -169h152l33 232q3 21 15 25t22 -2l10 -7
q41 -61 126 -61q101 0 171 67.5t87 183.5q17 119 -35 188t-155 69q-80 0 -138 -61q-17 -15 -26.5 -11.5t-12.5 15.5l-4 12l6 38h-152zM282 274q9 62 49 104t96 42t83.5 -41.5t18.5 -104.5q-8 -63 -48 -104.5t-97 -41.5q-55 0 -82.5 42t-19.5 104zM332 274q-7 -46 10.5 -71
t49.5 -25q33 0 56.5 25t30.5 71t-10 71t-50 25q-31 0 -55.5 -25t-31.5 -71z" />
    <glyph glyph-name="q" unicode="q" horiz-adv-x="688" 
d="M34 275q19 134 105.5 217.5t209.5 83.5q74 0 123 -38l1 6q2 11 11 18t18 7h202q11 0 17 -8t4 -17l-106 -738q-1 -11 -10.5 -18t-18.5 -7h-202q-11 0 -17 8t-4 17l29 199q-59 -37 -130 -37q-125 0 -188.5 85t-43.5 222zM84 275q-17 -119 34.5 -188t155.5 -69q81 0 138 60
q17 15 26.5 11.5t12.5 -15.5l3 -12l-33 -231h152l99 688h-152l-6 -38q-3 -21 -14.5 -25t-21.5 2l-10 7q-42 61 -126 61q-101 0 -171.5 -67.5t-86.5 -183.5zM237 270q9 63 49 104.5t96 41.5t83.5 -42t18.5 -104q-9 -63 -48.5 -105t-95.5 -42q-57 0 -84.5 42t-18.5 105z
M287 270q-7 -47 10 -72t50 -25q32 0 56.5 25t30.5 72q7 46 -10 71t-49 25q-33 0 -57 -25t-31 -71z" />
    <glyph glyph-name="r" unicode="r" horiz-adv-x="444" 
d="M36 0l78 544q2 11 11 18t18 7h202q11 0 17 -8t4 -17l-2 -19q69 52 153 52q11 0 17 -8t5 -17l-27 -182q-1 -10 -9 -18.5t-22 -6.5q-11 2 -31 2q-112 0 -125 -87l-37 -260q-1 -11 -10.5 -18t-18.5 -7h-202q-11 0 -17 8t-4 17zM90 25h152l33 235q10 66 63 102.5t128 34.5
l19 128q-80 -9 -137 -80q-14 -16 -24 -13t-15 14l-5 12l9 61h-152z" />
    <glyph glyph-name="s" unicode="s" horiz-adv-x="535" 
d="M3 79l80 127q17 25 38 10q89 -63 174 -63q3 0 8.5 0.5t6.5 0.5q-8 5 -41.5 14t-68 21.5t-69 33.5t-52.5 59t-11 89q15 96 95.5 151.5t191.5 55.5q133 0 242 -69q8 -5 9 -15.5t-4 -18.5l-86 -127q-6 -9 -17 -12t-18 2q-98 54 -159 54q-3 0 -7 -0.5t-5 -0.5q7 -5 32.5 -12
t54.5 -15t61 -24t56.5 -36.5t37.5 -55t7 -77.5q-14 -96 -96.5 -150.5t-197.5 -54.5q-158 0 -259 82q-15 11 -3 31zM57 77q87 -61 215 -61q101 0 163.5 42t73.5 113q6 45 -19 74.5t-64.5 43t-80 24.5t-67 29.5t-22.5 48.5q4 26 26 38.5t48 12.5q65 0 160 -49l56 84
q-93 51 -198 51q-97 0 -158 -42.5t-72 -114.5q-6 -45 18.5 -74t63.5 -42.5t78.5 -24t65 -29t21.5 -48.5q-7 -50 -77 -50q-88 0 -179 56z" />
    <glyph glyph-name="t" unicode="t" horiz-adv-x="449" 
d="M44 387l18 129q2 11 11 18t18 7h50l18 126q1 11 10.5 18t18.5 7h201q11 0 17 -8t4 -17l-18 -126h109q11 0 17 -8t4 -17l-18 -129q-1 -11 -10.5 -18t-18.5 -7h-109l-23 -161q-3 -17 1 -22t16 -5q13 0 55 14q28 10 31 -17l16 -139q2 -18 -16 -28q-71 -38 -169 -38
q-97 -1 -150 54.5t-40 149.5l28 192h-50q-11 0 -17 8t-4 17zM97 412h50q9 0 16 -7t6 -18l-32 -217q-10 -73 29 -114t118 -40q68 0 125 23l-10 93q-28 -8 -46 -8q-32 0 -48.5 21.5t-11.5 55.5l27 186q1 9 9 17t19 8h109l12 79h-109q-9 0 -16 7t-6 18l19 126h-151l-19 -126
q-1 -9 -9 -17t-19 -8h-50z" />
    <glyph glyph-name="u" unicode="u" horiz-adv-x="668" 
d="M50 199l49 345q2 11 11 18t18 7h202q11 0 17 -8t4 -17l-41 -288q-8 -62 39 -62q59 2 71 81l38 269q2 11 11 18t18 7h202q11 0 17 -8t4 -17l-78 -544q-1 -11 -10.5 -18t-18.5 -7h-202q-11 0 -17 8t-4 17l2 15q-66 -49 -149 -49q-96 0 -147 64.5t-36 168.5zM100 199
q-13 -85 26 -134t114 -49q97 0 158 78q14 16 24 13t15 -15l5 -11l-8 -56h152l71 494h-152l-35 -244q-8 -55 -42.5 -92.5t-85.5 -38.5q-45 0 -67 32t-15 80l38 263h-152z" />
    <glyph glyph-name="v" unicode="v" horiz-adv-x="594" 
d="M46 535q0 1 -1 3.5t-0.5 8.5t2.5 10.5t9 8t18 3.5h208q19 0 21 -18l37 -274l116 274q9 18 27 18h202q0 -1 4 0t8.5 -1t8 -5t3.5 -10.5t-5 -17.5l-282 -544q-9 -16 -26 -16h-206q-17 0 -21 16zM103 519l112 -494h171l256 494h-147l-145 -342q-8 -17 -20 -17t-20 8l-9 9
l-45 342h-153z" />
    <glyph glyph-name="w" unicode="w" horiz-adv-x="959" 
d="M46 535q0 1 -0.5 3.5t-0.5 8.5t2 10.5t9 8t18 3.5h205q19 0 21 -18l36 -260l108 260q8 18 27 18h190q19 0 21 -18l36 -261l109 261q9 18 27 18h196h4t8 -1.5t8 -5t4 -10t-5 -17.5l-277 -544q-9 -16 -26 -16h-199q-19 0 -21 18l-33 230l-101 -230q-8 -18 -27 -18h-199
q-17 0 -21 16zM102 519l109 -494h163l129 294q8 18 20 18t20 -9l8 -9l42 -294h163l251 494h-141l-138 -329q-8 -17 -20 -17t-20 9l-9 8l-44 329h-152l-136 -329q-8 -17 -20 -17t-21 9l-8 8l-45 329h-151z" />
    <glyph glyph-name="x" unicode="x" horiz-adv-x="633" 
d="M-20 14l211 264l-126 252q-1 2 -2 4.5t-2 9t0.5 12t9.5 9.5t21 4h232q14 0 20 -13l40 -102l76 103q9 12 23 12h220h5t9.5 -2t9.5 -5.5t1.5 -11.5t-10.5 -19l-197 -252l135 -265q1 -2 2 -4.5t2.5 -9t-0.5 -12t-9.5 -9.5t-21.5 -4h-232q-14 0 -20 13l-46 116l-91 -117
q-8 -12 -23 -12h-222h-5t-9.5 2t-9.5 5.5t-1.5 12t10.5 19.5zM49 25h162l109 142q15 18 24.5 17.5t13.5 -9.5l5 -9l56 -141h171l-122 240q-6 15 4 27l178 227h-160l-95 -129q-15 -18 -25 -17.5t-14 9.5l-5 9l-49 128h-171l113 -227q7 -14 -4 -28z" />
    <glyph glyph-name="y" unicode="y" horiz-adv-x="605" 
d="M-56 -130l104 135q5 8 14.5 12t23.5 -6q24 -25 53 -25q26 0 40 21l6 9l-146 518q-2 4 -3 10t5.5 15.5t25.5 9.5h207q17 0 21 -17l56 -261l117 260q7 18 26 18h201q0 -1 4 0t8.5 -1t8 -5t3.5 -10.5t-6 -17.5l-313 -590q-95 -173 -274 -173q-104 0 -181 65q-16 14 -1 33z
M-2 -136q59 -42 135 -42q148 0 223 141l295 556h-146l-141 -315q-8 -20 -20 -20t-20 10l-7 9l-68 316h-151l139 -494q2 -12 -4 -22l-13 -18q-31 -49 -88 -49q-35 0 -64 19z" />
    <glyph glyph-name="z" unicode="z" horiz-adv-x="561" 
d="M4 0l17 119q2 10 9 17l240 231h-178q-11 0 -17 8t-5 17l22 152q2 11 11 18t18 7h488q11 0 17 -8t4 -17l-17 -120q-2 -10 -9 -17l-240 -231h198q11 0 17 -8t5 -17l-22 -151q-1 -11 -10.5 -18t-18.5 -7h-508q-11 0 -17 8t-4 17zM58 25h458l14 101h-229q-22 0 -25 10.5
t5 21.5l8 10l275 266l13 85h-438l-15 -102h209q22 0 25.5 -10.5t-4.5 -20.5l-8 -11l-276 -266z" />
    <glyph glyph-name="braceleft" unicode="{" horiz-adv-x="370" 
d="M27 232l22 153q2 11 11 18t18 7h42q6 0 7 1q2 3 3 13l25 173q13 91 69 131.5t166 40.5h79q11 0 17 -8t4 -17l-21 -149q-1 -11 -10.5 -18t-18.5 -7q-44 0 -52.5 -5.5t-11.5 -30.5l-14 -97q-13 -92 -70 -128q46 -37 33 -128l-14 -97q-4 -15 -2 -23t13 -10.5t43 -2.5
q11 0 17 -8t4 -17l-21 -149q-1 -11 -10.5 -18t-18.5 -7h-79q-109 0 -153.5 40t-31.5 132l25 173q1 6 1 13h-7h-42q-11 0 -17 8t-5 17zM81 257h17q26 0 39 -13q14 -15 10 -50l-25 -173q-11 -73 17 -97.5t125 -24.5h54l15 100q-83 6 -72 85l14 97q7 51 -4.5 72t-52.5 32
q-14 5 -12.5 16t10.5 21l10 11q43 10 61 31t25 73l14 97q11 79 96 85l15 100h-54q-97 0 -132 -25t-46 -97l-25 -173q-4 -33 -25 -51q-17 -13 -42 -13h-17z" />
    <glyph glyph-name="bar" unicode="|" horiz-adv-x="314" 
d="M42 -106l130 905q1 11 10.5 18t18.5 7h150q11 0 17 -8t4 -17l-130 -905q-1 -11 -10.5 -18t-18.5 -7h-150q-11 0 -17 8t-4 17zM95 -81h100l124 855h-100z" />
    <glyph glyph-name="braceright" unicode="}" horiz-adv-x="385" 
d="M-8 -126l21 149q1 11 10.5 18t18.5 7q45 0 53 5.5t11 30.5l14 97q13 91 70 128q-46 36 -33 128l14 97q4 15 2 23t-13 10.5t-43 2.5q-11 0 -17 8t-4 17l21 149q1 11 10.5 18t18.5 7h79q109 0 153.5 -40.5t31.5 -131.5l-25 -173q-2 -11 0 -13q1 -1 6 -1h42q11 0 17 -8
t4 -17l-22 -153q-1 -11 -10 -18t-18 -7h-42h-7q-1 -3 -3 -13l-25 -173q-13 -92 -69.5 -132t-165.5 -40h-79q-11 0 -17 8t-4 17zM45 -101h54q98 0 132.5 24.5t45.5 97.5l25 173q4 33 24 50q17 13 43 13h17l15 103h-17q-26 0 -39 13q-14 15 -10 51l25 173q11 72 -17 97
t-125 25h-54l-15 -100q83 -6 72 -85l-14 -97q-7 -52 4.5 -73t52.5 -31q14 -5 12.5 -15.5t-10.5 -21.5l-9 -11q-44 -11 -62 -32t-25 -72l-14 -97q-11 -79 -96 -85z" />
    <glyph glyph-name="asciitilde" unicode="~" horiz-adv-x="515" 
d="M60 235q31 212 177 212q35 0 64 -11.5t44 -23.5l15 -12h1q4 8 5 18q1 11 10.5 18t18.5 7h134q11 0 17 -8t4 -17q-31 -212 -176 -212q-35 0 -64.5 12t-44.5 24l-15 11q-4 -6 -5 -18q-1 -11 -10.5 -18t-18.5 -7h-135q-11 0 -17 8t-4 17zM114 260h87q8 23 27 35q12 8 30 8
q26 0 59.5 -23.5t63.5 -23.5q46 0 73.5 30.5t41.5 106.5h-86q-10 -23 -25 -34q-17 -9 -33 -9q-26 0 -59.5 23.5t-62.5 23.5q-46 0 -74 -30.5t-42 -106.5z" />
    <glyph glyph-name="nbspace" unicode="&#xa0;" horiz-adv-x="219" 
 />
    <glyph glyph-name="exclamdown" unicode="&#xa1;" horiz-adv-x="276" 
d="M-2 -156l26 181v3l74 268q2 9 10.5 15.5t17.5 6.5h121q9 0 15.5 -6t5.5 -16l-2 -268v-3l-26 -181q-2 -11 -11 -18t-18 -7h-192q-11 0 -17 8t-4 17zM51 -131h142l22 154l3 245h-77l-68 -245zM91 456q8 52 46.5 86t90.5 34q51 0 80 -34t22 -86q-8 -51 -46.5 -85t-89.5 -34
q-52 0 -81.5 34t-21.5 85zM141 456q-5 -32 11.5 -50.5t48.5 -18.5t53.5 19t25.5 50q4 32 -12 51t-47 19q-32 0 -54 -19t-26 -51z" />
    <glyph glyph-name="cent" unicode="&#xa2;" horiz-adv-x="560" 
d="M33 270q16 111 85.5 190t173.5 105l21 143q1 11 10.5 18t18.5 7h152q11 0 17 -8t4 -17l-21 -148q106 -38 144 -140q7 -22 -16 -33l-166 -76q-23 -10 -32 10q-17 41 -59 41q-28 0 -50 -23.5t-28 -67.5q-6 -46 8.5 -69.5t43.5 -23.5q44 0 69 45q15 24 36 12l146 -79
q8 -5 10 -14.5t-4 -17.5q-61 -103 -185 -140l-21 -144q-1 -11 -10.5 -18t-18.5 -7h-152q-11 0 -17 8t-4 17l20 139q-97 26 -144 103.5t-31 187.5zM83 270q-14 -99 29 -164t132 -82q20 -4 17 -25l-19 -134h102l19 138q4 19 23 24q99 24 154 96l-104 57q-41 -52 -105 -52
q-52 0 -77.5 41t-16.5 102q9 60 46 100.5t89 40.5q58 0 89 -47l119 55q-37 73 -124 97q-18 4 -15 24l20 142h-102l-19 -138q-4 -20 -24 -25q-94 -17 -156.5 -83t-76.5 -167z" />
    <glyph glyph-name="sterling" unicode="&#xa3;" horiz-adv-x="562" 
d="M-1 0l22 156q2 11 11 18t18 7h47l10 66h-47q-11 0 -17 8t-5 17l20 136q1 10 10.5 17.5t17.5 7.5h47l5 35q19 125 103 196t212 71q141 0 224 -91q12 -13 1 -29l-99 -153q-1 -1 -2 -3.5t-5.5 -6.5t-9 -6t-11.5 -0.5t-13 9.5q-48 56 -94 56q-23 0 -33 -9.5t-14 -37.5l-5 -31
h138q11 0 17 -8t5 -17l-20 -136q-1 -10 -10.5 -17.5t-17.5 -7.5h-138l-10 -66h222q11 0 17 -8t4 -17l-22 -156q-1 -11 -10.5 -18t-18.5 -7h-528q-11 0 -17 8t-4 17zM53 25h478l15 106h-222q-9 0 -16 7t-6 18l17 116q2 9 10 17t19 8h138l12 86h-138q-9 0 -15.5 7t-5.5 18
l8 56q6 44 34 70.5t70 26.5q55 0 105 -47l69 106q-70 65 -179 65q-111 0 -176.5 -55.5t-81.5 -161.5l-8 -60q-2 -9 -10 -17t-19 -8h-47l-12 -86h47q9 0 15.5 -7t5.5 -18l-17 -116q-1 -9 -9 -17t-19 -8h-47z" />
    <glyph glyph-name="currency" unicode="&#xa4;" horiz-adv-x="697" 
d="M13 83q-6 7 -4.5 18t10.5 18l102 88q-16 54 -9 115q8 55 38 109l-74 85q-6 7 -4.5 18t9.5 18l129 113q20 16 36 0l72 -86q57 24 117 24t110 -24l98 86q9 7 19.5 6.5t15.5 -6.5l97 -113q6 -9 4 -19.5t-9 -16.5l-99 -86q14 -53 5 -108q-7 -58 -41 -114l78 -89q6 -7 4.5 -18
t-9.5 -18l-130 -113q-10 -7 -19.5 -6.5t-15.5 6.5l-78 92q-55 -21 -111 -21q-58 0 -105 21l-104 -92q-7 -7 -18 -7t-17 7zM69 101l66 -78l98 87q15 11 30 4q43 -23 98 -23q56 0 105 23q18 10 28 -4l74 -87l89 78l-73 84q-11 14 0 30q35 49 42 107q9 55 -8 102q-6 16 9 29
l93 81l-67 78l-92 -81q-14 -13 -30 -4q-44 26 -103 26t-111 -26q-18 -9 -29 4l-68 81l-89 -78l70 -80q11 -13 1 -29q-31 -48 -40 -103q-8 -60 12 -108q6 -17 -9 -30zM269 322q7 52 49.5 88.5t93.5 36.5q52 0 83.5 -36.5t24.5 -88.5q-7 -51 -49 -87t-94 -36t-83.5 36
t-24.5 87zM319 322q-4 -30 15 -51.5t50 -21.5t56.5 22t29.5 51q5 31 -14.5 53t-50.5 22t-56.5 -22t-29.5 -53z" />
    <glyph glyph-name="yen" unicode="&#xa5;" horiz-adv-x="684" 
d="M62 146l11 75q1 10 10.5 17.5t17.5 7.5h140l-1 4h-138q-11 0 -17 8t-4 17l10 74q1 11 10.5 18t18.5 7h71l-122 315l-2 4t-1.5 8.5t1.5 11.5t9.5 9t20.5 4h208q14 0 20 -13l95 -244l163 244q8 13 24 13h208q0 -1 4.5 0t9.5 -1t8.5 -5t2.5 -11.5t-9 -19.5l-212 -315h57
q11 0 17 -8t4 -17l-10 -74q-2 -11 -11 -18t-18 -7h-122l-2 -4h123q11 0 17 -8t5 -17l-11 -75q-1 -11 -10.5 -18t-18.5 -7h-140l-17 -121q-1 -11 -10.5 -18t-18.5 -7h-208q-11 0 -17 8t-4 17l17 121h-158q-11 0 -17 8t-4 17zM116 171h158q8 0 15 -7t6 -18l-17 -121h158
l17 121q2 9 10 17t19 8h140l3 25h-140q-20 0 -24.5 9t1.5 19l6 9l36 54q9 13 24 13h112l4 24h-73q-20 0 -24.5 9t1.5 19l6 9l212 315h-151l-182 -273q-12 -19 -23 -19t-16 10l-5 9l-107 273h-151l122 -315q6 -20 0 -28t-17 -9h-10h-88l-4 -24h128q15 0 20 -13l21 -54
q7 -18 0 -27.5t-17 -9.5h-11h-156z" />
    <glyph glyph-name="brokenbar" unicode="&#xa6;" horiz-adv-x="314" 
d="M42 -106l49 341q1 10 10.5 17.5t17.5 7.5h150q11 0 17 -8t5 -17l-49 -341q-1 -11 -10.5 -18t-18.5 -7h-150q-11 0 -17 8t-4 17zM95 -81h100l42 291h-100zM123 459l49 340q1 11 10.5 18t18.5 7h150q11 0 17 -8t4 -17l-49 -340q-1 -10 -10.5 -17.5t-17.5 -7.5h-150
q-11 0 -17 8t-5 17zM177 484h100l42 290h-100z" />
    <glyph glyph-name="section" unicode="&#xa7;" horiz-adv-x="568" 
d="M-9 -1l73 125q5 9 14 13.5t24 -2.5q94 -64 174 -64q17 0 23 3q-8 6 -43 16t-71.5 23.5t-72.5 35.5t-55.5 60t-12.5 87q12 87 97 139q-33 35 -24 91q13 87 90.5 140t190.5 53q126 0 242 -68q8 -4 9.5 -14.5t-3.5 -18.5l-78 -125q-6 -9 -16.5 -12.5t-19.5 1.5
q-102 54 -159 54q-13 0 -19 -2q7 -6 32.5 -14t56 -17t64 -26t59.5 -37.5t40.5 -55t8.5 -76.5q-12 -86 -95 -139q31 -35 22 -91q-13 -87 -93 -139.5t-195 -52.5q-154 0 -259 83q-15 10 -4 30zM45 -2q91 -62 216 -62q101 0 161.5 40t69.5 102q4 28 -2 41.5t-30 31.5
q-15 14 -13 23.5t12 15.5l10 5q85 37 96 113q5 36 -13 62.5t-49 40t-67.5 26.5t-68 23.5t-51 29.5t-15.5 45t27 38.5t52 12.5q60 0 160 -49l50 81q-98 51 -200 51q-96 0 -155 -40.5t-68 -102.5q-4 -25 2.5 -40t32.5 -33q17 -13 15 -22.5t-13 -15.5l-11 -6q-89 -38 -99 -113
q-6 -43 19.5 -71.5t66.5 -43t82 -27t68 -32.5t23 -50q-3 -27 -27.5 -39t-56.5 -12q-83 0 -177 57zM228 309q8 55 91 55q45 0 79 -15.5t29 -51.5q-8 -54 -95 -54q-44 0 -76.5 15t-27.5 51zM278 309q13 -16 61 -16q21 0 36 5q-16 16 -63 16q-24 0 -34 -5z" />
    <glyph glyph-name="dieresis" unicode="&#xa8;" horiz-adv-x="358" 
d="M64 696q7 47 43 78.5t83 31.5q48 0 75 -31.5t20 -78.5q-7 -48 -43 -79.5t-84 -31.5q-47 0 -74 31.5t-20 79.5zM114 696q-4 -28 10 -44.5t42 -16.5t46.5 16.5t22.5 44.5t-9.5 44t-42.5 16q-28 0 -46 -16t-23 -44zM265 696q7 48 43 79t84 31q47 0 74 -31.5t20 -78.5
q-7 -48 -42.5 -79.5t-83.5 -31.5q-47 0 -74.5 31.5t-20.5 79.5zM315 696q-4 -28 10.5 -44.5t42.5 -16.5q27 0 45.5 16.5t22.5 44.5t-9.5 44t-41.5 16t-46.5 -16.5t-23.5 -43.5z" />
    <glyph glyph-name="copyright" unicode="&#xa9;" horiz-adv-x="715" 
d="M44 348q22 150 143.5 258t273.5 108t242 -106.5t68 -257.5q-21 -150 -143 -258t-274 -108t-241.5 107t-68.5 257zM94 348q-19 -130 58.5 -222t208.5 -92q132 0 237 93t123 223q19 130 -58.5 222t-208.5 92q-132 0 -236.5 -93t-123.5 -223zM135 348q17 113 108 194t205 81
t181.5 -80t50.5 -193q-16 -113 -107 -194t-206 -81q-114 0 -181 80t-51 193zM185 348q-14 -93 41 -158t148 -65q95 0 169 66t87 159q14 93 -41 158t-148 65q-94 0 -168 -66t-88 -159zM217 349q12 81 76.5 134.5t148.5 53.5q42 0 80 -17t61 -48q13 -16 -4 -33l-64 -65
q-24 -24 -39 1q-20 33 -51 33q-22 0 -39 -15.5t-21 -41.5t8.5 -42t34.5 -16q31 0 63 29q8 7 18.5 7t16.5 -8l47 -58q6 -8 4 -18t-9 -16q-73 -70 -164 -70q-83 0 -130.5 54t-36.5 136zM267 349q-8 -61 26.5 -100.5t97.5 -39.5q54 0 106 38l-18 23q-41 -27 -78 -27
q-44 0 -68.5 31.5t-17.5 76.5q6 45 39.5 76t77.5 31q41 0 70 -31l26 26q-41 34 -93 34q-65 0 -112 -39t-56 -99z" />
    <glyph glyph-name="ordfeminine" unicode="&#xaa;" horiz-adv-x="397" 
d="M71 555q9 69 72 102l-2 6l-18 88q-2 9 3.5 18.5t16.5 13.5q106 32 181 32q82 0 127.5 -38t35.5 -107l-31 -212q-1 -11 -10.5 -18t-18.5 -7h-134q-14 0 -19 12q-38 -18 -81 -18q-63 0 -96.5 35.5t-25.5 92.5zM121 555q-5 -37 14.5 -57.5t64.5 -20.5q54 0 85 33
q17 16 26 12.5t13 -15.5l3 -12l-1 -12h84l27 187q7 46 -22.5 70.5t-97.5 24.5q-58 0 -140 -22l9 -41q55 15 91 15q34 0 55.5 -16t17.5 -46q-1 -11 -9.5 -18.5t-18.5 -7.5h-82q-108 -1 -119 -74zM202 566q2 17 14 31q18 21 51 21h53q9 0 16 -7t5 -18l-4 -30q-2 -9 -7 -15
q-32 -37 -78 -37q-29 0 -43 18q-10 14 -7 37zM251 562h3q2 -1 5 -1q12 0 24 7h-23h-6l-2 -1v-1q-1 -2 -1 -4z" />
    <glyph glyph-name="guillemetleft" unicode="&#xab;" horiz-adv-x="526" 
d="M7 256q-7 15 4 28l150 189q9 11 23 11h162h5t9 -1.5t9 -5t2 -11.5t-9 -19l-124 -177l73 -178l2 -4t1.5 -8.5t-1 -11.5t-9 -9t-20.5 -4h-162q-14 0 -19 11zM60 270l83 -165h106l-64 153q-5 12 4 24l107 152h-106zM250 256q-7 15 4 28l149 189q9 11 23 11h163h5t9 -1.5
t9 -5t2 -11.5t-9 -19l-125 -177l74 -178l2 -4t1.5 -8.5t-1 -11.5t-9 -9t-20.5 -4h-163q-14 0 -19 11zM303 270l82 -165h106l-64 153q-4 13 4 24l108 152h-107z" />
    <glyph glyph-name="logicalnot" unicode="&#xac;" horiz-adv-x="587" 
d="M51 312l18 127q1 11 10.5 18t18.5 7h498q11 0 17 -8t4 -17l-44 -307q-1 -11 -10.5 -18t-18.5 -7h-144q-11 0 -17 8t-4 17l22 155h-329q-11 0 -17 8t-4 17zM105 337h329q8 0 15 -7t6 -18l-22 -155h94l37 257h-448z" />
    <glyph glyph-name="softhyphen" unicode="&#xad;" horiz-adv-x="377" 
d="M62 245l18 126q2 11 11 18t18 7h273q11 0 17 -8t4 -17l-18 -126q-1 -10 -10.5 -17.5t-17.5 -7.5h-273q-11 0 -17 8t-5 17zM116 270h223l11 76h-223z" />
    <glyph glyph-name="registered" unicode="&#xae;" horiz-adv-x="715" 
d="M44 348q22 150 143.5 258t273.5 108t242 -106.5t68 -257.5q-21 -150 -143 -258t-274 -108t-241.5 107t-68.5 257zM94 348q-19 -130 58.5 -222t208.5 -92q132 0 237 93t123 223q19 130 -58.5 222t-208.5 92q-132 0 -236.5 -93t-123.5 -223zM135 348q17 113 108 194t205 81
t181.5 -80t50.5 -193q-16 -113 -107 -194t-206 -81q-114 0 -181 80t-51 193zM185 348q-14 -93 41 -158t148 -65q95 0 169 66t87 159q14 93 -41 158t-148 65q-94 0 -168 -66t-88 -159zM233 206l44 310q2 11 11 18t18 7h140q70 0 108 -35.5t29 -98.5q-11 -69 -60 -107l40 -81
l1 -1q0 -1 1 -3.5t1.5 -5t1 -6t-0.5 -6.5t-3 -6t-5.5 -5t-9 -3.5t-13.5 -1.5h-103q-15 0 -20 14l-25 70h-6l-8 -59q-1 -11 -10.5 -18t-18.5 -7h-91q-11 0 -17 8t-4 17zM286 231h41l9 59q1 9 9 17t19 8h46q16 0 21 -14l25 -70h42l-31 63q-4 9 0.5 19t13.5 16q44 22 52 78
q5 41 -17.5 62.5t-76.5 21.5h-115zM346 359l12 88q2 9 10 17t19 8h49q30 0 46.5 -19.5t12.5 -49.5q-5 -30 -27 -49.5t-52 -19.5h-49q-9 0 -15.5 7t-5.5 18zM399 384h24q12 0 16.5 3.5t5.5 15.5q2 12 -1 15.5t-15 3.5h-24z" />
    <glyph glyph-name="macron" unicode="&#xaf;" horiz-adv-x="350" 
d="M95 628l20 133q1 10 10.5 17.5t17.5 7.5h290q11 0 17 -8t5 -17l-20 -133q-1 -11 -10 -18t-18 -7h-290q-11 0 -17 8t-5 17zM149 653h240l12 83h-240z" />
    <glyph glyph-name="degree" unicode="&#xb0;" horiz-adv-x="389" 
d="M161 701q9 60 57.5 102.5t108.5 42.5t96.5 -42.5t27.5 -102.5t-57.5 -102t-108.5 -42t-96.5 42t-27.5 102zM211 701q-5 -39 18.5 -66.5t62.5 -27.5q40 0 72 27.5t37 66.5q6 39 -18 67t-63 28t-71 -28t-38 -67zM237 701q4 28 27 48.5t52 20.5q28 0 45.5 -20t13.5 -49
t-27.5 -48.5t-51.5 -19.5t-45.5 20t-13.5 48zM287 701q-1 -8 4 -13t12 -5q8 0 14.5 5.5t7.5 12.5q1 8 -4 13.5t-12 5.5q-8 0 -14.5 -6t-7.5 -13z" />
    <glyph glyph-name="plusminus" unicode="&#xb1;" horiz-adv-x="515" 
d="M5 -8l18 127q1 11 10.5 18t18.5 7h453q11 0 17 -8t4 -17l-18 -127q-1 -11 -10.5 -18t-18.5 -7h-453q-11 0 -17 8t-4 17zM56 346l17 121q1 11 10.5 18t18.5 7h139l19 131q1 10 10.5 17.5t17.5 7.5h126q11 0 17 -8t5 -17l-19 -131h138q11 0 17 -8t4 -17l-17 -121
q-1 -11 -10.5 -18t-18.5 -7h-138l-19 -131q-1 -11 -10 -18t-18 -7h-126q-11 0 -17 8t-5 17l19 131h-139q-11 0 -17 8t-4 17zM58 17h403l12 77h-403zM109 371h139q9 0 16 -7t6 -18l-19 -131h76l19 131q1 9 9 17t19 8h138l11 71h-138q-9 0 -16 7t-6 18l19 131h-76l-19 -131
q-1 -9 -9 -17t-19 -8h-139z" />
    <glyph glyph-name="twosuperior" unicode="&#xb2;" horiz-adv-x="392" 
d="M45 281l13 85q2 11 10 18l174 151q24 22 31 37h-7q-42 0 -109 -48q-4 -4 -10 -6.5t-14 0t-12 13.5l-39 98q-9 20 13 33q114 69 217 69q76 0 123.5 -37.5t38.5 -100.5q-9 -70 -115 -159l-27 -23h98q11 0 17 -8t5 -17l-16 -105q-1 -11 -10 -18t-18 -7h-341q-11 0 -17 8
t-5 17zM99 306h291l8 55h-136q-22 0 -24.5 10.5t5.5 21.5l8 11l78 66q88 74 95 123q5 37 -26.5 62.5t-92.5 25.5q-78 0 -168 -49l21 -52q66 42 116 42q22 0 37.5 -12.5t12.5 -35.5q-4 -30 -51 -73l-167 -145z" />
    <glyph glyph-name="threesuperior" unicode="&#xb3;" horiz-adv-x="370" 
d="M29 343l71 103q10 15 28 13l9 64q1 10 11 18l43 35h-84q-11 0 -17 8t-4 17l14 98q1 10 10.5 17.5t17.5 7.5h308q11 0 17 -8t5 -17l-11 -76q-1 -9 -11 -19l-72 -57q39 -16 59.5 -50.5t13.5 -82.5q-11 -73 -74 -118.5t-150 -45.5q-53 0 -102.5 16.5t-79.5 45.5
q-14 13 -2 31zM83 338q57 -38 137 -38q71 0 115.5 32t51.5 82q10 74 -65 92h-1l-19 5q-20 5 -21 16t8 19l9 8l100 80l6 40h-258l-7 -48h123q22 0 24.5 -11t-5.5 -21l-8 -11l-87 -71l-5 -35h53q31 0 49.5 -17t14.5 -46q-4 -30 -27.5 -46.5t-54.5 -16.5q-55 0 -96 41zM161 427
q27 -26 62 -26q12 0 17 2t6 3.5t2 7.5q1 4 0.5 7t-5 4.5t-16.5 1.5h-66z" />
    <glyph glyph-name="acute" unicode="&#xb4;" horiz-adv-x="350" 
d="M100 608l133 180q13 16 31 11l167 -58q5 -1 9.5 -4t9.5 -13.5t-17 -24.5l-151 -122q-7 -7 -18 -7h-148h-5t-9 1.5t-9.5 5t-2 12t9.5 19.5zM167 620h95l107 87l-109 38z" />
    <glyph glyph-name="mu" unicode="&#xb5;" horiz-adv-x="688" 
d="M13 -194l106 738q2 11 11 18t18 7h202q11 0 17 -8t4 -17l-41 -288q-8 -62 40 -62q58 2 70 81l38 269q2 11 11 18t18 7h202q11 0 17 -8t4 -17l-78 -544q-1 -11 -10.5 -18t-18.5 -7h-202q-11 0 -17 8t-4 17l2 15q-51 -38 -114 -47l-23 -162q-1 -11 -10.5 -18t-18.5 -7h-202
q-11 0 -17 8t-4 17zM67 -169h152l23 160q1 9 9 16.5t18 8.5q91 4 149 78q14 16 24 13t15 -15l5 -11l-8 -56h152l71 494h-152l-35 -244q-8 -55 -42.5 -92.5t-84.5 -38.5q-45 0 -67.5 31.5t-15.5 80.5l38 263h-152z" />
    <glyph glyph-name="paragraph" unicode="&#xb6;" horiz-adv-x="668" 
d="M42 520q15 103 95 175t218 72h365q10 0 16 -8t5 -17l-122 -848q-1 -11 -10.5 -18t-18.5 -7h-149q-11 0 -17 8t-4 17l102 711h-35l-102 -711q-1 -11 -10.5 -18t-18.5 -7h-149q-11 0 -17 8t-4 17l56 388q-53 0 -93 16.5t-61 42t-34.5 57.5t-13.5 63t2 59zM92 520
q-7 -28 -1 -61t20 -61.5t50 -47t89 -18.5h24q9 0 15.5 -7t5.5 -18l-56 -388h99l103 711q1 9 9 17t19 8h85q9 0 16 -7t6 -18l-103 -711h99l115 798h-340q-119 0 -181 -56t-74 -141z" />
    <glyph glyph-name="periodcentered" unicode="&#xb7;" horiz-adv-x="254" 
d="M50 291q8 50 46.5 84t88.5 34q52 0 81 -34t21 -84q-8 -52 -46 -85.5t-90 -33.5q-51 0 -79.5 34t-21.5 85zM100 291q-4 -32 11.5 -50.5t46.5 -18.5q32 0 53.5 18.5t25.5 50.5q5 31 -11 49.5t-48 18.5q-31 0 -52.5 -18.5t-25.5 -49.5z" />
    <glyph glyph-name="cedilla" unicode="&#xb8;" horiz-adv-x="350" 
d="M7 -199l48 82q7 10 16 13q-17 12 -5 33l64 98q8 14 24 14h111q0 -1 4.5 0t9.5 -1t9 -5t3 -11.5t-9 -19.5l-29 -43q53 -33 44 -94t-59.5 -97.5t-118.5 -36.5q-57 0 -107 37q-15 12 -5 31zM62 -199q33 -18 64 -18q53 0 84.5 23t36.5 61q5 43 -41 58q-26 8 -10 36l20 30h-54
l-28 -44q26 -2 42 -18t12 -42t-25 -42.5t-48 -16.5q-17 0 -33 8zM94 -106q14 -16 28 -16t16 9v1q0 3 -0.5 4.5t-5 3t-12.5 1.5q-11 0 -26 -3z" />
    <glyph glyph-name="onesuperior" unicode="&#xb9;" horiz-adv-x="281" 
d="M67 593l16 108q1 11 10.5 18t18.5 7h218q11 0 17 -8t4 -17l-61 -420q-1 -11 -10 -18t-18 -7h-141q-11 0 -17 8t-5 17l42 287h-52q-11 0 -17 8t-5 17zM121 618h52q9 0 16 -7t5 -18l-41 -287h91l53 370h-168z" />
    <glyph glyph-name="ordmasculine" unicode="&#xba;" horiz-adv-x="416" 
d="M80 621q13 88 81 140.5t164 52.5q97 0 150 -52.5t40 -140.5q-12 -87 -80.5 -139.5t-164.5 -52.5t-149 52.5t-41 139.5zM130 621q-9 -65 29.5 -103.5t117.5 -38.5t129 38.5t59 103.5q10 66 -29 104.5t-118 38.5t-128.5 -38.5t-59.5 -104.5zM218 620q5 37 30.5 63.5
t61.5 26.5t53.5 -26.5t12.5 -63.5t-30.5 -63.5t-61.5 -26.5t-53.5 26.5t-12.5 63.5zM268 620q-5 -40 24 -40t34 40q7 40 -23 40q-28 0 -35 -40z" />
    <glyph glyph-name="guillemetright" unicode="&#xbb;" horiz-adv-x="528" 
d="M5 92l125 177l-73 178l-2 4t-2 8.5t1 11.5t9.5 9t20.5 4h162q14 0 19 -11l96 -190q6 -14 -4 -28l-150 -189q-9 -11 -23 -11h-162h-5t-9 1.5t-9.5 5t-2.5 11.5t9 19zM72 105h106l130 164l-83 165h-106l63 -153q5 -12 -3 -24zM248 92l125 177l-73 178l-2 4t-2 8.5t1 11.5
t9.5 9t20.5 4h162q13 0 19 -11l96 -190q6 -14 -4 -28l-150 -189q-9 -11 -23 -11h-162h-5t-9 1.5t-9.5 5t-2.5 11.5t9 19zM315 105h106l130 164l-83 165h-106l63 -153q5 -12 -3 -24z" />
    <glyph glyph-name="onequarter" unicode="&#xbc;" horiz-adv-x="912" 
d="M58 14l594 701q8 11 22 11h188h5t9.5 -2t9.5 -6t1.5 -12t-11.5 -19l-593 -701q-8 -11 -22 -11h-189h-5t-9.5 2t-9.5 6t-1.5 12t11.5 19zM67 593l16 108q1 11 10.5 18t18.5 7h218q11 0 17 -8t4 -17l-61 -420q-1 -11 -10 -18t-18 -7h-141q-11 0 -17 8t-5 17l42 287h-52
q-11 0 -17 8t-5 17zM121 618h52q9 0 16 -7t5 -18l-41 -287h91l53 370h-168zM128 25h128l550 651h-127zM496 82l13 89q0 4 4 12l165 248q8 13 24 13h135h4.5t8.5 -1.5t9.5 -5t2.5 -11t-8 -18.5l-79 -123h113q11 0 17 -8t4 -17l-8 -57h31q11 0 17 -8t5 -17l-14 -96
q-1 -11 -10.5 -18t-18.5 -7h-31l-8 -57q-1 -11 -10.5 -18t-18.5 -7h-131q-11 0 -17 8t-4 17l8 57h-182q-11 0 -17 8t-4 17zM549 107h182q9 0 16 -7t6 -18l-8 -57h81l8 57q1 9 9 17t19 8h31l7 46h-31q-9 0 -16 7t-5 18l8 57h-81l-8 -57q-2 -9 -10 -17t-19 -8h-64q-20 0 -24 9
t2 18l5 9l132 205h-79l-152 -229z" />
    <glyph glyph-name="onehalf" unicode="&#xbd;" horiz-adv-x="934" 
d="M58 14l594 701q8 11 22 11h188h5t9.5 -2t9.5 -6t1.5 -12t-11.5 -19l-593 -701q-8 -11 -22 -11h-189h-5t-9.5 2t-9.5 6t-1.5 12t11.5 19zM67 593l16 108q1 11 10.5 18t18.5 7h218q11 0 17 -8t4 -17l-61 -420q-1 -11 -10 -18t-18 -7h-141q-11 0 -17 8t-5 17l42 287h-52
q-11 0 -17 8t-5 17zM121 618h52q9 0 16 -7t5 -18l-41 -287h91l53 370h-168zM128 25h128l550 651h-127zM547 0l12 85q1 9 10 18l175 151q22 21 30 36h-6q-43 0 -110 -48q-26 -17 -36 8l-39 97q-4 8 0 18t13 15q116 70 218 70q76 0 123.5 -37.5t38.5 -100.5q-11 -73 -116 -160
l-27 -23h99q11 0 17 -8t4 -17l-15 -104q-1 -11 -10.5 -18t-18.5 -7h-341q-11 0 -17 8t-4 17zM601 25h291l7 54h-136q-21 0 -24 10.5t5 21.5l8 11l79 66q88 75 95 124q5 37 -26.5 62.5t-92.5 25.5q-79 0 -168 -50l20 -51q70 41 116 41q23 0 38 -12.5t12 -35.5q-4 -33 -51 -73
l-166 -144z" />
    <glyph glyph-name="threequarters" unicode="&#xbe;" horiz-adv-x="971" 
d="M29 343l71 103q10 15 28 13l9 64q1 10 11 18l43 35h-84q-11 0 -17 8t-4 17l14 98q1 10 10.5 17.5t17.5 7.5h308q11 0 17 -8t5 -17l-11 -76q-1 -9 -11 -19l-72 -57q39 -16 59.5 -50.5t13.5 -82.5q-11 -73 -74 -118.5t-150 -45.5q-53 0 -102.5 16.5t-79.5 45.5
q-14 13 -2 31zM83 338q57 -38 137 -38q71 0 115.5 32t51.5 82q10 74 -65 92h-1l-19 5q-20 5 -21 16t8 19l9 8l100 80l6 40h-258l-7 -48h123q22 0 24.5 -11t-5.5 -21l-8 -11l-87 -71l-5 -35h53q31 0 49.5 -17t14.5 -46q-4 -30 -27.5 -46.5t-54.5 -16.5q-55 0 -96 41zM117 14
l594 701q8 11 22 11h188h5t9.5 -2t9.5 -6t1.5 -12t-11.5 -19l-593 -701q-8 -11 -22 -11h-189h-5t-9.5 2t-9.5 6t-1.5 12t11.5 19zM161 427q27 -26 62 -26q12 0 17 2t6 3.5t2 7.5q1 4 0.5 7t-5 4.5t-16.5 1.5h-66zM187 25h128l550 651h-127zM555 82l13 89q0 4 4 12l165 248
q8 13 24 13h135h4.5t8.5 -1.5t9.5 -5t2.5 -11t-8 -18.5l-79 -123h113q11 0 17 -8t4 -17l-8 -57h31q11 0 17 -8t5 -17l-14 -96q-1 -11 -10.5 -18t-18.5 -7h-31l-8 -57q-1 -11 -10.5 -18t-18.5 -7h-131q-11 0 -17 8t-4 17l8 57h-182q-11 0 -17 8t-4 17zM608 107h182q9 0 16 -7
t6 -18l-8 -57h81l8 57q1 9 9 17t19 8h31l7 46h-31q-9 0 -16 7t-5 18l8 57h-81l-8 -57q-2 -9 -10 -17t-19 -8h-64q-20 0 -24 9t1 18l6 9l132 205h-79l-152 -229z" />
    <glyph glyph-name="questiondown" unicode="&#xbf;" horiz-adv-x="486" 
d="M-1 15q7 47 28 85.5t47 63.5t51.5 46t44.5 43t22 45q1 11 10.5 18t18.5 7h150q10 0 16 -8t5 -17q-7 -46 -24 -83.5t-37.5 -60t-40 -40.5t-34 -34.5t-16.5 -32.5t3 -21.5t25 -5.5q21 0 32 11.5t17 48.5q1 11 10 18t18 7l155 -1q10 0 16.5 -7.5t4.5 -17.5
q-18 -124 -99.5 -196t-202.5 -72q-113 0 -173.5 54t-46.5 150zM49 15q-11 -74 34 -114t143 -40q96 0 158 49.5t83 143.5l-106 1q-11 -39 -37 -62t-63 -23q-36 0 -56 20.5t-15 56.5t25.5 65t43 47t46 48t32.5 66h-101q-13 -40 -43.5 -73.5t-58.5 -54.5t-53.5 -55t-31.5 -75z
M198 457q8 52 46.5 86t90.5 34q51 0 80 -34t22 -86q-8 -51 -46.5 -85t-89.5 -34q-52 0 -81.5 34t-21.5 85zM248 457q-5 -32 11.5 -50.5t48.5 -18.5t53.5 19t25.5 50q4 32 -11.5 51t-47.5 19t-54 -19t-26 -51z" />
    <glyph glyph-name="Agrave" unicode="&#xc0;" horiz-adv-x="786" 
d="M-30 10l400 701q10 15 26 15h214q15 0 21 -15l187 -701q1 -1 1.5 -3.5t0.5 -8.5t-2 -10.5t-9.5 -8.5t-18.5 -4h-222q-17 0 -21 16l-21 96h-248l-50 -96q-8 -16 -26 -16h-214q0 1 -4 0t-8.5 1t-8.5 5t-3.5 10.5t6.5 18.5zM33 25h159l50 96q9 16 26 16h283q17 0 21 -16
l21 -96h167l-174 651h-181zM319 856l-3 3t-5 7.5t-2.5 10.5t6.5 11t19 10l184 58q19 5 28 -11l81 -180l1 -1q0 -1 1 -3.5t1.5 -5t0.5 -6t-0.5 -6.5t-2.5 -6t-5.5 -5t-9 -3.5t-13.5 -1.5h-148q-10 0 -16 7zM322 273l119 229q10 20 22 20t19 -10l6 -10l51 -229
q4 -16 -3.5 -24.5t-16.5 -8.5l-9 -1h-170q-17 0 -21.5 8.5t-0.5 16.5zM384 289h98l-30 132zM386 864l83 -87h94l-56 125z" />
    <glyph glyph-name="Aacute" unicode="&#xc1;" horiz-adv-x="786" 
d="M-30 10l400 701q10 15 26 15h214q15 0 21 -15l187 -701q1 -1 1.5 -3.5t0.5 -8.5t-2 -10.5t-9.5 -8.5t-18.5 -4h-222q-17 0 -21 16l-21 96h-248l-50 -96q-8 -16 -26 -16h-214q0 1 -4 0t-8.5 1t-8.5 5t-3.5 10.5t6.5 18.5zM33 25h159l50 96q9 16 26 16h283q17 0 21 -16
l21 -96h167l-174 651h-181zM322 273l119 229q10 20 22 20t19 -10l6 -10l51 -229q4 -16 -3.5 -24.5t-16.5 -8.5l-9 -1h-170q-17 0 -21.5 8.5t-0.5 16.5zM384 289h98l-30 132zM385 765l133 180q12 17 31 11l166 -58q2 0 4.5 -1t7.5 -4.5t7 -8t-1.5 -12t-14.5 -16.5l-151 -122
q-8 -7 -18 -7h-148h-5t-9 1.5t-9.5 5t-2 12t9.5 19.5zM452 777h94l108 87l-110 38z" />
    <glyph glyph-name="Acircumflex" unicode="&#xc2;" horiz-adv-x="786" 
d="M-30 10l400 701q10 15 26 15h214q15 0 21 -15l187 -701q1 -1 1.5 -3.5t0.5 -8.5t-2 -10.5t-9.5 -8.5t-18.5 -4h-222q-17 0 -21 16l-21 96h-248l-50 -96q-8 -16 -26 -16h-214q0 1 -4 0t-8.5 1t-8.5 5t-3.5 10.5t6.5 18.5zM33 25h159l50 96q9 16 26 16h283q17 0 21 -16
l21 -96h167l-174 651h-181zM291 780l140 157q10 10 21 10h156q13 0 19 -10l94 -157q1 -2 2.5 -4.5t3 -9.5t0 -12t-9 -9.5t-21.5 -4.5h-139q-13 0 -20 11l-27 52l-43 -52q-9 -11 -22 -11h-139h-5t-10 2.5t-10 6t-1.5 12t11.5 19.5zM322 273l119 229q10 20 22 20t19 -10l6 -10
l51 -229q4 -16 -3.5 -24.5t-16.5 -8.5l-9 -1h-170q-17 0 -21.5 8.5t-0.5 16.5zM363 790h76l58 72q12 15 22.5 15t14.5 -7l5 -8l38 -72h76l-64 107h-131zM384 289h98l-30 132z" />
    <glyph glyph-name="Atilde" unicode="&#xc3;" horiz-adv-x="786" 
d="M-30 10l400 701q10 15 26 15h214q15 0 21 -15l187 -701q1 -1 1.5 -3.5t0.5 -8.5t-2 -10.5t-9.5 -8.5t-18.5 -4h-222q-17 0 -21 16l-21 96h-248l-50 -96q-8 -16 -26 -16h-214q0 1 -4 0t-8.5 1t-8.5 5t-3.5 10.5t6.5 18.5zM33 25h159l50 96q9 16 26 16h283q17 0 21 -16
l21 -96h167l-174 651h-181zM294 774q13 93 54.5 144.5t110.5 51.5q18 0 35.5 -4.5t29.5 -10.5t21 -12.5t14.5 -11t6.5 -4.5q3 10 4 15q1 10 10.5 17.5t17.5 7.5h122q11 0 17 -8t5 -17q-13 -92 -54.5 -144t-109.5 -52q-23 0 -44 6.5t-32.5 14t-21 15t-10.5 7.5q-2 -5 -3 -15
q-2 -11 -11 -18t-18 -7h-123q-11 0 -17 8t-4 17zM322 273l119 229q10 20 22 20t19 -10l6 -10l51 -229q4 -16 -3.5 -24.5t-16.5 -8.5l-9 -1h-170q-17 0 -21.5 8.5t-0.5 16.5zM348 799h75q6 17 20.5 28.5t33.5 11.5q25 0 53.5 -21.5t54.5 -21.5q40 0 64.5 27t38.5 94h-74
q-11 -25 -31 -35q-10 -5 -25 -5q-25 0 -53.5 21.5t-52.5 21.5q-41 0 -66 -27t-38 -94zM384 289h98l-30 132z" />
    <glyph glyph-name="Adieresis" unicode="&#xc4;" horiz-adv-x="786" 
d="M-30 10l400 701q10 15 26 15h214q15 0 21 -15l187 -701q1 -1 1.5 -3.5t0.5 -8.5t-2 -10.5t-9.5 -8.5t-18.5 -4h-222q-17 0 -21 16l-21 96h-248l-50 -96q-8 -16 -26 -16h-214q0 1 -4 0t-8.5 1t-8.5 5t-3.5 10.5t6.5 18.5zM33 25h159l50 96q9 16 26 16h283q17 0 21 -16
l21 -96h167l-174 651h-181zM305 853q7 48 43 79t84 31q47 0 74.5 -31t20.5 -79q-7 -47 -43.5 -79t-83.5 -32t-74.5 32t-20.5 79zM322 273l119 229q10 20 22 20t19 -10l6 -10l51 -229q4 -16 -3.5 -24.5t-16.5 -8.5l-9 -1h-170q-17 0 -21.5 8.5t-0.5 16.5zM355 853
q-4 -28 10 -44.5t42 -16.5t47 16.5t23 44.5q4 27 -10 43.5t-42 16.5t-47 -16.5t-23 -43.5zM384 289h98l-30 132zM507 853q7 48 43 79t84 31q47 0 74.5 -31t20.5 -79q-7 -47 -43.5 -79t-83.5 -32t-74.5 32t-20.5 79zM557 853q-4 -28 10 -44.5t42 -16.5t47 16.5t23 44.5
q4 27 -10 43.5t-42 16.5t-47 -16.5t-23 -43.5z" />
    <glyph glyph-name="Aring" unicode="&#xc5;" horiz-adv-x="786" 
d="M-30 10l389 680q-14 34 -8 74q10 65 62 110.5t117 45.5t104.5 -45.5t29.5 -110.5q-6 -40 -29 -73l183 -681q1 -1 1.5 -3.5t0.5 -8.5t-2 -10.5t-9.5 -8.5t-18.5 -4h-222q-17 0 -21 16l-21 96h-248l-50 -96q-8 -16 -26 -16h-214q0 1 -4 0t-8.5 1t-8.5 5t-3.5 10.5t6.5 18.5
zM33 25h159l50 96q9 16 26 16h283q17 0 21 -16l21 -96h167l-177 658q-2 15 6 24q20 25 25 57q7 44 -19.5 75t-72.5 31q-44 0 -79 -31t-42 -75q-4 -32 9 -59q6 -11 -2 -23zM322 273l119 229q10 20 22 20t19 -10l6 -10l51 -229q4 -16 -3.5 -24.5t-16.5 -8.5l-9 -1h-170
q-17 0 -21.5 8.5t-0.5 16.5zM384 289h98l-30 132zM434 764q4 30 28.5 51t54.5 21t48.5 -21t14.5 -51q-4 -31 -28.5 -51.5t-54.5 -20.5t-48.5 21t-14.5 51zM484 764q-3 -22 20 -22t26 22t-20 22t-26 -22z" />
    <glyph glyph-name="AE" unicode="&#xc6;" horiz-adv-x="1127" 
d="M-28 12l495 701q10 13 24 13h690q11 0 17 -8t4 -17l-23 -160q-1 -11 -10.5 -18t-18.5 -7h-340l-8 -60h306q11 0 17 -8t4 -17l-23 -160q-1 -11 -10.5 -18t-18.5 -7h-306l-8 -61h350q11 0 17 -8t4 -17l-23 -160q-1 -11 -10.5 -18t-18.5 -7h-583q-11 0 -17 8t-4 17l16 108
h-187l-78 -119q-9 -14 -25 -14h-216h-5t-9 1.5t-9 5t-2 11.5t9 19zM38 25h158l79 119q9 14 24 14h227q8 0 15 -7t6 -18l-15 -108h533l15 110h-350q-8 0 -15 7t-6 18l16 111q2 9 10 17t19 8h306l16 110h-306q-9 0 -16 7t-6 18l16 110q2 9 10 17t19 8h340l15 110h-650z
M373 294l169 259q10 14 25 14h18q8 0 15 -7t6 -18l-37 -259q-2 -9 -10 -17t-19 -8h-150q-20 0 -24 9t2 18zM438 308h84l24 165z" />
    <glyph glyph-name="Ccedilla" unicode="&#xc7;" horiz-adv-x="690" 
d="M45 352q23 164 153.5 272t302.5 108q86 0 163.5 -35.5t126.5 -96.5q12 -17 -4 -33l-141 -142q-23 -23 -38 1q-24 38 -62 60.5t-74 22.5q-61 0 -107.5 -43.5t-56.5 -111.5t24.5 -112t95.5 -44q34 0 77.5 20t81.5 53q8 8 18.5 8t17.5 -8l102 -128q6 -8 4 -18t-9 -16
q-116 -108 -263 -135l-8 -13q53 -32 44 -94q-9 -61 -59.5 -97.5t-118.5 -36.5q-57 0 -107 37q-15 12 -5 31l48 82q7 10 16 13l-10 2q-10 8 5 31l30 47q-130 29 -199 132t-48 244zM95 352q-19 -132 49 -223.5t195 -108.5q17 -2 20.5 -11t-1.5 -17l-5 -8l-24 -37q27 -2 43 -18
t12 -42t-25 -42.5t-48 -16.5q-17 0 -33 8l-20 -35q33 -18 64 -18q53 0 84.5 23t36.5 61q5 43 -41 58q-27 9 -10 35l31 47q7 11 20 14q122 19 227 105l-74 93q-90 -71 -176 -71q-82 0 -128.5 59.5t-33.5 146.5t76.5 146t145.5 59q88 0 155 -80l101 103q-43 46 -108 73
t-134 27q-153 0 -266 -94t-133 -236zM290 -106q14 -16 28 -16t16 9v1q0 3 -0.5 4.5t-5 3t-12.5 1.5q-11 0 -26 -3z" />
    <glyph glyph-name="Egrave" unicode="&#xc8;" 
d="M34 0l101 701q1 11 10.5 18t18.5 7h573q11 0 17 -8t4 -17l-23 -160q-1 -11 -10.5 -18t-18.5 -7h-340l-8 -60h306q11 0 17 -8t4 -17l-23 -160q-1 -11 -10.5 -18t-18.5 -7h-306l-8 -61h350q11 0 17 -8t4 -17l-23 -160q-1 -11 -10.5 -18t-18.5 -7h-583q-11 0 -17 8t-4 17z
M88 25h533l15 110h-350q-8 0 -15 7t-6 18l16 111q2 9 10 17t19 8h306l16 110h-306q-9 0 -16 7t-6 18l16 110q2 9 10 17t19 8h340l15 110h-523zM273 856l-3 3t-5 7.5t-2.5 10.5t6.5 11t19 10l184 58q19 5 28 -11l81 -180l1 -1q0 -1 1 -3.5t1.5 -5t0.5 -6t-0.5 -6.5t-2.5 -6
t-5.5 -5t-9 -3.5t-13.5 -1.5h-148q-10 0 -16 7zM340 864l83 -87h94l-56 125z" />
    <glyph glyph-name="Eacute" unicode="&#xc9;" 
d="M34 0l101 701q1 11 10.5 18t18.5 7h573q11 0 17 -8t4 -17l-23 -160q-1 -11 -10.5 -18t-18.5 -7h-340l-8 -60h306q11 0 17 -8t4 -17l-23 -160q-1 -11 -10.5 -18t-18.5 -7h-306l-8 -61h350q11 0 17 -8t4 -17l-23 -160q-1 -11 -10.5 -18t-18.5 -7h-583q-11 0 -17 8t-4 17z
M88 25h533l15 110h-350q-8 0 -15 7t-6 18l16 111q2 9 10 17t19 8h306l16 110h-306q-9 0 -16 7t-6 18l16 110q2 9 10 17t19 8h340l15 110h-523zM339 765l133 180q12 17 31 11l166 -58q2 0 4.5 -1t7.5 -4.5t7 -8t-1.5 -12t-14.5 -16.5l-151 -122q-8 -7 -18 -7h-148h-5t-9 1.5
t-9.5 5t-2 12t9.5 19.5zM406 777h94l108 87l-110 38z" />
    <glyph glyph-name="Ecircumflex" unicode="&#xca;" 
d="M34 0l101 701q1 11 10.5 18t18.5 7h573q11 0 17 -8t4 -17l-23 -160q-1 -11 -10.5 -18t-18.5 -7h-340l-8 -60h306q11 0 17 -8t4 -17l-23 -160q-1 -11 -10.5 -18t-18.5 -7h-306l-8 -61h350q11 0 17 -8t4 -17l-23 -160q-1 -11 -10.5 -18t-18.5 -7h-583q-11 0 -17 8t-4 17z
M88 25h533l15 110h-350q-8 0 -15 7t-6 18l16 111q2 9 10 17t19 8h306l16 110h-306q-9 0 -16 7t-6 18l16 110q2 9 10 17t19 8h340l15 110h-523zM244 781l140 157q10 10 22 10h156q12 0 18 -10l95 -157q1 -2 2 -4.5t2.5 -9.5t0 -12t-9 -9.5t-21.5 -4.5h-139q-14 0 -19 11
l-28 52l-43 -52q-9 -11 -22 -11h-139h-5t-10 2.5t-10 6t-1.5 12t11.5 19.5zM316 791h76l59 72q12 15 22.5 15t14.5 -8l4 -7l38 -72h76l-64 107h-131z" />
    <glyph glyph-name="Edieresis" unicode="&#xcb;" 
d="M34 0l101 701q1 11 10.5 18t18.5 7h573q11 0 17 -8t4 -17l-23 -160q-1 -11 -10.5 -18t-18.5 -7h-340l-8 -60h306q11 0 17 -8t4 -17l-23 -160q-1 -11 -10.5 -18t-18.5 -7h-306l-8 -61h350q11 0 17 -8t4 -17l-23 -160q-1 -11 -10.5 -18t-18.5 -7h-583q-11 0 -17 8t-4 17z
M88 25h533l15 110h-350q-8 0 -15 7t-6 18l16 111q2 9 10 17t19 8h306l16 110h-306q-9 0 -16 7t-6 18l16 110q2 9 10 17t19 8h340l15 110h-523zM258 853q7 48 43 79t84 31q47 0 74.5 -31t20.5 -79q-7 -47 -43.5 -79t-83.5 -32t-74.5 32t-20.5 79zM308 853q-4 -28 10 -44.5
t42 -16.5t47 16.5t23 44.5q4 27 -10 43.5t-42 16.5t-47 -16.5t-23 -43.5zM460 853q7 48 43 79t84 31q47 0 74.5 -31t20.5 -79q-7 -47 -43.5 -79t-83.5 -32t-74.5 32t-20.5 79zM510 853q-4 -28 10 -44.5t42 -16.5t47 16.5t23 44.5q4 27 -10 43.5t-42 16.5t-47 -16.5
t-23 -43.5z" />
    <glyph glyph-name="Igrave" unicode="&#xcc;" horiz-adv-x="326" 
d="M34 0l101 701q1 11 10.5 18t18.5 7h208q11 0 17 -8t4 -17l-101 -701q-1 -11 -10.5 -18t-18.5 -7h-208q-11 0 -17 8t-4 17zM88 25h158l93 651h-158zM88 856l-3 3t-4.5 7.5t-2.5 10.5t6.5 11t19.5 10l183 58q19 5 28 -11l81 -180v-1q1 -1 2 -3.5t1.5 -5t0.5 -6t-0.5 -6.5
t-2.5 -6t-5.5 -5t-9 -3.5t-13.5 -1.5h-148q-10 0 -16 7zM155 864l83 -87h94l-56 125z" />
    <glyph glyph-name="Iacute" unicode="&#xcd;" horiz-adv-x="326" 
d="M34 0l101 701q1 11 10.5 18t18.5 7h208q11 0 17 -8t4 -17l-101 -701q-1 -11 -10.5 -18t-18.5 -7h-208q-11 0 -17 8t-4 17zM88 25h158l93 651h-158zM154 765l133 180q12 17 31 11l166 -58q2 0 4.5 -1t7.5 -4.5t7 -8t-1.5 -12t-14.5 -16.5l-151 -122q-8 -7 -18 -7h-148h-5
t-9 1.5t-9.5 5t-2 12t9.5 19.5zM221 777h94l108 87l-110 38z" />
    <glyph glyph-name="Icircumflex" unicode="&#xce;" horiz-adv-x="326" 
d="M34 0l101 701q1 11 10.5 18t18.5 7h208q11 0 17 -8t4 -17l-101 -701q-1 -11 -10.5 -18t-18.5 -7h-208q-11 0 -17 8t-4 17zM60 780l140 157q10 10 21 10h156q13 0 19 -10l94 -157q1 -2 2.5 -4.5t3 -9.5t0 -12t-9 -9.5t-21.5 -4.5h-139q-13 0 -20 11l-27 52l-43 -52
q-9 -11 -22 -11h-139h-5t-10 2.5t-10 6t-1.5 12t11.5 19.5zM88 25h158l93 651h-158zM132 790h76l58 72q12 15 22.5 15t15.5 -7l4 -8l38 -72h76l-64 107h-131z" />
    <glyph glyph-name="Idieresis" unicode="&#xcf;" horiz-adv-x="326" 
d="M34 0l101 701q1 11 10.5 18t18.5 7h208q11 0 17 -8t4 -17l-101 -701q-1 -11 -10.5 -18t-18.5 -7h-208q-11 0 -17 8t-4 17zM74 853q7 48 43 79t84 31q47 0 74.5 -31t20.5 -79q-7 -47 -43.5 -79t-83.5 -32t-74.5 32t-20.5 79zM88 25h158l93 651h-158zM124 853
q-4 -28 10 -44.5t42 -16.5t47 16.5t23 44.5q4 27 -10 43.5t-42 16.5t-47 -16.5t-23 -43.5zM276 853q7 48 43 79t84 31q47 0 74.5 -31t20.5 -79q-7 -47 -43.5 -79t-83.5 -32t-74.5 32t-20.5 79zM326 853q-4 -28 10 -44.5t42 -16.5t47 16.5t23 44.5q4 27 -10 43.5t-42 16.5
t-47 -16.5t-23 -43.5z" />
    <glyph glyph-name="Eth" unicode="&#xd0;" horiz-adv-x="801" 
d="M18 297l15 108q2 11 11 18t18 7h72l39 271q1 11 10.5 18t18.5 7h308q179 0 275.5 -103t72.5 -272q-25 -169 -154 -272.5t-311 -103.5h-300q-11 0 -17 8t-4 17l39 272h-72q-11 0 -17 8t-4 17zM71 322h72q9 0 16 -7t6 -18l-39 -272h275q164 0 274.5 89t132.5 237
q21 147 -62 236t-244 89h-283l-39 -271q-1 -9 -9 -17t-19 -8h-72zM303 163l20 134q1 9 9 17t19 8h114l9 58h-114q-9 0 -16 7t-6 18l19 132q2 9 10 17t19 8h95q86 0 131.5 -60t31.5 -153q-13 -92 -72.5 -151.5t-141.5 -59.5h-105q-9 0 -16 7t-6 18zM357 188h80q60 0 103.5 43
t53.5 118q11 75 -22 119t-98 44h-70l-12 -82h114q11 0 17 -8t4 -17l-15 -108q-1 -11 -10.5 -18t-18.5 -7h-114z" />
    <glyph glyph-name="Ntilde" unicode="&#xd1;" horiz-adv-x="783" 
d="M34 0l101 701q1 11 10.5 18t18.5 7h178q12 0 18 -10l204 -333l46 318q1 11 10.5 18t18.5 7h190q11 0 17 -8t4 -17l-101 -701q-1 -11 -10.5 -18t-18.5 -7h-177q-12 0 -18 10l-204 331l-46 -316q-1 -11 -10.5 -18t-18.5 -7h-191q-11 0 -17 8t-4 17zM88 25h141l52 365
q3 20 15 24t22 -2l10 -7l235 -380h140l93 651h-140l-52 -367q-3 -20 -15 -24t-23 3l-10 6l-234 382h-141zM292 774q13 93 54.5 144.5t110.5 51.5q18 0 35.5 -4.5t29.5 -10.5t21 -12.5t14.5 -11t6.5 -4.5q3 10 4 15q1 10 10.5 17.5t17.5 7.5h122q11 0 17 -8t5 -17
q-13 -92 -54.5 -144t-109.5 -52q-23 0 -44 6.5t-32.5 14t-21 15t-10.5 7.5q-2 -5 -3 -15q-2 -11 -11 -18t-18 -7h-123q-11 0 -17 8t-4 17zM346 799h75q6 17 20.5 28.5t33.5 11.5q25 0 53.5 -21.5t54.5 -21.5q40 0 64.5 27t38.5 94h-74q-11 -25 -31 -35q-10 -5 -25 -5
q-25 0 -53.5 21.5t-52.5 21.5q-41 0 -66 -27t-38 -94z" />
    <glyph glyph-name="Ograve" unicode="&#xd2;" horiz-adv-x="802" 
d="M45 351q23 165 155 273t306 108t275 -108t78 -273q-24 -165 -156.5 -275t-306.5 -110t-274.5 109.5t-76.5 275.5zM95 351q-21 -145 66 -240t242 -95t270 95.5t136 239.5q20 143 -67.5 237t-242.5 94q-156 0 -270 -93.5t-134 -237.5zM257 350q13 88 79.5 148t147.5 60
t127.5 -60t33.5 -148q-13 -89 -76.5 -149.5t-144.5 -60.5t-130.5 61t-36.5 149zM307 350q-10 -68 27.5 -114t96.5 -46t106.5 45.5t57.5 114.5t-24.5 113.5t-93.5 44.5q-60 0 -110 -45t-60 -113zM318 856l-3 3t-4.5 7.5t-2.5 10.5t6.5 11t19.5 10l183 58q19 5 28 -11l81 -180
v-1q1 -1 2 -3.5t1.5 -5t0.5 -6t-0.5 -6.5t-2.5 -6t-5.5 -5t-9 -3.5t-13.5 -1.5h-148q-10 0 -16 7zM385 864l83 -87h94l-56 125z" />
    <glyph glyph-name="Oacute" unicode="&#xd3;" horiz-adv-x="802" 
d="M45 351q23 165 155 273t306 108t275 -108t78 -273q-24 -165 -156.5 -275t-306.5 -110t-274.5 109.5t-76.5 275.5zM95 351q-21 -145 66 -240t242 -95t270 95.5t136 239.5q20 143 -67.5 237t-242.5 94q-156 0 -270 -93.5t-134 -237.5zM257 350q13 88 79.5 148t147.5 60
t127.5 -60t33.5 -148q-13 -89 -76.5 -149.5t-144.5 -60.5t-130.5 61t-36.5 149zM307 350q-10 -68 27.5 -114t96.5 -46t106.5 45.5t57.5 114.5t-24.5 113.5t-93.5 44.5q-60 0 -110 -45t-60 -113zM384 765l133 180q12 17 31 11l166 -58q2 0 4.5 -1t7.5 -4.5t7 -8t-1.5 -12
t-14.5 -16.5l-151 -122q-8 -7 -18 -7h-148h-5t-9 1.5t-9.5 5t-2 12t9.5 19.5zM451 777h94l108 87l-110 38z" />
    <glyph glyph-name="Ocircumflex" unicode="&#xd4;" horiz-adv-x="802" 
d="M45 351q23 165 155 273t306 108t275 -108t78 -273q-24 -165 -156.5 -275t-306.5 -110t-274.5 109.5t-76.5 275.5zM95 351q-21 -145 66 -240t242 -95t270 95.5t136 239.5q20 143 -67.5 237t-242.5 94q-156 0 -270 -93.5t-134 -237.5zM257 350q13 88 79.5 148t147.5 60
t127.5 -60t33.5 -148q-13 -89 -76.5 -149.5t-144.5 -60.5t-130.5 61t-36.5 149zM289 781l140 157q10 10 22 10h156q12 0 18 -10l95 -157q1 -2 2 -4.5t2.5 -9.5t0 -12t-9 -9.5t-21.5 -4.5h-139q-13 0 -19 11l-28 52l-43 -52q-9 -11 -22 -11h-139h-5t-10 2.5t-10 6t-1.5 12
t11.5 19.5zM307 350q-10 -68 27.5 -114t96.5 -46t106.5 45.5t57.5 114.5t-24.5 113.5t-93.5 44.5q-60 0 -110 -45t-60 -113zM361 791h76l59 72q12 15 22 15t14 -8l5 -7l38 -72h76l-64 107h-131z" />
    <glyph glyph-name="Otilde" unicode="&#xd5;" horiz-adv-x="802" 
d="M45 351q23 165 155 273t306 108t275 -108t78 -273q-24 -165 -156.5 -275t-306.5 -110t-274.5 109.5t-76.5 275.5zM95 351q-21 -145 66 -240t242 -95t270 95.5t136 239.5q20 143 -67.5 237t-242.5 94q-156 0 -270 -93.5t-134 -237.5zM257 350q13 88 79.5 148t147.5 60
t127.5 -60t33.5 -148q-13 -89 -76.5 -149.5t-144.5 -60.5t-130.5 61t-36.5 149zM292 774q13 93 54.5 144.5t110.5 51.5q18 0 35.5 -4.5t29.5 -10.5t21 -12.5t14.5 -11t6.5 -4.5q3 10 4 15q1 10 10.5 17.5t17.5 7.5h122q11 0 17 -8t5 -17q-13 -92 -54.5 -144t-109.5 -52
q-23 0 -44 6.5t-32.5 14t-21 15t-10.5 7.5q-2 -5 -3 -15q-2 -11 -11 -18t-18 -7h-123q-11 0 -17 8t-4 17zM307 350q-10 -68 27.5 -114t96.5 -46t106.5 45.5t57.5 114.5t-24.5 113.5t-93.5 44.5q-60 0 -110 -45t-60 -113zM346 799h75q6 17 20.5 28.5t33.5 11.5
q25 0 53.5 -21.5t54.5 -21.5q40 0 64.5 27t38.5 94h-74q-11 -25 -31 -35q-10 -5 -25 -5q-25 0 -53.5 21.5t-52.5 21.5q-41 0 -66 -27t-38 -94z" />
    <glyph glyph-name="Odieresis" unicode="&#xd6;" horiz-adv-x="802" 
d="M45 351q23 165 155 273t306 108t275 -108t78 -273q-24 -165 -156.5 -275t-306.5 -110t-274.5 109.5t-76.5 275.5zM95 351q-21 -145 66 -240t242 -95t270 95.5t136 239.5q20 143 -67.5 237t-242.5 94q-156 0 -270 -93.5t-134 -237.5zM257 350q13 88 79.5 148t147.5 60
t127.5 -60t33.5 -148q-13 -89 -76.5 -149.5t-144.5 -60.5t-130.5 61t-36.5 149zM303 853q7 48 43 79t84 31q47 0 74.5 -31t20.5 -79q-7 -47 -43.5 -79t-83.5 -32t-74.5 32t-20.5 79zM307 350q-10 -68 27.5 -114t96.5 -46t106.5 45.5t57.5 114.5t-24.5 113.5t-93.5 44.5
q-60 0 -110 -45t-60 -113zM353 853q-4 -28 10 -44.5t42 -16.5t47 16.5t23 44.5q4 27 -10 43.5t-42 16.5t-47 -16.5t-23 -43.5zM505 853q7 48 43 79t84 31q47 0 74.5 -31t20.5 -79q-7 -47 -43.5 -79t-83.5 -32t-74.5 32t-20.5 79zM555 853q-4 -28 10 -44.5t42 -16.5t47 16.5
t23 44.5q4 27 -10 43.5t-42 16.5t-47 -16.5t-23 -43.5z" />
    <glyph glyph-name="multiply" unicode="&#xd7;" horiz-adv-x="515" 
d="M63 195q-13 18 6 36l111 97l-83 97q-6 8 -4.5 18.5t9.5 17.5l102 90q8 7 18.5 7t16.5 -7l84 -98l112 98q9 7 19.5 6.5t15.5 -6.5l77 -90q6 -9 4 -19.5t-9 -16.5l-111 -97l83 -97q6 -9 4 -19.5t-9 -16.5l-103 -90q-10 -7 -20 -6.5t-16 6.5l-83 98l-112 -98q-20 -16 -36 0z
M119 213l46 -55l112 98q8 6 18.5 6.5t17.5 -6.5l83 -98l62 55l-83 97q-5 5 -4 16.5t9 19.5l111 97l-46 55l-112 -98q-20 -16 -35 0l-84 98l-62 -55l83 -97q6 -5 5 -16.5t-10 -19.5z" />
    <glyph glyph-name="Oslash" unicode="&#xd8;" horiz-adv-x="802" 
d="M45 351q23 165 155 273t306 108q19 0 47 -2l43 84q8 17 26 17h115q0 -1 3.5 0t8 -1t8.5 -5t3.5 -10t-5.5 -17l-55 -111q89 -49 132 -137t27 -199q-24 -165 -156.5 -275t-306.5 -110q-30 0 -55 3l-43 -86q-9 -17 -26 -17h-115q-4 0 -9 0.5t-13 7.5t3 25l58 117
q-86 50 -126.5 138t-24.5 197zM95 351q-15 -101 25 -180t123 -120q8 -4 10.5 -13t-2.5 -18l-52 -104h62l45 89q9 20 30 17q32 -6 67 -6q155 0 270 95.5t136 239.5q14 102 -27.5 181.5t-127.5 118.5q-20 10 -9 31l49 99h-62l-43 -86q-9 -19 -29 -17q-40 4 -61 4
q-156 0 -270 -93.5t-134 -237.5zM257 350q13 88 79.5 148t147.5 60q17 0 22 -8t1 -16l-4 -9l-160 -322q-9 -18 -19.5 -20.5t-16.5 3.5l-6 7q-57 62 -44 157zM307 350q-6 -50 12 -89l120 242q-49 -13 -86 -54.5t-46 -98.5zM391 174l165 330q8 17 18.5 19.5t17.5 -3.5l6 -5
q62 -62 47 -165q-13 -89 -76.5 -149.5t-144.5 -60.5h-1l-15 1q-15 1 -19.5 9t-2 15t4.5 9zM452 192q53 8 93.5 51.5t49.5 106.5q8 53 -14 98z" />
    <glyph glyph-name="Ugrave" unicode="&#xd9;" horiz-adv-x="755" 
d="M66 296l58 405q1 11 10.5 18t18.5 7h208q11 0 17 -8t4 -17l-58 -405q-7 -50 17 -78t67 -28t72 27t37 79l58 405q1 11 10.5 18t18.5 7h208q11 0 17 -8t4 -17l-58 -405q-22 -150 -131.5 -240t-268.5 -90q-160 0 -245.5 90t-63.5 240zM116 296q-19 -129 52.5 -204.5
t213.5 -75.5q141 0 232.5 75t110.5 205l54 380h-158l-54 -380q-10 -70 -56.5 -113t-109.5 -43q-64 0 -100.5 43.5t-26.5 112.5l54 380h-158zM304 856l-3 3t-4.5 7.5t-2.5 10.5t6.5 11t19.5 10l183 58q19 5 28 -11l81 -180v-1q1 -1 2 -3.5t1.5 -5t0.5 -6t-0.5 -6.5t-2.5 -6
t-5.5 -5t-9 -3.5t-13.5 -1.5h-148q-10 0 -16 7zM371 864l83 -87h94l-56 125z" />
    <glyph glyph-name="Uacute" unicode="&#xda;" horiz-adv-x="755" 
d="M66 296l58 405q1 11 10.5 18t18.5 7h208q11 0 17 -8t4 -17l-58 -405q-7 -50 17 -78t67 -28t72 27t37 79l58 405q1 11 10.5 18t18.5 7h208q11 0 17 -8t4 -17l-58 -405q-22 -150 -131.5 -240t-268.5 -90q-160 0 -245.5 90t-63.5 240zM116 296q-19 -129 52.5 -204.5
t213.5 -75.5q141 0 232.5 75t110.5 205l54 380h-158l-54 -380q-10 -70 -56.5 -113t-109.5 -43q-64 0 -100.5 43.5t-26.5 112.5l54 380h-158zM370 765l133 180q12 17 31 11l166 -58q2 0 4.5 -1t7.5 -4.5t7 -8t-1.5 -12t-14.5 -16.5l-151 -122q-8 -7 -18 -7h-148h-5t-9 1.5
t-9.5 5t-2 12t9.5 19.5zM437 777h94l108 87l-110 38z" />
    <glyph glyph-name="Ucircumflex" unicode="&#xdb;" horiz-adv-x="755" 
d="M66 296l58 405q1 11 10.5 18t18.5 7h208q11 0 17 -8t4 -17l-58 -405q-7 -50 17 -78t67 -28t72 27t37 79l58 405q1 11 10.5 18t18.5 7h208q11 0 17 -8t4 -17l-58 -405q-22 -150 -131.5 -240t-268.5 -90q-160 0 -245.5 90t-63.5 240zM116 296q-19 -129 52.5 -204.5
t213.5 -75.5q141 0 232.5 75t110.5 205l54 380h-158l-54 -380q-10 -70 -56.5 -113t-109.5 -43q-64 0 -100.5 43.5t-26.5 112.5l54 380h-158zM275 780l140 157q10 10 21 10h156q13 0 19 -10l94 -157q1 -2 2.5 -4.5t3 -9.5t0 -12t-9 -9.5t-21.5 -4.5h-139q-13 0 -20 11l-27 52
l-43 -52q-9 -11 -22 -11h-139h-5t-10 2.5t-10 6t-1.5 12t11.5 19.5zM347 790h76l58 72q12 15 22.5 15t14.5 -7l5 -8l38 -72h76l-64 107h-131z" />
    <glyph glyph-name="Udieresis" unicode="&#xdc;" horiz-adv-x="755" 
d="M66 296l58 405q1 11 10.5 18t18.5 7h208q11 0 17 -8t4 -17l-58 -405q-7 -50 17 -78t67 -28t72 27t37 79l58 405q1 11 10.5 18t18.5 7h208q11 0 17 -8t4 -17l-58 -405q-22 -150 -131.5 -240t-268.5 -90q-160 0 -245.5 90t-63.5 240zM116 296q-19 -129 52.5 -204.5
t213.5 -75.5q141 0 232.5 75t110.5 205l54 380h-158l-54 -380q-10 -70 -56.5 -113t-109.5 -43q-64 0 -100.5 43.5t-26.5 112.5l54 380h-158zM289 853q7 48 43 79t84 31q47 0 74.5 -31t20.5 -79q-7 -47 -43.5 -79t-83.5 -32t-74.5 32t-20.5 79zM339 853q-4 -28 10 -44.5
t42 -16.5t47 16.5t23 44.5q4 27 -10 43.5t-42 16.5t-47 -16.5t-23 -43.5zM491 853q7 48 43 79t84 31q47 0 74.5 -31t20.5 -79q-7 -47 -43.5 -79t-83.5 -32t-74.5 32t-20.5 79zM541 853q-4 -28 10 -44.5t42 -16.5t47 16.5t23 44.5q4 27 -10 43.5t-42 16.5t-47 -16.5
t-23 -43.5z" />
    <glyph glyph-name="Yacute" unicode="&#xdd;" horiz-adv-x="702" 
d="M69 689l-2 4t-1.5 8.5t1.5 11.5t9.5 9t20.5 4h208q14 0 20 -13l95 -244l163 244q8 13 24 13h207q0 -1 4.5 0t9.5 -1t8.5 -5t2.5 -11.5t-9 -19.5l-317 -473l-31 -216q-1 -11 -10.5 -18t-18.5 -7h-208q-11 0 -17 8t-4 17l31 212zM131 676l173 -446q3 -5 1 -12l-27 -193h158
l28 197q2 8 5 12l296 442h-150l-182 -273q-12 -19 -23 -19t-16 10l-5 9l-107 273h-151zM343 765l133 180q12 17 31 11l166 -58q2 0 4.5 -1t7.5 -4.5t7 -8t-1.5 -12t-14.5 -16.5l-151 -122q-8 -7 -18 -7h-148h-5t-9 1.5t-9.5 5t-2 12t9.5 19.5zM410 777h94l108 87l-110 38z
" />
    <glyph glyph-name="Thorn" unicode="&#xde;" horiz-adv-x="694" 
d="M34 0l101 701q1 11 10.5 18t18.5 7h208q11 0 17 -8t4 -17l-9 -64h85q145 0 222.5 -72.5t59.5 -197.5q-19 -130 -118 -207.5t-244 -77.5h-85l-12 -82q-1 -11 -10.5 -18t-18.5 -7h-208q-11 0 -17 8t-4 17zM88 25h158l11 82q2 9 10 17t19 8h110q128 0 208.5 62.5t96.5 172.5
q14 102 -48.5 161t-190.5 59h-110q-9 0 -16 7t-6 18l9 64h-158zM280 265l27 188q2 9 10 17t19 8h101q52 0 79.5 -32.5t19.5 -84.5q-8 -54 -44.5 -87.5t-88.5 -33.5h-101q-9 0 -16 7t-6 18zM334 290h76q66 0 76 71q9 67 -56 67h-76z" />
    <glyph glyph-name="germandbls" unicode="&#xdf;" horiz-adv-x="667" 
d="M23 0l71 494q19 128 114 205t231 77q131 0 204.5 -61.5t58.5 -166.5q-14 -91 -86 -157q45 -26 67 -72.5t14 -102.5q-16 -110 -111.5 -175.5t-233.5 -65.5h-48q-11 0 -17 8t-4 17l20 142q2 11 11 18t18 7h31q46 0 65.5 13t23.5 39q3 25 -14 37t-66 12h-21q-11 0 -17 8
t-5 17l21 142q1 10 10.5 17.5t17.5 7.5q37 0 53 13t21 45q4 34 -5 46t-35 12q-29 0 -43.5 -14.5t-20.5 -52.5l-73 -509q-1 -11 -10.5 -18t-18.5 -7h-202q-11 0 -17 8t-4 17zM77 25h152l69 484q8 53 40 85t81 32q46 0 68 -29.5t15 -78.5q-7 -44 -34.5 -72t-71.5 -34l-13 -94
q60 -1 92.5 -25.5t26.5 -73.5q-7 -50 -46.5 -76t-99.5 -26h-6l-13 -92h23q122 0 198.5 52.5t88.5 138.5q7 51 -17.5 89.5t-73.5 54.5q-20 7 -20 18t10 19l10 8q37 23 63.5 62t32.5 81q12 80 -46.5 129t-173.5 49q-119 0 -195.5 -62t-92.5 -170z" />
    <glyph glyph-name="agrave" unicode="&#xe0;" horiz-adv-x="607" 
d="M18 162q13 90 83 139t180 51h102q-9 24 -60 24q-69 0 -159 -37q-10 -4 -19.5 -0.5t-12.5 14.5l-30 134q-5 22 18 32q152 58 280 58q123 0 187.5 -59t49.5 -165l-51 -353q-1 -11 -10.5 -18t-18.5 -7h-198q-11 0 -17 8t-4 17v2q-60 -36 -139 -36q-95 0 -144 54t-37 142z
M68 162q-9 -68 26.5 -107t111.5 -39q95 0 148 59q16 16 25.5 12.5t13.5 -15.5l4 -12l-5 -35h148l47 328q12 83 -37.5 128.5t-156.5 45.5t-237 -45l20 -87q90 31 154 31q54 0 83 -25.5t22 -71.5v-2q-1 -9 -9 -17t-19 -8h-133q-186 -3 -206 -140zM208 699l-3 3t-5 7.5
t-2.5 10.5t6.5 11t19 10l183 58q21 5 28 -11l81 -180l1 -1q0 -1 1 -3.5t1.5 -5t0.5 -6t-0.5 -6.5t-2.5 -6t-5.5 -5t-9 -3.5t-13.5 -1.5h-148q-10 0 -16 7zM211 177q5 36 31.5 56t64.5 20h92q9 0 16 -7t6 -18l-7 -49q-3 -8 -4 -10q-19 -33 -53 -52t-72 -19t-59 21.5t-15 57.5
zM261 177q-2 -15 4 -22t27 -7q47 0 73 37l2 18h-67q-23 0 -30 -5.5t-9 -20.5zM274 707l83 -87h94l-56 125z" />
    <glyph glyph-name="aacute" unicode="&#xe1;" horiz-adv-x="607" 
d="M18 162q13 90 83 139t180 51h102q-9 24 -60 24q-69 0 -159 -37q-10 -4 -19.5 -0.5t-12.5 14.5l-30 134q-5 22 18 32q152 58 280 58q123 0 187.5 -59t49.5 -165l-51 -353q-1 -11 -10.5 -18t-18.5 -7h-198q-11 0 -17 8t-4 17v2q-60 -36 -139 -36q-95 0 -144 54t-37 142z
M68 162q-9 -68 26.5 -107t111.5 -39q95 0 148 59q16 16 25.5 12.5t13.5 -15.5l4 -12l-5 -35h148l47 328q12 83 -37.5 128.5t-156.5 45.5t-237 -45l20 -87q90 31 154 31q54 0 83 -25.5t22 -71.5v-2q-1 -9 -9 -17t-19 -8h-133q-186 -3 -206 -140zM211 177q5 36 31.5 56
t64.5 20h92q9 0 16 -7t6 -18l-7 -49q-3 -8 -4 -10q-19 -33 -53 -52t-72 -19t-59 21.5t-15 57.5zM261 177q-2 -15 4 -22t27 -7q47 0 73 37l2 18h-67q-23 0 -30 -5.5t-9 -20.5zM273 608l133 180q13 16 31 11l167 -58q5 -1 9.5 -4t9.5 -13.5t-17 -24.5l-151 -122q-7 -7 -18 -7
h-148h-5t-9 1.5t-9.5 5t-2 12t9.5 19.5zM340 620h95l107 87l-109 38z" />
    <glyph glyph-name="acircumflex" unicode="&#xe2;" horiz-adv-x="607" 
d="M18 162q13 90 83 139t180 51h102q-9 24 -60 24q-69 0 -159 -37q-10 -4 -19.5 -0.5t-12.5 14.5l-30 134q-5 22 18 32q152 58 280 58q123 0 187.5 -59t49.5 -165l-51 -353q-1 -11 -10.5 -18t-18.5 -7h-198q-11 0 -17 8t-4 17v2q-60 -36 -139 -36q-95 0 -144 54t-37 142z
M68 162q-9 -68 26.5 -107t111.5 -39q95 0 148 59q16 16 25.5 12.5t13.5 -15.5l4 -12l-5 -35h148l47 328q12 83 -37.5 128.5t-156.5 45.5t-237 -45l20 -87q90 31 154 31q54 0 83 -25.5t22 -71.5v-2q-1 -9 -9 -17t-19 -8h-133q-186 -3 -206 -140zM179 623l139 157q10 10 22 10
h156q12 0 18 -10l95 -157q1 -2 2 -4.5t2.5 -9.5t0 -12t-9 -9.5t-21.5 -4.5h-139q-14 0 -19 11l-28 52l-43 -52q-8 -11 -22 -11h-139h-5t-9.5 2.5t-10 6t-1.5 12t12 19.5zM211 177q5 36 31.5 56t64.5 20h92q9 0 16 -7t6 -18l-7 -49q-3 -8 -4 -10q-19 -33 -53 -52t-72 -19
t-59 21.5t-15 57.5zM250 633h76l59 72q12 15 22.5 15t14.5 -8l4 -7l39 -72h75l-64 107h-131zM261 177q-2 -15 4 -22t27 -7q47 0 73 37l2 18h-67q-23 0 -30 -5.5t-9 -20.5z" />
    <glyph glyph-name="atilde" unicode="&#xe3;" horiz-adv-x="607" 
d="M18 162q13 90 83 139t180 51h102q-9 24 -60 24q-69 0 -159 -37q-10 -4 -19.5 -0.5t-12.5 14.5l-30 134q-5 22 18 32q152 58 280 58q123 0 187.5 -59t49.5 -165l-51 -353q-1 -11 -10.5 -18t-18.5 -7h-198q-11 0 -17 8t-4 17v2q-60 -36 -139 -36q-95 0 -144 54t-37 142z
M68 162q-9 -68 26.5 -107t111.5 -39q95 0 148 59q16 16 25.5 12.5t13.5 -15.5l4 -12l-5 -35h148l47 328q12 83 -37.5 128.5t-156.5 45.5t-237 -45l20 -87q90 31 154 31q54 0 83 -25.5t22 -71.5v-2q-1 -9 -9 -17t-19 -8h-133q-186 -3 -206 -140zM181 617q13 93 54.5 144.5
t110.5 51.5q18 0 35.5 -4.5t29.5 -10.5t21 -12.5t14.5 -11t6.5 -4.5q3 4 4 15t10.5 18t18.5 7h122q11 0 17 -8t4 -17q-13 -93 -54 -144.5t-110 -51.5q-22 0 -43 6.5t-32.5 14t-21 15t-10.5 7.5q-2 -4 -4 -15q-1 -11 -10.5 -18t-18.5 -7h-123q-11 0 -17 8t-4 17zM211 177
q5 36 31.5 56t64.5 20h92q9 0 16 -7t6 -18l-7 -49q-3 -8 -4 -10q-19 -33 -53 -52t-72 -19t-59 21.5t-15 57.5zM235 642h75q6 17 21 28.5t33 11.5q26 0 54 -21.5t54 -21.5q41 0 65 27t38 94h-74q-9 -24 -30 -35q-11 -5 -25 -5q-26 0 -54.5 21.5t-52.5 21.5q-41 0 -65.5 -27
t-38.5 -94zM261 177q-2 -15 4 -22t27 -7q47 0 73 37l2 18h-67q-23 0 -30 -5.5t-9 -20.5z" />
    <glyph glyph-name="adieresis" unicode="&#xe4;" horiz-adv-x="607" 
d="M18 162q13 90 83 139t180 51h102q-9 24 -60 24q-69 0 -159 -37q-10 -4 -19.5 -0.5t-12.5 14.5l-30 134q-5 22 18 32q152 58 280 58q123 0 187.5 -59t49.5 -165l-51 -353q-1 -11 -10.5 -18t-18.5 -7h-198q-11 0 -17 8t-4 17v2q-60 -36 -139 -36q-95 0 -144 54t-37 142z
M68 162q-9 -68 26.5 -107t111.5 -39q95 0 148 59q16 16 25.5 12.5t13.5 -15.5l4 -12l-5 -35h148l47 328q12 83 -37.5 128.5t-156.5 45.5t-237 -45l20 -87q90 31 154 31q54 0 83 -25.5t22 -71.5v-2q-1 -9 -9 -17t-19 -8h-133q-186 -3 -206 -140zM192 696q7 48 43 79t84 31
q47 0 74.5 -31t20.5 -79q-7 -47 -43 -79t-84 -32q-47 0 -74.5 32t-20.5 79zM211 177q5 36 31.5 56t64.5 20h92q9 0 16 -7t6 -18l-7 -49q-3 -8 -4 -10q-19 -33 -53 -52t-72 -19t-59 21.5t-15 57.5zM242 696q-4 -28 10.5 -44.5t42.5 -16.5q27 0 46 16.5t23 44.5q4 27 -10 43.5
t-42 16.5t-46.5 -16.5t-23.5 -43.5zM261 177q-2 -15 4 -22t27 -7q47 0 73 37l2 18h-67q-23 0 -30 -5.5t-9 -20.5zM394 696q7 48 43 79t84 31q47 0 74.5 -31t20.5 -79q-7 -47 -43 -79t-84 -32q-47 0 -74.5 32t-20.5 79zM444 696q-4 -28 10.5 -44.5t42.5 -16.5q27 0 46 16.5
t23 44.5q4 27 -10 43.5t-42 16.5t-46.5 -16.5t-23.5 -43.5z" />
    <glyph glyph-name="aring" unicode="&#xe5;" horiz-adv-x="607" 
d="M18 162q13 90 83 139t180 51h102q-9 24 -60 24q-69 0 -159 -37q-10 -4 -19.5 -0.5t-12.5 14.5l-30 134q-5 22 18 32q152 58 280 58q123 0 187.5 -59t49.5 -165l-51 -353q-1 -11 -10.5 -18t-18.5 -7h-198q-11 0 -17 8t-4 17v2q-60 -36 -139 -36q-95 0 -144 54t-37 142z
M68 162q-9 -68 26.5 -107t111.5 -39q95 0 148 59q16 16 25.5 12.5t13.5 -15.5l4 -12l-5 -35h148l47 328q12 83 -37.5 128.5t-156.5 45.5t-237 -45l20 -87q90 31 154 31q54 0 83 -25.5t22 -71.5v-2q-1 -9 -9 -17t-19 -8h-133q-186 -3 -206 -140zM211 177q5 36 31.5 56
t64.5 20h92q9 0 16 -7t6 -18l-7 -49q-3 -8 -4 -10q-19 -33 -53 -52t-72 -19t-59 21.5t-15 57.5zM257 699q9 61 58 104t111 43q61 0 98.5 -43t28.5 -104t-58.5 -104t-110.5 -43q-62 0 -99 43t-28 104zM261 177q-2 -15 4 -22t27 -7q47 0 73 37l2 18h-67q-23 0 -30 -5.5
t-9 -20.5zM307 699q-6 -41 18.5 -69t65.5 -28t73.5 28.5t38.5 68.5t-18.5 68.5t-65.5 28.5t-73.5 -28t-38.5 -69zM335 699q4 29 27.5 49.5t52.5 20.5t46.5 -20.5t13.5 -49.5t-27.5 -49.5t-52.5 -20.5t-46.5 20.5t-13.5 49.5zM385 699q-1 -8 4 -14t13 -6q19 0 23 20
q1 8 -4 14t-13 6q-9 0 -15.5 -6t-7.5 -14z" />
    <glyph glyph-name="ae" unicode="&#xe6;" horiz-adv-x="961" 
d="M18 161q13 90 83 138t180 50h106q-10 27 -62 27q-70 0 -166 -37q-9 -4 -19 0t-12 15l-26 135q-2 9 4 18.5t15 12.5q154 57 280 57q109 0 171 -44q74 43 167 43q15 0 23 -1q139 -7 203 -103t34 -246q-1 -10 -10 -17t-18 -7h-115l81 -93q15 -16 -4 -35q-111 -106 -277 -106
q-141 0 -207 89q-89 -92 -233 -92q-101 0 -156 54t-42 142zM68 161q-9 -66 31 -106t124 -40q139 0 212 97q12 16 22.5 16.5t14.5 -7.5l5 -8q49 -95 187 -95q126 0 218 73l-61 69q-62 -43 -125 -43q-48 0 -79.5 27.5t-37.5 75.5q-2 15 5.5 23t12.5 8.5t10 0.5h347
q19 128 -40 201t-182 73q-88 0 -152 -44q-18 -12 -31 0q-50 45 -155 45t-238 -45l17 -87q93 31 159 31q54 0 83 -25.5t22 -71.5v-5q-2 -9 -10 -17t-19 -8h-134q-186 -3 -206 -138zM211 177q5 36 33 56.5t66 20.5h93q8 0 15 -7t6 -18l-8 -53q0 -6 -5 -13q-50 -68 -125 -68
q-38 0 -59.5 23t-15.5 59zM261 177q-6 -32 32 -32q43 0 74 38l3 21h-68q-23 0 -31 -6t-10 -21zM590 326q16 49 50.5 81.5t79.5 32.5q49 0 74.5 -34.5t16.5 -84.5q-1 -10 -9.5 -17t-18.5 -7h-172q-29 0 -21 29zM638 202q18 -35 65 -35t96 35h-161zM651 347h112q-6 43 -50 43
q-37 0 -62 -43z" />
    <glyph glyph-name="ccedilla" unicode="&#xe7;" horiz-adv-x="562" 
d="M33 270q20 137 117.5 221.5t236.5 84.5q92 0 157.5 -41t93.5 -115q3 -9 -1.5 -19t-14.5 -14l-166 -76q-23 -10 -32 10q-17 41 -59 41q-28 0 -50 -23.5t-28 -67.5q-6 -46 8.5 -69.5t43.5 -23.5q44 0 69 45q15 24 36 12l146 -79q8 -4 10 -14t-3 -18q-73 -119 -219 -148
l-10 -15q53 -33 44 -94t-59.5 -97.5t-118.5 -36.5q-57 0 -107 37q-15 12 -5 31l48 82q7 10 16 13q-17 12 -5 33l32 48q-100 25 -148 103t-32 190zM83 270q-15 -104 32.5 -170t143.5 -79q17 -2 20.5 -11t-1.5 -17l-5 -8l-24 -38q26 -2 42 -18t12 -42t-25 -42.5t-48 -16.5
q-17 0 -33 8l-20 -35q33 -18 64 -18q53 0 84.5 23t36.5 61q5 43 -41 58q-26 8 -10 36l33 49q8 10 20 13q114 18 176 100l-104 57q-41 -52 -105 -52q-52 0 -77.5 41t-16.5 102q9 60 46 100.5t89 40.5q58 0 89 -47l119 55q-55 106 -200 106q-120 0 -200 -69.5t-97 -186.5z
M209 -106q14 -16 28 -16t16 9v1q0 3 -0.5 4.5t-5 3t-12.5 1.5q-11 0 -26 -3z" />
    <glyph glyph-name="egrave" unicode="&#xe8;" horiz-adv-x="609" 
d="M33 270q19 137 118 221.5t238 84.5q17 0 25 -1q140 -8 201.5 -104t30.5 -249q-2 -10 -10.5 -17t-17.5 -7h-109l78 -89q15 -16 -4 -35q-111 -106 -276 -106q-144 0 -219 83t-55 219zM83 270q-17 -116 44 -184t188 -68q125 0 217 73l-61 69q-63 -43 -125 -43
q-47 0 -77.5 26.5t-38.5 72.5q-2 15 6 23t13 8.5t10 0.5h342q20 131 -36.5 204.5t-182.5 73.5q-120 0 -201.5 -69t-97.5 -187zM206 699l-3 3t-5 7.5t-2.5 10.5t6.5 11t19 10l183 58q21 5 28 -11l81 -180l1 -1q0 -1 1 -3.5t1.5 -5t0.5 -6t-0.5 -6.5t-2.5 -6t-5.5 -5t-9 -3.5
t-13.5 -1.5h-148q-10 0 -16 7zM241 326q16 49 50.5 81t79.5 32q48 0 73 -33.5t17 -83.5q-2 -9 -10 -17t-18 -8h-171q-29 0 -21 29zM272 707l83 -87h94l-56 125zM291 198q19 -31 62 -31t90 31h-152zM302 347h110q-6 42 -48 42q-36 0 -62 -42z" />
    <glyph glyph-name="eacute" unicode="&#xe9;" horiz-adv-x="609" 
d="M33 270q19 137 118 221.5t238 84.5q17 0 25 -1q140 -8 201.5 -104t30.5 -249q-2 -10 -10.5 -17t-17.5 -7h-109l78 -89q15 -16 -4 -35q-111 -106 -276 -106q-144 0 -219 83t-55 219zM83 270q-17 -116 44 -184t188 -68q125 0 217 73l-61 69q-63 -43 -125 -43
q-47 0 -77.5 26.5t-38.5 72.5q-2 15 6 23t13 8.5t10 0.5h342q20 131 -36.5 204.5t-182.5 73.5q-120 0 -201.5 -69t-97.5 -187zM241 326q16 49 50.5 81t79.5 32q48 0 73 -33.5t17 -83.5q-2 -9 -10 -17t-18 -8h-171q-29 0 -21 29zM271 608l133 180q13 16 31 11l167 -58
q5 -1 9.5 -4t9.5 -13.5t-17 -24.5l-151 -122q-7 -7 -18 -7h-148h-5t-9 1.5t-9.5 5t-2 12t9.5 19.5zM291 198q19 -31 62 -31t90 31h-152zM302 347h110q-6 42 -48 42q-36 0 -62 -42zM338 620h95l107 87l-109 38z" />
    <glyph glyph-name="ecircumflex" unicode="&#xea;" horiz-adv-x="609" 
d="M33 270q19 137 118 221.5t238 84.5q17 0 25 -1q140 -8 201.5 -104t30.5 -249q-2 -10 -10.5 -17t-17.5 -7h-109l78 -89q15 -16 -4 -35q-111 -106 -276 -106q-144 0 -219 83t-55 219zM83 270q-17 -116 44 -184t188 -68q125 0 217 73l-61 69q-63 -43 -125 -43
q-47 0 -77.5 26.5t-38.5 72.5q-2 15 6 23t13 8.5t10 0.5h342q20 131 -36.5 204.5t-182.5 73.5q-120 0 -201.5 -69t-97.5 -187zM177 623l139 157q10 10 22 10h156q12 0 18 -10l95 -157q1 -2 2 -4.5t2.5 -9.5t0 -12t-9 -9.5t-21.5 -4.5h-139q-14 0 -19 11l-28 52l-43 -52
q-8 -11 -22 -11h-139h-5t-9.5 2.5t-10 6t-1.5 12t12 19.5zM241 326q16 49 50.5 81t79.5 32q48 0 73 -33.5t17 -83.5q-2 -9 -10 -17t-18 -8h-171q-29 0 -21 29zM248 633h76l59 72q12 15 22.5 15t14.5 -8l4 -7l39 -72h75l-64 107h-131zM291 198q19 -31 62 -31t90 31h-152z
M302 347h110q-6 42 -48 42q-36 0 -62 -42z" />
    <glyph glyph-name="edieresis" unicode="&#xeb;" horiz-adv-x="609" 
d="M33 270q19 137 118 221.5t238 84.5q17 0 25 -1q140 -8 201.5 -104t30.5 -249q-2 -10 -10.5 -17t-17.5 -7h-109l78 -89q15 -16 -4 -35q-111 -106 -276 -106q-144 0 -219 83t-55 219zM83 270q-17 -116 44 -184t188 -68q125 0 217 73l-61 69q-63 -43 -125 -43
q-47 0 -77.5 26.5t-38.5 72.5q-2 15 6 23t13 8.5t10 0.5h342q20 131 -36.5 204.5t-182.5 73.5q-120 0 -201.5 -69t-97.5 -187zM190 696q7 48 43 79t84 31q47 0 74.5 -31t20.5 -79q-7 -47 -43 -79t-84 -32q-47 0 -74.5 32t-20.5 79zM240 696q-4 -28 10.5 -44.5t42.5 -16.5
q27 0 46 16.5t23 44.5q4 27 -10 43.5t-42 16.5t-46.5 -16.5t-23.5 -43.5zM241 326q16 49 50.5 81t79.5 32q48 0 73 -33.5t17 -83.5q-2 -9 -10 -17t-18 -8h-171q-29 0 -21 29zM291 198q19 -31 62 -31t90 31h-152zM302 347h110q-6 42 -48 42q-36 0 -62 -42zM392 696
q7 48 43 79t84 31q47 0 74.5 -31t20.5 -79q-7 -47 -43 -79t-84 -32q-47 0 -74.5 32t-20.5 79zM442 696q-4 -28 10.5 -44.5t42.5 -16.5q27 0 46 16.5t23 44.5q4 27 -10 43.5t-42 16.5t-46.5 -16.5t-23.5 -43.5z" />
    <glyph glyph-name="igrave" unicode="&#xec;" horiz-adv-x="324" 
d="M36 0l78 544q2 11 11 18t18 7h202q11 0 17 -8t4 -17l-78 -544q-1 -11 -10.5 -18t-18.5 -7h-202q-11 0 -17 8t-4 17zM66 699l-3 3t-5 7.5t-2.5 10.5t6.5 11t19 10l183 58q21 5 28 -11l81 -180l1 -1q0 -1 1 -3.5t1.5 -5t0.5 -6t-0.5 -6.5t-2.5 -6t-5.5 -5t-9 -3.5
t-13.5 -1.5h-148q-10 0 -16 7zM90 25h152l71 494h-152zM132 707l83 -87h94l-56 125z" />
    <glyph glyph-name="iacute" unicode="&#xed;" horiz-adv-x="324" 
d="M36 0l78 544q2 11 11 18t18 7h202q11 0 17 -8t4 -17l-78 -544q-1 -11 -10.5 -18t-18.5 -7h-202q-11 0 -17 8t-4 17zM90 25h152l71 494h-152zM131 608l133 180q13 16 31 11l167 -58q5 -1 9.5 -4t9.5 -13.5t-17 -24.5l-151 -122q-7 -7 -18 -7h-148h-5t-9 1.5t-9.5 5t-2 12
t9.5 19.5zM198 620h95l107 87l-109 38z" />
    <glyph glyph-name="icircumflex" unicode="&#xee;" horiz-adv-x="324" 
d="M36 0l78 544q2 11 11 18t18 7h202q11 0 17 -8t4 -17l-78 -544q-1 -11 -10.5 -18t-18.5 -7h-202q-11 0 -17 8t-4 17zM38 623l139 157q10 10 22 10h156q12 0 18 -10l95 -157q1 -2 2 -4.5t2.5 -9.5t0 -12t-9 -9.5t-21.5 -4.5h-139q-13 0 -19 11l-28 52l-43 -52
q-8 -11 -22 -11h-139h-5t-9.5 2.5t-10 6t-1.5 12t12 19.5zM90 25h152l71 494h-152zM109 633h76l59 72q12 15 22 15t14 -8l5 -7l39 -72h75l-64 107h-131z" />
    <glyph glyph-name="idieresis" unicode="&#xef;" horiz-adv-x="324" 
d="M36 0l78 544q2 11 11 18t18 7h202q11 0 17 -8t4 -17l-78 -544q-1 -11 -10.5 -18t-18.5 -7h-202q-11 0 -17 8t-4 17zM51 696q7 48 43 79t84 31q47 0 74.5 -31t20.5 -79q-7 -47 -43 -79t-84 -32q-47 0 -74.5 32t-20.5 79zM90 25h152l71 494h-152zM101 696
q-4 -28 10.5 -44.5t42.5 -16.5q27 0 46 16.5t23 44.5q4 27 -10 43.5t-42 16.5t-46.5 -16.5t-23.5 -43.5zM253 696q7 48 43 79t84 31q47 0 74.5 -31t20.5 -79q-7 -47 -43 -79t-84 -32q-47 0 -74.5 32t-20.5 79zM303 696q-4 -28 10.5 -44.5t42.5 -16.5q27 0 46 16.5t23 44.5
q4 27 -10 43.5t-42 16.5t-46.5 -16.5t-23.5 -43.5z" />
    <glyph glyph-name="eth" unicode="&#xf0;" horiz-adv-x="611" 
d="M23 226q10 77 54 135t111 87q-8 6 -9 14l-18 91q-2 9 4.5 19t15.5 13l67 22q-43 26 -73 40q-42 19 4 44l146 81q12 7 22 2q86 -33 152 -86l142 47q10 3 19 -1.5t10 -14.5l17 -92q2 -10 -4 -19.5t-16 -12.5l-66 -21q81 -127 58 -280q-21 -148 -125.5 -238t-254.5 -90
q-131 0 -202 71t-54 189zM73 226q-14 -96 42.5 -153t170.5 -57q131 0 218 75t105 203q23 151 -70 275q-10 16 -6 25t13 12l10 4l77 25l-8 44l-130 -43q-14 -4 -23 4q-57 49 -138 83l-92 -51q40 -22 80 -51q16 -14 13 -24t-15 -15l-11 -6l-94 -31l9 -43l152 50q16 5 25 -6
q58 -67 75 -139q4 -15 -7 -22t-24 -6l-13 1q-17 18 -53 30t-76 12q-29 0 -64 -7q-68 -17 -112 -66t-54 -123zM217 236q7 45 41 73.5t82 28.5t75 -29t20 -74q-7 -47 -42 -75t-83 -28q-47 0 -73.5 29t-19.5 75zM267 236q-8 -54 50 -54q60 0 68 53t-52 53q-58 0 -66 -52z
M284 471q8 1 26 1q44 0 88 -13q-12 20 -28 40z" />
    <glyph glyph-name="ntilde" unicode="&#xf1;" horiz-adv-x="678" 
d="M36 0l78 544q2 11 11 18t18 7h202q11 0 17 -8t4 -17l-2 -17q68 50 155 50q98 0 150.5 -64.5t37.5 -167.5l-50 -345q-1 -11 -10.5 -18t-18.5 -7h-202q-11 0 -17 8t-4 17l41 287q10 63 -43 63q-31 -1 -51 -21.5t-25 -59.5l-39 -269q-1 -11 -10.5 -18t-18.5 -7h-202
q-11 0 -17 8t-4 17zM90 25h152l35 244q8 55 44 92.5t88 38.5q47 0 71 -32t16 -81l-37 -262h152l46 320q12 85 -28 133.5t-117 48.5q-101 0 -164 -80q-14 -16 -24 -13t-15 14l-5 12l9 59h-152zM234 617q13 93 54.5 144.5t110.5 51.5q18 0 35.5 -4.5t29.5 -10.5t21 -12.5
t14.5 -11t6.5 -4.5q3 4 4 15t10.5 18t18.5 7h122q11 0 17 -8t4 -17q-13 -93 -54 -144.5t-110 -51.5q-22 0 -43 6.5t-32.5 14t-21 15t-10.5 7.5q-2 -4 -4 -15q-1 -11 -10.5 -18t-18.5 -7h-123q-11 0 -17 8t-4 17zM288 642h75q6 17 21 28.5t33 11.5q26 0 54 -21.5t54 -21.5
q41 0 65 27t38 94h-74q-9 -24 -30 -35q-11 -5 -25 -5q-26 0 -54.5 21.5t-52.5 21.5q-41 0 -65.5 -27t-38.5 -94z" />
    <glyph glyph-name="ograve" unicode="&#xf2;" horiz-adv-x="643" 
d="M33 272q20 137 123 220.5t249 83.5t224.5 -83.5t58.5 -220.5q-19 -136 -122 -220t-249 -84t-224.5 83.5t-59.5 220.5zM83 272q-17 -115 48.5 -184.5t193.5 -69.5t212 69t101 185q17 117 -47.5 185.5t-192.5 68.5t-213 -69t-102 -185zM225 699l-3 3t-5 7.5t-2.5 10.5
t6.5 11t19 10l183 58q21 5 28 -11l81 -180v-1q1 -1 2 -3.5t1.5 -5t0.5 -6t-0.5 -6.5t-2.5 -6t-5.5 -5t-9 -3.5t-13.5 -1.5h-148q-10 0 -16 7zM237 270q9 63 49 104.5t96 41.5t83.5 -42t18.5 -104q-9 -63 -48.5 -104.5t-95.5 -41.5q-57 0 -84.5 41.5t-18.5 104.5zM287 270
q-7 -47 10 -71.5t50 -24.5t56.5 25t30.5 71t-10 71t-49 25q-33 0 -57 -25t-31 -71zM291 707l83 -87h94l-56 125z" />
    <glyph glyph-name="oacute" unicode="&#xf3;" horiz-adv-x="643" 
d="M33 272q20 137 123 220.5t249 83.5t224.5 -83.5t58.5 -220.5q-19 -136 -122 -220t-249 -84t-224.5 83.5t-59.5 220.5zM83 272q-17 -115 48.5 -184.5t193.5 -69.5t212 69t101 185q17 117 -47.5 185.5t-192.5 68.5t-213 -69t-102 -185zM237 270q9 63 49 104.5t96 41.5
t83.5 -42t18.5 -104q-9 -63 -48.5 -104.5t-95.5 -41.5q-57 0 -84.5 41.5t-18.5 104.5zM287 270q-7 -47 10 -71.5t50 -24.5t56.5 25t30.5 71t-10 71t-49 25q-33 0 -57 -25t-31 -71zM290 608l133 180q13 16 31 11l167 -58q5 -1 9.5 -4t9.5 -13.5t-17 -24.5l-151 -122
q-7 -7 -18 -7h-148h-5t-9 1.5t-9.5 5t-2 12t9.5 19.5zM357 620h95l107 87l-109 38z" />
    <glyph glyph-name="ocircumflex" unicode="&#xf4;" horiz-adv-x="643" 
d="M33 272q20 137 123 220.5t249 83.5t224.5 -83.5t58.5 -220.5q-19 -136 -122 -220t-249 -84t-224.5 83.5t-59.5 220.5zM83 272q-17 -115 48.5 -184.5t193.5 -69.5t212 69t101 185q17 117 -47.5 185.5t-192.5 68.5t-213 -69t-102 -185zM197 623l139 157q10 10 22 10h156
q12 0 18 -10l95 -157q1 -2 2 -4.5t2.5 -9.5t0 -12t-9 -9.5t-21.5 -4.5h-139q-14 0 -19 11l-28 52l-43 -52q-8 -11 -22 -11h-139h-5t-9.5 2.5t-10 6t-1.5 12t12 19.5zM237 270q9 63 49 104.5t96 41.5t83.5 -42t18.5 -104q-9 -63 -48.5 -104.5t-95.5 -41.5q-57 0 -84.5 41.5
t-18.5 104.5zM268 633h76l59 72q12 15 22.5 15t14.5 -8l4 -7l39 -72h75l-64 107h-131zM287 270q-7 -47 10 -71.5t50 -24.5t56.5 25t30.5 71t-10 71t-49 25q-33 0 -57 -25t-31 -71z" />
    <glyph glyph-name="otilde" unicode="&#xf5;" horiz-adv-x="643" 
d="M33 272q20 137 123 220.5t249 83.5t224.5 -83.5t58.5 -220.5q-19 -136 -122 -220t-249 -84t-224.5 83.5t-59.5 220.5zM83 272q-17 -115 48.5 -184.5t193.5 -69.5t212 69t101 185q17 117 -47.5 185.5t-192.5 68.5t-213 -69t-102 -185zM199 617q13 93 54.5 144.5
t110.5 51.5q18 0 35.5 -4.5t29.5 -10.5t21 -12.5t14.5 -11t6.5 -4.5q3 4 4 15t10.5 18t18.5 7h122q11 0 17 -8t4 -17q-13 -93 -54 -144.5t-110 -51.5q-22 0 -43 6.5t-32.5 14t-21 15t-10.5 7.5q-2 -4 -4 -15q-1 -11 -10.5 -18t-18.5 -7h-123q-11 0 -17 8t-4 17zM237 270
q9 63 49 104.5t96 41.5t83.5 -42t18.5 -104q-9 -63 -48.5 -104.5t-95.5 -41.5q-57 0 -84.5 41.5t-18.5 104.5zM253 642h75q6 17 21 28.5t33 11.5q26 0 54 -21.5t54 -21.5q41 0 65 27t38 94h-74q-9 -24 -30 -35q-11 -5 -25 -5q-26 0 -54.5 21.5t-52.5 21.5q-41 0 -65.5 -27
t-38.5 -94zM287 270q-7 -47 10 -71.5t50 -24.5t56.5 25t30.5 71t-10 71t-49 25q-33 0 -57 -25t-31 -71z" />
    <glyph glyph-name="odieresis" unicode="&#xf6;" horiz-adv-x="643" 
d="M33 272q20 137 123 220.5t249 83.5t224.5 -83.5t58.5 -220.5q-19 -136 -122 -220t-249 -84t-224.5 83.5t-59.5 220.5zM83 272q-17 -115 48.5 -184.5t193.5 -69.5t212 69t101 185q17 117 -47.5 185.5t-192.5 68.5t-213 -69t-102 -185zM210 696q7 48 43 79t84 31
q47 0 74.5 -31t20.5 -79q-7 -47 -43 -79t-84 -32q-47 0 -74.5 32t-20.5 79zM237 270q9 63 49 104.5t96 41.5t83.5 -42t18.5 -104q-9 -63 -48.5 -104.5t-95.5 -41.5q-57 0 -84.5 41.5t-18.5 104.5zM260 696q-4 -28 10.5 -44.5t42.5 -16.5q27 0 46 16.5t23 44.5q4 27 -10 43.5
t-42 16.5t-46.5 -16.5t-23.5 -43.5zM287 270q-7 -47 10 -71.5t50 -24.5t56.5 25t30.5 71t-10 71t-49 25q-33 0 -57 -25t-31 -71zM412 696q7 48 43 79t84 31q47 0 74.5 -31t20.5 -79q-7 -47 -43 -79t-84 -32q-47 0 -74.5 32t-20.5 79zM462 696q-4 -28 10.5 -44.5t42.5 -16.5
q27 0 46 16.5t23 44.5q4 27 -10 43.5t-42 16.5t-46.5 -16.5t-23.5 -43.5z" />
    <glyph glyph-name="divide" unicode="&#xf7;" horiz-adv-x="515" 
d="M44 265l18 126q2 11 11 18t18 7h453q11 0 17 -8t4 -17l-18 -126q-1 -10 -10.5 -17.5t-17.5 -7.5h-453q-11 0 -17 8t-5 17zM98 290h403l11 76h-403zM160 149q8 47 43.5 78.5t82.5 31.5q48 0 75 -31.5t20 -78.5q-7 -48 -43 -79.5t-84 -31.5q-47 0 -74 32t-20 79zM210 149
q-4 -28 10 -44.5t42 -16.5t46.5 16.5t22.5 44.5t-9.5 44t-42.5 16q-28 0 -46 -16t-23 -44zM212 508q7 47 43 78.5t83 31.5q48 0 75 -31.5t20 -78.5q-7 -48 -43 -79.5t-84 -31.5q-47 0 -74 31.5t-20 79.5zM262 508q-4 -28 10 -44.5t41 -16.5q29 0 47.5 16.5t22.5 44.5t-10 44
t-42 16t-46 -16t-23 -44z" />
    <glyph glyph-name="oslash" unicode="&#xf8;" horiz-adv-x="643" 
d="M33 272q20 137 123 220.5t249 83.5q23 0 33 -1l50 107q8 17 27 17h80h3.5t8 -1t8 -4.5t4 -10t-4.5 -17.5l-57 -120q75 -36 109.5 -108t21.5 -166q-19 -136 -122 -220t-249 -84q-5 0 -16.5 0.5t-15.5 0.5l-54 -117q-9 -17 -27 -17h-80h-3.5t-8 1t-8 4.5t-4 10t4.5 17.5
l62 130q-77 36 -112 107.5t-22 166.5zM83 272q-13 -86 21.5 -147.5t107.5 -87.5q9 -4 12 -13t-1 -19l-57 -120h27l56 119q8 19 29 17q22 -3 47 -3q128 0 212 69t101 185q13 86 -20.5 147t-105.5 88q-9 4 -12 13t1 19l52 110h-27l-51 -109q-10 -19 -30 -17q-21 3 -47 3
q-128 0 -213 -69t-102 -185zM224 270q10 71 53.5 116.5t106.5 45.5h5q17 0 21.5 -8t1.5 -16l-4 -9l-115 -245q-9 -19 -19.5 -21.5t-17.5 4.5l-6 7q-37 45 -26 126zM273 224l72 152q-59 -21 -71 -106q-4 -24 -1 -46zM313 140l116 245q9 19 19.5 21.5t17.5 -4.5l6 -8
q37 -45 26 -124q-10 -71 -54.5 -117t-106.5 -46h-5q-17 0 -21.5 8.5t-0.5 16.5zM377 163q58 23 71 107q3 24 1 45z" />
    <glyph glyph-name="ugrave" unicode="&#xf9;" horiz-adv-x="668" 
d="M50 199l49 345q2 11 11 18t18 7h202q11 0 17 -8t4 -17l-41 -288q-8 -62 39 -62q59 2 71 81l38 269q2 11 11 18t18 7h202q11 0 17 -8t4 -17l-78 -544q-1 -11 -10.5 -18t-18.5 -7h-202q-11 0 -17 8t-4 17l2 15q-66 -49 -149 -49q-96 0 -147 64.5t-36 168.5zM100 199
q-13 -85 26 -134t114 -49q97 0 158 78q14 16 24 13t15 -15l5 -11l-8 -56h152l71 494h-152l-35 -244q-8 -55 -42.5 -92.5t-85.5 -38.5q-45 0 -67 32t-15 80l38 263h-152zM232 699l-3 3t-5 7.5t-2.5 10.5t6.5 11t19 10l183 58q21 5 28 -11l81 -180l1 -1q0 -1 1 -3.5t1.5 -5
t0.5 -6t-0.5 -6.5t-2.5 -6t-5.5 -5t-9 -3.5t-13.5 -1.5h-148q-10 0 -16 7zM298 707l83 -87h94l-56 125z" />
    <glyph glyph-name="uacute" unicode="&#xfa;" horiz-adv-x="668" 
d="M50 199l49 345q2 11 11 18t18 7h202q11 0 17 -8t4 -17l-41 -288q-8 -62 39 -62q59 2 71 81l38 269q2 11 11 18t18 7h202q11 0 17 -8t4 -17l-78 -544q-1 -11 -10.5 -18t-18.5 -7h-202q-11 0 -17 8t-4 17l2 15q-66 -49 -149 -49q-96 0 -147 64.5t-36 168.5zM100 199
q-13 -85 26 -134t114 -49q97 0 158 78q14 16 24 13t15 -15l5 -11l-8 -56h152l71 494h-152l-35 -244q-8 -55 -42.5 -92.5t-85.5 -38.5q-45 0 -67 32t-15 80l38 263h-152zM297 608l133 180q13 16 31 11l167 -58q5 -1 9.5 -4t9.5 -13.5t-17 -24.5l-151 -122q-7 -7 -18 -7h-148
h-5t-9 1.5t-9.5 5t-2 12t9.5 19.5zM364 620h95l107 87l-109 38z" />
    <glyph glyph-name="ucircumflex" unicode="&#xfb;" horiz-adv-x="668" 
d="M50 199l49 345q2 11 11 18t18 7h202q11 0 17 -8t4 -17l-41 -288q-8 -62 39 -62q59 2 71 81l38 269q2 11 11 18t18 7h202q11 0 17 -8t4 -17l-78 -544q-1 -11 -10.5 -18t-18.5 -7h-202q-11 0 -17 8t-4 17l2 15q-66 -49 -149 -49q-96 0 -147 64.5t-36 168.5zM100 199
q-13 -85 26 -134t114 -49q97 0 158 78q14 16 24 13t15 -15l5 -11l-8 -56h152l71 494h-152l-35 -244q-8 -55 -42.5 -92.5t-85.5 -38.5q-45 0 -67 32t-15 80l38 263h-152zM204 623l139 157q10 10 22 10h156q12 0 18 -10l95 -157q1 -2 2 -4.5t2.5 -9.5t0 -12t-9 -9.5
t-21.5 -4.5h-139q-13 0 -19 11l-28 52l-43 -52q-8 -11 -22 -11h-139h-5t-9.5 2.5t-10 6t-1.5 12t12 19.5zM275 633h76l59 72q12 15 22 15t14 -8l5 -7l39 -72h75l-64 107h-131z" />
    <glyph glyph-name="udieresis" unicode="&#xfc;" horiz-adv-x="668" 
d="M50 199l49 345q2 11 11 18t18 7h202q11 0 17 -8t4 -17l-41 -288q-8 -62 39 -62q59 2 71 81l38 269q2 11 11 18t18 7h202q11 0 17 -8t4 -17l-78 -544q-1 -11 -10.5 -18t-18.5 -7h-202q-11 0 -17 8t-4 17l2 15q-66 -49 -149 -49q-96 0 -147 64.5t-36 168.5zM100 199
q-13 -85 26 -134t114 -49q97 0 158 78q14 16 24 13t15 -15l5 -11l-8 -56h152l71 494h-152l-35 -244q-8 -55 -42.5 -92.5t-85.5 -38.5q-45 0 -67 32t-15 80l38 263h-152zM217 696q7 48 43 79t84 31q47 0 74.5 -31t20.5 -79q-7 -47 -43 -79t-84 -32q-47 0 -74.5 32t-20.5 79z
M267 696q-4 -28 10.5 -44.5t42.5 -16.5q27 0 46 16.5t23 44.5q4 27 -10 43.5t-42 16.5t-46.5 -16.5t-23.5 -43.5zM419 696q7 48 43 79t84 31q47 0 74.5 -31t20.5 -79q-7 -47 -43 -79t-84 -32q-47 0 -74.5 32t-20.5 79zM469 696q-4 -28 10.5 -44.5t42.5 -16.5q27 0 46 16.5
t23 44.5q4 27 -10 43.5t-42 16.5t-46.5 -16.5t-23.5 -43.5z" />
    <glyph glyph-name="yacute" unicode="&#xfd;" horiz-adv-x="605" 
d="M-56 -130l104 135q5 8 14.5 12t23.5 -6q24 -25 53 -25q26 0 40 21l6 9l-146 518q-2 4 -3 10t5.5 15.5t25.5 9.5h207q17 0 21 -17l56 -261l117 260q7 18 26 18h201q0 -1 4 0t8.5 -1t8 -5t3.5 -10.5t-6 -17.5l-313 -590q-95 -173 -274 -173q-104 0 -181 65q-16 14 -1 33z
M-2 -136q59 -42 135 -42q148 0 223 141l295 556h-146l-141 -315q-8 -20 -20 -20t-20 10l-7 9l-68 316h-151l139 -494q2 -12 -4 -22l-13 -18q-31 -49 -88 -49q-35 0 -64 19zM271 608l133 180q13 16 31 11l167 -58q5 -1 9.5 -4t9.5 -13.5t-17 -24.5l-151 -122q-7 -7 -18 -7
h-148h-5t-9 1.5t-9.5 5t-2 12t9.5 19.5zM338 620h95l107 87l-109 38z" />
    <glyph glyph-name="thorn" unicode="&#xfe;" horiz-adv-x="688" 
d="M13 -194l135 936q1 11 10.5 18t18.5 7h202q10 0 16 -8t5 -17l-29 -204q58 38 129 38q125 0 189 -85.5t44 -221.5q-20 -135 -106 -218t-210 -83q-73 0 -123 38l-29 -200q-1 -11 -10.5 -18t-18.5 -7h-202q-11 0 -17 8t-4 17zM67 -169h152l33 232q3 21 15 25t22 -2l10 -7
q41 -61 126 -61q101 0 171 67.5t87 183.5q17 119 -35 188t-155 69q-80 0 -138 -61q-17 -15 -26.5 -11.5t-12.5 15.5l-4 12l34 236h-152zM282 274q9 62 49 104t96 42t83.5 -41.5t18.5 -104.5q-8 -63 -48 -104.5t-97 -41.5q-55 0 -82.5 42t-19.5 104zM332 274q-7 -46 10.5 -71
t49.5 -25q33 0 56.5 25t30.5 71t-10 71t-50 25q-31 0 -55.5 -25t-31.5 -71z" />
    <glyph glyph-name="ydieresis" unicode="&#xff;" horiz-adv-x="605" 
d="M-56 -130l104 135q5 8 14.5 12t23.5 -6q24 -25 53 -25q26 0 40 21l6 9l-146 518q-2 4 -3 10t5.5 15.5t25.5 9.5h207q17 0 21 -17l56 -261l117 260q7 18 26 18h201q0 -1 4 0t8.5 -1t8 -5t3.5 -10.5t-6 -17.5l-313 -590q-95 -173 -274 -173q-104 0 -181 65q-16 14 -1 33z
M-2 -136q59 -42 135 -42q148 0 223 141l295 556h-146l-141 -315q-8 -20 -20 -20t-20 10l-7 9l-68 316h-151l139 -494q2 -12 -4 -22l-13 -18q-31 -49 -88 -49q-35 0 -64 19zM191 696q7 48 43 79t84 31q47 0 74.5 -31t20.5 -79q-7 -47 -43 -79t-84 -32q-47 0 -74.5 32
t-20.5 79zM241 696q-4 -28 10.5 -44.5t42.5 -16.5q27 0 46 16.5t23 44.5q4 27 -10 43.5t-42 16.5t-46.5 -16.5t-23.5 -43.5zM393 696q7 48 43 79t84 31q47 0 74.5 -31t20.5 -79q-7 -47 -43 -79t-84 -32q-47 0 -74.5 32t-20.5 79zM443 696q-4 -28 10.5 -44.5t42.5 -16.5
q27 0 46 16.5t23 44.5q4 27 -10 43.5t-42 16.5t-46.5 -16.5t-23.5 -43.5z" />
    <glyph glyph-name="Amacron" unicode="&#x100;" horiz-adv-x="786" 
d="M-30 10l400 701q10 15 26 15h214q15 0 21 -15l187 -701q1 -1 1.5 -3.5t0.5 -8.5t-2 -10.5t-9.5 -8.5t-18.5 -4h-222q-17 0 -21 16l-21 96h-248l-50 -96q-8 -16 -26 -16h-214q0 1 -4 0t-8.5 1t-8.5 5t-3.5 10.5t6.5 18.5zM33 25h159l50 96q9 16 26 16h283q17 0 21 -16
l21 -96h167l-174 651h-181zM322 273l119 229q10 20 22 20t19 -10l6 -10l51 -229q4 -16 -3.5 -24.5t-16.5 -8.5l-9 -1h-170q-17 0 -21.5 8.5t-0.5 16.5zM337 785l19 133q1 11 10.5 18t18.5 7h290q11 0 17 -8t4 -17l-19 -133q-1 -10 -10.5 -17.5t-17.5 -7.5h-290q-11 0 -17 8
t-5 17zM384 289h98l-30 132zM391 810h240l12 83h-240z" />
    <glyph glyph-name="amacron" unicode="&#x101;" horiz-adv-x="607" 
d="M18 162q13 90 83 139t180 51h102q-9 24 -60 24q-69 0 -159 -37q-10 -4 -19.5 -0.5t-12.5 14.5l-30 134q-5 22 18 32q152 58 280 58q123 0 187.5 -59t49.5 -165l-51 -353q-1 -11 -10.5 -18t-18.5 -7h-198q-11 0 -17 8t-4 17v2q-60 -36 -139 -36q-95 0 -144 54t-37 142z
M68 162q-9 -68 26.5 -107t111.5 -39q95 0 148 59q16 16 25.5 12.5t13.5 -15.5l4 -12l-5 -35h148l47 328q12 83 -37.5 128.5t-156.5 45.5t-237 -45l20 -87q90 31 154 31q54 0 83 -25.5t22 -71.5v-2q-1 -9 -9 -17t-19 -8h-133q-186 -3 -206 -140zM211 177q5 36 31.5 56
t64.5 20h92q9 0 16 -7t6 -18l-7 -49q-3 -8 -4 -10q-19 -33 -53 -52t-72 -19t-59 21.5t-15 57.5zM224 628l20 133q1 10 10.5 17.5t17.5 7.5h290q11 0 17 -8t5 -17l-20 -133q-1 -11 -10 -18t-18 -7h-290q-11 0 -17 8t-5 17zM261 177q-2 -15 4 -22t27 -7q47 0 73 37l2 18h-67
q-23 0 -30 -5.5t-9 -20.5zM278 653h240l12 83h-240z" />
    <glyph glyph-name="Abreve" unicode="&#x102;" horiz-adv-x="786" 
d="M-30 10l400 701q10 15 26 15h214q15 0 21 -15l187 -701q1 -1 1.5 -3.5t0.5 -8.5t-2 -10.5t-9.5 -8.5t-18.5 -4h-222q-17 0 -21 16l-21 96h-248l-50 -96q-8 -16 -26 -16h-214q0 1 -4 0t-8.5 1t-8.5 5t-3.5 10.5t6.5 18.5zM33 25h159l50 96q9 16 26 16h283q17 0 21 -16
l21 -96h167l-174 651h-181zM322 273l119 229q10 20 22 20t19 -10l6 -10l51 -229q4 -16 -3.5 -24.5t-16.5 -8.5l-9 -1h-170q-17 0 -21.5 8.5t-0.5 16.5zM327 921q1 10 9 18t19 8h123q10 0 16.5 -7t5.5 -16q-1 -31 23 -31t31 31q2 10 10.5 16.5t17.5 6.5h123q11 0 17.5 -7
t4.5 -19q-16 -86 -79 -138.5t-149 -52.5q-85 0 -132.5 52.5t-39.5 138.5zM376 897q3 -55 37 -86t93 -31q60 0 103 30.5t61 86.5h-75q-11 -24 -32.5 -39t-47.5 -15t-42.5 15t-21.5 39h-75zM384 289h98l-30 132z" />
    <glyph glyph-name="abreve" unicode="&#x103;" horiz-adv-x="607" 
d="M18 162q13 90 83 139t180 51h102q-9 24 -60 24q-69 0 -159 -37q-10 -4 -19.5 -0.5t-12.5 14.5l-30 134q-5 22 18 32q152 58 280 58q123 0 187.5 -59t49.5 -165l-51 -353q-1 -11 -10.5 -18t-18.5 -7h-198q-11 0 -17 8t-4 17v2q-60 -36 -139 -36q-95 0 -144 54t-37 142z
M68 162q-9 -68 26.5 -107t111.5 -39q95 0 148 59q16 16 25.5 12.5t13.5 -15.5l4 -12l-5 -35h148l47 328q12 83 -37.5 128.5t-156.5 45.5t-237 -45l20 -87q90 31 154 31q54 0 83 -25.5t22 -71.5v-2q-1 -9 -9 -17t-19 -8h-133q-186 -3 -206 -140zM211 177q5 36 31.5 56
t64.5 20h92q9 0 16 -7t6 -18l-7 -49q-3 -8 -4 -10q-19 -33 -53 -52t-72 -19t-59 21.5t-15 57.5zM214 764q1 10 9 18t20 8h123q10 0 16 -7t5 -16q-1 -31 23 -31t32 31q2 10 10.5 16.5t17.5 6.5h123q10 0 16.5 -7t4.5 -19q-16 -86 -79 -138.5t-148 -52.5q-86 0 -133.5 52.5
t-39.5 138.5zM261 177q-2 -15 4 -22t27 -7q47 0 73 37l2 18h-67q-23 0 -30 -5.5t-9 -20.5zM264 740q2 -55 36 -86t94 -31t102.5 30.5t61.5 86.5h-75q-11 -24 -32.5 -39t-47.5 -15t-43 15t-22 39h-74z" />
    <glyph glyph-name="Aogonek" unicode="&#x104;" horiz-adv-x="786" 
d="M-30 10l400 701q10 15 26 15h214q15 0 21 -15l187 -701q1 -1 1.5 -3.5t0.5 -8.5t-2 -10.5t-9.5 -8.5t-18.5 -4h-46q-22 -26 -31 -43q5 5 7 8l2 2q1 2 2.5 3.5t4.5 3.5t5.5 3.5t6 2t6.5 -0.5t7 -3.5t7 -7.5l41 -59q9 -12 -1 -28q-59 -84 -148 -84q-45 0 -77.5 26.5
t-24.5 83.5q6 42 39 93h-22q-17 0 -21 16l-21 96h-247l-51 -96q-8 -16 -26 -16h-214q0 1 -4 0t-8.5 1t-8.5 5t-3.5 10.5t6.5 18.5zM33 25h159l51 96q9 16 26 16h282q17 0 21 -16l21 -96h49q21 0 25 -9.5t-3 -19.5l-7 -10q-49 -58 -56 -104q-9 -60 59 -60q52 0 90 44l-16 22
q-19 -17 -42 -17q-16 0 -25 8q-15 13 -11 36q4 33 60 99q9 11 22 11h22l-174 651h-181zM321 273l120 229q11 20 22.5 20t18.5 -10l6 -10l51 -229q4 -16 -3.5 -24.5t-16.5 -8.5l-9 -1h-171q-17 0 -21.5 8.5t-0.5 16.5zM383 289h99l-30 133z" />
    <glyph glyph-name="aogonek" unicode="&#x105;" horiz-adv-x="612" 
d="M18 162q13 90 83.5 139t181.5 51h104q-11 24 -62 24q-71 0 -161 -37q-10 -4 -19.5 0t-12.5 14l-30 134q-5 23 19 32q152 58 280 58q125 0 190 -59t50 -165l-51 -353q-1 -11 -10.5 -18t-18.5 -7h-30q-22 -26 -31 -43q5 5 7 8l1 2l3.5 3.5t4.5 3.5t5.5 3.5t6 2t6.5 -0.5
t7 -3.5t7 -7.5l42 -59q11 -14 -1 -28q-61 -84 -149 -84q-44 0 -77 26.5t-25 83.5q7 44 40 93h-15q-11 0 -17 8t-4 17v3q-58 -38 -141 -38q-96 0 -145.5 54.5t-37.5 142.5zM68 162q-9 -68 27 -107.5t113 -39.5q97 0 150 61q16 16 25.5 12.5t13.5 -15.5l4 -12l-5 -36h34
q21 0 25 -9.5t-3 -19.5l-7 -10q-50 -60 -57 -104q-9 -60 59 -60q50 0 90 44l-16 22q-21 -17 -42 -17q-13 0 -24 8q-15 14 -12 36q4 33 60 99q9 11 22 11h19l47 328q12 83 -38 128.5t-159 45.5q-106 0 -238 -45l20 -87q88 31 156 31q52 0 82 -24.5t26 -69.5v-1l-1 -4
q-1 -9 -9 -17t-19 -8h-135q-188 -3 -208 -140zM211 177q5 36 32 56t65 20h95q9 0 16 -7t6 -18l-7 -50q-3 -10 -4 -11q-20 -32 -55 -50.5t-72 -18.5q-38 0 -60 21.5t-16 57.5zM261 177q-2 -15 4.5 -22t28.5 -7q46 0 75 36l2 19h-70q-23 0 -30.5 -5.5t-9.5 -20.5z" />
    <glyph glyph-name="Cacute" unicode="&#x106;" horiz-adv-x="690" 
d="M45 352q23 164 153.5 272t302.5 108q86 0 163.5 -35.5t126.5 -96.5q12 -17 -4 -33l-141 -142q-23 -23 -38 1q-24 38 -62 60.5t-74 22.5q-61 0 -107.5 -43.5t-56.5 -111.5t24.5 -112t95.5 -44q34 0 77.5 20t81.5 53q8 8 18.5 8t17.5 -8l102 -128q6 -8 4 -18t-9 -16
q-70 -66 -160.5 -104.5t-175.5 -38.5q-170 0 -266.5 110t-72.5 276zM95 352q-21 -145 62.5 -240.5t233.5 -95.5q68 0 142.5 29.5t136.5 80.5l-74 93q-90 -71 -176 -71q-82 0 -128.5 59.5t-33.5 146.5t76.5 146t145.5 59q88 0 155 -80l101 103q-43 46 -108 73t-134 27
q-153 0 -266 -94t-133 -236zM381 765l133 180q12 17 31 11l166 -58q2 0 4.5 -1t7.5 -4.5t7 -8t-1.5 -12t-14.5 -16.5l-151 -122q-8 -7 -18 -7h-148h-5t-9 1.5t-9.5 5t-2 12t9.5 19.5zM448 777h94l108 87l-110 38z" />
    <glyph glyph-name="cacute" unicode="&#x107;" horiz-adv-x="562" 
d="M33 270q20 137 117.5 221.5t236.5 84.5q92 0 157.5 -41t93.5 -115q3 -9 -1.5 -19t-14.5 -14l-166 -76q-23 -10 -32 10q-17 41 -59 41q-28 0 -50 -23.5t-28 -67.5q-6 -46 8.5 -69.5t43.5 -23.5q44 0 69 45q15 24 36 12l146 -79q8 -5 10 -14.5t-4 -18.5
q-45 -74 -124 -114.5t-175 -40.5q-137 0 -210 83.5t-54 218.5zM83 270q-17 -116 43 -184t179 -68q154 0 235 105l-104 57q-41 -52 -105 -52q-52 0 -77.5 41t-16.5 102q9 60 46 100.5t89 40.5q58 0 89 -47l119 55q-55 106 -200 106q-120 0 -200 -69.5t-97 -186.5zM264 608
l133 180q13 16 31 11l167 -58q5 -1 9.5 -4t9.5 -13.5t-17 -24.5l-151 -122q-7 -7 -18 -7h-148h-5t-9 1.5t-9.5 5t-2 12t9.5 19.5zM331 620h95l107 87l-109 38z" />
    <glyph glyph-name="Ccircumflex" unicode="&#x108;" horiz-adv-x="690" 
d="M45 352q23 164 153.5 272t302.5 108q86 0 163.5 -35.5t126.5 -96.5q12 -17 -4 -33l-141 -142q-23 -23 -38 1q-24 38 -62 60.5t-74 22.5q-61 0 -107.5 -43.5t-56.5 -111.5t24.5 -112t95.5 -44q34 0 77.5 20t81.5 53q8 8 18.5 8t17.5 -8l102 -128q6 -8 4 -18t-9 -16
q-70 -66 -160.5 -104.5t-175.5 -38.5q-170 0 -266.5 110t-72.5 276zM95 352q-21 -145 62.5 -240.5t233.5 -95.5q68 0 142.5 29.5t136.5 80.5l-74 93q-90 -71 -176 -71q-82 0 -128.5 59.5t-33.5 146.5t76.5 146t145.5 59q88 0 155 -80l101 103q-43 46 -108 73t-134 27
q-153 0 -266 -94t-133 -236zM286 781l140 157q10 10 22 10h156q12 0 18 -10l95 -157q1 -2 2 -4.5t2.5 -9.5t0 -12t-9 -9.5t-21.5 -4.5h-139q-14 0 -19 11l-28 52l-43 -52q-9 -11 -22 -11h-139h-5t-10 2.5t-10 6t-1.5 12t11.5 19.5zM358 791h76l59 72q12 15 22.5 15t14.5 -8
l4 -7l38 -72h76l-64 107h-131z" />
    <glyph glyph-name="ccircumflex" unicode="&#x109;" horiz-adv-x="562" 
d="M33 270q20 137 117.5 221.5t236.5 84.5q92 0 157.5 -41t93.5 -115q3 -9 -1.5 -19t-14.5 -14l-166 -76q-23 -10 -32 10q-17 41 -59 41q-28 0 -50 -23.5t-28 -67.5q-6 -46 8.5 -69.5t43.5 -23.5q44 0 69 45q15 24 36 12l146 -79q8 -5 10 -14.5t-4 -18.5
q-45 -74 -124 -114.5t-175 -40.5q-137 0 -210 83.5t-54 218.5zM83 270q-17 -116 43 -184t179 -68q154 0 235 105l-104 57q-41 -52 -105 -52q-52 0 -77.5 41t-16.5 102q9 60 46 100.5t89 40.5q58 0 89 -47l119 55q-55 106 -200 106q-120 0 -200 -69.5t-97 -186.5zM171 623
l139 157q10 10 22 10h156q12 0 18 -10l95 -157q1 -2 2 -4.5t2.5 -9.5t0 -12t-9 -9.5t-21.5 -4.5h-139q-14 0 -19 11l-28 52l-43 -52q-8 -11 -22 -11h-139h-5t-9.5 2.5t-10 6t-1.5 12t12 19.5zM242 633h76l59 72q12 15 22.5 15t14.5 -8l4 -7l39 -72h75l-64 107h-131z" />
    <glyph glyph-name="Cdotaccent" unicode="&#x10a;" horiz-adv-x="690" 
d="M45 352q23 164 153.5 272t302.5 108q86 0 163.5 -35.5t126.5 -96.5q12 -17 -4 -33l-141 -142q-23 -23 -38 1q-24 38 -62 60.5t-74 22.5q-61 0 -107.5 -43.5t-56.5 -111.5t24.5 -112t95.5 -44q34 0 77.5 20t81.5 53q8 8 18.5 8t17.5 -8l102 -128q6 -8 4 -18t-9 -16
q-70 -66 -160.5 -104.5t-175.5 -38.5q-170 0 -266.5 110t-72.5 276zM95 352q-21 -145 62.5 -240.5t233.5 -95.5q68 0 142.5 29.5t136.5 80.5l-74 93q-90 -71 -176 -71q-82 0 -128.5 59.5t-33.5 146.5t76.5 146t145.5 59q88 0 155 -80l101 103q-43 46 -108 73t-134 27
q-153 0 -266 -94t-133 -236zM383 856q8 56 50.5 92.5t97.5 36.5q56 0 87 -37t23 -92q-7 -55 -49 -92t-98 -37q-55 0 -87 36.5t-24 92.5zM433 856q-5 -36 13.5 -57.5t54.5 -21.5t60.5 21.5t29.5 57.5t-13 57.5t-54 21.5t-61 -21.5t-30 -57.5z" />
    <glyph glyph-name="cdotaccent" unicode="&#x10b;" horiz-adv-x="562" 
d="M33 270q20 137 117.5 221.5t236.5 84.5q92 0 157.5 -41t93.5 -115q3 -9 -1.5 -19t-14.5 -14l-166 -76q-23 -10 -32 10q-17 41 -59 41q-28 0 -50 -23.5t-28 -67.5q-6 -46 8.5 -69.5t43.5 -23.5q44 0 69 45q15 24 36 12l146 -79q8 -5 10 -14.5t-4 -18.5
q-45 -74 -124 -114.5t-175 -40.5q-137 0 -210 83.5t-54 218.5zM83 270q-17 -116 43 -184t179 -68q154 0 235 105l-104 57q-41 -52 -105 -52q-52 0 -77.5 41t-16.5 102q9 60 46 100.5t89 40.5q58 0 89 -47l119 55q-55 106 -200 106q-120 0 -200 -69.5t-97 -186.5zM268 699
q7 55 49 92t98 37t87.5 -36.5t23.5 -92.5t-50.5 -92.5t-97.5 -36.5q-56 0 -87 37t-23 92zM318 699q-5 -36 13.5 -57.5t53.5 -21.5q36 0 61 21.5t30 57.5t-13.5 57.5t-54.5 21.5t-60.5 -21.5t-29.5 -57.5z" />
    <glyph glyph-name="Ccaron" unicode="&#x10c;" horiz-adv-x="690" 
d="M45 352q23 164 153.5 272t302.5 108q86 0 163.5 -35.5t126.5 -96.5q12 -17 -4 -33l-141 -142q-23 -23 -38 1q-24 38 -62 60.5t-74 22.5q-61 0 -107.5 -43.5t-56.5 -111.5t24.5 -112t95.5 -44q34 0 77.5 20t81.5 53q8 8 18.5 8t17.5 -8l102 -128q6 -8 4 -18t-9 -16
q-70 -66 -160.5 -104.5t-175.5 -38.5q-170 0 -266.5 110t-72.5 276zM95 352q-21 -145 62.5 -240.5t233.5 -95.5q68 0 142.5 29.5t136.5 80.5l-74 93q-90 -71 -176 -71q-82 0 -128.5 59.5t-33.5 146.5t76.5 146t145.5 59q88 0 155 -80l101 103q-43 46 -108 73t-134 27
q-153 0 -266 -94t-133 -236zM283 908q-1 2 -2.5 4.5t-2.5 9.5t0.5 12t9 9.5t21.5 4.5h151q12 0 19 -11l31 -60l49 60q9 11 23 11h151h5t9.5 -2.5t10 -6t1.5 -12t-12 -19.5l-152 -172q-10 -10 -21 -10h-170q-13 0 -19 10zM351 898l72 -122h145l108 122h-88l-65 -80
q-12 -15 -22.5 -15t-14.5 7l-5 8l-42 80h-88z" />
    <glyph glyph-name="ccaron" unicode="&#x10d;" horiz-adv-x="562" 
d="M33 270q20 137 117.5 221.5t236.5 84.5q92 0 157.5 -41t93.5 -115q3 -9 -1.5 -19t-14.5 -14l-166 -76q-23 -10 -32 10q-17 41 -59 41q-28 0 -50 -23.5t-28 -67.5q-6 -46 8.5 -69.5t43.5 -23.5q44 0 69 45q15 24 36 12l146 -79q8 -5 10 -14.5t-4 -18.5
q-45 -74 -124 -114.5t-175 -40.5q-137 0 -210 83.5t-54 218.5zM83 270q-17 -116 43 -184t179 -68q154 0 235 105l-104 57q-41 -52 -105 -52q-52 0 -77.5 41t-16.5 102q9 60 46 100.5t89 40.5q58 0 89 -47l119 55q-55 106 -200 106q-120 0 -200 -69.5t-97 -186.5zM166 750
q-1 2 -2 4.5t-2.5 9.5t0 12t9 9.5t21.5 4.5h151q13 0 19 -11l32 -60l48 60q9 11 23 11h151h5t9.5 -2.5t10 -6t1.5 -12t-12 -19.5l-152 -172q-8 -10 -21 -10h-170q-13 0 -19 10zM234 740l73 -122h144l108 122h-88l-65 -80q-12 -15 -22.5 -15t-15.5 7l-4 8l-42 80h-88z" />
    <glyph glyph-name="Dcaron" unicode="&#x10e;" horiz-adv-x="762" 
d="M34 0l101 701q1 11 10.5 18t18.5 7h307q179 0 275.5 -103.5t72.5 -271.5q-25 -169 -153.5 -272.5t-310.5 -103.5h-300q-11 0 -17 8t-4 17zM88 25h275q164 0 274 89t132 237q21 148 -61.5 236.5t-244.5 88.5h-282zM248 908q-1 2 -2.5 4.5t-2.5 9.5t0.5 12t9 9.5t21.5 4.5
h151q12 0 19 -11l31 -60l49 60q9 11 23 11h151h5t9.5 -2.5t10 -6t1.5 -12t-12 -19.5l-152 -172q-10 -10 -21 -10h-170q-13 0 -19 10zM265 163l54 374q2 9 10 17t19 8h95q86 0 131.5 -60t31.5 -153q-13 -92 -72.5 -151.5t-141.5 -59.5h-105q-9 0 -16 7t-6 18zM316 898
l72 -122h145l108 122h-88l-65 -80q-12 -15 -22.5 -15t-15.5 7l-4 8l-42 80h-88zM319 188h80q60 0 103.5 43t53.5 118q11 75 -22 119t-98 44h-70z" />
    <glyph glyph-name="dcaron" unicode="&#x10f;" horiz-adv-x="817" 
d="M34 275q19 134 105.5 217.5t209.5 83.5q74 0 123 -38l30 204q1 11 10.5 18t18.5 7h202q10 0 16 -8t5 -17l-107 -742q-1 -11 -10.5 -18t-18.5 -7h-202q-11 0 -17 8t-4 17l1 5q-59 -37 -130 -37q-125 0 -188.5 85t-43.5 222zM84 275q-17 -119 34.5 -188t155.5 -69
q81 0 138 60q17 15 26.5 11.5t12.5 -15.5l3 -12l-5 -37h152l99 692h-152l-34 -236q-3 -21 -14.5 -25t-21.5 2l-10 7q-42 61 -126 61q-101 0 -171.5 -67.5t-86.5 -183.5zM237 270q9 63 49 104.5t96 41.5t83.5 -42t18.5 -104q-9 -63 -48.5 -105t-95.5 -42q-57 0 -84.5 42
t-18.5 105zM287 270q-7 -47 10 -72t50 -25q32 0 56.5 25t30.5 72q7 46 -10 71t-49 25q-33 0 -57 -25t-31 -71zM691 414l56 101q-28 34 -20 79q7 51 46.5 85t90.5 34q48 0 78.5 -32t22.5 -86q-6 -43 -42 -88l-98 -117q-9 -11 -22 -11h-94q0 1 -4 0t-8.5 1t-8.5 5t-3.5 10.5
t6.5 18.5zM753 429h44l89 106q25 32 29 60q4 32 -12.5 50t-45.5 18q-31 0 -53 -19t-27 -50q-5 -34 18 -51q15 -12 5 -31z" />
    <glyph glyph-name="Dcroat" unicode="&#x110;" horiz-adv-x="762" 
d="M34 0l101 701q1 11 10.5 18t18.5 7h307q179 0 275.5 -103.5t72.5 -271.5q-25 -169 -153.5 -272.5t-310.5 -103.5h-300q-11 0 -17 8t-4 17zM88 25h275q164 0 274 89t132 237q21 148 -61.5 236.5t-244.5 88.5h-282zM265 163l54 374q2 9 10 17t19 8h95q86 0 131.5 -60
t31.5 -153q-13 -92 -72.5 -151.5t-141.5 -59.5h-105q-9 0 -16 7t-6 18zM298 785l19 133q1 11 10.5 18t18.5 7h290q11 0 17 -8t4 -17l-19 -133q-1 -10 -10.5 -17.5t-17.5 -7.5h-290q-11 0 -17 8t-5 17zM319 188h80q60 0 103.5 43t53.5 118q11 75 -22 119t-98 44h-70zM352 810
h240l12 83h-240z" />
    <glyph glyph-name="dcroat" unicode="&#x111;" horiz-adv-x="697" 
d="M34 275q19 134 105.5 217.5t209.5 83.5q29 0 54 -6q-2 4 -2 13l15 103q1 10 10.5 17.5t17.5 7.5h53l5 31q1 11 10.5 18t18.5 7h202q10 0 16 -8t5 -17l-5 -31h38q11 0 17 -8t5 -17l-15 -103q-1 -11 -10.5 -18t-18.5 -7h-38l-80 -558q-1 -11 -10.5 -18t-18.5 -7h-202
q-11 0 -17 8t-4 17l1 5q-59 -37 -130 -37q-125 0 -188.5 85t-43.5 222zM84 275q-17 -119 34.5 -188t155.5 -69q81 0 138 60q17 15 26.5 11.5t12.5 -15.5l3 -12l-5 -37h152l80 558q2 9 10 17t19 8h38l7 53h-38q-8 0 -15 7t-6 18l4 31h-152l-4 -31q-2 -9 -10 -17t-19 -8h-53
l-7 -53h53q8 0 15 -7t6 -18l-15 -102q-3 -21 -14.5 -25t-21.5 2l-10 7q-26 39 -69 52q-25 9 -57 9q-101 0 -171.5 -67.5t-86.5 -183.5zM237 270q9 63 49 104.5t96 41.5t83.5 -42t18.5 -104q-9 -63 -48.5 -105t-95.5 -42q-57 0 -84.5 42t-18.5 105zM287 270q-7 -47 10 -72
t50 -25q32 0 56.5 25t30.5 72q7 46 -10 71t-49 25q-33 0 -57 -25t-31 -71zM439 558q15 -8 33 -20l3 20h-36z" />
    <glyph glyph-name="Emacron" unicode="&#x112;" 
d="M34 0l101 701q1 11 10.5 18t18.5 7h573q11 0 17 -8t4 -17l-23 -160q-1 -11 -10.5 -18t-18.5 -7h-340l-8 -60h306q11 0 17 -8t4 -17l-23 -160q-1 -11 -10.5 -18t-18.5 -7h-306l-8 -61h350q11 0 17 -8t4 -17l-23 -160q-1 -11 -10.5 -18t-18.5 -7h-583q-11 0 -17 8t-4 17z
M88 25h533l15 110h-350q-8 0 -15 7t-6 18l16 111q2 9 10 17t19 8h306l16 110h-306q-9 0 -16 7t-6 18l16 110q2 9 10 17t19 8h340l15 110h-523zM290 785l19 133q1 11 10.5 18t18.5 7h290q11 0 17 -8t4 -17l-19 -133q-1 -10 -10.5 -17.5t-17.5 -7.5h-290q-11 0 -17 8t-5 17z
M344 810h240l12 83h-240z" />
    <glyph glyph-name="emacron" unicode="&#x113;" horiz-adv-x="609" 
d="M33 270q19 137 118 221.5t238 84.5q17 0 25 -1q140 -8 201.5 -104t30.5 -249q-2 -10 -10.5 -17t-17.5 -7h-109l78 -89q15 -16 -4 -35q-111 -106 -276 -106q-144 0 -219 83t-55 219zM83 270q-17 -116 44 -184t188 -68q125 0 217 73l-61 69q-63 -43 -125 -43
q-47 0 -77.5 26.5t-38.5 72.5q-2 15 6 23t13 8.5t10 0.5h342q20 131 -36.5 204.5t-182.5 73.5q-120 0 -201.5 -69t-97.5 -187zM222 628l20 133q1 10 10.5 17.5t17.5 7.5h290q11 0 17 -8t5 -17l-20 -133q-1 -11 -10 -18t-18 -7h-290q-11 0 -17 8t-5 17zM241 326
q16 49 50.5 81t79.5 32q48 0 73 -33.5t17 -83.5q-2 -9 -10 -17t-18 -8h-171q-29 0 -21 29zM276 653h240l12 83h-240zM291 198q19 -31 62 -31t90 31h-152zM302 347h110q-6 42 -48 42q-36 0 -62 -42z" />
    <glyph glyph-name="Ebreve" unicode="&#x114;" 
d="M34 0l101 701q1 11 10.5 18t18.5 7h573q11 0 17 -8t4 -17l-23 -160q-1 -11 -10.5 -18t-18.5 -7h-340l-8 -60h306q11 0 17 -8t4 -17l-23 -160q-1 -11 -10.5 -18t-18.5 -7h-306l-8 -61h350q11 0 17 -8t4 -17l-23 -160q-1 -11 -10.5 -18t-18.5 -7h-583q-11 0 -17 8t-4 17z
M88 25h533l15 110h-350q-8 0 -15 7t-6 18l16 111q2 9 10 17t19 8h306l16 110h-306q-9 0 -16 7t-6 18l16 110q2 9 10 17t19 8h340l15 110h-523zM280 921q1 10 9 18t19 8h123q10 0 16.5 -7t5.5 -16q-1 -31 23 -31t31 31q2 10 10.5 16.5t17.5 6.5h123q11 0 17.5 -7t4.5 -19
q-16 -86 -79 -138.5t-149 -52.5q-85 0 -132.5 52.5t-39.5 138.5zM329 897q3 -55 37 -86t93 -31q60 0 103 30.5t61 86.5h-75q-11 -24 -32.5 -39t-47.5 -15t-42.5 15t-21.5 39h-75z" />
    <glyph glyph-name="ebreve" unicode="&#x115;" horiz-adv-x="609" 
d="M33 270q19 137 118 221.5t238 84.5q17 0 25 -1q140 -8 201.5 -104t30.5 -249q-2 -10 -10.5 -17t-17.5 -7h-109l78 -89q15 -16 -4 -35q-111 -106 -276 -106q-144 0 -219 83t-55 219zM83 270q-17 -116 44 -184t188 -68q125 0 217 73l-61 69q-63 -43 -125 -43
q-47 0 -77.5 26.5t-38.5 72.5q-2 15 6 23t13 8.5t10 0.5h342q20 131 -36.5 204.5t-182.5 73.5q-120 0 -201.5 -69t-97.5 -187zM212 764q1 10 9 18t20 8h123q10 0 16 -7t5 -16q-1 -31 23 -31t32 31q2 10 10.5 16.5t17.5 6.5h123q10 0 16.5 -7t4.5 -19q-16 -86 -79 -138.5
t-148 -52.5q-86 0 -133.5 52.5t-39.5 138.5zM241 326q16 49 50.5 81t79.5 32q48 0 73 -33.5t17 -83.5q-2 -9 -10 -17t-18 -8h-171q-29 0 -21 29zM262 740q2 -55 36 -86t94 -31t102.5 30.5t61.5 86.5h-75q-11 -24 -32.5 -39t-47.5 -15t-43 15t-22 39h-74zM291 198
q19 -31 62 -31t90 31h-152zM302 347h110q-6 42 -48 42q-36 0 -62 -42z" />
    <glyph glyph-name="Edotaccent" unicode="&#x116;" 
d="M34 0l101 701q1 11 10.5 18t18.5 7h573q11 0 17 -8t4 -17l-23 -160q-1 -11 -10.5 -18t-18.5 -7h-340l-8 -60h306q11 0 17 -8t4 -17l-23 -160q-1 -11 -10.5 -18t-18.5 -7h-306l-8 -61h350q11 0 17 -8t4 -17l-23 -160q-1 -11 -10.5 -18t-18.5 -7h-583q-11 0 -17 8t-4 17z
M88 25h533l15 110h-350q-8 0 -15 7t-6 18l16 111q2 9 10 17t19 8h306l16 110h-306q-9 0 -16 7t-6 18l16 110q2 9 10 17t19 8h340l15 110h-523zM341 856q8 56 50.5 92.5t97.5 36.5q56 0 87 -37t23 -92q-7 -55 -49 -92t-98 -37q-55 0 -87 36.5t-24 92.5zM391 856
q-5 -36 13.5 -57.5t54.5 -21.5t60.5 21.5t29.5 57.5t-13 57.5t-54 21.5t-61 -21.5t-30 -57.5z" />
    <glyph glyph-name="edotaccent" unicode="&#x117;" horiz-adv-x="609" 
d="M33 270q19 137 118 221.5t238 84.5q17 0 25 -1q140 -8 201.5 -104t30.5 -249q-2 -10 -10.5 -17t-17.5 -7h-109l78 -89q15 -16 -4 -35q-111 -106 -276 -106q-144 0 -219 83t-55 219zM83 270q-17 -116 44 -184t188 -68q125 0 217 73l-61 69q-63 -43 -125 -43
q-47 0 -77.5 26.5t-38.5 72.5q-2 15 6 23t13 8.5t10 0.5h342q20 131 -36.5 204.5t-182.5 73.5q-120 0 -201.5 -69t-97.5 -187zM241 326q16 49 50.5 81t79.5 32q48 0 73 -33.5t17 -83.5q-2 -9 -10 -17t-18 -8h-171q-29 0 -21 29zM274 699q7 55 49 92t98 37t87.5 -36.5
t23.5 -92.5t-50.5 -92.5t-97.5 -36.5q-56 0 -87 37t-23 92zM291 198q19 -31 62 -31t90 31h-152zM302 347h110q-6 42 -48 42q-36 0 -62 -42zM324 699q-5 -36 13.5 -57.5t53.5 -21.5q36 0 61 21.5t30 57.5t-13.5 57.5t-54.5 21.5t-60.5 -21.5t-29.5 -57.5z" />
    <glyph glyph-name="Eogonek" unicode="&#x118;" horiz-adv-x="685" 
d="M34 0l101 701q1 11 10.5 18t18.5 7h575q11 0 17 -8t4 -17l-23 -159q-1 -10 -10.5 -17.5t-17.5 -7.5h-342l-9 -61h308q11 0 17 -8t4 -17l-23 -158q-1 -10 -10.5 -17.5t-17.5 -7.5h-308l-10 -65h352q11 0 17 -8t5 -17l-23 -158q-1 -11 -10.5 -18t-18.5 -7h-60
q-19 -24 -31 -44q2 2 3.5 4.5t3.5 4.5q1 1 2.5 3t6 6.5t9 6t11 -1.5t12.5 -11l42 -59q11 -14 -1 -28q-61 -84 -149 -84q-44 0 -76.5 26.5t-24.5 83.5q7 44 39 93h-372q-11 0 -17 8t-4 17zM88 25h390q21 0 25 -9.5t-3 -19.5l-7 -10q-48 -59 -55 -104q-9 -60 58 -60
q50 0 90 44l-15 22q-23 -17 -43 -17q-13 0 -24 8q-15 14 -12 36q4 31 59 99q9 11 23 11h49l15 108h-352q-9 0 -15.5 7t-5.5 18l16 115q2 9 10 17t19 8h308l16 108h-308q-9 0 -16 7t-6 18l16 111q2 9 10 17t19 8h342l15 109h-525z" />
    <glyph glyph-name="eogonek" unicode="&#x119;" horiz-adv-x="609" 
d="M33 270q20 136 117.5 220.5t238.5 85.5q18 0 27 -1q138 -8 199.5 -104.5t30.5 -248.5q-2 -10 -10.5 -17t-17.5 -7h-109l78 -89q7 -8 5.5 -18t-9.5 -17q-101 -98 -123 -144q1 2 4 5t4 5l2 2q1 2 2.5 3.5t4.5 3.5t5.5 3.5t6 2t6.5 -0.5t7 -3.5t7 -7.5l41 -59q10 -13 -1 -28
q-61 -84 -148 -84q-44 0 -76.5 27t-24.5 84q5 40 35 87q-22 -2 -29 -2q-144 0 -218.5 83t-54.5 219zM83 270q-17 -116 44 -184t187 -68q38 0 74 15q17 7 23 -2.5t3 -22.5l-2 -13q-55 -63 -62 -112q-9 -61 58 -61q50 0 90 44l-16 22q-19 -17 -42 -17q-18 0 -27.5 13.5
t-7.5 31.5q4 26 28.5 62t44.5 56.5t55 55.5l-62 70q-63 -43 -125 -43q-47 0 -77.5 26.5t-38.5 72.5q-2 15 6 23t13 8.5t10 0.5h342q20 132 -37 205.5t-182 72.5q-122 -1 -202 -70t-97 -186zM241 326q14 48 49 80.5t81 32.5q48 0 73 -33.5t17 -83.5q-2 -9 -10 -17t-18 -8
h-171q-15 0 -19.5 9.5t-1.5 19.5zM291 198q19 -31 62 -31t90 31h-152zM302 347h110q-6 42 -48 42q-39 0 -62 -42z" />
    <glyph glyph-name="Ecaron" unicode="&#x11a;" 
d="M34 0l101 701q1 11 10.5 18t18.5 7h573q11 0 17 -8t4 -17l-23 -160q-1 -11 -10.5 -18t-18.5 -7h-340l-8 -60h306q11 0 17 -8t4 -17l-23 -160q-1 -11 -10.5 -18t-18.5 -7h-306l-8 -61h350q11 0 17 -8t4 -17l-23 -160q-1 -11 -10.5 -18t-18.5 -7h-583q-11 0 -17 8t-4 17z
M88 25h533l15 110h-350q-8 0 -15 7t-6 18l16 111q2 9 10 17t19 8h306l16 110h-306q-9 0 -16 7t-6 18l16 110q2 9 10 17t19 8h340l15 110h-523zM241 908q-1 2 -2.5 4.5t-2.5 9.5t0.5 12t9 9.5t21.5 4.5h151q12 0 19 -11l31 -60l49 60q9 11 23 11h151h5t9.5 -2.5t10 -6
t1.5 -12t-12 -19.5l-152 -172q-10 -10 -21 -10h-170q-13 0 -19 10zM309 898l72 -122h145l108 122h-88l-65 -80q-12 -15 -22.5 -15t-14.5 7l-5 8l-42 80h-88z" />
    <glyph glyph-name="ecaron" unicode="&#x11b;" horiz-adv-x="609" 
d="M33 270q19 137 118 221.5t238 84.5q17 0 25 -1q140 -8 201.5 -104t30.5 -249q-2 -10 -10.5 -17t-17.5 -7h-109l78 -89q15 -16 -4 -35q-111 -106 -276 -106q-144 0 -219 83t-55 219zM83 270q-17 -116 44 -184t188 -68q125 0 217 73l-61 69q-63 -43 -125 -43
q-47 0 -77.5 26.5t-38.5 72.5q-2 15 6 23t13 8.5t10 0.5h342q20 131 -36.5 204.5t-182.5 73.5q-120 0 -201.5 -69t-97.5 -187zM173 750q-1 2 -2 4.5t-2.5 9.5t0 12t9 9.5t21.5 4.5h151q14 0 19 -11l32 -60l48 60q9 11 23 11h151h5t9.5 -2.5t10 -6t1.5 -12t-12 -19.5
l-152 -172q-8 -10 -21 -10h-170q-13 0 -19 10zM241 740l73 -122h144l108 122h-88l-65 -80q-12 -15 -22.5 -15t-14.5 7l-5 8l-42 80h-88zM241 326q16 49 50.5 81t79.5 32q48 0 73 -33.5t17 -83.5q-2 -9 -10 -17t-18 -8h-171q-29 0 -21 29zM291 198q19 -31 62 -31t90 31h-152z
M302 347h110q-6 42 -48 42q-36 0 -62 -42z" />
    <glyph glyph-name="Gcircumflex" unicode="&#x11c;" horiz-adv-x="740" 
d="M44 350q24 165 158.5 273.5t312.5 108.5q85 0 165 -30t132 -82q7 -7 6 -17t-8 -18l-139 -143q-20 -20 -37 -2q-28 31 -69.5 50t-82.5 19q-65 0 -115 -45t-60 -114q-10 -70 27.5 -115t103.5 -45q33 0 84 19l22 154q1 11 10.5 18t18.5 7h179q11 0 17 -8t4 -17l-40 -282
q-3 -13 -14 -21q-67 -42 -158 -68t-170 -26q-172 0 -271 109.5t-76 274.5zM94 350q-20 -144 65.5 -239t238.5 -95q67 0 147 22t140 57l35 243h-129l-21 -146q-4 -18 -18 -23q-69 -29 -121 -29q-87 0 -137 60t-37 150q13 89 79.5 149t153.5 60q93 0 166 -65l101 103
q-46 39 -113.5 62t-135.5 23q-160 0 -276.5 -94.5t-137.5 -237.5zM291 781l140 157q10 10 22 10h156q12 0 18 -10l95 -157q1 -2 2 -4.5t2.5 -9.5t0 -12t-9 -9.5t-21.5 -4.5h-139q-13 0 -19 11l-28 52l-43 -52q-9 -11 -22 -11h-139h-5t-10 2.5t-10 6t-1.5 12t11.5 19.5z
M363 791h76l59 72q12 15 22 15t14 -8l5 -7l38 -72h76l-64 107h-131z" />
    <glyph glyph-name="gcircumflex" unicode="&#x11d;" horiz-adv-x="651" 
d="M3 -121l87 136q17 25 37 10q63 -46 147 -46q89 0 100 61q-56 -34 -126 -34q-111 0 -170.5 80.5t-41.5 207.5q18 124 99 203t191 79q71 0 120 -35v3q2 11 11 18t18 7h200q11 0 17 -8t4 -17l-71 -497q-18 -126 -119.5 -200.5t-244.5 -74.5q-150 0 -254 75q-16 11 -4 32z
M58 -123q89 -55 210 -55q126 0 209 61t98 164l68 472h-150l-5 -34q-3 -21 -15 -25t-22 2l-10 7q-40 57 -122 57q-89 0 -153.5 -62.5t-79.5 -169.5q-15 -110 32.5 -174t136.5 -64q79 0 135 56q17 15 26.5 11.5t12.5 -15.5l3 -12l-8 -55q-7 -52 -51 -82t-106 -30
q-82 0 -151 40zM201 623l139 157q10 10 22 10h156q12 0 18 -10l95 -157q1 -2 2 -4.5t2.5 -9.5t0 -12t-9 -9.5t-21.5 -4.5h-139q-14 0 -19 11l-28 52l-43 -52q-8 -11 -22 -11h-139h-5t-9.5 2.5t-10 6t-1.5 12t12 19.5zM225 288q8 59 46 99t91 40q54 0 80 -39.5t18 -99.5
q-8 -59 -46.5 -98t-91.5 -39t-79 39t-18 98zM272 633h76l59 72q12 15 22.5 15t14.5 -8l4 -7l39 -72h75l-64 107h-131zM275 288q-7 -42 8.5 -64.5t45.5 -22.5t52 22.5t29 64.5q6 43 -9.5 66t-46.5 23q-29 0 -51 -23t-28 -66z" />
    <glyph glyph-name="Gbreve" unicode="&#x11e;" horiz-adv-x="740" 
d="M44 350q24 165 158.5 273.5t312.5 108.5q85 0 165 -30t132 -82q7 -7 6 -17t-8 -18l-139 -143q-20 -20 -37 -2q-28 31 -69.5 50t-82.5 19q-65 0 -115 -45t-60 -114q-10 -70 27.5 -115t103.5 -45q33 0 84 19l22 154q1 11 10.5 18t18.5 7h179q11 0 17 -8t4 -17l-40 -282
q-3 -13 -14 -21q-67 -42 -158 -68t-170 -26q-172 0 -271 109.5t-76 274.5zM94 350q-20 -144 65.5 -239t238.5 -95q67 0 147 22t140 57l35 243h-129l-21 -146q-4 -18 -18 -23q-69 -29 -121 -29q-87 0 -137 60t-37 150q13 89 79.5 149t153.5 60q93 0 166 -65l101 103
q-46 39 -113.5 62t-135.5 23q-160 0 -276.5 -94.5t-137.5 -237.5zM327 921q1 10 9 18t19 8h123q10 0 16.5 -7t5.5 -16q-1 -31 23 -31t31 31q2 10 10.5 16.5t17.5 6.5h123q11 0 17.5 -7t4.5 -19q-16 -86 -79 -138.5t-149 -52.5q-85 0 -132.5 52.5t-39.5 138.5zM376 897
q3 -55 37 -86t93 -31q60 0 103 30.5t61 86.5h-75q-11 -24 -32.5 -39t-47.5 -15t-42.5 15t-21.5 39h-75z" />
    <glyph glyph-name="gbreve" unicode="&#x11f;" horiz-adv-x="651" 
d="M3 -121l87 136q17 25 37 10q63 -46 147 -46q89 0 100 61q-56 -34 -126 -34q-111 0 -170.5 80.5t-41.5 207.5q18 124 99 203t191 79q71 0 120 -35v3q2 11 11 18t18 7h200q11 0 17 -8t4 -17l-71 -497q-18 -126 -119.5 -200.5t-244.5 -74.5q-150 0 -254 75q-16 11 -4 32z
M58 -123q89 -55 210 -55q126 0 209 61t98 164l68 472h-150l-5 -34q-3 -21 -15 -25t-22 2l-10 7q-40 57 -122 57q-89 0 -153.5 -62.5t-79.5 -169.5q-15 -110 32.5 -174t136.5 -64q79 0 135 56q17 15 26.5 11.5t12.5 -15.5l3 -12l-8 -55q-7 -52 -51 -82t-106 -30
q-82 0 -151 40zM225 288q8 59 46 99t91 40q54 0 80 -39.5t18 -99.5q-8 -59 -46.5 -98t-91.5 -39t-79 39t-18 98zM236 764q1 10 9 18t20 8h123q10 0 16 -7t5 -16q-1 -31 23 -31t32 31q2 10 10.5 16.5t17.5 6.5h123q10 0 16.5 -7t4.5 -19q-16 -86 -79 -138.5t-148 -52.5
q-86 0 -133.5 52.5t-39.5 138.5zM275 288q-7 -42 8.5 -64.5t45.5 -22.5t52 22.5t29 64.5q6 43 -9.5 66t-46.5 23q-29 0 -51 -23t-28 -66zM286 740q2 -55 36 -86t94 -31t102.5 30.5t61.5 86.5h-75q-11 -24 -32.5 -39t-47.5 -15t-43 15t-22 39h-74z" />
    <glyph glyph-name="Gdotaccent" unicode="&#x120;" horiz-adv-x="740" 
d="M44 350q24 165 158.5 273.5t312.5 108.5q85 0 165 -30t132 -82q7 -7 6 -17t-8 -18l-139 -143q-20 -20 -37 -2q-28 31 -69.5 50t-82.5 19q-65 0 -115 -45t-60 -114q-10 -70 27.5 -115t103.5 -45q33 0 84 19l22 154q1 11 10.5 18t18.5 7h179q11 0 17 -8t4 -17l-40 -282
q-3 -13 -14 -21q-67 -42 -158 -68t-170 -26q-172 0 -271 109.5t-76 274.5zM94 350q-20 -144 65.5 -239t238.5 -95q67 0 147 22t140 57l35 243h-129l-21 -146q-4 -18 -18 -23q-69 -29 -121 -29q-87 0 -137 60t-37 150q13 89 79.5 149t153.5 60q93 0 166 -65l101 103
q-46 39 -113.5 62t-135.5 23q-160 0 -276.5 -94.5t-137.5 -237.5zM388 856q8 56 50.5 92.5t97.5 36.5q56 0 87 -37t23 -92q-7 -55 -49 -92t-98 -37q-55 0 -87 36.5t-24 92.5zM438 856q-5 -36 13.5 -57.5t54.5 -21.5t60.5 21.5t29.5 57.5t-13 57.5t-54 21.5t-61 -21.5
t-30 -57.5z" />
    <glyph glyph-name="gdotaccent" unicode="&#x121;" horiz-adv-x="651" 
d="M3 -121l87 136q17 25 37 10q63 -46 147 -46q89 0 100 61q-56 -34 -126 -34q-111 0 -170.5 80.5t-41.5 207.5q18 124 99 203t191 79q71 0 120 -35v3q2 11 11 18t18 7h200q11 0 17 -8t4 -17l-71 -497q-18 -126 -119.5 -200.5t-244.5 -74.5q-150 0 -254 75q-16 11 -4 32z
M58 -123q89 -55 210 -55q126 0 209 61t98 164l68 472h-150l-5 -34q-3 -21 -15 -25t-22 2l-10 7q-40 57 -122 57q-89 0 -153.5 -62.5t-79.5 -169.5q-15 -110 32.5 -174t136.5 -64q79 0 135 56q17 15 26.5 11.5t12.5 -15.5l3 -12l-8 -55q-7 -52 -51 -82t-106 -30
q-82 0 -151 40zM225 288q8 59 46 99t91 40q54 0 80 -39.5t18 -99.5q-8 -59 -46.5 -98t-91.5 -39t-79 39t-18 98zM275 288q-7 -42 8.5 -64.5t45.5 -22.5t52 22.5t29 64.5q6 43 -9.5 66t-46.5 23q-29 0 -51 -23t-28 -66zM298 699q7 55 49 92t98 37t87.5 -36.5t23.5 -92.5
t-50.5 -92.5t-97.5 -36.5q-56 0 -87 37t-23 92zM348 699q-5 -36 13.5 -57.5t53.5 -21.5q36 0 61 21.5t30 57.5t-13.5 57.5t-54.5 21.5t-60.5 -21.5t-29.5 -57.5z" />
    <glyph glyph-name="Gcommaaccent" unicode="&#x122;" horiz-adv-x="740" 
d="M44 350q24 165 158.5 273.5t312.5 108.5q85 0 165 -30t132 -82q7 -7 6 -17t-8 -18l-139 -143q-20 -20 -37 -2q-28 31 -69.5 50t-82.5 19q-65 0 -115 -45t-60 -114q-10 -70 27.5 -115t103.5 -45q33 0 84 19l22 154q1 11 10.5 18t18.5 7h179q11 0 17 -8t4 -17l-40 -282
q-3 -13 -14 -21q-67 -42 -158 -68t-170 -26q-172 0 -271 109.5t-76 274.5zM94 350q-20 -144 65.5 -239t238.5 -95q67 0 147 22t140 57l35 243h-129l-21 -146q-4 -18 -18 -23q-69 -29 -121 -29q-87 0 -137 60t-37 150q13 89 79.5 149t153.5 60q93 0 166 -65l101 103
q-46 39 -113.5 62t-135.5 23q-160 0 -276.5 -94.5t-137.5 -237.5zM226 -311l56 101q-26 32 -20 80q7 51 46.5 84.5t90.5 33.5q48 0 78.5 -31.5t22.5 -85.5q-7 -50 -42 -88l-98 -117q-8 -11 -22 -11h-94q0 1 -4 0t-8.5 1t-8.5 5t-3.5 10.5t6.5 17.5zM289 -295h43l89 106
q25 30 29 60q5 32 -11.5 49.5t-46.5 17.5q-32 0 -54 -18.5t-26 -49.5q-5 -34 19 -53q14 -12 4 -29z" />
    <glyph glyph-name="gcommaaccent" unicode="&#x123;" horiz-adv-x="651" 
d="M3 -121l87 136q17 25 37 10q63 -46 147 -46q89 0 100 61q-56 -34 -126 -34q-111 0 -170.5 80.5t-41.5 207.5q18 124 99 203t191 79q71 0 120 -35v3q2 11 11 18t18 7h200q11 0 17 -8t4 -17l-71 -497q-18 -126 -119.5 -200.5t-244.5 -74.5q-150 0 -254 75q-16 11 -4 32z
M58 -123q89 -55 210 -55q126 0 209 61t98 164l68 472h-150l-5 -34q-3 -21 -15 -25t-22 2l-10 7q-40 57 -122 57q-89 0 -153.5 -62.5t-79.5 -169.5q-15 -110 32.5 -174t136.5 -64q79 0 135 56q17 15 26.5 11.5t12.5 -15.5l3 -12l-8 -55q-7 -52 -51 -82t-106 -30
q-82 0 -151 40zM225 288q8 59 46 99t91 40q54 0 80 -39.5t18 -99.5q-8 -59 -46.5 -98t-91.5 -39t-79 39t-18 98zM275 288q-7 -42 8.5 -64.5t45.5 -22.5t52 22.5t29 64.5q6 43 -9.5 66t-46.5 23q-29 0 -51 -23t-28 -66zM298 673q7 48 42 88l98 117q9 11 22 11h94q0 -1 4 0
t8.5 -1t8.5 -5t3.5 -10.5t-6.5 -17.5l-56 -101q26 -32 20 -80q-7 -51 -46.5 -84.5t-90.5 -33.5q-48 0 -78.5 31.5t-22.5 85.5zM348 673q-4 -33 12 -50t46 -17q32 0 53.5 18.5t26.5 49.5q5 33 -18 53q-14 12 -4 29l46 83h-44l-89 -106q-25 -30 -29 -60z" />
    <glyph glyph-name="Hcircumflex" unicode="&#x124;" horiz-adv-x="783" 
d="M34 0l101 701q1 11 10.5 18t18.5 7h208q11 0 17 -8t4 -17l-37 -254h199l37 254q1 11 10.5 18t18.5 7h208q11 0 17 -8t4 -17l-101 -701q-1 -11 -10.5 -18t-18.5 -7h-208q-11 0 -17 8t-4 17l34 236h-199l-34 -236q-1 -11 -10.5 -18t-18.5 -7h-208q-11 0 -17 8t-4 17zM88 25
h158l34 236q1 9 9 17t19 8h249q9 0 16 -7t6 -18l-34 -236h158l93 651h-158l-36 -254q-2 -9 -10 -17t-19 -8h-249q-9 0 -15.5 7t-5.5 18l36 254h-158zM298 780l140 157q10 10 21 10h156q13 0 19 -10l94 -157q1 -2 2.5 -4.5t3 -9.5t0 -12t-9 -9.5t-21.5 -4.5h-139
q-13 0 -20 11l-27 52l-43 -52q-9 -11 -22 -11h-139h-5t-10 2.5t-10 6t-1.5 12t11.5 19.5zM370 790h76l58 72q12 15 22.5 15t15.5 -7l4 -8l38 -72h76l-64 107h-131z" />
    <glyph glyph-name="hcircumflex" unicode="&#x125;" 
d="M41 0l107 742q1 11 10.5 18t18.5 7h202q10 0 16 -8t5 -17l-31 -215q68 50 155 50q98 0 150.5 -64.5t37.5 -167.5l-50 -345q-1 -11 -10.5 -18t-18.5 -7h-202q-11 0 -17 8t-4 17l41 287q10 63 -43 63q-31 -1 -51 -21.5t-25 -59.5l-39 -269q-1 -11 -10.5 -18t-18.5 -7h-202
q-11 0 -17 8t-4 17zM65 822l140 157q10 10 22 10h156q12 0 18 -10l94 -157q1 -2 2.5 -4.5t3 -9.5t0 -12t-9 -9.5t-21.5 -4.5h-139q-13 0 -19 11l-28 52l-43 -52q-9 -11 -22 -11h-139h-5t-10 2.5t-10 6t-1.5 12t11.5 19.5zM95 25h152l35 244q8 55 44 92.5t88 38.5
q47 0 71 -32t16 -81l-37 -262h152l46 320q12 85 -27.5 133.5t-117.5 48.5q-101 0 -164 -80q-14 -16 -24 -13t-15 14l-5 12l37 257h-152zM137 832h76l59 72q12 15 22 15t14 -7l5 -8l38 -72h76l-64 107h-131z" />
    <glyph glyph-name="Hbar" unicode="&#x126;" horiz-adv-x="875" 
d="M71 510l16 111q2 11 11 18t18 7h57l8 55q1 11 10.5 18t18.5 7h208q11 0 17 -8t4 -17l-8 -55h199l8 55q1 11 10.5 18t18.5 7h208q11 0 17 -8t4 -17l-8 -55h57q11 0 17 -8t4 -17l-16 -111q-1 -11 -10 -18t-18 -7h-57l-70 -485q-1 -11 -10.5 -18t-18.5 -7h-208q-11 0 -17 8
t-4 17l34 236h-199l-34 -236q-1 -11 -10.5 -18t-18.5 -7h-208q-11 0 -17 8t-4 17l70 485h-57q-11 0 -17 8t-5 17zM125 535h57q9 0 16 -7t5 -18l-69 -485h158l34 236q1 9 9 17t19 8h249q9 0 16 -7t6 -18l-34 -236h158l69 485q2 9 10 17t19 8h57l9 61h-57q-9 0 -16 7t-6 18
l8 55h-158l-8 -55q-1 -9 -9 -17t-19 -8h-249q-9 0 -16 7t-6 18l8 55h-158l-8 -55q-1 -9 -9 -17t-19 -8h-57zM349 422l12 88q2 9 10 17t19 8h249q9 0 16 -7t5 -18l-12 -88q-2 -9 -10 -17t-19 -8h-249q-9 0 -15.5 7t-5.5 18zM402 447h199l6 38h-199z" />
    <glyph glyph-name="hbar" unicode="&#x127;" horiz-adv-x="706" 
d="M41 0l78 544h-52q-11 0 -17 8t-4 17l16 108q1 11 10 18t18 7h52l6 40q1 11 10.5 18t18.5 7h202q10 0 16 -8t5 -17l-6 -40h81q11 0 17 -8t5 -17l-15 -103q21 3 42 3q98 0 150.5 -64.5t37.5 -167.5l-50 -345q-1 -11 -10.5 -18t-18.5 -7h-202q-11 0 -17 8t-4 17l41 287
q10 63 -43 63q-31 -1 -51 -21.5t-25 -59.5l-39 -269q-1 -11 -10.5 -18t-18.5 -7h-202q-11 0 -17 8t-4 17zM95 25h152l35 244q8 55 44 92.5t88 38.5q47 0 71 -32t16 -81l-37 -262h152l46 320q12 85 -27.5 133.5t-117.5 48.5q-37 0 -70 -11q-53 -19 -94 -69q-14 -16 -24 -13
t-15 14l-5 12l16 109q2 9 10 17t19 8h81l8 58h-81q-9 0 -16 7t-5 18l5 40h-152l-5 -40q-2 -9 -10 -17t-19 -8h-52l-8 -58h52q8 0 15 -7t6 -18zM369 527q23 15 26 17h-24z" />
    <glyph glyph-name="Itilde" unicode="&#x128;" horiz-adv-x="326" 
d="M34 0l101 701q1 11 10.5 18t18.5 7h208q11 0 17 -8t4 -17l-101 -701q-1 -11 -10.5 -18t-18.5 -7h-208q-11 0 -17 8t-4 17zM63 774q13 93 54.5 144.5t110.5 51.5q18 0 35.5 -4.5t29.5 -10.5t21 -12.5t14.5 -11t6.5 -4.5q3 10 4 15q1 10 10.5 17.5t17.5 7.5h122q11 0 17 -8
t5 -17q-13 -92 -54.5 -144t-110.5 -52q-22 0 -43 6.5t-32.5 14t-21 15t-10.5 7.5l-3 -15q-2 -11 -11 -18t-18 -7h-123q-11 0 -17 8t-4 17zM88 25h158l93 651h-158zM117 799h75q6 17 20.5 28.5t33.5 11.5q25 0 53.5 -21.5t54.5 -21.5q40 0 64.5 27t38.5 94h-74
q-11 -25 -31 -35q-10 -5 -25 -5q-25 0 -53.5 21.5t-52.5 21.5q-41 0 -66 -27t-38 -94z" />
    <glyph glyph-name="itilde" unicode="&#x129;" horiz-adv-x="324" 
d="M36 0l78 544q2 11 11 18t18 7h202q11 0 17 -8t4 -17l-78 -544q-1 -11 -10.5 -18t-18.5 -7h-202q-11 0 -17 8t-4 17zM39 617q13 93 54.5 144.5t110.5 51.5q18 0 35.5 -4.5t29.5 -10.5t21 -12.5t14.5 -11t6.5 -4.5q3 4 4 15t10.5 18t18.5 7h122q11 0 17 -8t4 -17
q-13 -93 -54 -144.5t-110 -51.5q-22 0 -43 6.5t-32.5 14t-21 15t-10.5 7.5q-2 -4 -4 -15q-1 -11 -10.5 -18t-18.5 -7h-123q-11 0 -17 8t-4 17zM90 25h152l71 494h-152zM93 642h75q6 17 21 28.5t33 11.5q26 0 54 -21.5t54 -21.5q41 0 65 27t38 94h-74q-9 -24 -30 -35
q-11 -5 -25 -5q-26 0 -54.5 21.5t-52.5 21.5q-41 0 -65.5 -27t-38.5 -94z" />
    <glyph glyph-name="Imacron" unicode="&#x12a;" horiz-adv-x="326" 
d="M34 0l101 701q1 11 10.5 18t18.5 7h208q11 0 17 -8t4 -17l-101 -701q-1 -11 -10.5 -18t-18.5 -7h-208q-11 0 -17 8t-4 17zM88 25h158l93 651h-158zM106 785l19 133q1 11 10.5 18t18.5 7h290q11 0 17 -8t4 -17l-19 -133q-1 -10 -10.5 -17.5t-17.5 -7.5h-290q-11 0 -17 8
t-5 17zM160 810h240l12 83h-240z" />
    <glyph glyph-name="imacron" unicode="&#x12b;" horiz-adv-x="324" 
d="M36 0l78 544q2 11 11 18t18 7h202q11 0 17 -8t4 -17l-78 -544q-1 -11 -10.5 -18t-18.5 -7h-202q-11 0 -17 8t-4 17zM82 628l20 133q1 10 10.5 17.5t17.5 7.5h290q11 0 17 -8t5 -17l-20 -133q-1 -11 -10 -18t-18 -7h-290q-11 0 -17 8t-5 17zM90 25h152l71 494h-152z
M136 653h240l12 83h-240z" />
    <glyph glyph-name="Ibreve" unicode="&#x12c;" horiz-adv-x="326" 
d="M34 0l101 701q1 11 10.5 18t18.5 7h208q11 0 17 -8t4 -17l-101 -701q-1 -11 -10.5 -18t-18.5 -7h-208q-11 0 -17 8t-4 17zM88 25h158l93 651h-158zM96 921q1 10 9 18t19 8h123q10 0 16.5 -7t5.5 -16q-1 -31 23 -31t31 31q2 10 10.5 16.5t17.5 6.5h123q11 0 17.5 -7
t4.5 -19q-16 -86 -79 -138.5t-149 -52.5q-85 0 -132.5 52.5t-39.5 138.5zM145 897q3 -55 37 -86t93 -31q60 0 103 30.5t61 86.5h-75q-11 -24 -32.5 -39t-47.5 -15t-42.5 15t-21.5 39h-75z" />
    <glyph glyph-name="ibreve" unicode="&#x12d;" horiz-adv-x="324" 
d="M36 0l78 544q2 11 11 18t18 7h202q11 0 17 -8t4 -17l-78 -544q-1 -11 -10.5 -18t-18.5 -7h-202q-11 0 -17 8t-4 17zM73 764q1 10 9 18t20 8h123q10 0 16 -7t5 -16q-1 -31 23 -31t32 31q2 10 10.5 16.5t17.5 6.5h123q10 0 16.5 -7t4.5 -19q-16 -86 -79 -138.5t-148 -52.5
q-86 0 -133.5 52.5t-39.5 138.5zM90 25h152l71 494h-152zM123 740q2 -55 36 -86t94 -31t102.5 30.5t61.5 86.5h-75q-11 -24 -32.5 -39t-47.5 -15t-43 15t-22 39h-74z" />
    <glyph glyph-name="Iogonek" unicode="&#x12e;" horiz-adv-x="326" 
d="M34 0l101 701q1 11 10.5 18t18.5 7h208q11 0 17 -8t4 -17l-101 -701q-1 -11 -10.5 -18t-18.5 -7h-31q-22 -26 -31 -43q5 5 7 8l2 2q1 2 2.5 3.5t4.5 3.5t5.5 3.5t6 2t6.5 -0.5t7 -3.5t7 -7.5l42 -59q11 -14 -1 -28q-61 -84 -149 -84q-45 0 -77.5 26.5t-24.5 83.5
q6 42 39 93h-23q-11 0 -17 8t-4 17zM88 25h42q21 0 25 -9.5t-3 -19.5l-7 -10q-49 -58 -56 -104q-9 -60 59 -60q50 0 90 44l-16 22q-21 -17 -43 -17q-17 0 -27.5 13t-7.5 31q4 33 60 99q9 11 22 11h20l93 651h-158z" />
    <glyph glyph-name="iogonek" unicode="&#x12f;" horiz-adv-x="302" 
d="M21 -118q6 42 39 93h-14q-11 0 -17 8t-4 17l78 544q2 11 11 18t18 7h202q11 0 17 -8t4 -17l-78 -544q-1 -11 -10.5 -18t-18.5 -7h-35q-20 -26 -31 -44q6 6 8 9l2 2q1 2 2.5 3.5t4.5 3.5t5.5 3.5t6 2t6.5 -0.5t7 -3.5t7 -7.5l41 -59q10 -13 -1 -28q-61 -84 -149 -84
q-44 0 -76.5 26.5t-24.5 83.5zM71 -118q-9 -60 58 -60q51 0 91 44l-16 22q-21 -17 -43 -17q-15 0 -25 9q-14 14 -10 35q5 37 59 99q9 11 22 11h24l71 494h-152l-71 -494h33q21 0 25 -9.5t-3 -19.5l-7 -10q-49 -58 -56 -104zM123 699q7 56 49.5 92.5t98.5 36.5t87.5 -36.5
t23.5 -92.5t-50.5 -92.5t-97.5 -36.5q-56 0 -87.5 36.5t-23.5 92.5zM173 699q-5 -35 13.5 -57t54.5 -22t61 21.5t30 57.5t-13.5 57.5t-54.5 21.5t-61 -22t-30 -57z" />
    <glyph glyph-name="Idotaccent" unicode="&#x130;" horiz-adv-x="326" 
d="M34 0l101 701q1 11 10.5 18t18.5 7h208q11 0 17 -8t4 -17l-101 -701q-1 -11 -10.5 -18t-18.5 -7h-208q-11 0 -17 8t-4 17zM88 25h158l93 651h-158zM157 856q8 56 50.5 92.5t97.5 36.5q56 0 87 -37t23 -92q-7 -55 -49 -92t-98 -37q-55 0 -87 36.5t-24 92.5zM207 856
q-5 -36 13.5 -57.5t54.5 -21.5t60.5 21.5t29.5 57.5t-13 57.5t-54 21.5t-61 -21.5t-30 -57.5z" />
    <glyph glyph-name="dotlessi" unicode="&#x131;" horiz-adv-x="324" 
d="M36 0l78 544q2 11 11 18t18 7h202q11 0 17 -8t4 -17l-78 -544q-1 -11 -10.5 -18t-18.5 -7h-202q-11 0 -17 8t-4 17zM90 25h152l71 494h-152z" />
    <glyph glyph-name="IJ" unicode="&#x132;" horiz-adv-x="880" 
d="M34 0l101 701q1 11 10.5 18t18.5 7h208q11 0 17 -8t4 -17l-101 -701q-1 -11 -10.5 -18t-18.5 -7h-208q-11 0 -17 8t-4 17zM88 25h158l93 651h-158zM314 91q-11 14 2 31l115 137q21 25 39 4q29 -35 62 -53.5t57 -18.5q19 0 29 10t14 36l39 273h-213q-10 0 -16 8t-5 17
l24 166q1 11 10.5 18t18.5 7h448q11 0 17 -8t4 -17l-68 -469q-18 -124 -104.5 -195t-213.5 -71q-164 0 -259 125zM367 110q81 -94 213 -94q109 0 177.5 56t83.5 160l64 444h-398l-16 -116h213q8 0 15 -7t6 -18l-43 -298q-6 -43 -33.5 -69.5t-67.5 -26.5q-67 0 -133 66z" />
    <glyph glyph-name="ij" unicode="&#x133;" horiz-adv-x="659" 
d="M36 0l78 544q2 11 11 18t18 7h202q11 0 17 -8t4 -17l-78 -544q-1 -11 -10.5 -18t-18.5 -7h-202q-11 0 -17 8t-4 17zM90 25h152l71 494h-152zM135 699q7 55 49 92t98 37t87.5 -36.5t23.5 -92.5t-50.5 -92.5t-97.5 -36.5q-56 0 -87 37t-23 92zM185 699q-5 -36 13.5 -57.5
t53.5 -21.5q36 0 61 21.5t30 57.5t-13.5 57.5t-54.5 21.5t-60.5 -21.5t-29.5 -57.5zM189 -160l67 140q16 27 38 14q22 -14 44 -14q14 0 19.5 5t7.5 22l77 537q2 11 11 18t18 7h202q11 0 17 -8t4 -17l-80 -561q-15 -98 -88.5 -154.5t-175.5 -55.5q-91 0 -153 37q-18 10 -8 30
zM244 -155q47 -22 114 -22q84 -1 139.5 42t66.5 118l77 536h-152l-74 -512q-5 -34 -28.5 -55.5t-55.5 -21.5q-20 0 -42 8zM454 699q8 56 52.5 92.5t102.5 36.5q59 0 93 -36.5t26 -92.5q-8 -57 -52.5 -93t-103.5 -36t-92.5 36t-25.5 93zM504 699q-5 -35 15 -57t60 -22t67 22
t32 57t-15.5 57t-60.5 22t-66.5 -22t-31.5 -57z" />
    <glyph glyph-name="Jcircumflex" unicode="&#x134;" horiz-adv-x="554" 
d="M-12 91q-11 14 2 31l115 137q21 25 39 4q29 -35 62 -53.5t57 -18.5q19 0 29 10t14 36l39 273h-213q-10 0 -16 8t-5 17l24 166q1 11 10.5 18t18.5 7h448q11 0 17 -8t4 -17l-68 -469q-18 -124 -104.5 -195t-213.5 -71q-164 0 -259 125zM41 110q81 -94 213 -94
q109 0 177.5 56t83.5 160l64 444h-398l-16 -116h213q8 0 15 -7t6 -18l-43 -298q-6 -43 -33.5 -69.5t-67.5 -26.5q-67 0 -133 66zM177 781l140 157q10 10 22 10h156q12 0 18 -10l95 -157q1 -2 2 -4.5t2.5 -9.5t0 -12t-9 -9.5t-21.5 -4.5h-139q-13 0 -19 11l-28 52l-43 -52
q-9 -11 -22 -11h-139h-5t-10 2.5t-10 6t-1.5 12t11.5 19.5zM249 791h76l59 72q12 15 22 15t14 -8l5 -7l38 -72h76l-64 107h-131z" />
    <glyph glyph-name="jcircumflex" unicode="&#x135;" horiz-adv-x="325" 
d="M-136 -160l65 139q14 28 38 14q23 -13 46 -13q14 -1 19.5 5t9.5 27l76 532q2 11 11 18t18 7h202q11 0 17 -8t4 -17l-81 -562q-13 -96 -85.5 -153t-175.5 -56q-91 0 -156 37q-7 4 -9.5 13.5t1.5 16.5zM-81 -155q49 -22 117 -22q86 -1 139 41.5t64 117.5l78 537h-152
l-73 -507q-5 -37 -29 -60t-59 -22q-21 0 -42 7zM33 623l139 157q10 10 22 10h156q12 0 18 -10l95 -157q1 -2 2 -4.5t2.5 -9.5t0 -12t-9 -9.5t-21.5 -4.5h-139q-14 0 -19 11l-28 52l-43 -52q-8 -11 -22 -11h-139h-5t-9.5 2.5t-10 6t-1.5 12t12 19.5zM104 633h76l59 72
q12 15 22.5 15t14.5 -8l4 -7l39 -72h75l-64 107h-131z" />
    <glyph glyph-name="Kcommaaccent" unicode="&#x136;" horiz-adv-x="761" 
d="M34 0l101 701q1 11 10.5 18t18.5 7h208q11 0 17 -8t4 -17l-29 -203l223 219q7 9 20 9h240q2 0 5 -0.5t10 -3.5t10 -7t0.5 -12.5t-13.5 -18.5l-280 -270l202 -400q1 -2 2 -4.5t2.5 -9t-0.5 -12t-9.5 -9.5t-21.5 -4h-249q-14 0 -19 12l-112 228l-59 -57l-23 -158
q-1 -11 -10.5 -18t-18.5 -7h-208q-11 0 -17 8t-4 17zM88 25h158l20 143q2 10 9 17l92 88q12 13 21.5 10.5t13 -6.5t4.5 -8l120 -244h190l-191 377q-8 16 7 31l252 243h-173l-265 -261q-18 -16 -27.5 -12.5t-12.5 15.5l-2 13l35 245h-158zM201 -311l56 101q-26 32 -20 80
q7 51 46.5 84.5t90.5 33.5q48 0 78.5 -31.5t22.5 -85.5q-7 -50 -42 -88l-98 -117q-8 -11 -22 -11h-94q0 1 -4 0t-8.5 1t-8.5 5t-3.5 10.5t6.5 17.5zM264 -295h43l89 106q25 30 29 60q5 32 -11.5 49.5t-46.5 17.5q-32 0 -54 -18.5t-26 -49.5q-5 -34 19 -53q14 -12 4 -29z" />
    <glyph glyph-name="kcommaaccent" unicode="&#x137;" horiz-adv-x="648" 
d="M-29 -199l48 82q7 12 21 15q-25 10 -9 35l28 42q-20 4 -18 25l107 742q1 11 10.5 18t18.5 7h202q10 0 16 -8t5 -17l-43 -297l123 116q10 8 20 8h228q2 0 5 -0.5t10 -3.5t10 -7.5t0.5 -12.5t-13.5 -18l-214 -196l144 -318v-1q1 -1 2 -3.5t1.5 -5t1 -6t-0.5 -6.5t-3 -6
t-5.5 -5t-9 -3.5t-13.5 -1.5h-239q-14 0 -20 13l-60 159l-11 -11l-20 -136q-1 -11 -10.5 -18t-18.5 -7h-38l-9 -13q53 -33 44 -93q-9 -62 -59.5 -98.5t-119.5 -36.5q-59 0 -106 36q-15 12 -5 31zM26 -199q34 -17 63 -17q53 0 85 23t37 62q2 18 -8.5 34.5t-32.5 22.5
q-27 8 -9 36l34 50q9 13 24 13h28l17 121q2 12 9 17l48 43q15 12 23.5 11t11.5 -9l4 -7l67 -176h179l-134 296q-7 16 7 30l184 168h-159l-165 -155q-18 -15 -27.5 -11.5t-11.5 15.5l-2 13l48 336h-152l-99 -692h13q20 0 24 -9.5t-2 -18.5l-5 -9l-26 -38q25 -2 41 -17.5
t12 -41.5q-3 -28 -25 -45.5t-50 -17.5q-16 0 -31 7zM56 -103q15 -19 28 -19q18 0 18 11v1q1 2 0.5 3.5t-1.5 3t-5 2.5t-11 1q-15 0 -29 -3z" />
    <glyph glyph-name="kgreenlandic" unicode="&#x138;" horiz-adv-x="641" 
d="M36 0l78 544q2 11 11 18t18 7h202q11 0 17 -8t4 -17l-14 -98l121 115q10 8 20 8h229q2 0 5 -0.5t10 -3.5t10 -7.5t0.5 -12.5t-13.5 -18l-214 -196l143 -318l1 -1q0 -1 1 -3.5t1.5 -5t0.5 -6t-0.5 -6.5t-2.5 -6t-5.5 -5t-9 -3.5t-13.5 -1.5h-239q-14 0 -20 13l-59 158
l-10 -9l-20 -137q-1 -11 -10.5 -18t-18.5 -7h-202q-11 0 -17 8t-4 17zM90 25h152l17 122q2 12 10 17l46 41q15 12 23.5 11t11.5 -8l4 -8l66 -175h180l-134 296q-7 16 7 30l184 168h-160l-163 -154q-18 -15 -27.5 -11.5t-11.5 16.5l-2 12l20 137h-152z" />
    <glyph glyph-name="Lacute" unicode="&#x139;" horiz-adv-x="574" 
d="M34 0l101 701q1 11 10.5 18t18.5 7h208q11 0 17 -8t4 -17l-72 -502h269q11 0 17 -8t4 -17l-25 -174q-1 -11 -10.5 -18t-18.5 -7h-502q-11 0 -17 8t-4 17zM88 25h452l17 124h-269q-8 0 -15 7t-6 18l72 502h-158zM149 765l133 180q12 17 31 11l166 -58q2 0 4.5 -1t7.5 -4.5
t7 -8t-1.5 -12t-14.5 -16.5l-151 -122q-8 -7 -18 -7h-148h-5t-9 1.5t-9.5 5t-2 12t9.5 19.5zM216 777h94l108 87l-110 38z" />
    <glyph glyph-name="lacute" unicode="&#x13a;" horiz-adv-x="335" 
d="M41 0l107 742q1 11 10.5 18t18.5 7h202q10 0 16 -8t5 -17l-107 -742q-1 -11 -10.5 -18t-18.5 -7h-202q-11 0 -17 8t-4 17zM95 25h152l99 692h-152zM165 806l133 180q12 17 30 11l167 -58q2 0 4.5 -1t7.5 -4.5t7 -8t-1.5 -12t-14.5 -16.5l-152 -122q-7 -7 -17 -7h-148h-5
t-9 1.5t-9.5 5t-2 12t9.5 19.5zM232 818h94l108 87l-110 38z" />
    <glyph glyph-name="Lcommaaccent" unicode="&#x13b;" horiz-adv-x="574" 
d="M34 0l101 701q1 11 10.5 18t18.5 7h208q11 0 17 -8t4 -17l-72 -502h269q11 0 17 -8t4 -17l-25 -174q-1 -11 -10.5 -18t-18.5 -7h-502q-11 0 -17 8t-4 17zM88 25h452l17 124h-269q-8 0 -15 7t-6 18l72 502h-158zM124 -311l56 101q-26 32 -20 80q7 51 46.5 84.5t90.5 33.5
q48 0 78.5 -31.5t22.5 -85.5q-7 -50 -42 -88l-98 -117q-8 -11 -22 -11h-94q0 1 -4 0t-8.5 1t-8.5 5t-3.5 10.5t6.5 17.5zM187 -295h43l89 106q25 30 29 60q5 32 -11.5 49.5t-46.5 17.5q-32 0 -54 -18.5t-26 -49.5q-5 -34 19 -53q14 -12 4 -29z" />
    <glyph glyph-name="lcommaaccent" unicode="&#x13c;" horiz-adv-x="335" 
d="M0 -311l56 101q-26 32 -20 80q7 51 46.5 84.5t90.5 33.5q48 0 78.5 -31.5t22.5 -85.5q-7 -50 -42 -88l-98 -117q-8 -11 -22 -11h-94q0 1 -4 0t-8.5 1t-8.5 5t-3.5 10.5t6.5 17.5zM41 0l107 742q1 11 10.5 18t18.5 7h202q10 0 16 -8t5 -17l-107 -742q-1 -11 -10.5 -18
t-18.5 -7h-202q-11 0 -17 8t-4 17zM63 -295h43l89 106q25 30 29 60q5 32 -11.5 49.5t-46.5 17.5q-32 0 -54 -18.5t-26 -49.5q-5 -34 19 -53q14 -12 4 -29zM95 25h152l99 692h-152z" />
    <glyph glyph-name="Lcaron" unicode="&#x13d;" horiz-adv-x="574" 
d="M34 0l101 701q1 11 10.5 18t18.5 7h208q11 0 17 -8t4 -17l-72 -502h269q11 0 17 -8t4 -17l-25 -174q-1 -11 -10.5 -18t-18.5 -7h-502q-11 0 -17 8t-4 17zM88 25h452l17 124h-269q-8 0 -15 7t-6 18l72 502h-158zM385 395l56 101q-26 32 -20 79q7 52 46.5 85.5t90.5 33.5
q48 0 78.5 -32t22.5 -86q-6 -43 -42 -88l-98 -117q-9 -11 -22 -11h-94q0 1 -4 0t-8.5 1t-8.5 5t-3.5 10.5t6.5 18.5zM448 410h43l89 106q25 29 29 60q5 32 -12 50t-46 18q-31 0 -53 -19t-27 -50q-5 -33 19 -51q14 -12 4 -31z" />
    <glyph glyph-name="lcaron" unicode="&#x13e;" horiz-adv-x="444" 
d="M41 0l107 742q1 11 10.5 18t18.5 7h202q10 0 16 -8t5 -17l-107 -742q-1 -11 -10.5 -18t-18.5 -7h-202q-11 0 -17 8t-4 17zM95 25h152l99 692h-152zM318 399l57 101q-27 33 -21 79q7 51 47 85t91 34q48 0 78 -32t23 -86q-7 -45 -43 -88l-97 -117q-9 -11 -23 -11h-94
q0 1 -4 0t-8.5 1t-8.5 5t-3.5 10.5t6.5 18.5zM381 414h44l88 106q24 29 30 60q4 33 -12.5 50.5t-46.5 17.5q-31 0 -53 -19t-27 -50q-5 -33 19 -51q15 -12 5 -31z" />
    <glyph glyph-name="Ldot" unicode="&#x13f;" horiz-adv-x="574" 
d="M34 0l101 701q1 11 10.5 18t18.5 7h208q11 0 17 -8t4 -17l-72 -502h269q11 0 17 -8t4 -17l-25 -174q-1 -11 -10.5 -18t-18.5 -7h-502q-11 0 -17 8t-4 17zM88 25h452l17 124h-269q-8 0 -15 7t-6 18l72 502h-158zM375 490q7 50 45.5 84t89.5 34t80 -34t22 -84
q-7 -52 -46.5 -85.5t-90.5 -33.5q-50 0 -78.5 33.5t-21.5 85.5zM425 490q-5 -32 11 -50.5t47 -18.5q32 0 53 18.5t26 50.5q4 31 -12.5 49.5t-47.5 18.5q-30 0 -51.5 -18.5t-25.5 -49.5z" />
    <glyph glyph-name="ldot" unicode="&#x140;" horiz-adv-x="430" 
d="M41 0l107 742q1 11 10.5 18t18.5 7h202q10 0 16 -8t5 -17l-107 -742q-1 -11 -10.5 -18t-18.5 -7h-202q-11 0 -17 8t-4 17zM95 25h152l99 692h-152zM306 313q8 52 46 85.5t90 33.5q51 0 79.5 -33.5t21.5 -85.5q-8 -51 -46 -84.5t-89 -33.5q-52 0 -81 33.5t-21 84.5z
M356 313q-5 -32 11 -50t48 -18t53 18.5t25 49.5q4 32 -11 50.5t-47 18.5t-53.5 -18.5t-25.5 -50.5z" />
    <glyph glyph-name="Lslash" unicode="&#x141;" horiz-adv-x="594" 
d="M12 407q-1 10 5.5 19.5t15.5 11.5l89 25l34 238q1 11 10.5 18t18.5 7h208q11 0 17 -8t4 -17l-24 -164l109 31q10 3 18.5 -2t9.5 -15l17 -122q1 -10 -6 -19.5t-16 -11.5l-158 -44l-22 -155h269q11 0 17 -8t4 -17l-25 -174q-1 -11 -10.5 -18t-18.5 -7h-502q-11 0 -17 8
t-4 17l40 280l-37 -11q-10 -3 -18.5 2t-10.5 15zM65 397l11 -73l46 13q5 2 9.5 2t7.5 -1t5.5 -2.5t3.5 -4t1.5 -4.5t0.5 -4.5v-4.5v-4v-1l-41 -288h452l17 124h-269q-8 0 -15 7t-6 18l29 199q2 19 21 24l153 42l-10 74l-117 -33q-15 -4 -22.5 1.5t-6 13t0.5 9.5l24 172h-158
l-33 -232q-3 -19 -21 -24z" />
    <glyph glyph-name="lslash" unicode="&#x142;" horiz-adv-x="370" 
d="M1 419q-1 10 6 19.5t16 11.5l115 32l38 260q1 11 10.5 18t18.5 7h202q10 0 16 -8t5 -17l-27 -187l46 13q10 3 18.5 -2t9.5 -15l17 -122q1 -10 -6 -19.5t-16 -11.5l-96 -27l-53 -371q-1 -11 -10.5 -18t-18.5 -7h-202q-11 0 -17 8t-4 17l43 299l-66 -18q-10 -3 -18 2
t-10 15zM55 409l10 -73l73 20q6 2 11 2t8 -1.5t5.5 -3.5t3.5 -4.5t1 -5.5v-5v-4v-2l-44 -307h152l52 365q3 19 22 24l90 25l-10 74l-54 -15q-5 -1 -9.5 -1.5t-7 0t-5 2t-4 3t-2.5 3.5t-1 4v4.5v4v2.5v2l28 195h-152l-36 -254q-3 -19 -22 -24z" />
    <glyph glyph-name="Nacute" unicode="&#x143;" horiz-adv-x="783" 
d="M34 0l101 701q1 11 10.5 18t18.5 7h178q12 0 18 -10l204 -333l46 318q1 11 10.5 18t18.5 7h190q11 0 17 -8t4 -17l-101 -701q-1 -11 -10.5 -18t-18.5 -7h-177q-12 0 -18 10l-204 331l-46 -316q-1 -11 -10.5 -18t-18.5 -7h-191q-11 0 -17 8t-4 17zM88 25h141l52 365
q3 20 15 24t22 -2l10 -7l235 -380h140l93 651h-140l-52 -367q-3 -20 -15 -24t-23 3l-10 6l-234 382h-141zM384 765l133 180q12 17 31 11l166 -58q2 0 4.5 -1t7.5 -4.5t7 -8t-1.5 -12t-14.5 -16.5l-151 -122q-8 -7 -18 -7h-148h-5t-9 1.5t-9.5 5t-2 12t9.5 19.5zM451 777h94
l108 87l-110 38z" />
    <glyph glyph-name="nacute" unicode="&#x144;" horiz-adv-x="678" 
d="M36 0l78 544q2 11 11 18t18 7h202q11 0 17 -8t4 -17l-2 -17q68 50 155 50q98 0 150.5 -64.5t37.5 -167.5l-50 -345q-1 -11 -10.5 -18t-18.5 -7h-202q-11 0 -17 8t-4 17l41 287q10 63 -43 63q-31 -1 -51 -21.5t-25 -59.5l-39 -269q-1 -11 -10.5 -18t-18.5 -7h-202
q-11 0 -17 8t-4 17zM90 25h152l35 244q8 55 44 92.5t88 38.5q47 0 71 -32t16 -81l-37 -262h152l46 320q12 85 -28 133.5t-117 48.5q-101 0 -164 -80q-14 -16 -24 -13t-15 14l-5 12l9 59h-152zM326 608l133 180q13 16 31 11l167 -58q5 -1 9.5 -4t9.5 -13.5t-17 -24.5
l-151 -122q-7 -7 -18 -7h-148h-5t-9 1.5t-9.5 5t-2 12t9.5 19.5zM393 620h95l107 87l-109 38z" />
    <glyph glyph-name="Ncommaaccent" unicode="&#x145;" horiz-adv-x="783" 
d="M34 0l101 701q1 11 10.5 18t18.5 7h178q12 0 18 -10l204 -333l46 318q1 11 10.5 18t18.5 7h190q11 0 17 -8t4 -17l-101 -701q-1 -11 -10.5 -18t-18.5 -7h-177q-12 0 -18 10l-204 331l-46 -316q-1 -11 -10.5 -18t-18.5 -7h-191q-11 0 -17 8t-4 17zM88 25h141l52 365
q3 20 15 24t22 -2l10 -7l235 -380h140l93 651h-140l-52 -367q-3 -20 -15 -24t-23 3l-10 6l-234 382h-141zM224 -311l56 101q-26 32 -20 80q7 51 46.5 84.5t90.5 33.5q48 0 78.5 -31.5t22.5 -85.5q-7 -50 -42 -88l-98 -117q-8 -11 -22 -11h-94q0 1 -4 0t-8.5 1t-8.5 5
t-3.5 10.5t6.5 17.5zM287 -295h43l89 106q25 30 29 60q5 32 -11.5 49.5t-46.5 17.5q-32 0 -54 -18.5t-26 -49.5q-5 -34 19 -53q14 -12 4 -29z" />
    <glyph glyph-name="ncommaaccent" unicode="&#x146;" horiz-adv-x="678" 
d="M36 0l78 544q2 11 11 18t18 7h202q11 0 17 -8t4 -17l-2 -17q68 50 155 50q98 0 150.5 -64.5t37.5 -167.5l-50 -345q-1 -11 -10.5 -18t-18.5 -7h-202q-11 0 -17 8t-4 17l41 287q10 63 -43 63q-31 -1 -51 -21.5t-25 -59.5l-39 -269q-1 -11 -10.5 -18t-18.5 -7h-202
q-11 0 -17 8t-4 17zM90 25h152l35 244q8 55 44 92.5t88 38.5q47 0 71 -32t16 -81l-37 -262h152l46 320q12 85 -28 133.5t-117 48.5q-101 0 -164 -80q-14 -16 -24 -13t-15 14l-5 12l9 59h-152zM177 -311l56 101q-26 32 -20 80q7 51 46.5 84.5t90.5 33.5q48 0 78.5 -31.5
t22.5 -85.5q-7 -50 -42 -88l-98 -117q-8 -11 -22 -11h-94q0 1 -4 0t-8.5 1t-8.5 5t-3.5 10.5t6.5 17.5zM240 -295h43l89 106q25 30 29 60q5 32 -11.5 49.5t-46.5 17.5q-32 0 -54 -18.5t-26 -49.5q-5 -34 19 -53q14 -12 4 -29z" />
    <glyph glyph-name="Ncaron" unicode="&#x147;" horiz-adv-x="783" 
d="M34 0l101 701q1 11 10.5 18t18.5 7h178q12 0 18 -10l204 -333l46 318q1 11 10.5 18t18.5 7h190q11 0 17 -8t4 -17l-101 -701q-1 -11 -10.5 -18t-18.5 -7h-177q-12 0 -18 10l-204 331l-46 -316q-1 -11 -10.5 -18t-18.5 -7h-191q-11 0 -17 8t-4 17zM88 25h141l52 365
q3 20 15 24t22 -2l10 -7l235 -380h140l93 651h-140l-52 -367q-3 -20 -15 -24t-23 3l-10 6l-234 382h-141zM286 908q-1 2 -2.5 4.5t-2.5 9.5t0.5 12t9 9.5t21.5 4.5h151q12 0 19 -11l31 -60l49 60q9 11 23 11h151h5t9.5 -2.5t10 -6t1.5 -12t-12 -19.5l-152 -172
q-10 -10 -21 -10h-170q-13 0 -19 10zM354 898l72 -122h145l108 122h-88l-65 -80q-12 -15 -22.5 -15t-15.5 7l-4 8l-42 80h-88z" />
    <glyph glyph-name="ncaron" unicode="&#x148;" horiz-adv-x="678" 
d="M36 0l78 544q2 11 11 18t18 7h202q11 0 17 -8t4 -17l-2 -17q68 50 155 50q98 0 150.5 -64.5t37.5 -167.5l-50 -345q-1 -11 -10.5 -18t-18.5 -7h-202q-11 0 -17 8t-4 17l41 287q10 63 -43 63q-31 -1 -51 -21.5t-25 -59.5l-39 -269q-1 -11 -10.5 -18t-18.5 -7h-202
q-11 0 -17 8t-4 17zM90 25h152l35 244q8 55 44 92.5t88 38.5q47 0 71 -32t16 -81l-37 -262h152l46 320q12 85 -28 133.5t-117 48.5q-101 0 -164 -80q-14 -16 -24 -13t-15 14l-5 12l9 59h-152zM228 750q-1 2 -2 4.5t-2.5 9.5t0 12t9 9.5t21.5 4.5h151q13 0 19 -11l32 -60
l48 60q9 11 23 11h151h5t9.5 -2.5t10 -6t1.5 -12t-12 -19.5l-152 -172q-8 -10 -21 -10h-170q-13 0 -19 10zM296 740l73 -122h144l108 122h-88l-65 -80q-12 -15 -22.5 -15t-15.5 7l-4 8l-42 80h-88z" />
    <glyph glyph-name="Eng" unicode="&#x14a;" horiz-adv-x="783" 
d="M34 0l101 701q1 11 10.5 18t18.5 7h178q12 0 18 -10l204 -333l46 318q1 11 10.5 18t18.5 7h190q11 0 17 -8t4 -17l-101 -701v-1q-22 -114 -107.5 -179t-206.5 -65q-106 0 -181 52q-7 5 -8.5 14.5t3.5 16.5l93 156q6 10 16.5 13.5t19.5 -0.5q52 -27 89 -27q33 0 44 27
l-190 309l-46 -316q-1 -11 -10.5 -18t-18.5 -7h-191q-11 0 -17 8t-4 17zM88 25h141l52 365q3 20 15 24t22 -2l10 -7l232 -376q5 -6 3 -18q-10 -37 -37.5 -59t-65.5 -22t-89 21l-67 -113q60 -33 138 -33q104 0 171 51t86 145l97 675h-140l-52 -367q-3 -20 -15 -24t-23 3
l-10 6l-234 382h-141z" />
    <glyph glyph-name="eng" unicode="&#x14b;" horiz-adv-x="678" 
d="M36 0l78 544q2 11 11 18t18 7h202q11 0 17 -8t4 -17l-2 -17q68 50 155 50q98 0 150.5 -64.5t37.5 -167.5l-53 -366q-14 -95 -88 -151t-175 -55q-91 0 -153 37q-18 10 -8 30l67 140q16 27 38 14q22 -14 44 -14q13 0 19 5.5t8 21.5l40 280q10 63 -43 63q-31 -1 -51 -21.5
t-25 -59.5l-39 -269q-1 -11 -10.5 -18t-18.5 -7h-202q-11 0 -17 8t-4 17zM90 25h152l35 244q8 55 44 92.5t88 38.5q47 0 71 -32t16 -81l-40 -280q-5 -35 -28.5 -56t-55.5 -21q-20 0 -42 8l-45 -93q47 -22 114 -22q84 -1 139.5 41t65.5 115l53 366q12 85 -28 133.5t-117 48.5
q-101 0 -164 -80q-14 -16 -24 -13t-15 14l-5 12l9 59h-152z" />
    <glyph glyph-name="Omacron" unicode="&#x14c;" horiz-adv-x="802" 
d="M45 351q23 165 155 273t306 108t275 -108t78 -273q-24 -165 -156.5 -275t-306.5 -110t-274.5 109.5t-76.5 275.5zM95 351q-21 -145 66 -240t242 -95t270 95.5t136 239.5q20 143 -67.5 237t-242.5 94q-156 0 -270 -93.5t-134 -237.5zM257 350q13 88 79.5 148t147.5 60
t127.5 -60t33.5 -148q-13 -89 -76.5 -149.5t-144.5 -60.5t-130.5 61t-36.5 149zM307 350q-10 -68 27.5 -114t96.5 -46t106.5 45.5t57.5 114.5t-24.5 113.5t-93.5 44.5q-60 0 -110 -45t-60 -113zM335 785l19 133q1 11 10.5 18t18.5 7h290q11 0 17 -8t4 -17l-19 -133
q-1 -10 -10.5 -17.5t-17.5 -7.5h-290q-11 0 -17 8t-5 17zM389 810h240l12 83h-240z" />
    <glyph glyph-name="omacron" unicode="&#x14d;" horiz-adv-x="643" 
d="M33 272q20 137 123 220.5t249 83.5t224.5 -83.5t58.5 -220.5q-19 -136 -122 -220t-249 -84t-224.5 83.5t-59.5 220.5zM83 272q-17 -115 48.5 -184.5t193.5 -69.5t212 69t101 185q17 117 -47.5 185.5t-192.5 68.5t-213 -69t-102 -185zM237 270q9 63 49 104.5t96 41.5
t83.5 -42t18.5 -104q-9 -63 -48.5 -104.5t-95.5 -41.5q-57 0 -84.5 41.5t-18.5 104.5zM242 628l20 133q1 10 10.5 17.5t17.5 7.5h290q11 0 17 -8t5 -17l-20 -133q-1 -11 -10 -18t-18 -7h-290q-11 0 -17 8t-5 17zM287 270q-7 -47 10 -71.5t50 -24.5t56.5 25t30.5 71t-10 71
t-49 25q-33 0 -57 -25t-31 -71zM296 653h240l12 83h-240z" />
    <glyph glyph-name="Obreve" unicode="&#x14e;" horiz-adv-x="802" 
d="M45 351q23 165 155 273t306 108t275 -108t78 -273q-24 -165 -156.5 -275t-306.5 -110t-274.5 109.5t-76.5 275.5zM95 351q-21 -145 66 -240t242 -95t270 95.5t136 239.5q20 143 -67.5 237t-242.5 94q-156 0 -270 -93.5t-134 -237.5zM257 350q13 88 79.5 148t147.5 60
t127.5 -60t33.5 -148q-13 -89 -76.5 -149.5t-144.5 -60.5t-130.5 61t-36.5 149zM307 350q-10 -68 27.5 -114t96.5 -46t106.5 45.5t57.5 114.5t-24.5 113.5t-93.5 44.5q-60 0 -110 -45t-60 -113zM325 921q1 10 9 18t19 8h123q10 0 16.5 -7t5.5 -16q-1 -31 23 -31t31 31
q2 10 10.5 16.5t17.5 6.5h123q11 0 17.5 -7t4.5 -19q-16 -86 -79 -138.5t-149 -52.5q-85 0 -132.5 52.5t-39.5 138.5zM374 897q3 -55 37 -86t93 -31q60 0 103 30.5t61 86.5h-75q-11 -24 -32.5 -39t-47.5 -15t-42.5 15t-21.5 39h-75z" />
    <glyph glyph-name="obreve" unicode="&#x14f;" horiz-adv-x="643" 
d="M33 272q20 137 123 220.5t249 83.5t224.5 -83.5t58.5 -220.5q-19 -136 -122 -220t-249 -84t-224.5 83.5t-59.5 220.5zM83 272q-17 -115 48.5 -184.5t193.5 -69.5t212 69t101 185q17 117 -47.5 185.5t-192.5 68.5t-213 -69t-102 -185zM232 764q1 10 9 18t20 8h123
q10 0 16 -7t5 -16q-1 -31 23 -31t32 31q2 10 10.5 16.5t17.5 6.5h123q10 0 16.5 -7t4.5 -19q-16 -86 -79 -138.5t-148 -52.5q-86 0 -133.5 52.5t-39.5 138.5zM237 270q9 63 49 104.5t96 41.5t83.5 -42t18.5 -104q-9 -63 -48.5 -104.5t-95.5 -41.5q-57 0 -84.5 41.5
t-18.5 104.5zM282 740q2 -55 36 -86t94 -31t102.5 30.5t61.5 86.5h-75q-11 -24 -32.5 -39t-47.5 -15t-43 15t-22 39h-74zM287 270q-7 -47 10 -71.5t50 -24.5t56.5 25t30.5 71t-10 71t-49 25q-33 0 -57 -25t-31 -71z" />
    <glyph glyph-name="Ohungarumlaut" unicode="&#x150;" horiz-adv-x="802" 
d="M45 351q23 165 155 273t306 108t275 -108t78 -273q-24 -165 -156.5 -275t-306.5 -110t-274.5 109.5t-76.5 275.5zM95 351q-21 -145 66 -240t242 -95t270 95.5t136 239.5q20 143 -67.5 237t-242.5 94q-156 0 -270 -93.5t-134 -237.5zM257 350q13 88 79.5 148t147.5 60
t127.5 -60t33.5 -148q-13 -89 -76.5 -149.5t-144.5 -60.5t-130.5 61t-36.5 149zM290 763l112 181q13 19 33 13l142 -51q27 -14 7 -38l-109 -130q-9 -11 -22 -11h-145q0 1 -4 0t-9 1t-9 5t-3.5 11t7.5 19zM307 350q-10 -68 27.5 -114t96.5 -46t106.5 45.5t57.5 114.5
t-24.5 113.5t-93.5 44.5q-60 0 -110 -45t-60 -113zM355 777h92l77 92l-92 33zM499 763l112 181q13 19 33 13l142 -51q27 -14 7 -38l-109 -130q-9 -11 -22 -11h-145q0 1 -4 0t-9 1t-9 5t-3.5 11t7.5 19zM564 777h92l77 92l-92 33z" />
    <glyph glyph-name="ohungarumlaut" unicode="&#x151;" horiz-adv-x="643" 
d="M33 272q20 137 123 220.5t249 83.5t224.5 -83.5t58.5 -220.5q-19 -136 -122 -220t-249 -84t-224.5 83.5t-59.5 220.5zM83 272q-17 -115 48.5 -184.5t193.5 -69.5t212 69t101 185q17 117 -47.5 185.5t-192.5 68.5t-213 -69t-102 -185zM198 605l112 181q11 19 32 13
l142 -51q27 -14 7 -38l-109 -130q-9 -11 -22 -11h-145q0 1 -4 0t-9 1t-9 5t-3 11t8 19zM237 270q9 63 49 104.5t96 41.5t83.5 -42t18.5 -104q-9 -63 -48.5 -104.5t-95.5 -41.5q-57 0 -84.5 41.5t-18.5 104.5zM262 619h92l77 92l-92 33zM287 270q-7 -47 10 -71.5t50 -24.5
t56.5 25t30.5 71t-10 71t-49 25q-33 0 -57 -25t-31 -71zM407 605l112 181q11 19 32 13l142 -51q27 -14 7 -38l-109 -130q-9 -11 -22 -11h-145q0 1 -4 0t-9 1t-9 5t-3 11t8 19zM471 619h92l77 92l-92 33z" />
    <glyph glyph-name="OE" unicode="&#x152;" horiz-adv-x="1121" 
d="M44 349q23 162 155 269.5t306 107.5h670q11 0 17 -8t4 -17l-23 -160q-1 -11 -10.5 -18t-18.5 -7h-340l-8 -60h306q11 0 17 -8t4 -17l-23 -160q-1 -11 -10.5 -18t-18.5 -7h-306l-8 -61h350q11 0 17 -8t4 -17l-23 -160q-1 -11 -10.5 -18t-18.5 -7h-680q-173 0 -274 106
t-78 268zM94 349q-20 -140 67.5 -232t242.5 -92h655l15 110h-350q-8 0 -15 7t-6 18l16 111q2 9 10 17t19 8h306l16 110h-306q-9 0 -16 7t-6 18l16 110q2 9 10 17t19 8h340l15 110h-645q-155 0 -269 -93.5t-134 -233.5zM257 348q13 89 76.5 149t146.5 60h97q9 0 16 -7t6 -18
l-53 -365q-2 -9 -10 -17t-18 -8l-98 -1q-83 0 -129.5 59.5t-33.5 147.5zM307 348q-10 -69 24.5 -113t95.5 -44l73 1l45 315h-72q-61 0 -108.5 -44.5t-57.5 -114.5z" />
    <glyph glyph-name="oe" unicode="&#x153;" horiz-adv-x="1008" 
d="M33 272q20 137 123 220.5t249 83.5q121 0 185 -69q81 69 194 69q15 0 23 -1q139 -7 203.5 -103t34.5 -246q-1 -10 -10 -17t-18 -7h-115l81 -93q15 -16 -4 -35q-111 -106 -278 -106q-120 0 -180 68q-85 -68 -204 -68q-146 0 -224.5 83.5t-59.5 220.5zM83 272
q-17 -115 48.5 -184.5t193.5 -69.5q114 0 185 71q23 22 38 -1q46 -70 161 -70q127 0 219 73l-61 69q-65 -43 -126 -43q-49 0 -80.5 27.5t-38.5 75.5q-2 15 5.5 23t12.5 8.5t10 0.5h350q19 128 -40.5 201t-182.5 73q-107 0 -175 -71q-22 -23 -38 0q-52 71 -166 71
q-128 0 -213 -69t-102 -185zM237 270q9 63 49 104.5t96 41.5t83.5 -42t18.5 -104q-9 -63 -48.5 -104.5t-95.5 -41.5q-57 0 -84.5 41.5t-18.5 104.5zM287 270q-7 -47 10 -71.5t50 -24.5t56.5 25t30.5 71t-10 71t-49 25q-33 0 -57 -25t-31 -71zM633 326q17 49 52 81.5t81 32.5
q49 0 74.5 -34.5t16.5 -84.5q-1 -10 -9.5 -17t-18.5 -7h-175q-29 0 -21 29zM682 202q20 -35 66 -35q47 0 97 35h-163zM694 347h115q-6 43 -50 43q-40 0 -65 -43z" />
    <glyph glyph-name="Racute" unicode="&#x154;" horiz-adv-x="725" 
d="M34 0l101 701q1 11 10.5 18t18.5 7h327q149 0 224.5 -72t56.5 -202q-21 -154 -142 -231l99 -208l1 -1q0 -1 1 -3.5t1.5 -5t1 -6t-0.5 -6.5t-3 -6t-5.5 -5t-9 -3.5t-13.5 -1.5h-236q-15 0 -20 14l-61 175h-69l-24 -164q-1 -11 -10.5 -18t-18.5 -7h-208q-11 0 -17 8t-4 17z
M88 25h158l23 164q2 9 10 17t19 8h110q15 0 20 -14l61 -175h176l-91 191q-10 22 14 35q114 59 134 201q16 108 -44.5 166t-194.5 58h-302zM292 349l28 192q2 9 10 17t19 8h119q55 0 84 -32.5t21 -87.5q-8 -56 -46.5 -89t-93.5 -33h-119q-9 0 -16 7t-6 18zM346 374h94
q73 0 83 72q5 36 -10 53t-53 17h-94zM360 765l133 180q12 17 31 11l166 -58q2 0 4.5 -1t7.5 -4.5t7 -8t-1.5 -12t-14.5 -16.5l-151 -122q-8 -7 -18 -7h-148h-5t-9 1.5t-9.5 5t-2 12t9.5 19.5zM427 777h94l108 87l-110 38z" />
    <glyph glyph-name="racute" unicode="&#x155;" horiz-adv-x="444" 
d="M36 0l78 544q2 11 11 18t18 7h202q11 0 17 -8t4 -17l-2 -19q69 52 153 52q11 0 17 -8t5 -17l-27 -182q-1 -10 -9 -18.5t-22 -6.5q-11 2 -31 2q-112 0 -125 -87l-37 -260q-1 -11 -10.5 -18t-18.5 -7h-202q-11 0 -17 8t-4 17zM90 25h152l33 235q10 66 63 102.5t128 34.5
l19 128q-80 -9 -137 -80q-14 -16 -24 -13t-15 14l-5 12l9 61h-152zM205 608l133 180q13 16 31 11l167 -58q5 -1 9.5 -4t9.5 -13.5t-17 -24.5l-151 -122q-7 -7 -18 -7h-148h-5t-9 1.5t-9.5 5t-2 12t9.5 19.5zM272 620h95l107 87l-109 38z" />
    <glyph glyph-name="Rcommaaccent" unicode="&#x156;" horiz-adv-x="725" 
d="M34 0l101 701q1 11 10.5 18t18.5 7h327q149 0 224.5 -72t56.5 -202q-21 -154 -142 -231l99 -208l1 -1q0 -1 1 -3.5t1.5 -5t1 -6t-0.5 -6.5t-3 -6t-5.5 -5t-9 -3.5t-13.5 -1.5h-236q-15 0 -20 14l-61 175h-69l-24 -164q-1 -11 -10.5 -18t-18.5 -7h-208q-11 0 -17 8t-4 17z
M88 25h158l23 164q2 9 10 17t19 8h110q15 0 20 -14l61 -175h176l-91 191q-10 22 14 35q114 59 134 201q16 108 -44.5 166t-194.5 58h-302zM191 -311l56 101q-26 32 -20 80q7 51 46.5 84.5t90.5 33.5q48 0 78.5 -31.5t22.5 -85.5q-7 -50 -42 -88l-98 -117q-8 -11 -22 -11h-94
q0 1 -4 0t-8.5 1t-8.5 5t-3.5 10.5t6.5 17.5zM254 -295h43l89 106q25 30 29 60q5 32 -11.5 49.5t-46.5 17.5q-32 0 -54 -18.5t-26 -49.5q-5 -34 19 -53q14 -12 4 -29zM292 349l28 192q2 9 10 17t19 8h119q55 0 84 -32.5t21 -87.5q-8 -56 -46.5 -89t-93.5 -33h-119
q-9 0 -16 7t-6 18zM346 374h94q73 0 83 72q5 36 -10 53t-53 17h-94z" />
    <glyph glyph-name="rcommaaccent" unicode="&#x157;" horiz-adv-x="444" 
d="M-11 -311l56 101q-26 32 -20 80q7 51 46.5 84.5t90.5 33.5q48 0 78.5 -31.5t22.5 -85.5q-7 -50 -42 -88l-98 -117q-8 -11 -22 -11h-94q0 1 -4 0t-8.5 1t-8.5 5t-3.5 10.5t6.5 17.5zM36 0l78 544q2 11 11 18t18 7h202q11 0 17 -8t4 -17l-2 -19q69 52 153 52q11 0 17 -8
t5 -17l-27 -182q-1 -10 -9 -18.5t-22 -6.5q-11 2 -31 2q-112 0 -125 -87l-37 -260q-1 -11 -10.5 -18t-18.5 -7h-202q-11 0 -17 8t-4 17zM52 -295h43l89 106q25 30 29 60q5 32 -11.5 49.5t-46.5 17.5q-32 0 -54 -18.5t-26 -49.5q-5 -34 19 -53q14 -12 4 -29zM90 25h152
l33 235q10 66 63 102.5t128 34.5l19 128q-80 -9 -137 -80q-14 -16 -24 -13t-15 14l-5 12l9 61h-152z" />
    <glyph glyph-name="Rcaron" unicode="&#x158;" horiz-adv-x="725" 
d="M34 0l101 701q1 11 10.5 18t18.5 7h327q149 0 224.5 -72t56.5 -202q-21 -154 -142 -231l99 -208l1 -1q0 -1 1 -3.5t1.5 -5t1 -6t-0.5 -6.5t-3 -6t-5.5 -5t-9 -3.5t-13.5 -1.5h-236q-15 0 -20 14l-61 175h-69l-24 -164q-1 -11 -10.5 -18t-18.5 -7h-208q-11 0 -17 8t-4 17z
M88 25h158l23 164q2 9 10 17t19 8h110q15 0 20 -14l61 -175h176l-91 191q-10 22 14 35q114 59 134 201q16 108 -44.5 166t-194.5 58h-302zM262 907q-1 2 -2.5 4.5t-3 9.5t0 12t9 9.5t21.5 4.5h151q13 0 20 -11l31 -60l49 60q9 11 22 11h151h5t10 -2.5t10 -6t1.5 -12
t-11.5 -19.5l-152 -172q-10 -10 -22 -10h-170q-12 0 -18 10zM292 349l28 192q2 9 10 17t19 8h119q55 0 84 -32.5t21 -87.5q-8 -56 -46.5 -89t-93.5 -33h-119q-9 0 -16 7t-6 18zM330 897l72 -122h145l108 122h-88l-65 -80q-12 -15 -22.5 -15t-15.5 8l-4 7l-42 80h-88z
M346 374h94q73 0 83 72q5 36 -10 53t-53 17h-94z" />
    <glyph glyph-name="rcaron" unicode="&#x159;" horiz-adv-x="444" 
d="M36 0l78 544q2 11 11 18t18 7h202q11 0 17 -8t4 -17l-2 -19q69 52 153 52q11 0 17 -8t5 -17l-27 -182q-1 -10 -9 -18.5t-22 -6.5q-11 2 -31 2q-112 0 -125 -87l-37 -260q-1 -11 -10.5 -18t-18.5 -7h-202q-11 0 -17 8t-4 17zM90 25h152l33 235q10 66 63 102.5t128 34.5
l19 128q-80 -9 -137 -80q-14 -16 -24 -13t-15 14l-5 12l9 61h-152zM107 750q-1 2 -2 4.5t-2.5 9.5t0 12t9 9.5t21.5 4.5h151q14 0 19 -11l32 -60l48 60q9 11 23 11h151h5t9.5 -2.5t10 -6t1.5 -12t-12 -19.5l-152 -172q-8 -10 -21 -10h-170q-13 0 -19 10zM175 740l73 -122
h144l108 122h-88l-65 -80q-12 -15 -22.5 -15t-14.5 7l-5 8l-42 80h-88z" />
    <glyph glyph-name="Sacute" unicode="&#x15a;" horiz-adv-x="655" 
d="M6 116l101 158q19 28 40 8q43 -42 112 -71.5t118 -29.5q48 0 50 22q2 12 -17 20.5t-50.5 15.5t-69 16t-74 26.5t-65.5 42.5t-43 67.5t-6 97.5q17 113 114.5 179.5t236.5 66.5q83 0 161 -23t133 -62q17 -12 5 -32l-100 -160q-17 -23 -37 -11q-48 30 -110 52.5t-100 22.5
q-32 0 -35 -13q-2 -11 17.5 -19.5t50.5 -16t68.5 -17.5t74 -28.5t65 -44t42.5 -69.5t6 -100q-12 -81 -65.5 -138t-126.5 -82t-157 -25q-94 0 -184 31t-152 85q-13 13 -3 31zM60 113q55 -43 133.5 -68.5t158.5 -25.5q118 0 198 50.5t94 144.5q9 64 -23 104t-83 57t-103 31
t-86.5 38t-28.5 65q5 32 32 47.5t60 15.5q89 0 212 -69l73 116q-106 66 -251 66q-124 0 -202.5 -53.5t-91.5 -142.5q-9 -62 23.5 -100t84 -54t103.5 -29t86 -37.5t28 -65.5q-5 -37 -36 -54.5t-71 -17.5q-54 0 -121 26t-118 67zM342 765l133 180q12 17 31 11l166 -58
q2 0 4.5 -1t7.5 -4.5t7 -8t-1.5 -12t-14.5 -16.5l-151 -122q-8 -7 -18 -7h-148h-5t-9 1.5t-9.5 5t-2 12t9.5 19.5zM409 777h94l108 87l-110 38z" />
    <glyph glyph-name="sacute" unicode="&#x15b;" horiz-adv-x="535" 
d="M3 79l80 127q17 25 38 10q89 -63 174 -63q3 0 8.5 0.5t6.5 0.5q-8 5 -41.5 14t-68 21.5t-69 33.5t-52.5 59t-11 89q15 96 95.5 151.5t191.5 55.5q133 0 242 -69q8 -5 9 -15.5t-4 -18.5l-86 -127q-6 -9 -17 -12t-18 2q-98 54 -159 54q-3 0 -7 -0.5t-5 -0.5q7 -5 32.5 -12
t54.5 -15t61 -24t56.5 -36.5t37.5 -55t7 -77.5q-14 -96 -96.5 -150.5t-197.5 -54.5q-158 0 -259 82q-15 11 -3 31zM57 77q87 -61 215 -61q101 0 163.5 42t73.5 113q6 45 -19 74.5t-64.5 43t-80 24.5t-67 29.5t-22.5 48.5q4 26 26 38.5t48 12.5q65 0 160 -49l56 84
q-93 51 -198 51q-97 0 -158 -42.5t-72 -114.5q-6 -45 18.5 -74t63.5 -42.5t78.5 -24t65 -29t21.5 -48.5q-7 -50 -77 -50q-88 0 -179 56zM248 608l133 180q13 16 31 11l167 -58q5 -1 9.5 -4t9.5 -13.5t-17 -24.5l-151 -122q-7 -7 -18 -7h-148h-5t-9 1.5t-9.5 5t-2 12
t9.5 19.5zM315 620h95l107 87l-109 38z" />
    <glyph glyph-name="Scircumflex" unicode="&#x15c;" horiz-adv-x="655" 
d="M6 116l101 158q19 28 40 8q43 -42 112 -71.5t118 -29.5q48 0 50 22q2 12 -17 20.5t-50.5 15.5t-69 16t-74 26.5t-65.5 42.5t-43 67.5t-6 97.5q17 113 114.5 179.5t236.5 66.5q83 0 161 -23t133 -62q17 -12 5 -32l-100 -160q-17 -23 -37 -11q-48 30 -110 52.5t-100 22.5
q-32 0 -35 -13q-2 -11 17.5 -19.5t50.5 -16t68.5 -17.5t74 -28.5t65 -44t42.5 -69.5t6 -100q-12 -81 -65.5 -138t-126.5 -82t-157 -25q-94 0 -184 31t-152 85q-13 13 -3 31zM60 113q55 -43 133.5 -68.5t158.5 -25.5q118 0 198 50.5t94 144.5q9 64 -23 104t-83 57t-103 31
t-86.5 38t-28.5 65q5 32 32 47.5t60 15.5q89 0 212 -69l73 116q-106 66 -251 66q-124 0 -202.5 -53.5t-91.5 -142.5q-9 -62 23.5 -100t84 -54t103.5 -29t86 -37.5t28 -65.5q-5 -37 -36 -54.5t-71 -17.5q-54 0 -121 26t-118 67zM248 781l140 157q10 10 22 10h156q12 0 18 -10
l95 -157q1 -2 2 -4.5t2.5 -9.5t0 -12t-9 -9.5t-21.5 -4.5h-139q-14 0 -19 11l-28 52l-43 -52q-9 -11 -22 -11h-139h-5t-10 2.5t-10 6t-1.5 12t11.5 19.5zM320 791h76l59 72q12 15 22.5 15t14.5 -8l4 -7l38 -72h76l-64 107h-131z" />
    <glyph glyph-name="scircumflex" unicode="&#x15d;" horiz-adv-x="535" 
d="M3 79l80 127q17 25 38 10q89 -63 174 -63q3 0 8.5 0.5t6.5 0.5q-8 5 -41.5 14t-68 21.5t-69 33.5t-52.5 59t-11 89q15 96 95.5 151.5t191.5 55.5q133 0 242 -69q8 -5 9 -15.5t-4 -18.5l-86 -127q-6 -9 -17 -12t-18 2q-98 54 -159 54q-3 0 -7 -0.5t-5 -0.5q7 -5 32.5 -12
t54.5 -15t61 -24t56.5 -36.5t37.5 -55t7 -77.5q-14 -96 -96.5 -150.5t-197.5 -54.5q-158 0 -259 82q-15 11 -3 31zM57 77q87 -61 215 -61q101 0 163.5 42t73.5 113q6 45 -19 74.5t-64.5 43t-80 24.5t-67 29.5t-22.5 48.5q4 26 26 38.5t48 12.5q65 0 160 -49l56 84
q-93 51 -198 51q-97 0 -158 -42.5t-72 -114.5q-6 -45 18.5 -74t63.5 -42.5t78.5 -24t65 -29t21.5 -48.5q-7 -50 -77 -50q-88 0 -179 56zM154 623l139 157q10 10 22 10h156q12 0 18 -10l95 -157q1 -2 2 -4.5t2.5 -9.5t0 -12t-9 -9.5t-21.5 -4.5h-139q-13 0 -19 11l-28 52
l-43 -52q-8 -11 -22 -11h-139h-5t-9.5 2.5t-10 6t-1.5 12t12 19.5zM225 633h76l59 72q12 15 22 15t14 -8l5 -7l39 -72h75l-64 107h-131z" />
    <glyph glyph-name="Scedilla" unicode="&#x15e;" horiz-adv-x="655" 
d="M6 116l101 158q19 28 40 8q43 -42 112 -71.5t118 -29.5q48 0 50 22q2 12 -17 20.5t-50.5 15.5t-69 16t-74 26.5t-65.5 42.5t-43 67.5t-6 97.5q17 113 114.5 179.5t236.5 66.5q83 0 161 -23t133 -62q17 -12 5 -32l-100 -160q-17 -23 -37 -11q-48 30 -110 52.5t-100 22.5
q-32 0 -35 -13q-2 -11 17.5 -19.5t50.5 -16t68.5 -17.5t74 -28.5t65 -44t42.5 -69.5t6 -100q-14 -100 -88 -160.5t-179 -78.5l-10 -14q53 -33 44 -94t-59.5 -97.5t-118.5 -36.5q-57 0 -107 37q-15 12 -5 31l48 82q7 10 16 13q-17 12 -5 33l30 46q-153 24 -251 110
q-13 13 -3 31zM60 113q102 -79 247 -92q18 -2 21.5 -11t-1.5 -17l-5 -8l-24 -38q26 -2 42 -18t12 -42t-25 -42.5t-48 -16.5q-17 0 -33 8l-20 -35q33 -18 64 -18q53 0 84.5 23t36.5 61q5 43 -41 58q-26 8 -10 36l33 49q8 12 21 13q96 13 157 61.5t73 129.5q9 64 -23 104
t-83 57t-103 31t-86.5 38t-28.5 65q5 32 32 47.5t60 15.5q89 0 212 -69l73 116q-106 66 -251 66q-124 0 -202.5 -53.5t-91.5 -142.5q-9 -62 23.5 -100t84 -54t103.5 -29t86 -37.5t28 -65.5q-5 -37 -36 -54.5t-71 -17.5q-54 0 -121 26t-118 67zM258 -106q14 -16 28 -16t16 9
v1q0 3 -0.5 4.5t-5 3t-12.5 1.5q-11 0 -26 -3z" />
    <glyph glyph-name="scedilla" unicode="&#x15f;" horiz-adv-x="535" 
d="M3 79l80 127q17 25 38 10q89 -63 174 -63q3 0 8.5 0.5t6.5 0.5q-8 5 -41.5 14t-68 21.5t-69 33.5t-52.5 59t-11 89q15 96 95.5 151.5t191.5 55.5q133 0 242 -69q8 -5 9 -15.5t-4 -18.5l-86 -127q-6 -9 -17 -12t-18 2q-98 54 -159 54q-3 0 -7 -0.5t-5 -0.5q7 -5 32.5 -12
t54.5 -15t61 -24t56.5 -36.5t37.5 -55t7 -77.5q-11 -75 -67 -126.5t-139 -69.5l-9 -14q53 -33 44 -94t-59.5 -97.5t-118.5 -36.5q-57 0 -107 37q-15 12 -5 31l48 82q7 10 16 13l-10 2q-10 8 5 31l28 43q-105 17 -179 76q-15 11 -3 31zM57 77q73 -51 174 -59q18 -1 22 -10
t-1 -18l-5 -8l-23 -35q27 -2 43 -18t12 -42t-25 -42.5t-48 -16.5q-17 0 -33 8l-20 -35q33 -18 64 -18q53 0 84.5 23t36.5 61q5 43 -41 58q-26 8 -10 36l32 48q8 10 20 13q72 13 116.5 52t53.5 97q6 45 -19 74.5t-64.5 43t-80 24.5t-67 29.5t-22.5 48.5q4 26 26 38.5t48 12.5
q65 0 160 -49l56 84q-93 51 -198 51q-97 0 -158 -42.5t-72 -114.5q-6 -45 18.5 -74t63.5 -42.5t78.5 -24t65 -29t21.5 -48.5q-7 -50 -77 -50q-88 0 -179 56zM185 -106q14 -16 28 -16t16 9v1q0 3 -0.5 4.5t-5 3t-12.5 1.5q-11 0 -26 -3z" />
    <glyph glyph-name="Scaron" unicode="&#x160;" horiz-adv-x="655" 
d="M6 116l101 158q19 28 40 8q43 -42 112 -71.5t118 -29.5q48 0 50 22q2 12 -17 20.5t-50.5 15.5t-69 16t-74 26.5t-65.5 42.5t-43 67.5t-6 97.5q17 113 114.5 179.5t236.5 66.5q83 0 161 -23t133 -62q17 -12 5 -32l-100 -160q-17 -23 -37 -11q-48 30 -110 52.5t-100 22.5
q-32 0 -35 -13q-2 -11 17.5 -19.5t50.5 -16t68.5 -17.5t74 -28.5t65 -44t42.5 -69.5t6 -100q-12 -81 -65.5 -138t-126.5 -82t-157 -25q-94 0 -184 31t-152 85q-13 13 -3 31zM60 113q55 -43 133.5 -68.5t158.5 -25.5q118 0 198 50.5t94 144.5q9 64 -23 104t-83 57t-103 31
t-86.5 38t-28.5 65q5 32 32 47.5t60 15.5q89 0 212 -69l73 116q-106 66 -251 66q-124 0 -202.5 -53.5t-91.5 -142.5q-9 -62 23.5 -100t84 -54t103.5 -29t86 -37.5t28 -65.5q-5 -37 -36 -54.5t-71 -17.5q-54 0 -121 26t-118 67zM244 908q-1 2 -2.5 4.5t-2.5 9.5t0.5 12t9 9.5
t21.5 4.5h151q12 0 19 -11l31 -60l49 60q9 11 23 11h151h5t9.5 -2.5t10 -6t1.5 -12t-12 -19.5l-152 -172q-10 -10 -21 -10h-170q-13 0 -19 10zM312 898l72 -122h145l108 122h-88l-65 -80q-12 -15 -22.5 -15t-15.5 7l-4 8l-42 80h-88z" />
    <glyph glyph-name="scaron" unicode="&#x161;" horiz-adv-x="535" 
d="M3 79l80 127q17 25 38 10q89 -63 174 -63q3 0 8.5 0.5t6.5 0.5q-8 5 -41.5 14t-68 21.5t-69 33.5t-52.5 59t-11 89q15 96 95.5 151.5t191.5 55.5q133 0 242 -69q8 -5 9 -15.5t-4 -18.5l-86 -127q-6 -9 -17 -12t-18 2q-98 54 -159 54q-3 0 -7 -0.5t-5 -0.5q7 -5 32.5 -12
t54.5 -15t61 -24t56.5 -36.5t37.5 -55t7 -77.5q-14 -96 -96.5 -150.5t-197.5 -54.5q-158 0 -259 82q-15 11 -3 31zM57 77q87 -61 215 -61q101 0 163.5 42t73.5 113q6 45 -19 74.5t-64.5 43t-80 24.5t-67 29.5t-22.5 48.5q4 26 26 38.5t48 12.5q65 0 160 -49l56 84
q-93 51 -198 51q-97 0 -158 -42.5t-72 -114.5q-6 -45 18.5 -74t63.5 -42.5t78.5 -24t65 -29t21.5 -48.5q-7 -50 -77 -50q-88 0 -179 56zM150 750q-1 2 -2 4.5t-2.5 9.5t0 12t9 9.5t21.5 4.5h151q13 0 19 -11l32 -60l48 60q9 11 23 11h151h5t9.5 -2.5t10 -6t1.5 -12
t-12 -19.5l-152 -172q-8 -10 -21 -10h-170q-13 0 -19 10zM218 740l73 -122h144l108 122h-88l-65 -80q-12 -15 -22.5 -15t-15.5 7l-4 8l-42 80h-88z" />
    <glyph glyph-name="Tcedilla" unicode="&#x162;" horiz-adv-x="628" 
d="M58 535l24 166q1 11 10.5 18t18.5 7h616q11 0 17 -8t4 -17l-24 -166q-1 -11 -10.5 -18t-18.5 -7h-179l-73 -510q-1 -11 -10.5 -18t-18.5 -7h-25l-9 -14q53 -33 44 -94t-59.5 -97.5t-118.5 -36.5q-57 0 -107 37q-15 12 -5 31l48 82q7 10 16 13q-17 12 -5 33l30 46h-18
q-11 0 -17 8t-4 17l73 510h-178q-10 0 -16 8t-5 17zM112 560h178q8 0 15 -7t6 -18l-73 -510h33q20 0 24 -9t-1 -18l-6 -9l-27 -42q26 -2 42 -18t12 -42t-25 -42.5t-48 -16.5q-17 0 -33 8l-20 -35q33 -18 64 -18q53 0 84.5 23t36.5 61q5 43 -41 58q-26 8 -10 36l35 51
q9 13 24 13h15l73 510q2 9 10 17t19 8h179l16 116h-566zM221 -106q14 -16 28 -16t16 9v1q0 3 -0.5 4.5t-5 3t-12.5 1.5q-11 0 -26 -3z" />
    <glyph glyph-name="tcedilla" unicode="&#x163;" horiz-adv-x="449" 
d="M44 387l18 129q2 11 11 18t18 7h50l18 126q1 11 10.5 18t18.5 7h201q11 0 17 -8t4 -17l-18 -126h109q11 0 17 -8t4 -17l-18 -129q-1 -11 -10.5 -18t-18.5 -7h-109l-23 -161q-3 -17 1 -22t16 -5q13 0 55 14q28 10 31 -17l16 -139q2 -18 -16 -28q-42 -22 -94 -31l-8 -12
q53 -32 44 -94q-9 -61 -59.5 -97.5t-118.5 -36.5q-57 0 -107 37q-15 12 -5 31l48 82q7 10 16 13q-17 12 -5 33l33 51q-58 21 -85.5 70.5t-17.5 119.5l28 192h-50q-11 0 -17 8t-4 17zM97 412h50q9 0 16 -7t6 -18l-32 -217q-9 -62 17.5 -100t82.5 -49q9 -2 13.5 -6.5t5 -9
t-1 -9t-3 -7.5t-2.5 -4l-24 -38q26 -2 42 -18t12 -42t-25 -42.5t-48 -16.5q-17 0 -33 8l-20 -35q33 -18 64 -18q53 0 84.5 23t36.5 61q5 43 -41 58q-27 9 -10 35l31 47q7 12 21 14q37 4 70 18l-10 93q-28 -8 -46 -8q-32 0 -48.5 21.5t-11.5 55.5l27 186q1 9 9 17t19 8h109
l12 79h-109q-9 0 -16 7t-6 18l19 126h-151l-19 -126q-1 -9 -9 -17t-19 -8h-50zM185 -106q14 -16 28 -16t16 9v1q0 3 -0.5 4.5t-5 3t-12.5 1.5q-11 0 -26 -3z" />
    <glyph glyph-name="Tcaron" unicode="&#x164;" horiz-adv-x="628" 
d="M58 535l24 166q1 11 10.5 18t18.5 7h616q11 0 17 -8t4 -17l-24 -166q-1 -11 -10.5 -18t-18.5 -7h-179l-73 -510q-1 -11 -10.5 -18t-18.5 -7h-209q-11 0 -17 8t-4 17l73 510h-178q-10 0 -16 8t-5 17zM112 560h178q8 0 15 -7t6 -18l-73 -510h159l73 510q2 9 10 17t19 8h179
l16 116h-566zM222 908q-1 2 -2.5 4.5t-2.5 9.5t0.5 12t9 9.5t21.5 4.5h151q12 0 19 -11l31 -60l49 60q9 11 23 11h151h5t9.5 -2.5t10 -6t1.5 -12t-12 -19.5l-152 -172q-10 -10 -21 -10h-170q-13 0 -19 10zM290 898l72 -122h145l108 122h-88l-65 -80q-12 -15 -22.5 -15
t-15.5 7l-4 8l-42 80h-88z" />
    <glyph glyph-name="tcaron" unicode="&#x165;" horiz-adv-x="452" 
d="M44 387l18 129q2 11 11 18t18 7h50l18 126q1 11 10.5 18t18.5 7h201q11 0 17 -8t4 -17l-18 -126h109q11 0 17 -8t4 -17l-18 -129q-1 -11 -10.5 -18t-18.5 -7h-109l-23 -161q-3 -17 1 -22t16 -5q13 0 55 14q28 10 31 -17l16 -139q2 -18 -16 -28q-71 -38 -169 -38
q-97 -1 -150 54.5t-40 149.5l28 192h-50q-11 0 -17 8t-4 17zM97 412h50q9 0 16 -7t6 -18l-32 -217q-10 -73 29 -114t118 -40q68 0 125 23l-10 93q-28 -8 -46 -8q-32 0 -48.5 21.5t-11.5 55.5l27 186q1 9 9 17t19 8h109l12 79h-109q-9 0 -16 7t-6 18l19 126h-151l-19 -126
q-1 -9 -9 -17t-19 -8h-50zM383 585l57 101q-28 32 -21 79q7 52 46.5 85.5t90.5 33.5q48 0 78.5 -32t22.5 -86q-7 -46 -42 -88l-98 -117q-8 -11 -22 -11h-94q0 1 -4 0t-8.5 1t-8.5 5t-3.5 10.5t6.5 18.5zM446 600h43l89 106q25 29 29 60q5 32 -11.5 50t-46.5 18
q-31 0 -53 -19t-27 -50q-5 -33 19 -51q15 -12 5 -31z" />
    <glyph glyph-name="Tbar" unicode="&#x166;" horiz-adv-x="628" 
d="M58 535l24 166q1 11 10.5 18t18.5 7h616q11 0 17 -8t4 -17l-24 -166q-1 -11 -10.5 -18t-18.5 -7h-179l-73 -510q-1 -11 -10.5 -18t-18.5 -7h-209q-11 0 -17 8t-4 17l73 510h-178q-10 0 -16 8t-5 17zM112 560h178q8 0 15 -7t6 -18l-73 -510h159l73 510q2 9 10 17t19 8h179
l16 116h-566zM272 785l19 133q1 11 10.5 18t18.5 7h290q11 0 17 -8t4 -17l-19 -133q-1 -10 -10.5 -17.5t-17.5 -7.5h-290q-11 0 -17 8t-5 17zM326 810h240l12 83h-240z" />
    <glyph glyph-name="tbar" unicode="&#x167;" horiz-adv-x="449" 
d="M22 236l16 109q1 10 10.5 17.5t17.5 7.5h50l2 11h-50q-11 0 -17 8t-4 17l15 110q2 11 11 18t18 7h50l18 126q1 11 10.5 18t18.5 7h201q11 0 17 -8t4 -17l-18 -126h109q11 0 17 -8t4 -17l-15 -110q-2 -11 -11 -18t-18 -7h-109l-2 -11h109q11 0 17 -8t5 -17l-16 -109
q-1 -11 -10.5 -18t-18.5 -7h-109l-1 -10q-3 -17 1 -22t16 -5q13 0 55 14q28 10 31 -17l16 -139q2 -18 -16 -28q-71 -38 -169 -38q-97 -1 -150 54.5t-40 149.5l6 41h-50q-11 0 -17 8t-4 17zM76 261h50q8 0 15 -7t6 -18l-10 -66q-10 -73 29 -114t118 -40q68 0 125 23l-10 93
q-28 -8 -46 -8q-32 0 -48.5 21.5t-11.5 55.5l5 35q2 9 10 17t19 8h109l8 59h-109q-9 0 -15.5 7t-5.5 18l9 61q1 9 9 17t19 8h109l9 60h-109q-9 0 -16 7t-6 18l19 126h-151l-19 -126q-1 -9 -9 -17t-19 -8h-50l-9 -60h50q9 0 16 -7t6 -18l-9 -61q-2 -9 -10 -17t-19 -8h-50z
" />
    <glyph glyph-name="Utilde" unicode="&#x168;" horiz-adv-x="755" 
d="M66 296l58 405q1 11 10.5 18t18.5 7h208q11 0 17 -8t4 -17l-58 -405q-7 -50 17 -78t67 -28t72 27t37 79l58 405q1 11 10.5 18t18.5 7h208q11 0 17 -8t4 -17l-58 -405q-22 -150 -131.5 -240t-268.5 -90q-160 0 -245.5 90t-63.5 240zM116 296q-19 -129 52.5 -204.5
t213.5 -75.5q141 0 232.5 75t110.5 205l54 380h-158l-54 -380q-10 -70 -56.5 -113t-109.5 -43q-64 0 -100.5 43.5t-26.5 112.5l54 380h-158zM278 774q13 93 54.5 144.5t110.5 51.5q18 0 35.5 -4.5t29.5 -10.5t21 -12.5t14.5 -11t6.5 -4.5q3 10 4 15q1 10 10.5 17.5t17.5 7.5
h122q11 0 17 -8t5 -17q-13 -92 -54.5 -144t-109.5 -52q-23 0 -44 6.5t-32.5 14t-21 15t-10.5 7.5q-2 -5 -3 -15q-2 -11 -11 -18t-18 -7h-123q-11 0 -17 8t-4 17zM332 799h75q6 17 20.5 28.5t33.5 11.5q25 0 53.5 -21.5t54.5 -21.5q40 0 64.5 27t38.5 94h-74q-11 -25 -31 -35
q-10 -5 -25 -5q-25 0 -53.5 21.5t-52.5 21.5q-41 0 -66 -27t-38 -94z" />
    <glyph glyph-name="utilde" unicode="&#x169;" horiz-adv-x="668" 
d="M50 199l49 345q2 11 11 18t18 7h202q11 0 17 -8t4 -17l-41 -288q-8 -62 39 -62q59 2 71 81l38 269q2 11 11 18t18 7h202q11 0 17 -8t4 -17l-78 -544q-1 -11 -10.5 -18t-18.5 -7h-202q-11 0 -17 8t-4 17l2 15q-66 -49 -149 -49q-96 0 -147 64.5t-36 168.5zM100 199
q-13 -85 26 -134t114 -49q97 0 158 78q14 16 24 13t15 -15l5 -11l-8 -56h152l71 494h-152l-35 -244q-8 -55 -42.5 -92.5t-85.5 -38.5q-45 0 -67 32t-15 80l38 263h-152zM205 617q13 93 54.5 144.5t110.5 51.5q18 0 35.5 -4.5t29.5 -10.5t21 -12.5t14.5 -11t6.5 -4.5
q3 4 4 15t10.5 18t18.5 7h122q11 0 17 -8t4 -17q-13 -93 -54 -144.5t-110 -51.5q-22 0 -43 6.5t-32.5 14t-21 15t-10.5 7.5q-2 -4 -4 -15q-1 -11 -10.5 -18t-18.5 -7h-123q-11 0 -17 8t-4 17zM259 642h75q6 17 21 28.5t33 11.5q26 0 54 -21.5t54 -21.5q41 0 65 27t38 94h-74
q-9 -24 -30 -35q-11 -5 -25 -5q-26 0 -54.5 21.5t-52.5 21.5q-41 0 -65.5 -27t-38.5 -94z" />
    <glyph glyph-name="Umacron" unicode="&#x16a;" horiz-adv-x="755" 
d="M66 296l58 405q1 11 10.5 18t18.5 7h208q11 0 17 -8t4 -17l-58 -405q-7 -50 17 -78t67 -28t72 27t37 79l58 405q1 11 10.5 18t18.5 7h208q11 0 17 -8t4 -17l-58 -405q-22 -150 -131.5 -240t-268.5 -90q-160 0 -245.5 90t-63.5 240zM116 296q-19 -129 52.5 -204.5
t213.5 -75.5q141 0 232.5 75t110.5 205l54 380h-158l-54 -380q-10 -70 -56.5 -113t-109.5 -43q-64 0 -100.5 43.5t-26.5 112.5l54 380h-158zM321 785l19 133q1 11 10.5 18t18.5 7h290q11 0 17 -8t4 -17l-19 -133q-1 -10 -10.5 -17.5t-17.5 -7.5h-290q-11 0 -17 8t-5 17z
M375 810h240l12 83h-240z" />
    <glyph glyph-name="umacron" unicode="&#x16b;" horiz-adv-x="668" 
d="M50 199l49 345q2 11 11 18t18 7h202q11 0 17 -8t4 -17l-41 -288q-8 -62 39 -62q59 2 71 81l38 269q2 11 11 18t18 7h202q11 0 17 -8t4 -17l-78 -544q-1 -11 -10.5 -18t-18.5 -7h-202q-11 0 -17 8t-4 17l2 15q-66 -49 -149 -49q-96 0 -147 64.5t-36 168.5zM100 199
q-13 -85 26 -134t114 -49q97 0 158 78q14 16 24 13t15 -15l5 -11l-8 -56h152l71 494h-152l-35 -244q-8 -55 -42.5 -92.5t-85.5 -38.5q-45 0 -67 32t-15 80l38 263h-152zM248 628l20 133q1 10 10.5 17.5t17.5 7.5h290q11 0 17 -8t5 -17l-20 -133q-1 -11 -10 -18t-18 -7h-290
q-11 0 -17 8t-5 17zM302 653h240l12 83h-240z" />
    <glyph glyph-name="Ubreve" unicode="&#x16c;" horiz-adv-x="755" 
d="M66 296l58 405q1 11 10.5 18t18.5 7h208q11 0 17 -8t4 -17l-58 -405q-7 -50 17 -78t67 -28t72 27t37 79l58 405q1 11 10.5 18t18.5 7h208q11 0 17 -8t4 -17l-58 -405q-22 -150 -131.5 -240t-268.5 -90q-160 0 -245.5 90t-63.5 240zM116 296q-19 -129 52.5 -204.5
t213.5 -75.5q141 0 232.5 75t110.5 205l54 380h-158l-54 -380q-10 -70 -56.5 -113t-109.5 -43q-64 0 -100.5 43.5t-26.5 112.5l54 380h-158zM311 921q1 10 9 18t19 8h123q10 0 16.5 -7t5.5 -16q-1 -31 23 -31t31 31q2 10 10.5 16.5t17.5 6.5h123q11 0 17.5 -7t4.5 -19
q-16 -86 -79 -138.5t-149 -52.5q-85 0 -132.5 52.5t-39.5 138.5zM360 897q3 -55 37 -86t93 -31q60 0 103 30.5t61 86.5h-75q-11 -24 -32.5 -39t-47.5 -15t-42.5 15t-21.5 39h-75z" />
    </font>
</defs>
</svg>
