<?xml version="1.0" standalone="no"?>
<!DOCTYPE svg PUBLIC "-//W3C//DTD SVG 1.1//EN" "http://www.w3.org/Graphics/SVG/1.1/DTD/svg11.dtd" >
<svg xmlns="http://www.w3.org/2000/svg" xmlns:xlink="http://www.w3.org/1999/xlink" version="1.1">
<metadata>
Created by FontForge 20170731 at Wed Jan  4 18:37:23 2017
 By Aleksey,,,
Copyright (c) 2014 by Julieta Ulanovsky. All rights reserved, Design Modifications and new weights 2015, Jasper @ Cannot Into Space Fonts
</metadata>
<defs>
<font id="TruenoBlkIt" horiz-adv-x="690" >
  <font-face 
    font-family="Trueno"
    font-weight="900"
    font-style="italic"
    font-stretch="normal"
    units-per-em="1000"
    panose-1="0 0 10 0 0 0 0 0 0 0"
    ascent="800"
    descent="-200"
    x-height="547"
    cap-height="701"
    bbox="-273 -340 1535.21 981"
    underline-thickness="50"
    underline-position="-200"
    unicode-range="U+0020-FB02"
  />
<missing-glyph horiz-adv-x="500" 
d="M0 0l101 700h500l-101 -700h-500zM64 95l206 255l-133 255zM87 50h340l-133 255zM174 650l133 -255l207 255h-340zM330 350l134 -255l73 510z" />
    <glyph glyph-name="fi" unicode="fi" horiz-adv-x="761" 
d="M75 385l21 142h75l6 39q12 86 81 136.5t172 49.5q66 0 109 -16l-32 -177q-24 19 -53 19q-24 1 -39.5 -11.5t-18.5 -34.5l-1 -5h106l-21 -142h-106l-55 -385h-224l55 385h-75zM481 0l79 547h225l-79 -547h-225zM581 703q8 50 44.5 82t86.5 32t77 -32t20 -82
q-8 -50 -44 -82t-86 -32t-77.5 32t-20.5 82z" />
    <glyph glyph-name="fl" unicode="fl" horiz-adv-x="771" 
d="M75 385l21 142h75l6 39q12 86 81 136.5t172 49.5q66 0 109 -16l-32 -177q-24 19 -53 19q-24 1 -39.5 -11.5t-18.5 -34.5l-1 -5h106l-21 -142h-106l-55 -385h-224l55 385h-75zM486 0l107 742h225l-107 -742h-225z" />
    <glyph glyph-name=".notdef" horiz-adv-x="500" 
d="M0 0l101 700h500l-101 -700h-500zM64 95l206 255l-133 255zM87 50h340l-133 255zM174 650l133 -255l207 255h-340zM330 350l134 -255l73 510z" />
    <glyph glyph-name=".null" horiz-adv-x="0" 
 />
    <glyph glyph-name="nonmarkingreturn" horiz-adv-x="333" 
 />
    <glyph glyph-name="space" unicode=" " horiz-adv-x="209" 
 />
    <glyph glyph-name="exclam" unicode="!" horiz-adv-x="294" 
d="M54 95q7 45 39 73.5t77 28.5q46 0 71 -28.5t18 -73.5q-7 -46 -39.5 -74.5t-78.5 -28.5q-45 0 -69.5 28.5t-17.5 74.5zM115 517l26 184h214l-26 -184l-78 -259h-134z" />
    <glyph glyph-name="quotedbl" unicode="&#x22;" horiz-adv-x="509" 
d="M117 399l44 302h168l-44 -302h-168zM338 399l44 302h168l-44 -302h-168z" />
    <glyph glyph-name="numbersign" unicode="#" horiz-adv-x="745" 
d="M24 138l41 153h130l30 110h-129l40 153h130l39 147h160l-39 -147h105l39 147h160l-39 -147h130l-40 -153h-131l-30 -110h130l-41 -153h-130l-37 -138h-160l37 138h-105l-37 -138h-160l37 138h-130zM355 291h105l30 110h-105z" />
    <glyph glyph-name="dollar" unicode="$" horiz-adv-x="664" 
d="M23 105l111 174q47 -44 122 -76.5t129 -32.5q56 0 62 36q3 21 -22 35.5t-64 22t-84 23t-82 35.5t-58 61.5t-13 99.5q12 81 70 137t150 78l24 166h166l-23 -156q141 -12 238 -80l-109 -176q-53 32 -119.5 57t-109.5 25t-47 -29q-3 -18 15.5 -30t49 -21t68 -18.5t74 -26
t65 -39t43 -61.5t6.5 -91q-14 -99 -90 -155.5t-187 -67.5l-23 -160h-166l25 170q-134 26 -221 100z" />
    <glyph glyph-name="percent" unicode="%" horiz-adv-x="1068" 
d="M96 491q14 97 78.5 155.5t157.5 58.5t140 -58.5t33 -155.5q-14 -98 -78 -157t-157 -59t-140.5 59t-33.5 157zM186 0l588 701h209l-588 -701h-209zM237 491q-7 -44 7 -70.5t43 -26.5t50 26.5t28 70.5q6 44 -7.5 70t-42.5 26t-50.5 -26.5t-27.5 -69.5zM664 211
q14 97 78.5 155.5t157.5 58.5t140 -58.5t33 -155.5q-14 -98 -78 -157t-157 -59t-140.5 59t-33.5 157zM805 211q-7 -44 7 -70.5t43 -26.5t50 26.5t28 70.5q6 44 -7.5 70t-42.5 26t-50.5 -26.5t-27.5 -69.5z" />
    <glyph glyph-name="ampersand" unicode="&#x26;" horiz-adv-x="706" 
d="M82 200q9 62 49 104.5t105 77.5q-40 75 -29 150q12 83 76.5 131t164.5 48q97 0 152 -47t45 -120q-10 -67 -58 -111t-128 -81q42 -53 63 -78q33 50 50 98l126 -101q-29 -61 -72 -113l83 -89l-129 -109l-78 87q-94 -57 -195 -57q-111 0 -174.5 59t-50.5 151zM267 217
q-4 -33 15.5 -52.5t55.5 -19.5q32 0 64 15q-39 45 -94 115q-37 -29 -41 -58zM381 533q-5 -38 12 -76q71 40 77 85q3 20 -7 32.5t-30 12.5q-21 0 -34.5 -15t-17.5 -39z" />
    <glyph glyph-name="quotesingle" unicode="'" horiz-adv-x="288" 
d="M117 399l44 302h168l-44 -302h-168z" />
    <glyph glyph-name="parenleft" unicode="(" horiz-adv-x="370" 
d="M92 309q36 247 195 433h201q-152 -202 -185 -433q-33 -233 60 -433h-201q-106 184 -70 433z" />
    <glyph glyph-name="parenright" unicode=")" horiz-adv-x="370" 
d="M-29 -124q153 204 186 433q33 231 -61 433h201q107 -185 71 -433q-35 -246 -196 -433h-201z" />
    <glyph glyph-name="asterisk" unicode="*" horiz-adv-x="406" 
d="M91 496l85 43l-72 41l69 97l68 -47l10 88h110l-14 -88l81 45l42 -95l-85 -41l72 -43l-68 -96l-70 47l-9 -88h-110l16 89l-83 -46z" />
    <glyph glyph-name="plus" unicode="+" horiz-adv-x="520" 
d="M67 259l20 140h160l24 160h140l-24 -160h160l-20 -140h-160l-23 -160h-140l23 160h-160z" />
    <glyph glyph-name="comma" unicode="," horiz-adv-x="265" 
d="M2 -110l70 127q-34 25 -27 78q7 45 39.5 73.5t77.5 28.5q43 0 69 -27t19 -74q-5 -39 -39 -80l-105 -126h-104z" />
    <glyph glyph-name="hyphen" unicode="-" horiz-adv-x="380" 
d="M84 239l21 140h279l-20 -140h-280z" />
    <glyph glyph-name="period" unicode="." horiz-adv-x="265" 
d="M44 95q7 45 39 73.5t77 28.5q46 0 71 -28.5t18 -73.5q-7 -46 -39.5 -74.5t-78.5 -28.5q-45 0 -69.5 28.5t-17.5 74.5z" />
    <glyph glyph-name="slash" unicode="/" horiz-adv-x="373" 
d="M-65 -104l460 910h188l-460 -910h-188z" />
    <glyph glyph-name="zero" unicode="0" horiz-adv-x="713" 
d="M86 351q25 173 121 265t252 92q155 0 225 -92.5t45 -264.5t-121.5 -265t-251.5 -93q-156 0 -225.5 92.5t-44.5 265.5zM324 351q-15 -107 -3 -148.5t59 -41.5t71.5 42t39.5 148q15 107 3 148t-59 41t-71.5 -41.5t-39.5 -147.5z" />
    <glyph glyph-name="one" unicode="1" horiz-adv-x="435" 
d="M77 518l26 183h354l-101 -701h-232l75 518h-122z" />
    <glyph glyph-name="two" unicode="2" horiz-adv-x="610" 
d="M39 0l21 145l279 253q60 56 64 89q2 18 -8 27.5t-32 9.5q-79 0 -203 -90l-62 167q175 110 327 110q109 0 173.5 -52.5t52.5 -137.5q-15 -101 -170 -237l-121 -106h252l-26 -178h-547z" />
    <glyph glyph-name="three" unicode="3" horiz-adv-x="575" 
d="M5 83l117 176q66 -98 158 -98q72 0 81 61t-63 61h-127l17 121l152 127h-233l24 168h494l-19 -130l-172 -145l29 -7q66 -16 101 -67t24 -127q-15 -104 -101 -168.5t-212 -64.5q-78 0 -151.5 25.5t-118.5 67.5z" />
    <glyph glyph-name="four" unicode="4" horiz-adv-x="664" 
d="M44 135l22 152l265 414h221l-249 -400h95l20 134h215l-20 -134h89l-24 -166h-89l-19 -135h-215l19 135h-330z" />
    <glyph glyph-name="five" unicode="5" horiz-adv-x="611" 
d="M15 83l117 176q62 -98 155 -98q75 0 84 62q4 29 -13 43t-54 14h-197l61 421h489l-26 -178h-277l-10 -74h31q127 0 194 -57t54 -153q-17 -113 -107 -181t-225 -68q-74 0 -149 25.5t-127 67.5z" />
    <glyph glyph-name="six" unicode="6" horiz-adv-x="648" 
d="M84 343q24 167 132 267.5t264 100.5q65 0 128.5 -17t105.5 -45l-112 -162q-50 46 -133 46q-137 0 -153 -117q61 52 152 52q102 0 155.5 -64t38.5 -167q-16 -113 -101 -180t-209 -67q-148 0 -219.5 95.5t-48.5 257.5zM310 237q-9 -63 60 -63q68 0 77 64q9 62 -58 62
q-70 0 -79 -63z" />
    <glyph glyph-name="seven" unicode="7" horiz-adv-x="617" 
d="M104 523l26 178h579l-22 -155l-320 -546h-245l306 523h-120l-14 -98z" />
    <glyph glyph-name="eight" unicode="8" horiz-adv-x="656" 
d="M53 195q8 56 49 105.5t101 74.5q-35 27 -53 67t-12 80q13 86 92 137.5t199 51.5q121 0 186 -53.5t52 -142.5q-6 -40 -31.5 -78t-62.5 -62q47 -26 71 -73.5t16 -102.5q-13 -95 -104 -152t-229 -57t-213 56t-61 149zM276 219q-5 -32 13.5 -47.5t60.5 -15.5q86 0 95 63
q9 65 -76 65q-84 0 -93 -65zM329 503q-4 -27 12.5 -40.5t51.5 -13.5q71 0 78 54q4 29 -11.5 43t-50.5 14q-73 0 -80 -57z" />
    <glyph glyph-name="nine" unicode="9" horiz-adv-x="648" 
d="M35 52l112 162q50 -46 133 -46q136 0 153 117q-61 -52 -152 -52q-102 0 -155.5 64t-38.5 167q16 113 101 180t209 67q148 0 219.5 -95.5t48.5 -257.5q-24 -167 -132 -267.5t-264 -100.5q-65 0 -128.5 17t-105.5 45zM302 463q-9 -62 58 -62q70 0 79 63t-60 63
q-68 0 -77 -64z" />
    <glyph glyph-name="colon" unicode=":" horiz-adv-x="265" 
d="M44 95q7 45 39 73.5t77 28.5q46 0 71 -28.5t18 -73.5q-7 -46 -39.5 -74.5t-78.5 -28.5q-45 0 -69.5 28.5t-17.5 74.5zM86 392q7 45 39.5 73.5t77.5 28.5q46 0 71 -28.5t18 -73.5q-7 -46 -39.5 -74.5t-78.5 -28.5q-45 0 -70 28.5t-18 74.5z" />
    <glyph glyph-name="semicolon" unicode=";" horiz-adv-x="265" 
d="M2 -110l70 127q-34 25 -27 78q7 45 39.5 73.5t77.5 28.5q43 0 69 -27t19 -74q-5 -39 -39 -80l-105 -126h-104zM86 392q7 45 39.5 73.5t77.5 28.5q46 0 70.5 -28.5t17.5 -73.5q-7 -46 -39 -74.5t-78 -28.5q-45 0 -70 28.5t-18 74.5z" />
    <glyph glyph-name="less" unicode="&#x3c;" horiz-adv-x="520" 
d="M64 234l25 178l487 185l-22 -156l-333 -118l299 -118l-23 -156z" />
    <glyph glyph-name="equal" unicode="=" horiz-adv-x="520" 
d="M51 149l21 140h460l-21 -140h-460zM83 369l20 140h460l-20 -140h-460z" />
    <glyph glyph-name="greater" unicode="&#x3e;" horiz-adv-x="520" 
d="M39 59l22 156l333 118l-299 118l22 156l434 -185l-26 -178z" />
    <glyph glyph-name="question" unicode="?" horiz-adv-x="498" 
d="M67 455q17 121 91.5 188.5t191.5 67.5q109 0 163 -48t41 -134q-6 -40 -26 -74t-45.5 -57.5t-51 -45t-44.5 -47.5t-23 -55h-167q7 50 30 89.5t46.5 59t44 44t24.5 49.5q6 42 -38 42q-53 0 -65 -79h-172zM153 95q7 45 39 73.5t77 28.5q46 0 71 -28.5t18 -73.5
q-7 -46 -39.5 -74.5t-78.5 -28.5q-45 0 -69.5 28.5t-17.5 74.5z" />
    <glyph glyph-name="at" unicode="@" horiz-adv-x="865" 
d="M54 268q26 180 167.5 305t318.5 125q176 0 276 -120t74 -302q-16 -109 -79.5 -176t-147.5 -67q-97 0 -108 74l-1 7q-60 -71 -142 -71t-135 64t-39 164q14 97 76.5 164.5t148.5 67.5q32 0 59 -13.5t38 -26.5l11 -13l6 41h135l-47 -325q-6 -44 24 -44q27 0 55.5 43.5
t37.5 107.5q20 142 -47.5 234t-209.5 92q-130 0 -236.5 -97t-126.5 -234q-19 -134 55 -224t203 -90q104 0 193 63l39 -86q-48 -34 -117 -55t-129 -21q-176 0 -276.5 118t-75.5 295zM387 276q-7 -46 8.5 -79t48.5 -33q36 0 61 32t32 79q6 45 -10.5 74.5t-52.5 29.5
q-32 0 -56.5 -30t-30.5 -73z" />
    <glyph glyph-name="A" unicode="A" horiz-adv-x="799" 
d="M-10 0l397 701h238l184 -701h-247l-21 99h-263l-50 -99h-238zM362 265h146l-42 205z" />
    <glyph glyph-name="B" unicode="B" horiz-adv-x="724" 
d="M50 0l101 701h355q127 0 195.5 -48.5t57.5 -128.5q-8 -52 -46 -93t-94 -57q61 -14 92 -62.5t21 -114.5q-13 -90 -97.5 -143.5t-212.5 -53.5h-372zM305 170h111q32 0 54 15.5t26 40.5q3 23 -14.5 37t-49.5 14h-111zM343 431h111q24 0 40.5 14t19.5 37t-9 36t-36 13h-111z
" />
    <glyph glyph-name="C" unicode="C" horiz-adv-x="688" 
d="M66 352q23 155 144.5 255.5t286.5 100.5q81 0 156.5 -35t121.5 -93l-157 -159q-25 43 -65 68.5t-81 25.5q-63 0 -110.5 -45t-57.5 -115t24.5 -116t97.5 -46q38 0 84 21.5t86 58.5l114 -143q-68 -64 -156 -102t-169 -38q-161 0 -251.5 102.5t-67.5 259.5z" />
    <glyph glyph-name="D" unicode="D" horiz-adv-x="759" 
d="M50 0l101 701h313q174 0 264 -95t67 -255t-143 -255.5t-298 -95.5h-304zM308 180h87q63 0 107 46t55 123q11 78 -23 125t-101 47h-76z" />
    <glyph glyph-name="E" unicode="E" 
d="M50 0l101 701h593l-25 -176h-361l-13 -86h328l-25 -176h-328l-13 -87h370l-25 -176h-602z" />
    <glyph glyph-name="F" unicode="F" horiz-adv-x="631" 
d="M50 0l101 701h564l-25 -176h-332l-18 -121h311l-25 -176h-311l-33 -228h-232z" />
    <glyph glyph-name="G" unicode="G" horiz-adv-x="738" 
d="M65 350q23 155 149 256.5t298 101.5q82 0 160 -29.5t127 -78.5l-153 -159q-31 34 -75 54t-88 20q-67 0 -118 -47t-62 -118q-10 -73 28 -120t106 -47q37 0 96 23l23 163h199l-41 -289q-64 -39 -154.5 -64.5t-165.5 -25.5q-165 0 -258 102t-71 258z" />
    <glyph glyph-name="H" unicode="H" horiz-adv-x="781" 
d="M50 0l101 701h232l-39 -272h217l39 272h232l-101 -701h-232l36 253h-217l-36 -253h-232z" />
    <glyph glyph-name="I" unicode="I" horiz-adv-x="332" 
d="M50 0l101 701h232l-101 -701h-232z" />
    <glyph glyph-name="J" unicode="J" horiz-adv-x="569" 
d="M8 112l127 150q68 -79 134 -79q53 0 62 59l66 459h233l-67 -464q-17 -117 -97 -182t-202 -65q-162 0 -256 122z" />
    <glyph glyph-name="K" unicode="K" horiz-adv-x="773" 
d="M50 0l101 701h232l-35 -243l244 243h267l-291 -282l205 -419h-277l-111 241l-79 -76l-24 -165h-232z" />
    <glyph glyph-name="L" unicode="L" horiz-adv-x="584" 
d="M50 0l101 701h232l-73 -508h292l-28 -193h-524z" />
    <glyph glyph-name="M" unicode="M" horiz-adv-x="896" 
d="M50 0l101 701h245l100 -366l206 366h245l-101 -701h-202l55 384l-165 -316h-152l-75 316l-55 -384h-202z" />
    <glyph glyph-name="N" unicode="N" horiz-adv-x="781" 
d="M50 0l101 701h194l225 -360l52 360h210l-101 -701h-194l-224 358l-52 -358h-211z" />
    <glyph glyph-name="O" unicode="O" horiz-adv-x="800" 
d="M66 351q22 156 145.5 256.5t290.5 100.5t261.5 -101t72.5 -256q-23 -156 -146.5 -258.5t-290.5 -102.5t-261.5 102t-71.5 259zM303 350q-10 -71 27.5 -119t98.5 -48q60 0 109 48t59 119t-24.5 118t-95.5 47q-62 0 -113 -47t-61 -118z" />
    <glyph glyph-name="P" unicode="P" horiz-adv-x="686" 
d="M50 0l101 701h329q137 0 202.5 -65.5t48.5 -185.5q-18 -127 -103.5 -197.5t-222.5 -70.5h-97l-26 -182h-232zM334 358h85q37 0 61 22t30 63q5 39 -12.5 60.5t-54.5 21.5h-85z" />
    <glyph glyph-name="Q" unicode="Q" horiz-adv-x="797" 
d="M66 351q22 156 145.5 256.5t290.5 100.5t261.5 -101t72.5 -256q-16 -112 -87.5 -199t-177.5 -129q20 -33 54 -33q45 0 118 48l58 -137q-45 -35 -108 -56.5t-118 -21.5q-79 0 -133 45.5t-71 122.5q-155 9 -241 109.5t-64 250.5zM303 350q-10 -71 27.5 -119t98.5 -48
q60 0 109 48t59 119t-24.5 118t-95.5 47q-62 0 -113 -47t-61 -118z" />
    <glyph glyph-name="R" unicode="R" horiz-adv-x="725" 
d="M50 0l101 701h339q143 0 211.5 -65.5t51.5 -185.5q-23 -154 -143 -222l105 -228h-262l-58 182h-87l-26 -182h-232zM334 358h107q37 0 61 22t30 63q5 39 -12.5 60.5t-54.5 21.5h-107z" />
    <glyph glyph-name="S" unicode="S" horiz-adv-x="664" 
d="M23 105l111 174q47 -44 122 -76.5t129 -32.5q56 0 62 36q3 21 -22 35.5t-64 22t-84 23t-82 35.5t-58 61.5t-13 99.5q15 105 105 166.5t227 61.5q82 0 160 -22.5t133 -60.5l-109 -176q-53 32 -119.5 57t-109.5 25t-47 -29q-3 -18 15.5 -30t49 -21t68 -18.5t74 -26t65 -39
t43 -61.5t6.5 -91q-16 -111 -108 -168t-219 -57q-93 0 -183.5 29.5t-151.5 82.5z" />
    <glyph glyph-name="T" unicode="T" horiz-adv-x="641" 
d="M80 518l26 183h631l-26 -183h-200l-75 -518h-232l75 518h-199z" />
    <glyph glyph-name="U" unicode="U" horiz-adv-x="753" 
d="M83 297l58 404h232l-58 -404q-7 -50 19.5 -82t71.5 -32q44 0 77.5 31.5t40.5 82.5l58 404h232l-58 -404q-20 -140 -123 -223.5t-255 -83.5q-153 0 -234 84t-61 223z" />
    <glyph glyph-name="V" unicode="V" horiz-adv-x="764" 
d="M96 701h248l79 -460l210 460h237l-369 -701h-240z" />
    <glyph glyph-name="W" unicode="W" horiz-adv-x="1121" 
d="M96 701h248l40 -460l170 459l226 1l40 -460l170 460h237l-330 -701h-239l-37 419l-160 -419h-239z" />
    <glyph glyph-name="X" unicode="X" horiz-adv-x="773" 
d="M-5 0l297 356l-181 345h270l78 -165l126 165h273l-275 -334l195 -367h-278l-92 181l-142 -181h-271z" />
    <glyph glyph-name="Y" unicode="Y" horiz-adv-x="719" 
d="M91 701h231l102 -270l175 270h231l-321 -483l-31 -218h-232l31 213z" />
    <glyph glyph-name="Z" unicode="Z" horiz-adv-x="683" 
d="M20 0l21 145l381 378h-315l26 178h624l-21 -145l-381 -378h334l-26 -178h-643z" />
    <glyph glyph-name="bracketleft" unicode="[" horiz-adv-x="377" 
d="M32 -124l125 866h317l-24 -166h-117l-77 -534h117l-24 -166h-317z" />
    <glyph glyph-name="backslash" unicode="\" horiz-adv-x="373" 
d="M22 806h188l198 -910h-188z" />
    <glyph glyph-name="bracketright" unicode="]" horiz-adv-x="397" 
d="M12 -124l24 166h117l77 534h-117l24 166h317l-125 -866h-317z" />
    <glyph glyph-name="asciicircum" unicode="^" horiz-adv-x="608" 
d="M51 143l239 380h178l131 -380h-156l-81 261l-155 -261h-156z" />
    <glyph glyph-name="underscore" unicode="_" horiz-adv-x="599" 
d="M-29 -204l17 120h599l-17 -120h-599z" />
    <glyph glyph-name="grave" unicode="`" horiz-adv-x="350" 
d="M131 720l198 60l80 -189h-160z" />
    <glyph glyph-name="a" unicode="a" horiz-adv-x="613" 
d="M38 162q24 164 236 167h125q3 29 -16 44.5t-60 15.5q-72 0 -171 -35l-28 150q153 53 277 53q119 0 178 -53.5t45 -149.5l-51 -354h-221l9 59q-60 -69 -164 -69q-86 0 -128 46.5t-31 125.5zM252 181q-6 -48 43 -48q48 0 82 42l7 50h-78q-48 0 -54 -44z" />
    <glyph glyph-name="b" unicode="b" 
d="M60 0l107 742h225l-36 -250q63 63 148 63q114 0 171.5 -77.5t38.5 -207.5q-18 -127 -95.5 -202.5t-189.5 -75.5q-89 0 -136 64l-8 -56h-225zM325 276q-7 -48 10.5 -77t54.5 -29q38 0 64.5 29t33.5 77t-11.5 77t-55.5 29t-63 -29t-33 -77z" />
    <glyph glyph-name="c" unicode="c" horiz-adv-x="561" 
d="M54 271q19 129 109 206.5t221 77.5q89 0 151 -41.5t85 -116.5l-190 -76q-14 52 -62 52q-33 0 -56.5 -27.5t-30.5 -73.5q-7 -47 8.5 -74.5t48.5 -27.5q50 0 76 59l170 -84q-40 -73 -114.5 -113t-168.5 -40q-130 0 -197.5 76t-49.5 203z" />
    <glyph glyph-name="d" unicode="d" 
d="M55 277q18 127 95.5 202.5t189.5 75.5q89 0 136 -64l36 251h225l-107 -742h-225l8 55q-63 -63 -148 -63q-114 0 -171.5 77.5t-38.5 207.5zM281 271q-7 -48 11.5 -77t55.5 -29t63 29t33 77t-11 77t-55 29t-63.5 -29t-33.5 -77z" />
    <glyph glyph-name="e" unicode="e" horiz-adv-x="614" 
d="M54 271q19 129 110 206.5t223 77.5q143 0 208.5 -90t34.5 -242h-356q14 -65 82 -65q58 0 118 49l100 -115q-105 -100 -262 -100q-139 0 -207.5 75.5t-50.5 203.5zM284 327h136q7 34 -8.5 56t-44.5 22q-56 0 -83 -78z" />
    <glyph glyph-name="f" unicode="f" horiz-adv-x="426" 
d="M74 375l21 142h75l7 49q12 86 81 136.5t172 49.5q104 0 174 -39l-97 -154q-24 19 -53 19q-24 1 -39.5 -11.5t-18.5 -34.5l-2 -15h106l-21 -142h-106l-54 -375h-224l54 375h-75z" />
    <glyph glyph-name="g" unicode="g" horiz-adv-x="654" 
d="M18 -133l93 151q70 -48 160 -48q49 0 78 18.5t34 50.5l7 52q-60 -58 -145 -58q-98 0 -151 72.5t-36 191.5q17 117 88.5 187.5t169.5 70.5q87 0 132 -59l8 51h224l-73 -502q-16 -113 -110 -181t-231 -68q-75 0 -140.5 20t-107.5 51zM267 291q-7 -44 10 -71t52 -27
q34 0 58.5 27t31.5 71q7 45 -10 72t-52 27q-34 0 -58.5 -27t-31.5 -72z" />
    <glyph glyph-name="h" unicode="h" horiz-adv-x="687" 
d="M60 0l107 742h225l-39 -273q71 88 178 88q87 0 133 -57t33 -151l-50 -349h-225l41 284q5 34 -10 54.5t-44 20.5q-33 0 -56 -24t-29 -64l-39 -271h-225z" />
    <glyph glyph-name="i" unicode="i" horiz-adv-x="335" 
d="M55 0l79 547h225l-79 -547h-225zM155 703q8 50 44.5 82t86.5 32t77 -32t20 -82q-8 -50 -44 -82t-86 -32t-77.5 32t-20.5 82z" />
    <glyph glyph-name="j" unicode="j" horiz-adv-x="348" 
d="M-113 -169l72 154q28 -14 53 -14q44 -2 50 46l77 530h225l-81 -564q-13 -86 -79 -136.5t-165 -49.5q-90 0 -152 34zM150 703q7 50 46.5 82t93.5 32q55 0 84.5 -32t21.5 -82t-46 -82t-93 -32q-54 0 -84 32t-23 82z" />
    <glyph glyph-name="k" unicode="k" horiz-adv-x="662" 
d="M60 0l107 742h225l-49 -337l148 142h254l-230 -211l148 -336h-267l-59 172l-31 -28l-21 -144h-225z" />
    <glyph glyph-name="l" unicode="l" horiz-adv-x="345" 
d="M60 0l107 742h225l-107 -742h-225z" />
    <glyph glyph-name="m" unicode="m" horiz-adv-x="1032" 
d="M55 0l79 547h225l-11 -77q71 87 175 87q62 0 104 -31t56 -86q73 117 196 117q85 0 130.5 -57t32.5 -151l-50 -349h-225l41 284q5 34 -9 54.5t-42 20.5q-31 0 -53.5 -24t-28.5 -64l-39 -271h-225l41 284q5 34 -9 54.5t-42 20.5q-31 0 -53.5 -24t-28.5 -64l-39 -271h-225z
" />
    <glyph glyph-name="n" unicode="n" horiz-adv-x="682" 
d="M55 0l79 547h225l-11 -78q71 88 178 88q87 0 133 -57t33 -151l-50 -349h-225l41 284q5 34 -10 54.5t-44 20.5q-33 0 -56 -24t-29 -64l-39 -271h-225z" />
    <glyph glyph-name="o" unicode="o" horiz-adv-x="648" 
d="M54 274q19 128 114 204.5t236 76.5t214 -76.5t54 -204.5t-113.5 -205t-235.5 -77t-214.5 77t-54.5 205zM281 271q-7 -48 11.5 -77t55.5 -29t63.5 29t33.5 77t-11.5 77t-55.5 29t-63.5 -29t-33.5 -77z" />
    <glyph glyph-name="p" unicode="p" 
d="M32 -194l107 741h225l-8 -55q63 63 148 63q114 0 171.5 -77.5t38.5 -207.5q-18 -127 -95.5 -202.5t-189.5 -75.5q-89 0 -136 64l-36 -250h-225zM325 276q-7 -48 10.5 -77t54.5 -29q38 0 64.5 29t33.5 77t-11.5 77t-55.5 29t-63 -29t-33 -77z" />
    <glyph glyph-name="q" unicode="q" 
d="M55 277q18 127 95.5 202.5t189.5 75.5q89 0 136 -64l8 56h225l-107 -741h-225l36 249q-63 -63 -148 -63q-114 0 -171.5 77.5t-38.5 207.5zM281 271q-7 -48 11.5 -77t55.5 -29t63 29t33 77t-11 77t-55 29t-63.5 -29t-33.5 -77z" />
    <glyph glyph-name="r" unicode="r" horiz-adv-x="457" 
d="M55 0l79 547h225l-12 -80q73 90 180 90l-29 -203q-74 11 -123.5 -14t-56.5 -79l-38 -261h-225z" />
    <glyph glyph-name="s" unicode="s" horiz-adv-x="552" 
d="M22 68l88 140q101 -68 192 -68q34 0 36 16q2 13 -25.5 22.5t-66.5 20.5t-77.5 28t-62 53t-15.5 88q13 86 85.5 137.5t182.5 51.5q131 0 244 -69l-94 -139q-112 60 -176 60q-31 0 -34 -18q-2 -13 26 -23.5t68 -22t79.5 -28.5t63.5 -53.5t16 -87.5q-12 -85 -86.5 -135.5
t-187.5 -50.5q-153 0 -256 78z" />
    <glyph glyph-name="t" unicode="t" horiz-adv-x="460" 
d="M62 375l21 142h75l22 153h224l-22 -153h128l-21 -142h-128l-24 -165q-3 -22 7.5 -34.5t30.5 -11.5q19 0 58 14l15 -154q-63 -34 -160 -34q-94 -1 -143 50t-37 136l29 199h-75z" />
    <glyph glyph-name="u" unicode="u" horiz-adv-x="672" 
d="M69 198l50 349h225l-41 -284q-5 -34 8.5 -54.5t40.5 -20.5q31 0 52.5 24t27.5 64l39 271h225l-79 -547h-225l11 76q-69 -86 -173 -86q-85 0 -129.5 57t-31.5 151z" />
    <glyph glyph-name="v" unicode="v" horiz-adv-x="612" 
d="M69 547h231l37 -343l139 343h225l-281 -547h-230z" />
    <glyph glyph-name="w" unicode="w" horiz-adv-x="977" 
d="M69 547h228l40 -326l131 326h208l40 -326l133 326h217l-279 -547h-220l-36 288l-123 -288h-220z" />
    <glyph glyph-name="x" unicode="x" horiz-adv-x="654" 
d="M-5 0l221 280l-131 267h258l44 -128l93 128h246l-209 -266l142 -281h-259l-53 142l-105 -142h-247z" />
    <glyph glyph-name="y" unicode="y" horiz-adv-x="624" 
d="M-40 -140l115 148q31 -32 69 -32q37 0 58 28l9 13l-150 530h231l63 -312l134 312h224l-309 -585q-90 -166 -264 -166q-103 0 -180 64z" />
    <glyph glyph-name="z" unicode="z" horiz-adv-x="568" 
d="M25 0l19 131l264 248h-218l24 168h502l-19 -131l-264 -248h238l-24 -168h-522z" />
    <glyph glyph-name="braceleft" unicode="{" horiz-adv-x="381" 
d="M46 224l25 170h45q17 0 25 7.5t11 26.5l23 163q13 86 59.5 119.5t155.5 33.5h88l-24 -165q-49 0 -66.5 -12.5t-22.5 -46.5l-11 -77q-9 -60 -35 -90.5t-80 -43.5q51 -13 68 -43t8 -91l-11 -77q-5 -34 9.5 -46.5t63.5 -12.5l-24 -165h-88q-109 0 -146.5 33.5t-24.5 119.5
l23 163q3 19 -3 26.5t-23 7.5h-45z" />
    <glyph glyph-name="bar" unicode="|" horiz-adv-x="326" 
d="M65 -103l130 899h166l-130 -899h-166z" />
    <glyph glyph-name="braceright" unicode="}" horiz-adv-x="381" 
d="M-8 -126l24 165q49 0 66.5 12.5t22.5 46.5l11 77q9 60 35.5 90.5t80.5 43.5q-51 13 -68.5 43.5t-8.5 90.5l11 77q5 34 -9.5 46.5t-63.5 12.5l24 165h88q109 0 146.5 -33.5t24.5 -119.5l-23 -163q-3 -19 3 -26.5t23 -7.5h45l-25 -170h-45q-17 0 -25 -7.5t-11 -26.5
l-23 -163q-13 -86 -59.5 -119.5t-155.5 -33.5h-88z" />
    <glyph glyph-name="asciitilde" unicode="~" horiz-adv-x="520" 
d="M80 229q15 103 53.5 152t103.5 49q40 0 75 -22t43 -22q26 0 32 41h148q-15 -103 -53 -152t-103 -49q-40 0 -75 22t-43 22q-26 0 -32 -41h-149z" />
    <glyph glyph-name="nbspace" unicode="&#xa0;" horiz-adv-x="209" 
 />
    <glyph glyph-name="exclamdown" unicode="&#xa1;" horiz-adv-x="294" 
d="M18 -155l26 184l78 259h134l2 -259l-26 -184h-214zM114 451q7 46 39.5 74.5t78.5 28.5q45 0 69.5 -28.5t17.5 -74.5q-7 -45 -39.5 -73.5t-77.5 -28.5q-46 0 -70.5 28.5t-17.5 73.5z" />
    <glyph glyph-name="cent" unicode="&#xa2;" horiz-adv-x="561" 
d="M54 271q16 109 84 182.5t171 94.5l24 166h166l-25 -172q113 -34 146 -145l-190 -76q-14 52 -62 52q-33 0 -56.5 -27.5t-30.5 -73.5q-7 -47 8.5 -74.5t48.5 -27.5q50 0 76 59l170 -84q-60 -108 -187 -141l-25 -169h-166l24 164q-97 20 -144.5 92t-31.5 180z" />
    <glyph glyph-name="sterling" unicode="&#xa3;" horiz-adv-x="566" 
d="M20 0l25 173h70l13 91h-70l22 152h70l7 48q17 118 94.5 182.5t201.5 64.5q137 0 214 -82l-109 -170q-56 59 -107 59q-53 0 -62 -59l-6 -43h159l-22 -152h-159l-13 -91h238l-25 -173h-541z" />
    <glyph glyph-name="currency" unicode="&#xa4;" horiz-adv-x="693" 
d="M31 111l117 102q-18 53 -9 110q7 53 36 102l-84 99l143 125l83 -97q55 25 112 25q59 0 107 -25l111 97l107 -125l-114 -99q14 -49 7 -102q-9 -59 -41 -109l88 -103l-143 -125l-90 105q-52 -22 -105 -22q-52 0 -99 21l-119 -104zM314 323q-5 -33 14.5 -56t52.5 -23
t60.5 23t31.5 56q5 33 -15.5 56.5t-53.5 23.5t-59 -23.5t-31 -56.5z" />
    <glyph glyph-name="yen" unicode="&#xa5;" horiz-adv-x="699" 
d="M85 148l12 82h173l-17 46h-149l11 81h106l-130 344h231l102 -270l175 270h231l-229 -344h85l-11 -81h-127l-31 -46h151l-12 -82h-157l-21 -148h-232l21 148h-182z" />
    <glyph glyph-name="brokenbar" unicode="&#xa6;" horiz-adv-x="326" 
d="M65 -103l49 339h166l-49 -339h-166zM146 457l49 339h166l-49 -339h-166z" />
    <glyph glyph-name="section" unicode="&#xa7;" horiz-adv-x="586" 
d="M10 -12l81 140q104 -68 191 -68q38 0 40 15q2 11 -18 21t-51 18t-66.5 22.5t-65 32.5t-46.5 50.5t-11 73.5q13 89 111 138q-25 20 -31 40t-2 48q11 78 82 126.5t179 48.5q127 0 244 -69l-87 -139q-116 60 -176 60q-34 0 -36 -16q-1 -10 14 -19t39.5 -17t54.5 -17.5
t59.5 -24t53 -33t35.5 -47t7 -64.5q-13 -89 -110 -137q22 -21 30 -39t3 -50q-11 -77 -84 -124.5t-185 -47.5q-149 0 -255 78zM270 308q-2 -14 19 -22.5t55 -8.5q53 0 56 20q2 14 -22 23t-57 9q-48 0 -51 -21z" />
    <glyph glyph-name="dieresis" unicode="&#xa8;" horiz-adv-x="350" 
d="M81 698q6 41 35 66.5t69 25.5t62 -25.5t16 -66.5q-6 -40 -35.5 -65.5t-69.5 -25.5t-61.5 25.5t-15.5 65.5zM289 698q6 41 35 66.5t69 25.5t62 -25.5t16 -66.5q-6 -40 -35.5 -65.5t-69.5 -25.5t-61.5 25.5t-15.5 65.5z" />
    <glyph glyph-name="copyright" unicode="&#xa9;" horiz-adv-x="707" 
d="M65 348q20 140 133 240.5t255 100.5t225.5 -99.5t63.5 -239.5t-133.5 -240.5t-255.5 -100.5q-141 0 -224.5 99.5t-63.5 239.5zM165 348q-14 -99 44.5 -169t158.5 -70q101 0 180.5 71t93.5 170t-44.5 169t-158.5 70t-180 -71t-94 -170zM240 349q10 70 65 115.5t129 45.5
q36 0 70.5 -16t54.5 -42l-70 -72q-25 43 -65 43q-29 0 -50.5 -20.5t-25.5 -51.5q-4 -32 11 -52.5t44 -20.5q37 0 76 36l51 -64q-66 -63 -146 -63q-73 0 -113.5 46t-30.5 116z" />
    <glyph glyph-name="ordfeminine" unicode="&#xaa;" horiz-adv-x="400" 
d="M91 556q15 100 151 102h77q0 28 -47 28q-41 0 -108 -19l-20 97q101 30 179 30t117 -32t30 -91l-31 -213h-149l5 33q-38 -40 -102 -40q-55 0 -82 28.5t-20 76.5zM236 568q-3 -24 23 -24t46 20l4 27h-45q-25 0 -28 -23z" />
    <glyph glyph-name="guillemotleft" unicode="&#xab;" horiz-adv-x="544" 
d="M22 273l152 193h180l-134 -193l78 -195h-180zM281 273l152 193h180l-134 -193l78 -195h-180z" />
    <glyph glyph-name="logicalnot" unicode="&#xac;" horiz-adv-x="593" 
d="M75 309l20 140h510l-46 -320h-160l26 180h-350z" />
    <glyph glyph-name="softhyphen" unicode="&#xad;" horiz-adv-x="380" 
d="M84 239l21 140h279l-20 -140h-280z" />
    <glyph glyph-name="registered" unicode="&#xae;" horiz-adv-x="707" 
d="M65 348q20 140 133 240.5t255 100.5t225.5 -99.5t63.5 -239.5t-133.5 -240.5t-255.5 -100.5q-141 0 -224.5 99.5t-63.5 239.5zM165 348q-14 -99 44.5 -169t158.5 -70q101 0 180.5 71t93.5 170t-44.5 169t-158.5 70t-180 -71t-94 -170zM254 211l44 301h141q61 0 91 -28
t22 -79q-9 -67 -61 -96l45 -98h-113l-24 78h-33l-12 -78h-100zM377 365h41q34 0 39 36t-29 36h-41z" />
    <glyph glyph-name="macron" unicode="&#xaf;" horiz-adv-x="350" 
d="M115 624l21 148h300l-21 -148h-300z" />
    <glyph glyph-name="degree" unicode="&#xb0;" horiz-adv-x="400" 
d="M187 703q8 50 48.5 85.5t90.5 35.5t80 -35.5t23 -85.5q-8 -50 -48 -85.5t-90 -35.5t-80.5 35.5t-23.5 85.5zM270 703q-2 -16 7.5 -27t25.5 -11t28.5 11t14.5 27t-7 27t-25 11t-29 -11t-15 -27z" />
    <glyph glyph-name="plusminus" unicode="&#xb1;" horiz-adv-x="520" 
d="M28 -16l20 140h460l-20 -140h-460zM80 345l19 133h160l22 152h140l-22 -152h160l-19 -133h-160l-22 -152h-140l22 152h-160z" />
    <glyph glyph-name="twosuperior" unicode="&#xb2;" horiz-adv-x="394" 
d="M68 280l14 93l173 149q33 31 36 48q1 8 -4 12t-17 4q-47 0 -126 -54l-43 108q113 67 212 67q70 0 111 -32t34 -83q-9 -62 -107 -143l-66 -54h149l-17 -115h-349z" />
    <glyph glyph-name="threesuperior" unicode="&#xb3;" horiz-adv-x="374" 
d="M47 331l78 114q40 -61 98 -61q40 0 44 30q2 16 -6.5 23.5t-28.5 7.5h-82l11 78l88 68h-142l16 108h318l-12 -84l-103 -79l19 -5q39 -10 60.5 -40.5t14.5 -76.5q-9 -62 -64 -101.5t-136 -39.5q-51 0 -97.5 16t-75.5 42z" />
    <glyph glyph-name="acute" unicode="&#xb4;" horiz-adv-x="350" 
d="M112 591l134 189l182 -60l-156 -129h-160z" />
    <glyph glyph-name="mu" unicode="&#xb5;" horiz-adv-x="692" 
d="M32 -194l107 741h225l-41 -284q-5 -34 8.5 -54.5t40.5 -20.5q31 0 52.5 24t27.5 64l39 271h225l-79 -547h-225l11 76q-57 -71 -139 -83l-27 -187h-225z" />
    <glyph glyph-name="paragraph" unicode="&#xb6;" horiz-adv-x="682" 
d="M64 513q14 97 87.5 163t204.5 66h383l-122 -847h-166l104 723h-72l-104 -723h-166l57 398h-22q-49 0 -86 14.5t-56.5 38t-31.5 53t-12 58.5t2 56z" />
    <glyph glyph-name="periodcentered" unicode="&#xb7;" horiz-adv-x="265" 
d="M72 292q7 45 39.5 73.5t77.5 28.5q46 0 70.5 -28.5t17.5 -73.5q-7 -46 -39.5 -74.5t-78.5 -28.5q-45 0 -69.5 28.5t-17.5 74.5z" />
    <glyph glyph-name="cedilla" unicode="&#xb8;" horiz-adv-x="350" 
d="M23 -213l53 90q13 -20 38 -20q38 0 43 33q2 16 -8 25t-30 9q-16 0 -38 -5l66 99h123l-47 -69q28 -10 42.5 -33t10.5 -50q-8 -52 -50.5 -82.5t-106.5 -30.5q-51 0 -96 34z" />
    <glyph glyph-name="onesuperior" unicode="&#xb9;" horiz-adv-x="286" 
d="M88 582l17 119h232l-61 -421h-156l44 302h-76z" />
    <glyph glyph-name="ordmasculine" unicode="&#xba;" horiz-adv-x="419" 
d="M102 623q11 78 71 124t150 46q91 0 138 -46t36 -124q-11 -77 -71.5 -123.5t-151.5 -46.5q-90 0 -136.5 46.5t-35.5 123.5zM254 621q-4 -26 6 -41t30 -15t34 15t18 41t-5.5 41.5t-29.5 15.5t-34.5 -15.5t-18.5 -41.5z" />
    <glyph glyph-name="guillemotright" unicode="&#xbb;" horiz-adv-x="544" 
d="M9 78l134 193l-78 195h180l96 -195l-152 -193h-180zM268 78l134 193l-78 195h180l96 -195l-152 -193h-180z" />
    <glyph glyph-name="onequarter" unicode="&#xbc;" horiz-adv-x="938" 
d="M83 0l588 701h209l-588 -701h-209zM88 582l17 119h232l-61 -421h-156l44 302h-76zM536 77l14 98l162 246h149l-150 -237h49l10 76h145l-10 -76h55l-16 -107h-55l-11 -77h-145l11 77h-208z" />
    <glyph glyph-name="onehalf" unicode="&#xbd;" horiz-adv-x="960" 
d="M83 0l588 701h209l-588 -701h-209zM88 582l17 119h232l-61 -421h-156l44 302h-76zM594 0l13 93l174 149q33 31 36 48q1 8 -4 12t-17 4q-48 0 -127 -54l-42 108q113 67 212 67q70 0 111 -32t34 -83q-9 -61 -108 -143l-65 -54h149l-17 -115h-349z" />
    <glyph glyph-name="threequarters" unicode="&#xbe;" horiz-adv-x="996" 
d="M47 331l78 114q40 -61 98 -61q40 0 44 30q2 16 -6.5 23.5t-28.5 7.5h-82l11 78l88 68h-142l16 108h318l-12 -84l-103 -79l19 -5q39 -10 60.5 -40.5t14.5 -76.5q-9 -62 -64 -101.5t-136 -39.5q-51 0 -97.5 16t-75.5 42zM141 0l588 701h209l-588 -701h-209zM594 77l14 98
l162 246h149l-150 -237h49l10 76h145l-10 -76h55l-16 -107h-55l-11 -77h-145l11 77h-208z" />
    <glyph glyph-name="questiondown" unicode="&#xbf;" horiz-adv-x="498" 
d="M23 18q6 40 26 74t45.5 57.5t51 45t44.5 47.5t23 55h167q-7 -50 -30 -89.5t-46.5 -59t-44 -44t-24.5 -49.5q-6 -42 38 -42q53 0 65 79h172q-17 -121 -92 -188.5t-192 -67.5q-109 0 -162.5 48t-40.5 134zM219 452q7 46 39.5 74.5t78.5 28.5q45 0 69.5 -28.5t17.5 -74.5
q-7 -45 -39.5 -73.5t-77.5 -28.5q-46 0 -70.5 28.5t-17.5 73.5z" />
    <glyph glyph-name="Agrave" unicode="&#xc0;" horiz-adv-x="799" 
d="M-10 0l397 701h238l184 -701h-247l-21 99h-263l-50 -99h-238zM341 874l199 60l79 -189h-160zM362 265h146l-42 205z" />
    <glyph glyph-name="Aacute" unicode="&#xc1;" horiz-adv-x="799" 
d="M-10 0l397 701h238l184 -701h-247l-21 99h-263l-50 -99h-238zM362 265h146l-42 205zM402 745l135 189l181 -60l-156 -129h-160z" />
    <glyph glyph-name="Acircumflex" unicode="&#xc2;" horiz-adv-x="799" 
d="M-10 0l397 701h238l184 -701h-247l-21 99h-263l-50 -99h-238zM305 761l144 162h168l98 -162h-150l-44 82l-66 -82h-150zM362 265h146l-42 205z" />
    <glyph glyph-name="Atilde" unicode="&#xc3;" horiz-adv-x="799" 
d="M-10 0l397 701h238l184 -701h-247l-21 99h-263l-50 -99h-238zM317 768q26 183 143 183q36 0 67.5 -20t38.5 -20q24 0 30 37h135q-26 -182 -143 -182q-36 0 -68 20t-39 20q-22 0 -28 -38h-136zM362 265h146l-42 205z" />
    <glyph glyph-name="Adieresis" unicode="&#xc4;" horiz-adv-x="799" 
d="M-10 0l397 701h238l184 -701h-247l-21 99h-263l-50 -99h-238zM328 852q6 41 35 66.5t69 25.5t62 -25.5t16 -66.5q-6 -40 -35 -65.5t-69 -25.5t-62 25.5t-16 65.5zM362 265h146l-42 205zM536 852q6 41 35 66.5t69 25.5t62 -25.5t16 -66.5q-6 -40 -35 -65.5t-69 -25.5
t-62 25.5t-16 65.5z" />
    <glyph glyph-name="Aring" unicode="&#xc5;" horiz-adv-x="799" 
d="M-10 0l396 699q-11 27 -6 62q8 56 52.5 95t100.5 39t89.5 -39t25.5 -95q-4 -32 -23 -60l184 -701h-247l-21 99h-263l-50 -99h-238zM362 265h146l-42 205zM472 761q-2 -18 8 -30t28 -12t32 12t16 30t-8 30t-28 12t-32 -12t-16 -30z" />
    <glyph glyph-name="AE" unicode="&#xc6;" horiz-adv-x="1147" 
d="M-10 0l491 701h720l-25 -176h-361l-13 -86h328l-25 -176h-328l-13 -87h370l-25 -176h-602l18 122h-217l-78 -122h-240zM415 288h134l34 237h-17z" />
    <glyph glyph-name="Ccedilla" unicode="&#xc7;" horiz-adv-x="688" 
d="M66 352q23 155 144.5 255.5t286.5 100.5q81 0 156.5 -35t121.5 -93l-157 -159q-25 43 -65 68.5t-81 25.5q-63 0 -110.5 -45t-57.5 -115t24.5 -116t97.5 -46q38 0 84 21.5t86 58.5l114 -143q-114 -108 -263 -134l-31 -47q28 -10 43 -33t11 -50q-7 -52 -50 -82.5
t-108 -30.5q-51 0 -96 34l53 90q13 -20 38 -20q38 0 43 33q2 16 -8 25t-30 9q-16 0 -38 -5l50 75q-135 20 -206.5 118.5t-51.5 239.5z" />
    <glyph glyph-name="Egrave" unicode="&#xc8;" 
d="M50 0l101 701h593l-25 -176h-361l-13 -86h328l-25 -176h-328l-13 -87h370l-25 -176h-602zM289 874l199 60l79 -189h-160z" />
    <glyph glyph-name="Eacute" unicode="&#xc9;" 
d="M50 0l101 701h593l-25 -176h-361l-13 -86h328l-25 -176h-328l-13 -87h370l-25 -176h-602zM350 745l135 189l181 -60l-156 -129h-160z" />
    <glyph glyph-name="Ecircumflex" unicode="&#xca;" 
d="M50 0l101 701h593l-25 -176h-361l-13 -86h328l-25 -176h-328l-13 -87h370l-25 -176h-602zM253 761l144 162h168l98 -162h-150l-44 82l-66 -82h-150z" />
    <glyph glyph-name="Edieresis" unicode="&#xcb;" 
d="M50 0l101 701h593l-25 -176h-361l-13 -86h328l-25 -176h-328l-13 -87h370l-25 -176h-602zM276 852q6 41 35 66.5t69 25.5t62 -25.5t16 -66.5q-6 -40 -35 -65.5t-69 -25.5t-62 25.5t-16 65.5zM484 852q6 41 35 66.5t69 25.5t62 -25.5t16 -66.5q-6 -40 -35 -65.5t-69 -25.5
t-62 25.5t-16 65.5z" />
    <glyph glyph-name="Igrave" unicode="&#xcc;" horiz-adv-x="332" 
d="M50 0l101 701h232l-101 -701h-232zM107 874l199 60l79 -189h-160z" />
    <glyph glyph-name="Iacute" unicode="&#xcd;" horiz-adv-x="332" 
d="M50 0l101 701h232l-101 -701h-232zM168 745l135 189l181 -60l-156 -129h-160z" />
    <glyph glyph-name="Icircumflex" unicode="&#xce;" horiz-adv-x="332" 
d="M50 0l101 701h232l-101 -701h-232zM71 761l144 162h168l98 -162h-150l-44 82l-66 -82h-150z" />
    <glyph glyph-name="Idieresis" unicode="&#xcf;" horiz-adv-x="332" 
d="M50 0l101 701h232l-101 -701h-232zM94 852q6 41 35 66.5t69 25.5t62 -25.5t16 -66.5q-6 -40 -35 -65.5t-69 -25.5t-62 25.5t-16 65.5zM302 852q6 41 35 66.5t69 25.5t62 -25.5t16 -66.5q-6 -40 -35 -65.5t-69 -25.5t-62 25.5t-16 65.5z" />
    <glyph glyph-name="Eth" unicode="&#xd0;" horiz-adv-x="802" 
d="M42 291l17 119h93l42 291h313q174 0 264 -95t67 -255t-143 -255.5t-298 -95.5h-304l42 291h-93zM351 180h87q63 0 107 46t55 123q11 78 -23 125t-101 47h-76l-16 -111h123l-17 -119h-123z" />
    <glyph glyph-name="Ntilde" unicode="&#xd1;" horiz-adv-x="781" 
d="M50 0l101 701h194l225 -360l52 360h210l-101 -701h-194l-224 358l-52 -358h-211zM308 768q26 183 143 183q36 0 67.5 -20t38.5 -20q24 0 30 37h135q-26 -182 -143 -182q-36 0 -68 20t-39 20q-22 0 -28 -38h-136z" />
    <glyph glyph-name="Ograve" unicode="&#xd2;" horiz-adv-x="800" 
d="M66 351q22 156 145.5 256.5t290.5 100.5t261.5 -101t72.5 -256q-23 -156 -146.5 -258.5t-290.5 -102.5t-261.5 102t-71.5 259zM303 350q-10 -71 27.5 -119t98.5 -48q60 0 109 48t59 119t-24.5 118t-95.5 47q-62 0 -113 -47t-61 -118zM331 874l199 60l79 -189h-160z" />
    <glyph glyph-name="Oacute" unicode="&#xd3;" horiz-adv-x="800" 
d="M66 351q22 156 145.5 256.5t290.5 100.5t261.5 -101t72.5 -256q-23 -156 -146.5 -258.5t-290.5 -102.5t-261.5 102t-71.5 259zM303 350q-10 -71 27.5 -119t98.5 -48q60 0 109 48t59 119t-24.5 118t-95.5 47q-62 0 -113 -47t-61 -118zM392 745l135 189l181 -60l-156 -129
h-160z" />
    <glyph glyph-name="Ocircumflex" unicode="&#xd4;" horiz-adv-x="800" 
d="M66 351q22 156 145.5 256.5t290.5 100.5t261.5 -101t72.5 -256q-23 -156 -146.5 -258.5t-290.5 -102.5t-261.5 102t-71.5 259zM295 761l144 162h168l98 -162h-150l-44 82l-66 -82h-150zM303 350q-10 -71 27.5 -119t98.5 -48q60 0 109 48t59 119t-24.5 118t-95.5 47
q-62 0 -113 -47t-61 -118z" />
    <glyph glyph-name="Otilde" unicode="&#xd5;" horiz-adv-x="800" 
d="M66 351q22 156 145.5 256.5t290.5 100.5t261.5 -101t72.5 -256q-23 -156 -146.5 -258.5t-290.5 -102.5t-261.5 102t-71.5 259zM303 350q-10 -71 27.5 -119t98.5 -48q60 0 109 48t59 119t-24.5 118t-95.5 47q-62 0 -113 -47t-61 -118zM307 768q26 183 143 183
q36 0 67.5 -20t38.5 -20q24 0 30 37h135q-26 -182 -143 -182q-36 0 -68 20t-39 20q-22 0 -28 -38h-136z" />
    <glyph glyph-name="Odieresis" unicode="&#xd6;" horiz-adv-x="800" 
d="M66 351q22 156 145.5 256.5t290.5 100.5t261.5 -101t72.5 -256q-23 -156 -146.5 -258.5t-290.5 -102.5t-261.5 102t-71.5 259zM303 350q-10 -71 27.5 -119t98.5 -48q60 0 109 48t59 119t-24.5 118t-95.5 47q-62 0 -113 -47t-61 -118zM318 852q6 41 35 66.5t69 25.5
t62 -25.5t16 -66.5q-6 -40 -35 -65.5t-69 -25.5t-62 25.5t-16 65.5zM526 852q6 41 35 66.5t69 25.5t62 -25.5t16 -66.5q-6 -40 -35 -65.5t-69 -25.5t-62 25.5t-16 65.5z" />
    <glyph glyph-name="multiply" unicode="&#xd7;" horiz-adv-x="520" 
d="M79 216l129 113l-96 113l113 99l97 -113l129 113l85 -99l-130 -113l97 -113l-113 -99l-97 113l-129 -113z" />
    <glyph glyph-name="Oslash" unicode="&#xd8;" horiz-adv-x="800" 
d="M66 351q22 156 145.5 256.5t290.5 100.5q16 0 46 -2l50 100h127l-64 -128q96 -41 143.5 -127.5t31.5 -199.5q-23 -156 -146.5 -258.5t-290.5 -102.5q-38 0 -82 7l-52 -101h-127l71 140q-81 46 -119.5 128.5t-23.5 186.5zM303 350q-7 -55 15 -98l132 260
q-55 -10 -96.5 -55t-50.5 -107zM411 184q6 -1 18 -1q60 0 109 48t59 119q12 83 -37 132z" />
    <glyph glyph-name="Ugrave" unicode="&#xd9;" horiz-adv-x="753" 
d="M83 297l58 404h232l-58 -404q-7 -50 19.5 -82t71.5 -32q44 0 77.5 31.5t40.5 82.5l58 404h232l-58 -404q-20 -140 -123 -223.5t-255 -83.5q-153 0 -234 84t-61 223zM318 874l199 60l79 -189h-160z" />
    <glyph glyph-name="Uacute" unicode="&#xda;" horiz-adv-x="753" 
d="M83 297l58 404h232l-58 -404q-7 -50 19.5 -82t71.5 -32q44 0 77.5 31.5t40.5 82.5l58 404h232l-58 -404q-20 -140 -123 -223.5t-255 -83.5q-153 0 -234 84t-61 223zM379 745l135 189l181 -60l-156 -129h-160z" />
    <glyph glyph-name="Ucircumflex" unicode="&#xdb;" horiz-adv-x="753" 
d="M83 297l58 404h232l-58 -404q-7 -50 19.5 -82t71.5 -32q44 0 77.5 31.5t40.5 82.5l58 404h232l-58 -404q-20 -140 -123 -223.5t-255 -83.5q-153 0 -234 84t-61 223zM282 761l144 162h168l98 -162h-150l-44 82l-66 -82h-150z" />
    <glyph glyph-name="Udieresis" unicode="&#xdc;" horiz-adv-x="753" 
d="M83 297l58 404h232l-58 -404q-7 -50 19.5 -82t71.5 -32q44 0 77.5 31.5t40.5 82.5l58 404h232l-58 -404q-20 -140 -123 -223.5t-255 -83.5q-153 0 -234 84t-61 223zM305 852q6 41 35 66.5t69 25.5t62 -25.5t16 -66.5q-6 -40 -35 -65.5t-69 -25.5t-62 25.5t-16 65.5z
M513 852q6 41 35 66.5t69 25.5t62 -25.5t16 -66.5q-6 -40 -35 -65.5t-69 -25.5t-62 25.5t-16 65.5z" />
    <glyph glyph-name="Yacute" unicode="&#xdd;" horiz-adv-x="719" 
d="M91 701h231l102 -270l175 270h231l-321 -483l-31 -218h-232l31 213zM362 745l135 189l181 -60l-156 -129h-160z" />
    <glyph glyph-name="Thorn" unicode="&#xde;" horiz-adv-x="698" 
d="M50 0l101 701h232l-12 -86h100q135 0 205.5 -67.5t54.5 -180.5q-17 -121 -108 -193t-226 -72h-100l-15 -102h-232zM322 278h90q31 0 53 22.5t27 59.5q5 36 -10.5 57.5t-46.5 21.5h-90z" />
    <glyph glyph-name="germandbls" unicode="&#xdf;" horiz-adv-x="670" 
d="M40 0l71 496q16 117 104 186.5t218 69.5q128 0 197 -56t55 -149q-7 -46 -35 -90t-67 -72q53 -20 79.5 -65.5t18.5 -102.5q-14 -99 -101.5 -158t-220.5 -59h-47l23 158h23q97 0 106 65q5 32 -16.5 46.5t-71.5 14.5h-23l23 157q76 0 86 72t-49 72q-64 0 -74 -72l-74 -513
h-225z" />
    <glyph glyph-name="agrave" unicode="&#xe0;" horiz-adv-x="613" 
d="M38 162q24 164 236 167h125q3 29 -16 44.5t-60 15.5q-72 0 -171 -35l-28 150q153 53 277 53q119 0 178 -53.5t45 -149.5l-51 -354h-221l9 59q-60 -69 -164 -69q-86 0 -128 46.5t-31 125.5zM227 720l198 60l80 -189h-160zM252 181q-6 -48 43 -48q48 0 82 42l7 50h-78
q-48 0 -54 -44z" />
    <glyph glyph-name="aacute" unicode="&#xe1;" horiz-adv-x="613" 
d="M38 162q24 164 236 167h125q3 29 -16 44.5t-60 15.5q-72 0 -171 -35l-28 150q153 53 277 53q119 0 178 -53.5t45 -149.5l-51 -354h-221l9 59q-60 -69 -164 -69q-86 0 -128 46.5t-31 125.5zM252 181q-6 -48 43 -48q48 0 82 42l7 50h-78q-48 0 -54 -44zM288 591l134 189
l182 -60l-156 -129h-160z" />
    <glyph glyph-name="acircumflex" unicode="&#xe2;" horiz-adv-x="613" 
d="M38 162q24 164 236 167h125q3 29 -16 44.5t-60 15.5q-72 0 -171 -35l-28 150q153 53 277 53q119 0 178 -53.5t45 -149.5l-51 -354h-221l9 59q-60 -69 -164 -69q-86 0 -128 46.5t-31 125.5zM190 607l145 162h168l97 -162h-150l-43 82l-67 -82h-150zM252 181q-6 -48 43 -48
q48 0 82 42l7 50h-78q-48 0 -54 -44z" />
    <glyph glyph-name="atilde" unicode="&#xe3;" horiz-adv-x="613" 
d="M38 162q24 164 236 167h125q3 29 -16 44.5t-60 15.5q-72 0 -171 -35l-28 150q153 53 277 53q119 0 178 -53.5t45 -149.5l-51 -354h-221l9 59q-60 -69 -164 -69q-86 0 -128 46.5t-31 125.5zM202 614q26 183 144 183q36 0 67.5 -20t38.5 -20q23 0 29 37h135
q-26 -182 -142 -182q-36 0 -68 20t-39 20q-23 0 -29 -38h-136zM252 181q-6 -48 43 -48q48 0 82 42l7 50h-78q-48 0 -54 -44z" />
    <glyph glyph-name="adieresis" unicode="&#xe4;" horiz-adv-x="613" 
d="M38 162q24 164 236 167h125q3 29 -16 44.5t-60 15.5q-72 0 -171 -35l-28 150q153 53 277 53q119 0 178 -53.5t45 -149.5l-51 -354h-221l9 59q-60 -69 -164 -69q-86 0 -128 46.5t-31 125.5zM214 698q6 41 35 66.5t69 25.5t62 -25.5t16 -66.5q-6 -40 -35.5 -65.5
t-69.5 -25.5t-61.5 25.5t-15.5 65.5zM252 181q-6 -48 43 -48q48 0 82 42l7 50h-78q-48 0 -54 -44zM422 698q6 41 35 66.5t69 25.5t62 -25.5t16 -66.5q-6 -40 -35.5 -65.5t-69.5 -25.5t-61.5 25.5t-15.5 65.5z" />
    <glyph glyph-name="aring" unicode="&#xe5;" horiz-adv-x="613" 
d="M38 162q24 164 236 167h125q3 29 -16 44.5t-60 15.5q-72 0 -171 -35l-28 150q153 53 277 53q119 0 178 -53.5t45 -149.5l-51 -354h-221l9 59q-60 -69 -164 -69q-86 0 -128 46.5t-31 125.5zM252 181q-6 -48 43 -48q48 0 82 42l7 50h-78q-48 0 -54 -44zM285 703
q7 52 48.5 88t93.5 36t83 -36t23 -88q-7 -52 -48.5 -88t-93.5 -36t-83 36t-23 88zM370 703q-2 -16 7.5 -27.5t26.5 -11.5q16 0 29 11t15 28t-7.5 28t-25.5 11q-17 0 -30 -11.5t-15 -27.5z" />
    <glyph glyph-name="ae" unicode="&#xe6;" horiz-adv-x="958" 
d="M38 162q24 164 237 167h127q6 60 -77 60q-74 0 -173 -35l-28 150q154 53 278 53q110 0 169 -45q69 43 159 43q144 0 209.5 -90t34.5 -242h-357q14 -65 82 -65q59 0 119 49l100 -115q-105 -100 -263 -100q-151 0 -206 101q-80 -104 -231 -104q-96 0 -143.5 47t-36.5 126z
M252 181q-6 -48 44 -48q48 0 84 42l7 50h-80q-49 0 -55 -44zM627 327h137q7 34 -8.5 56t-45.5 22q-56 0 -83 -78z" />
    <glyph glyph-name="ccedilla" unicode="&#xe7;" horiz-adv-x="561" 
d="M54 271q19 129 109 206.5t221 77.5q89 0 151 -41.5t85 -116.5l-190 -76q-14 52 -62 52q-33 0 -56.5 -27.5t-30.5 -73.5q-7 -47 8.5 -74.5t48.5 -27.5q50 0 76 59l170 -84q-66 -120 -213 -147l-33 -49q28 -10 43 -33t11 -50q-7 -52 -50 -82.5t-108 -30.5q-51 0 -96 34
l53 90q13 -20 38 -20q38 0 43 33q2 16 -8 25t-30 9q-16 0 -38 -5l51 77q-106 16 -157.5 89t-35.5 186z" />
    <glyph glyph-name="egrave" unicode="&#xe8;" horiz-adv-x="614" 
d="M54 271q19 129 110 206.5t223 77.5q143 0 208.5 -90t34.5 -242h-356q14 -65 82 -65q58 0 118 49l100 -115q-105 -100 -262 -100q-139 0 -207.5 75.5t-50.5 203.5zM222 720l198 60l80 -189h-160zM284 327h136q7 34 -8.5 56t-44.5 22q-56 0 -83 -78z" />
    <glyph glyph-name="eacute" unicode="&#xe9;" horiz-adv-x="614" 
d="M54 271q19 129 110 206.5t223 77.5q143 0 208.5 -90t34.5 -242h-356q14 -65 82 -65q58 0 118 49l100 -115q-105 -100 -262 -100q-139 0 -207.5 75.5t-50.5 203.5zM283 591l134 189l182 -60l-156 -129h-160zM284 327h136q7 34 -8.5 56t-44.5 22q-56 0 -83 -78z" />
    <glyph glyph-name="ecircumflex" unicode="&#xea;" horiz-adv-x="614" 
d="M54 271q19 129 110 206.5t223 77.5q143 0 208.5 -90t34.5 -242h-356q14 -65 82 -65q58 0 118 49l100 -115q-105 -100 -262 -100q-139 0 -207.5 75.5t-50.5 203.5zM185 607l145 162h168l97 -162h-150l-43 82l-67 -82h-150zM284 327h136q7 34 -8.5 56t-44.5 22
q-56 0 -83 -78z" />
    <glyph glyph-name="edieresis" unicode="&#xeb;" horiz-adv-x="614" 
d="M54 271q19 129 110 206.5t223 77.5q143 0 208.5 -90t34.5 -242h-356q14 -65 82 -65q58 0 118 49l100 -115q-105 -100 -262 -100q-139 0 -207.5 75.5t-50.5 203.5zM209 698q6 41 35 66.5t69 25.5t62 -25.5t16 -66.5q-6 -40 -35.5 -65.5t-69.5 -25.5t-61.5 25.5t-15.5 65.5
zM284 327h136q7 34 -8.5 56t-44.5 22q-56 0 -83 -78zM417 698q6 41 35 66.5t69 25.5t62 -25.5t16 -66.5q-6 -40 -35.5 -65.5t-69.5 -25.5t-61.5 25.5t-15.5 65.5z" />
    <glyph glyph-name="igrave" unicode="&#xec;" horiz-adv-x="335" 
d="M55 0l79 547h225l-79 -547h-225zM87 720l198 60l80 -189h-160z" />
    <glyph glyph-name="iacute" unicode="&#xed;" horiz-adv-x="335" 
d="M55 0l79 547h225l-79 -547h-225zM148 591l134 189l182 -60l-156 -129h-160z" />
    <glyph glyph-name="icircumflex" unicode="&#xee;" horiz-adv-x="335" 
d="M50 607l145 162h168l97 -162h-150l-43 82l-67 -82h-150zM55 0l79 547h225l-79 -547h-225z" />
    <glyph glyph-name="idieresis" unicode="&#xef;" horiz-adv-x="335" 
d="M55 0l79 547h225l-79 -547h-225zM74 698q6 41 35 66.5t69 25.5t62 -25.5t16 -66.5q-6 -40 -35.5 -65.5t-69.5 -25.5t-61.5 25.5t-15.5 65.5zM282 698q6 41 35 66.5t69 25.5t62 -25.5t16 -66.5q-6 -40 -35.5 -65.5t-69.5 -25.5t-61.5 25.5t-15.5 65.5z" />
    <glyph glyph-name="eth" unicode="&#xf0;" horiz-adv-x="617" 
d="M42 227q14 100 84.5 160.5t174.5 60.5q92 0 139 -39q-13 54 -59 107l-183 -60l-20 100l119 39q-52 39 -117 68l163 89q93 -33 161 -89l157 52l19 -101l-100 -33q88 -126 66 -278q-20 -142 -119 -227.5t-244 -85.5q-125 0 -191 64.5t-50 172.5zM258 238q-4 -29 12 -46.5
t47 -17.5q32 0 53 17.5t25 45.5q4 29 -12.5 46t-48.5 17q-31 0 -51.5 -17t-24.5 -45z" />
    <glyph glyph-name="ntilde" unicode="&#xf1;" horiz-adv-x="682" 
d="M55 0l79 547h225l-11 -78q71 88 178 88q87 0 133 -57t33 -151l-50 -349h-225l41 284q5 34 -10 54.5t-44 20.5q-33 0 -56 -24t-29 -64l-39 -271h-225zM254 614q26 183 144 183q36 0 67.5 -20t38.5 -20q23 0 29 37h135q-26 -182 -142 -182q-36 0 -68 20t-39 20
q-23 0 -29 -38h-136z" />
    <glyph glyph-name="ograve" unicode="&#xf2;" horiz-adv-x="648" 
d="M54 274q19 128 114 204.5t236 76.5t214 -76.5t54 -204.5t-113.5 -205t-235.5 -77t-214.5 77t-54.5 205zM243 720l198 60l80 -189h-160zM281 271q-7 -48 11.5 -77t55.5 -29t63.5 29t33.5 77t-11.5 77t-55.5 29t-63.5 -29t-33.5 -77z" />
    <glyph glyph-name="oacute" unicode="&#xf3;" horiz-adv-x="648" 
d="M54 274q19 128 114 204.5t236 76.5t214 -76.5t54 -204.5t-113.5 -205t-235.5 -77t-214.5 77t-54.5 205zM281 271q-7 -48 11.5 -77t55.5 -29t63.5 29t33.5 77t-11.5 77t-55.5 29t-63.5 -29t-33.5 -77zM304 591l134 189l182 -60l-156 -129h-160z" />
    <glyph glyph-name="ocircumflex" unicode="&#xf4;" horiz-adv-x="648" 
d="M54 274q19 128 114 204.5t236 76.5t214 -76.5t54 -204.5t-113.5 -205t-235.5 -77t-214.5 77t-54.5 205zM206 607l145 162h168l97 -162h-150l-43 82l-67 -82h-150zM281 271q-7 -48 11.5 -77t55.5 -29t63.5 29t33.5 77t-11.5 77t-55.5 29t-63.5 -29t-33.5 -77z" />
    <glyph glyph-name="otilde" unicode="&#xf5;" horiz-adv-x="648" 
d="M54 274q19 128 114 204.5t236 76.5t214 -76.5t54 -204.5t-113.5 -205t-235.5 -77t-214.5 77t-54.5 205zM218 614q26 183 144 183q36 0 67.5 -20t38.5 -20q23 0 29 37h135q-26 -182 -142 -182q-36 0 -68 20t-39 20q-23 0 -29 -38h-136zM281 271q-7 -48 11.5 -77t55.5 -29
t63.5 29t33.5 77t-11.5 77t-55.5 29t-63.5 -29t-33.5 -77z" />
    <glyph glyph-name="odieresis" unicode="&#xf6;" horiz-adv-x="648" 
d="M54 274q19 128 114 204.5t236 76.5t214 -76.5t54 -204.5t-113.5 -205t-235.5 -77t-214.5 77t-54.5 205zM230 698q6 41 35 66.5t69 25.5t62 -25.5t16 -66.5q-6 -40 -35.5 -65.5t-69.5 -25.5t-61.5 25.5t-15.5 65.5zM281 271q-7 -48 11.5 -77t55.5 -29t63.5 29t33.5 77
t-11.5 77t-55.5 29t-63.5 -29t-33.5 -77zM438 698q6 41 35 66.5t69 25.5t62 -25.5t16 -66.5q-6 -40 -35.5 -65.5t-69.5 -25.5t-61.5 25.5t-15.5 65.5z" />
    <glyph glyph-name="divide" unicode="&#xf7;" horiz-adv-x="520" 
d="M67 259l20 140h460l-20 -140h-460zM181 148q6 41 35.5 66.5t69.5 25.5t61.5 -25.5t15.5 -66.5q-6 -40 -35 -65.5t-69 -25.5t-62 25.5t-16 65.5zM233 508q6 41 35 66.5t69 25.5t62 -25.5t16 -66.5q-6 -40 -35 -65.5t-69 -25.5t-62 25.5t-16 65.5z" />
    <glyph glyph-name="oslash" unicode="&#xf8;" horiz-adv-x="648" 
d="M54 274q19 128 114 204.5t236 76.5q26 0 48 -3l59 125h88l-68 -143q80 -29 117 -97t24 -163q-19 -128 -113.5 -205t-235.5 -77q-16 0 -46 2l-63 -133h-88l72 151q-81 30 -119 98.5t-25 163.5zM266 271q-8 -55 11 -88l101 213q-43 -2 -73.5 -35.5t-38.5 -89.5zM348 146
q43 2 73.5 35.5t38.5 89.5q8 54 -11 88z" />
    <glyph glyph-name="ugrave" unicode="&#xf9;" horiz-adv-x="672" 
d="M69 198l50 349h225l-41 -284q-5 -34 8.5 -54.5t40.5 -20.5q31 0 52.5 24t27.5 64l39 271h225l-79 -547h-225l11 76q-69 -86 -173 -86q-85 0 -129.5 57t-31.5 151zM249 720l198 60l80 -189h-160z" />
    <glyph glyph-name="uacute" unicode="&#xfa;" horiz-adv-x="672" 
d="M69 198l50 349h225l-41 -284q-5 -34 8.5 -54.5t40.5 -20.5q31 0 52.5 24t27.5 64l39 271h225l-79 -547h-225l11 76q-69 -86 -173 -86q-85 0 -129.5 57t-31.5 151zM310 591l134 189l182 -60l-156 -129h-160z" />
    <glyph glyph-name="ucircumflex" unicode="&#xfb;" horiz-adv-x="672" 
d="M69 198l50 349h225l-41 -284q-5 -34 8.5 -54.5t40.5 -20.5q31 0 52.5 24t27.5 64l39 271h225l-79 -547h-225l11 76q-69 -86 -173 -86q-85 0 -129.5 57t-31.5 151zM212 607l145 162h168l97 -162h-150l-43 82l-67 -82h-150z" />
    <glyph glyph-name="udieresis" unicode="&#xfc;" horiz-adv-x="672" 
d="M69 198l50 349h225l-41 -284q-5 -34 8.5 -54.5t40.5 -20.5q31 0 52.5 24t27.5 64l39 271h225l-79 -547h-225l11 76q-69 -86 -173 -86q-85 0 -129.5 57t-31.5 151zM236 698q6 41 35 66.5t69 25.5t62 -25.5t16 -66.5q-6 -40 -35.5 -65.5t-69.5 -25.5t-61.5 25.5t-15.5 65.5
zM444 698q6 41 35 66.5t69 25.5t62 -25.5t16 -66.5q-6 -40 -35.5 -65.5t-69.5 -25.5t-61.5 25.5t-15.5 65.5z" />
    <glyph glyph-name="yacute" unicode="&#xfd;" horiz-adv-x="624" 
d="M-40 -140l115 148q31 -32 69 -32q37 0 58 28l9 13l-150 530h231l63 -312l134 312h224l-309 -585q-90 -166 -264 -166q-103 0 -180 64zM292 591l134 189l182 -60l-156 -129h-160z" />
    <glyph glyph-name="thorn" unicode="&#xfe;" 
d="M32 -194l135 936h225l-36 -250q63 63 148 63q114 0 171.5 -77.5t38.5 -207.5q-18 -127 -95.5 -202.5t-189.5 -75.5q-89 0 -136 64l-36 -250h-225zM325 276q-7 -48 10.5 -77t54.5 -29q38 0 64.5 29t33.5 77t-11.5 77t-55.5 29t-63 -29t-33 -77z" />
    <glyph glyph-name="ydieresis" unicode="&#xff;" horiz-adv-x="624" 
d="M-40 -140l115 148q31 -32 69 -32q37 0 58 28l9 13l-150 530h231l63 -312l134 312h224l-309 -585q-90 -166 -264 -166q-103 0 -180 64zM218 698q6 41 35 66.5t69 25.5t62 -25.5t16 -66.5q-6 -40 -35.5 -65.5t-69.5 -25.5t-61.5 25.5t-15.5 65.5zM426 698q6 41 35 66.5
t69 25.5t62 -25.5t16 -66.5q-6 -40 -35.5 -65.5t-69.5 -25.5t-61.5 25.5t-15.5 65.5z" />
    <glyph glyph-name="Amacron" unicode="&#x100;" horiz-adv-x="799" 
d="M-10 0l397 701h238l184 -701h-247l-21 99h-263l-50 -99h-238zM362 265h146l-42 205zM362 778l21 148h300l-21 -148h-300z" />
    <glyph glyph-name="amacron" unicode="&#x101;" horiz-adv-x="613" 
d="M38 162q24 164 236 167h125q3 29 -16 44.5t-60 15.5q-72 0 -171 -35l-28 150q153 53 277 53q119 0 178 -53.5t45 -149.5l-51 -354h-221l9 59q-60 -69 -164 -69q-86 0 -128 46.5t-31 125.5zM248 624l21 148h300l-21 -148h-300zM252 181q-6 -48 43 -48q48 0 82 42l7 50h-78
q-48 0 -54 -44z" />
    <glyph glyph-name="Abreve" unicode="&#x102;" horiz-adv-x="799" 
d="M-10 0l397 701h238l184 -701h-247l-21 99h-263l-50 -99h-238zM349 923h135q-1 -23 10.5 -36.5t31.5 -13.5t35.5 13.5t20.5 36.5h135q-15 -79 -72 -126.5t-137 -47.5t-123.5 47t-35.5 127zM362 265h146l-42 205z" />
    <glyph glyph-name="abreve" unicode="&#x103;" horiz-adv-x="613" 
d="M38 162q24 164 236 167h125q3 29 -16 44.5t-60 15.5q-72 0 -171 -35l-28 150q153 53 277 53q119 0 178 -53.5t45 -149.5l-51 -354h-221l9 59q-60 -69 -164 -69q-86 0 -128 46.5t-31 125.5zM235 769h135q-1 -23 10.5 -36.5t31.5 -13.5t35.5 13.5t20.5 36.5h135
q-15 -79 -72 -126.5t-137 -47.5t-123.5 47t-35.5 127zM252 181q-6 -48 43 -48q48 0 82 42l7 50h-78q-48 0 -54 -44z" />
    <glyph glyph-name="Aogonek" unicode="&#x104;" horiz-adv-x="799" 
d="M-10 0l397 701h238l184 -701h-68q-46 -56 -49 -79q-2 -15 11 -15q20 0 42 30l46 -64q-52 -76 -131 -76q-38 0 -64.5 20.5t-19.5 67.5q7 51 60 116h-74l-21 99h-263l-50 -99h-238zM362 265h146l-42 205z" />
    <glyph glyph-name="aogonek" unicode="&#x105;" horiz-adv-x="618" 
d="M38 162q24 164 238 167h128l1 1q2 28 -18 43.5t-61 15.5q-74 0 -174 -35l-28 150q154 53 279 53q120 0 180 -53.5t46 -149.5l-51 -354h-47q-46 -56 -49 -79q-2 -15 11 -15q20 0 42 30l46 -64q-52 -76 -131 -76q-38 0 -64.5 20.5t-19.5 67.5q7 51 60 116h-69l9 60
q-62 -71 -168 -71q-87 0 -129 47t-31 126zM252 181q-6 -48 45 -48q49 0 85 42l7 50h-81q-50 0 -56 -44z" />
    <glyph glyph-name="Cacute" unicode="&#x106;" horiz-adv-x="688" 
d="M66 352q23 155 144.5 255.5t286.5 100.5q81 0 156.5 -35t121.5 -93l-157 -159q-25 43 -65 68.5t-81 25.5q-63 0 -110.5 -45t-57.5 -115t24.5 -116t97.5 -46q38 0 84 21.5t86 58.5l114 -143q-68 -64 -156 -102t-169 -38q-161 0 -251.5 102.5t-67.5 259.5zM396 745l135 189
l181 -60l-156 -129h-160z" />
    <glyph glyph-name="cacute" unicode="&#x107;" horiz-adv-x="561" 
d="M54 271q19 129 109 206.5t221 77.5q89 0 151 -41.5t85 -116.5l-190 -76q-14 52 -62 52q-33 0 -56.5 -27.5t-30.5 -73.5q-7 -47 8.5 -74.5t48.5 -27.5q50 0 76 59l170 -84q-40 -73 -114.5 -113t-168.5 -40q-130 0 -197.5 76t-49.5 203zM278 591l134 189l182 -60l-156 -129
h-160z" />
    <glyph glyph-name="Ccaron" unicode="&#x10c;" horiz-adv-x="688" 
d="M66 352q23 155 144.5 255.5t286.5 100.5q81 0 156.5 -35t121.5 -93l-157 -159q-25 43 -65 68.5t-81 25.5q-63 0 -110.5 -45t-57.5 -115t24.5 -116t97.5 -46q38 0 84 21.5t86 58.5l114 -143q-68 -64 -156 -102t-169 -38q-161 0 -251.5 102.5t-67.5 259.5zM296 923h165
l47 -90l73 90h165l-159 -178h-184z" />
    <glyph glyph-name="ccaron" unicode="&#x10d;" horiz-adv-x="561" 
d="M54 271q19 129 109 206.5t221 77.5q89 0 151 -41.5t85 -116.5l-190 -76q-14 52 -62 52q-33 0 -56.5 -27.5t-30.5 -73.5q-7 -47 8.5 -74.5t48.5 -27.5q50 0 76 59l170 -84q-40 -73 -114.5 -113t-168.5 -40q-130 0 -197.5 76t-49.5 203zM178 769h165l47 -90l73 90h165
l-159 -178h-184z" />
    <glyph glyph-name="Dcaron" unicode="&#x10e;" horiz-adv-x="759" 
d="M50 0l101 701h313q174 0 264 -95t67 -255t-143 -255.5t-298 -95.5h-304zM254 923h165l47 -90l73 90h165l-159 -178h-184zM308 180h87q63 0 107 46t55 123q11 78 -23 125t-101 47h-76z" />
    <glyph glyph-name="dcaron" unicode="&#x10f;" horiz-adv-x="847" 
d="M55 277q18 127 95.5 202.5t189.5 75.5q89 0 136 -64l36 251h225l-107 -742h-225l8 55q-63 -63 -148 -63q-114 0 -171.5 77.5t-38.5 207.5zM281 271q-7 -48 11.5 -77t55.5 -29t63 29t33 77t-11 77t-55 29t-63.5 -29t-33.5 -77zM709 362l70 127q-34 25 -27 78
q7 45 39.5 73.5t77.5 28.5q43 0 69 -27t19 -74q-5 -39 -39 -80l-105 -126h-104z" />
    <glyph glyph-name="Dcroat" unicode="&#x110;" horiz-adv-x="759" 
d="M50 0l101 701h313q174 0 264 -95t67 -255t-143 -255.5t-298 -95.5h-304zM308 180h87q63 0 107 46t55 123q11 78 -23 125t-101 47h-76zM314 778l21 148h300l-21 -148h-300z" />
    <glyph glyph-name="dcroat" unicode="&#x111;" horiz-adv-x="692" 
d="M55 277q18 127 95.5 202.5t189.5 75.5q89 0 136 -64l12 83h-73l16 113h73l8 55h225l-8 -55h62l-16 -113h-62l-83 -574h-225l8 55q-63 -63 -148 -63q-114 0 -171.5 77.5t-38.5 207.5zM281 271q-7 -48 11.5 -77t55.5 -29t63 29t33 77t-11 77t-55 29t-63.5 -29t-33.5 -77z
" />
    <glyph glyph-name="Emacron" unicode="&#x112;" 
d="M50 0l101 701h593l-25 -176h-361l-13 -86h328l-25 -176h-328l-13 -87h370l-25 -176h-602zM310 778l21 148h300l-21 -148h-300z" />
    <glyph glyph-name="emacron" unicode="&#x113;" horiz-adv-x="614" 
d="M54 271q19 129 110 206.5t223 77.5q143 0 208.5 -90t34.5 -242h-356q14 -65 82 -65q58 0 118 49l100 -115q-105 -100 -262 -100q-139 0 -207.5 75.5t-50.5 203.5zM243 624l21 148h300l-21 -148h-300zM284 327h136q7 34 -8.5 56t-44.5 22q-56 0 -83 -78z" />
    <glyph glyph-name="Edotaccent" unicode="&#x116;" 
d="M50 0l101 701h593l-25 -176h-361l-13 -86h328l-25 -176h-328l-13 -87h370l-25 -176h-602zM357 857q8 50 44.5 82t86.5 32t77 -32t20 -82q-8 -50 -44 -82t-86 -32t-77.5 32t-20.5 82z" />
    <glyph glyph-name="edotaccent" unicode="&#x117;" horiz-adv-x="614" 
d="M54 271q19 129 110 206.5t223 77.5q143 0 208.5 -90t34.5 -242h-356q14 -65 82 -65q58 0 118 49l100 -115q-105 -100 -262 -100q-139 0 -207.5 75.5t-50.5 203.5zM284 327h136q7 34 -8.5 56t-44.5 22q-56 0 -83 -78zM290 703q8 50 44.5 82t86.5 32t77 -32t20 -82
q-8 -50 -44 -82t-86 -32t-77.5 32t-20.5 82z" />
    <glyph glyph-name="Eogonek" unicode="&#x118;" 
d="M50 0l101 701h593l-25 -176h-361l-13 -86h328l-25 -176h-328l-13 -87h370l-25 -176h-76q-46 -56 -49 -79q-1 -15 11 -15q20 0 42 30l46 -64q-52 -76 -131 -76q-38 0 -64.5 20.5t-19.5 67.5q7 51 60 116h-421z" />
    <glyph glyph-name="eogonek" unicode="&#x119;" horiz-adv-x="614" 
d="M54 271q19 129 110 206.5t223 77.5q143 0 208.5 -90t34.5 -242h-356q15 -65 82 -65q58 0 118 49l100 -115q-131 -124 -138 -171q-2 -15 11 -15q19 0 41 30l46 -64q-52 -76 -130 -76q-38 0 -64.5 20.5t-19.5 67.5q8 54 66 121q-39 -13 -74 -13q-139 0 -207.5 75.5
t-50.5 203.5zM284 327h136q7 34 -8.5 56t-44.5 22q-56 0 -83 -78z" />
    <glyph glyph-name="Ecaron" unicode="&#x11a;" 
d="M50 0l101 701h593l-25 -176h-361l-13 -86h328l-25 -176h-328l-13 -87h370l-25 -176h-602zM250 923h165l47 -90l73 90h165l-159 -178h-184z" />
    <glyph glyph-name="ecaron" unicode="&#x11b;" horiz-adv-x="614" 
d="M54 271q19 129 110 206.5t223 77.5q143 0 208.5 -90t34.5 -242h-356q14 -65 82 -65q58 0 118 49l100 -115q-105 -100 -262 -100q-139 0 -207.5 75.5t-50.5 203.5zM183 769h165l47 -90l73 90h165l-159 -178h-184zM284 327h136q7 34 -8.5 56t-44.5 22q-56 0 -83 -78z" />
    <glyph glyph-name="Gbreve" unicode="&#x11e;" horiz-adv-x="738" 
d="M65 350q23 155 149 256.5t298 101.5q82 0 160 -29.5t127 -78.5l-153 -159q-31 34 -75 54t-88 20q-67 0 -118 -47t-62 -118q-10 -73 28 -120t106 -47q37 0 96 23l23 163h199l-41 -289q-64 -39 -154.5 -64.5t-165.5 -25.5q-165 0 -258 102t-71 258zM345 923h135
q-1 -23 10.5 -36.5t31.5 -13.5t35.5 13.5t20.5 36.5h135q-15 -79 -72 -126.5t-137 -47.5t-123.5 47t-35.5 127z" />
    <glyph glyph-name="gbreve" unicode="&#x11f;" horiz-adv-x="654" 
d="M18 -133l93 151q70 -48 160 -48q49 0 78 18.5t34 50.5l7 52q-60 -58 -145 -58q-98 0 -151 72.5t-36 191.5q17 117 88.5 187.5t169.5 70.5q87 0 132 -59l8 51h224l-73 -502q-16 -113 -110 -181t-231 -68q-75 0 -140.5 20t-107.5 51zM254 769h135q-1 -23 10.5 -36.5
t31.5 -13.5t35.5 13.5t20.5 36.5h135q-15 -79 -72 -126.5t-137 -47.5t-123.5 47t-35.5 127zM267 291q-7 -44 10 -71t52 -27q34 0 58.5 27t31.5 71q7 45 -10 72t-52 27q-34 0 -58.5 -27t-31.5 -72z" />
    <glyph glyph-name="Gcommaaccent" unicode="&#x122;" horiz-adv-x="738" 
d="M65 350q23 155 149 256.5t298 101.5q82 0 160 -29.5t127 -78.5l-153 -159q-31 34 -75 54t-88 20q-67 0 -118 -47t-62 -118q-10 -73 28 -120t106 -47q37 0 96 23l23 163h199l-41 -289q-64 -39 -154.5 -64.5t-165.5 -25.5q-165 0 -258 102t-71 258zM238 -340l70 127
q-34 25 -27 78q7 45 39.5 73.5t77.5 28.5q43 0 69 -27t19 -74q-5 -39 -39 -80l-105 -126h-104z" />
    <glyph glyph-name="gcommaaccent" unicode="&#x123;" horiz-adv-x="654" 
d="M18 -133l93 151q70 -48 160 -48q49 0 78 18.5t34 50.5l7 52q-60 -58 -145 -58q-98 0 -151 72.5t-36 191.5q17 117 88.5 187.5t169.5 70.5q87 0 132 -59l8 51h224l-73 -502q-16 -113 -110 -181t-231 -68q-75 0 -140.5 20t-107.5 51zM267 291q-7 -44 10 -71t52 -27
q34 0 58.5 27t31.5 71q7 45 -10 72t-52 27q-34 0 -58.5 -27t-31.5 -72zM316 681q5 39 39 80l105 126h104l-70 -127q34 -25 27 -78q-7 -45 -39.5 -73.5t-77.5 -28.5q-43 0 -69 27t-19 74z" />
    <glyph glyph-name="hbar" unicode="&#x127;" horiz-adv-x="677" 
d="M60 0l81 563h-76l17 119h76l9 60h225l-9 -60h97l-17 -119h-97l-13 -94q71 88 178 88q87 0 133 -57t33 -151l-50 -349h-225l41 284q5 34 -10 54.5t-44 20.5q-33 0 -56 -24t-29 -64l-39 -271h-225z" />
    <glyph glyph-name="Itilde" unicode="&#x128;" horiz-adv-x="332" 
d="M50 0l101 701h232l-101 -701h-232zM83 768q26 183 143 183q36 0 67.5 -20t38.5 -20q24 0 30 37h135q-26 -182 -143 -182q-36 0 -68 20t-39 20q-22 0 -28 -38h-136z" />
    <glyph glyph-name="itilde" unicode="&#x129;" horiz-adv-x="335" 
d="M55 0l79 547h225l-79 -547h-225zM62 614q26 183 144 183q36 0 67.5 -20t38.5 -20q23 0 29 37h135q-26 -182 -142 -182q-36 0 -68 20t-39 20q-23 0 -29 -38h-136z" />
    <glyph glyph-name="Imacron" unicode="&#x12a;" horiz-adv-x="332" 
d="M50 0l101 701h232l-101 -701h-232zM128 778l21 148h300l-21 -148h-300z" />
    <glyph glyph-name="imacron" unicode="&#x12b;" horiz-adv-x="335" 
d="M55 0l79 547h225l-79 -547h-225zM108 624l21 148h300l-21 -148h-300z" />
    <glyph glyph-name="Iogonek" unicode="&#x12e;" horiz-adv-x="332" 
d="M50 0l101 701h232l-101 -701h-51q-46 -56 -49 -79q-2 -15 11 -15q20 0 42 30l46 -64q-52 -76 -131 -76q-38 0 -64.5 20.5t-19.5 67.5q7 51 60 116h-76z" />
    <glyph glyph-name="iogonek" unicode="&#x12f;" horiz-adv-x="311" 
d="M43 0l79 547h225l-79 -547h-56q-46 -56 -49 -79q-1 -15 11 -15q20 0 42 30l46 -64q-52 -76 -131 -76q-38 0 -64.5 20.5t-19.5 67.5q7 51 60 116h-64zM143 703q8 50 44.5 82t86.5 32t77 -32t20 -82q-8 -50 -44 -82t-86 -32t-77.5 32t-20.5 82z" />
    <glyph glyph-name="Idotaccent" unicode="&#x130;" horiz-adv-x="332" 
d="M50 0l101 701h232l-101 -701h-232zM175 857q8 50 44.5 82t86.5 32t77 -32t20 -82q-8 -50 -44 -82t-86 -32t-77.5 32t-20.5 82z" />
    <glyph glyph-name="dotlessi" unicode="&#x131;" horiz-adv-x="335" 
d="M55 0l79 547h225l-79 -547h-225z" />
    <glyph glyph-name="IJ" unicode="&#x132;" horiz-adv-x="901" 
d="M50 0l101 701h232l-101 -701h-232zM340 112l127 150q68 -79 134 -79q53 0 62 59l40 276h-238l26 183h471l-67 -464q-17 -117 -97 -182t-202 -65q-162 0 -256 122z" />
    <glyph glyph-name="ij" unicode="&#x133;" horiz-adv-x="683" 
d="M55 0l79 547h225l-79 -547h-225zM155 703q8 50 44.5 82t86.5 32t77 -32t20 -82q-8 -50 -44 -82t-86 -32t-77.5 32t-20.5 82zM222 -169l72 154q28 -14 53 -14q44 -2 50 46l77 530h225l-81 -564q-13 -86 -79 -136.5t-165 -49.5q-90 0 -152 34zM485 703q7 50 46.5 82
t93.5 32q55 0 84.5 -32t21.5 -82t-46 -82t-93 -32q-54 0 -84 32t-23 82z" />
    <glyph glyph-name="Jcircumflex" unicode="&#x134;" horiz-adv-x="569" 
d="M8 112l127 150q68 -79 134 -79q53 0 62 59l40 276h-238l26 183h471l-67 -464q-17 -117 -97 -182t-202 -65q-162 0 -256 122zM196 761l144 162h168l98 -162h-150l-44 82l-66 -82h-150z" />
    <glyph glyph-name="jcircumflex" unicode="&#x135;" horiz-adv-x="338" 
d="M-113 -169l72 154q28 -14 53 -14q44 -2 50 46l77 530h225l-81 -564q-13 -86 -79 -136.5t-165 -49.5q-90 0 -152 34zM46 607l145 162h168l97 -162h-150l-43 82l-67 -82h-150z" />
    <glyph glyph-name="Kcommaaccent" unicode="&#x136;" horiz-adv-x="773" 
d="M50 0l101 701h232l-35 -243l244 243h267l-291 -282l205 -419h-277l-111 241l-79 -76l-24 -165h-232zM215 -340l70 127q-34 25 -27 78q7 45 39.5 73.5t77.5 28.5q43 0 69 -27t19 -74q-5 -39 -39 -80l-105 -126h-104z" />
    <glyph glyph-name="kcedilla" unicode="&#x137;" horiz-adv-x="662" 
d="M-9 -213l53 90q13 -20 38 -20q38 0 43 33q2 16 -8 25t-30 9q-16 0 -38 -5l54 81h-43l107 742h225l-49 -337l148 142h254l-230 -211l148 -336h-267l-59 172l-31 -28l-21 -144h-60l-34 -51q28 -10 43 -33t11 -50q-7 -52 -50 -82.5t-108 -30.5q-51 0 -96 34z" />
    <glyph glyph-name="kgreenlandic" unicode="&#x138;" horiz-adv-x="655" 
d="M55 0l79 547h225l-20 -140l145 140h254l-230 -211l148 -336h-267l-59 172l-29 -26l-21 -146h-225z" />
    <glyph glyph-name="Lacute" unicode="&#x139;" horiz-adv-x="584" 
d="M50 0l101 701h232l-73 -508h292l-28 -193h-524zM161 745l135 189l181 -60l-156 -129h-160z" />
    <glyph glyph-name="lacute" unicode="&#x13a;" horiz-adv-x="345" 
d="M60 0l107 742h225l-107 -742h-225zM181 786l135 189l181 -60l-156 -129h-160z" />
    <glyph glyph-name="Lcommaaccent" unicode="&#x13b;" horiz-adv-x="584" 
d="M50 0l101 701h232l-73 -508h292l-28 -193h-524zM134 -340l70 127q-34 25 -27 78q7 45 39.5 73.5t77.5 28.5q43 0 69 -27t19 -74q-5 -39 -39 -80l-105 -126h-104z" />
    <glyph glyph-name="lcommaaccent" unicode="&#x13c;" horiz-adv-x="345" 
d="M15 -340l70 127q-34 25 -27 78q7 45 39.5 73.5t77.5 28.5q43 0 69 -27t19 -74q-5 -39 -39 -80l-105 -126h-104zM60 0l107 742h225l-107 -742h-225z" />
    <glyph glyph-name="Lcaron" unicode="&#x13d;" horiz-adv-x="584" 
d="M50 0l101 701h232l-73 -508h292l-28 -193h-524zM399 362l70 127q-34 25 -27 78q7 45 39.5 73.5t77.5 28.5q43 0 69 -27t19 -74q-5 -39 -39 -80l-105 -126h-104z" />
    <glyph glyph-name="lcaron" unicode="&#x13e;" horiz-adv-x="485" 
d="M60 0l107 742h225l-107 -742h-225zM347 362l70 127q-34 25 -27 78q7 45 39.5 73.5t77.5 28.5q43 0 69 -27t19 -74q-5 -39 -39 -80l-105 -126h-104z" />
    <glyph glyph-name="Ldot" unicode="&#x13f;" horiz-adv-x="584" 
d="M50 0l101 701h232l-73 -508h292l-28 -193h-524zM399 497q7 45 39 73.5t77 28.5q46 0 71 -28.5t18 -73.5q-7 -46 -39.5 -74.5t-78.5 -28.5q-45 0 -69.5 28.5t-17.5 74.5z" />
    <glyph glyph-name="ldot" unicode="&#x140;" horiz-adv-x="447" 
d="M60 0l107 742h225l-59 -406q12 37 42.5 59t70.5 22q45 0 69.5 -28.5t17.5 -74.5q-7 -45 -39 -73.5t-77 -28.5q-40 0 -64 22t-26 58l-42 -292h-225z" />
    <glyph glyph-name="Lslash" unicode="&#x141;" horiz-adv-x="606" 
d="M29 412l107 30l37 259h232l-28 -192l136 38l18 -135l-175 -49l-24 -170h292l-28 -193h-524l43 296l-67 -18z" />
    <glyph glyph-name="lslash" unicode="&#x142;" horiz-adv-x="373" 
d="M16 424l134 37l41 281h225l-31 -216l74 21l18 -135l-113 -31l-55 -381h-225l46 316l-95 -26z" />
    <glyph glyph-name="Nacute" unicode="&#x143;" horiz-adv-x="781" 
d="M50 0l101 701h194l225 -360l52 360h210l-101 -701h-194l-224 358l-52 -358h-211zM393 745l135 189l181 -60l-156 -129h-160z" />
    <glyph glyph-name="nacute" unicode="&#x144;" horiz-adv-x="682" 
d="M55 0l79 547h225l-11 -78q71 88 178 88q87 0 133 -57t33 -151l-50 -349h-225l41 284q5 34 -10 54.5t-44 20.5q-33 0 -56 -24t-29 -64l-39 -271h-225zM340 591l134 189l182 -60l-156 -129h-160z" />
    <glyph glyph-name="Ncommaaccent" unicode="&#x145;" horiz-adv-x="781" 
d="M50 0l101 701h194l225 -360l52 360h210l-101 -701h-194l-224 358l-52 -358h-211zM233 -340l70 127q-34 25 -27 78q7 45 39.5 73.5t77.5 28.5q43 0 69 -27t19 -74q-5 -39 -39 -80l-105 -126h-104z" />
    <glyph glyph-name="ncommaaccent" unicode="&#x146;" horiz-adv-x="682" 
d="M55 0l79 547h225l-11 -78q71 88 178 88q87 0 133 -57t33 -151l-50 -349h-225l41 284q5 34 -10 54.5t-44 20.5q-33 0 -56 -24t-29 -64l-39 -271h-225zM189 -340l70 127q-34 25 -27 78q7 45 39.5 73.5t77.5 28.5q43 0 69 -27t19 -74q-5 -39 -39 -80l-105 -126h-104z" />
    <glyph glyph-name="Ncaron" unicode="&#x147;" horiz-adv-x="781" 
d="M50 0l101 701h194l225 -360l52 360h210l-101 -701h-194l-224 358l-52 -358h-211zM293 923h165l47 -90l73 90h165l-159 -178h-184z" />
    <glyph glyph-name="ncaron" unicode="&#x148;" horiz-adv-x="682" 
d="M55 0l79 547h225l-11 -78q71 88 178 88q87 0 133 -57t33 -151l-50 -349h-225l41 284q5 34 -10 54.5t-44 20.5q-33 0 -56 -24t-29 -64l-39 -271h-225zM240 769h165l47 -90l73 90h165l-159 -178h-184z" />
    <glyph glyph-name="Omacron" unicode="&#x14c;" horiz-adv-x="800" 
d="M66 351q22 156 145.5 256.5t290.5 100.5t261.5 -101t72.5 -256q-23 -156 -146.5 -258.5t-290.5 -102.5t-261.5 102t-71.5 259zM303 350q-10 -71 27.5 -119t98.5 -48q60 0 109 48t59 119t-24.5 118t-95.5 47q-62 0 -113 -47t-61 -118zM352 778l21 148h300l-21 -148h-300z
" />
    <glyph glyph-name="omacron" unicode="&#x14d;" horiz-adv-x="648" 
d="M54 274q19 128 114 204.5t236 76.5t214 -76.5t54 -204.5t-113.5 -205t-235.5 -77t-214.5 77t-54.5 205zM264 624l21 148h300l-21 -148h-300zM281 271q-7 -48 11.5 -77t55.5 -29t63.5 29t33.5 77t-11.5 77t-55.5 29t-63.5 -29t-33.5 -77z" />
    <glyph glyph-name="Ohungarumlaut" unicode="&#x150;" horiz-adv-x="800" 
d="M66 351q22 156 145.5 256.5t290.5 100.5t261.5 -101t72.5 -256q-23 -156 -146.5 -258.5t-290.5 -102.5t-261.5 102t-71.5 259zM297 745l115 189l154 -53l-109 -136h-160zM303 350q-10 -71 27.5 -119t98.5 -48q60 0 109 48t59 119t-24.5 118t-95.5 47q-62 0 -113 -47
t-61 -118zM518 745l115 189l154 -53l-109 -136h-160z" />
    <glyph glyph-name="ohungarumlaut" unicode="&#x151;" horiz-adv-x="648" 
d="M54 274q19 128 114 204.5t236 76.5t214 -76.5t54 -204.5t-113.5 -205t-235.5 -77t-214.5 77t-54.5 205zM209 591l114 189l155 -53l-109 -136h-160zM281 271q-7 -48 11.5 -77t55.5 -29t63.5 29t33.5 77t-11.5 77t-55.5 29t-63.5 -29t-33.5 -77zM430 591l114 189l155 -53
l-109 -136h-160z" />
    <glyph glyph-name="OE" unicode="&#x152;" horiz-adv-x="1127" 
d="M65 349q22 152 145 252t290 100h681l-25 -176h-361l-13 -86h328l-25 -176h-328l-13 -87h370l-25 -176h-690q-166 0 -261 98.5t-73 250.5zM303 348q-11 -71 23.5 -118t98.5 -47l89 1l47 330h-88q-64 0 -111.5 -47t-58.5 -119z" />
    <glyph glyph-name="oe" unicode="&#x153;" horiz-adv-x="999" 
d="M54 274q19 128 114 204.5t236 76.5q123 0 179 -72q75 72 187 72q144 0 210 -90t35 -242h-360q15 -65 84 -65q59 0 120 49l100 -115q-106 -100 -264 -100q-119 0 -174 71q-79 -71 -198 -71q-141 0 -214.5 77t-54.5 205zM281 271q-7 -48 11.5 -77t55.5 -29t63.5 29t33.5 77
t-11.5 77t-55.5 29t-63.5 -29t-33.5 -77zM665 327h140q7 34 -9 56t-46 22q-58 0 -85 -78z" />
    <glyph glyph-name="Racute" unicode="&#x154;" horiz-adv-x="725" 
d="M50 0l101 701h339q143 0 211.5 -65.5t51.5 -185.5q-23 -154 -143 -222l105 -228h-262l-58 182h-87l-26 -182h-232zM334 358h107q37 0 61 22t30 63q5 39 -12.5 60.5t-54.5 21.5h-107zM374 745l135 189l181 -60l-156 -129h-160z" />
    <glyph glyph-name="racute" unicode="&#x155;" horiz-adv-x="457" 
d="M55 0l79 547h225l-12 -80q73 90 180 90l-29 -203q-74 11 -123.5 -14t-56.5 -79l-38 -261h-225zM225 591l134 189l182 -60l-156 -129h-160z" />
    <glyph glyph-name="Rcommaaccent" unicode="&#x156;" horiz-adv-x="725" 
d="M50 0l101 701h339q143 0 211.5 -65.5t51.5 -185.5q-23 -154 -143 -222l105 -228h-262l-58 182h-87l-26 -182h-232zM201 -340l70 127q-34 25 -27 78q7 45 39.5 73.5t77.5 28.5q43 0 69 -27t19 -74q-5 -39 -39 -80l-105 -126h-104zM334 358h107q37 0 61 22t30 63
q5 39 -12.5 60.5t-54.5 21.5h-107z" />
    <glyph glyph-name="rcommaaccent" unicode="&#x157;" horiz-adv-x="457" 
d="M3 -340l70 127q-34 25 -27 78q7 45 39.5 73.5t77.5 28.5q43 0 69 -27t19 -74q-5 -39 -39 -80l-105 -126h-104zM55 0l79 547h225l-12 -80q73 90 180 90l-29 -203q-74 11 -123.5 -14t-56.5 -79l-38 -261h-225z" />
    <glyph glyph-name="Rcaron" unicode="&#x158;" horiz-adv-x="725" 
d="M50 0l101 701h339q143 0 211.5 -65.5t51.5 -185.5q-23 -154 -143 -222l105 -228h-262l-58 182h-87l-26 -182h-232zM274 923h165l47 -90l73 90h165l-159 -178h-184zM334 358h107q37 0 61 22t30 63q5 39 -12.5 60.5t-54.5 21.5h-107z" />
    <glyph glyph-name="rcaron" unicode="&#x159;" horiz-adv-x="457" 
d="M55 0l79 547h225l-12 -80q73 90 180 90l-29 -203q-74 11 -123.5 -14t-56.5 -79l-38 -261h-225zM125 769h165l47 -90l73 90h165l-159 -178h-184z" />
    <glyph glyph-name="Sacute" unicode="&#x15a;" horiz-adv-x="664" 
d="M23 105l111 174q47 -44 122 -76.5t129 -32.5q56 0 62 36q3 21 -22 35.5t-64 22t-84 23t-82 35.5t-58 61.5t-13 99.5q15 105 105 166.5t227 61.5q82 0 160 -22.5t133 -60.5l-109 -176q-53 32 -119.5 57t-109.5 25t-47 -29q-3 -18 15.5 -30t49 -21t68 -18.5t74 -26t65 -39
t43 -61.5t6.5 -91q-16 -111 -108 -168t-219 -57q-93 0 -183.5 29.5t-151.5 82.5zM361 745l135 189l181 -60l-156 -129h-160z" />
    <glyph glyph-name="sacute" unicode="&#x15b;" horiz-adv-x="552" 
d="M22 68l88 140q101 -68 192 -68q34 0 36 16q2 13 -25.5 22.5t-66.5 20.5t-77.5 28t-62 53t-15.5 88q13 86 85.5 137.5t182.5 51.5q131 0 244 -69l-94 -139q-112 60 -176 60q-31 0 -34 -18q-2 -13 26 -23.5t68 -22t79.5 -28.5t63.5 -53.5t16 -87.5q-12 -85 -86.5 -135.5
t-187.5 -50.5q-153 0 -256 78zM269 591l134 189l182 -60l-156 -129h-160z" />
    <glyph glyph-name="Scedilla" unicode="&#x15e;" horiz-adv-x="664" 
d="M23 105l111 174q47 -44 122 -76.5t129 -32.5q56 0 62 36q3 21 -22 35.5t-64 22t-84 23t-82 35.5t-58 61.5t-13 99.5q15 105 105 166.5t227 61.5q82 0 160 -22.5t133 -60.5l-109 -176q-53 32 -119.5 57t-109.5 25t-47 -29q-3 -18 15.5 -30t49 -21t68 -18.5t74 -26t65 -39
t43 -61.5t6.5 -91q-14 -95 -84.5 -151t-174.5 -70l-33 -48q28 -10 43 -33t11 -50q-7 -52 -50 -82.5t-108 -30.5q-51 0 -96 34l53 90q13 -20 38 -20q38 0 43 33q2 16 -8 25t-30 9q-16 0 -38 -5l51 77q-80 8 -153.5 36.5t-125.5 72.5z" />
    <glyph glyph-name="scedilla" unicode="&#x15f;" horiz-adv-x="552" 
d="M22 68l88 140q101 -68 192 -68q34 0 36 16q2 13 -25.5 22.5t-66.5 20.5t-77.5 28t-62 53t-15.5 88q13 86 85.5 137.5t182.5 51.5q131 0 244 -69l-94 -139q-112 60 -176 60q-31 0 -34 -18q-2 -13 26 -23.5t68 -22t79.5 -28.5t63.5 -53.5t16 -87.5q-10 -69 -62 -116
t-134 -63l-33 -48q28 -10 43 -33t11 -50q-7 -52 -50 -82.5t-108 -30.5q-51 0 -96 34l53 90q13 -20 38 -20q38 0 43 33q2 16 -8 25t-30 9q-16 0 -38 -5l49 73q-122 11 -208 76z" />
    <glyph glyph-name="Scaron" unicode="&#x160;" horiz-adv-x="664" 
d="M23 105l111 174q47 -44 122 -76.5t129 -32.5q56 0 62 36q3 21 -22 35.5t-64 22t-84 23t-82 35.5t-58 61.5t-13 99.5q15 105 105 166.5t227 61.5q82 0 160 -22.5t133 -60.5l-109 -176q-53 32 -119.5 57t-109.5 25t-47 -29q-3 -18 15.5 -30t49 -21t68 -18.5t74 -26t65 -39
t43 -61.5t6.5 -91q-16 -111 -108 -168t-219 -57q-93 0 -183.5 29.5t-151.5 82.5zM261 923h165l47 -90l73 90h165l-159 -178h-184z" />
    <glyph glyph-name="scaron" unicode="&#x161;" horiz-adv-x="552" 
d="M22 68l88 140q101 -68 192 -68q34 0 36 16q2 13 -25.5 22.5t-66.5 20.5t-77.5 28t-62 53t-15.5 88q13 86 85.5 137.5t182.5 51.5q131 0 244 -69l-94 -139q-112 60 -176 60q-31 0 -34 -18q-2 -13 26 -23.5t68 -22t79.5 -28.5t63.5 -53.5t16 -87.5q-12 -85 -86.5 -135.5
t-187.5 -50.5q-153 0 -256 78zM169 769h165l47 -90l73 90h165l-159 -178h-184z" />
    <glyph glyph-name="Tcedilla" unicode="&#x162;" horiz-adv-x="641" 
d="M80 518l26 183h631l-26 -183h-200l-75 -518h-45l-34 -51q28 -10 43 -33t11 -50q-7 -52 -50 -82.5t-108 -30.5q-51 0 -96 34l53 90q13 -20 38 -20q38 0 43 33q2 16 -8 25t-30 9q-16 0 -38 -5l54 81h-65l75 518h-199z" />
    <glyph glyph-name="tcedilla" unicode="&#x163;" horiz-adv-x="460" 
d="M62 375l21 142h75l22 153h224l-22 -153h128l-21 -142h-128l-24 -165q-3 -22 7.5 -34.5t30.5 -11.5q19 0 58 14l15 -154q-41 -21 -97 -29l-31 -46q28 -10 43 -33t11 -50q-7 -52 -50 -82.5t-108 -30.5q-51 0 -96 34l53 90q13 -20 38 -20q38 0 43 33q2 16 -8 25t-30 9
q-16 0 -38 -5l51 77q-67 14 -99 61.5t-22 118.5l29 199h-75z" />
    <glyph glyph-name="Tcaron" unicode="&#x164;" horiz-adv-x="641" 
d="M80 518l26 183h631l-26 -183h-200l-75 -518h-232l75 518h-199zM239 923h165l47 -90l73 90h165l-159 -178h-184z" />
    <glyph glyph-name="tcaron" unicode="&#x165;" horiz-adv-x="470" 
d="M62 375l21 142h75l22 153h224l-22 -153h128l-21 -142h-128l-24 -165q-3 -22 7.5 -34.5t30.5 -11.5q19 0 58 14l15 -154q-63 -34 -160 -34q-94 -1 -143 50t-37 136l29 199h-75zM415 572l71 127q-35 26 -28 78q7 45 40 73.5t78 28.5q43 0 68.5 -27t18.5 -74q-5 -40 -38 -80
l-106 -126h-104z" />
    <glyph glyph-name="Umacron" unicode="&#x16a;" horiz-adv-x="753" 
d="M83 297l58 404h232l-58 -404q-7 -50 19.5 -82t71.5 -32q44 0 77.5 31.5t40.5 82.5l58 404h232l-58 -404q-20 -140 -123 -223.5t-255 -83.5q-153 0 -234 84t-61 223zM339 778l21 148h300l-21 -148h-300z" />
    <glyph glyph-name="umacron" unicode="&#x16b;" horiz-adv-x="672" 
d="M69 198l50 349h225l-41 -284q-5 -34 8.5 -54.5t40.5 -20.5q31 0 52.5 24t27.5 64l39 271h225l-79 -547h-225l11 76q-69 -86 -173 -86q-85 0 -129.5 57t-31.5 151zM270 624l21 148h300l-21 -148h-300z" />
    <glyph glyph-name="Uring" unicode="&#x16e;" horiz-adv-x="753" 
d="M83 297l58 404h232l-58 -404q-7 -50 19.5 -82t71.5 -32q44 0 77.5 31.5t40.5 82.5l58 404h232l-58 -404q-20 -140 -123 -223.5t-255 -83.5q-153 0 -234 84t-61 223zM376 857q7 52 48.5 88t93.5 36t83 -36t23 -88t-48.5 -88t-92.5 -36t-83 36t-24 88zM461 857
q-2 -16 7.5 -27.5t26.5 -11.5q16 0 29 11t15 28t-7.5 28t-25.5 11q-17 0 -30 -11.5t-15 -27.5z" />
    <glyph glyph-name="uring" unicode="&#x16f;" horiz-adv-x="672" 
d="M69 198l50 349h225l-41 -284q-5 -34 8.5 -54.5t40.5 -20.5q31 0 52.5 24t27.5 64l39 271h225l-79 -547h-225l11 76q-69 -86 -173 -86q-85 0 -129.5 57t-31.5 151zM307 703q7 52 48.5 88t93.5 36t83 -36t23 -88q-7 -52 -48.5 -88t-93.5 -36t-83 36t-23 88zM392 703
q-2 -16 7.5 -27.5t26.5 -11.5q16 0 29 11t15 28t-7.5 28t-25.5 11q-17 0 -30 -11.5t-15 -27.5z" />
    <glyph glyph-name="Uhungarumlaut" unicode="&#x170;" horiz-adv-x="753" 
d="M83 297l58 404h232l-58 -404q-7 -50 19.5 -82t71.5 -32q44 0 77.5 31.5t40.5 82.5l58 404h232l-58 -404q-20 -140 -123 -223.5t-255 -83.5q-153 0 -234 84t-61 223zM284 745l115 189l154 -53l-109 -136h-160zM505 745l115 189l154 -53l-109 -136h-160z" />
    <glyph glyph-name="uhungarumlaut" unicode="&#x171;" horiz-adv-x="672" 
d="M69 198l50 349h225l-41 -284q-5 -34 8.5 -54.5t40.5 -20.5q31 0 52.5 24t27.5 64l39 271h225l-79 -547h-225l11 76q-69 -86 -173 -86q-85 0 -129.5 57t-31.5 151zM215 591l114 189l155 -53l-109 -136h-160zM436 591l114 189l155 -53l-109 -136h-160z" />
    <glyph glyph-name="Uogonek" unicode="&#x172;" horiz-adv-x="753" 
d="M83 297l58 404h232l-58 -404q-7 -50 19.5 -82t71.5 -32q44 0 77.5 31.5t40.5 82.5l58 404h232l-58 -404q-15 -102 -75.5 -175.5t-154.5 -107.5q-57 -67 -61 -93q-1 -15 11 -15q20 0 42 30l46 -64q-52 -76 -131 -76q-38 0 -64.5 20.5t-19.5 67.5q6 46 53 107l-24 -1
q-153 0 -234 84t-61 223z" />
    <glyph glyph-name="uogonek" unicode="&#x173;" horiz-adv-x="670" 
d="M69 198l50 349h225l-41 -284q-5 -34 10 -54.5t44 -20.5q33 0 56 24t29 64l39 271h225l-79 -547h-58q-46 -56 -49 -79q-2 -15 11 -15q20 0 42 30l46 -64q-52 -76 -131 -76q-38 0 -64.5 20.5t-19.5 67.5q7 51 60 116h-62l11 78q-71 -88 -178 -88q-87 0 -133 57t-33 151z
" />
    <glyph glyph-name="Wcircumflex" unicode="&#x174;" horiz-adv-x="1121" 
d="M96 701h248l40 -460l170 459l226 1l40 -460l170 460h237l-330 -701h-239l-37 419l-160 -419h-239zM411 761l144 162h168l98 -162h-150l-44 82l-66 -82h-150z" />
    <glyph glyph-name="wcircumflex" unicode="&#x175;" horiz-adv-x="977" 
d="M69 547h228l40 -326l131 326h208l40 -326l133 326h217l-279 -547h-220l-36 288l-123 -288h-220zM371 607l145 162h168l97 -162h-150l-43 82l-67 -82h-150z" />
    <glyph glyph-name="Ycircumflex" unicode="&#x176;" horiz-adv-x="719" 
d="M91 701h231l102 -270l175 270h231l-321 -483l-31 -218h-232l31 213zM265 761l144 162h168l98 -162h-150l-44 82l-66 -82h-150z" />
    <glyph glyph-name="ycircumflex" unicode="&#x177;" horiz-adv-x="624" 
d="M-40 -140l115 148q31 -32 69 -32q37 0 58 28l9 13l-150 530h231l63 -312l134 312h224l-309 -585q-90 -166 -264 -166q-103 0 -180 64zM194 607l145 162h168l97 -162h-150l-43 82l-67 -82h-150z" />
    <glyph glyph-name="Ydieresis" unicode="&#x178;" horiz-adv-x="719" 
d="M91 701h231l102 -270l175 270h231l-321 -483l-31 -218h-232l31 213zM288 852q6 41 35 66.5t69 25.5t62 -25.5t16 -66.5q-6 -40 -35 -65.5t-69 -25.5t-62 25.5t-16 65.5zM496 852q6 41 35 66.5t69 25.5t62 -25.5t16 -66.5q-6 -40 -35 -65.5t-69 -25.5t-62 25.5t-16 65.5z
" />
    <glyph glyph-name="Zacute" unicode="&#x179;" horiz-adv-x="683" 
d="M20 0l21 145l381 378h-315l26 178h624l-21 -145l-381 -378h334l-26 -178h-643zM364 745l135 189l181 -60l-156 -129h-160z" />
    <glyph glyph-name="zacute" unicode="&#x17a;" horiz-adv-x="568" 
d="M25 0l19 131l264 248h-218l24 168h502l-19 -131l-264 -248h238l-24 -168h-522zM264 591l134 189l182 -60l-156 -129h-160z" />
    <glyph glyph-name="Zdotaccent" unicode="&#x17b;" horiz-adv-x="683" 
d="M20 0l21 145l381 378h-315l26 178h624l-21 -145l-381 -378h334l-26 -178h-643zM371 857q8 50 44.5 82t86.5 32t77 -32t20 -82q-8 -50 -44 -82t-86 -32t-77.5 32t-20.5 82z" />
    <glyph glyph-name="zdotaccent" unicode="&#x17c;" horiz-adv-x="568" 
d="M25 0l19 131l264 248h-218l24 168h502l-19 -131l-264 -248h238l-24 -168h-522zM271 703q8 50 44.5 82t86.5 32t77 -32t20 -82q-8 -50 -44 -82t-86 -32t-77.5 32t-20.5 82z" />
    <glyph glyph-name="Zcaron" unicode="&#x17d;" horiz-adv-x="683" 
d="M20 0l21 145l381 378h-315l26 178h624l-21 -145l-381 -378h334l-26 -178h-643zM264 923h165l47 -90l73 90h165l-159 -178h-184z" />
    <glyph glyph-name="zcaron" unicode="&#x17e;" horiz-adv-x="568" 
d="M25 0l19 131l264 248h-218l24 168h502l-19 -131l-264 -248h238l-24 -168h-522zM164 769h165l47 -90l73 90h165l-159 -178h-184z" />
    <glyph glyph-name="florin" unicode="&#x192;" horiz-adv-x="444" 
d="M-131 -165l76 154q21 -19 50 -19q19 -1 33.5 11.5t20.5 34.5l83 309h-75l37 142h76l27 99q23 86 95 136.5t170 49.5q100 0 160 -39l-96 -154q-22 19 -51 19q-24 1 -41 -11.5t-23 -34.5l-18 -65h106l-37 -142h-106l-92 -343q-23 -86 -95 -136.5t-171 -49.5q-84 0 -129 39z
" />
    <glyph glyph-name="Scommaaccent" unicode="&#x218;" horiz-adv-x="664" 
d="M23 105l111 174q47 -44 122 -76.5t129 -32.5q56 0 62 36q3 21 -22 35.5t-64 22t-84 23t-82 35.5t-58 61.5t-13 99.5q15 105 105 166.5t227 61.5q82 0 160 -22.5t133 -60.5l-109 -176q-53 32 -119.5 57t-109.5 25t-47 -29q-3 -18 15.5 -30t49 -21t68 -18.5t74 -26t65 -39
t43 -61.5t6.5 -91q-16 -111 -108 -168t-219 -57q-93 0 -183.5 29.5t-151.5 82.5zM187 -340l70 127q-34 25 -27 78q7 45 39.5 73.5t77.5 28.5q43 0 69 -27t19 -74q-5 -39 -39 -80l-105 -126h-104z" />
    <glyph glyph-name="scommaaccent" unicode="&#x219;" horiz-adv-x="552" 
d="M22 68l88 140q101 -68 192 -68q34 0 36 16q2 13 -25.5 22.5t-66.5 20.5t-77.5 28t-62 53t-15.5 88q13 86 85.5 137.5t182.5 51.5q131 0 244 -69l-94 -139q-112 60 -176 60q-31 0 -34 -18q-2 -13 26 -23.5t68 -22t79.5 -28.5t63.5 -53.5t16 -87.5q-12 -85 -86.5 -135.5
t-187.5 -50.5q-153 0 -256 78zM117 -340l70 127q-34 25 -27 78q7 45 39.5 73.5t77.5 28.5q43 0 69 -27t19 -74q-5 -39 -39 -80l-105 -126h-104z" />
    <glyph glyph-name="Tcommaaccent" unicode="&#x21a;" horiz-adv-x="641" 
d="M80 518l26 183h631l-26 -183h-200l-75 -518h-232l75 518h-199zM151 -340l70 127q-34 25 -27 78q7 45 39.5 73.5t77.5 28.5q43 0 69 -27t19 -74q-5 -39 -39 -80l-105 -126h-104z" />
    <glyph glyph-name="tcommaaccent" unicode="&#x21b;" horiz-adv-x="460" 
d="M62 375l21 142h75l22 153h224l-22 -153h128l-21 -142h-128l-24 -165q-3 -22 7.5 -34.5t30.5 -11.5q19 0 58 14l15 -154q-63 -34 -160 -34q-94 -1 -143 50t-37 136l29 199h-75zM114 -340l70 127q-34 25 -27 78q7 45 39.5 73.5t77.5 28.5q43 0 69 -27t19 -74
q-5 -39 -39 -80l-105 -126h-104z" />
    <glyph glyph-name="dotlessj" unicode="&#x237;" horiz-adv-x="338" 
d="M-113 -169l72 154q28 -14 53 -14q44 -2 50 46l77 530h225l-81 -564q-13 -86 -79 -136.5t-165 -49.5q-90 0 -152 34z" />
    <glyph glyph-name="circumflex" unicode="&#x2c6;" horiz-adv-x="350" 
d="M57 607l145 162h168l97 -162h-150l-43 82l-67 -82h-150z" />
    <glyph glyph-name="caron" unicode="&#x2c7;" horiz-adv-x="350" 
d="M61 769h165l47 -90l73 90h165l-159 -178h-184z" />
    <glyph glyph-name="firsttonechinese" unicode="&#x2c9;" horiz-adv-x="350" 
d="M115 624l21 148h300l-21 -148h-300z" />
    <glyph glyph-name="breve" unicode="&#x2d8;" horiz-adv-x="350" 
d="M102 769h135q-1 -23 10.5 -36.5t31.5 -13.5t35.5 13.5t20.5 36.5h135q-15 -79 -72 -126.5t-137 -47.5t-123.5 47t-35.5 127z" />
    <glyph glyph-name="dotaccent" unicode="&#x2d9;" horiz-adv-x="350" 
d="M162 703q8 50 44.5 82t86.5 32t77 -32t20 -82q-8 -50 -44 -82t-86 -32t-77.5 32t-20.5 82z" />
    <glyph glyph-name="ring" unicode="&#x2da;" horiz-adv-x="350" 
d="M152 703q7 52 48.5 88t93.5 36t83 -36t23 -88q-7 -52 -48.5 -88t-93.5 -36t-83 36t-23 88zM237 703q-2 -16 7.5 -27.5t26.5 -11.5q16 0 29 11t15 28t-7.5 28t-25.5 11q-17 0 -30 -11.5t-15 -27.5z" />
    <glyph glyph-name="ogonek" unicode="&#x2db;" horiz-adv-x="350" 
d="M52 -116q9 61 80 140h105q-65 -75 -69 -103q-2 -15 11 -15q20 0 42 30l45 -64q-52 -76 -130 -76q-38 0 -64.5 20.5t-19.5 67.5z" />
    <glyph glyph-name="tilde" unicode="&#x2dc;" horiz-adv-x="350" 
d="M69 614q26 183 144 183q36 0 67.5 -20t38.5 -20q23 0 29 37h135q-26 -182 -142 -182q-36 0 -68 20t-39 20q-23 0 -29 -38h-136z" />
    <glyph glyph-name="hungarumlaut" unicode="&#x2dd;" horiz-adv-x="350" 
d="M25 591l114 189l155 -53l-109 -136h-160zM246 591l114 189l155 -53l-109 -136h-160z" />
    <glyph glyph-name="commaaccent" unicode="&#x326;" horiz-adv-x="0" 
d="M-31 -340l70 127q-34 25 -27 78q7 45 39.5 73.5t77.5 28.5q43 0 69 -27t19 -74q-5 -39 -39 -80l-105 -126h-104z" />
    <glyph glyph-name="Delta" unicode="&#x394;" horiz-adv-x="799" 
d="M-10 0l397 701h238l184 -701h-819zM312 166h216l-62 304z" />
    <glyph glyph-name="pi" unicode="&#x3c0;" horiz-adv-x="733" 
d="M34 388q9 69 68 114t141 45h555l-22 -156h-106l-56 -391h-185l56 391h-37l-96 -391h-185l96 391h-13q-19 0 -33 -11.5t-15 -29.5q-3 -25 9 -62l-161 -52q-27 82 -16 152z" />
    <glyph glyph-name="Wgrave" unicode="&#x1e80;" horiz-adv-x="1121" 
d="M96 701h248l40 -460l170 459l226 1l40 -460l170 460h237l-330 -701h-239l-37 419l-160 -419h-239zM447 874l199 60l79 -189h-160z" />
    <glyph glyph-name="wgrave" unicode="&#x1e81;" horiz-adv-x="977" 
d="M69 547h228l40 -326l131 326h208l40 -326l133 326h217l-279 -547h-220l-36 288l-123 -288h-220zM408 720l198 60l80 -189h-160z" />
    <glyph glyph-name="Wacute" unicode="&#x1e82;" horiz-adv-x="1121" 
d="M96 701h248l40 -460l170 459l226 1l40 -460l170 460h237l-330 -701h-239l-37 419l-160 -419h-239zM508 745l135 189l181 -60l-156 -129h-160z" />
    <glyph glyph-name="wacute" unicode="&#x1e83;" horiz-adv-x="977" 
d="M69 547h228l40 -326l131 326h208l40 -326l133 326h217l-279 -547h-220l-36 288l-123 -288h-220zM469 591l134 189l182 -60l-156 -129h-160z" />
    <glyph glyph-name="Wdieresis" unicode="&#x1e84;" horiz-adv-x="1121" 
d="M96 701h248l40 -460l170 459l226 1l40 -460l170 460h237l-330 -701h-239l-37 419l-160 -419h-239zM434 852q6 41 35 66.5t69 25.5t62 -25.5t16 -66.5q-6 -40 -35 -65.5t-69 -25.5t-62 25.5t-16 65.5zM642 852q6 41 35 66.5t69 25.5t62 -25.5t16 -66.5q-6 -40 -35 -65.5
t-69 -25.5t-62 25.5t-16 65.5z" />
    <glyph glyph-name="wdieresis" unicode="&#x1e85;" horiz-adv-x="977" 
d="M69 547h228l40 -326l131 326h208l40 -326l133 326h217l-279 -547h-220l-36 288l-123 -288h-220zM395 698q6 41 35 66.5t69 25.5t62 -25.5t16 -66.5q-6 -40 -35.5 -65.5t-69.5 -25.5t-61.5 25.5t-15.5 65.5zM603 698q6 41 35 66.5t69 25.5t62 -25.5t16 -66.5
q-6 -40 -35.5 -65.5t-69.5 -25.5t-61.5 25.5t-15.5 65.5z" />
    <glyph glyph-name="Ygrave" unicode="&#x1ef2;" horiz-adv-x="719" 
d="M91 701h231l102 -270l175 270h231l-321 -483l-31 -218h-232l31 213zM301 874l199 60l79 -189h-160z" />
    <glyph glyph-name="ygrave" unicode="&#x1ef3;" horiz-adv-x="624" 
d="M-40 -140l115 148q31 -32 69 -32q37 0 58 28l9 13l-150 530h231l63 -312l134 312h224l-309 -585q-90 -166 -264 -166q-103 0 -180 64zM231 720l198 60l80 -189h-160z" />
    <glyph glyph-name="endash" unicode="&#x2013;" horiz-adv-x="410" 
d="M30 209l20 140h410l-20 -140h-410z" />
    <glyph glyph-name="emdash" unicode="&#x2014;" horiz-adv-x="610" 
d="M30 209l20 140h610l-20 -140h-610z" />
    <glyph glyph-name="quoteleft" unicode="&#x2018;" horiz-adv-x="265" 
d="M89 495q5 39 39 80l105 126h104l-70 -127q34 -25 27 -78q-7 -45 -39.5 -73.5t-77.5 -28.5q-43 0 -69 27t-19 74z" />
    <glyph glyph-name="quoteright" unicode="&#x2019;" horiz-adv-x="265" 
d="M75 394l70 127q-35 26 -28 78q7 45 40 73.5t78 28.5q43 0 69 -27t19 -74q-5 -39 -39 -80l-105 -126h-104z" />
    <glyph glyph-name="quotesinglbase" unicode="&#x201a;" horiz-adv-x="265" 
d="M2 -110l70 127q-34 25 -27 78q7 45 39.5 73.5t77.5 28.5q43 0 69 -27t19 -74q-5 -39 -39 -80l-105 -126h-104z" />
    <glyph glyph-name="quotedblleft" unicode="&#x201c;" horiz-adv-x="483" 
d="M89 495q5 39 39 80l105 126h104l-70 -127q34 -25 27 -78q-7 -45 -39.5 -73.5t-77.5 -28.5q-43 0 -69 27t-19 74zM307 495q5 39 39 80l105 126h104l-70 -127q34 -25 27 -78q-7 -45 -39.5 -73.5t-77.5 -28.5q-43 0 -69 27t-19 74z" />
    <glyph glyph-name="quotedblright" unicode="&#x201d;" horiz-adv-x="483" 
d="M75 394l70 127q-35 26 -28 78q7 45 40 73.5t78 28.5q43 0 68.5 -27t18.5 -74q-5 -40 -38 -80l-105 -126h-104zM293 394l70 127q-35 26 -28 78q7 45 40 73.5t78 28.5q43 0 68.5 -27t18.5 -74q-5 -40 -38 -80l-105 -126h-104z" />
    <glyph glyph-name="quotedblbase" unicode="&#x201e;" horiz-adv-x="483" 
d="M2 -110l70 127q-34 25 -27 78q7 45 39.5 73.5t77.5 28.5q43 0 69 -27t19 -74q-5 -39 -39 -80l-105 -126h-104zM220 -110l70 127q-34 25 -27 78q7 45 39.5 73.5t77.5 28.5q43 0 69 -27t19 -74q-5 -39 -39 -80l-105 -126h-104z" />
    <glyph glyph-name="dagger" unicode="&#x2020;" horiz-adv-x="608" 
d="M67 327l25 176h168l29 196h225l-29 -196h175l-25 -176h-175l-74 -512h-225l74 512h-168z" />
    <glyph glyph-name="daggerdbl" unicode="&#x2021;" horiz-adv-x="608" 
d="M22 17l26 176h168l19 134h-168l25 176h168l29 196h225l-29 -196h175l-25 -176h-175l-19 -134h175l-26 -176h-175l-29 -202h-225l29 202h-168z" />
    <glyph glyph-name="bullet" unicode="&#x2022;" horiz-adv-x="368" 
d="M71 284q10 68 59 110.5t116 42.5q69 0 106 -42.5t27 -110.5q-10 -69 -59 -112t-118 -43q-68 0 -104.5 43t-26.5 112z" />
    <glyph glyph-name="ellipsis" unicode="&#x2026;" horiz-adv-x="745" 
d="M44 95q7 45 39 73.5t77 28.5q46 0 71 -28.5t18 -73.5q-7 -46 -39.5 -74.5t-78.5 -28.5q-45 0 -69.5 28.5t-17.5 74.5zM284 95q7 45 39 73.5t77 28.5q46 0 71 -28.5t18 -73.5q-7 -46 -39.5 -74.5t-78.5 -28.5q-45 0 -69.5 28.5t-17.5 74.5zM524 95q7 45 39 73.5t77 28.5
q46 0 71 -28.5t18 -73.5q-7 -46 -39.5 -74.5t-78.5 -28.5q-45 0 -69.5 28.5t-17.5 74.5z" />
    <glyph glyph-name="perthousand" unicode="&#x2030;" horiz-adv-x="1527" 
d="M96 491q14 97 78.5 155.5t157.5 58.5t140 -58.5t33 -155.5q-14 -98 -78 -157t-157 -59t-140.5 59t-33.5 157zM186 0l588 701h209l-588 -701h-209zM237 491q-7 -44 7 -70.5t43 -26.5t50 26.5t28 70.5q6 44 -7.5 70t-42.5 26t-50.5 -26.5t-27.5 -69.5zM664 211
q14 97 78.5 155.5t157.5 58.5t140 -58.5t33 -155.5q-14 -98 -78 -157t-157 -59t-140.5 59t-33.5 157zM805 211q-7 -44 7 -70.5t43 -26.5t50 26.5t28 70.5q6 44 -7.5 70t-42.5 26t-50.5 -26.5t-27.5 -69.5zM1123 211q14 97 78.5 155.5t157.5 58.5t140 -58.5t33 -155.5
q-14 -98 -78 -157t-157 -59t-140.5 59t-33.5 157zM1264 211q-7 -44 7 -70.5t43 -26.5t50 26.5t28 70.5q6 44 -7.5 70t-42.5 26t-50.5 -26.5t-27.5 -69.5z" />
    <glyph glyph-name="guilsinglleft" unicode="&#x2039;" horiz-adv-x="285" 
d="M22 273l152 193h180l-134 -193l78 -195h-180z" />
    <glyph glyph-name="guilsinglright" unicode="&#x203a;" horiz-adv-x="285" 
d="M9 78l134 193l-78 195h180l96 -195l-152 -193h-180z" />
    <glyph glyph-name="fraction" unicode="&#x2044;" horiz-adv-x="150" 
d="M-273 0l588 701h209l-588 -701h-209z" />
    <glyph glyph-name="Euro" unicode="&#x20ac;" horiz-adv-x="774" 
d="M56 249l12 82h82l2 21q2 18 4 25h-82l12 81h96q50 113 158.5 181.5t242.5 68.5q81 0 156.5 -35t121.5 -93l-157 -159q-25 43 -65 68.5t-81 25.5q-73 0 -122 -57h202l-12 -81h-232q-2 -8 -4 -22q-2 -16 -2 -24h232l-12 -82h-200q34 -56 104 -56q38 0 84 21.5t86 58.5
l114 -143q-68 -64 -156 -102t-169 -38q-132 0 -218.5 71t-101.5 188h-95z" />
    <glyph glyph-name="literSign" unicode="&#x2113;" horiz-adv-x="478" 
d="M21 193l93 57l67 217q40 123 104 183.5t141 60.5q62 0 91 -38.5t19 -105.5q-8 -54 -36.5 -106t-73.5 -96t-78 -71.5t-78 -60.5q-12 -9 -18 -13q-25 -87 35 -87q49 0 121 74l50 -76q-105 -138 -239 -138q-135 0 -135 138l-47 -24zM299 371q109 115 120 193q5 38 -14 38
q-35 0 -70 -115z" />
    <glyph glyph-name="trademark" unicode="&#x2122;" horiz-adv-x="921" 
d="M72 573l18 128h364l-18 -128h-102l-43 -293h-161l43 293h-101zM423 280l61 421h174l51 -192l108 192h174l-61 -421h-144l28 192l-76 -152h-111l-32 152l-28 -192h-144z" />
    <glyph glyph-name="Omega" unicode="&#x2126;" horiz-adv-x="833" 
d="M5 0l26 180h145q-35 38 -53 98t-11 113q20 139 135.5 230.5t271.5 91.5q157 0 245.5 -91t68.5 -231q-7 -52 -42 -112t-81 -99h144l-26 -180h-365l24 166q52 36 91 94t47 111q10 67 -27.5 110t-105.5 43q-67 0 -117.5 -43.5t-60.5 -109.5q-7 -52 15.5 -110.5t64.5 -94.5
l-24 -166h-365z" />
    <glyph glyph-name="estimated" unicode="&#x212e;" horiz-adv-x="809" 
d="M116 319q18 125 128.5 213.5t249.5 88.5t224.5 -88.5t67.5 -213.5l-1 -7h-543q-6 0 -6 -4l-23 -164q-1 -9 5 -19q70 -89 193 -89q130 0 229 99h49q-54 -54 -128 -85.5t-153 -31.5q-139 0 -224.5 88.5t-67.5 212.5zM240 333q0 -5 4 -5h416q6 0 6 5l24 165q1 11 -6 20
q-74 85 -191 85q-120 0 -218 -88q-11 -9 -12 -20z" />
    <glyph glyph-name="oneeighth" unicode="&#x215b;" horiz-adv-x="950" 
d="M83 0l588 701h209l-588 -701h-209zM88 582l17 119h232l-61 -421h-156l44 302h-76zM561 117q5 33 29.5 62.5t61.5 45.5q-21 16 -31.5 40.5t-7.5 47.5q7 52 58 83t128 31q78 0 119.5 -32.5t33.5 -86.5q-7 -49 -56 -83q28 -16 43 -44.5t10 -60.5q-8 -58 -66 -92.5
t-146 -34.5t-136 34t-40 90zM711 133q-2 -16 8.5 -24t33.5 -8q47 0 51 32q4 33 -42 33t-51 -33zM742 300q-2 -13 6.5 -20t28.5 -7q39 0 43 27q2 15 -6.5 22.5t-27.5 7.5q-40 0 -44 -30z" />
    <glyph glyph-name="threeeighths" unicode="&#x215c;" horiz-adv-x="1008" 
d="M47 331l78 114q40 -61 98 -61q40 0 44 30q2 16 -6.5 23.5t-28.5 7.5h-82l11 78l88 68h-142l16 108h318l-12 -84l-103 -79l19 -5q39 -10 60.5 -40.5t14.5 -76.5q-9 -62 -64 -101.5t-136 -39.5q-51 0 -97.5 16t-75.5 42zM141 0l588 701h209l-588 -701h-209zM619 117
q5 33 29.5 62.5t61.5 45.5q-21 16 -31.5 40.5t-7.5 47.5q7 52 58 83t128 31q78 0 119.5 -32.5t33.5 -86.5q-7 -49 -56 -83q28 -16 43 -44.5t10 -60.5q-8 -58 -66 -92.5t-146 -34.5t-136 34t-40 90zM769 133q-2 -16 8.5 -24t33.5 -8q47 0 51 32q4 33 -42 33t-51 -33zM800 300
q-2 -13 6.5 -20t28.5 -7q39 0 43 27q2 15 -6.5 22.5t-27.5 7.5q-40 0 -44 -30z" />
    <glyph glyph-name="fiveeighths" unicode="&#x215d;" horiz-adv-x="1020" 
d="M52 330l77 113l-20 1l37 257h314l-17 -115h-171l-4 -33q2 -2 13 -2q81 0 124.5 -34.5t35.5 -92.5q-10 -68 -68 -109.5t-144 -41.5q-103 0 -177 57zM131 443q37 -59 95 -59q41 0 45 30q2 14 -7 21t-30 7zM153 0l588 701h209l-588 -701h-209zM631 117q5 33 29.5 62.5
t61.5 45.5q-21 16 -31.5 40.5t-7.5 47.5q7 52 58 83t128 31q78 0 119.5 -32.5t33.5 -86.5q-7 -49 -56 -83q28 -16 43 -44.5t10 -60.5q-8 -58 -66 -92.5t-146 -34.5t-136 34t-40 90zM781 133q-2 -16 8.5 -24t33.5 -8q47 0 51 32q4 33 -42 33t-51 -33zM812 300q-2 -13 6.5 -20
t28.5 -7q39 0 43 27q2 15 -6.5 22.5t-27.5 7.5q-40 0 -44 -30z" />
    <glyph glyph-name="seveneighths" unicode="&#x215e;" horiz-adv-x="995" 
d="M98 528l25 173h371l-14 -100l-196 -321h-165l185 306h-61l-8 -58h-137zM128 0l588 701h209l-588 -701h-209zM606 117q5 33 29.5 62.5t61.5 45.5q-21 16 -31.5 40.5t-7.5 47.5q7 52 58 83t128 31q78 0 119.5 -32.5t33.5 -86.5q-7 -49 -56 -83q28 -16 43 -44.5t10 -60.5
q-8 -58 -66 -92.5t-146 -34.5t-136 34t-40 90zM756 133q-2 -16 8.5 -24t33.5 -8q47 0 51 32q5 33 -42 33t-51 -33zM787 300q-2 -13 6.5 -20t28.5 -7q38 0 43 27q2 15 -6.5 22.5t-27.5 7.5q-39 0 -44 -30z" />
    <glyph glyph-name="partialdiff" unicode="&#x2202;" horiz-adv-x="648" 
d="M54 237q15 103 89 167t181 64q85 0 128 -52q16 117 -109 117q-90 0 -158 -56l-65 162q52 33 123 52.5t139 19.5q151 0 228 -97.5t54 -260.5q-24 -167 -123 -265t-247 -98q-124 0 -190 67t-50 180zM269 238q-9 -64 59 -64q69 0 78 63t-61 63q-67 0 -76 -62z" />
    <glyph glyph-name="product" unicode="&#x220f;" horiz-adv-x="734" 
d="M22 -194l135 936h634l-135 -936h-225l110 760h-184l-110 -760h-225z" />
    <glyph glyph-name="summation" unicode="&#x2211;" horiz-adv-x="621" 
d="M3 -138l23 158l276 279l-182 284l23 162h567l-27 -193h-299l163 -252l-235 -245h309l-28 -193h-590z" />
    <glyph glyph-name="minus" unicode="&#x2212;" horiz-adv-x="520" 
d="M67 259l20 140h460l-20 -140h-460z" />
    <glyph glyph-name="divisionslash" unicode="&#x2215;" horiz-adv-x="373" 
d="M-65 -104l460 910h188l-460 -910h-188z" />
    <glyph glyph-name="bulletoperator" unicode="&#x2219;" horiz-adv-x="368" 
d="M71 284q10 68 59 110.5t116 42.5q69 0 106 -42.5t27 -110.5q-10 -69 -59 -112t-118 -43q-68 0 -104.5 43t-26.5 112z" />
    <glyph glyph-name="radical" unicode="&#x221a;" horiz-adv-x="725" 
d="M29 242l25 176h283l40 -356l266 680h214l-393 -903h-240l-66 403h-129z" />
    <glyph glyph-name="infinity" unicode="&#x221e;" horiz-adv-x="835" 
d="M58 296q14 99 84 163.5t162 64.5q63 0 102 -29.5t68 -82.5q93 112 208 112q93 0 144 -64.5t37 -162.5q-14 -99 -84 -163.5t-163 -64.5q-63 0 -102.5 30t-68.5 82q-93 -112 -207 -112q-92 0 -143 64.5t-37 162.5zM208 296q-4 -34 10.5 -55.5t41.5 -21.5q65 0 128 79
q-41 76 -106 76q-27 0 -48.5 -22t-25.5 -56zM532 295q43 -76 106 -76q28 0 49.5 22t25.5 56q5 34 -10 55.5t-43 21.5q-65 0 -128 -79z" />
    <glyph glyph-name="integral" unicode="&#x222b;" horiz-adv-x="434" 
d="M-47 -118l46 143q41 -21 69 -21q47 0 71 24t32 81q6 41 20 242.5t19 237.5q21 147 80.5 209t178.5 62q52 0 105 -25l-40 -142q-32 12 -59 12q-45 0 -67.5 -21.5t-29.5 -73.5q-5 -32 -20.5 -237.5t-21.5 -247.5q-21 -148 -81 -210.5t-180 -62.5q-80 0 -122 30z" />
    <glyph glyph-name="approxequal" unicode="&#x2248;" horiz-adv-x="520" 
d="M62 105q15 103 53.5 152t103.5 49q40 0 75 -22t43 -22q26 0 32 41h148q-15 -103 -53 -152t-103 -49q-40 0 -75 22t-43 22q-26 0 -32 -41h-149zM97 345q15 103 53.5 152t103.5 49q40 0 74.5 -22t42.5 -22q26 0 32 41h148q-15 -103 -53 -152t-103 -49q-40 0 -74.5 22
t-42.5 22q-26 0 -32 -41h-149z" />
    <glyph glyph-name="notequal" unicode="&#x2260;" horiz-adv-x="520" 
d="M51 149l21 140h130l36 80h-155l20 140h199l60 131h168l-60 -131h93l-20 -140h-137l-36 -80h162l-21 -140h-206l-62 -136h-168l62 136h-86z" />
    <glyph glyph-name="lessequal" unicode="&#x2264;" horiz-adv-x="520" 
d="M28 -16l20 140h460l-20 -140h-460zM76 321l25 169l485 176l-21 -148l-332 -112l299 -112l-21 -148z" />
    <glyph glyph-name="greaterequal" unicode="&#x2265;" horiz-adv-x="520" 
d="M28 -16l20 140h460l-20 -140h-460zM52 155l22 148l332 112l-300 112l21 149l435 -176l-24 -169z" />
    <glyph glyph-name="lozenge" unicode="&#x25ca;" horiz-adv-x="482" 
d="M63 330l275 336l177 -336l-276 -339zM206 330l65 -125l101 125l-66 123z" />
    <glyph glyph-name="zero.dnom" horiz-adv-x="459" 
d="M55 211q14 97 78.5 155.5t157.5 58.5t140 -58.5t33 -155.5q-14 -98 -78 -157t-157 -59t-140.5 59t-33.5 157zM196 211q-7 -44 7 -70.5t43 -26.5t50 26.5t28 70.5q6 44 -7.5 70t-42.5 26t-50.5 -26.5t-27.5 -69.5z" />
    <glyph glyph-name="one.dnom" horiz-adv-x="286" 
d="M48 302l17 119h232l-61 -421h-156l44 302h-76z" />
    <glyph glyph-name="two.dnom" horiz-adv-x="394" 
d="M28 0l13 93l174 149q33 31 36 48q1 8 -4 12t-17 4q-48 0 -127 -54l-42 108q113 67 212 67q70 0 111 -32t34 -83q-9 -61 -108 -143l-65 -54h149l-17 -115h-349z" />
    <glyph glyph-name="three.dnom" horiz-adv-x="374" 
d="M6 51l79 114q40 -61 98 -61q39 0 43 30q2 16 -6 23.5t-28 7.5h-82l11 78l88 68h-142l15 108h318l-12 -84l-102 -79l18 -5q39 -10 60.5 -40.5t14.5 -76.5q-9 -62 -63.5 -101.5t-135.5 -39.5q-51 0 -98 16t-76 42z" />
    <glyph glyph-name="four.dnom" horiz-adv-x="432" 
d="M30 77l14 98l162 246h149l-150 -237h49l10 76h145l-10 -76h55l-16 -107h-55l-11 -77h-145l11 77h-208z" />
    <glyph glyph-name="five.dnom" horiz-adv-x="396" 
d="M11 50l77 113l-19 1l37 257h314l-17 -115h-171l-5 -33q2 -2 14 -2q81 0 124.5 -34.5t35.5 -92.5q-10 -68 -68 -109.5t-144 -41.5q-48 0 -96.5 15.5t-81.5 41.5zM90 163q37 -59 96 -59q40 0 44 30q2 14 -7 21t-30 7z" />
    <glyph glyph-name="six.dnom" horiz-adv-x="419" 
d="M55 206q14 100 83 160.5t169 60.5q91 0 149 -38l-74 -105q-29 28 -83 28q-79 0 -88 -54q39 24 91 24q64 0 98 -38.5t25 -100.5q-10 -68 -64 -109t-134 -41q-94 0 -140 58t-32 155zM208 143q-2 -17 5 -23.5t26 -6.5q37 0 41 31q2 15 -5.5 22.5t-26.5 7.5q-36 0 -40 -31z
" />
    <glyph glyph-name="seven.dnom" horiz-adv-x="401" 
d="M58 248l25 173h371l-15 -100l-195 -321h-165l185 306h-61l-8 -58h-137z" />
    <glyph glyph-name="eight.dnom" horiz-adv-x="424" 
d="M35 117q5 33 29.5 62.5t61.5 45.5q-21 16 -31.5 40.5t-7.5 47.5q7 52 58 83t128 31q78 0 119.5 -32.5t33.5 -86.5q-7 -49 -56 -83q28 -16 43 -44.5t10 -60.5q-8 -58 -66 -92.5t-146 -34.5t-136 34t-40 90zM185 133q-2 -16 8.5 -24t33.5 -8q47 0 51 32q4 33 -42 33
t-51 -33zM216 300q-2 -13 6.5 -20t28.5 -7q39 0 43 27q2 15 -6.5 22.5t-27.5 7.5q-40 0 -44 -30z" />
    <glyph glyph-name="nine.dnom" horiz-adv-x="419" 
d="M24 32l74 104q30 -27 83 -27q78 0 87 53q-42 -24 -90 -24q-64 0 -98 39t-25 101q10 68 64 108.5t134 40.5q94 0 140 -58t32 -155q-14 -100 -83 -160.5t-169 -60.5q-92 0 -149 39zM200 277q-2 -15 5.5 -22.5t26.5 -7.5q36 0 40 30q2 17 -5.5 24t-26.5 7q-36 0 -40 -31z
" />
    <glyph glyph-name="zero.numr" horiz-adv-x="459" 
d="M96 491q14 97 78.5 155.5t157.5 58.5t140 -58.5t33 -155.5q-14 -98 -78 -157t-157 -59t-140.5 59t-33.5 157zM237 491q-7 -44 7 -70.5t43 -26.5t50 26.5t28 70.5q6 44 -7.5 70t-42.5 26t-50.5 -26.5t-27.5 -69.5z" />
    <glyph glyph-name="one.numr" horiz-adv-x="286" 
d="M88 582l17 119h232l-61 -421h-156l44 302h-76z" />
    <glyph glyph-name="two.numr" horiz-adv-x="394" 
d="M68 280l14 93l173 149q33 31 36 48q1 8 -4 12t-17 4q-47 0 -126 -54l-43 108q113 67 212 67q70 0 111 -32t34 -83q-9 -62 -107 -143l-66 -54h149l-17 -115h-349z" />
    <glyph glyph-name="three.numr" horiz-adv-x="374" 
d="M47 331l78 114q40 -61 98 -61q40 0 44 30q2 16 -6.5 23.5t-28.5 7.5h-82l11 78l88 68h-142l16 108h318l-12 -84l-103 -79l19 -5q39 -10 60.5 -40.5t14.5 -76.5q-9 -62 -64 -101.5t-136 -39.5q-51 0 -97.5 16t-75.5 42z" />
    <glyph glyph-name="four.numr" horiz-adv-x="432" 
d="M70 357l15 98l161 246h149l-150 -237h49l11 76h145l-11 -76h55l-16 -107h-55l-11 -77h-145l11 77h-208z" />
    <glyph glyph-name="five.numr" horiz-adv-x="396" 
d="M52 330l77 113l-20 1l37 257h314l-17 -115h-171l-4 -33q2 -2 13 -2q81 0 124.5 -34.5t35.5 -92.5q-10 -68 -68 -109.5t-144 -41.5q-103 0 -177 57zM131 443q37 -59 95 -59q41 0 45 30q2 14 -7 21t-30 7z" />
    <glyph glyph-name="six.numr" horiz-adv-x="419" 
d="M95 486q14 100 83 160.5t169 60.5q91 0 149 -38l-74 -105q-29 28 -83 28q-78 0 -87 -54q39 24 90 24q64 0 98 -38.5t25 -100.5q-10 -68 -64 -109t-134 -41q-94 0 -140 58t-32 155zM248 423q-2 -17 5.5 -23.5t26.5 -6.5q36 0 40 31q2 15 -5.5 22.5t-26.5 7.5
q-36 0 -40 -31z" />
    <glyph glyph-name="seven.numr" horiz-adv-x="401" 
d="M98 528l25 173h371l-14 -100l-196 -321h-165l185 306h-61l-8 -58h-137z" />
    <glyph glyph-name="eight.numr" horiz-adv-x="424" 
d="M75 397q4 33 29.5 62.5t62.5 45.5q-21 17 -32 41t-8 47q7 52 58 83t128 31q78 0 120 -32.5t34 -86.5q-7 -49 -56 -83q28 -16 43 -44.5t10 -60.5q-8 -58 -66 -92.5t-147 -34.5q-88 0 -136 34t-40 90zM226 413q-2 -16 8 -24t33 -8q48 0 52 32q2 16 -9 24.5t-34 8.5
q-46 0 -50 -33zM257 580q-2 -13 6.5 -20t28.5 -7q38 0 43 27q2 15 -6.5 22.5t-28.5 7.5q-38 0 -43 -30z" />
    <glyph glyph-name="nine.numr" horiz-adv-x="419" 
d="M64 312l74 104q30 -27 83 -27q79 0 88 53q-42 -24 -91 -24q-64 0 -98 39t-25 101q10 68 64 108.5t134 40.5q94 0 140 -58t32 -155q-14 -100 -83 -160.5t-169 -60.5q-92 0 -149 39zM240 557q-2 -15 5.5 -22.5t26.5 -7.5q36 0 40 30q2 17 -5 24t-26 7q-37 0 -41 -31z" />
    </font>
</defs>
</svg>
