<?xml version="1.0" standalone="no"?>
<!DOCTYPE svg PUBLIC "-//W3C//DTD SVG 1.1//EN" "http://www.w3.org/Graphics/SVG/1.1/DTD/svg11.dtd" >
<svg xmlns="http://www.w3.org/2000/svg" xmlns:xlink="http://www.w3.org/1999/xlink" version="1.1">
<metadata>
Created by FontForge 20170731 at Wed Jan  4 18:39:43 2017
 By Aleksey,,,
Copyright (c) 2014 by Julieta Ulanovsky. All rights reserved, Design Modifications and new weights 2015, Jasper @ Cannot Into Space Fonts.
</metadata>
<defs>
<font id="TruenoBdOlIt" horiz-adv-x="350" >
  <font-face 
    font-family="Trueno"
    font-weight="700"
    font-style="italic"
    font-stretch="normal"
    units-per-em="1000"
    panose-1="0 0 8 0 0 0 0 0 0 0"
    ascent="800"
    descent="-200"
    x-height="564"
    cap-height="725"
    bbox="-305 -320.333 1503.44 1000"
    underline-thickness="50"
    underline-position="-200"
    unicode-range="U+0020-FB02"
  />
<missing-glyph horiz-adv-x="500" 
d="M-25 0l101 700q1 11 10 18t18 7h500q11 0 17.5 -8t4.5 -17l-101 -700q-1 -11 -10.5 -18t-18.5 -7h-500q-11 0 -17 8t-4 17zM29 25h450l93 650h-450zM39 95l73 510q3 19 15 22.5t23 -2.5l10 -6l133 -255q7 -14 -4 -28l-207 -255q-14 -15 -24 -12t-14 15zM68 64l207 255
q13 16 23.5 16t14.5 -8l4 -8l133 -255q8 -19 2.5 -28t-16.5 -10l-12 -1h-340q-21 0 -25 9.5t3 19.5zM101 178l139 172l-90 172zM138 75h246l-97 185zM151 636q-8 19 -2.5 28t17.5 10l11 1h340q21 0 25 -9.5t-3 -19.5l-7 -10l-206 -255q-13 -16 -23.5 -16t-14.5 8l-4 8z
M217 625l96 -185l150 185h-246zM308 336q-7 14 4 28l206 255q15 15 24.5 12t14.5 -15l5 -11l-73 -510q-3 -19 -15 -22.5t-22 2.5l-11 6zM360 350l91 -172l49 344z" />
    <glyph glyph-name="fi" unicode="fi" horiz-adv-x="697" 
d="M62 406l16 114q1 11 10.5 18t18.5 7h48l2 20q14 99 89 154.5t173 55.5q66 0 112 -23q15 -7 11 -24l-26 -137q0 -2 -0.5 -4.5t-3 -9t-6.5 -10t-12 -3.5t-18 6q-29 18 -57 18q-20 0 -29.5 -7.5t-12.5 -26.5l-1 -9h97q11 0 17 -8t4 -17l-16 -114q-1 -11 -10.5 -18t-18.5 -7
h-97l-55 -381q-1 -11 -10.5 -18t-18.5 -7h-171q-11 0 -17 8t-4 17l55 381h-48q-11 0 -17 8t-4 17zM115 431h48q9 0 16 -7t6 -18l-55 -381h121l55 381q2 9 10 17t18 8h97l9 64h-97q-9 0 -15.5 7t-5.5 18l5 34q6 40 34 62t65 22q26 0 47 -8l16 82q-36 13 -78 13
q-82 0 -137.5 -41.5t-66.5 -118.5l-6 -45q-2 -9 -10 -17t-19 -8h-48zM431 0l78 539q1 11 10 18t18 7h172q11 0 17.5 -8t4.5 -17l-78 -539q-1 -11 -10.5 -18t-18.5 -7h-172q-11 0 -17 8t-4 17zM485 25h122l70 489h-122zM526 694q8 50 46 83t87 33q50 0 79 -33t21 -83
t-46 -83.5t-88 -33.5t-78 33.5t-21 83.5zM576 694q-4 -31 11 -49t45 -18q31 0 52 18t25 49q5 30 -10.5 48t-46.5 18q-30 0 -51 -18t-25 -48z" />
    <glyph glyph-name="fl" unicode="fl" horiz-adv-x="714" 
d="M62 407l17 113q1 10 10.5 17.5t18.5 7.5h47l3 27q13 92 86.5 149t174.5 56q67 0 113 -21q15 -6 11 -24l-25 -138q0 -2 -1 -5t-4 -9.5t-7.5 -10.5t-12.5 -3t-18 9q-19 16 -47 18q-46 0 -52 -46v-2h98q10 0 16.5 -7t4.5 -18l-17 -113q-1 -10 -10.5 -17.5t-18.5 -7.5h-97
l-55 -382q-1 -11 -10.5 -18t-18.5 -7h-171q-11 0 -17 8t-4 17l55 382h-48q-10 0 -16.5 7t-4.5 18zM115 432h48q9 0 16 -7t6 -18l-55 -382h121l55 382q2 9 10 17t18 8h97l10 63h-98q-9 0 -15.5 7t-5.5 18l4 27q6 42 37.5 69.5t73.5 26.5q20 -1 38 -8l15 81q-35 11 -78 11
q-84 1 -139 -42t-65 -113l-7 -52q-2 -9 -10 -17t-19 -8h-47zM442 0l107 742q1 11 10.5 18t18.5 7h173q11 0 17 -8t4 -17l-107 -742q-1 -11 -10.5 -18t-18.5 -7h-173q-11 0 -17 8t-4 17zM496 25h123l99 692h-123z" />
    <glyph glyph-name=".notdef" horiz-adv-x="500" 
d="M-25 0l101 700q1 11 10 18t18 7h500q11 0 17.5 -8t4.5 -17l-101 -700q-1 -11 -10.5 -18t-18.5 -7h-500q-11 0 -17 8t-4 17zM29 25h450l93 650h-450zM39 95l73 510q3 19 15 22.5t23 -2.5l10 -6l133 -255q7 -14 -4 -28l-207 -255q-14 -15 -24 -12t-14 15zM68 64l207 255
q13 16 23.5 16t14.5 -8l4 -8l133 -255q8 -19 2.5 -28t-16.5 -10l-12 -1h-340q-21 0 -25 9.5t3 19.5zM101 178l139 172l-90 172zM138 75h246l-97 185zM151 636q-8 19 -2.5 28t17.5 10l11 1h340q21 0 25 -9.5t-3 -19.5l-7 -10l-206 -255q-13 -16 -23.5 -16t-14.5 8l-4 8z
M217 625l96 -185l150 185h-246zM308 336q-7 14 4 28l206 255q15 15 24.5 12t14.5 -15l5 -11l-73 -510q-3 -19 -15 -22.5t-22 2.5l-11 6zM360 350l91 -172l49 344z" />
    <glyph glyph-name=".null" horiz-adv-x="0" 
 />
    <glyph glyph-name="nonmarkingreturn" horiz-adv-x="333" 
 />
    <glyph glyph-name="space" unicode=" " horiz-adv-x="232" 
 />
    <glyph glyph-name="exclam" unicode="!" horiz-adv-x="254" 
d="M34 76q7 46 42.5 77t81.5 31q47 0 73.5 -30.5t19.5 -77.5t-42.5 -78t-82.5 -31q-46 0 -72.5 31t-19.5 78zM84 76q-4 -28 9.5 -43.5t39.5 -15.5q27 0 45.5 16t22.5 43q4 26 -10 42t-41 16q-26 0 -44 -15.5t-22 -42.5zM91 237l10 278q0 1 1 3l25 178q1 11 10.5 18t18.5 7
h164q11 0 17 -8t4 -17l-25 -178v-1q-1 -1 -1 -2l-70 -278q-2 -9 -10.5 -15.5t-17.5 -6.5h-104q-10 0 -16 6.5t-6 15.5zM142 265h60l64 254l22 152h-114l-22 -152z" />
    <glyph glyph-name="quotedbl" unicode="&#x22;" horiz-adv-x="439" 
d="M97 427l39 273q1 11 10 18t18 7h130q11 0 17.5 -8t4.5 -17l-39 -273q-1 -11 -10.5 -18t-18.5 -7h-130q-11 0 -17 8t-4 17zM150 452h80l32 223h-80zM286 427l39 273q1 11 10 18t18 7h130q11 0 17.5 -8t4.5 -17l-39 -273q-1 -11 -10.5 -18t-18.5 -7h-130q-11 0 -17 8t-4 17
zM339 452h80l32 223h-80z" />
    <glyph glyph-name="numbersign" unicode="#" horiz-adv-x="735" 
d="M13 159l31 119q2 9 10.5 15.5t17.5 6.5h114l24 93h-104q-10 0 -17 7t-4 21l30 119q2 9 10.5 15.5t17.5 6.5h113l37 141q2 9 10.5 15.5t17.5 6.5h124q10 0 17.5 -6.5t3.5 -21.5l-36 -135h90l37 141q2 9 10.5 15.5t17.5 6.5h124q10 0 17.5 -6.5t3.5 -21.5l-36 -135h107
q10 0 17 -7t4 -21l-30 -119q-2 -9 -10.5 -15.5t-17.5 -6.5h-115l-25 -93h106q10 0 17.5 -6.5t3.5 -21.5l-31 -119q-2 -9 -10.5 -15.5t-17.5 -6.5h-114l-36 -134q-2 -9 -10.5 -15.5t-17.5 -6.5h-124q-10 0 -17 6.5t-3 21.5l34 128h-89l-36 -134q-2 -9 -10.5 -15.5t-17.5 -6.5
h-124q-10 0 -17 6.5t-3 21.5l34 128h-107q-10 0 -17.5 6.5t-3.5 21.5zM69 181h107q15 0 19.5 -9t1.5 -19l-34 -128h73l36 134q2 9 10.5 15.5t17.5 6.5h139q15 0 19.5 -9t1.5 -19l-34 -128h73l36 134q2 9 10.5 15.5t17.5 6.5h114l18 69h-107q-15 0 -19.5 9t-1.5 19l39 143
q2 9 10.5 15.5t17.5 6.5h114l18 69h-107q-15 0 -19.5 9t-1.5 19l36 135h-74l-37 -141q-2 -9 -10.5 -15.5t-17.5 -6.5h-140q-15 0 -19.5 9t-1.5 19l36 135h-74l-37 -141q-2 -9 -10.5 -15.5t-17.5 -6.5h-113l-17 -69h105q15 0 19.5 -9t1.5 -19l-38 -143q-2 -9 -10.5 -15.5
t-17.5 -6.5h-114zM304 278l39 143q2 9 10.5 15.5t17.5 6.5h139q15 0 19.5 -9t1.5 -19l-39 -143q-2 -9 -10.5 -15.5t-17.5 -6.5h-139q-15 0 -19.5 9t-1.5 19zM361 300h88l25 93h-88z" />
    <glyph glyph-name="dollar" unicode="$" horiz-adv-x="644" 
d="M12 117l88 137q19 29 40 8q43 -43 107.5 -71t114.5 -28q66 0 72 36q2 16 -16.5 27t-50 19.5t-69.5 18t-75 26.5t-66 41.5t-43.5 67t-6.5 98.5q12 84 74 143t155 81l18 128q1 11 10.5 18t18.5 7h132q11 0 17 -8t4 -17l-17 -121q121 -18 203 -77q17 -12 5 -32l-87 -139
q-6 -9 -16 -13t-21 2q-48 30 -105.5 50t-95.5 20q-52 0 -56 -26q-2 -17 23.5 -30t65 -21.5t85 -26t83 -41.5t58 -72.5t11.5 -113.5q-14 -95 -86.5 -155.5t-175.5 -77.5l-18 -129q-1 -11 -10.5 -18t-18.5 -7h-132q-11 0 -17 8t-4 17l19 134q-129 25 -215 107q-13 12 -2 30z
M65 113q81 -68 200 -87q8 -2 13 -9t4 -16l-19 -130h82l19 126q2 9 9 16.5t16 8.5q97 11 159.5 59t73.5 127q7 46 -8.5 79.5t-45.5 52t-68 32t-75.5 24.5t-68.5 24t-48 36.5t-12 56.5q6 39 38.5 57.5t74.5 18.5q93 0 204 -63l59 94q-78 49 -188 61q-8 1 -13.5 8t-4.5 17
l17 118h-82l-18 -123q-1 -8 -8 -16t-16 -9q-87 -17 -139.5 -63t-62.5 -116q-6 -40 5.5 -70t35.5 -47t55 -30.5t64.5 -21.5t65 -19.5t56 -23.5t37 -34t8.5 -52q-6 -43 -43 -64.5t-86 -21.5q-55 0 -118 24.5t-113 66.5z" />
    <glyph glyph-name="percent" unicode="%" horiz-adv-x="1023" 
d="M77 492q15 106 85 171t170 65t150.5 -65t35.5 -171q-15 -107 -84.5 -172t-169.5 -65t-151 65t-36 172zM127 492q-13 -89 25.5 -138t118.5 -49t132 49t65 138t-25 137.5t-118 48.5t-132.5 -48.5t-65.5 -137.5zM160 15l601 701q9 10 22 10h162h5t9.5 -2.5t9.5 -6t1.5 -12
t-11.5 -19.5l-601 -701q-9 -10 -22 -10h-162h-5t-9.5 2.5t-9.5 6t-1.5 12t11.5 19.5zM188 492q9 62 44 103t87 41t75 -40.5t14 -103.5q-9 -62 -44 -103t-87 -41t-75 40.5t-14 103.5zM230 25h101l558 651h-101zM238 492q-14 -94 46 -94t74 94t-47 94q-59 0 -73 -94zM606 209
q15 106 85 171t170 65t150.5 -65t35.5 -171q-15 -107 -84.5 -172.5t-169.5 -65.5t-151 65.5t-36 172.5zM656 209q-13 -89 25.5 -138.5t118.5 -49.5t132 49.5t65 138.5t-25 137.5t-118 48.5t-132.5 -48.5t-65.5 -137.5zM717 209q9 62 44 103t87 41t75 -40.5t14 -103.5
t-44 -104t-87 -41t-75 41t-14 104zM767 209q-14 -95 46 -95t74 95q14 94 -46 94t-74 -94z" />
    <glyph glyph-name="ampersand" unicode="&#x26;" horiz-adv-x="685" 
d="M58 196q17 117 157 195q-37 77 -27 149q13 87 83.5 140t169.5 53q96 0 153 -50.5t45 -131.5q-17 -118 -178 -199l55 -66q21 33 40 77q1 1 2 3.5t4.5 7.5t8 7.5t11.5 1.5t15 -7l98 -78q15 -11 5 -29q-31 -60 -71 -111l77 -85q15 -17 -5 -36l-99 -85q-8 -7 -18.5 -7
t-16.5 7l-72 81q-100 -66 -207 -66q-112 0 -178.5 64t-51.5 165zM108 196q-11 -77 41 -128t146 -51q102 0 193 68q20 14 34 -1l70 -79l58 50l-74 81q-13 15 2 32q34 41 68 101l-59 47q-23 -45 -51 -84q-19 -27 -40 -6q-49 55 -95 116q-11 12 -6 21t10 13t9 5q79 37 123 75.5
t52 94.5q8 57 -34 94.5t-122 37.5q-83 0 -134.5 -38.5t-60.5 -104.5q-9 -65 34 -143q13 -22 -14 -36q-66 -34 -104 -71.5t-46 -93.5zM201 208q10 63 93 113q19 12 31 -4q32 -44 121 -147q17 -21 -8 -38q-63 -44 -125 -44q-54 0 -86.5 33.5t-25.5 86.5zM251 208
q-5 -31 14 -50.5t55 -19.5q31 0 67 18q-76 91 -91 111q-41 -28 -45 -59zM323 540q5 40 34.5 68t71.5 28q38 0 59 -24.5t16 -61.5q-6 -43 -39.5 -73.5t-86.5 -57.5q-21 -10 -31 8q-31 60 -24 113zM373 540q-5 -28 10 -65q65 38 71 75q5 36 -33 36q-42 0 -48 -46z" />
    <glyph glyph-name="quotesingle" unicode="'" horiz-adv-x="250" 
d="M97 427l39 273q1 11 10 18t18 7h130q11 0 17.5 -8t4.5 -17l-39 -273q-1 -11 -10.5 -18t-18.5 -7h-130q-11 0 -17 8t-4 17zM150 452h80l32 223h-80z" />
    <glyph glyph-name="parenleft" unicode="(" horiz-adv-x="346" 
d="M81 309q37 257 197 447q9 11 22 11h155h5t9 -1.5t9.5 -5t2 -12t-10.5 -19.5q-143 -186 -177 -420q-34 -232 56 -420l1 -1q0 -1 1 -3.5l2 -5t1 -6t-0.5 -6.5t-2.5 -6t-5.5 -5t-9 -3.5t-13.5 -1.5h-155q-14 0 -19 11q-105 188 -68 447zM131 309q-34 -234 57 -408h98
q-75 188 -43 408q32 221 161 408h-98q-142 -175 -175 -408z" />
    <glyph glyph-name="parenright" unicode=")" horiz-adv-x="358" 
d="M14 -111q143 186 177 420q34 232 -56 420l-1 1q0 1 -1 3.5t-1.5 5t-1 6t0.5 6.5t3 6t5.5 5t9 3.5t13.5 1.5h155q13 0 18 -11q105 -188 68 -447t-196 -447q-9 -11 -22 -11h-155h-5t-9.5 1.5t-9.5 5t-2 12t10 19.5zM80 -99h99q141 174 174 408q34 235 -57 408h-98
q75 -188 43 -408q-32 -221 -161 -408z" />
    <glyph glyph-name="asterisk" unicode="*" horiz-adv-x="378" 
d="M72 492q-4 9 0.5 19.5t14.5 15.5l47 25l-40 23q-8 5 -10 15t5 19l54 77q16 22 36 9l39 -26l7 50q2 11 10 18t18 7h86q11 0 17 -7.5t5 -17.5l-8 -51l47 26q10 5 19.5 2t13.5 -12l33 -75q4 -8 -0.5 -18.5t-14.5 -15.5l-48 -23l41 -25q8 -5 10 -15t-5 -19l-54 -76
q-6 -9 -16.5 -12t-19.5 3l-40 27l-7 -50q-2 -10 -9.5 -18t-18.5 -8h-86q-10 0 -16.5 7.5t-5.5 18.5l9 50l-47 -25q-10 -5 -19.5 -3t-13.5 11zM129 496l13 -31l65 36q21 10 29 5.5t7 -16.5l-1 -11l-12 -70h35l9 70q3 21 13 26.5t19 0.5l9 -5l56 -37l22 31l-58 35
q-17 12 -15.5 21.5t12.5 16.5l10 6l67 33l-13 31l-66 -36q-21 -10 -28.5 -5t-6.5 16l1 11l11 70h-36l-9 -70q-3 -21 -13 -26.5t-19 0.5l-9 5l-54 36l-22 -32l56 -33q17 -12 15.5 -21.5t-11.5 -16.5l-10 -6z" />
    <glyph glyph-name="plus" unicode="+" horiz-adv-x="510" 
d="M47 272l16 109q1 11 10.5 18t18.5 7h142l20 143q1 11 10.5 18t18.5 7h109q11 0 17 -8t4 -17l-20 -143h143q11 0 17 -8t4 -17l-16 -109q-1 -11 -10 -18t-18 -7h-143l-21 -143q-1 -11 -10.5 -18t-18.5 -7h-109q-11 0 -17 8t-4 17l21 143h-142q-11 0 -17.5 8t-4.5 17z
M101 297h142q9 0 15.5 -7t5.5 -18l-20 -143h59l20 143q2 9 10 17t19 8h143l8 59h-143q-9 0 -15.5 7t-5.5 18l21 143h-59l-21 -143q-2 -9 -10 -17t-19 -8h-142z" />
    <glyph glyph-name="comma" unicode="," horiz-adv-x="241" 
d="M-8 -86l50 90q-24 29 -17 72q7 46 42 76.5t81 30.5q44 0 71.5 -29t20.5 -78q-6 -40 -38 -80l-88 -106q-9 -11 -22 -11h-82q0 1 -4 0t-8.5 1t-8.5 5t-3.5 10.5t6.5 18.5zM54 -71h32l79 95q21 25 25 52t-10 42t-39 15q-26 0 -44 -15.5t-22 -41.5q-4 -29 15 -44
q16 -12 5 -31z" />
    <glyph glyph-name="hyphen" unicode="-" horiz-adv-x="374" 
d="M66 252l16 109q1 11 10.5 18t18.5 7h264q11 0 17 -8t4 -17l-16 -109q-1 -11 -10 -18t-18 -7h-264q-11 0 -17.5 8t-4.5 17zM120 277h214l8 59h-214z" />
    <glyph glyph-name="period" unicode="." horiz-adv-x="243" 
d="M24 76q7 46 42 77t82 31t73.5 -30.5t19.5 -77.5t-42.5 -78t-82.5 -31t-73 31t-19 78zM74 76q-4 -28 9 -43.5t40 -15.5t45.5 16t22.5 43q4 26 -10 42t-41 16t-44.5 -15.5t-21.5 -42.5z" />
    <glyph glyph-name="slash" unicode="/" horiz-adv-x="353" 
d="M-74 -103l455 922q9 17 26 17h145q4 0 9 -0.5t13 -7.5t-3 -25l-456 -922q-9 -17 -26 -17h-145q-4 0 -8.5 0.5t-12.5 7.5t3 25zM-13 -86h92l431 872h-92z" />
    <glyph glyph-name="zero" unicode="0" horiz-adv-x="703" 
d="M67 351q26 179 128 279.5t262 100.5q159 0 232.5 -100.5t47.5 -279.5t-128 -280t-261 -101q-160 0 -233.5 100.5t-47.5 280.5zM117 351q-24 -163 37 -247t201 -84q138 0 223 83.5t109 247.5q23 163 -38 246.5t-199 83.5q-139 0 -224.5 -83.5t-108.5 -246.5zM250 351
q18 125 63 187.5t126 62.5q80 0 107 -63t9 -187q-18 -125 -63.5 -188t-125.5 -63q-81 0 -107.5 63t-8.5 188zM300 351q-17 -115 1.5 -158t72.5 -43q53 0 84 43.5t47 157.5t-2.5 157t-71.5 43q-54 0 -84 -42.5t-47 -157.5z" />
    <glyph glyph-name="one" unicode="1" horiz-adv-x="412" 
d="M62 558l21 143q1 11 10.5 18t18.5 7h307q11 0 17 -8t4 -17l-101 -701q-1 -11 -10.5 -18t-18.5 -7h-178q-11 0 -17 8t-4 17l77 533h-104q-11 0 -17.5 8t-4.5 17zM116 583h104q9 0 15.5 -7t5.5 -18l-76 -533h128l93 651h-257z" />
    <glyph glyph-name="two" unicode="2" horiz-adv-x="600" 
d="M17 0l17 115q1 9 9 17l288 265q31 28 52 57.5t23 45.5q2 19 -8 29t-40 10q-79 0 -187 -83q-26 -21 -37 7l-49 128q-7 19 12 32q163 110 315 110q113 0 180.5 -56.5t53.5 -151.5q-16 -109 -175 -250l-118 -109h237q11 0 17 -8t4 -17l-20 -141q-1 -11 -10.5 -18t-18.5 -7
h-524q-11 0 -17 8t-4 17zM71 25h474l13 91h-270q-22 0 -25 10.5t5 21.5l8 10l164 151q144 129 156 216q10 70 -42 114t-150 44q-127 0 -264 -88l31 -81q110 75 194 75q45 0 71 -23.5t20 -65.5q-8 -58 -94 -137l-280 -258z" />
    <glyph glyph-name="three" unicode="3" horiz-adv-x="558" 
d="M-11 89l91 135q1 1 2.5 3t6 6.5t9 6t11 -0.5t12.5 -10q61 -77 146 -77q83 0 92 66q5 33 -12 48t-63 15h-112q-11 0 -17 8t-4 17l14 95q1 9 9 17l133 120h-196q-11 0 -17.5 8t-4.5 17l20 136q1 11 10 18t18 7h462q11 0 17.5 -8t4.5 -17l-15 -101q-1 -9 -9 -17l-163 -148
q78 -16 120 -72.5t30 -140.5q-16 -112 -108 -182.5t-222 -70.5q-76 0 -146.5 24.5t-116.5 65.5q-15 13 -2 32zM42 84q40 -30 99 -48.5t120 -18.5q113 0 186.5 56.5t86.5 146.5q10 69 -24.5 111.5t-104.5 54.5l-32 5q-21 3 -23 13.5t6 19.5l8 9l194 175l9 66h-412l-12 -86
h230q22 0 25 -10.5t-5 -21.5l-8 -10l-172 -155l-8 -60h87q60 0 92.5 -29t24.5 -84q-7 -53 -48 -84.5t-101 -31.5q-90 0 -159 69z" />
    <glyph glyph-name="four" unicode="4" horiz-adv-x="633" 
d="M24 154l17 119q1 6 5 11l282 427q10 14 24 14h171q0 -1 4.5 0t9.5 -1t9 -5t3 -11t-8 -19l-244 -375h82l18 125q1 11 10.5 18t18.5 7h165q11 0 17 -8t4 -17l-18 -125h70q11 0 17.5 -8t4.5 -17l-20 -135q-1 -11 -10 -18t-18 -7h-70l-19 -129q-1 -11 -10.5 -18t-18.5 -7
h-165q-11 0 -17 8t-4 17l19 129h-307q-11 0 -17.5 8t-4.5 17zM78 179h307q9 0 15.5 -7t5.5 -18l-18 -129h115l18 129q2 9 10 17t19 8h70l12 85h-70q-9 0 -15.5 7t-5.5 18l18 125h-115l-18 -125q-2 -9 -10 -17t-19 -8h-148q-20 0 -24 9t1 18l6 9l244 375h-116l-270 -408z" />
    <glyph glyph-name="five" unicode="5" horiz-adv-x="595" 
d="M5 92l91 135q1 1 2.5 3t6 6.5t9 6t11 -0.5t12.5 -10q61 -78 148 -78q85 0 94 69q4 30 -13.5 46t-61.5 16q-119 0 -189 -5q-10 -1 -17 6t-6 19l57 395q1 11 10 18t18 7h459q11 0 17.5 -8t4.5 -17l-20 -141q-1 -11 -10.5 -18t-18.5 -7h-272l-9 -63h38q127 0 199.5 -65.5
t56.5 -170.5q-17 -121 -112 -194t-231 -73q-72 0 -145 25t-126 67q-16 12 -3 32zM59 88q46 -32 107.5 -51t120.5 -19q118 0 194.5 59t90.5 158q12 83 -44.5 134.5t-168.5 51.5h-63q-9 0 -16 7t-6 18l17 113q2 9 9.5 17t18.5 8h272l13 91h-409l-49 -344q104 4 165 4
q59 0 92 -29.5t26 -82.5q-8 -55 -49.5 -87t-101.5 -32q-91 0 -161 70z" />
    <glyph glyph-name="six" unicode="6" horiz-adv-x="632" 
d="M65 340q26 176 137 284.5t269 108.5q136 0 230 -62q18 -11 4 -33l-86 -124q-17 -25 -38 -8q-50 40 -126 40q-109 0 -147 -97q60 36 141 36q113 0 172 -69.5t43 -181.5q-17 -121 -107.5 -194t-218.5 -73q-152 0 -224.5 101.5t-48.5 271.5zM115 340q-22 -153 39 -238
t191 -85q110 0 182.5 58.5t86.5 158.5q14 93 -32.5 147t-139.5 54q-102 0 -156 -64q-16 -16 -25.5 -13t-14.5 15l-4 12q12 96 69.5 153.5t150.5 57.5q75 0 133 -35l54 79q-83 43 -186 43q-137 0 -231 -92t-117 -251zM239 232q8 54 49.5 88.5t101.5 34.5q57 0 87 -32.5
t22 -87.5q-8 -58 -49 -92t-98 -34q-61 0 -90.5 36t-22.5 87zM289 232q-5 -32 12 -52.5t58 -20.5q80 0 90 76q11 70 -66 70q-41 0 -65 -19.5t-29 -53.5z" />
    <glyph glyph-name="seven" unicode="7" horiz-adv-x="594" 
d="M89 559l20 141q1 11 10 18t18 7h545q11 0 17.5 -8t4.5 -17l-18 -121q0 -1 -0.5 -3l-1 -4t-1.5 -3l-342 -579q-10 -15 -25 -15h-188q0 1 -4 0t-8.5 1t-8.5 5t-3 10.5t7 18.5l309 524h-129l-11 -73q0 -2 -0.5 -5t-3.5 -9.5t-7 -10.5t-12 -3.5t-18 7.5l-142 98q-10 7 -8 21z
M141 573l96 -67l8 53q2 9 9.5 17t18.5 8h193q19 0 23.5 -8.5t-0.5 -17.5l-5 -9l-310 -524h133l330 559l13 91h-495z" />
    <glyph glyph-name="eight" unicode="8" horiz-adv-x="642" 
d="M37 195q8 57 44 105.5t91 78.5q-63 60 -51 146q14 96 99 152t206 56q123 0 191 -57t54 -156q-12 -85 -85 -142q93 -66 76 -180q-15 -107 -111 -169t-235 -62t-216.5 61t-62.5 167zM87 195q-12 -80 50 -129t186 -49t201 49.5t88 131.5q8 50 -15.5 91t-72.5 63
q-19 10 -18 20t12 18l10 7q82 42 93 123q11 74 -42 118.5t-161 44.5q-107 0 -172 -43t-75 -115q-11 -81 65 -128q17 -12 15 -22t-13 -17l-11 -6q-58 -22 -95 -64t-45 -93zM208 213q8 55 51.5 85.5t108.5 30.5t101 -30.5t28 -85.5q-8 -56 -52.5 -86.5t-109.5 -30.5t-100 30.5
t-27 86.5zM258 213q-5 -33 14.5 -50t69.5 -17q96 0 105 67q10 66 -86 66q-93 0 -103 -66zM268 510q7 50 46.5 78t95.5 28t86.5 -28t23.5 -78q-7 -49 -45.5 -76t-94.5 -27t-87.5 27t-24.5 76zM318 510q-4 -26 11.5 -39.5t57.5 -13.5q75 0 83 53q4 28 -11 42t-56 14
q-77 0 -85 -56z" />
    <glyph glyph-name="nine" unicode="9" horiz-adv-x="632" 
d="M31 63l86 124q17 25 38 8q50 -40 126 -40q109 0 147 97q-60 -36 -141 -36q-113 0 -172 69.5t-43 181.5q17 121 107.5 194t218.5 73q152 0 224.5 -101.5t48.5 -271.5q-26 -176 -137 -284.5t-269 -108.5q-136 0 -230 62q-18 11 -4 33zM87 61q83 -43 186 -43q137 0 231 92
t117 251q22 153 -39 238t-191 85q-110 0 -182.5 -58.5t-86.5 -158.5q-14 -93 32.5 -147t139.5 -54q102 0 156 64q16 16 25.5 13t14.5 -15l4 -12q-12 -96 -69.5 -153.5t-150.5 -57.5q-75 0 -133 35zM237 466q8 58 49 92t98 34q61 0 90.5 -36t22.5 -87q-8 -54 -49.5 -88.5
t-101.5 -34.5q-57 0 -87 32.5t-22 87.5zM287 466q-11 -70 66 -70q41 0 65 19.5t29 53.5q5 32 -12 52.5t-58 20.5q-80 0 -90 -76z" />
    <glyph glyph-name="colon" unicode=":" horiz-adv-x="240" 
d="M24 76q7 46 42 77t82 31t73.5 -30.5t19.5 -77.5t-42.5 -78t-82.5 -31t-73 31t-19 78zM67 373q7 47 42 77.5t81 30.5q47 0 74 -30.5t20 -77.5t-42.5 -78t-82.5 -31t-73 31t-19 78zM74 76q-4 -28 9 -43.5t40 -15.5t45.5 16t22.5 43q4 26 -10 42t-41 16t-44.5 -15.5
t-21.5 -42.5zM117 373q-4 -28 9 -43.5t40 -15.5t45.5 16t22.5 43q4 26 -10 42t-41 16t-44.5 -15.5t-21.5 -42.5z" />
    <glyph glyph-name="semicolon" unicode=";" horiz-adv-x="242" 
d="M-8 -86l50 90q-24 29 -17 72q7 46 42 76.5t81 30.5q44 0 71.5 -29t20.5 -78q-6 -40 -38 -80l-88 -106q-9 -11 -22 -11h-82q0 1 -4 0t-8.5 1t-8.5 5t-3.5 10.5t6.5 18.5zM54 -71h32l79 95q21 25 25 52t-10 42t-39 15q-26 0 -44 -15.5t-22 -41.5q-4 -29 15 -44
q16 -12 5 -31zM67 373q7 47 42 77.5t81 30.5q47 0 74 -30.5t20 -77.5t-42.5 -78t-82.5 -31t-73 31t-19 78zM117 373q-4 -28 9 -43.5t40 -15.5t45.5 16t22.5 43q4 26 -10 42t-41 16t-44.5 -15.5t-21.5 -42.5z" />
    <glyph glyph-name="less" unicode="&#x3c;" horiz-adv-x="510" 
d="M45 255l20 139q2 16 18 23l471 185l4 2t8.5 2t10.5 -0.5t7 -8t1 -18.5l-17 -122q-2 -15 -19 -23l-290 -110l258 -110q15 -7 13 -23l-18 -121q0 -2 -0.5 -4t-2.5 -8.5t-6 -9t-11 -5t-18 3.5l-417 185q-14 6 -12 23zM97 272l370 -164l10 66l-298 127q-18 10 -16.5 20
t12.5 18l11 8l334 127l10 68l-418 -165z" />
    <glyph glyph-name="equal" unicode="=" horiz-adv-x="510" 
d="M32 165l15 109q1 11 10.5 18t18.5 7h444q11 0 17 -8t4 -17l-15 -109q-1 -11 -10.5 -18t-18.5 -7h-444q-11 0 -17 8t-4 17zM63 380l15 109q1 11 10.5 18t18.5 7h444q11 0 17 -8t4 -17l-15 -109q-1 -11 -10.5 -18t-18.5 -7h-444q-11 0 -17 8t-4 17zM85 190h394l9 59h-394z
M116 405h394l9 59h-394z" />
    <glyph glyph-name="greater" unicode="&#x3e;" horiz-adv-x="510" 
d="M18 77l18 122q2 15 19 23l290 110l-259 110q-14 6 -12 23l17 121q0 2 0.5 4t2.5 8.5t6 9t11 5t18 -3.5l419 -185q14 -6 12 -23l-20 -139q-2 -15 -19 -23l-472 -185l-4 -2t-8.5 -2t-10.5 0.5t-7 8t-1 18.5zM73 114l419 165l15 105l-371 165l-10 -67l299 -127
q18 -10 17 -20t-12 -18l-11 -8l-336 -127z" />
    <glyph glyph-name="question" unicode="?" horiz-adv-x="472" 
d="M47 476q19 116 96.5 184t192.5 68q108 0 166.5 -52t44.5 -147q-7 -48 -28.5 -87t-47.5 -63.5t-51.5 -46t-44.5 -45t-23 -48.5q-1 -11 -10 -18t-18 -7h-129q-11 0 -17.5 8t-4.5 17q7 48 25 86t39.5 61t42.5 41t36 36.5t18 37.5q3 23 -5.5 31.5t-35.5 8.5q-29 0 -43.5 -14
t-20.5 -52q-1 -10 -10 -17.5t-18 -7.5l-133 1q-10 0 -16.5 7t-4.5 18zM101 501l84 -1q13 43 43.5 67t71.5 24q43 0 66.5 -23.5t17.5 -66.5q-5 -32 -20 -58t-34.5 -44.5t-39 -36.5t-37 -43t-25.5 -55h80q13 42 43.5 77t59 56t54.5 55.5t32 76.5q11 72 -32 110.5t-136 38.5
q-91 0 -149.5 -45.5t-78.5 -131.5zM129 76q7 46 42 77t82 31t73.5 -30.5t19.5 -77.5t-42.5 -78t-82.5 -31t-73 31t-19 78zM179 76q-4 -28 9 -43.5t40 -15.5t45.5 16t22.5 43q4 26 -10 42t-41 16t-44.5 -15.5t-21.5 -42.5z" />
    <glyph glyph-name="at" unicode="@" horiz-adv-x="917" 
d="M38 268q28 192 182 324.5t349 132.5q127 0 222.5 -58t139.5 -161.5t26 -231.5q-17 -119 -88 -195t-168 -76q-22 0 -32 2l30 -70q8 -18 -11 -32q-53 -35 -125.5 -56t-135.5 -21q-192 0 -304 126.5t-85 315.5zM88 268q-24 -169 74.5 -280.5t271.5 -111.5q111 0 210 55
l-16 36q-89 -50 -188 -50q-151 0 -238.5 100t-65.5 251q22 153 145 260t276 107q156 0 240 -98q86 -102 63 -266q-11 -77 -48.5 -132.5t-86.5 -55.5q-28 0 -42 20.5t-9 53.5l45 312h-72l-4 -28q-2 -16 -14.5 -18.5t-23.5 2.5l-11 5q-4 7 -15 17t-37 21.5t-55 11.5
q-80 0 -138.5 -60t-71.5 -150t36.5 -148t126.5 -58q83 0 141 69q16 17 25.5 15t13.5 -14l4 -11l1 -12q4 -41 43 -53q14 -5 41 -5q73 0 128 59t70 162q25 174 -73 287.5t-272 113.5q-175 0 -312 -117.5t-162 -289.5zM186 268q-19 -130 55.5 -215.5t205.5 -85.5q97 0 178 53
q-31 17 -44 49q-67 -55 -148 -55q-98 0 -160 72.5t-46 183.5q16 108 90 184t177 76q60 0 107 -33q6 22 28 22h111q-71 66 -191 66q-132 0 -238 -92.5t-125 -224.5zM361 275q9 58 48.5 101t93.5 43q58 0 87 -43t20 -102q-9 -62 -49 -106.5t-99 -44.5q-57 0 -83.5 45.5
t-17.5 106.5zM411 275q-7 -45 10 -73.5t48 -28.5q34 0 59 27.5t32 73.5q6 43 -11.5 69t-52.5 26q-31 0 -55 -26t-30 -68zM724 157q1 -24 8 -24q9 0 24 13.5t31.5 47t22.5 77.5q18 127 -39 212z" />
    <glyph glyph-name="A" unicode="A" horiz-adv-x="770" 
d="M-27 10l403 700q8 15 25 15h183q17 0 21 -15l194 -700q2 -4 3 -10t-5.5 -15.5t-25.5 -9.5h-190q-17 0 -21 16l-27 113h-272l-61 -113q-8 -16 -26 -16h-183q0 1 -4 0t-9 1t-8.5 5t-3 10.5t6.5 18.5zM37 25h128l61 113q9 16 25 16h306q18 0 21 -16l28 -113h135l-180 650
h-150zM297 273l139 259q11 20 22.5 20t17.5 -10l7 -10l63 -259q4 -16 -3 -24.5t-17 -8.5l-9 -1h-202q-18 0 -22.5 8.5t-0.5 16.5zM359 289h129l-40 165z" />
    <glyph glyph-name="B" unicode="B" horiz-adv-x="715" 
d="M45 0l101 700q1 11 10 18t18 7h331q125 0 196 -53.5t58 -146.5q-14 -97 -101 -151q45 -26 65 -73.5t12 -106.5q-15 -102 -105 -160.5t-221 -58.5h-343q-11 0 -17 8t-4 17zM99 25h318q117 0 187 46t81 123q9 60 -18.5 100.5t-83.5 51.5q-15 5 -14 16t10 22l9 11
q50 13 82 48t39 82q9 67 -45.5 108.5t-165.5 41.5h-306zM242 137l22 155q2 9 10 17t19 8h144q57 0 90.5 -26.5t26.5 -74.5q-7 -50 -48.5 -77t-98.5 -27h-144q-9 0 -15.5 7t-5.5 18zM283 420l20 144q2 9 10 17t19 8h144q47 0 75 -26t21 -70q-7 -45 -41.5 -71.5t-82.5 -26.5
h-144q-9 0 -15.5 7t-5.5 18zM295 162h119q81 0 90 54q3 23 -15 37t-60 14h-119zM336 445h119q60 0 67 48q3 23 -9.5 34.5t-43.5 11.5h-119z" />
    <glyph glyph-name="C" unicode="C" horiz-adv-x="692" 
d="M50 352q23 162 153.5 270.5t299.5 108.5q83 0 158.5 -34t123.5 -92q14 -16 -3 -33l-121 -122q-23 -23 -38 0q-26 38 -65.5 60t-79.5 22q-73 0 -129 -51t-67 -127q-11 -78 30.5 -129.5t113.5 -51.5q38 0 84.5 20t84.5 54q22 18 36 0l88 -110q14 -17 -5 -34
q-69 -62 -157 -99t-170 -37q-168 0 -264.5 110.5t-72.5 274.5zM100 352q-21 -144 62.5 -239.5t231.5 -95.5q65 0 137 28t132 76l-59 74q-95 -72 -185 -72q-94 0 -147.5 67t-39.5 164q14 96 86.5 162t166.5 66q96 0 164 -78l81 82q-43 44 -105.5 69.5t-128.5 25.5
q-150 0 -263 -94t-133 -235z" />
    <glyph glyph-name="D" unicode="D" horiz-adv-x="767" 
d="M45 0l101 700q1 11 10 18t18 7h301q175 0 271 -104.5t72 -270.5t-152 -270.5t-306 -104.5h-294q-11 0 -17 8t-4 17zM99 25h269q159 0 269 90t131 235q21 146 -61.5 235.5t-238.5 89.5h-276zM243 142l60 416q2 9 10 17t19 8h119q95 0 148 -66t38 -168q-14 -101 -83 -166.5
t-162 -65.5h-127q-9 0 -16 7t-6 18zM297 167h102q72 0 124 49.5t64 132.5t-28 133.5t-115 50.5h-94z" />
    <glyph glyph-name="E" unicode="E" horiz-adv-x="674" 
d="M45 0l101 700q1 11 10 18t18 7h548q11 0 17.5 -8t4.5 -17l-20 -140q-1 -11 -10.5 -18t-18.5 -7h-345l-13 -89h309q11 0 17.5 -8t4.5 -17l-21 -140q-1 -11 -10 -18t-18 -7h-309l-13 -91h356q11 0 17 -8t4 -17l-20 -140q-1 -11 -10.5 -18t-18.5 -7h-559q-11 0 -17 8t-4 17z
M99 25h509l13 90h-356q-9 0 -16 7t-6 18l20 141q2 9 10 17t19 8h309l13 90h-309q-9 0 -15.5 7t-5.5 18l20 139q2 9 10 17t18 8h345l13 90h-498z" />
    <glyph glyph-name="F" unicode="F" horiz-adv-x="604" 
d="M45 0l101 700q1 11 10 18t18 7h519q11 0 17.5 -8t4.5 -17l-20 -140q-1 -11 -10.5 -18t-18.5 -7h-316l-16 -112h289q11 0 17 -8t4 -17l-20 -140q-1 -11 -10 -18t-18 -7h-289l-34 -233q-1 -11 -10.5 -18t-18.5 -7h-178q-11 0 -17 8t-4 17zM99 25h128l33 233q2 9 10 17t19 8
h289l13 90h-289q-9 0 -16 7t-6 18l24 162q2 9 10 17t18 8h316l13 90h-469z" />
    <glyph glyph-name="G" unicode="G" horiz-adv-x="743" 
d="M49 350q23 163 157 272t309 109q83 0 160 -29.5t127 -80.5q16 -17 -2 -35l-118 -121q-8 -8 -18 -9t-18 7q-30 32 -73 50.5t-87 18.5q-76 0 -135 -52t-70 -130q-11 -79 33 -131.5t121 -52.5q44 0 102 25l24 165q1 11 10.5 18t18.5 7h154q11 0 17 -8t4 -17l-39 -273
q-1 -12 -14 -20q-66 -43 -153.5 -69.5t-165.5 -26.5q-170 0 -268.5 110t-75.5 273zM99 350q-20 -143 65.5 -238t235.5 -95q65 0 142 22t136 57l34 235h-104l-23 -156q-2 -15 -17 -22q-81 -37 -140 -37q-98 0 -154.5 67.5t-42.5 166.5q14 98 89.5 165t172.5 67t174 -66l80 83
q-45 38 -109 60t-130 22q-156 0 -272.5 -94.5t-136.5 -236.5z" />
    <glyph glyph-name="H" unicode="H" horiz-adv-x="786" 
d="M45 0l101 700q1 11 10 18t18 7h178q11 0 17.5 -8t4.5 -17l-38 -263h240l38 263q1 11 10 18t18 7h178q11 0 17.5 -8t4.5 -17l-101 -700q-1 -11 -10.5 -18t-18.5 -7h-178q-11 0 -17 8t-4 17l36 247h-240l-36 -247q-1 -11 -10.5 -18t-18.5 -7h-178q-11 0 -17 8t-4 17zM99 25
h128l35 247q2 9 10 17t19 8h290q9 0 15.5 -7t5.5 -18l-35 -247h128l93 650h-128l-38 -263q-2 -9 -10 -17t-18 -8h-290q-9 0 -16 7t-6 18l38 263h-128z" />
    <glyph glyph-name="I" unicode="I" horiz-adv-x="318" 
d="M45 0l101 700q1 11 10 18t18 7h178q11 0 17.5 -8t4.5 -17l-101 -700q-1 -11 -10.5 -18t-18.5 -7h-178q-11 0 -17 8t-4 17zM99 25h128l93 650h-128z" />
    <glyph glyph-name="J" unicode="J" horiz-adv-x="536" 
d="M-11 88q-11 15 2 30l100 119q21 25 39 3q28 -35 60.5 -52.5t57.5 -17.5q26 0 40 13.5t19 47.5l68 470q1 11 10.5 18t18.5 7h179q11 0 17 -8t4 -17l-68 -474q-17 -120 -100 -190t-205 -70q-154 0 -242 121zM42 106q75 -89 196 -89q103 0 168 54.5t80 155.5l64 449h-129
l-64 -445q-8 -50 -39 -80.5t-77 -30.5q-68 0 -133 65z" />
    <glyph glyph-name="K" unicode="K" horiz-adv-x="747" 
d="M45 0l101 700q1 11 10 18t18 7h178q11 0 17.5 -8t4.5 -17l-34 -237l261 254q10 8 19 8h206q2 0 5 -0.5t10 -3.5t10 -7t1 -12.5t-13 -18.5l-287 -275l210 -394q1 -2 2 -4.5t2.5 -9t-0.5 -12t-9.5 -9.5t-21.5 -4h-213q-14 0 -19 11l-131 248l-76 -72l-23 -162
q-1 -11 -10.5 -18t-18.5 -7h-178q-11 0 -17 8t-4 17zM99 25h128l21 147q2 10 9 17l107 103q23 22 39 -3l140 -264h153l-198 371q-8 16 7 31l258 248h-138l-303 -295q-18 -15 -27.5 -11.5t-12.5 15.5l-2 13l40 278h-128z" />
    <glyph glyph-name="L" unicode="L" horiz-adv-x="560" 
d="M45 0l101 700q1 11 10 18t18 7h178q11 0 17.5 -8t4.5 -17l-76 -526h272q11 0 17 -8t4 -17l-21 -149q-1 -11 -10.5 -18t-18.5 -7h-475q-11 0 -17 8t-4 17zM99 25h425l14 99h-272q-9 0 -16 7t-6 18l76 526h-128z" />
    <glyph glyph-name="M" unicode="M" horiz-adv-x="910" 
d="M45 0l101 701q1 11 10.5 18t18.5 7h195q16 0 20 -15l115 -367l220 367q10 15 25 15h194q11 0 17 -8t4 -17l-101 -701q-1 -11 -10.5 -18t-18.5 -7h-157q-10 0 -16.5 8t-4.5 17l48 336l-160 -276q-8 -15 -26 -15h-116q-16 0 -20 15l-81 275l-48 -335q-1 -11 -10.5 -18
t-18.5 -7h-159q-11 0 -17 8t-4 17zM99 25h109l62 430q2 15 14.5 17.5t23.5 -2.5l11 -5l108 -370h83l215 370q10 13 20.5 11t18.5 -12l8 -9l-61 -430h107l93 651h-153l-241 -402q-8 -13 -15 -17.5t-12.5 -2t-9.5 6.5t-6 9l-2 4l-126 402h-154z" />
    <glyph glyph-name="N" unicode="N" horiz-adv-x="786" 
d="M45 0l101 700q1 11 10 18t18 7h157q13 0 19 -10l224 -372l52 357q1 11 10 18t18 7h166q11 0 17.5 -8t4.5 -17l-101 -700q-1 -11 -10.5 -18t-18.5 -7h-157q-12 0 -18 10l-224 371l-51 -356q-1 -11 -10.5 -18t-18.5 -7h-167q-11 0 -17 8t-4 17zM99 25h117l58 406
q3 20 15 24t22 -3l10 -6l254 -421h120l93 650h-116l-58 -407q-3 -20 -15 -24t-23 2l-10 7l-254 422h-120z" />
    <glyph glyph-name="O" unicode="O" horiz-adv-x="805" 
d="M50 351q24 164 154.5 272t302.5 108t272.5 -108.5t77.5 -271.5q-23 -164 -155.5 -274t-304.5 -110q-171 0 -271 109.5t-76 274.5zM100 351q-20 -143 66 -238.5t238 -95.5q153 0 268 96t135 238t-67 236t-240 94t-266.5 -94t-133.5 -236zM231 350q14 98 89.5 165t167.5 67
t145.5 -67t39.5 -165t-87 -166t-165 -68t-148 68t-42 166zM281 350q-11 -78 33 -131t114 -53q71 0 127.5 52.5t67.5 131.5t-30 130.5t-112 51.5q-72 0 -130.5 -52t-69.5 -130z" />
    <glyph glyph-name="P" unicode="P" horiz-adv-x="680" 
d="M45 0l101 700q1 11 10 18t18 7h305q142 0 215 -71t54 -198q-19 -133 -112 -208.5t-236 -75.5h-102l-25 -172q-1 -11 -10.5 -18t-18.5 -7h-178q-11 0 -17 8t-4 17zM99 25h128l24 172q2 9 10 17t19 8h127q125 0 199.5 60.5t91.5 173.5q15 106 -42 162.5t-184 56.5h-280z
M272 337l32 223q2 9 10 17t18 8h118q67 0 103 -35.5t26 -99.5q-10 -65 -55.5 -101.5t-112.5 -36.5h-118q-9 0 -15.5 7t-5.5 18zM325 362h93q98 0 111 88q6 44 -14.5 64.5t-71.5 20.5h-93z" />
    <glyph glyph-name="Q" unicode="Q" horiz-adv-x="810" 
d="M50 351q24 164 154.5 272t302.5 108t272.5 -108.5t77.5 -271.5q-16 -112 -87.5 -203t-176.5 -139q18 -15 39 -15q42 0 112 48q26 17 36 -8l47 -110q7 -17 -10 -31q-107 -83 -231 -83q-76 0 -133 42.5t-85 115.5q-160 11 -250 118.5t-68 264.5zM100 351
q-20 -140 62 -234.5t229 -99.5q15 0 20 -14q23 -68 70.5 -105.5t111.5 -37.5q93 0 179 58l-29 68q-72 -42 -118 -42q-59 0 -96 57q-8 15 -4.5 23.5t11.5 11.5l9 4q104 37 175 120.5t87 190.5q20 142 -67 236t-240 94t-266.5 -94t-133.5 -236zM231 350q14 98 89.5 165
t167.5 67t145.5 -67t39.5 -165t-87 -166t-165 -68t-148 68t-42 166zM281 350q-11 -78 33 -131t114 -53q71 0 127.5 52.5t67.5 131.5t-30 130.5t-112 51.5q-72 0 -130.5 -52t-69.5 -130z" />
    <glyph glyph-name="R" unicode="R" horiz-adv-x="724" 
d="M45 0l101 700q1 11 10 18t18 7h313q147 0 222 -70.5t56 -198.5q-23 -160 -151 -234l103 -209l1 -1q0 -1 1 -3.5t1.5 -5t1 -6t-0.5 -6.5t-3 -6t-5.5 -5t-9 -3.5t-13.5 -1.5h-202q-14 0 -20 13l-70 184h-100l-25 -172q-1 -11 -10.5 -18t-18.5 -7h-178q-11 0 -17 8t-4 17z
M99 25h128l24 172q2 9 10 17t19 8h140q15 0 20 -13l71 -184h141l-95 193q-11 22 15 35q122 57 143 203q15 106 -44.5 162.5t-190.5 56.5h-288zM272 337l32 223q2 9 10 17t18 8h135q67 0 102.5 -35.5t25.5 -99.5q-10 -65 -55.5 -101.5t-111.5 -36.5h-135q-9 0 -15.5 7
t-5.5 18zM325 362h110q97 0 110 88q6 44 -14.5 64.5t-70.5 20.5h-110z" />
    <glyph glyph-name="S" unicode="S" horiz-adv-x="644" 
d="M12 117l88 137q19 29 40 8q43 -43 107.5 -71t114.5 -28q66 0 72 36q2 16 -16.5 27t-50 19.5t-69.5 18t-75 26.5t-66 41.5t-43.5 67t-6.5 98.5q15 109 109.5 172.5t228.5 63.5q164 0 277 -82q17 -12 5 -32l-87 -139q-6 -9 -16 -13t-21 2q-48 30 -105.5 50t-95.5 20
q-52 0 -56 -26q-2 -17 23.5 -30t65 -21.5t85 -26t83 -41.5t58 -72.5t11.5 -113.5q-16 -114 -113 -176.5t-226 -62.5q-91 0 -176 31.5t-143 86.5q-13 11 -2 30zM65 113q53 -43 125.5 -68.5t149.5 -25.5q115 0 192 50.5t90 138.5q7 46 -8.5 79.5t-45.5 52t-68 32t-75.5 24.5
t-68.5 24t-48 36.5t-12 56.5q6 39 38.5 57.5t74.5 18.5q93 0 204 -63l59 94q-102 63 -235 63q-119 0 -193.5 -51t-86.5 -135q-6 -40 5.5 -70t35.5 -47t55 -30.5t64.5 -21.5t65 -19.5t56 -23.5t37 -34t8.5 -52q-6 -43 -43 -64.5t-86 -21.5q-55 0 -118 24.5t-113 66.5z" />
    <glyph glyph-name="T" unicode="T" horiz-adv-x="611" 
d="M62 557l21 144q1 11 10.5 18t18.5 7h598q11 0 17 -8t4 -17l-21 -144q-1 -11 -10 -18t-18 -7h-186l-77 -532q-1 -11 -10.5 -18t-18.5 -7h-178q-11 0 -17 8t-4 17l77 532h-184q-11 0 -17.5 8t-4.5 17zM116 582h184q9 0 15.5 -7t5.5 -18l-76 -532h128l76 532q2 9 10 17t19 8
h186l13 94h-548z" />
    <glyph glyph-name="U" unicode="U" horiz-adv-x="758" 
d="M75 294l59 406q1 11 10 18t18 7h178q11 0 17.5 -8t4.5 -17l-59 -406q-9 -61 19.5 -94.5t83.5 -33.5q54 0 89.5 33t44.5 95l59 406q1 11 10 18t18 7h177q11 0 17.5 -8t4.5 -17l-59 -406q-22 -149 -128.5 -238t-262.5 -89q-157 0 -240 89t-61 238zM125 294
q-19 -129 50 -203t208 -74q137 0 226 74t108 203l55 381h-127l-55 -381q-11 -79 -64 -128.5t-127 -49.5t-115.5 49.5t-30.5 128.5l55 381h-128z" />
    <glyph glyph-name="V" unicode="V" horiz-adv-x="729" 
d="M75 691q0 1 -1 3.5t-0.5 8.5t2.5 10.5t9 8t18 3.5h190q18 0 22 -17l91 -447l219 447q9 17 26 17h183q0 -1 4 0t8.5 -1t8.5 -5t4 -10.5t-6 -17.5l-376 -700q-8 -16 -26 -16h-184q-17 0 -21 16zM133 675l159 -650h150l349 650h-129l-245 -498q-10 -20 -21.5 -20t-18.5 10
l-7 10l-102 498h-135z" />
    <glyph glyph-name="W" unicode="W" horiz-adv-x="1081" 
d="M75 692q-1 4 -1.5 9.5t6 14.5t23.5 9h190q9 0 15 -6t7 -13l52 -423l171 423q9 19 26 19h174q9 0 15 -6t7 -13l52 -423l172 423q9 19 26 19h182h3.5t8 -1t8 -4.5t4 -10t-4.5 -17.5l-331 -700q-8 -17 -27 -17h-183q-8 0 -14 6t-7 13l-49 394l-165 -395q-8 -18 -27 -18h-184
q-17 0 -21 17zM131 675l119 -650h147l194 466q9 17 19.5 17t19.5 -9l9 -9l58 -465h146l308 650h-128l-202 -496q-7 -17 -19 -17t-20 8l-9 9l-61 496h-135l-201 -496q-7 -17 -19 -17t-21 8l-8 9l-61 496h-136z" />
    <glyph glyph-name="X" unicode="X" horiz-adv-x="734" 
d="M-13 14l289 344l-177 328q-1 2 -2 4.5t-2.5 9t0 12t9 9.5t21.5 4h207q14 0 20 -11l89 -173l139 173q9 11 22 11h209h5t9.5 -2t10 -6t2 -12t-11.5 -19l-267 -320l191 -352q1 -2 2 -4.5t2.5 -9t-0.5 -12t-9.5 -9.5t-21.5 -4h-213q-14 0 -19 11l-102 192l-158 -192
q-9 -11 -23 -11h-207h-5t-9.5 2t-9.5 6t-1.5 12t11.5 19zM57 25h145l174 212q12 15 22.5 15t15.5 -8l4 -7l113 -212h152l-177 327q-7 14 4 28l247 295h-148l-156 -193q-13 -16 -23 -16t-14 8l-4 8l-100 193h-146l163 -303q7 -14 -4 -28z" />
    <glyph glyph-name="Y" unicode="Y" horiz-adv-x="680" 
d="M72 688l-2 4t-1.5 8.5t1 11.5t9 9t20.5 4h178q14 0 20 -13l109 -265l182 265q10 13 23 13h178q0 -1 4.5 0t9.5 -1t9 -5t3 -11.5t-9 -19.5l-318 -468l-32 -220q-1 -11 -10.5 -18t-18.5 -7h-177q-11 0 -17 8t-4 17l31 215zM134 675l176 -442q2 -7 1 -12l-28 -196h127
l29 201q2 8 4 12l298 437h-122l-200 -292q-8 -12 -15.5 -16t-12.5 -2t-9 6t-6 8l-1 4l-119 292h-122z" />
    <glyph glyph-name="Z" unicode="Z" horiz-adv-x="675" 
d="M3 0l16 114q1 8 9 16l398 404h-308q-11 0 -17 8t-4 17l20 141q1 11 10 18t18 7h599q11 0 17.5 -8t4.5 -17l-17 -114q-2 -10 -8 -16l-397 -404h326q11 0 17 -8t4 -17l-20 -141q-1 -11 -10.5 -18t-18.5 -7h-618q-11 0 -17 8t-4 17zM57 25h568l13 91h-355q-22 0 -25.5 10
t4.5 20l7 11l432 438l11 80h-549l-13 -91h337q22 0 25.5 -10t-4.5 -20l-8 -11l-432 -438z" />
    <glyph glyph-name="bracketleft" unicode="[" horiz-adv-x="362" 
d="M27 -124l125 866q1 11 10.5 18t18.5 7h274q11 0 17 -8t4 -17l-19 -128q-1 -11 -10 -18t-18 -7h-95l-81 -560h95q11 0 17.5 -8t4.5 -17l-19 -128q-1 -11 -10 -18t-18 -7h-274q-11 0 -17.5 8t-4.5 17zM81 -99h224l11 78h-95q-9 0 -15.5 7t-5.5 18l87 610q2 9 10 17t19 8h95
l11 78h-224z" />
    <glyph glyph-name="backslash" unicode="\" horiz-adv-x="455" 
d="M105 803q-1 4 -2 9.5t6 14.5t24 9h145q18 0 22 -17l190 -922q0 -1 0.5 -3.5t0.5 -8t-2.5 -10t-9.5 -8t-18 -3.5h-145q-17 0 -21 17zM162 786l179 -872h92l-179 872h-92z" />
    <glyph glyph-name="bracketright" unicode="]" horiz-adv-x="433" 
d="M46 -124l19 128q1 11 10 18t18 7h95l81 560h-95q-11 0 -17.5 8t-4.5 17l19 128q1 11 10.5 18t18.5 7h274q11 0 17 -8t4 -17l-125 -866q-1 -11 -10 -18t-18 -7h-274q-11 0 -17.5 8t-4.5 17zM100 -99h224l117 816h-224l-11 -78h95q9 0 15.5 -7t5.5 -18l-87 -610
q-2 -9 -10 -17t-19 -8h-95z" />
    <glyph glyph-name="asciicircum" unicode="^" horiz-adv-x="575" 
d="M31 149l242 387q8 14 24 14h139q16 0 21 -14l129 -387q2 -4 3.5 -10t-5 -16t-26.5 -10h-122q-16 0 -20 15l-76 239l-145 -239q-10 -15 -25 -15h-122q0 1 -4 0t-9 1t-9 5t-3 11t8 19zM95 163h66l166 274q12 20 23.5 20t17.5 -10l5 -10l87 -274h66l-113 337h-107z" />
    <glyph glyph-name="underscore" unicode="_" horiz-adv-x="583" 
d="M-54 -204l13 94q1 11 10.5 18t18.5 7h583q11 0 17 -8t4 -17l-13 -94q-1 -11 -10.5 -18t-18.5 -7h-583q-11 0 -17 8t-4 17zM-1 -179h533l7 44h-533z" />
    <glyph glyph-name="grave" unicode="`" 
d="M125 694l-3 3t-5 7.5t-3 11t6 11.5t19 10l164 55q20 7 28 -11l82 -168l1 -1q0 -1 1 -3.5t1.5 -5t1 -6t-0.5 -6.5t-3 -6t-5.5 -5t-9 -3.5t-13.5 -1.5h-132q-10 0 -16 6zM191 704l79 -79h78l-55 113z" />
    <glyph glyph-name="a" unicode="a" horiz-adv-x="600" 
d="M25 161q13 88 82 137.5t177 50.5h116q-3 43 -73 43q-68 0 -155 -42q-9 -5 -19.5 -2t-13.5 14l-32 114q-3 9 2 19t15 14q145 63 269 63q119 0 181 -58.5t48 -161.5l-51 -352q-1 -11 -10.5 -18t-18.5 -7h-169q-11 0 -17 8t-4 17l1 5q-64 -38 -146 -38q-94 0 -144 54
t-38 140zM75 161q-9 -65 27 -104.5t112 -39.5q99 0 154 60q16 16 25.5 12.5t13.5 -15.5l4 -12l-5 -37h119l47 327q11 81 -36 125.5t-150 44.5q-105 0 -224 -49l19 -67q85 36 154 36q60 0 90.5 -29.5t23.5 -80.5l-1 -8q-2 -9 -10 -17t-19 -8h-142q-183 -1 -202 -138zM189 173
q6 42 37.5 62.5t77.5 20.5h109q9 0 15.5 -7t5.5 -18l-7 -48q0 -4 -1 -6q-17 -42 -59 -67.5t-90 -25.5q-44 0 -69 24.5t-19 64.5zM239 173q-2 -19 7.5 -29t37.5 -10q32 0 58 15t36 37l3 20h-84q-33 0 -44.5 -7.5t-13.5 -25.5z" />
    <glyph glyph-name="b" unicode="b" horiz-adv-x="685" 
d="M49 0l107 742q1 11 10.5 18t18.5 7h173q11 0 17 -8t4 -17l-31 -215q64 43 142 43q125 0 189.5 -84.5t44.5 -218.5q-19 -132 -105.5 -215t-210.5 -83q-82 0 -134 43l-2 -12q-1 -11 -10.5 -18t-18.5 -7h-173q-11 0 -17 8t-4 17zM103 25h123l6 47q3 20 15 24t22 -2l10 -7
q42 -68 136 -68q102 0 172.5 67t86.5 181q16 116 -36 184.5t-155 68.5q-89 0 -151 -67q-17 -16 -26.5 -12.5t-13.5 15.5l-3 12l36 249h-123zM261 272q10 70 57 117.5t111 47.5q65 0 98.5 -47.5t23.5 -117.5q-10 -71 -57.5 -118.5t-112.5 -47.5q-64 0 -97 47t-23 119z
M311 272q-8 -54 14 -85t63 -31q43 0 74 31t39 85q7 53 -14.5 84t-64.5 31q-41 0 -72.5 -31t-38.5 -84z" />
    <glyph glyph-name="c" unicode="c" horiz-adv-x="562" 
d="M38 268q19 134 116 218t232 84q86 0 149 -34.5t93 -98.5q9 -22 -13 -34l-135 -75q-21 -12 -32 6q-27 46 -82 46q-39 0 -68 -29.5t-36 -81.5q-8 -54 12.5 -83t59.5 -29q62 0 95 48q6 9 17 12t19 -2l115 -74q19 -12 4 -34q-47 -66 -121 -102t-165 -36q-134 0 -206.5 83
t-53.5 216zM88 268q-16 -113 43 -181t174 -68q142 0 223 92l-76 49q-51 -53 -126 -53q-62 0 -93 46t-21 116q10 69 54.5 115t106.5 46q69 0 108 -48l90 50q-58 88 -192 88q-116 0 -195.5 -68.5t-95.5 -183.5z" />
    <glyph glyph-name="d" unicode="d" horiz-adv-x="686" 
d="M39 272q19 133 106.5 216t209.5 83q82 0 135 -44l31 215q1 11 10.5 18t18.5 7h173q11 0 17 -8t4 -17l-107 -742q-1 -11 -10.5 -18t-18.5 -7h-173q-11 0 -17 8t-4 17l2 11q-64 -43 -144 -43q-124 0 -188.5 85t-44.5 219zM89 272q-17 -116 35.5 -185t155.5 -69q90 0 152 68
q16 16 25.5 12.5t12.5 -15.5l4 -12l-6 -46h123l99 692h-123l-36 -249q-3 -20 -15 -24t-22 2l-10 7q-42 68 -136 68q-101 0 -172 -67t-87 -182zM212 268q12 71 58 118t111 47t98.5 -47t23.5 -118t-57 -118.5t-112 -47.5t-98 47t-24 119zM262 268q-7 -55 15 -85.5t64 -30.5
t73 31t39 85t-14 84.5t-65 30.5t-73 -30.5t-39 -84.5z" />
    <glyph glyph-name="e" unicode="e" horiz-adv-x="602" 
d="M38 268q19 135 116.5 218.5t232.5 83.5q5 0 13.5 -0.5t12.5 -0.5q138 -8 195 -102t26 -246q-5 -23 -28 -23h-108l2 -2l78 -89q6 -7 5 -17t-9 -18q-109 -103 -268 -103q-140 0 -214 83t-54 216zM88 268q-17 -114 43 -181.5t182 -67.5q120 0 209 70l-48 55
q-63 -46 -135 -46q-56 0 -91.5 31.5t-42.5 87.5q-1 11 2 18t10 9.5t10 3t7 0.5h355q21 131 -32 201.5t-177 70.5q-116 0 -196 -68.5t-96 -183.5zM216 320q18 57 60 93.5t96 36.5q57 0 87.5 -37.5t22.5 -96.5q-2 -9 -10 -17t-19 -8h-216q-29 0 -21 29zM263 198q21 -50 83 -50
q65 0 119 48l2 2h-204zM277 341h155q-5 59 -67 59q-56 0 -88 -59z" />
    <glyph glyph-name="f" unicode="f" horiz-adv-x="386" 
d="M61 401l16 114q1 11 10.5 18t18.5 7h48l3 25q14 98 88.5 154t173.5 56q93 0 157 -41q8 -5 9.5 -15.5t-4.5 -17.5l-78 -121q-3 -5 -8 -9t-13.5 -6.5t-17.5 6.5q-20 17 -46 17q-35 1 -41 -34l-2 -14h97q11 0 17 -8t4 -17l-16 -114q-1 -11 -10.5 -18t-18.5 -7h-97l-54 -376
q-1 -11 -10.5 -18t-18.5 -7h-171q-11 0 -17 8t-4 17l54 376h-48q-11 0 -17 8t-4 17zM114 426h48q9 0 16 -7t6 -18l-54 -376h121l54 376q2 9 9.5 17t18.5 8h97l10 64h-97q-9 0 -16 7t-6 18l6 39q6 39 34 62t65 22q26 0 51 -12l48 75q-50 24 -114 24q-81 0 -137 -42t-67 -118
l-7 -50q-2 -9 -10 -17t-18 -8h-48z" />
    <glyph glyph-name="g" unicode="g" horiz-adv-x="647" 
d="M13 -119l77 117q17 25 37 10q66 -50 146 -50q53 0 83.5 22.5t36.5 61.5q-60 -38 -135 -38q-113 0 -173.5 80t-42.5 206q18 123 99.5 201.5t193.5 78.5q78 1 129 -39l1 8q1 11 10 18t18 7h172q11 0 17.5 -8t4.5 -17l-71 -490q-18 -125 -118 -200t-239 -75q-142 0 -243 75
q-17 12 -3 32zM67 -121q86 -55 200 -55q123 0 203.5 61t95.5 164l67 465h-122l-6 -41q-3 -20 -15 -24t-22 3l-10 6q-39 63 -130 62q-91 0 -156 -62.5t-80 -167.5q-16 -108 32.5 -172t140.5 -64q88 0 144 62q16 16 25.5 12.5t13.5 -15.5l4 -12l-9 -57q-9 -62 -58 -99
t-119 -37q-83 0 -151 43zM202 285q10 67 55 112t107 45q61 0 92.5 -44.5t21.5 -112.5q-9 -67 -53.5 -111.5t-105.5 -44.5q-62 0 -94.5 45t-22.5 111zM252 285q-7 -49 13.5 -77.5t60.5 -28.5q39 0 67 28.5t35 77.5q7 51 -13 79t-59 28q-40 0 -68.5 -28.5t-35.5 -78.5z" />
    <glyph glyph-name="h" unicode="h" horiz-adv-x="678" 
d="M49 0l107 742q1 11 10.5 18t18.5 7h173q11 0 17 -8t4 -17l-32 -224q68 52 163 54q100 0 152 -64t37 -168l-49 -340q-1 -11 -10.5 -18t-18.5 -7h-173q-11 0 -17 8t-4 17l42 292q10 77 -59 77q-39 0 -66 -27.5t-34 -75.5l-38 -266q-1 -11 -10.5 -18t-18.5 -7h-173
q-11 0 -17 8t-4 17zM103 25h123l34 241q9 65 52 109t105 44q54 0 82 -35.5t20 -91.5l-38 -267h123l45 315q12 85 -27.5 133.5t-118.5 48.5q-110 -2 -171 -85q-13 -15 -23 -12t-16 14l-6 11l38 267h-123z" />
    <glyph glyph-name="i" unicode="i" horiz-adv-x="311" 
d="M44 0l78 539q1 11 10 18t18 7h172q11 0 17.5 -8t4.5 -17l-78 -539q-1 -11 -10.5 -18t-18.5 -7h-172q-11 0 -17 8t-4 17zM98 25h122l70 489h-122zM140 694q8 50 46 83t87 33q50 0 78 -33.5t21 -82.5q-7 -50 -45 -83.5t-88 -33.5t-78 33.5t-21 83.5zM190 694q-4 -31 11 -49
t45 -18t51 18t25 49q5 30 -10.5 48t-45.5 18t-51 -18t-25 -48z" />
    <glyph glyph-name="j" unicode="j" horiz-adv-x="319" 
d="M-133 -157l61 121q14 27 38 12t47 -15q15 -1 22 6t10 28l79 544q1 11 10 18t18 7h173q11 0 17.5 -8t4.5 -17l-80 -555q-14 -98 -86 -154.5t-166 -55.5q-85 0 -142 39q-15 10 -6 30zM-78 -154q42 -22 101 -22q77 -1 130 41t64 119l76 530h-123l-75 -519q-5 -38 -30 -61.5
t-60 -22.5q-23 0 -45 9zM134 693q7 51 47.5 84t92.5 33q53 0 83 -33t23 -84t-47 -83.5t-93 -32.5q-52 0 -82.5 33t-23.5 83zM184 693q-5 -29 12.5 -47.5t50.5 -18.5q34 0 56 18.5t27 47.5q5 30 -12 48.5t-51 18.5q-33 0 -55.5 -18.5t-27.5 -48.5z" />
    <glyph glyph-name="k" unicode="k" horiz-adv-x="630" 
d="M49 0l107 742q1 11 10.5 18t18.5 7h173q11 0 17 -8t4 -17l-47 -329l155 143q10 8 19 8h196q2 0 5 -0.5t10 -3.5t10 -7.5t0.5 -12.5t-13.5 -18l-212 -193l148 -316v-1q1 -1 2 -3.5t1.5 -5t1 -6t-0.5 -6.5t-3 -6t-5.5 -5t-9 -3.5t-13.5 -1.5h-205q-14 0 -20 13l-74 178
l-32 -29l-20 -137q-1 -11 -10.5 -18t-18.5 -7h-173q-11 0 -17 8t-4 17zM103 25h123l17 122q2 9 10 17l66 61q26 23 40 -5l81 -195h146l-138 294q-8 15 7 30l182 165h-127l-197 -181q-18 -15 -27.5 -11t-11.5 16l-2 12l53 367h-123z" />
    <glyph glyph-name="l" unicode="l" horiz-adv-x="321" 
d="M49 0l107 742q1 11 10.5 18t18.5 7h173q11 0 17 -8t4 -17l-107 -742q-1 -11 -10.5 -18t-18.5 -7h-173q-11 0 -17 8t-4 17zM103 25h123l99 692h-123z" />
    <glyph glyph-name="m" unicode="m" horiz-adv-x="1037" 
d="M44 0l78 539q1 11 10 18t18 7h172q11 0 17.5 -8t4.5 -17l-3 -20q69 51 160 53q121 0 168 -93q78 91 202 93q99 0 150 -64.5t36 -167.5l-49 -340q-1 -11 -10.5 -18t-18.5 -7h-172q-11 0 -17 8t-4 17l42 292q12 78 -56 78q-37 -2 -63 -29t-33 -74l-38 -267
q-1 -11 -10.5 -18t-18.5 -7h-173q-11 0 -17 8t-4 17l42 292q12 78 -55 78q-38 -2 -64.5 -29t-33.5 -74l-38 -267q-1 -11 -10.5 -18t-18.5 -7h-172q-11 0 -17 8t-4 17zM98 25h122l34 242q9 63 51 107t103 46q54 0 80.5 -36t18.5 -92l-38 -267h123l34 242q9 64 50.5 107.5
t101.5 45.5q54 0 81 -35.5t19 -92.5l-38 -267h122l45 315q13 86 -25.5 134t-117.5 48q-121 -1 -182 -107q-13 -19 -23.5 -19t-16.5 10l-7 11q-11 50 -47 77.5t-94 27.5q-108 -2 -168 -85q-13 -15 -23 -12t-16 14l-6 11l9 64h-122z" />
    <glyph glyph-name="n" unicode="n" horiz-adv-x="673" 
d="M44 0l78 539q1 11 10 18t18 7h173q11 0 17.5 -8t4.5 -17l-3 -20q67 51 162 53q100 0 152 -64t37 -168l-49 -340q-1 -11 -10.5 -18t-18.5 -7h-172q-11 0 -17 8t-4 17l42 292q10 77 -59 77q-36 0 -61 -22.5t-36 -62.5l-41 -284q-1 -11 -10.5 -18t-18.5 -7h-173q-11 0 -17 8
t-4 17zM98 25h123l37 260v1l1 2q15 57 56 94t97 37q54 0 82 -35.5t20 -91.5l-38 -267h122l45 315q12 85 -27.5 133.5t-118.5 48.5q-108 -1 -170 -84q-13 -15 -23 -12t-16 14l-6 11l9 63h-123z" />
    <glyph glyph-name="o" unicode="o" horiz-adv-x="637" 
d="M38 270q19 134 120 217t243 83q141 0 218 -83t58 -217q-19 -135 -120 -218t-242 -83q-142 0 -219 83t-58 218zM88 270q-17 -114 46.5 -182.5t187.5 -68.5q123 0 205.5 68.5t99.5 182.5t-46 182t-187 68t-206.5 -68t-99.5 -182zM212 268q10 71 57 118t112 47q64 0 98 -47
t24 -118q-11 -71 -58 -118t-111 -47q-65 0 -99 47t-23 118zM262 268q-8 -54 14 -84.5t65 -30.5q42 0 73 30.5t39 84.5q8 53 -14.5 84t-64.5 31q-43 0 -73.5 -30.5t-38.5 -84.5z" />
    <glyph glyph-name="p" unicode="p" horiz-adv-x="685" 
d="M21 -194l106 733q1 11 10 18t18 7h173q11 0 17.5 -8t4.5 -17l-2 -12q64 43 142 43q125 0 189.5 -84.5t44.5 -218.5q-19 -132 -105.5 -215t-210.5 -83q-82 0 -134 43l-30 -206q-1 -11 -10.5 -18t-18.5 -7h-173q-11 0 -17 8t-4 17zM75 -169h123l34 241q3 20 15 24t22 -2
l10 -7q42 -68 136 -68q102 0 172.5 67t86.5 181q16 116 -36 184.5t-155 68.5q-89 0 -151 -67q-17 -16 -26.5 -12.5t-13.5 15.5l-3 12l7 46h-123zM261 272q10 70 57 117.5t111 47.5q65 0 98.5 -47.5t23.5 -117.5q-10 -71 -57.5 -118.5t-112.5 -47.5q-64 0 -97 47t-23 119z
M311 272q-8 -54 14 -85t63 -31q43 0 74 31t39 85q7 53 -14.5 84t-64.5 31q-41 0 -72.5 -31t-38.5 -84z" />
    <glyph glyph-name="q" unicode="q" horiz-adv-x="686" 
d="M39 272q19 133 106.5 216t209.5 83q82 0 135 -44l2 12q1 11 10 18t18 7h173q11 0 17.5 -8t4.5 -17l-106 -733q-1 -11 -10.5 -18t-18.5 -7h-173q-11 0 -17 8t-4 17l30 205q-64 -43 -144 -43q-124 0 -188.5 85t-44.5 219zM89 272q-17 -116 35.5 -185t155.5 -69q90 0 152 68
q16 16 25.5 12.5t12.5 -15.5l4 -12l-34 -240h123l98 683h-123l-7 -46q-3 -20 -15 -24t-22 2l-10 7q-42 68 -136 68q-101 0 -172 -67t-87 -182zM212 268q12 71 58 118t111 47t98.5 -47t23.5 -118t-57 -118.5t-112 -47.5t-98 47t-24 119zM262 268q-7 -55 15 -85.5t64 -30.5
t73 31t39 85t-14 84.5t-65 30.5t-73 -30.5t-39 -84.5z" />
    <glyph glyph-name="r" unicode="r" horiz-adv-x="427" 
d="M44 0l78 539q1 11 10 18t18 7h173q11 0 17.5 -8t4.5 -17l-3 -22q68 53 157 55q11 0 17 -7.5t5 -17.5l-23 -156q-5 -27 -30 -25q-65 6 -106.5 -19.5t-54.5 -71.5l-40 -275q-1 -11 -10.5 -18t-18.5 -7h-173q-11 0 -17 8t-4 17zM98 25h123l36 252q0 1 1 3q16 63 68.5 99.5
t125.5 37.5l15 103q-86 -11 -141 -85q-13 -15 -22.5 -12t-15.5 14l-6 11l9 66h-123z" />
    <glyph glyph-name="s" unicode="s" horiz-adv-x="513" 
d="M5 80l71 110q17 25 38 9q81 -62 168 -62q35 0 35 12q1 6 -13.5 11.5t-38.5 11t-52.5 13.5t-56 23t-49 35.5t-32 55t-3.5 77.5q14 93 91 144.5t181 51.5q126 0 226 -64q18 -12 4 -34l-75 -112q-6 -9 -16.5 -12t-18.5 2q-87 51 -151 51q-27 0 -30 -12q-1 -6 19.5 -12
t51 -11.5t65.5 -20.5t63.5 -35.5t44 -58.5t7.5 -88q-14 -93 -93.5 -145t-187.5 -52q-152 0 -245 81q-15 13 -3 31zM59 77q79 -59 202 -59q93 0 153 39t70 108q5 33 -7 57.5t-35 38.5t-51.5 24t-58 18.5t-53 18.5t-36.5 27.5t-10 41.5q5 32 30.5 47t56.5 15q66 0 153 -45
l46 68q-82 46 -182 46q-89 0 -147 -39t-68 -107q-7 -46 17.5 -74.5t63.5 -41.5t78 -24t65 -32t21 -55q-5 -33 -32 -47.5t-60 -14.5q-90 0 -174 56z" />
    <glyph glyph-name="t" unicode="t" horiz-adv-x="435" 
d="M52 401l16 113q1 11 10.5 18t18.5 7h50l18 125q1 11 10 18t18 7h172q11 0 17.5 -8t4.5 -17l-18 -124h116q11 0 17 -8t4 -17l-16 -114q-1 -11 -10.5 -18t-18.5 -7h-116l-27 -186q-4 -23 0.5 -29t19.5 -5q22 0 60 16q28 11 32 -16l16 -120q3 -19 -15 -29q-72 -40 -163 -40
q-89 0 -139 52t-37 144l31 213h-50q-11 0 -17 8t-4 17zM105 426h50q9 0 16 -7t6 -18l-35 -238q-10 -71 25.5 -108.5t107.5 -37.5q62 0 118 25l-10 74q-30 -10 -51 -10q-35 -1 -52 22t-12 62l31 211q2 9 9.5 17t18.5 8h116l10 64h-116q-9 0 -16 7t-6 18l18 124h-122l-18 -125
q-2 -9 -10 -17t-19 -8h-50z" />
    <glyph glyph-name="u" unicode="u" horiz-adv-x="663" 
d="M57 199l49 340q1 11 10 18t18 7h173q11 0 17.5 -8t4.5 -17l-42 -291q-12 -78 53 -78q37 1 62.5 28t32.5 75l39 266q1 11 10 18t18 7h173q11 0 17.5 -8t4.5 -17l-78 -539q-1 -11 -10.5 -18t-18.5 -7h-173q-11 0 -17 8t-4 17l3 19q-67 -51 -158 -51q-98 0 -148.5 63.5
t-35.5 167.5zM107 199q-12 -85 26 -133t116 -48q103 0 165 84q13 15 23 12t16 -14l6 -11l-9 -64h123l70 489h-123l-35 -241q-9 -64 -50.5 -108t-101.5 -45q-52 0 -78 36t-18 92l38 266h-123z" />
    <glyph glyph-name="v" unicode="v" horiz-adv-x="571" 
d="M48 530q0 1 -1 3.5t-0.5 8.5t2.5 10.5t9 8t18 3.5h178q18 0 22 -18l48 -303l137 303q8 18 26 18h172q0 -1 4 0t8.5 -1t8 -5t3.5 -10.5t-5 -17.5l-281 -539q-8 -16 -26 -16h-177q-17 0 -21 16zM105 514l114 -489h142l255 489h-117l-164 -363q-8 -19 -20 -19t-20 10l-8 9
l-58 363h-124z" />
    <glyph glyph-name="w" unicode="w" horiz-adv-x="937" 
d="M48 530q0 1 -0.5 3.5t-0.5 8.5t2 10.5t9 8t18 3.5h176q18 0 22 -18l44 -291l127 291q8 18 26 18h165q18 0 22 -18l44 -292l128 292q8 18 26 18h169q0 -1 4 0t8.5 -1t8 -5t3.5 -10.5t-5 -17.5l-275 -539q-8 -16 -26 -16h-171q-17 0 -21 18l-44 265l-120 -265
q-8 -18 -27 -18h-172q-18 0 -21 16zM105 514l108 -489h136l147 324q8 19 20 19t20 -10l8 -9l54 -324h135l249 489h-114l-155 -355q-8 -18 -20 -18t-20 9l-8 9l-55 355h-127l-154 -355q-8 -18 -20 -18t-20 9l-8 9l-55 355h-121z" />
    <glyph glyph-name="x" unicode="x" horiz-adv-x="606" 
d="M-15 14l213 262l-127 249q-1 2 -2 4.5t-2.5 9t0.5 12t9.5 9.5t20.5 4h198q14 0 20 -12l52 -119l91 119q10 12 23 12h189h5t9.5 -2t10 -6t2 -12t-10.5 -19l-198 -248l136 -263q1 -2 2 -4.5t2 -9t-0.5 -12t-9.5 -9.5t-21 -4h-199q-13 0 -19 12l-59 134l-107 -135
q-9 -11 -23 -11h-190h-5t-9.5 2t-9.5 6t-1.5 12t10.5 19zM54 25h130l125 158q15 16 24.5 16t14.5 -9l4 -8l68 -157h138l-123 238q-8 13 4 28l178 223h-129l-109 -143q-13 -17 -24 -17t-15 8l-4 9l-62 143h-138l115 -224q8 -13 -4 -28z" />
    <glyph glyph-name="y" unicode="y" horiz-adv-x="580" 
d="M-52 -134l89 118q19 25 38 7q27 -24 52 -24q31 0 49 29l10 17l-145 516q-2 4 -3 10t5.5 15.5t25.5 9.5h178q18 0 21 -16l66 -291l136 290q8 17 26 17h172q0 -1 4 0t8.5 -1t8.5 -5t4 -10.5t-6 -17.5l-319 -595q-89 -162 -255 -162q-94 0 -163 60q-15 14 -2 33zM2 -140
q50 -37 118 -37q132 0 204 130l300 561h-117l-160 -341q-9 -20 -21 -20t-20 9l-7 10l-76 342h-123l138 -492q3 -10 -3 -21l-17 -27q-36 -57 -98 -57q-32 0 -61 18z" />
    <glyph glyph-name="z" unicode="z" horiz-adv-x="553" 
d="M9 0l15 104q2 10 8 16l267 264h-200q-11 0 -17 8t-4 17l19 130q1 11 10 18t18 7h471q11 0 17.5 -8t4.5 -17l-15 -104q-1 -8 -9 -16l-266 -264h218q11 0 17.5 -8t4.5 -17l-19 -130q-1 -11 -10.5 -18t-18.5 -7h-490q-11 0 -17 8t-4 17zM63 25h440l11 80h-248
q-22 0 -25 10.5t5 20.5l7 10l301 298l10 70h-421l-11 -80h230q22 0 25 -10t-5 -20l-8 -11l-301 -298z" />
    <glyph glyph-name="braceleft" unicode="{" horiz-adv-x="356" 
d="M34 243l19 132q1 11 10.5 18t18.5 7h39l9 1q2 2 5 17l27 186q13 87 66.5 125.5t157.5 38.5h67q11 0 17 -8t4 -17l-18 -127q-1 -11 -10.5 -18t-18.5 -7q-45 0 -55 -7t-14 -33l-17 -122q-13 -86 -64 -120q41 -34 29 -121l-17 -121q-4 -26 4 -33t53 -7q11 0 17 -8t4 -17
l-18 -128q-1 -11 -10.5 -18t-18.5 -7h-67q-104 0 -146.5 39t-29.5 126l27 185v18q-4 1 -10 1h-39q-11 0 -17 8t-4 17zM88 268h14q26 0 40 -14q18 -18 12 -55l-27 -185q-10 -68 16 -91.5t117 -23.5h42l12 79q-88 8 -75 89l17 121q7 49 -3.5 68.5t-47.5 28.5q-14 5 -12.5 16
t11.5 22l9 11q39 8 55 27.5t23 67.5l17 122q11 82 101 89l11 78h-42q-91 0 -123.5 -23.5t-42.5 -90.5l-27 -186q-6 -37 -27 -54q-18 -14 -45 -14h-14z" />
    <glyph glyph-name="bar" unicode="|" horiz-adv-x="299" 
d="M44 -110l132 913q1 11 10 18t18 7h129q11 0 17.5 -8t4.5 -17l-132 -913q-1 -11 -10 -18t-18 -7h-129q-11 0 -17.5 8t-4.5 17zM98 -85h79l124 863h-79z" />
    <glyph glyph-name="braceright" unicode="}" horiz-adv-x="391" 
d="M24 -126l18 128q1 11 10.5 18t18.5 7q44 0 54.5 7t14.5 33l17 121q11 84 64 120q-41 34 -29 121l17 122q4 26 -4.5 33t-52.5 7q-11 0 -17 8t-4 17l18 127q1 11 10.5 18t18.5 7h66q103 0 146 -38.5t30 -125.5l-27 -186v-17l1 -1h4.5h5.5h38q11 0 17 -8t4 -17l-19 -132
q-1 -11 -10.5 -18t-18.5 -7h-38l-10 -1q-3 -5 -5 -18l-27 -185q-13 -87 -66.5 -126t-157.5 -39h-66q-11 0 -17 8t-4 17zM77 -101h41q91 0 124 23.5t43 91.5l27 185q6 38 27 55q18 14 46 14h13l11 82h-13q-29 0 -42 14q-17 17 -11 54l27 186q10 67 -16.5 90.5t-117.5 23.5
h-41l-11 -78q88 -8 75 -89l-17 -122q-7 -49 3 -68t48 -28q14 -5 12.5 -16t-11.5 -22l-9 -11q-40 -8 -55.5 -27.5t-22.5 -68.5l-17 -121q-11 -82 -101 -89z" />
    <glyph glyph-name="asciitilde" unicode="~" horiz-adv-x="510" 
d="M66 242q13 92 55 143.5t111 51.5q34 0 64.5 -12.5t47 -25.5t18.5 -13h2h1.5t2 1t2 3.5t1.5 6.5t2 10q1 11 10 18t18 7h115q11 0 17.5 -8t4.5 -17q-13 -92 -54.5 -143.5t-111.5 -51.5q-35 0 -65 13t-46.5 25.5t-18.5 12.5h-3q-5 -6 -7 -21q-1 -11 -10.5 -18t-18.5 -7h-116
q-11 0 -17 8t-4 17zM120 267h68q8 23 28 36q16 10 33 10q28 0 64.5 -25.5t65.5 -25.5q41 0 66 27t38 93h-67q-18 -46 -62 -46q-27 0 -64 25.5t-65 25.5q-42 0 -67 -27t-38 -93z" />
    <glyph glyph-name="nbspace" unicode="&#xa0;" horiz-adv-x="232" 
 />
    <glyph glyph-name="exclamdown" unicode="&#xa1;" horiz-adv-x="254" 
d="M3 -158l26 179q0 1 1 3l69 277q2 9 11 15.5t18 6.5h104q9 0 15 -6.5t6 -15.5l-10 -277v-3l-26 -179q-1 -11 -10 -18t-18 -7h-164q-11 0 -17.5 8t-4.5 17zM57 -133h114l22 153l9 253h-59l-64 -253zM94 462q7 47 42 78.5t82 31.5t73.5 -31.5t19.5 -78.5q-7 -46 -42.5 -77
t-81.5 -31q-47 0 -73.5 30.5t-19.5 77.5zM144 462q-4 -27 9 -42.5t41 -15.5q27 0 45 15.5t22 42.5t-10 43.5t-40 16.5q-28 0 -45.5 -16t-21.5 -44z" />
    <glyph glyph-name="cent" unicode="&#xa2;" horiz-adv-x="559" 
d="M38 268q16 111 86.5 189t174.5 103l20 139q1 11 10 18t18 7h134q11 0 17.5 -8t4.5 -17l-21 -141q104 -31 146 -121q9 -22 -13 -34l-135 -75q-21 -12 -32 6q-27 46 -82 46q-39 0 -68 -29.5t-36 -81.5q-8 -54 12.5 -83t59.5 -29q62 0 95 48q6 9 17 12t19 -2l115 -74
q19 -12 4 -34q-67 -95 -185 -126l-19 -135q-1 -11 -10.5 -18t-18.5 -7h-134q-11 0 -17 8t-4 17l19 133q-98 25 -145.5 102t-31.5 187zM88 268q-14 -99 30 -163.5t133 -80.5q20 -4 17 -25l-19 -128h84l19 130q2 9 8.5 16t15.5 8q93 19 152 86l-76 49q-51 -53 -126 -53
q-62 0 -93 46t-21 116q10 69 54.5 115t106.5 46q69 0 108 -48l90 50q-40 63 -125 82q-19 4 -16 24l19 136h-84l-19 -134q-4 -22 -24 -25q-94 -17 -157 -82.5t-77 -164.5z" />
    <glyph glyph-name="sterling" unicode="&#xa3;" horiz-adv-x="557" 
d="M3 0l19 134q1 11 10.5 18t18.5 7h51l14 97h-51q-11 0 -17.5 8t-4.5 17l17 118q1 11 10.5 18t18.5 7h51l7 50q17 121 97.5 190t203.5 69q138 0 217 -93q11 -13 0 -29l-86 -130q-1 -1 -2 -3.5t-5.5 -6.5t-9 -6t-11.5 0t-13 10q-47 59 -100 59q-28 0 -42.5 -14t-19.5 -50
l-7 -46h142q11 0 17 -8t4 -17l-17 -118q-1 -11 -10 -18t-18 -7h-142l-14 -97h233q11 0 17 -8t4 -17l-19 -134q-1 -11 -10.5 -18t-18.5 -7h-513q-11 0 -17 8t-4 17zM57 25h463l12 84h-233q-9 0 -16 7t-6 18l21 147q2 9 10 17t19 8h142l10 68h-142q-9 0 -16 7t-6 18l11 71
q8 52 39.5 83t79.5 31q60 0 113 -51l55 84q-66 66 -173 66q-104 0 -166 -53.5t-77 -155.5l-11 -75q-2 -9 -10 -17t-18 -8h-51l-10 -68h51q9 0 15.5 -7t5.5 -18l-21 -147q-2 -9 -10 -17t-18 -8h-51z" />
    <glyph glyph-name="currency" unicode="&#xa4;" horiz-adv-x="701" 
d="M16 70q-6 9 -3.5 19t9.5 17l101 88q-22 61 -12 127q9 64 46 122l-74 86q-6 7 -4.5 18t9.5 18l111 97q9 8 19.5 7.5t15.5 -7.5l74 -86q64 29 129 29q67 0 123 -29l98 86q8 8 18.5 8t16.5 -8l83 -97q6 -9 4 -19.5t-9 -16.5l-98 -85q19 -56 10 -123q-11 -71 -49 -127l76 -88
q6 -9 4 -19.5t-9 -16.5l-111 -97q-8 -7 -19 -7t-17 7l-77 92q-64 -27 -126 -27q-60 0 -116 27l-104 -92q-9 -8 -20 -7.5t-16 7.5zM72 88l53 -62l99 87q14 13 30 4q50 -29 109 -29t119 29q18 9 29 -4l73 -87l70 62l-72 84q-12 14 1 31q41 54 50 118q9 63 -14 114q-8 18 8 31
l93 81l-52 62l-92 -82q-16 -14 -31 -4q-53 32 -115 32q-63 0 -122 -32q-18 -10 -30 4l-69 82l-71 -62l71 -81q12 -14 -1 -31q-38 -53 -47 -114q-9 -65 16 -118q8 -18 -8 -31zM246 321q9 62 59.5 106t112.5 44t100.5 -44t29.5 -106t-59.5 -105t-113.5 -43q-62 0 -100 43.5
t-29 104.5zM296 321q-6 -41 19 -69.5t67 -28.5t76 29t40 69q6 41 -19 70.5t-68 29.5q-41 0 -75 -29.5t-40 -70.5z" />
    <glyph glyph-name="yen" unicode="&#xa5;" horiz-adv-x="665" 
d="M65 143l9 66q1 11 10.5 18t18.5 7h150l-6 15h-142q-11 0 -17.5 8t-4.5 17l10 65q1 11 10 18t18 7h80l-129 325l-2 4t-1.5 8.5t1.5 11.5t9.5 9t20.5 4h178q14 0 20 -13l108 -267l182 267q10 13 24 13h178q0 -1 4.5 0t9.5 -1t8.5 -5t2.5 -11.5t-9 -19.5l-221 -325h73
q11 0 17.5 -8t4.5 -17l-10 -65q-1 -11 -10 -18t-18 -7h-135l-10 -15h143q11 0 17 -8t4 -17l-9 -66q-1 -11 -10.5 -18t-18.5 -7h-150l-17 -118q-1 -11 -10.5 -18t-18.5 -7h-177q-11 0 -17 8t-4 17l17 118h-160q-11 0 -17 8t-4 17zM118 168h160q9 0 16 -7t6 -18l-17 -118h127
l17 118q2 9 9.5 17t18.5 8h150l3 16h-150q-9 0 -16 7t-6 18l3 18q2 8 4 12l32 47q9 13 24 13h125l2 15h-90q-20 0 -24 9t2 19l6 9l221 325h-122l-200 -294q-8 -12 -15.5 -16t-12.5 -2t-9 6t-6 8l-1 4l-119 294h-122l130 -325q7 -18 0 -27.5t-18 -9.5h-10h-97l-2 -15h132
q15 0 20 -13l21 -52q2 -7 1 -12l-2 -13q-2 -9 -9.5 -17t-18.5 -8h-160z" />
    <glyph glyph-name="brokenbar" unicode="&#xa6;" horiz-adv-x="299" 
d="M44 -110l50 343q1 11 10 18t18 7h129q11 0 17.5 -8t4.5 -17l-50 -343q-1 -11 -10 -18t-18 -7h-129q-11 0 -17.5 8t-4.5 17zM98 -85h79l42 293h-79zM126 461l50 342q1 11 10 18t18 7h129q11 0 17.5 -8t4.5 -17l-50 -342q-1 -11 -10 -18t-18 -7h-129q-11 0 -17.5 8t-4.5 17
zM180 486h79l42 292h-79z" />
    <glyph glyph-name="section" unicode="&#xa7;" horiz-adv-x="545" 
d="M-7 -1l65 107q16 28 38 11q85 -64 169 -64q19 0 30.5 3.5t14.5 7.5l2 3q1 6 -11 12t-32 11t-45.5 13t-51.5 17.5t-50.5 26t-42 36.5t-26 50t-3.5 67q12 85 99 135q-40 38 -32 100q12 83 87.5 133.5t181.5 50.5q122 0 226 -64q8 -5 9 -15t-4 -18l-67 -106
q-6 -9 -16.5 -12.5t-19.5 1.5q-89 50 -150 50q-41 0 -41 -13q-1 -8 14.5 -14.5t41 -13.5t56 -16t60.5 -24.5t53.5 -36.5t35 -54.5t5.5 -75.5q-12 -84 -96 -136q37 -37 28 -99q-12 -83 -89.5 -134t-186.5 -51q-144 0 -248 82q-16 12 -4 30zM47 -2q88 -61 205 -61
q95 0 152.5 38.5t66.5 96.5q4 31 -4 46t-37 34q-17 13 -15 23t13 16l12 6q41 16 67.5 45.5t31.5 64.5q6 43 -21 71.5t-68.5 43t-84 27.5t-70 35.5t-22.5 57.5q5 31 33 47t65 16q66 0 151 -44l40 61q-88 47 -184 47q-91 0 -146.5 -38t-64.5 -96q-4 -28 4.5 -45t42.5 -36
q17 -12 15 -22t-13 -16l-12 -7q-93 -33 -104 -109q-6 -42 20.5 -70.5t67.5 -43t83 -27.5t69 -35.5t22 -56.5q-5 -32 -35.5 -48t-69.5 -16q-88 0 -173 56zM206 311q5 34 35.5 50.5t71.5 16.5q50 0 86 -20t30 -60q-5 -33 -36 -50t-73 -17q-31 0 -57 7.5t-43.5 26t-13.5 46.5z
M256 311q-1 -5 4.5 -11t23 -12.5t43.5 -6.5q52 0 52 17q1 4 -5 10.5t-24 13t-44 6.5q-46 0 -50 -17z" />
    <glyph glyph-name="dieresis" unicode="&#xa8;" horiz-adv-x="368" 
d="M76 692q6 44 40 73.5t78 29.5t68.5 -29.5t18.5 -73.5t-39.5 -73.5t-77.5 -29.5t-69.5 29.5t-18.5 73.5zM126 692q-4 -25 8 -39t37 -14q24 0 40 14t20 39q4 24 -9 38.5t-36 14.5q-24 0 -40 -14.5t-20 -38.5zM269 692q6 44 40 73.5t78 29.5q43 0 68.5 -29.5t19.5 -73.5
q-7 -44 -40.5 -73.5t-77.5 -29.5t-69.5 29.5t-18.5 73.5zM319 692q-4 -25 8 -39t37 -14q24 0 40.5 14t20.5 39q4 24 -9 38.5t-37 14.5t-40 -14.5t-20 -38.5z" />
    <glyph glyph-name="copyright" unicode="&#xa9;" horiz-adv-x="725" 
d="M49 348q22 150 143.5 258t273.5 108t242 -106.5t68 -257.5q-22 -150 -143.5 -258t-273.5 -108t-242 107t-68 257zM99 348q-19 -130 58.5 -222t208.5 -92q132 0 236.5 93t123.5 223t-58.5 222t-208.5 92q-132 0 -236.5 -93t-123.5 -223zM129 348q17 117 111 201.5
t214 84.5q119 0 189.5 -83t53.5 -201t-112 -202t-215 -84q-119 0 -188.5 83.5t-52.5 200.5zM179 348q-14 -97 43 -165.5t155 -68.5q99 0 177.5 69.5t92.5 166.5t-44 165.5t-156 68.5q-99 0 -176.5 -69t-91.5 -167zM219 349q12 82 77.5 136.5t150.5 54.5q89 0 141 -63
q6 -7 4.5 -16.5t-8.5 -16.5l-56 -57q-22 -22 -38 0q-24 33 -58 33q-29 0 -51.5 -19.5t-26.5 -49.5q-4 -31 12 -51.5t45 -20.5q33 0 69 31q21 17 36 -1l40 -51q13 -16 -5 -34q-74 -68 -163 -68q-83 0 -132 55.5t-37 137.5zM269 349q-9 -62 27 -102.5t100 -40.5q54 0 104 36
l-12 16q-44 -29 -84 -29q-50 0 -79 35.5t-21 86.5q8 50 46.5 84.5t88.5 34.5q43 0 76 -30l17 17q-41 33 -92 33q-65 0 -113.5 -40.5t-57.5 -100.5z" />
    <glyph glyph-name="ordfeminine" unicode="&#xaa;" horiz-adv-x="393" 
d="M76 553q9 70 75 102q-7 5 -8 12l-17 76q-2 10 4 19.5t15 12.5q97 35 176 35t122 -37.5t33 -104.5l-30 -210q-1 -11 -10.5 -18t-18.5 -7h-116q-16 0 -20 14q-38 -19 -85 -19q-61 0 -94.5 34.5t-25.5 90.5zM126 553q-5 -35 14.5 -55t62.5 -20q57 0 90 36q16 16 25.5 12.5
t13.5 -15.5l4 -12l-2 -16h66l26 185q7 44 -20.5 68t-91.5 24q-60 0 -134 -23l7 -29q3 1 9.5 2.5t9.5 2.5q46 12 74 12q38 0 60.5 -18.5t17.5 -52.5v-5q-2 -9 -10 -17t-19 -8h-87q-21 0 -39 -3q-70 -13 -77 -68zM189 562q4 29 26.5 43.5t50.5 14.5h62q9 0 16 -7t6 -18l-5 -34
q-2 -9 -5 -13q-34 -47 -93 -47q-28 0 -45 17t-13 44zM239 562q-1 -6 1 -8.5t14 -2.5q26 0 42 17v2h-37q-20 -1 -20 -8zM257 674h31q-5 1 -15 1t-16 -1z" />
    <glyph glyph-name="guillemotleft" unicode="&#xab;" horiz-adv-x="502" 
d="M17 252q-7 15 4 28l147 184q9 11 22 11h140h5t9 -1.5t9.5 -5t2.5 -11.5t-9 -19l-124 -172l74 -172l2 -4t2 -8.5t-1 -11.5t-9.5 -9t-20.5 -4h-140q-14 0 -19 11zM70 266l81 -159h83l-63 147q-5 13 3 24l106 147h-83zM239 252q-7 15 4 28l147 184q9 11 22 11h140h5t9 -2
t9.5 -5.5t2.5 -11.5t-9 -19l-125 -171l75 -171l1 -1q0 -1 1 -3.5t1.5 -5t0.5 -6t-0.5 -6.5t-2.5 -6t-5.5 -5t-9 -3.5t-13.5 -1.5h-140q-14 0 -19 11zM292 266l81 -159h83l-64 146q-6 13 4 26l106 146h-83z" />
    <glyph glyph-name="logicalnot" unicode="&#xac;" horiz-adv-x="578" 
d="M54 317l15 109q1 11 10.5 18t18.5 7h481q11 0 17 -8t4 -17l-41 -289q-1 -11 -10.5 -18t-18.5 -7h-124q-11 0 -17 8t-4 17l22 155h-332q-11 0 -17 8t-4 17zM107 342h332q9 0 16 -7t6 -18l-23 -155h74l35 239h-431z" />
    <glyph glyph-name="softhyphen" unicode="&#xad;" horiz-adv-x="374" 
d="M66 252l16 109q1 11 10.5 18t18.5 7h264q11 0 17 -8t4 -17l-16 -109q-1 -11 -10 -18t-18 -7h-264q-11 0 -17.5 8t-4.5 17zM120 277h214l8 59h-214z" />
    <glyph glyph-name="registered" unicode="&#xae;" horiz-adv-x="725" 
d="M49 348q22 150 143.5 258t273.5 108t242 -106.5t68 -257.5q-22 -150 -143.5 -258t-273.5 -108t-242 107t-68 257zM99 348q-19 -130 58.5 -222t208.5 -92q132 0 236.5 93t123.5 223t-58.5 222t-208.5 92q-132 0 -236.5 -93t-123.5 -223zM129 348q17 117 111 201.5
t214 84.5q119 0 189.5 -83t53.5 -201t-112 -202t-215 -84q-119 0 -188.5 83.5t-52.5 200.5zM179 348q-14 -97 43 -165.5t155 -68.5q99 0 177.5 69.5t92.5 166.5t-44 165.5t-156 68.5q-99 0 -176.5 -69t-91.5 -167zM238 200l46 320q1 11 10.5 18t18.5 7h138q72 0 110 -36
t28 -100q-11 -72 -65 -111l43 -84q1 -2 2 -4.5t2 -9t-0.5 -12t-9.5 -9.5t-21 -4h-91q-14 0 -20 13l-30 77h-23l-9 -65q-1 -11 -10.5 -18t-18.5 -7h-79q-11 0 -17 8t-4 17zM291 225h29l10 65q2 9 10 17t18 8h63q16 0 21 -13l29 -77h30l-33 66q-11 23 15 36q47 22 56 82
q6 42 -17 64t-79 22h-113zM339 352l15 107q2 9 10 17t19 8h59q36 0 56 -21.5t15 -56.5t-31.5 -57t-62.5 -22h-59q-9 0 -15.5 7t-5.5 18zM392 377h34q19 0 27 6.5t10 22.5q2 15 -4 21.5t-24 6.5h-34z" />
    <glyph glyph-name="macron" unicode="&#xaf;" 
d="M102 632l17 116q1 11 10 18t18 7h278q11 0 17.5 -8t4.5 -17l-17 -116q-1 -11 -10.5 -18t-18.5 -7h-278q-11 0 -17 8t-4 17zM156 657h228l9 66h-228z" />
    <glyph glyph-name="degree" unicode="&#xb0;" horiz-adv-x="374" 
d="M159 699q8 59 56.5 101t107.5 42q60 0 96 -42t28 -101t-56.5 -101t-108.5 -42q-59 0 -95 42t-28 101zM209 699q-5 -38 18.5 -65.5t61.5 -27.5q39 0 71 27.5t37 65.5t-18.5 65.5t-62.5 27.5q-38 0 -70 -27.5t-37 -65.5zM226 699q4 32 30.5 54t57.5 22q32 0 51 -22.5
t15 -53.5t-30 -53.5t-58 -22.5q-31 0 -50.5 22t-15.5 54zM276 699q-2 -10 5 -18t18 -8q12 0 20.5 7.5t10.5 18.5t-5 18.5t-19 7.5q-11 0 -19.5 -8t-10.5 -18z" />
    <glyph glyph-name="plusminus" unicode="&#xb1;" horiz-adv-x="510" 
d="M8 2l16 110q1 11 10.5 18t18.5 7h444q11 0 17 -8t4 -17l-16 -110q-1 -11 -10 -18t-18 -7h-444q-11 0 -17.5 8t-4.5 17zM58 348l15 105q1 11 10.5 18t18.5 7h142l20 137q1 11 10 18t18 7h109q11 0 17.5 -8t4.5 -17l-20 -137h143q11 0 17 -8t4 -17l-15 -105q-1 -11 -10 -18
t-18 -7h-143l-20 -136q-1 -11 -10.5 -18t-18.5 -7h-109q-11 0 -17 8t-4 17l20 136h-142q-11 0 -17.5 8t-4.5 17zM62 27h394l9 60h-394zM112 373h142q9 0 15.5 -7t5.5 -18l-19 -136h59l19 136q2 9 10 17t19 8h143l8 55h-143q-9 0 -16 7t-6 18l20 137h-59l-20 -137
q-2 -9 -10 -17t-18 -8h-142z" />
    <glyph glyph-name="twosuperior" unicode="&#xb2;" horiz-adv-x="389" 
d="M48 283l11 75q1 10 9 18l178 154q32 30 37 48v1v3t-4.5 2t-12.5 1q-45 0 -109 -47q-26 -17 -36 7l-34 84q-8 18 12 32q108 69 207 69q74 0 120 -36.5t37 -98.5q-11 -69 -114 -158l-44 -38h115q11 0 17.5 -8t4.5 -17l-13 -91q-1 -11 -10.5 -18t-18.5 -7h-331q-11 0 -17 8
t-4 17zM101 308h281l6 41h-151q-22 0 -24.5 10.5t5.5 21.5l8 11l94 81q86 72 93 122q6 36 -24.5 60.5t-89.5 24.5q-74 0 -157 -47l16 -39q67 41 116 41q27 0 45 -15t14 -42q-4 -34 -57 -82l-169 -148z" />
    <glyph glyph-name="threesuperior" unicode="&#xb3;" horiz-adv-x="365" 
d="M32 342l62 89q1 1 2.5 3.5t6 6.5t9 6t11 -0.5t12.5 -10.5q35 -46 83 -46q36 0 39 24q2 12 -4.5 17t-28.5 5h-72q-11 0 -17.5 8t-4.5 17l9 61q2 11 10 18l58 49h-96q-11 0 -17.5 8t-4.5 17l13 85q1 11 10 18t18 7h295q11 0 17.5 -8t4.5 -17l-10 -67q-2 -11 -10 -18
l-80 -67q42 -15 64 -49.5t15 -82.5q-10 -72 -71.5 -117t-146.5 -45q-107 0 -174 57q-15 13 -2 32zM87 338q53 -35 129 -35q68 0 110.5 31.5t49.5 80.5q10 75 -71 89l-20 4q-21 4 -22.5 15t7.5 19l9 9l110 92l4 31h-245l-5 -35h132q22 0 24.5 -10.5t-5.5 -21.5l-8 -11
l-98 -85l-4 -25h47q37 0 59 -19t17 -53t-32.5 -54t-63.5 -20q-55 0 -96 38z" />
    <glyph glyph-name="acute" unicode="&#xb4;" 
d="M111 613l130 168q14 18 31 11l148 -55q2 0 4.5 -1t7.5 -5t7 -8.5t-2 -12t-15 -16.5l-146 -113q-8 -6 -17 -6h-132h-5t-9.5 1.5t-9.5 5t-2 12t10 19.5zM179 625h78l102 79l-92 34z" />
    <glyph glyph-name="mu" unicode="&#xb5;" horiz-adv-x="684" 
d="M21 -194l106 733q1 11 10 18t18 7h173q11 0 17.5 -8t4.5 -17l-42 -291q-12 -78 53 -78q37 1 62.5 28t32.5 75l39 266q1 11 10 18t18 7h173q11 0 17.5 -8t4.5 -17l-78 -539q-1 -11 -10.5 -18t-18.5 -7h-173q-11 0 -17 8t-4 17l3 19q-65 -49 -153 -51l-23 -162
q-1 -11 -10.5 -18t-18.5 -7h-173q-11 0 -17 8t-4 17zM75 -169h123l23 163q1 12 10.5 19t19.5 6l19 -1q104 0 165 84q13 15 23 12t16 -14l6 -11l-9 -64h123l70 489h-123l-35 -241q-9 -64 -50.5 -108t-101.5 -45q-52 0 -78 36t-18 92l38 266h-123z" />
    <glyph glyph-name="paragraph" unicode="&#xb6;" horiz-adv-x="650" 
d="M45 529q14 99 92 168.5t211 69.5h343q11 0 17 -8t4 -17l-122 -849q-1 -11 -10.5 -18t-18.5 -7h-129q-11 0 -17 8t-4 17l104 727h-50l-104 -727q-1 -11 -10.5 -18t-18.5 -7h-128q-11 0 -17 8t-4 17l58 407h-2q-51 0 -90 15.5t-59 40t-33.5 55t-13.5 61t2 57.5zM95 529
q-7 -27 -1 -58.5t19 -58.5t47.5 -44.5t85.5 -17.5h27q9 0 16 -7t6 -18l-59 -407h78l105 727q2 9 10 17t19 8h100q9 0 15.5 -7t5.5 -18l-105 -727h79l115 799h-318q-114 0 -173.5 -53.5t-71.5 -134.5z" />
    <glyph glyph-name="periodcentered" unicode="&#xb7;" horiz-adv-x="240" 
d="M55 289q7 46 41.5 76.5t79.5 30.5q46 0 72.5 -30.5t19.5 -76.5t-42 -76.5t-81 -30.5q-45 0 -71 30.5t-19 76.5zM105 289q-4 -26 9 -41.5t38 -15.5q26 0 44 15.5t22 41.5t-9.5 41.5t-39.5 15.5t-43 -15.5t-21 -41.5z" />
    <glyph glyph-name="cedilla" unicode="&#xb8;" 
d="M14 -194l43 71q1 1 2 3.5t5 7t8.5 6.5t11 0t13.5 -9q11 -13 31 -13q16 0 18 12q0 1 0.5 2t-0.5 3t-3 3t-6 2t-10 1q-9 0 -33 -4h-11h-3.5t-7 1.5t-6.5 5t-1 11t8 18.5l61 98q8 14 25 14h97q0 -1 4.5 0t9 -1t8.5 -5t3 -11t-8 -19l-27 -41q54 -30 45 -94q-9 -58 -56.5 -93
t-111.5 -35q-58 0 -104 35q-16 13 -5 31zM69 -194q30 -16 61 -16q47 0 76.5 21.5t34.5 56.5q6 44 -41 57q-29 8 -11 35l19 29h-41l-27 -44q27 -2 43.5 -18.5t12.5 -42.5t-26 -44t-50 -18q-20 0 -36 8z" />
    <glyph glyph-name="onesuperior" unicode="&#xb9;" horiz-adv-x="274" 
d="M72 607l14 93q1 11 10 18t18 7h201q11 0 17 -8t4 -17l-59 -417q-1 -11 -10.5 -18t-18.5 -7h-122q-11 0 -17 8t-4 17l43 299h-54q-11 0 -17.5 8t-4.5 17zM126 632h54q9 0 15.5 -7t5.5 -18l-43 -299h72l53 367h-151z" />
    <glyph glyph-name="ordmasculine" unicode="&#xba;" horiz-adv-x="413" 
d="M84 619q13 86 79.5 138.5t159.5 52.5t145 -53t39 -138q-12 -85 -79 -137.5t-160 -52.5q-92 0 -144 52.5t-40 137.5zM134 619q-9 -64 28 -102t113 -38t124.5 38t57.5 102q9 65 -28 103t-113 38q-75 0 -124 -38.5t-58 -102.5zM203 618q6 43 36 72t71 29t62 -29t15 -72
t-35.5 -72t-70.5 -29t-62.5 29t-15.5 72zM253 618q-7 -51 35 -51t49 51t-35 51t-49 -51z" />
    <glyph glyph-name="guillemotright" unicode="&#xbb;" horiz-adv-x="508" 
d="M27 94l123 172l-74 172l-2 4t-2 8.5t1 11.5t9.5 9t20.5 4h140q15 0 20 -11l93 -184q7 -15 -4 -28l-146 -184q-9 -11 -23 -11h-140h-5t-9 1.5t-9 5t-2 11.5t9 19zM94 107h83l126 159l-80 159h-84l64 -147q5 -12 -4 -24zM249 94l123 172l-74 172l-2 4t-2 8.5t1 11.5t9.5 9
t20.5 4h140q15 0 20 -11l93 -184q7 -15 -4 -28l-146 -184q-9 -11 -23 -11h-140h-5t-9 1.5t-9 5t-2 11.5t9 19zM316 107h83l126 159l-80 159h-84l64 -147q5 -12 -4 -24z" />
    <glyph glyph-name="onequarter" unicode="&#xbc;" horiz-adv-x="881" 
d="M49 15l601 701q9 10 22 10h162h5t9.5 -2.5t9.5 -6t1.5 -12t-11.5 -19.5l-601 -701q-9 -10 -22 -10h-162h-5t-9.5 2.5t-9.5 6t-1.5 12t11.5 19.5zM72 607l14 93q1 11 10 18t18 7h201q11 0 17.5 -8t4.5 -17l-60 -417q-1 -11 -10.5 -18t-18.5 -7h-122q-11 0 -17 8t-4 17
l43 299h-54q-11 0 -17.5 8t-4.5 17zM119 25h101l558 651h-101zM126 632h54q9 0 15.5 -7t5.5 -18l-43 -299h72l53 367h-151zM478 87l11 79q2 7 5 12l170 251q10 13 24 13h117q0 -1 4.5 0t9.5 -1t9 -5t3 -11t-9 -19l-80 -121h109q11 0 17 -8t4 -17l-9 -64h33q11 0 17.5 -8
t4.5 -17l-12 -84q-1 -11 -10.5 -18t-18.5 -7h-33l-9 -62q-1 -11 -10.5 -18t-18.5 -7h-113q-11 0 -17 8t-4 17l9 62h-182q-11 0 -17 8t-4 17zM531 112h182q9 0 16 -7t6 -18l-9 -62h63l9 62q2 9 10 17t18 8h33l5 34h-33q-9 0 -15.5 7t-5.5 18l9 64h-63l-9 -64q-2 -9 -10 -17
t-19 -8h-83q-20 0 -24.5 9t1.5 18l6 9l138 210h-61l-157 -232zM683 196h17l5 33z" />
    <glyph glyph-name="onehalf" unicode="&#xbd;" horiz-adv-x="902" 
d="M49 15l601 701q9 10 22 10h162h5t9.5 -2.5t9.5 -6t1.5 -12t-11.5 -19.5l-601 -701q-9 -10 -22 -10h-162h-5t-9.5 2.5t-9.5 6t-1.5 12t11.5 19.5zM72 607l14 93q1 11 10 18t18 7h201q11 0 17.5 -8t4.5 -17l-60 -417q-1 -11 -10.5 -18t-18.5 -7h-122q-11 0 -17 8t-4 17
l43 299h-54q-11 0 -17.5 8t-4.5 17zM119 25h101l558 651h-101zM126 632h54q9 0 15.5 -7t5.5 -18l-43 -299h72l53 367h-151zM520 0l11 75q2 11 10 18l176 153q36 35 39 49v1q1 3 -4 5q-4 1 -13 1q-43 0 -110 -48q-24 -20 -36 8l-34 84q-8 18 12 32q108 69 207 69
q74 0 120 -36.5t37 -99.5q-10 -70 -113 -157l-45 -39h116q11 0 17 -8t4 -17l-13 -90q-1 -11 -10.5 -18t-18.5 -7h-331q-11 0 -17 8t-4 17zM574 25h281l5 40h-151q-22 0 -25 10.5t6 21.5l8 11l94 82q86 74 93 121q5 37 -25 61.5t-89 24.5q-74 0 -157 -47l16 -39q67 41 116 41
q28 0 46 -15t14 -42q-4 -32 -57 -83l-1 -1l-169 -146z" />
    <glyph glyph-name="threequarters" unicode="&#xbe;" horiz-adv-x="940" 
d="M32 342l62 89q1 1 2.5 3.5t6 6.5t9 6t11 -0.5t12.5 -10.5q35 -46 83 -46q36 0 39 24q2 12 -4.5 17t-28.5 5h-72q-11 0 -17.5 8t-4.5 17l9 61q2 11 10 18l58 49h-96q-11 0 -17.5 8t-4.5 17l13 85q1 11 10 18t18 7h295q11 0 17.5 -8t4.5 -17l-10 -67q-2 -11 -10 -18
l-80 -67q42 -15 64 -49.5t15 -82.5q-10 -72 -71.5 -117t-146.5 -45q-107 0 -174 57q-15 13 -2 32zM87 338q53 -35 129 -35q68 0 110.5 31.5t49.5 80.5q10 75 -71 89l-20 4q-21 4 -22.5 15t7.5 19l9 9l110 92l4 31h-245l-5 -35h132q22 0 24.5 -10.5t-5.5 -21.5l-8 -11
l-98 -85l-4 -25h47q37 0 59 -19t17 -53t-32.5 -54t-63.5 -20q-55 0 -96 38zM109 15l601 701q9 10 22 10h162h5t9.5 -2.5t9.5 -6t1.5 -12t-11.5 -19.5l-601 -701q-9 -10 -22 -10h-162h-5t-9.5 2.5t-9.5 6t-1.5 12t11.5 19.5zM179 25h101l558 651h-101zM537 87l11 79q2 7 5 12
l170 251q10 13 24 13h117q0 -1 4.5 0t9.5 -1t9 -5t3 -11t-9 -19l-80 -121h109q11 0 17 -8t4 -17l-9 -64h33q11 0 17.5 -8t4.5 -17l-12 -84q-1 -11 -10.5 -18t-18.5 -7h-33l-9 -62q-1 -11 -10.5 -18t-18.5 -7h-113q-11 0 -17 8t-4 17l9 62h-182q-11 0 -17 8t-4 17zM590 112
h182q9 0 16 -7t6 -18l-9 -62h63l9 62q2 9 9.5 17t18.5 8h33l5 34h-33q-9 0 -15.5 7t-5.5 18l9 64h-63l-9 -64q-2 -9 -10 -17t-19 -8h-83q-20 0 -24.5 9t1.5 18l6 9l138 210h-61l-157 -232zM742 196h17l5 33z" />
    <glyph glyph-name="questiondown" unicode="&#xbf;" horiz-adv-x="472" 
d="M1 10q7 48 28.5 87t48 64t52 46t44.5 44.5t23 48.5q1 11 10.5 18t18.5 7h129q11 0 17 -8t4 -17q-7 -48 -25.5 -86t-40 -61t-42.5 -41.5t-36 -37t-18 -37.5q-3 -22 6 -30.5t37 -8.5t42.5 14t20.5 53q1 10 10 17t19 7l133 -1q10 0 16.5 -7t4.5 -18q-19 -116 -96.5 -184
t-192.5 -68q-109 0 -168 52.5t-45 146.5zM51 10q-11 -72 33 -110.5t137 -38.5q90 0 148.5 45.5t78.5 131.5l-84 1q-13 -43 -43 -67t-71 -24q-43 0 -67.5 23.5t-18.5 65.5q5 32 20 58.5t34.5 45t39.5 36.5t37.5 43t25.5 55h-79q-13 -42 -43.5 -77t-60 -56t-55.5 -55.5
t-32 -76.5zM204 463q7 47 42 78t82 31q46 0 73 -31t20 -78q-7 -46 -42.5 -77t-81.5 -31q-47 0 -73.5 30.5t-19.5 77.5zM254 463q-4 -26 9.5 -42t40.5 -16t45 15.5t22 42.5q4 28 -10 43.5t-40 15.5q-27 0 -45 -15.5t-22 -43.5z" />
    <glyph glyph-name="Agrave" unicode="&#xc0;" horiz-adv-x="770" 
d="M-27 10l403 700q8 15 25 15h183q17 0 21 -15l194 -700q2 -4 3 -10t-5.5 -15.5t-25.5 -9.5h-190q-17 0 -21 16l-27 113h-272l-61 -113q-8 -16 -26 -16h-183q0 1 -4 0t-9 1t-8.5 5t-3 10.5t6.5 18.5zM37 25h128l61 113q9 16 25 16h306q18 0 21 -16l28 -113h135l-180 650
h-150zM297 273l139 259q11 20 22.5 20t17.5 -10l7 -10l63 -259q4 -16 -3 -24.5t-17 -8.5l-9 -1h-202q-18 0 -22.5 8.5t-0.5 16.5zM318 855l-3 3t-5 7.5t-3 11t6 11.5t19 10l164 55q20 7 28 -11l82 -168v-1q1 -1 2 -3.5t1.5 -5t1 -6t-0.5 -6.5t-3 -6t-5.5 -5t-9 -3.5
t-13.5 -1.5h-132q-9 0 -15 6zM359 289h129l-40 165zM384 865l80 -79h77l-55 113z" />
    <glyph glyph-name="Aacute" unicode="&#xc1;" horiz-adv-x="770" 
d="M-27 10l403 700q8 15 25 15h183q17 0 21 -15l194 -700q2 -4 3 -10t-5.5 -15.5t-25.5 -9.5h-190q-17 0 -21 16l-27 113h-272l-61 -113q-8 -16 -26 -16h-183q0 1 -4 0t-9 1t-8.5 5t-3 10.5t6.5 18.5zM37 25h128l61 113q9 16 25 16h306q18 0 21 -16l28 -113h135l-180 650
h-150zM297 273l139 259q11 20 22.5 20t17.5 -10l7 -10l63 -259q4 -16 -3 -24.5t-17 -8.5l-9 -1h-202q-18 0 -22.5 8.5t-0.5 16.5zM359 289h129l-40 165zM389 774l131 168q14 18 31 11l148 -55q2 0 4.5 -1t7.5 -5t7 -8.5t-2 -12t-15 -16.5l-147 -113q-8 -6 -17 -6h-132h-5
t-9.5 1.5t-9.5 5t-2 12t10 19.5zM458 786h77l102 79l-92 34z" />
    <glyph glyph-name="Acircumflex" unicode="&#xc2;" horiz-adv-x="770" 
d="M-27 10l403 700q8 15 25 15h183q17 0 21 -15l194 -700q2 -4 3 -10t-5.5 -15.5t-25.5 -9.5h-190q-17 0 -21 16l-27 113h-272l-61 -113q-8 -16 -26 -16h-183q0 1 -4 0t-9 1t-8.5 5t-3 10.5t6.5 18.5zM37 25h128l61 113q9 16 25 16h306q18 0 21 -16l28 -113h135l-180 650
h-150zM296 786l135 151q10 10 21 10h138q13 0 19 -10l91 -151q1 -2 2 -4.5t2.5 -9.5t0 -12t-9 -9.5t-21.5 -4.5h-124q-14 0 -19 11l-29 55l-45 -55q-9 -11 -23 -11h-124q-2 0 -5 0.5t-9.5 2.5t-10 6t-1.5 12t12 19zM297 273l139 259q11 20 22.5 20t17.5 -10l7 -10l63 -259
q4 -16 -3 -24.5t-17 -8.5l-9 -1h-202q-18 0 -22.5 8.5t-0.5 16.5zM359 289h129l-40 165zM368 796h60l62 74q12 15 22 15t14 -7l5 -8l40 -74h61l-61 101h-113z" />
    <glyph glyph-name="Atilde" unicode="&#xc3;" horiz-adv-x="770" 
d="M-27 10l403 700q8 15 25 15h183q17 0 21 -15l194 -700q2 -4 3 -10t-5.5 -15.5t-25.5 -9.5h-190q-17 0 -21 16l-27 113h-272l-61 -113q-8 -16 -26 -16h-183q0 1 -4 0t-9 1t-8.5 5t-3 10.5t6.5 18.5zM37 25h128l61 113q9 16 25 16h306q18 0 21 -16l28 -113h135l-180 650
h-150zM295 782q12 85 51.5 133t104.5 48q20 0 38 -5t30 -11.5t21 -13.5t14 -12l5 -5h3q2 2 5 17q1 11 10.5 18t18.5 7h105q11 0 17 -8t4 -17q-12 -85 -50.5 -132.5t-103.5 -47.5q-20 0 -38.5 5t-31 11.5t-21.5 13.5t-14 12l-5 5h-2q-2 -2 -5 -18q-1 -11 -10.5 -18t-18.5 -7
h-106q-11 0 -17 8t-4 17zM297 273l139 259q11 20 22.5 20t17.5 -10l7 -10l63 -259q4 -16 -3 -24.5t-17 -8.5l-9 -1h-202q-18 0 -22.5 8.5t-0.5 16.5zM349 807h58q8 23 26 34q15 9 32 9q28 0 57 -23.5t53 -23.5q37 0 59 23t34 82h-57q-9 -22 -24 -32q-14 -10 -35 -10
q-28 0 -56.5 23.5t-51.5 23.5q-37 0 -60 -23.5t-35 -82.5zM359 289h129l-40 165z" />
    <glyph glyph-name="Adieresis" unicode="&#xc4;" horiz-adv-x="770" 
d="M-27 10l403 700q8 15 25 15h183q17 0 21 -15l194 -700q2 -4 3 -10t-5.5 -15.5t-25.5 -9.5h-190q-17 0 -21 16l-27 113h-272l-61 -113q-8 -16 -26 -16h-183q0 1 -4 0t-9 1t-8.5 5t-3 10.5t6.5 18.5zM37 25h128l61 113q9 16 25 16h306q18 0 21 -16l28 -113h135l-180 650
h-150zM297 273l139 259q11 20 22.5 20t17.5 -10l7 -10l63 -259q4 -16 -3 -24.5t-17 -8.5l-9 -1h-202q-18 0 -22.5 8.5t-0.5 16.5zM309 852q7 44 40.5 73.5t77.5 29.5t69.5 -29.5t18.5 -73.5q-6 -44 -40 -73t-78 -29t-69 29t-19 73zM359 289h129l-40 165zM359 852
q-4 -23 8.5 -37.5t36.5 -14.5t40.5 14.5t20.5 37.5q4 24 -9 38.5t-37 14.5t-40 -14t-20 -39zM502 852q7 44 40.5 73.5t77.5 29.5t69.5 -29.5t18.5 -73.5q-6 -44 -40 -73t-78 -29t-69 29t-19 73zM552 852q-4 -23 8.5 -37.5t36.5 -14.5t40.5 14.5t20.5 37.5q4 24 -9 38.5
t-37 14.5t-40 -14t-20 -39z" />
    <glyph glyph-name="Aring" unicode="&#xc5;" horiz-adv-x="770" 
d="M-27 10l386 671q-21 38 -13 87q9 63 60 107.5t115 44.5t102.5 -44.5t29.5 -107.5q-8 -48 -40 -87l186 -671q2 -4 3 -10t-5.5 -15.5t-25.5 -9.5h-190q-17 0 -21 16l-27 113h-272l-61 -113q-8 -16 -26 -16h-183q0 1 -4 0t-9 1t-8.5 5t-3 10.5t6.5 18.5zM37 25h128l61 113
q9 16 25 16h306q18 0 21 -16l28 -113h135l-181 650q-4 14 9 27q28 26 34 66q6 42 -20.5 72t-69.5 30t-77 -30t-40 -72q-6 -39 14 -67q8 -11 0 -26zM297 273l139 259q11 20 22.5 20t17.5 -10l7 -10l63 -259q4 -16 -3 -24.5t-17 -8.5l-9 -1h-202q-18 0 -22.5 8.5t-0.5 16.5z
M359 289h129l-40 165zM420 768q4 33 30.5 56t59.5 23t53 -23t16 -56t-31.5 -56t-60.5 -23t-52.5 23t-14.5 56zM470 768q-2 -12 5 -20.5t19 -8.5q13 0 23 8.5t12 20.5t-5.5 20.5t-20.5 8.5q-12 0 -22 -8.5t-11 -20.5z" />
    <glyph glyph-name="AE" unicode="&#xc6;" horiz-adv-x="1102" 
d="M-25 12l499 700q10 13 23 13h98l8 1h548q11 0 17 -8t4 -17l-20 -141q-1 -11 -10.5 -18t-18.5 -7h-346l-13 -89h310q11 0 17.5 -8t4.5 -17l-20 -139q-1 -11 -10.5 -18t-18.5 -7h-310l-13 -92h357q11 0 17 -8t4 -17l-20 -140q-1 -11 -10.5 -18t-18.5 -7h-559q-11 0 -17 8
t-4 17l18 123h-200l-91 -135q-10 -13 -24 -13h-185q0 1 -4.5 0t-9.5 1t-9 5t-2.5 11.5t9.5 19.5zM42 25h127l90 135q9 13 24 13h240q9 0 15.5 -7t5.5 -18l-17 -123h509l13 90h-357q-9 0 -16 7t-6 18l21 142q2 9 9.5 17t18.5 8h310l13 89h-310q-9 0 -15.5 7t-5.5 18l20 139
q2 9 9.5 17t18.5 8h346l13 91h-515h-3q-4 -1 -5 -1h-90zM345 288l194 288q9 13 24 13h20q9 0 15.5 -7t5.5 -18l-41 -288q-2 -9 -10 -17t-19 -8h-172q-20 0 -24.5 9.5t1.5 18.5zM411 301h105l29 200z" />
    <glyph glyph-name="Ccedilla" unicode="&#xc7;" horiz-adv-x="692" 
d="M50 352q23 162 153.5 270.5t299.5 108.5q83 0 158.5 -34t123.5 -92q14 -16 -3 -33l-121 -122q-23 -23 -38 0q-26 38 -65.5 60t-79.5 22q-73 0 -129 -51t-67 -127q-11 -78 30.5 -129.5t113.5 -51.5q38 0 84.5 20t84.5 54q22 18 36 0l88 -110q14 -17 -5 -34
q-55 -50 -123.5 -84t-136.5 -46l-8 -11q54 -30 45 -94q-9 -58 -56.5 -93t-111.5 -35q-58 0 -104 35q-16 13 -5 31l43 71q1 1 2 3.5t5 7t8.5 6.5t11 0t13.5 -9q11 -13 31 -13q16 0 18 12q0 1 0.5 2t-0.5 3t-3 3t-6 2t-10 1q-9 0 -33 -4h-11h-3.5t-7 1.5t-6.5 5t-1 11t8 18.5
l30 48q-132 27 -202.5 131.5t-50.5 245.5zM100 352q-19 -132 51 -224.5t199 -107.5q17 -2 20.5 -11t-1.5 -17l-5 -8l-24 -39q27 -2 43.5 -18.5t12.5 -42.5t-26 -44t-50 -18q-20 0 -36 8l-15 -24q30 -16 61 -16q47 0 76.5 21.5t34.5 56.5q6 44 -41 57q-29 8 -11 35l31 47
q8 13 20 14q120 17 223 100l-59 74q-95 -72 -185 -72q-94 0 -147.5 67t-39.5 164q14 96 86.5 162t166.5 66q96 0 164 -78l81 82q-43 44 -105.5 69.5t-128.5 25.5q-150 0 -263 -94t-133 -235z" />
    <glyph glyph-name="Egrave" unicode="&#xc8;" horiz-adv-x="674" 
d="M45 0l101 700q1 11 10 18t18 7h548q11 0 17.5 -8t4.5 -17l-20 -140q-1 -11 -10.5 -18t-18.5 -7h-345l-13 -89h309q11 0 17.5 -8t4.5 -17l-21 -140q-1 -11 -10 -18t-18 -7h-309l-13 -91h356q11 0 17 -8t4 -17l-20 -140q-1 -11 -10.5 -18t-18.5 -7h-559q-11 0 -17 8t-4 17z
M99 25h509l13 90h-356q-9 0 -16 7t-6 18l20 141q2 9 10 17t19 8h309l13 90h-309q-9 0 -15.5 7t-5.5 18l20 139q2 9 10 17t18 8h345l13 90h-498zM279 855l-3 3t-5 7.5t-3 11t6 11.5t19 10l164 55q20 7 28 -11l82 -168l1 -1q0 -1 1 -3.5t1.5 -5t1 -6t-0.5 -6.5t-3 -6t-5.5 -5
t-9 -3.5t-13.5 -1.5h-132q-9 0 -15 6zM345 865l80 -79h77l-55 113z" />
    <glyph glyph-name="Eacute" unicode="&#xc9;" horiz-adv-x="674" 
d="M45 0l101 700q1 11 10 18t18 7h548q11 0 17.5 -8t4.5 -17l-20 -140q-1 -11 -10.5 -18t-18.5 -7h-345l-13 -89h309q11 0 17.5 -8t4.5 -17l-21 -140q-1 -11 -10 -18t-18 -7h-309l-13 -91h356q11 0 17 -8t4 -17l-20 -140q-1 -11 -10.5 -18t-18.5 -7h-559q-11 0 -17 8t-4 17z
M99 25h509l13 90h-356q-9 0 -16 7t-6 18l20 141q2 9 10 17t19 8h309l13 90h-309q-9 0 -15.5 7t-5.5 18l20 139q2 9 10 17t18 8h345l13 90h-498zM350 774l131 168q14 18 31 11l148 -55q2 0 4.5 -1t7.5 -5t7 -8.5t-2 -12t-15 -16.5l-147 -113q-7 -6 -17 -6h-132h-5t-9.5 1.5
t-9.5 5t-2 12t10 19.5zM419 786h77l102 79l-92 34z" />
    <glyph glyph-name="Ecircumflex" unicode="&#xca;" horiz-adv-x="674" 
d="M45 0l101 700q1 11 10 18t18 7h548q11 0 17.5 -8t4.5 -17l-20 -140q-1 -11 -10.5 -18t-18.5 -7h-345l-13 -89h309q11 0 17.5 -8t4.5 -17l-21 -140q-1 -11 -10 -18t-18 -7h-309l-13 -91h356q11 0 17 -8t4 -17l-20 -140q-1 -11 -10.5 -18t-18.5 -7h-559q-11 0 -17 8t-4 17z
M99 25h509l13 90h-356q-9 0 -16 7t-6 18l20 141q2 9 10 17t19 8h309l13 90h-309q-9 0 -15.5 7t-5.5 18l20 139q2 9 10 17t18 8h345l13 90h-498zM257 786l135 151q10 10 21 10h138q13 0 19 -10l91 -151q1 -2 2.5 -4.5t3 -9.5t0 -12t-9 -9.5t-21.5 -4.5h-124q-14 0 -20 11
l-29 55l-45 -55q-9 -11 -22 -11h-124q-2 0 -5 0.5t-10 2.5t-10 6t-1.5 12t11.5 19zM329 796h60l62 74q8 9 15 12.5t11.5 2t8 -5t4.5 -6.5l2 -3l40 -74h61l-61 101h-113z" />
    <glyph glyph-name="Edieresis" unicode="&#xcb;" horiz-adv-x="674" 
d="M45 0l101 700q1 11 10 18t18 7h548q11 0 17.5 -8t4.5 -17l-20 -140q-1 -11 -10.5 -18t-18.5 -7h-345l-13 -89h309q11 0 17.5 -8t4.5 -17l-21 -140q-1 -11 -10 -18t-18 -7h-309l-13 -91h356q11 0 17 -8t4 -17l-20 -140q-1 -11 -10.5 -18t-18.5 -7h-559q-11 0 -17 8t-4 17z
M99 25h509l13 90h-356q-9 0 -16 7t-6 18l20 141q2 9 10 17t19 8h309l13 90h-309q-9 0 -15.5 7t-5.5 18l20 139q2 9 10 17t18 8h345l13 90h-498zM270 852q7 44 40.5 73.5t77.5 29.5t69.5 -29.5t18.5 -73.5q-6 -44 -40 -73t-78 -29t-69 29t-19 73zM320 852q-4 -23 8.5 -37.5
t36.5 -14.5t40.5 14.5t20.5 37.5q4 24 -9 38.5t-37 14.5t-40 -14t-20 -39zM463 852q7 44 40.5 73.5t77.5 29.5t69.5 -29.5t18.5 -73.5q-6 -44 -40 -73t-78 -29t-69 29t-19 73zM513 852q-4 -23 8.5 -37.5t36.5 -14.5t40.5 14.5t20.5 37.5q4 24 -9 38.5t-37 14.5t-40 -14
t-20 -39z" />
    <glyph glyph-name="Igrave" unicode="&#xcc;" horiz-adv-x="318" 
d="M45 0l101 700q1 11 10 18t18 7h178q11 0 17.5 -8t4.5 -17l-101 -700q-1 -11 -10.5 -18t-18.5 -7h-178q-11 0 -17 8t-4 17zM92 855l-3 3t-5 7.5t-3 11t6 11.5t19 10l164 55q20 7 28 -11l82 -168v-1q1 -1 2 -3.5t1.5 -5t1 -6t-0.5 -6.5t-3 -6t-5.5 -5t-9 -3.5t-13.5 -1.5
h-132q-9 0 -15 6zM99 25h128l93 650h-128zM158 865l80 -79h77l-55 113z" />
    <glyph glyph-name="Iacute" unicode="&#xcd;" horiz-adv-x="318" 
d="M45 0l101 700q1 11 10 18t18 7h178q11 0 17.5 -8t4.5 -17l-101 -700q-1 -11 -10.5 -18t-18.5 -7h-178q-11 0 -17 8t-4 17zM99 25h128l93 650h-128zM162 774l131 168q14 18 31 11l148 -55q2 0 4.5 -1t7.5 -5t7 -8.5t-2 -12t-15 -16.5l-147 -113q-7 -6 -17 -6h-132h-5
t-9.5 1.5t-9.5 5t-2 12t10 19.5zM231 786h77l102 79l-92 34z" />
    <glyph glyph-name="Icircumflex" unicode="&#xce;" horiz-adv-x="318" 
d="M45 0l101 700q1 11 10 18t18 7h178q11 0 17.5 -8t4.5 -17l-101 -700q-1 -11 -10.5 -18t-18.5 -7h-178q-11 0 -17 8t-4 17zM70 786l135 151q10 10 21 10h138q13 0 19 -10l91 -151q1 -2 2 -4.5t2.5 -9.5t0 -12t-9 -9.5t-21.5 -4.5h-124q-14 0 -19 11l-29 55l-45 -55
q-9 -11 -23 -11h-124q-2 0 -5 0.5t-9.5 2.5t-10 6t-1.5 12t12 19zM99 25h128l93 650h-128zM142 796h60l62 74q12 15 22 15t14 -7l5 -8l40 -74h61l-61 101h-113z" />
    <glyph glyph-name="Idieresis" unicode="&#xcf;" horiz-adv-x="318" 
d="M45 0l101 700q1 11 10 18t18 7h178q11 0 17.5 -8t4.5 -17l-101 -700q-1 -11 -10.5 -18t-18.5 -7h-178q-11 0 -17 8t-4 17zM83 852q7 44 40.5 73.5t77.5 29.5t69.5 -29.5t18.5 -73.5q-6 -44 -40 -73t-78 -29t-69 29t-19 73zM99 25h128l93 650h-128zM133 852
q-4 -23 8.5 -37.5t36.5 -14.5t40.5 14.5t20.5 37.5q4 24 -9 38.5t-37 14.5t-40 -14t-20 -39zM276 852q7 44 40.5 73.5t77.5 29.5t69.5 -29.5t18.5 -73.5q-6 -44 -40 -73t-78 -29t-69 29t-19 73zM326 852q-4 -23 8.5 -37.5t36.5 -14.5t40.5 14.5t20.5 37.5q4 24 -9 38.5
t-37 14.5t-40 -14t-20 -39z" />
    <glyph glyph-name="Eth" unicode="&#xd0;" horiz-adv-x="799" 
d="M19 304l13 94q1 11 10.5 18t18.5 7h77l40 277q1 11 10 18t18 7h301q175 0 271 -104.5t72 -270.5t-152 -270.5t-306 -104.5h-294q-11 0 -17 8t-4 17l40 279h-77q-11 0 -17 8t-4 17zM72 329h77q9 0 16 -7t6 -18l-40 -279h269q159 0 269 90t131 235q21 146 -61.5 235.5
t-238.5 89.5h-276l-40 -277q-2 -9 -10 -17t-18 -8h-77zM274 142l24 162q2 9 10 17t18 8h134l7 44h-134q-9 0 -16 7t-6 18l23 160q2 9 10 17t19 8h120q95 0 148 -66t38 -168q-14 -101 -83 -166.5t-162 -65.5h-128q-9 0 -16 7t-6 18zM328 167h103q72 0 124 49.5t64 132.5
t-28 133.5t-115 50.5h-95l-16 -110h134q11 0 17 -8t4 -17l-13 -94q-1 -11 -10.5 -18t-18.5 -7h-134z" />
    <glyph glyph-name="Ntilde" unicode="&#xd1;" horiz-adv-x="786" 
d="M45 0l101 700q1 11 10 18t18 7h157q13 0 19 -10l224 -372l52 357q1 11 10 18t18 7h166q11 0 17.5 -8t4.5 -17l-101 -700q-1 -11 -10.5 -18t-18.5 -7h-157q-12 0 -18 10l-224 371l-51 -356q-1 -11 -10.5 -18t-18.5 -7h-167q-11 0 -17 8t-4 17zM99 25h117l58 406
q3 20 15 24t22 -3l10 -6l254 -421h120l93 650h-116l-58 -407q-3 -20 -15 -24t-23 2l-10 7l-254 422h-120zM303 782q12 85 51.5 133t104.5 48q20 0 38 -5t30 -11.5t21 -13.5t14 -12l5 -5h3q2 2 5 17q1 11 10.5 18t18.5 7h105q11 0 17 -8t4 -17q-12 -85 -50.5 -132.5
t-103.5 -47.5q-20 0 -38.5 5t-31 11.5t-21.5 13.5t-14 12l-5 5h-2q-2 -2 -5 -18q-1 -11 -10.5 -18t-18.5 -7h-106q-11 0 -17 8t-4 17zM357 807h58q8 23 26 34q15 9 32 9q28 0 57 -23.5t53 -23.5q37 0 59 23t34 82h-57q-9 -22 -24 -32q-14 -10 -35 -10q-28 0 -56.5 23.5
t-51.5 23.5q-37 0 -60 -23.5t-35 -82.5z" />
    <glyph glyph-name="Ograve" unicode="&#xd2;" horiz-adv-x="805" 
d="M50 351q24 164 154.5 272t302.5 108t272.5 -108.5t77.5 -271.5q-23 -164 -155.5 -274t-304.5 -110q-171 0 -271 109.5t-76 274.5zM100 351q-20 -143 66 -238.5t238 -95.5q153 0 268 96t135 238t-67 236t-240 94t-266.5 -94t-133.5 -236zM231 350q14 98 89.5 165t167.5 67
t145.5 -67t39.5 -165t-87 -166t-165 -68t-148 68t-42 166zM281 350q-11 -78 33 -131t114 -53q71 0 127.5 52.5t67.5 131.5t-30 130.5t-112 51.5q-72 0 -130.5 -52t-69.5 -130zM328 855l-3 3t-5 7.5t-3 11t6 11.5t19 10l164 55q20 7 28 -11l82 -168v-1q1 -1 2 -3.5t1.5 -5
t1 -6t-0.5 -6.5t-3 -6t-5.5 -5t-9 -3.5t-13.5 -1.5h-132q-9 0 -15 6zM394 865l80 -79h77l-55 113z" />
    <glyph glyph-name="Oacute" unicode="&#xd3;" horiz-adv-x="805" 
d="M50 351q24 164 154.5 272t302.5 108t272.5 -108.5t77.5 -271.5q-23 -164 -155.5 -274t-304.5 -110q-171 0 -271 109.5t-76 274.5zM100 351q-20 -143 66 -238.5t238 -95.5q153 0 268 96t135 238t-67 236t-240 94t-266.5 -94t-133.5 -236zM231 350q14 98 89.5 165t167.5 67
t145.5 -67t39.5 -165t-87 -166t-165 -68t-148 68t-42 166zM281 350q-11 -78 33 -131t114 -53q71 0 127.5 52.5t67.5 131.5t-30 130.5t-112 51.5q-72 0 -130.5 -52t-69.5 -130zM398 774l131 168q14 18 31 11l148 -55q2 0 4.5 -1t7.5 -5t7 -8.5t-2 -12t-15 -16.5l-147 -113
q-7 -6 -17 -6h-132h-5t-9.5 1.5t-9.5 5t-2 12t10 19.5zM467 786h77l102 79l-92 34z" />
    <glyph glyph-name="Ocircumflex" unicode="&#xd4;" horiz-adv-x="805" 
d="M50 351q24 164 154.5 272t302.5 108t272.5 -108.5t77.5 -271.5q-23 -164 -155.5 -274t-304.5 -110q-171 0 -271 109.5t-76 274.5zM100 351q-20 -143 66 -238.5t238 -95.5q153 0 268 96t135 238t-67 236t-240 94t-266.5 -94t-133.5 -236zM231 350q14 98 89.5 165t167.5 67
t145.5 -67t39.5 -165t-87 -166t-165 -68t-148 68t-42 166zM281 350q-11 -78 33 -131t114 -53q71 0 127.5 52.5t67.5 131.5t-30 130.5t-112 51.5q-72 0 -130.5 -52t-69.5 -130zM306 786l135 151q10 10 21 10h138q13 0 19 -10l91 -151q1 -2 2 -4.5t2.5 -9.5t0 -12t-9 -9.5
t-21.5 -4.5h-124q-14 0 -19 11l-29 55l-45 -55q-9 -11 -23 -11h-124q-2 0 -5 0.5t-9.5 2.5t-10 6t-1.5 12t12 19zM378 796h60l62 74q12 15 22 15t14 -7l5 -8l40 -74h61l-61 101h-113z" />
    <glyph glyph-name="Otilde" unicode="&#xd5;" horiz-adv-x="805" 
d="M50 351q24 164 154.5 272t302.5 108t272.5 -108.5t77.5 -271.5q-23 -164 -155.5 -274t-304.5 -110q-171 0 -271 109.5t-76 274.5zM100 351q-20 -143 66 -238.5t238 -95.5q153 0 268 96t135 238t-67 236t-240 94t-266.5 -94t-133.5 -236zM231 350q14 98 89.5 165t167.5 67
t145.5 -67t39.5 -165t-87 -166t-165 -68t-148 68t-42 166zM281 350q-11 -78 33 -131t114 -53q71 0 127.5 52.5t67.5 131.5t-30 130.5t-112 51.5q-72 0 -130.5 -52t-69.5 -130zM305 782q12 85 51.5 133t104.5 48q20 0 38 -5t30 -11.5t21 -13.5t14 -12l5 -5h3q2 2 5 17
q1 11 10.5 18t18.5 7h105q11 0 17 -8t4 -17q-12 -85 -50.5 -132.5t-103.5 -47.5q-20 0 -38.5 5t-31 11.5t-21.5 13.5t-14 12l-5 5h-2q-2 -2 -5 -18q-1 -11 -10.5 -18t-18.5 -7h-106q-11 0 -17 8t-4 17zM359 807h58q8 23 26 34q15 9 32 9q28 0 57 -23.5t53 -23.5q37 0 59 23
t34 82h-57q-9 -22 -24 -32q-14 -10 -35 -10q-28 0 -56.5 23.5t-51.5 23.5q-37 0 -60 -23.5t-35 -82.5z" />
    <glyph glyph-name="Odieresis" unicode="&#xd6;" horiz-adv-x="805" 
d="M50 351q24 164 154.5 272t302.5 108t272.5 -108.5t77.5 -271.5q-23 -164 -155.5 -274t-304.5 -110q-171 0 -271 109.5t-76 274.5zM100 351q-20 -143 66 -238.5t238 -95.5q153 0 268 96t135 238t-67 236t-240 94t-266.5 -94t-133.5 -236zM231 350q14 98 89.5 165t167.5 67
t145.5 -67t39.5 -165t-87 -166t-165 -68t-148 68t-42 166zM281 350q-11 -78 33 -131t114 -53q71 0 127.5 52.5t67.5 131.5t-30 130.5t-112 51.5q-72 0 -130.5 -52t-69.5 -130zM319 852q7 44 40.5 73.5t77.5 29.5t69.5 -29.5t18.5 -73.5q-6 -44 -40 -73t-78 -29t-69 29
t-19 73zM369 852q-4 -23 8.5 -37.5t36.5 -14.5t40.5 14.5t20.5 37.5q4 24 -9 38.5t-37 14.5t-40 -14t-20 -39zM512 852q7 44 40.5 73.5t77.5 29.5t69.5 -29.5t18.5 -73.5q-6 -44 -40 -73t-78 -29t-69 29t-19 73zM562 852q-4 -23 8.5 -37.5t36.5 -14.5t40.5 14.5t20.5 37.5
q4 24 -9 38.5t-37 14.5t-40 -14t-20 -39z" />
    <glyph glyph-name="multiply" unicode="&#xd7;" horiz-adv-x="510" 
d="M69 190q-6 9 -4 19.5t9 16.5l116 101l-87 100q-6 7 -4.5 18t9.5 18l88 77q20 17 35 0l87 -101l115 101q9 8 19.5 7.5t15.5 -7.5l66 -77q6 -9 4 -19.5t-9 -16.5l-115 -100l86 -101q6 -8 4.5 -18.5t-9.5 -17.5l-88 -77q-8 -7 -18.5 -7t-16.5 7l-86 102l-116 -102
q-9 -8 -19.5 -7.5t-15.5 7.5zM124 208l36 -42l116 102q8 8 18.5 8t16.5 -8l86 -102l48 42l-86 101q-6 6 -5 17.5t10 18.5l115 100l-36 42l-115 -101q-19 -17 -35 0l-87 101l-47 -42l86 -100q6 -7 4.5 -18t-9.5 -18z" />
    <glyph glyph-name="Oslash" unicode="&#xd8;" horiz-adv-x="805" 
d="M50 351q24 164 154.5 272t302.5 108q14 0 40 -2l43 88q8 17 26 17h100q4 0 9 -0.5t13 -7.5t-3 -25l-53 -107q97 -46 144 -137t31 -206q-23 -164 -155.5 -274t-304.5 -110q-38 0 -71 6l-47 -94q-9 -17 -26 -17h-100q-4 0 -9 0.5t-13 7.5t3 25l62 125q-83 50 -122.5 137
t-23.5 194zM100 351q-14 -99 24.5 -177t118.5 -119q8 -4 10 -13t-2 -18l-55 -112h47l48 97q4 8 13 13t18 3q33 -8 82 -8q153 0 268 96t135 238q16 105 -30.5 187t-139.5 119q-20 8 -10 31l47 96h-47l-44 -90q-10 -20 -30 -17q-23 4 -53 4q-153 0 -266.5 -94t-133.5 -236z
M231 350q14 98 89.5 165t167.5 67h4q17 0 22 -8t1 -16l-4 -9l-182 -369q-8 -17 -18.5 -19.5t-16.5 3.5l-7 5q-72 72 -56 181zM281 350q-9 -66 22 -115l145 294q-62 -12 -109.5 -61.5t-57.5 -117.5zM362 153l191 387q14 28 38 14q47 -30 69.5 -84.5t12.5 -119.5
q-14 -98 -87 -166t-165 -68q-17 0 -43 4q-28 4 -16 33zM422 166h6q71 0 127.5 52.5t67.5 131.5q13 89 -40 142z" />
    <glyph glyph-name="Ugrave" unicode="&#xd9;" horiz-adv-x="758" 
d="M75 294l59 406q1 11 10 18t18 7h178q11 0 17.5 -8t4.5 -17l-59 -406q-9 -61 19.5 -94.5t83.5 -33.5q54 0 89.5 33t44.5 95l59 406q1 11 10 18t18 7h177q11 0 17.5 -8t4.5 -17l-59 -406q-22 -149 -128.5 -238t-262.5 -89q-157 0 -240 89t-61 238zM125 294
q-19 -129 50 -203t208 -74q137 0 226 74t108 203l55 381h-127l-55 -381q-11 -79 -64 -128.5t-127 -49.5t-115.5 49.5t-30.5 128.5l55 381h-128zM312 855l-3 3t-5 7.5t-3 11t6 11.5t19 10l164 55q20 7 28 -11l82 -168v-1q1 -1 2 -3.5t1.5 -5t1 -6t-0.5 -6.5t-3 -6t-5.5 -5
t-9 -3.5t-13.5 -1.5h-132q-9 0 -15 6zM378 865l80 -79h77l-55 113z" />
    <glyph glyph-name="Uacute" unicode="&#xda;" horiz-adv-x="758" 
d="M75 294l59 406q1 11 10 18t18 7h178q11 0 17.5 -8t4.5 -17l-59 -406q-9 -61 19.5 -94.5t83.5 -33.5q54 0 89.5 33t44.5 95l59 406q1 11 10 18t18 7h177q11 0 17.5 -8t4.5 -17l-59 -406q-22 -149 -128.5 -238t-262.5 -89q-157 0 -240 89t-61 238zM125 294
q-19 -129 50 -203t208 -74q137 0 226 74t108 203l55 381h-127l-55 -381q-11 -79 -64 -128.5t-127 -49.5t-115.5 49.5t-30.5 128.5l55 381h-128zM383 774l131 168q14 18 31 11l148 -55q2 0 4.5 -1t7.5 -5t7 -8.5t-2 -12t-15 -16.5l-147 -113q-8 -6 -17 -6h-132h-5t-9.5 1.5
t-9.5 5t-2 12t10 19.5zM452 786h77l102 79l-92 34z" />
    <glyph glyph-name="Ucircumflex" unicode="&#xdb;" horiz-adv-x="758" 
d="M75 294l59 406q1 11 10 18t18 7h178q11 0 17.5 -8t4.5 -17l-59 -406q-9 -61 19.5 -94.5t83.5 -33.5q54 0 89.5 33t44.5 95l59 406q1 11 10 18t18 7h177q11 0 17.5 -8t4.5 -17l-59 -406q-22 -149 -128.5 -238t-262.5 -89q-157 0 -240 89t-61 238zM125 294
q-19 -129 50 -203t208 -74q137 0 226 74t108 203l55 381h-127l-55 -381q-11 -79 -64 -128.5t-127 -49.5t-115.5 49.5t-30.5 128.5l55 381h-128zM291 786l135 151q10 10 21 10h138q13 0 19 -10l91 -151q1 -2 2.5 -4.5t3 -9.5t0 -12t-9 -9.5t-21.5 -4.5h-124q-14 0 -20 11
l-29 55l-45 -55q-9 -11 -22 -11h-124q-2 0 -5 0.5t-10 2.5t-10 6t-1.5 12t11.5 19zM363 796h60l62 74q8 9 15 12.5t11.5 2t8 -5t4.5 -6.5l2 -3l40 -74h61l-61 101h-113z" />
    <glyph glyph-name="Udieresis" unicode="&#xdc;" horiz-adv-x="758" 
d="M75 294l59 406q1 11 10 18t18 7h178q11 0 17.5 -8t4.5 -17l-59 -406q-9 -61 19.5 -94.5t83.5 -33.5q54 0 89.5 33t44.5 95l59 406q1 11 10 18t18 7h177q11 0 17.5 -8t4.5 -17l-59 -406q-22 -149 -128.5 -238t-262.5 -89q-157 0 -240 89t-61 238zM125 294
q-19 -129 50 -203t208 -74q137 0 226 74t108 203l55 381h-127l-55 -381q-11 -79 -64 -128.5t-127 -49.5t-115.5 49.5t-30.5 128.5l55 381h-128zM304 852q7 44 40.5 73.5t77.5 29.5t69.5 -29.5t18.5 -73.5q-6 -44 -40 -73t-78 -29t-69 29t-19 73zM354 852q-4 -23 8.5 -37.5
t36.5 -14.5t40.5 14.5t20.5 37.5q4 24 -9 38.5t-37 14.5t-40 -14t-20 -39zM497 852q7 44 40.5 73.5t77.5 29.5t69.5 -29.5t18.5 -73.5q-6 -44 -40 -73t-78 -29t-69 29t-19 73zM547 852q-4 -23 8.5 -37.5t36.5 -14.5t40.5 14.5t20.5 37.5q4 24 -9 38.5t-37 14.5t-40 -14
t-20 -39z" />
    <glyph glyph-name="Yacute" unicode="&#xdd;" horiz-adv-x="680" 
d="M72 688l-2 4t-1.5 8.5t1 11.5t9 9t20.5 4h178q14 0 20 -13l109 -265l182 265q10 13 23 13h178q0 -1 4.5 0t9.5 -1t9 -5t3 -11.5t-9 -19.5l-318 -468l-32 -220q-1 -11 -10.5 -18t-18.5 -7h-177q-11 0 -17 8t-4 17l31 215zM134 675l176 -442q2 -7 1 -12l-28 -196h127
l29 201q2 8 4 12l298 437h-122l-200 -292q-8 -12 -15.5 -16t-12.5 -2t-9 6t-6 8l-1 4l-119 292h-122zM343 774l131 168q14 18 31 11l148 -55q2 0 4.5 -1t7.5 -5t7 -8.5t-2 -12t-15 -16.5l-147 -113q-8 -6 -17 -6h-132h-5t-9.5 1.5t-9.5 5t-2 12t10 19.5zM412 786h77l102 79
l-92 34z" />
    <glyph glyph-name="Thorn" unicode="&#xde;" horiz-adv-x="689" 
d="M45 0l101 700q1 11 10 18t18 7h178q11 0 17.5 -8t4.5 -17l-10 -67h97q146 0 223.5 -71t59.5 -195q-19 -129 -116.5 -204.5t-244.5 -75.5h-97l-13 -87q-1 -11 -10.5 -18t-18.5 -7h-178q-11 0 -17 8t-4 17zM99 25h128l12 87q2 9 10 17t19 8h122q130 0 209 61t95 169
q14 101 -47.5 158.5t-192.5 57.5h-122q-9 0 -15.5 7t-5.5 18l9 67h-128zM259 248l32 224q2 9 10 17t19 8h115q66 0 100.5 -36t25.5 -99q-9 -64 -54 -101.5t-112 -37.5h-115q-9 0 -15.5 7t-5.5 18zM312 273h90q96 0 109 89q12 85 -84 85h-90z" />
    <glyph glyph-name="germandbls" unicode="&#xdf;" horiz-adv-x="662" 
d="M33 0l71 492q19 128 111 205.5t226 77.5q124 0 194.5 -61t55.5 -164q-14 -97 -92 -160q48 -26 71.5 -71.5t14.5 -104.5q-16 -108 -110 -173.5t-228 -65.5h-49q-11 0 -17 8t-4 17l18 123q1 11 10 18t18 7h41q94 0 104 67q5 31 -17.5 48t-79.5 17h-18q-11 0 -17 8t-4 17
l18 122q1 11 10 18t18 7q83 0 93 73q5 37 -8.5 53.5t-46.5 16.5q-75 0 -88 -91l-73 -504q-1 -11 -10.5 -18t-18.5 -7h-172q-11 0 -17 8t-4 17zM87 25h122l69 479q9 63 48 102t97 39q52 0 79 -33t19 -87q-8 -50 -41 -83t-84 -39l-10 -73q66 -2 103 -31t29 -84t-52.5 -86
t-108.5 -31h-16l-10 -73h24q118 0 193 52.5t87 136.5q8 54 -18.5 92t-80.5 53q-13 4 -17.5 10t-2 12t7 11.5t8.5 9.5l5 3q41 20 69 59.5t35 85.5q11 79 -44 127t-164 48q-115 0 -189 -62.5t-90 -170.5z" />
    <glyph glyph-name="agrave" unicode="&#xe0;" horiz-adv-x="600" 
d="M25 161q13 88 82 137.5t177 50.5h116q-3 43 -73 43q-68 0 -155 -42q-9 -5 -19.5 -2t-13.5 14l-32 114q-3 9 2 19t15 14q145 63 269 63q119 0 181 -58.5t48 -161.5l-51 -352q-1 -11 -10.5 -18t-18.5 -7h-169q-11 0 -17 8t-4 17l1 5q-64 -38 -146 -38q-94 0 -144 54
t-38 140zM75 161q-9 -65 27 -104.5t112 -39.5q99 0 154 60q16 16 25.5 12.5t13.5 -15.5l4 -12l-5 -37h119l47 327q11 81 -36 125.5t-150 44.5q-105 0 -224 -49l19 -67q85 36 154 36q60 0 90.5 -29.5t23.5 -80.5l-1 -8q-2 -9 -10 -17t-19 -8h-142q-183 -1 -202 -138zM189 173
q6 42 37.5 62.5t77.5 20.5h109q9 0 15.5 -7t5.5 -18l-7 -48q0 -4 -1 -6q-17 -42 -59 -67.5t-90 -25.5q-44 0 -69 24.5t-19 64.5zM209 694l-3 3t-5 7.5t-3 11t6 11.5t19 10l164 55q20 7 28 -11l82 -168l1 -1q0 -1 1 -3.5t1.5 -5t1 -6t-0.5 -6.5t-3 -6t-5.5 -5t-9 -3.5
t-13.5 -1.5h-132q-10 0 -16 6zM239 173q-2 -19 7.5 -29t37.5 -10q32 0 58 15t36 37l3 20h-84q-33 0 -44.5 -7.5t-13.5 -25.5zM275 704l79 -79h78l-55 113z" />
    <glyph glyph-name="aacute" unicode="&#xe1;" horiz-adv-x="600" 
d="M25 161q13 88 82 137.5t177 50.5h116q-3 43 -73 43q-68 0 -155 -42q-9 -5 -19.5 -2t-13.5 14l-32 114q-3 9 2 19t15 14q145 63 269 63q119 0 181 -58.5t48 -161.5l-51 -352q-1 -11 -10.5 -18t-18.5 -7h-169q-11 0 -17 8t-4 17l1 5q-64 -38 -146 -38q-94 0 -144 54
t-38 140zM75 161q-9 -65 27 -104.5t112 -39.5q99 0 154 60q16 16 25.5 12.5t13.5 -15.5l4 -12l-5 -37h119l47 327q11 81 -36 125.5t-150 44.5q-105 0 -224 -49l19 -67q85 36 154 36q60 0 90.5 -29.5t23.5 -80.5l-1 -8q-2 -9 -10 -17t-19 -8h-142q-183 -1 -202 -138zM189 173
q6 42 37.5 62.5t77.5 20.5h109q9 0 15.5 -7t5.5 -18l-7 -48q0 -4 -1 -6q-17 -42 -59 -67.5t-90 -25.5q-44 0 -69 24.5t-19 64.5zM239 173q-2 -19 7.5 -29t37.5 -10q32 0 58 15t36 37l3 20h-84q-33 0 -44.5 -7.5t-13.5 -25.5zM280 613l130 168q14 18 31 11l148 -55
q2 0 4.5 -1t7.5 -5t7 -8.5t-2 -12t-15 -16.5l-146 -113q-7 -6 -17 -6h-132h-5t-9.5 1.5t-9.5 5t-2 12t10 19.5zM348 625h78l102 79l-92 34z" />
    <glyph glyph-name="acircumflex" unicode="&#xe2;" horiz-adv-x="600" 
d="M25 161q13 88 82 137.5t177 50.5h116q-3 43 -73 43q-68 0 -155 -42q-9 -5 -19.5 -2t-13.5 14l-32 114q-3 9 2 19t15 14q145 63 269 63q119 0 181 -58.5t48 -161.5l-51 -352q-1 -11 -10.5 -18t-18.5 -7h-169q-11 0 -17 8t-4 17l1 5q-64 -38 -146 -38q-94 0 -144 54
t-38 140zM75 161q-9 -65 27 -104.5t112 -39.5q99 0 154 60q16 16 25.5 12.5t13.5 -15.5l4 -12l-5 -37h119l47 327q11 81 -36 125.5t-150 44.5q-105 0 -224 -49l19 -67q85 36 154 36q60 0 90.5 -29.5t23.5 -80.5l-1 -8q-2 -9 -10 -17t-19 -8h-142q-183 -1 -202 -138zM187 625
l135 151q10 10 21 10h138q13 0 19 -10l91 -151q1 -2 2 -4.5t2.5 -9.5t0 -12t-9 -9.5t-21.5 -4.5h-124q-13 0 -19 11l-29 55l-45 -55q-9 -11 -23 -11h-124q-2 0 -5 0.5t-9.5 2.5t-10 6t-1.5 12t12 19zM189 173q6 42 37.5 62.5t77.5 20.5h109q9 0 15.5 -7t5.5 -18l-7 -48
q0 -4 -1 -6q-17 -42 -59 -67.5t-90 -25.5q-44 0 -69 24.5t-19 64.5zM239 173q-2 -19 7.5 -29t37.5 -10q32 0 58 15t36 37l3 20h-84q-33 0 -44.5 -7.5t-13.5 -25.5zM258 635h61l62 74q8 9 15 12.5t11.5 2t8 -5t4.5 -6.5l2 -3l40 -74h61l-61 101h-113z" />
    <glyph glyph-name="atilde" unicode="&#xe3;" horiz-adv-x="600" 
d="M25 161q13 88 82 137.5t177 50.5h116q-3 43 -73 43q-68 0 -155 -42q-9 -5 -19.5 -2t-13.5 14l-32 114q-3 9 2 19t15 14q145 63 269 63q119 0 181 -58.5t48 -161.5l-51 -352q-1 -11 -10.5 -18t-18.5 -7h-169q-11 0 -17 8t-4 17l1 5q-64 -38 -146 -38q-94 0 -144 54
t-38 140zM75 161q-9 -65 27 -104.5t112 -39.5q99 0 154 60q16 16 25.5 12.5t13.5 -15.5l4 -12l-5 -37h119l47 327q11 81 -36 125.5t-150 44.5q-105 0 -224 -49l19 -67q85 36 154 36q60 0 90.5 -29.5t23.5 -80.5l-1 -8q-2 -9 -10 -17t-19 -8h-142q-183 -1 -202 -138zM185 621
q12 85 52 133t105 48q20 0 38 -5t30 -12t21 -13.5t14 -11.5l5 -5h3q2 2 5 17q1 11 10.5 18t18.5 7h105q11 0 17 -8t4 -17q-12 -85 -51 -132.5t-104 -47.5q-20 0 -38.5 5t-30.5 12t-21 13.5t-14 11.5l-5 5h-2q-3 -3 -6 -18q-1 -11 -10 -18t-18 -7h-106q-11 0 -17.5 8t-4.5 17
zM189 173q6 42 37.5 62.5t77.5 20.5h109q9 0 15.5 -7t5.5 -18l-7 -48q0 -4 -1 -6q-17 -42 -59 -67.5t-90 -25.5q-44 0 -69 24.5t-19 64.5zM239 173q-2 -19 7.5 -29t37.5 -10q32 0 58 15t36 37l3 20h-84q-33 0 -44.5 -7.5t-13.5 -25.5zM240 646h58q8 23 26 34q15 9 32 9
q28 0 57 -23.5t53 -23.5q37 0 59 23t34 82h-57q-9 -21 -25 -32q-14 -10 -34 -10q-28 0 -57 23.5t-52 23.5q-37 0 -59.5 -23.5t-34.5 -82.5z" />
    <glyph glyph-name="adieresis" unicode="&#xe4;" horiz-adv-x="600" 
d="M25 161q13 88 82 137.5t177 50.5h116q-3 43 -73 43q-68 0 -155 -42q-9 -5 -19.5 -2t-13.5 14l-32 114q-3 9 2 19t15 14q145 63 269 63q119 0 181 -58.5t48 -161.5l-51 -352q-1 -11 -10.5 -18t-18.5 -7h-169q-11 0 -17 8t-4 17l1 5q-64 -38 -146 -38q-94 0 -144 54
t-38 140zM75 161q-9 -65 27 -104.5t112 -39.5q99 0 154 60q16 16 25.5 12.5t13.5 -15.5l4 -12l-5 -37h119l47 327q11 81 -36 125.5t-150 44.5q-105 0 -224 -49l19 -67q85 36 154 36q60 0 90.5 -29.5t23.5 -80.5l-1 -8q-2 -9 -10 -17t-19 -8h-142q-183 -1 -202 -138zM189 173
q6 42 37.5 62.5t77.5 20.5h109q9 0 15.5 -7t5.5 -18l-7 -48q0 -4 -1 -6q-17 -42 -59 -67.5t-90 -25.5q-44 0 -69 24.5t-19 64.5zM200 691q7 44 40 73.5t77 29.5t70 -29.5t19 -73.5q-6 -44 -40 -73t-78 -29t-69 29t-19 73zM239 173q-2 -19 7.5 -29t37.5 -10q32 0 58 15t36 37
l3 20h-84q-33 0 -44.5 -7.5t-13.5 -25.5zM250 691q-4 -23 8.5 -37.5t36.5 -14.5t40.5 14.5t20.5 37.5q4 24 -9 38.5t-37 14.5t-40 -14t-20 -39zM393 691q7 44 40 73.5t77 29.5t70 -29.5t19 -73.5q-6 -44 -40 -73t-78 -29t-69 29t-19 73zM443 691q-4 -23 8.5 -37.5
t36.5 -14.5t40.5 14.5t20.5 37.5q4 24 -9 38.5t-37 14.5t-40 -14t-20 -39z" />
    <glyph glyph-name="aring" unicode="&#xe5;" horiz-adv-x="600" 
d="M25 161q13 88 82 137.5t177 50.5h116q-3 43 -73 43q-68 0 -155 -42q-9 -5 -19.5 -2t-13.5 14l-32 114q-3 9 2 19t15 14q145 63 269 63q119 0 181 -58.5t48 -161.5l-51 -352q-1 -11 -10.5 -18t-18.5 -7h-169q-11 0 -17 8t-4 17l1 5q-64 -38 -146 -38q-94 0 -144 54
t-38 140zM75 161q-9 -65 27 -104.5t112 -39.5q99 0 154 60q16 16 25.5 12.5t13.5 -15.5l4 -12l-5 -37h119l47 327q11 81 -36 125.5t-150 44.5q-105 0 -224 -49l19 -67q85 36 154 36q60 0 90.5 -29.5t23.5 -80.5l-1 -8q-2 -9 -10 -17t-19 -8h-142q-183 -1 -202 -138zM189 173
q6 42 37.5 62.5t77.5 20.5h109q9 0 15.5 -7t5.5 -18l-7 -48q0 -4 -1 -6q-17 -42 -59 -67.5t-90 -25.5q-44 0 -69 24.5t-19 64.5zM239 173q-2 -19 7.5 -29t37.5 -10q32 0 58 15t36 37l3 20h-84q-33 0 -44.5 -7.5t-13.5 -25.5zM253 694q9 60 57.5 102.5t109.5 42.5t97.5 -42.5
t27.5 -102.5t-57.5 -102.5t-109.5 -42.5t-97.5 42.5t-27.5 102.5zM303 694q-6 -39 18 -67t64 -28t72 28t38 67t-18 67t-64 28t-72 -28t-38 -67zM321 694q5 32 31 54.5t58 22.5t52 -22.5t15 -54.5q-4 -32 -30.5 -54.5t-58.5 -22.5t-51.5 22.5t-15.5 54.5zM371 694
q-2 -11 5 -19t19 -8t21 8t11 19t-5.5 19t-18.5 8t-20.5 -8t-11.5 -19z" />
    <glyph glyph-name="ae" unicode="&#xe6;" horiz-adv-x="966" 
d="M25 159q12 87 82 134.5t177 48.5h119q0 50 -74 50q-72 0 -167 -43q-27 -11 -32 15l-23 116q-2 9 3.5 18t14.5 13q149 61 269 61q114 0 175 -52q76 50 176 50h19q136 -7 200 -100t36 -239q-2 -10 -10.5 -17t-17.5 -7h-354q18 -59 85 -59q66 0 120 48q9 7 19 6.5t16 -6.5
l78 -89q6 -7 5 -17t-9 -18q-109 -103 -269 -103q-144 0 -209 94q-90 -96 -236 -96q-99 0 -152.5 52.5t-40.5 139.5zM75 159q-9 -65 29.5 -103.5t120.5 -38.5q142 0 214 102q13 18 24 18t15 -9l5 -8q46 -101 187 -101q121 0 210 70l-48 55q-63 -46 -136 -46q-58 0 -94 35
t-40 94q-2 30 29 30h364q17 122 -41 192.5t-176 70.5q-94 0 -160 -51q-20 -14 -33 1q-47 52 -158 52q-101 0 -226 -48l13 -68q92 36 163 36q59 0 90.5 -29.5t24.5 -80.5l-2 -15q-2 -9 -10 -17t-19 -8h-144q-183 -1 -202 -133zM189 173q6 42 39 64.5t79 22.5h109q9 0 16 -7
t6 -18l-9 -62q-1 -4 -5 -12q-56 -82 -147 -82q-44 0 -69 26t-19 68zM239 173q-3 -21 8.5 -32.5t37.5 -11.5q57 0 95 51l4 30h-84q-56 0 -61 -37zM420 142q-11 12 -5 22t19 16l13 6h5q19 -4 16 -25v-3q-3 -22 -14 -27t-20 1l-10 6zM573 319q18 58 59.5 96.5t96.5 38.5
q57 0 87.5 -40t22.5 -99q-2 -9 -9.5 -17t-18.5 -8h-217q-29 0 -21 29zM633 340h157q-5 64 -68 64q-56 0 -89 -64z" />
    <glyph glyph-name="ccedilla" unicode="&#xe7;" horiz-adv-x="562" 
d="M38 268q19 134 116 218t232 84q86 0 149 -34.5t93 -98.5q9 -22 -13 -34l-135 -75q-21 -12 -32 6q-27 46 -82 46q-39 0 -68 -29.5t-36 -81.5q-8 -54 12.5 -83t59.5 -29q62 0 95 48q6 9 17 12t19 -2l115 -74q8 -5 9 -16t-5 -18q-76 -109 -214 -132l-9 -13q54 -30 45 -94
q-9 -58 -56.5 -93t-111.5 -35q-58 0 -104 35q-16 13 -5 31l43 71q1 1 2 3.5t5 7t8.5 6.5t11 0t13.5 -9q11 -13 31 -13q16 0 18 12q0 1 0.5 2t-0.5 3t-3 3t-6 2t-10 1q-9 0 -33 -4h-11h-3.5t-7 1.5t-6.5 5t-1 11t8 18.5l32 51q-100 23 -149 100.5t-33 189.5zM88 268
q-15 -103 33 -168.5t145 -77.5q17 -2 20.5 -11t-0.5 -17l-5 -8l-26 -41q27 -2 43.5 -18.5t12.5 -42.5t-26 -44t-50 -18q-20 0 -36 8l-15 -24q30 -16 61 -16q47 0 76.5 21.5t34.5 56.5q6 44 -41 57q-29 8 -11 35l32 49q8 12 21 14q107 15 171 88l-76 49q-51 -53 -126 -53
q-62 0 -93 46t-21 116q10 69 54.5 115t106.5 46q69 0 108 -48l90 50q-58 88 -192 88q-116 0 -195.5 -68.5t-95.5 -183.5z" />
    <glyph glyph-name="egrave" unicode="&#xe8;" horiz-adv-x="602" 
d="M38 268q19 135 116.5 218.5t232.5 83.5q5 0 13.5 -0.5t12.5 -0.5q138 -8 195 -102t26 -246q-5 -23 -28 -23h-108l2 -2l78 -89q6 -7 5 -17t-9 -18q-109 -103 -268 -103q-140 0 -214 83t-54 216zM88 268q-17 -114 43 -181.5t182 -67.5q120 0 209 70l-48 55
q-63 -46 -135 -46q-56 0 -91.5 31.5t-42.5 87.5q-1 11 2 18t10 9.5t10 3t7 0.5h355q21 131 -32 201.5t-177 70.5q-116 0 -196 -68.5t-96 -183.5zM211 694l-3 3t-5 7.5t-3 11t6 11.5t19 10l164 55q20 7 28 -11l82 -168l1 -1q0 -1 1 -3.5t1.5 -5t1 -6t-0.5 -6.5t-3 -6t-5.5 -5
t-9 -3.5t-13.5 -1.5h-132q-10 0 -16 6zM216 320q18 57 60 93.5t96 36.5q57 0 87.5 -37.5t22.5 -96.5q-2 -9 -10 -17t-19 -8h-216q-29 0 -21 29zM263 198q21 -50 83 -50q65 0 119 48l2 2h-204zM277 341h155q-5 59 -67 59q-56 0 -88 -59zM277 704l79 -79h78l-55 113z" />
    <glyph glyph-name="eacute" unicode="&#xe9;" horiz-adv-x="602" 
d="M38 268q19 135 116.5 218.5t232.5 83.5q5 0 13.5 -0.5t12.5 -0.5q138 -8 195 -102t26 -246q-5 -23 -28 -23h-108l2 -2l78 -89q6 -7 5 -17t-9 -18q-109 -103 -268 -103q-140 0 -214 83t-54 216zM88 268q-17 -114 43 -181.5t182 -67.5q120 0 209 70l-48 55
q-63 -46 -135 -46q-56 0 -91.5 31.5t-42.5 87.5q-1 11 2 18t10 9.5t10 3t7 0.5h355q21 131 -32 201.5t-177 70.5q-116 0 -196 -68.5t-96 -183.5zM216 320q18 57 60 93.5t96 36.5q57 0 87.5 -37.5t22.5 -96.5q-2 -9 -10 -17t-19 -8h-216q-29 0 -21 29zM263 198q21 -50 83 -50
q65 0 119 48l2 2h-204zM277 341h155q-5 59 -67 59q-56 0 -88 -59zM281 613l130 168q14 18 31 11l148 -55q2 0 4.5 -1t7.5 -5t7 -8.5t-2 -12t-15 -16.5l-146 -113q-8 -6 -17 -6h-132h-5t-9.5 1.5t-9.5 5t-2 12t10 19.5zM349 625h78l102 79l-92 34z" />
    <glyph glyph-name="ecircumflex" unicode="&#xea;" horiz-adv-x="602" 
d="M38 268q19 135 116.5 218.5t232.5 83.5q5 0 13.5 -0.5t12.5 -0.5q138 -8 195 -102t26 -246q-5 -23 -28 -23h-108l2 -2l78 -89q6 -7 5 -17t-9 -18q-109 -103 -268 -103q-140 0 -214 83t-54 216zM88 268q-17 -114 43 -181.5t182 -67.5q120 0 209 70l-48 55
q-63 -46 -135 -46q-56 0 -91.5 31.5t-42.5 87.5q-1 11 2 18t10 9.5t10 3t7 0.5h355q21 131 -32 201.5t-177 70.5q-116 0 -196 -68.5t-96 -183.5zM189 624l135 151q10 10 21 10h138q13 0 19 -10l91 -151q1 -2 2 -4.5t2.5 -9.5t0 -12t-9 -9.5t-21.5 -4.5h-124q-13 0 -19 11
l-29 55l-46 -55q-9 -11 -22 -11h-124q-2 0 -5 0.5t-9.5 2.5t-10 6t-1.5 12t12 19zM216 320q18 57 60 93.5t96 36.5q57 0 87.5 -37.5t22.5 -96.5q-2 -9 -10 -17t-19 -8h-216q-29 0 -21 29zM260 634h61l61 74q12 15 22.5 15t15.5 -7l4 -8l40 -74h60l-61 101h-113zM263 198
q21 -50 83 -50q65 0 119 48l2 2h-204zM277 341h155q-5 59 -67 59q-56 0 -88 -59z" />
    <glyph glyph-name="edieresis" unicode="&#xeb;" horiz-adv-x="602" 
d="M38 268q19 135 116.5 218.5t232.5 83.5q5 0 13.5 -0.5t12.5 -0.5q138 -8 195 -102t26 -246q-5 -23 -28 -23h-108l2 -2l78 -89q6 -7 5 -17t-9 -18q-109 -103 -268 -103q-140 0 -214 83t-54 216zM88 268q-17 -114 43 -181.5t182 -67.5q120 0 209 70l-48 55
q-63 -46 -135 -46q-56 0 -91.5 31.5t-42.5 87.5q-1 11 2 18t10 9.5t10 3t7 0.5h355q21 131 -32 201.5t-177 70.5q-116 0 -196 -68.5t-96 -183.5zM202 691q7 44 40 73.5t77 29.5t70 -29.5t19 -73.5q-6 -44 -40 -73t-78 -29t-69 29t-19 73zM216 320q18 57 60 93.5t96 36.5
q57 0 87.5 -37.5t22.5 -96.5q-2 -9 -10 -17t-19 -8h-216q-29 0 -21 29zM252 691q-4 -23 8.5 -37.5t36.5 -14.5t40.5 14.5t20.5 37.5q4 24 -9 38.5t-37 14.5t-40 -14t-20 -39zM263 198q21 -50 83 -50q65 0 119 48l2 2h-204zM277 341h155q-5 59 -67 59q-56 0 -88 -59zM395 691
q7 44 40 73.5t77 29.5t70 -29.5t19 -73.5q-6 -44 -40 -73t-78 -29t-69 29t-19 73zM445 691q-4 -23 8.5 -37.5t36.5 -14.5t40.5 14.5t20.5 37.5q4 24 -9 38.5t-37 14.5t-40 -14t-20 -39z" />
    <glyph glyph-name="igrave" unicode="&#xec;" horiz-adv-x="311" 
d="M44 0l78 539q1 11 10 18t18 7h172q11 0 17.5 -8t4.5 -17l-78 -539q-1 -11 -10.5 -18t-18.5 -7h-172q-11 0 -17 8t-4 17zM66 694l-3 3t-5 7.5t-3 11t6 11.5t19 10l164 55q20 7 28 -11l82 -168v-1q1 -1 2 -3.5t1.5 -5t1 -6t-0.5 -6.5t-3 -6t-5.5 -5t-9 -3.5t-13.5 -1.5
h-132q-10 0 -16 6zM98 25h122l70 489h-122zM132 704l79 -79h78l-55 113z" />
    <glyph glyph-name="iacute" unicode="&#xed;" horiz-adv-x="311" 
d="M44 0l78 539q1 11 10 18t18 7h172q11 0 17.5 -8t4.5 -17l-78 -539q-1 -11 -10.5 -18t-18.5 -7h-172q-11 0 -17 8t-4 17zM98 25h122l70 489h-122zM136 613l130 168q14 18 31 11l148 -55q2 0 4.5 -1t7.5 -5t7 -8.5t-2 -12t-15 -16.5l-146 -113q-7 -6 -17 -6h-132h-5
t-9.5 1.5t-9.5 5t-2 12t10 19.5zM204 625h78l102 79l-92 34z" />
    <glyph glyph-name="icircumflex" unicode="&#xee;" horiz-adv-x="311" 
d="M44 0l78 539q1 11 10 18t18 7h172q11 0 17.5 -8t4.5 -17l-78 -539q-1 -11 -10.5 -18t-18.5 -7h-172q-11 0 -17 8t-4 17zM44 625l135 151q10 10 21 10h138q13 0 19 -10l91 -151q1 -2 2 -4.5t2.5 -9.5t0 -12t-9 -9.5t-21.5 -4.5h-124q-14 0 -19 11l-29 55l-45 -55
q-9 -11 -23 -11h-124q-2 0 -5 0.5t-9.5 2.5t-10 6t-1.5 12t12 19zM98 25h122l70 489h-122zM115 635h61l62 74q12 15 22 15t14 -8l5 -7l40 -74h61l-61 101h-113z" />
    <glyph glyph-name="idieresis" unicode="&#xef;" horiz-adv-x="311" 
d="M44 0l78 539q1 11 10 18t18 7h172q11 0 17.5 -8t4.5 -17l-78 -539q-1 -11 -10.5 -18t-18.5 -7h-172q-11 0 -17 8t-4 17zM57 691q7 44 40 73.5t77 29.5t70 -29.5t19 -73.5q-6 -44 -40 -73t-78 -29t-69 29t-19 73zM98 25h122l70 489h-122zM107 691q-4 -23 8.5 -37.5
t36.5 -14.5t40.5 14.5t20.5 37.5q4 24 -9 38.5t-37 14.5t-40 -14t-20 -39zM250 691q7 44 40 73.5t77 29.5t70 -29.5t19 -73.5q-6 -44 -40 -73t-78 -29t-69 29t-19 73zM300 691q-4 -23 8.5 -37.5t36.5 -14.5t40.5 14.5t20.5 37.5q4 24 -9 38.5t-37 14.5t-40 -14t-20 -39z" />
    <glyph glyph-name="eth" unicode="&#xf0;" horiz-adv-x="604" 
d="M30 226q16 110 95 177t192 67q49 0 94 -16q-16 29 -41 59l-155 -49q-10 -3 -19.5 1.5t-10.5 14.5l-14 80q-3 24 20 32l68 21q-33 23 -73 43q-5 2 -10.5 6t-5.5 15.5t20 22.5l126 70q12 6 23 2q80 -34 144 -87l137 44q10 4 18.5 -1.5t10.5 -14.5l16 -80q2 -10 -4 -19.5
t-16 -12.5l-66 -21q90 -135 67 -296q-20 -142 -122 -229.5t-246 -87.5q-128 0 -196.5 71t-51.5 188zM80 226q-14 -96 41 -152.5t164 -56.5q126 0 209.5 72t101.5 195q23 158 -80 291q-10 16 -6.5 25t13.5 12l10 4l78 25l-7 32l-125 -40q-13 -5 -23 4q-56 49 -132 84l-72 -40
q38 -22 80 -55q16 -14 13 -24t-15 -15l-11 -5l-94 -30l6 -32l146 46q14 5 24 -6q73 -80 89 -167q3 -13 -8.5 -19t-24.5 -6l-13 1q-16 22 -52.5 36.5t-81.5 14.5q-94 0 -155.5 -52t-74.5 -142zM196 234q8 54 48.5 87.5t96.5 33.5q57 0 89 -34.5t24 -88.5q-8 -55 -49.5 -88.5
t-98.5 -33.5q-56 0 -87 34.5t-23 89.5zM246 234q-5 -35 12.5 -54.5t54.5 -19.5q81 0 91 72q10 73 -70 73q-79 0 -88 -71z" />
    <glyph glyph-name="ntilde" unicode="&#xf1;" horiz-adv-x="673" 
d="M44 0l78 539q1 11 10 18t18 7h173q11 0 17.5 -8t4.5 -17l-3 -20q67 51 162 53q100 0 152 -64t37 -168l-49 -340q-1 -11 -10.5 -18t-18.5 -7h-172q-11 0 -17 8t-4 17l42 292q10 77 -59 77q-36 0 -61 -22.5t-36 -62.5l-41 -284q-1 -11 -10.5 -18t-18.5 -7h-173q-11 0 -17 8
t-4 17zM98 25h123l37 260v1l1 2q15 57 56 94t97 37q54 0 82 -35.5t20 -91.5l-38 -267h122l45 315q12 85 -27.5 133.5t-118.5 48.5q-108 -1 -170 -84q-13 -15 -23 -12t-16 14l-6 11l9 63h-123zM239 621q12 85 52 133t105 48q20 0 38 -5t30 -12t21 -13.5t14 -11.5l5 -5h3
q2 2 5 17q1 11 10.5 18t18.5 7h105q11 0 17 -8t4 -17q-12 -85 -51 -132.5t-104 -47.5q-20 0 -38.5 5t-30.5 12t-21 13.5t-14 11.5l-5 5h-2q-3 -3 -6 -18q-1 -11 -10 -18t-18 -7h-106q-11 0 -17.5 8t-4.5 17zM294 646h58q8 23 26 34q15 9 32 9q28 0 57 -23.5t53 -23.5
q37 0 59 23t34 82h-57q-9 -21 -25 -32q-14 -10 -34 -10q-28 0 -57 23.5t-52 23.5q-37 0 -59.5 -23.5t-34.5 -82.5z" />
    <glyph glyph-name="ograve" unicode="&#xf2;" horiz-adv-x="637" 
d="M38 270q19 134 120 217t243 83q141 0 218 -83t58 -217q-19 -135 -120 -218t-242 -83q-142 0 -219 83t-58 218zM88 270q-17 -114 46.5 -182.5t187.5 -68.5q123 0 205.5 68.5t99.5 182.5t-46 182t-187 68t-206.5 -68t-99.5 -182zM212 268q10 71 57 118t112 47q64 0 98 -47
t24 -118q-11 -71 -58 -118t-111 -47q-65 0 -99 47t-23 118zM229 694l-3 3t-5 7.5t-3 11t6 11.5t19 10l164 55q20 7 28 -11l82 -168l1 -1q0 -1 1 -3.5t1.5 -5t1 -6t-0.5 -6.5t-3 -6t-5.5 -5t-9 -3.5t-13.5 -1.5h-132q-10 0 -16 6zM262 268q-8 -54 14 -84.5t65 -30.5
q42 0 73 30.5t39 84.5q8 53 -14.5 84t-64.5 31q-43 0 -73.5 -30.5t-38.5 -84.5zM295 704l79 -79h78l-55 113z" />
    <glyph glyph-name="oacute" unicode="&#xf3;" horiz-adv-x="637" 
d="M38 270q19 134 120 217t243 83q141 0 218 -83t58 -217q-19 -135 -120 -218t-242 -83q-142 0 -219 83t-58 218zM88 270q-17 -114 46.5 -182.5t187.5 -68.5q123 0 205.5 68.5t99.5 182.5t-46 182t-187 68t-206.5 -68t-99.5 -182zM212 268q10 71 57 118t112 47q64 0 98 -47
t24 -118q-11 -71 -58 -118t-111 -47q-65 0 -99 47t-23 118zM262 268q-8 -54 14 -84.5t65 -30.5q42 0 73 30.5t39 84.5q8 53 -14.5 84t-64.5 31q-43 0 -73.5 -30.5t-38.5 -84.5zM299 613l130 168q14 18 31 11l148 -55q2 0 4.5 -1t7.5 -5t7 -8.5t-2 -12t-15 -16.5l-146 -113
q-7 -6 -17 -6h-132h-5t-9.5 1.5t-9.5 5t-2 12t10 19.5zM367 625h78l102 79l-92 34z" />
    <glyph glyph-name="ocircumflex" unicode="&#xf4;" horiz-adv-x="637" 
d="M38 270q19 134 120 217t243 83q141 0 218 -83t58 -217q-19 -135 -120 -218t-242 -83q-142 0 -219 83t-58 218zM88 270q-17 -114 46.5 -182.5t187.5 -68.5q123 0 205.5 68.5t99.5 182.5t-46 182t-187 68t-206.5 -68t-99.5 -182zM207 624l135 151q10 10 21 10h138
q13 0 19 -10l91 -151q1 -2 2 -4.5t2.5 -9.5t0 -12t-9 -9.5t-21.5 -4.5h-124q-13 0 -19 11l-29 55l-46 -55q-9 -11 -22 -11h-124q-2 0 -5 0.5t-9.5 2.5t-10 6t-1.5 12t12 19zM212 268q10 71 57 118t112 47q64 0 98 -47t24 -118q-11 -71 -58 -118t-111 -47q-65 0 -99 47
t-23 118zM262 268q-8 -54 14 -84.5t65 -30.5q42 0 73 30.5t39 84.5q8 53 -14.5 84t-64.5 31q-43 0 -73.5 -30.5t-38.5 -84.5zM278 634h61l61 74q12 15 22.5 15t15.5 -7l4 -8l40 -74h60l-61 101h-113z" />
    <glyph glyph-name="otilde" unicode="&#xf5;" horiz-adv-x="637" 
d="M38 270q19 134 120 217t243 83q141 0 218 -83t58 -217q-19 -135 -120 -218t-242 -83q-142 0 -219 83t-58 218zM88 270q-17 -114 46.5 -182.5t187.5 -68.5q123 0 205.5 68.5t99.5 182.5t-46 182t-187 68t-206.5 -68t-99.5 -182zM204 621q12 85 52 133t105 48q20 0 38 -5
t30 -12t21 -13.5t14 -11.5l5 -5h3q2 2 5 17q1 11 10.5 18t18.5 7h105q11 0 17 -8t4 -17q-12 -85 -51 -132.5t-104 -47.5q-20 0 -38.5 5t-30.5 12t-21 13.5t-14 11.5l-5 5h-2q-3 -3 -6 -18q-1 -11 -10 -18t-18 -7h-106q-11 0 -17.5 8t-4.5 17zM212 268q10 71 57 118t112 47
q64 0 98 -47t24 -118q-11 -71 -58 -118t-111 -47q-65 0 -99 47t-23 118zM259 646h58q8 23 26 34q15 9 32 9q28 0 57 -23.5t53 -23.5q37 0 59 23t34 82h-57q-9 -21 -25 -32q-14 -10 -34 -10q-28 0 -57 23.5t-52 23.5q-37 0 -59.5 -23.5t-34.5 -82.5zM262 268q-8 -54 14 -84.5
t65 -30.5q42 0 73 30.5t39 84.5q8 53 -14.5 84t-64.5 31q-43 0 -73.5 -30.5t-38.5 -84.5z" />
    <glyph glyph-name="odieresis" unicode="&#xf6;" horiz-adv-x="637" 
d="M38 270q19 134 120 217t243 83q141 0 218 -83t58 -217q-19 -135 -120 -218t-242 -83q-142 0 -219 83t-58 218zM88 270q-17 -114 46.5 -182.5t187.5 -68.5q123 0 205.5 68.5t99.5 182.5t-46 182t-187 68t-206.5 -68t-99.5 -182zM212 268q10 71 57 118t112 47q64 0 98 -47
t24 -118q-11 -71 -58 -118t-111 -47q-65 0 -99 47t-23 118zM220 691q7 44 40 73.5t77 29.5t70 -29.5t19 -73.5q-6 -44 -40 -73t-78 -29t-69 29t-19 73zM262 268q-8 -54 14 -84.5t65 -30.5q42 0 73 30.5t39 84.5q8 53 -14.5 84t-64.5 31q-43 0 -73.5 -30.5t-38.5 -84.5z
M270 691q-4 -23 8.5 -37.5t36.5 -14.5t40.5 14.5t20.5 37.5q4 24 -9 38.5t-37 14.5t-40 -14t-20 -39zM413 691q7 44 40 73.5t77 29.5t70 -29.5t19 -73.5q-6 -44 -40 -73t-78 -29t-69 29t-19 73zM463 691q-4 -23 8.5 -37.5t36.5 -14.5t40.5 14.5t20.5 37.5q4 24 -9 38.5
t-37 14.5t-40 -14t-20 -39z" />
    <glyph glyph-name="divide" unicode="&#xf7;" horiz-adv-x="510" 
d="M47 272l16 109q1 11 10.5 18t18.5 7h444q11 0 17 -8t4 -17l-16 -109q-1 -11 -10 -18t-18 -7h-444q-11 0 -17.5 8t-4.5 17zM101 297h394l8 59h-394zM165 149q6 43 40 73t78 30t69 -29.5t19 -73.5t-39.5 -73.5t-77.5 -29.5t-69.5 30t-19.5 73zM215 149q-4 -24 9 -38.5
t37 -14.5t40 14.5t20 38.5t-8 38.5t-37 14.5q-24 0 -40.5 -14.5t-20.5 -38.5zM217 506q7 44 40.5 73.5t77.5 29.5t69.5 -29.5t18.5 -73.5q-6 -43 -40 -72.5t-78 -29.5t-69 29t-19 73zM267 506q-4 -23 8.5 -37.5t36.5 -14.5q25 0 41 14t20 38q4 25 -8 39t-37 14
q-24 0 -40.5 -14t-20.5 -39z" />
    <glyph glyph-name="oslash" unicode="&#xf8;" horiz-adv-x="637" 
d="M38 270q19 134 120 217t243 83q25 0 35 -1l52 110q8 17 26 17h71h4t8 -1.5t7.5 -5t3.5 -10t-4 -16.5l-57 -122q75 -35 109 -106.5t21 -164.5q-19 -135 -120 -218t-242 -83q-26 0 -36 1l-56 -120q-8 -17 -26 -17h-71h-4t-8 1.5t-7.5 5t-3.5 10t4 16.5l62 132
q-75 35 -109.5 106.5t-21.5 165.5zM88 270q-13 -85 21 -145.5t105 -87.5q9 -3 12.5 -12.5t-1.5 -19.5l-58 -122h19l57 122q8 19 29 17q24 -3 50 -3q123 0 205.5 68.5t99.5 182.5q13 85 -20.5 145t-104.5 87q-9 3 -12.5 12.5t1.5 19.5l53 112h-19l-52 -112q-9 -19 -29 -17
q-24 3 -50 3q-124 0 -206.5 -68t-99.5 -182zM201 268q11 78 61.5 128.5t120.5 50.5h2l14 -1q14 -1 18.5 -9t2.5 -14.5t-4 -9.5l-132 -282q-5 -10 -11 -15t-11 -5t-9.5 1.5t-6.5 3.5l-3 3q-56 49 -42 149zM251 268q-7 -45 7 -80l97 207q-40 -8 -68 -41t-36 -86zM298 123
l133 282q8 17 18.5 19.5t16.5 -2.5l6 -6q56 -51 42 -148q-11 -78 -61.5 -128.5t-120.5 -50.5h-2l-15 1q-14 1 -18.5 9t-2.5 14.5t4 9.5zM359 141q40 7 68.5 39.5t36.5 87.5q7 42 -8 79z" />
    <glyph glyph-name="ugrave" unicode="&#xf9;" horiz-adv-x="663" 
d="M57 199l49 340q1 11 10 18t18 7h173q11 0 17.5 -8t4.5 -17l-42 -291q-12 -78 53 -78q37 1 62.5 28t32.5 75l39 266q1 11 10 18t18 7h173q11 0 17.5 -8t4.5 -17l-78 -539q-1 -11 -10.5 -18t-18.5 -7h-173q-11 0 -17 8t-4 17l3 19q-67 -51 -158 -51q-98 0 -148.5 63.5
t-35.5 167.5zM107 199q-12 -85 26 -133t116 -48q103 0 165 84q13 15 23 12t16 -14l6 -11l-9 -64h123l70 489h-123l-35 -241q-9 -64 -50.5 -108t-101.5 -45q-52 0 -78 36t-18 92l38 266h-123zM237 694l-3 3t-5 7.5t-3 11t6 11.5t19 10l164 55q20 7 28 -11l82 -168l1 -1
q0 -1 1 -3.5t1.5 -5t1 -6t-0.5 -6.5t-3 -6t-5.5 -5t-9 -3.5t-13.5 -1.5h-132q-10 0 -16 6zM303 704l79 -79h78l-55 113z" />
    <glyph glyph-name="uacute" unicode="&#xfa;" horiz-adv-x="663" 
d="M57 199l49 340q1 11 10 18t18 7h173q11 0 17.5 -8t4.5 -17l-42 -291q-12 -78 53 -78q37 1 62.5 28t32.5 75l39 266q1 11 10 18t18 7h173q11 0 17.5 -8t4.5 -17l-78 -539q-1 -11 -10.5 -18t-18.5 -7h-173q-11 0 -17 8t-4 17l3 19q-67 -51 -158 -51q-98 0 -148.5 63.5
t-35.5 167.5zM107 199q-12 -85 26 -133t116 -48q103 0 165 84q13 15 23 12t16 -14l6 -11l-9 -64h123l70 489h-123l-35 -241q-9 -64 -50.5 -108t-101.5 -45q-52 0 -78 36t-18 92l38 266h-123zM307 613l130 168q14 18 31 11l148 -55q2 0 4.5 -1t7.5 -5t7 -8.5t-2 -12
t-15 -16.5l-146 -113q-8 -6 -17 -6h-132h-5t-9.5 1.5t-9.5 5t-2 12t10 19.5zM375 625h78l102 79l-92 34z" />
    <glyph glyph-name="ucircumflex" unicode="&#xfb;" horiz-adv-x="663" 
d="M57 199l49 340q1 11 10 18t18 7h173q11 0 17.5 -8t4.5 -17l-42 -291q-12 -78 53 -78q37 1 62.5 28t32.5 75l39 266q1 11 10 18t18 7h173q11 0 17.5 -8t4.5 -17l-78 -539q-1 -11 -10.5 -18t-18.5 -7h-173q-11 0 -17 8t-4 17l3 19q-67 -51 -158 -51q-98 0 -148.5 63.5
t-35.5 167.5zM107 199q-12 -85 26 -133t116 -48q103 0 165 84q13 15 23 12t16 -14l6 -11l-9 -64h123l70 489h-123l-35 -241q-9 -64 -50.5 -108t-101.5 -45q-52 0 -78 36t-18 92l38 266h-123zM215 625l135 151q10 10 21 10h138q13 0 19 -10l91 -151q1 -2 2 -4.5t2.5 -9.5
t0 -12t-9 -9.5t-21.5 -4.5h-124q-13 0 -19 11l-29 55l-45 -55q-9 -11 -23 -11h-124q-2 0 -5 0.5t-9.5 2.5t-10 6t-1.5 12t12 19zM286 635h61l62 74q8 9 15 12.5t11.5 2t8 -5t4.5 -6.5l2 -3l40 -74h61l-61 101h-113z" />
    <glyph glyph-name="udieresis" unicode="&#xfc;" horiz-adv-x="663" 
d="M57 199l49 340q1 11 10 18t18 7h173q11 0 17.5 -8t4.5 -17l-42 -291q-12 -78 53 -78q37 1 62.5 28t32.5 75l39 266q1 11 10 18t18 7h173q11 0 17.5 -8t4.5 -17l-78 -539q-1 -11 -10.5 -18t-18.5 -7h-173q-11 0 -17 8t-4 17l3 19q-67 -51 -158 -51q-98 0 -148.5 63.5
t-35.5 167.5zM107 199q-12 -85 26 -133t116 -48q103 0 165 84q13 15 23 12t16 -14l6 -11l-9 -64h123l70 489h-123l-35 -241q-9 -64 -50.5 -108t-101.5 -45q-52 0 -78 36t-18 92l38 266h-123zM228 691q7 44 40 73.5t77 29.5t70 -29.5t19 -73.5q-6 -44 -40 -73t-78 -29t-69 29
t-19 73zM278 691q-4 -23 8.5 -37.5t36.5 -14.5t40.5 14.5t20.5 37.5q4 24 -9 38.5t-37 14.5t-40 -14t-20 -39zM421 691q7 44 40 73.5t77 29.5t70 -29.5t19 -73.5q-6 -44 -40 -73t-78 -29t-69 29t-19 73zM471 691q-4 -23 8.5 -37.5t36.5 -14.5t40.5 14.5t20.5 37.5
q4 24 -9 38.5t-37 14.5t-40 -14t-20 -39z" />
    <glyph glyph-name="yacute" unicode="&#xfd;" horiz-adv-x="580" 
d="M-52 -134l89 118q19 25 38 7q27 -24 52 -24q31 0 49 29l10 17l-145 516q-2 4 -3 10t5.5 15.5t25.5 9.5h178q18 0 21 -16l66 -291l136 290q8 17 26 17h172q0 -1 4 0t8.5 -1t8.5 -5t4 -10.5t-6 -17.5l-319 -595q-89 -162 -255 -162q-94 0 -163 60q-15 14 -2 33zM2 -140
q50 -37 118 -37q132 0 204 130l300 561h-117l-160 -341q-9 -20 -21 -20t-20 9l-7 10l-76 342h-123l138 -492q3 -10 -3 -21l-17 -27q-36 -57 -98 -57q-32 0 -61 18zM271 613l130 168q14 18 31 11l148 -55q2 0 4.5 -1t7.5 -5t7 -8.5t-2 -12t-15 -16.5l-146 -113q-8 -6 -17 -6
h-132h-5t-9.5 1.5t-9.5 5t-2 12t10 19.5zM339 625h78l102 79l-92 34z" />
    <glyph glyph-name="thorn" unicode="&#xfe;" horiz-adv-x="685" 
d="M21 -194l135 936q1 11 10.5 18t18.5 7h173q11 0 17 -8t4 -17l-31 -215q64 43 142 43q125 0 189.5 -84.5t44.5 -218.5q-19 -132 -105.5 -215t-210.5 -83q-82 0 -134 43l-30 -206q-1 -11 -10.5 -18t-18.5 -7h-173q-11 0 -17 8t-4 17zM75 -169h123l34 241q3 20 15 24t22 -2
l10 -7q42 -68 136 -68q102 0 172.5 67t86.5 181q16 116 -36 184.5t-155 68.5q-89 0 -151 -67q-17 -16 -26.5 -12.5t-13.5 15.5l-3 12l36 249h-123zM261 272q10 70 57 117.5t111 47.5q65 0 98.5 -47.5t23.5 -117.5q-10 -71 -57.5 -118.5t-112.5 -47.5q-64 0 -97 47t-23 119z
M311 272q-8 -54 14 -85t63 -31q43 0 74 31t39 85q7 53 -14.5 84t-64.5 31q-41 0 -72.5 -31t-38.5 -84z" />
    <glyph glyph-name="ydieresis" unicode="&#xff;" horiz-adv-x="580" 
d="M-52 -134l89 118q19 25 38 7q27 -24 52 -24q31 0 49 29l10 17l-145 516q-2 4 -3 10t5.5 15.5t25.5 9.5h178q18 0 21 -16l66 -291l136 290q8 17 26 17h172q0 -1 4 0t8.5 -1t8.5 -5t4 -10.5t-6 -17.5l-319 -595q-89 -162 -255 -162q-94 0 -163 60q-15 14 -2 33zM2 -140
q50 -37 118 -37q132 0 204 130l300 561h-117l-160 -341q-9 -20 -21 -20t-20 9l-7 10l-76 342h-123l138 -492q3 -10 -3 -21l-17 -27q-36 -57 -98 -57q-32 0 -61 18zM192 691q7 44 40 73.5t77 29.5t70 -29.5t19 -73.5q-6 -44 -40 -73t-78 -29t-69 29t-19 73zM242 691
q-4 -23 8.5 -37.5t36.5 -14.5t40.5 14.5t20.5 37.5q4 24 -9 38.5t-37 14.5t-40 -14t-20 -39zM385 691q7 44 40 73.5t77 29.5t70 -29.5t19 -73.5q-6 -44 -40 -73t-78 -29t-69 29t-19 73zM435 691q-4 -23 8.5 -37.5t36.5 -14.5t40.5 14.5t20.5 37.5q4 24 -9 38.5t-37 14.5
t-40 -14t-20 -39z" />
    <glyph glyph-name="Amacron" unicode="&#x100;" horiz-adv-x="770" 
d="M-27 10l403 700q8 15 25 15h183q17 0 21 -15l194 -700q2 -4 3 -10t-5.5 -15.5t-25.5 -9.5h-190q-17 0 -21 16l-27 113h-272l-61 -113q-8 -16 -26 -16h-183q0 1 -4 0t-9 1t-8.5 5t-3 10.5t6.5 18.5zM37 25h128l61 113q9 16 25 16h306q18 0 21 -16l28 -113h135l-180 650
h-150zM297 273l139 259q11 20 22.5 20t17.5 -10l7 -10l63 -259q4 -16 -3 -24.5t-17 -8.5l-9 -1h-202q-18 0 -22.5 8.5t-0.5 16.5zM335 793l17 116q1 11 10.5 18t18.5 7h278q11 0 17 -8t4 -17l-17 -116q-1 -11 -10 -18t-18 -7h-278q-11 0 -17.5 8t-4.5 17zM359 289h129
l-40 165zM389 818h228l9 66h-228z" />
    <glyph glyph-name="amacron" unicode="&#x101;" horiz-adv-x="600" 
d="M25 161q13 88 82 137.5t177 50.5h116q-3 43 -73 43q-68 0 -155 -42q-9 -5 -19.5 -2t-13.5 14l-32 114q-3 9 2 19t15 14q145 63 269 63q119 0 181 -58.5t48 -161.5l-51 -352q-1 -11 -10.5 -18t-18.5 -7h-169q-11 0 -17 8t-4 17l1 5q-64 -38 -146 -38q-94 0 -144 54
t-38 140zM75 161q-9 -65 27 -104.5t112 -39.5q99 0 154 60q16 16 25.5 12.5t13.5 -15.5l4 -12l-5 -37h119l47 327q11 81 -36 125.5t-150 44.5q-105 0 -224 -49l19 -67q85 36 154 36q60 0 90.5 -29.5t23.5 -80.5l-1 -8q-2 -9 -10 -17t-19 -8h-142q-183 -1 -202 -138zM189 173
q6 42 37.5 62.5t77.5 20.5h109q9 0 15.5 -7t5.5 -18l-7 -48q0 -4 -1 -6q-17 -42 -59 -67.5t-90 -25.5q-44 0 -69 24.5t-19 64.5zM226 632l17 116q1 11 10 18t18 7h278q11 0 17.5 -8t4.5 -17l-17 -116q-1 -11 -10.5 -18t-18.5 -7h-278q-11 0 -17 8t-4 17zM239 173
q-2 -19 7.5 -29t37.5 -10q32 0 58 15t36 37l3 20h-84q-33 0 -44.5 -7.5t-13.5 -25.5zM280 657h228l9 66h-228z" />
    <glyph glyph-name="Abreve" unicode="&#x102;" horiz-adv-x="770" 
d="M-27 10l403 700q8 15 25 15h183q17 0 21 -15l194 -700q2 -4 3 -10t-5.5 -15.5t-25.5 -9.5h-190q-17 0 -21 16l-27 113h-272l-61 -113q-8 -16 -26 -16h-183q0 1 -4 0t-9 1t-8.5 5t-3 10.5t6.5 18.5zM37 25h128l61 113q9 16 25 16h306q18 0 21 -16l28 -113h135l-180 650
h-150zM297 273l139 259q11 20 22.5 20t17.5 -10l7 -10l63 -259q4 -16 -3 -24.5t-17 -8.5l-9 -1h-202q-18 0 -22.5 8.5t-0.5 16.5zM328 919q1 10 9 18t20 8h108q10 0 16.5 -7t5.5 -16q-1 -35 26 -35t36 35q2 10 10.5 16.5t17.5 6.5h108q10 0 16.5 -7t4.5 -19
q-16 -81 -75.5 -131.5t-139.5 -50.5t-125.5 50.5t-37.5 131.5zM359 289h129l-40 165zM378 895q3 -51 34.5 -79.5t85.5 -28.5q55 0 95 28.5t57 79.5h-60q-12 -26 -34 -42t-50 -16q-27 0 -45 16t-23 42h-60z" />
    <glyph glyph-name="abreve" unicode="&#x103;" horiz-adv-x="600" 
d="M25 161q13 88 82 137.5t177 50.5h116q-3 43 -73 43q-68 0 -155 -42q-9 -5 -19.5 -2t-13.5 14l-32 114q-3 9 2 19t15 14q145 63 269 63q119 0 181 -58.5t48 -161.5l-51 -352q-1 -11 -10.5 -18t-18.5 -7h-169q-11 0 -17 8t-4 17l1 5q-64 -38 -146 -38q-94 0 -144 54
t-38 140zM75 161q-9 -65 27 -104.5t112 -39.5q99 0 154 60q16 16 25.5 12.5t13.5 -15.5l4 -12l-5 -37h119l47 327q11 81 -36 125.5t-150 44.5q-105 0 -224 -49l19 -67q85 36 154 36q60 0 90.5 -29.5t23.5 -80.5l-1 -8q-2 -9 -10 -17t-19 -8h-142q-183 -1 -202 -138zM189 173
q6 42 37.5 62.5t77.5 20.5h109q9 0 15.5 -7t5.5 -18l-7 -48q0 -4 -1 -6q-17 -42 -59 -67.5t-90 -25.5q-44 0 -69 24.5t-19 64.5zM219 758q1 10 9 18t20 8h108q10 0 16.5 -7t5.5 -16q-1 -35 26 -35t36 35q2 10 10.5 16.5t17.5 6.5h108q10 0 16.5 -7t4.5 -19
q-16 -81 -75.5 -131.5t-139.5 -50.5t-125.5 50.5t-37.5 131.5zM239 173q-2 -19 7.5 -29t37.5 -10q32 0 58 15t36 37l3 20h-84q-33 0 -44.5 -7.5t-13.5 -25.5zM269 734q3 -51 34.5 -79.5t85.5 -28.5q55 0 95 28.5t57 79.5h-60q-12 -26 -34.5 -42t-50.5 -16q-27 0 -45 16
t-23 42h-59z" />
    <glyph glyph-name="Aogonek" unicode="&#x104;" horiz-adv-x="770" 
d="M-27 10l403 701q8 15 26 15h183q16 0 20 -15l194 -701q2 -4 3 -10t-5.5 -15.5t-25.5 -9.5h-37q-37 -45 -41 -65q8 3 21 19q2 4 7 8t15 4.5t18 -10.5l37 -51q10 -13 -2 -29q-58 -79 -141 -79q-43 0 -74 27t-23 81q7 44 42 95h-11q-17 0 -21 16l-28 113h-271l-62 -113
q-8 -16 -26 -16h-183q0 1 -4 0t-9 1t-8.5 5t-3 10.5t6.5 18.5zM37 25h128l62 113q9 16 25 16h305q18 0 21 -16l29 -113h38q21 0 25 -9.5t-3 -19.5l-7 -10q-54 -67 -59 -106q-8 -58 54 -58q46 0 83 40l-11 15q-22 -18 -45 -18q-15 0 -26 8q-17 13 -13 41q5 38 62 106
q9 11 23 11h13l-180 651h-150zM297 273l140 259q11 20 22.5 20t18.5 -10l6 -10l64 -259q4 -16 -3 -24.5t-17 -8.5l-9 -1h-204q-18 0 -22.5 8.5t-0.5 16.5zM359 289h131l-41 166z" />
    <glyph glyph-name="aogonek" unicode="&#x105;" horiz-adv-x="605" 
d="M25 161q13 88 82.5 137.5t177.5 50.5h117q-5 43 -74 43q-68 0 -156 -42q-9 -5 -19.5 -2t-13.5 14l-32 114q-3 9 2 19t15 14q145 63 271 63q119 0 181.5 -58.5t48.5 -161.5l-51 -352q-1 -11 -10.5 -18t-18.5 -7h-27q-39 -49 -42 -65q10 4 22 19q2 4 7 8t15 4.5t18 -10.5
l37 -51q10 -13 -2 -29q-57 -79 -141 -79q-43 0 -74 27t-23 81q7 46 41 95q-11 0 -17.5 8t-4.5 17l1 5q-63 -38 -147 -38q-94 0 -144.5 54.5t-38.5 139.5zM75 161q-9 -65 27 -104.5t113 -39.5q100 0 155 60q16 16 25.5 12.5t13.5 -15.5l4 -12l-5 -37h21q22 0 25.5 -9.5
t-4.5 -19.5l-7 -10q-52 -62 -58 -106q-8 -58 54 -58q46 0 83 40l-11 15q-24 -18 -45 -18q-16 0 -27 8q-17 14 -13 41q5 36 63 106q9 11 23 11h16l47 327q11 81 -36.5 125.5t-150.5 44.5q-104 0 -226 -49l19 -67q86 36 155 36q59 0 90 -29t26 -80l-1 -9q-2 -9 -10 -17t-19 -8
h-144q-184 -1 -203 -138zM189 173q6 41 38 62t78 21h111q9 0 15.5 -7t5.5 -18l-7 -50q0 -3 -2 -7q-17 -40 -60 -65t-90 -25q-44 0 -69.5 24.5t-19.5 64.5zM239 173q-2 -19 8 -29t38 -10q31 0 58.5 16t37.5 35l3 21h-86q-34 0 -45.5 -7.5t-13.5 -25.5z" />
    <glyph glyph-name="Cacute" unicode="&#x106;" horiz-adv-x="692" 
d="M50 352q23 162 153.5 270.5t299.5 108.5q83 0 158.5 -34t123.5 -92q14 -16 -3 -33l-121 -122q-23 -23 -38 0q-26 38 -65.5 60t-79.5 22q-73 0 -129 -51t-67 -127q-11 -78 30.5 -129.5t113.5 -51.5q38 0 84.5 20t84.5 54q22 18 36 0l88 -110q14 -17 -5 -34
q-69 -62 -157 -99t-170 -37q-168 0 -264.5 110.5t-72.5 274.5zM100 352q-21 -144 62.5 -239.5t231.5 -95.5q65 0 137 28t132 76l-59 74q-95 -72 -185 -72q-94 0 -147.5 67t-39.5 164q14 96 86.5 162t166.5 66q96 0 164 -78l81 82q-43 44 -105.5 69.5t-128.5 25.5
q-150 0 -263 -94t-133 -235zM387 774l131 168q14 18 31 11l148 -55q2 0 4.5 -1t7.5 -5t7 -8.5t-2 -12t-15 -16.5l-147 -113q-8 -6 -17 -6h-132h-5t-9.5 1.5t-9.5 5t-2 12t10 19.5zM456 786h77l102 79l-92 34z" />
    <glyph glyph-name="cacute" unicode="&#x107;" horiz-adv-x="562" 
d="M38 268q19 134 116 218t232 84q86 0 149 -34.5t93 -98.5q9 -22 -13 -34l-135 -75q-21 -12 -32 6q-27 46 -82 46q-39 0 -68 -29.5t-36 -81.5q-8 -54 12.5 -83t59.5 -29q62 0 95 48q6 9 17 12t19 -2l115 -74q19 -12 4 -34q-47 -66 -121 -102t-165 -36q-134 0 -206.5 83
t-53.5 216zM88 268q-16 -113 43 -181t174 -68q142 0 223 92l-76 49q-51 -53 -126 -53q-62 0 -93 46t-21 116q10 69 54.5 115t106.5 46q69 0 108 -48l90 50q-58 88 -192 88q-116 0 -195.5 -68.5t-95.5 -183.5zM273 613l130 168q14 18 31 11l148 -55q2 0 4.5 -1t7.5 -5t7 -8.5
t-2 -12t-15 -16.5l-146 -113q-8 -6 -17 -6h-132h-5t-9.5 1.5t-9.5 5t-2 12t10 19.5zM341 625h78l102 79l-92 34z" />
    <glyph glyph-name="Ccaron" unicode="&#x10c;" horiz-adv-x="692" 
d="M50 352q23 162 153.5 270.5t299.5 108.5q83 0 158.5 -34t123.5 -92q14 -16 -3 -33l-121 -122q-23 -23 -38 0q-26 38 -65.5 60t-79.5 22q-73 0 -129 -51t-67 -127q-11 -78 30.5 -129.5t113.5 -51.5q38 0 84.5 20t84.5 54q22 18 36 0l88 -110q14 -17 -5 -34
q-69 -62 -157 -99t-170 -37q-168 0 -264.5 110.5t-72.5 274.5zM100 352q-21 -144 62.5 -239.5t231.5 -95.5q65 0 137 28t132 76l-59 74q-95 -72 -185 -72q-94 0 -147.5 67t-39.5 164q14 96 86.5 162t166.5 66q96 0 164 -78l81 82q-43 44 -105.5 69.5t-128.5 25.5
q-150 0 -263 -94t-133 -235zM294 907q-1 2 -2.5 4.5t-3 9.5t0 12t9 9.5t21.5 4.5h135q14 0 20 -11l31 -61l49 61q9 11 22 11h135h5t10 -2.5t10 -6t1.5 -12t-11.5 -19.5l-145 -164q-9 -10 -21 -10h-150q-13 0 -19 10zM362 897l67 -114h125l101 114h-72l-66 -81
q-13 -16 -23 -16t-14 8l-4 8l-42 81h-72z" />
    <glyph glyph-name="ccaron" unicode="&#x10d;" horiz-adv-x="562" 
d="M38 268q19 134 116 218t232 84q86 0 149 -34.5t93 -98.5q9 -22 -13 -34l-135 -75q-21 -12 -32 6q-27 46 -82 46q-39 0 -68 -29.5t-36 -81.5q-8 -54 12.5 -83t59.5 -29q62 0 95 48q6 9 17 12t19 -2l115 -74q19 -12 4 -34q-47 -66 -121 -102t-165 -36q-134 0 -206.5 83
t-53.5 216zM88 268q-16 -113 43 -181t174 -68q142 0 223 92l-76 49q-51 -53 -126 -53q-62 0 -93 46t-21 116q10 69 54.5 115t106.5 46q69 0 108 -48l90 50q-58 88 -192 88q-116 0 -195.5 -68.5t-95.5 -183.5zM180 745q-1 2 -2 4.5t-2.5 9.5t0 12t9 9.5t21.5 4.5h135
q13 0 19 -11l32 -61l49 61q9 11 22 11h135h5t9.5 -2.5t10 -6t1.5 -12t-12 -19.5l-144 -164q-9 -10 -22 -10h-150q-12 0 -18 10zM248 735l68 -114h125l100 114h-72l-65 -81q-13 -16 -23.5 -16t-14.5 8l-4 8l-42 81h-72z" />
    <glyph glyph-name="Dcaron" unicode="&#x10e;" horiz-adv-x="767" 
d="M45 0l101 700q1 11 10 18t18 7h301q175 0 271 -104.5t72 -270.5t-152 -270.5t-306 -104.5h-294q-11 0 -17 8t-4 17zM99 25h269q159 0 269 90t131 235q21 146 -61.5 235.5t-238.5 89.5h-276zM243 142l60 416q2 9 10 17t19 8h119q95 0 148 -66t38 -168q-14 -101 -83 -166.5
t-162 -65.5h-127q-9 0 -16 7t-6 18zM269 907q-1 2 -2.5 4.5t-3 9.5t0 12t9 9.5t21.5 4.5h135q15 0 20 -11l31 -61l49 61q9 11 22 11h135h5t10 -2.5t10 -6t1.5 -12t-11.5 -19.5l-145 -164q-9 -10 -21 -10h-150q-13 0 -19 10zM297 167h102q72 0 124 49.5t64 132.5t-28 133.5
t-115 50.5h-94zM337 897l67 -114h125l101 114h-72l-66 -81q-13 -16 -23 -16t-14 8l-4 8l-42 81h-72z" />
    <glyph glyph-name="dcaron" unicode="&#x10f;" horiz-adv-x="786" 
d="M39 272q19 133 106.5 216t209.5 83q82 0 135 -44l31 215q1 11 10.5 18t18.5 7h173q11 0 17 -8t4 -17l-107 -742q-1 -11 -10.5 -18t-18.5 -7h-173q-11 0 -17 8t-4 17l2 11q-64 -43 -144 -43q-124 0 -188.5 85t-44.5 219zM89 272q-17 -116 35.5 -185t155.5 -69q90 0 152 68
q16 16 25.5 12.5t12.5 -15.5l4 -12l-6 -46h123l99 692h-123l-36 -249q-3 -20 -15 -24t-22 2l-10 7q-42 68 -136 68q-101 0 -172 -67t-87 -182zM212 268q12 71 58 118t111 47t98.5 -47t23.5 -118t-57 -118.5t-112 -47.5t-98 47t-24 119zM262 268q-7 -55 15 -85.5t64 -30.5
t73 31t39 85t-14 84.5t-65 30.5t-73 -30.5t-39 -84.5zM689 433l51 90q-24 29 -17 72q7 46 42 76.5t81 30.5q44 0 71.5 -29t20.5 -78q-6 -40 -38 -80l-88 -106q-9 -11 -23 -11h-82q0 1 -4 0t-8.5 1t-8.5 5t-3.5 10.5t6.5 18.5zM752 448h31l79 95q22 27 26 52q4 27 -10 42
t-39 15q-26 0 -44 -15.5t-22 -41.5q-4 -29 15 -44q16 -12 5 -31z" />
    <glyph glyph-name="Dcroat" unicode="&#x110;" horiz-adv-x="767" 
d="M45 0l101 700q1 11 10 18t18 7h301q175 0 271 -104.5t72 -270.5t-152 -270.5t-306 -104.5h-294q-11 0 -17 8t-4 17zM99 25h269q159 0 269 90t131 235q21 146 -61.5 235.5t-238.5 89.5h-276zM243 142l60 416q2 9 10 17t19 8h119q95 0 148 -66t38 -168q-14 -101 -83 -166.5
t-162 -65.5h-127q-9 0 -16 7t-6 18zM297 167h102q72 0 124 49.5t64 132.5t-28 133.5t-115 50.5h-94zM308 793l17 116q1 11 10.5 18t18.5 7h278q11 0 17 -8t4 -17l-17 -116q-1 -11 -10 -18t-18 -7h-278q-11 0 -17.5 8t-4.5 17zM362 818h228l9 66h-228z" />
    <glyph glyph-name="dcroat" unicode="&#x111;" horiz-adv-x="686" 
d="M39 272q19 133 106.5 216t209.5 83q82 0 135 -44l6 43h-60q-11 0 -17 8t-4 17l13 89q1 11 10 18t18 7h60l5 33q1 11 10.5 18t18.5 7h173q11 0 17 -8t4 -17l-5 -33h40q11 0 17.5 -8t4.5 -17l-13 -89q-1 -11 -10.5 -18t-18.5 -7h-40l-82 -570q-1 -11 -10.5 -18t-18.5 -7
h-173q-11 0 -17 8t-4 17l2 11q-64 -43 -144 -43q-124 0 -188.5 85t-44.5 219zM89 272q-17 -116 35.5 -185t155.5 -69q90 0 152 68q16 16 25.5 12.5t12.5 -15.5l4 -12l-6 -46h123l82 570q2 9 9.5 17t18.5 8h40l6 39h-40q-9 0 -15.5 7t-5.5 18l4 33h-123l-4 -33q-2 -9 -10 -17
t-19 -8h-60l-6 -39h60q9 0 16 -7t6 -18l-19 -127q-3 -20 -15 -24t-22 2l-10 7q-42 68 -136 68q-101 0 -172 -67t-87 -182zM212 268q12 71 58 118t111 47t98.5 -47t23.5 -118t-57 -118.5t-112 -47.5t-98 47t-24 119zM262 268q-7 -55 15 -85.5t64 -30.5t73 31t39 85t-14 84.5
t-65 30.5t-73 -30.5t-39 -84.5z" />
    <glyph glyph-name="Emacron" unicode="&#x112;" horiz-adv-x="674" 
d="M45 0l101 700q1 11 10 18t18 7h548q11 0 17.5 -8t4.5 -17l-20 -140q-1 -11 -10.5 -18t-18.5 -7h-345l-13 -89h309q11 0 17.5 -8t4.5 -17l-21 -140q-1 -11 -10 -18t-18 -7h-309l-13 -91h356q11 0 17 -8t4 -17l-20 -140q-1 -11 -10.5 -18t-18.5 -7h-559q-11 0 -17 8t-4 17z
M99 25h509l13 90h-356q-9 0 -16 7t-6 18l20 141q2 9 10 17t19 8h309l13 90h-309q-9 0 -15.5 7t-5.5 18l20 139q2 9 10 17t18 8h345l13 90h-498zM296 793l17 116q1 11 10.5 18t18.5 7h278q11 0 17 -8t4 -17l-17 -116q-1 -11 -10 -18t-18 -7h-278q-11 0 -17.5 8t-4.5 17z
M350 818h228l9 66h-228z" />
    <glyph glyph-name="emacron" unicode="&#x113;" horiz-adv-x="602" 
d="M38 268q19 135 116.5 218.5t232.5 83.5q5 0 13.5 -0.5t12.5 -0.5q138 -8 195 -102t26 -246q-5 -23 -28 -23h-108l2 -2l78 -89q6 -7 5 -17t-9 -18q-109 -103 -268 -103q-140 0 -214 83t-54 216zM88 268q-17 -114 43 -181.5t182 -67.5q120 0 209 70l-48 55
q-63 -46 -135 -46q-56 0 -91.5 31.5t-42.5 87.5q-1 11 2 18t10 9.5t10 3t7 0.5h355q21 131 -32 201.5t-177 70.5q-116 0 -196 -68.5t-96 -183.5zM216 320q18 57 60 93.5t96 36.5q57 0 87.5 -37.5t22.5 -96.5q-2 -9 -10 -17t-19 -8h-216q-29 0 -21 29zM228 632l17 116
q1 11 10 18t18 7h278q11 0 17.5 -8t4.5 -17l-17 -116q-1 -11 -10.5 -18t-18.5 -7h-278q-11 0 -17 8t-4 17zM263 198q21 -50 83 -50q65 0 119 48l2 2h-204zM277 341h155q-5 59 -67 59q-56 0 -88 -59zM282 657h228l9 66h-228z" />
    <glyph glyph-name="Edotaccent" unicode="&#x116;" horiz-adv-x="674" 
d="M45 0l101 700q1 11 10 18t18 7h548q11 0 17.5 -8t4.5 -17l-20 -140q-1 -11 -10.5 -18t-18.5 -7h-345l-13 -89h309q11 0 17.5 -8t4.5 -17l-21 -140q-1 -11 -10 -18t-18 -7h-309l-13 -91h356q11 0 17 -8t4 -17l-20 -140q-1 -11 -10.5 -18t-18.5 -7h-559q-11 0 -17 8t-4 17z
M99 25h509l13 90h-356q-9 0 -16 7t-6 18l20 141q2 9 10 17t19 8h309l13 90h-309q-9 0 -15.5 7t-5.5 18l20 139q2 9 10 17t18 8h345l13 90h-498zM353 855q8 50 46 83t87 33q50 0 78 -33.5t21 -82.5q-7 -50 -45 -83.5t-88 -33.5t-78 33.5t-21 83.5zM403 855q-4 -31 11.5 -49
t45.5 -18t50 18t25 49q5 30 -10.5 48t-45.5 18t-51 -18t-25 -48z" />
    <glyph glyph-name="edotaccent" unicode="&#x117;" horiz-adv-x="602" 
d="M38 268q19 135 116.5 218.5t232.5 83.5q5 0 13.5 -0.5t12.5 -0.5q138 -8 195 -102t26 -246q-5 -23 -28 -23h-108l2 -2l78 -89q6 -7 5 -17t-9 -18q-109 -103 -268 -103q-140 0 -214 83t-54 216zM88 268q-17 -114 43 -181.5t182 -67.5q120 0 209 70l-48 55
q-63 -46 -135 -46q-56 0 -91.5 31.5t-42.5 87.5q-1 11 2 18t10 9.5t10 3t7 0.5h355q21 131 -32 201.5t-177 70.5q-116 0 -196 -68.5t-96 -183.5zM216 320q18 57 60 93.5t96 36.5q57 0 87.5 -37.5t22.5 -96.5q-2 -9 -10 -17t-19 -8h-216q-29 0 -21 29zM263 198q21 -50 83 -50
q65 0 119 48l2 2h-204zM277 341h155q-5 59 -67 59q-56 0 -88 -59zM285 694q8 50 46 83t87 33q50 0 78 -33.5t21 -82.5q-7 -50 -45 -83.5t-88 -33.5t-78 33.5t-21 83.5zM335 694q-4 -31 11 -49t45 -18t51 18t25 49q5 30 -10.5 48t-45.5 18t-51 -18t-25 -48z" />
    <glyph glyph-name="Eogonek" unicode="&#x118;" horiz-adv-x="678" 
d="M45 0l101 700q1 11 10 18t18 7h553q11 0 17.5 -8t4.5 -17l-20 -136q-1 -11 -10 -18t-18 -7h-350l-14 -93h314q11 0 17.5 -8t4.5 -17l-20 -136q-1 -11 -10.5 -18t-18.5 -7h-314l-14 -99h360q11 0 17.5 -8t4.5 -17l-20 -136q-1 -11 -10.5 -18t-18.5 -7h-57q-38 -48 -41 -65
q8 3 21 19q3 4 7.5 8t14.5 6t18 -11l38 -51q10 -13 -2 -30q-60 -79 -142 -79q-43 0 -73.5 26.5t-22.5 81.5q7 46 41 95h-365q-11 0 -17 8t-4 17zM99 25h384q22 0 25.5 -9.5t-3.5 -19.5l-7 -10q-53 -65 -58 -106q-8 -58 53 -58q44 0 83 40l-11 15q-24 -18 -45 -18
q-16 0 -25 8q-17 13 -14 41q5 38 62 106q9 11 23 11h46l12 86h-360q-9 0 -15.5 7t-5.5 18l21 149q2 9 10 17t19 8h314l12 86h-314q-9 0 -15.5 7t-5.5 18l20 143q2 9 10 17t19 8h350l12 86h-503z" />
    <glyph glyph-name="eogonek" unicode="&#x119;" horiz-adv-x="602" 
d="M39 269q19 133 114 216.5t235 84.5q20 0 30 -1q133 -8 190 -102.5t26 -245.5q-2 -10 -10.5 -16.5t-17.5 -6.5h-108l2 -2l78 -89q13 -17 -4 -34q-44 -43 -83 -92.5t-43 -70.5q9 6 20 19q24 24 40 2l37 -51q10 -13 -2 -29q-56 -79 -140 -79q-43 0 -74 27t-23 82q5 41 37 91
q-23 -3 -39 -3q-139 0 -212 83t-53 217zM89 269q-17 -115 42.5 -182.5t179.5 -67.5q44 0 87 20q15 7 22 -2t6 -22l-1 -13q-62 -71 -69 -121q-5 -31 11 -45t43 -14q46 0 82 40l-11 15q-22 -18 -44 -18q-20 0 -31 15t-8 35q8 59 125 178l-49 57q-66 -47 -135 -47
q-57 0 -91.5 32t-41.5 87q-2 14 5.5 22t13 9t10.5 1h354q20 128 -31 199.5t-167 72.5h-10q-121 -1 -198.5 -69.5t-93.5 -181.5zM216 319q16 57 59 94t98 37q56 0 86.5 -38.5t22.5 -95.5q-2 -9 -10 -17t-19 -8h-216q-15 0 -19.5 9t-1.5 19zM264 198q20 -51 82 -51
q64 0 119 49l2 2h-203zM276 341h156q-6 59 -66 59q-58 0 -90 -59z" />
    <glyph glyph-name="Ecaron" unicode="&#x11a;" horiz-adv-x="674" 
d="M45 0l101 700q1 11 10 18t18 7h548q11 0 17.5 -8t4.5 -17l-20 -140q-1 -11 -10.5 -18t-18.5 -7h-345l-13 -89h309q11 0 17.5 -8t4.5 -17l-21 -140q-1 -11 -10 -18t-18 -7h-309l-13 -91h356q11 0 17 -8t4 -17l-20 -140q-1 -11 -10.5 -18t-18.5 -7h-559q-11 0 -17 8t-4 17z
M99 25h509l13 90h-356q-9 0 -16 7t-6 18l20 141q2 9 10 17t19 8h309l13 90h-309q-9 0 -15.5 7t-5.5 18l20 139q2 9 10 17t18 8h345l13 90h-498zM257 907q-1 2 -2.5 4.5t-3 9.5t0 12t9 9.5t21.5 4.5h135q15 0 20 -11l31 -61l49 61q9 11 22 11h135h5t10 -2.5t10 -6t1.5 -12
t-11.5 -19.5l-145 -164q-9 -10 -21 -10h-150q-13 0 -19 10zM325 897l67 -114h125l101 114h-72l-66 -81q-13 -16 -23 -16t-14 8l-4 8l-42 81h-72z" />
    <glyph glyph-name="ecaron" unicode="&#x11b;" horiz-adv-x="602" 
d="M38 268q19 135 116.5 218.5t232.5 83.5q5 0 13.5 -0.5t12.5 -0.5q138 -8 195 -102t26 -246q-5 -23 -28 -23h-108l2 -2l78 -89q6 -7 5 -17t-9 -18q-109 -103 -268 -103q-140 0 -214 83t-54 216zM88 268q-17 -114 43 -181.5t182 -67.5q120 0 209 70l-48 55
q-63 -46 -135 -46q-56 0 -91.5 31.5t-42.5 87.5q-1 11 2 18t10 9.5t10 3t7 0.5h355q21 131 -32 201.5t-177 70.5q-116 0 -196 -68.5t-96 -183.5zM187 745q-1 2 -2 4.5t-2.5 9.5t0 12t9 9.5t21.5 4.5h135q14 0 19 -11l32 -61l49 61q9 11 22 11h135h5t9.5 -2.5t10 -6t1.5 -12
t-12 -19.5l-144 -164q-9 -10 -22 -10h-150q-12 0 -18 10zM216 320q18 57 60 93.5t96 36.5q57 0 87.5 -37.5t22.5 -96.5q-2 -9 -10 -17t-19 -8h-216q-29 0 -21 29zM255 735l68 -114h125l100 114h-72l-65 -81q-13 -16 -23.5 -16t-14.5 8l-4 8l-42 81h-72zM263 198
q21 -50 83 -50q65 0 119 48l2 2h-204zM277 341h155q-5 59 -67 59q-56 0 -88 -59z" />
    <glyph glyph-name="Gbreve" unicode="&#x11e;" horiz-adv-x="743" 
d="M49 350q23 163 157 272t309 109q83 0 160 -29.5t127 -80.5q16 -17 -2 -35l-118 -121q-8 -8 -18 -9t-18 7q-30 32 -73 50.5t-87 18.5q-76 0 -135 -52t-70 -130q-11 -79 33 -131.5t121 -52.5q44 0 102 25l24 165q1 11 10.5 18t18.5 7h154q11 0 17 -8t4 -17l-39 -273
q-1 -12 -14 -20q-66 -43 -153.5 -69.5t-165.5 -26.5q-170 0 -268.5 110t-75.5 273zM99 350q-20 -143 65.5 -238t235.5 -95q65 0 142 22t136 57l34 235h-104l-23 -156q-2 -15 -17 -22q-81 -37 -140 -37q-98 0 -154.5 67.5t-42.5 166.5q14 98 89.5 165t172.5 67t174 -66l80 83
q-45 38 -109 60t-130 22q-156 0 -272.5 -94.5t-136.5 -236.5zM335 919q1 10 9 18t20 8h108q10 0 16.5 -7t5.5 -16q-1 -35 26 -35t36 35q2 10 10.5 16.5t17.5 6.5h108q10 0 16.5 -7t4.5 -19q-16 -81 -75.5 -131.5t-139.5 -50.5t-125.5 50.5t-37.5 131.5zM385 895
q3 -51 34.5 -79.5t85.5 -28.5q55 0 95 28.5t57 79.5h-60q-12 -26 -34 -42t-50 -16q-27 0 -45 16t-23 42h-60z" />
    <glyph glyph-name="gbreve" unicode="&#x11f;" horiz-adv-x="647" 
d="M13 -119l77 117q17 25 37 10q66 -50 146 -50q53 0 83.5 22.5t36.5 61.5q-60 -38 -135 -38q-113 0 -173.5 80t-42.5 206q18 123 99.5 201.5t193.5 78.5q78 1 129 -39l1 8q1 11 10 18t18 7h172q11 0 17.5 -8t4.5 -17l-71 -490q-18 -125 -118 -200t-239 -75q-142 0 -243 75
q-17 12 -3 32zM67 -121q86 -55 200 -55q123 0 203.5 61t95.5 164l67 465h-122l-6 -41q-3 -20 -15 -24t-22 3l-10 6q-39 63 -130 62q-91 0 -156 -62.5t-80 -167.5q-16 -108 32.5 -172t140.5 -64q88 0 144 62q16 16 25.5 12.5t13.5 -15.5l4 -12l-9 -57q-9 -62 -58 -99
t-119 -37q-83 0 -151 43zM202 285q10 67 55 112t107 45q61 0 92.5 -44.5t21.5 -112.5q-9 -67 -53.5 -111.5t-105.5 -44.5q-62 0 -94.5 45t-22.5 111zM244 758q1 10 9 18t20 8h108q10 0 16.5 -7t5.5 -16q-1 -35 26 -35t36 35q2 10 10.5 16.5t17.5 6.5h108q10 0 16.5 -7
t4.5 -19q-16 -81 -75.5 -131.5t-139.5 -50.5t-125.5 50.5t-37.5 131.5zM252 285q-7 -49 13.5 -77.5t60.5 -28.5q39 0 67 28.5t35 77.5q7 51 -13 79t-59 28q-40 0 -68.5 -28.5t-35.5 -78.5zM294 734q3 -51 34.5 -79.5t85.5 -28.5q55 0 95 28.5t57 79.5h-60q-12 -26 -34.5 -42
t-50.5 -16q-27 0 -45 16t-23 42h-59z" />
    <glyph glyph-name="Gcommaaccent" unicode="&#x122;" horiz-adv-x="743" 
d="M49 350q23 163 157 272t309 109q83 0 160 -29.5t127 -80.5q16 -17 -2 -35l-118 -121q-8 -8 -18 -9t-18 7q-30 32 -73 50.5t-87 18.5q-76 0 -135 -52t-70 -130q-11 -79 33 -131.5t121 -52.5q44 0 102 25l24 165q1 11 10.5 18t18.5 7h154q11 0 17 -8t4 -17l-39 -273
q-1 -12 -14 -20q-66 -43 -153.5 -69.5t-165.5 -26.5q-170 0 -268.5 110t-75.5 273zM99 350q-20 -143 65.5 -238t235.5 -95q65 0 142 22t136 57l34 235h-104l-23 -156q-2 -15 -17 -22q-81 -37 -140 -37q-98 0 -154.5 67.5t-42.5 166.5q14 98 89.5 165t172.5 67t174 -66l80 83
q-45 38 -109 60t-130 22q-156 0 -272.5 -94.5t-136.5 -236.5zM239 -285l51 89q-25 29 -18 72q7 46 42.5 77t81.5 31q44 0 71 -29t20 -78q-5 -40 -38 -80l-88 -106q-9 -11 -22 -11h-82q0 1 -4 0t-8.5 1t-8.5 5t-3.5 10.5t6.5 18.5zM302 -270h31l79 95q21 26 25 52
q4 27 -10 42t-39 15q-26 0 -44 -15.5t-22 -42.5q-4 -28 16 -44q14 -12 4 -31z" />
    <glyph glyph-name="gcommaaccent" unicode="&#x123;" horiz-adv-x="647" 
d="M13 -119l77 117q17 25 37 10q66 -50 146 -50q53 0 83.5 22.5t36.5 61.5q-60 -38 -135 -38q-113 0 -173.5 80t-42.5 206q18 123 99.5 201.5t193.5 78.5q78 1 129 -39l1 8q1 11 10 18t18 7h172q11 0 17.5 -8t4.5 -17l-71 -490q-18 -125 -118 -200t-239 -75q-142 0 -243 75
q-17 12 -3 32zM67 -121q86 -55 200 -55q123 0 203.5 61t95.5 164l67 465h-122l-6 -41q-3 -20 -15 -24t-22 3l-10 6q-39 63 -130 62q-91 0 -156 -62.5t-80 -167.5q-16 -108 32.5 -172t140.5 -64q88 0 144 62q16 16 25.5 12.5t13.5 -15.5l4 -12l-9 -57q-9 -62 -58 -99
t-119 -37q-83 0 -151 43zM202 285q10 67 55 112t107 45q61 0 92.5 -44.5t21.5 -112.5q-9 -67 -53.5 -111.5t-105.5 -44.5q-62 0 -94.5 45t-22.5 111zM252 285q-7 -49 13.5 -77.5t60.5 -28.5q39 0 67 28.5t35 77.5q7 51 -13 79t-59 28q-40 0 -68.5 -28.5t-35.5 -78.5z
M305 662q5 40 38 80l89 106q9 11 22 11h82q0 -1 4 0t8.5 -1t8.5 -5t3.5 -10.5t-6.5 -18.5l-51 -89q25 -29 18 -72q-7 -46 -42.5 -77t-81.5 -31q-44 0 -71.5 29t-20.5 78zM355 662q-4 -27 10 -42t39 -15q27 0 45 15.5t22 42.5q4 28 -16 44q-15 13 -5 31l41 71h-31l-80 -95
q-21 -26 -25 -52z" />
    <glyph glyph-name="hbar" unicode="&#x127;" horiz-adv-x="743" 
d="M49 0l79 551h-54q-11 0 -17 8t-4 17l14 94q1 11 10 18t18 7h54l7 47q1 11 10.5 18t18.5 7h173q11 0 17 -8t4 -17l-7 -47h93q11 0 17.5 -8t4.5 -17l-14 -94q0 -3 -2 -7q19 3 39 3q100 0 152 -64t37 -168l-49 -340q-1 -11 -10.5 -18t-18.5 -7h-173q-11 0 -17 8t-4 17
l42 292q10 77 -59 77q-39 0 -66 -27.5t-34 -75.5l-38 -266q-1 -11 -10.5 -18t-18.5 -7h-173q-11 0 -17 8t-4 17zM103 25h123l34 241q9 65 52 109t105 44q54 0 82 -35.5t20 -91.5l-38 -267h123l45 315q12 85 -27.5 133.5t-118.5 48.5q-30 0 -60 -8q-68 -18 -111 -77
q-13 -15 -23 -12t-16 14l-6 11l18 126q2 9 10 17t19 8h93l6 44h-93q-9 0 -15.5 7t-5.5 18l6 47h-123l-6 -47q-2 -9 -10 -17t-19 -8h-54l-6 -44h54q9 0 15.5 -7t5.5 -18zM347 518q28 22 56 33h-52z" />
    <glyph glyph-name="Itilde" unicode="&#x128;" horiz-adv-x="318" 
d="M45 0l101 700q1 11 10 18t18 7h178q11 0 17.5 -8t4.5 -17l-101 -700q-1 -11 -10.5 -18t-18.5 -7h-178q-11 0 -17 8t-4 17zM69 782q12 85 51.5 133t104.5 48q20 0 38 -5t30 -11.5t21 -13.5t14 -12l5 -5h3q2 2 5 17q1 11 10.5 18t18.5 7h105q11 0 17 -8t4 -17
q-12 -85 -50.5 -132.5t-103.5 -47.5q-20 0 -38.5 5t-31 11.5t-21.5 13.5t-14 12l-5 5h-2q-2 -2 -5 -18q-1 -11 -10.5 -18t-18.5 -7h-106q-11 0 -17 8t-4 17zM99 25h128l93 650h-128zM123 807h58q8 23 26 34q15 9 32 9q28 0 57 -23.5t53 -23.5q37 0 59 23t34 82h-57
q-9 -22 -24 -32q-14 -10 -35 -10q-28 0 -56.5 23.5t-51.5 23.5q-37 0 -60 -23.5t-35 -82.5z" />
    <glyph glyph-name="itilde" unicode="&#x129;" horiz-adv-x="311" 
d="M41 621q12 85 52 133t105 48q20 0 38 -5t30 -12t21 -13.5t14 -11.5l5 -5h3q2 2 5 17q1 11 10.5 18t18.5 7h105q11 0 17 -8t4 -17q-12 -85 -51 -132.5t-104 -47.5q-20 0 -38.5 5t-30.5 12t-21 13.5t-14 11.5l-5 5h-2q-3 -3 -6 -18q-1 -11 -10 -18t-18 -7h-106
q-11 0 -17.5 8t-4.5 17zM44 0l78 539q1 11 10 18t18 7h172q11 0 17.5 -8t4.5 -17l-78 -539q-1 -11 -10.5 -18t-18.5 -7h-172q-11 0 -17 8t-4 17zM96 646h58q8 23 26 34q15 9 32 9q28 0 57 -23.5t53 -23.5q37 0 59 23t34 82h-57q-9 -21 -25 -32q-14 -10 -34 -10
q-28 0 -57 23.5t-52 23.5q-37 0 -59.5 -23.5t-34.5 -82.5zM98 25h122l70 489h-122z" />
    <glyph glyph-name="Imacron" unicode="&#x12a;" horiz-adv-x="318" 
d="M45 0l101 700q1 11 10 18t18 7h178q11 0 17.5 -8t4.5 -17l-101 -700q-1 -11 -10.5 -18t-18.5 -7h-178q-11 0 -17 8t-4 17zM99 25h128l93 650h-128zM109 793l17 116q1 11 10.5 18t18.5 7h278q11 0 17 -8t4 -17l-17 -116q-1 -11 -10 -18t-18 -7h-278q-11 0 -17.5 8t-4.5 17
zM163 818h228l9 66h-228z" />
    <glyph glyph-name="imacron" unicode="&#x12b;" horiz-adv-x="311" 
d="M44 0l78 539q1 11 10 18t18 7h172q11 0 17.5 -8t4.5 -17l-78 -539q-1 -11 -10.5 -18t-18.5 -7h-172q-11 0 -17 8t-4 17zM82 632l17 116q1 11 10 18t18 7h278q11 0 17.5 -8t4.5 -17l-17 -116q-1 -11 -10.5 -18t-18.5 -7h-278q-11 0 -17 8t-4 17zM98 25h122l70 489h-122z
M136 657h228l9 66h-228z" />
    <glyph glyph-name="Iogonek" unicode="&#x12e;" horiz-adv-x="318" 
d="M37 -120q7 46 41 95h-12q-11 0 -17 8t-4 17l101 701q1 11 10.5 18t18.5 7h178q11 0 17 -8t4 -17l-101 -701q-1 -11 -10.5 -18t-18.5 -7h-24q-37 -47 -42 -65q10 4 22 19q2 4 7 8t15 4.5t18 -10.5l37 -51q10 -13 -2 -29q-57 -79 -141 -79q-43 0 -74 27t-23 81zM87 -120
q-8 -58 54 -58q46 0 83 40l-11 15q-24 -18 -46 -18q-15 0 -27 9q-15 14 -12 40q5 36 63 106q9 11 23 11h13l93 651h-128l-93 -651h31q21 0 25 -9.5t-3 -19.5l-7 -10q-53 -66 -58 -106z" />
    <glyph glyph-name="iogonek" unicode="&#x12f;" horiz-adv-x="290" 
d="M19 -120q7 46 41 95h-4q-11 0 -17 8t-4 17l78 539q1 11 10 18t18 7h172q11 0 17.5 -8t4.5 -17l-78 -539q-1 -11 -10.5 -18t-18.5 -7h-26q-39 -49 -42 -65q10 4 22 19q2 4 7 8t15 4.5t18 -10.5l37 -51q10 -13 -2 -29q-57 -79 -141 -79q-43 0 -74 26.5t-23 81.5zM69 -120
q-8 -58 54 -58q46 0 83 40l-11 15q-24 -18 -45 -18q-16 0 -27 8q-17 14 -13 41q5 36 63 106q9 11 23 11h15l70 489h-122l-70 -489h23q21 0 25 -9.5t-3 -19.5l-7 -10q-53 -66 -58 -106zM129 693q7 50 45.5 83.5t88.5 33.5t78.5 -33.5t21.5 -83.5q-8 -50 -46 -83t-88 -33
t-78.5 33t-21.5 83zM179 693q-5 -29 11 -47.5t46 -18.5q31 0 51.5 18t25.5 48q5 31 -10.5 49t-46.5 18q-30 0 -51.5 -18t-25.5 -49z" />
    <glyph glyph-name="Idotaccent" unicode="&#x130;" horiz-adv-x="318" 
d="M45 0l101 700q1 11 10 18t18 7h178q11 0 17.5 -8t4.5 -17l-101 -700q-1 -11 -10.5 -18t-18.5 -7h-178q-11 0 -17 8t-4 17zM99 25h128l93 650h-128zM166 855q8 50 46 83t87 33q50 0 78 -33.5t21 -82.5q-7 -50 -45 -83.5t-88 -33.5t-78 33.5t-21 83.5zM216 855
q-4 -31 11.5 -49t45.5 -18t50 18t25 49q5 30 -10.5 48t-45.5 18t-51 -18t-25 -48z" />
    <glyph glyph-name="dotlessi" unicode="&#x131;" horiz-adv-x="311" 
d="M44 0l78 539q1 11 10 18t18 7h172q11 0 17.5 -8t4.5 -17l-78 -539q-1 -11 -10.5 -18t-18.5 -7h-172q-11 0 -17 8t-4 17zM98 25h122l70 489h-122z" />
    <glyph glyph-name="IJ" unicode="&#x132;" horiz-adv-x="853" 
d="M45 0l101 700q1 11 10 18t18 7h178q11 0 17.5 -8t4.5 -17l-101 -700q-1 -11 -10.5 -18t-18.5 -7h-178q-11 0 -17 8t-4 17zM99 25h128l93 650h-128zM307 88q-11 15 2 30l100 119q21 25 39 3q28 -35 60.5 -52.5t57.5 -17.5q26 0 40 13.5t19 47.5l44 301h-215q-11 0 -17.5 8
t-4.5 17l21 144q1 11 10.5 18t18.5 7h419q11 0 17 -8t4 -17l-68 -474q-17 -120 -100 -190t-205 -70q-154 0 -242 121zM360 106q75 -89 196 -89q103 0 168 54.5t80 155.5l64 449h-369l-13 -94h215q9 0 15.5 -7t5.5 -18l-47 -326q-8 -50 -39 -80.5t-77 -30.5q-68 0 -133 65z
" />
    <glyph glyph-name="ij" unicode="&#x133;" horiz-adv-x="630" 
d="M44 0l78 539q1 11 10 18t18 7h172q11 0 17.5 -8t4.5 -17l-78 -539q-1 -11 -10.5 -18t-18.5 -7h-172q-11 0 -17 8t-4 17zM98 25h122l70 489h-122zM140 694q8 50 46 83t87 33q50 0 78 -33.5t21 -82.5q-7 -50 -45 -83.5t-88 -33.5t-78 33.5t-21 83.5zM178 -157l61 121
q14 27 38 12t47 -15q15 -1 22 6t10 28l79 544q1 11 10 18t18 7h173q11 0 17.5 -8t4.5 -17l-80 -555q-14 -98 -86 -154.5t-166 -55.5q-85 0 -142 39q-15 10 -6 30zM190 694q-4 -31 11 -49t45 -18t51 18t25 49q5 30 -10.5 48t-45.5 18t-51 -18t-25 -48zM233 -154
q42 -22 101 -22q77 -1 130 41t64 119l76 530h-123l-75 -519q-5 -38 -30 -61.5t-60 -22.5q-22 0 -45 9zM445 693q7 51 47.5 84t92.5 33q53 0 83 -33t23 -84t-47 -83.5t-93 -32.5q-52 0 -82.5 33t-23.5 83zM495 693q-5 -29 12.5 -47.5t50.5 -18.5q34 0 56 18.5t27 47.5
q5 30 -12 48.5t-51 18.5q-33 0 -55.5 -18.5t-27.5 -48.5z" />
    <glyph glyph-name="Jcircumflex" unicode="&#x134;" horiz-adv-x="536" 
d="M-11 88q-11 15 2 30l100 119q21 25 39 3q28 -35 60.5 -52.5t57.5 -17.5q26 0 40 13.5t19 47.5l44 301h-215q-11 0 -17.5 8t-4.5 17l21 144q1 11 10.5 18t18.5 7h419q11 0 17 -8t4 -17l-68 -474q-17 -120 -100 -190t-205 -70q-154 0 -242 121zM42 106q75 -89 196 -89
q103 0 168 54.5t80 155.5l64 449h-369l-13 -94h215q9 0 15.5 -7t5.5 -18l-47 -326q-8 -50 -39 -80.5t-77 -30.5q-68 0 -133 65zM177 786l135 151q10 10 21 10h138q13 0 19 -10l91 -151q1 -2 2.5 -4.5t3 -9.5t0 -12t-9 -9.5t-21.5 -4.5h-124q-14 0 -20 11l-29 55l-45 -55
q-9 -11 -22 -11h-124q-2 0 -5 0.5t-10 2.5t-10 6t-1.5 12t11.5 19zM249 796h60l62 74q8 9 15 12.5t11.5 2t8 -5t4.5 -6.5l2 -3l40 -74h61l-61 101h-113z" />
    <glyph glyph-name="jcircumflex" unicode="&#x135;" horiz-adv-x="308" 
d="M-136 -158l57 119q14 29 38 14q25 -16 49 -16q17 -1 26 8t13 38l77 534q1 11 10 18t18 7h173q11 0 17.5 -8t4.5 -17l-81 -559q-13 -95 -80.5 -151t-165.5 -55q-87 2 -149 38q-17 10 -7 30zM-81 -153q48 -22 109 -23q79 -1 128.5 40t59.5 116l77 534h-123l-73 -509
q-6 -43 -31 -70t-65 -26q-24 0 -48 9zM39 625l135 151q10 10 21 10h138q13 0 19 -10l91 -151q1 -2 2 -4.5t2.5 -9.5t0 -12t-9 -9.5t-21.5 -4.5h-124q-13 0 -19 11l-29 55l-45 -55q-9 -11 -23 -11h-124q-2 0 -5 0.5t-9.5 2.5t-10 6t-1.5 12t12 19zM110 635h61l62 74
q8 9 15 12.5t11.5 2t8 -5t4.5 -6.5l2 -3l40 -74h61l-61 101h-113z" />
    <glyph glyph-name="Kcommaaccent" unicode="&#x136;" horiz-adv-x="747" 
d="M45 0l101 700q1 11 10 18t18 7h178q11 0 17.5 -8t4.5 -17l-34 -237l261 254q10 8 19 8h206q2 0 5 -0.5t10 -3.5t10 -7t1 -12.5t-13 -18.5l-287 -275l210 -394q1 -2 2 -4.5t2.5 -9t-0.5 -12t-9.5 -9.5t-21.5 -4h-213q-14 0 -19 11l-131 248l-76 -72l-23 -162
q-1 -11 -10.5 -18t-18.5 -7h-178q-11 0 -17 8t-4 17zM99 25h128l21 147q2 10 9 17l107 103q23 22 39 -3l140 -264h153l-198 371q-8 16 7 31l258 248h-138l-303 -295q-18 -15 -27.5 -11.5t-12.5 15.5l-2 13l40 278h-128zM211 -285l51 89q-25 29 -18 72q7 46 42.5 77t81.5 31
q44 0 71 -29t20 -78q-5 -40 -38 -80l-88 -106q-9 -11 -22 -11h-82q0 1 -4 0t-8.5 1t-8.5 5t-3.5 10.5t6.5 18.5zM274 -270h31l79 95q21 26 25 52q4 27 -10 42t-39 15q-26 0 -44 -15.5t-22 -42.5q-4 -28 16 -44q14 -12 4 -31z" />
    <glyph glyph-name="kcedilla" unicode="&#x137;" horiz-adv-x="630" 
d="M-27 -193l42 71q1 1 2 3.5t5 7t8.5 6.5t11.5 0t14 -9q12 -12 28 -12q19 0 21 14q1 5 0 7.5t-5 4.5t-13 2q-17 0 -31 -3q-2 0 -5 -0.5t-10.5 0.5t-11.5 4t-3.5 11.5t8.5 20.5l27 42q-14 6 -12 23l107 742q1 11 10.5 18t18.5 7h173q11 0 17 -8t4 -17l-47 -329l155 143
q10 8 19 8h196q2 0 5 -0.5t10 -3.5t10 -7.5t0.5 -12.5t-13.5 -18l-212 -193l148 -316v-1q1 -1 2 -3.5t1.5 -5t1 -6t-0.5 -6.5t-3 -6t-5.5 -5t-9 -3.5t-13.5 -1.5h-205q-14 0 -20 13l-74 178l-32 -29l-20 -137q-1 -11 -10.5 -18t-18.5 -7h-31l-7 -11q24 -14 36.5 -38.5
t8.5 -53.5q-9 -59 -56.5 -95t-113.5 -36q-57 0 -103 36q-14 11 -4 30zM28 -193q29 -16 59 -16q50 0 79 22t34 59q2 19 -9 34t-33 21q-29 8 -10 36l33 49q9 13 24 13h21l17 122q2 9 10 17l66 61q26 23 40 -5l81 -195h146l-138 294q-8 15 7 30l182 165h-127l-197 -181
q-18 -15 -27.5 -11t-11.5 16l-2 12l53 367h-123l-99 -692h5q20 0 24 -9t-2 -18l-5 -9l-24 -37q25 -2 41.5 -18.5t12.5 -44.5q-4 -29 -26.5 -47t-51.5 -18q-19 0 -35 8z" />
    <glyph glyph-name="kgreenlandic" unicode="&#x138;" horiz-adv-x="624" 
d="M44 0l78 539q1 11 10 18t18 7h172q11 0 17.5 -8t4.5 -17l-18 -126l155 143q10 8 19 8h196q2 0 5 -0.5t10 -3.5t10 -7.5t0.5 -12.5t-13.5 -18l-212 -193l148 -316v-1q1 -1 2 -3.5t1.5 -5t1 -6t-0.5 -6.5t-3 -6t-5.5 -5t-9 -3.5t-13.5 -1.5h-205q-14 0 -20 13l-74 178
l-32 -29l-20 -137q-1 -11 -10.5 -18t-18.5 -7h-172q-11 0 -17 8t-4 17zM98 25h122l17 122q2 9 10 17l66 61q26 23 40 -5l81 -195h146l-138 294q-8 15 7 30l182 165h-127l-197 -181q-18 -15 -27.5 -11t-11.5 16l-2 12l24 164h-122z" />
    <glyph glyph-name="Lacute" unicode="&#x139;" horiz-adv-x="560" 
d="M45 0l101 700q1 11 10 18t18 7h178q11 0 17.5 -8t4.5 -17l-76 -526h272q11 0 17 -8t4 -17l-21 -149q-1 -11 -10.5 -18t-18.5 -7h-475q-11 0 -17 8t-4 17zM99 25h425l14 99h-272q-9 0 -16 7t-6 18l76 526h-128zM159 774l131 168q14 18 31 11l148 -55q2 0 4.5 -1t7.5 -5
t7 -8.5t-2 -12t-15 -16.5l-147 -113q-8 -6 -17 -6h-132h-5t-9.5 1.5t-9.5 5t-2 12t10 19.5zM228 786h77l102 79l-92 34z" />
    <glyph glyph-name="lacute" unicode="&#x13a;" horiz-adv-x="321" 
d="M49 0l107 742q1 11 10.5 18t18.5 7h173q11 0 17 -8t4 -17l-107 -742q-1 -11 -10.5 -18t-18.5 -7h-173q-11 0 -17 8t-4 17zM103 25h123l99 692h-123zM170 816l131 168q14 18 31 11l148 -55q2 0 4.5 -1t7.5 -5t7 -8.5t-2 -12t-15 -16.5l-147 -113q-7 -6 -17 -6h-132h-5
t-9.5 1.5t-9.5 5t-2 12t10 19.5zM239 828h77l102 79l-92 34z" />
    <glyph glyph-name="Lcommaaccent" unicode="&#x13b;" horiz-adv-x="560" 
d="M45 0l101 700q1 11 10 18t18 7h178q11 0 17.5 -8t4.5 -17l-76 -526h272q11 0 17 -8t4 -17l-21 -149q-1 -11 -10.5 -18t-18.5 -7h-475q-11 0 -17 8t-4 17zM99 25h425l14 99h-272q-9 0 -16 7t-6 18l76 526h-128zM138 -285l51 89q-25 29 -18 72q7 46 42.5 77t81.5 31
q44 0 71 -29t20 -78q-5 -40 -38 -80l-88 -106q-9 -11 -22 -11h-82q0 1 -4 0t-8.5 1t-8.5 5t-3.5 10.5t6.5 18.5zM201 -270h31l79 95q21 26 25 52q4 27 -10 42t-39 15q-26 0 -44 -15.5t-22 -42.5q-4 -28 16 -44q14 -12 4 -31z" />
    <glyph glyph-name="lcommaaccent" unicode="&#x13c;" horiz-adv-x="321" 
d="M9 -285l51 89q-25 29 -18 72q7 46 42.5 77t81.5 31q44 0 71 -29t20 -78q-5 -40 -38 -80l-88 -106q-9 -11 -22 -11h-82q0 1 -4 0t-8.5 1t-8.5 5t-3.5 10.5t6.5 18.5zM49 0l107 742q1 11 10.5 18t18.5 7h173q11 0 17 -8t4 -17l-107 -742q-1 -11 -10.5 -18t-18.5 -7h-173
q-11 0 -17 8t-4 17zM72 -270h31l79 95q21 26 25 52q4 27 -10 42t-39 15q-26 0 -44 -15.5t-22 -42.5q-4 -28 16 -44q14 -12 4 -31zM103 25h123l99 692h-123z" />
    <glyph glyph-name="Lcaron" unicode="&#x13d;" horiz-adv-x="560" 
d="M45 0l101 700q1 11 10 18t18 7h178q11 0 17.5 -8t4.5 -17l-76 -526h272q11 0 17 -8t4 -17l-21 -149q-1 -11 -10.5 -18t-18.5 -7h-475q-11 0 -17 8t-4 17zM99 25h425l14 99h-272q-9 0 -16 7t-6 18l76 526h-128zM394 425l51 90q-24 29 -17 72q7 46 42 76.5t81 30.5
q44 0 71.5 -29t20.5 -78q-6 -40 -38 -80l-89 -106q-9 -11 -22 -11h-82q0 1 -4 0t-8.5 1t-8.5 5t-3.5 10.5t6.5 18.5zM457 440h31l79 95q22 27 26 52q4 27 -10 42t-39 15q-26 0 -44 -15.5t-22 -41.5q-4 -29 15 -44q16 -12 5 -31z" />
    <glyph glyph-name="lcaron" unicode="&#x13e;" horiz-adv-x="406" 
d="M49 0l107 742q1 11 10.5 18t18.5 7h173q11 0 17 -8t4 -17l-107 -742q-1 -11 -10.5 -18t-18.5 -7h-173q-11 0 -17 8t-4 17zM103 25h123l99 692h-123zM309 433l51 90q-24 29 -17 72q7 46 42 76.5t81 30.5q44 0 71.5 -29t20.5 -78q-6 -40 -38 -80l-88 -106q-9 -11 -23 -11
h-82q0 1 -4 0t-8.5 1t-8.5 5t-3.5 10.5t6.5 18.5zM372 448h31l79 95q22 27 26 52q4 27 -10 42t-39 15q-26 0 -44 -15.5t-22 -41.5q-4 -29 15 -44q16 -12 5 -31z" />
    <glyph glyph-name="Ldot" unicode="&#x13f;" horiz-adv-x="560" 
d="M45 0l101 700q1 11 10 18t18 7h178q11 0 17.5 -8t4.5 -17l-76 -526h272q11 0 17 -8t4 -17l-21 -149q-1 -11 -10.5 -18t-18.5 -7h-475q-11 0 -17 8t-4 17zM99 25h425l14 99h-272q-9 0 -16 7t-6 18l76 526h-128zM376 480q7 46 42 76.5t80 30.5q46 0 72.5 -30.5t19.5 -76.5
t-42 -76.5t-81 -30.5q-45 0 -71.5 30.5t-19.5 76.5zM426 480q-4 -26 9 -41.5t39 -15.5t44 15.5t22 41.5t-10 41.5t-40 15.5t-43 -15.5t-21 -41.5z" />
    <glyph glyph-name="ldot" unicode="&#x140;" horiz-adv-x="393" 
d="M49 0l107 742q1 11 10.5 18t18.5 7h173q11 0 17 -8t4 -17l-107 -742q-1 -11 -10.5 -18t-18.5 -7h-173q-11 0 -17 8t-4 17zM103 25h123l99 692h-123zM284 312q7 46 42 77t82 31q46 0 72 -31t19 -77t-42 -77t-81 -31t-72.5 30.5t-19.5 77.5zM334 312q-4 -27 9.5 -42.5
t40.5 -15.5q26 0 43.5 15.5t21.5 42.5t-9.5 42.5t-39.5 15.5q-27 0 -44.5 -15.5t-21.5 -42.5z" />
    <glyph glyph-name="Lslash" unicode="&#x141;" horiz-adv-x="580" 
d="M22 409q-1 10 5.5 19.5t15.5 11.5l88 25l34 235q1 11 10 18t18 7h178q11 0 17.5 -8t4.5 -17l-25 -170l117 33q10 3 19 -2t10 -15l14 -105q1 -10 -6 -19.5t-16 -11.5l-161 -45l-28 -191h272q11 0 17 -8t4 -17l-21 -149q-1 -11 -10.5 -18t-18.5 -7h-475q-11 0 -17 8t-4 17
l43 300l-43 -12q-10 -3 -18 2t-10 15zM75 399l8 -56l51 14q6 2 11 2t8 -1.5t5 -3.5t3 -4.5t1.5 -5.5t0 -5t-0.5 -4v-2l-44 -308h425l14 99h-272q-9 0 -16 7t-6 18l34 235q3 19 22 24l155 43l-7 57l-125 -35q-6 -2 -11 -2t-8 1t-5 3.5t-3 4.5t-1.5 5t0 5.5t0.5 4.5v2l25 178
h-128l-33 -229q-3 -19 -21 -24z" />
    <glyph glyph-name="lslash" unicode="&#x142;" horiz-adv-x="343" 
d="M3 421q-2 10 4.5 19t16.5 12l116 32l37 258q1 11 10.5 18t18.5 7h173q11 0 17 -8t4 -17l-28 -194l52 15q10 3 19 -2t10 -15l14 -105q1 -10 -6 -19.5t-16 -11.5l-97 -27l-55 -383q-1 -11 -10.5 -18t-18.5 -7h-173q-11 0 -17 8t-4 17l46 319l-70 -19q-10 -3 -18 2.5
t-10 14.5zM56 411l8 -56l78 21q5 1 9.5 1.5t7.5 -0.5t5.5 -2.5t3.5 -4t2 -4.5t1 -4.5v-4v-3.5v-2l-47 -327h123l54 377q3 19 21 24l91 25l-7 57l-60 -17q-6 -2 -10.5 -2t-7.5 1t-5 2.5t-3.5 4t-2 4.5t-0.5 4.5v4.5v4v1l29 202h-123l-36 -252q-3 -19 -22 -24z" />
    <glyph glyph-name="Nacute" unicode="&#x143;" horiz-adv-x="786" 
d="M45 0l101 700q1 11 10 18t18 7h157q13 0 19 -10l224 -372l52 357q1 11 10 18t18 7h166q11 0 17.5 -8t4.5 -17l-101 -700q-1 -11 -10.5 -18t-18.5 -7h-157q-12 0 -18 10l-224 371l-51 -356q-1 -11 -10.5 -18t-18.5 -7h-167q-11 0 -17 8t-4 17zM99 25h117l58 406
q3 20 15 24t22 -3l10 -6l254 -421h120l93 650h-116l-58 -407q-3 -20 -15 -24t-23 2l-10 7l-254 422h-120zM397 774l131 168q14 18 31 11l148 -55q2 0 4.5 -1t7.5 -5t7 -8.5t-2 -12t-15 -16.5l-147 -113q-8 -6 -17 -6h-132h-5t-9.5 1.5t-9.5 5t-2 12t10 19.5zM466 786h77
l102 79l-92 34z" />
    <glyph glyph-name="nacute" unicode="&#x144;" horiz-adv-x="673" 
d="M44 0l78 539q1 11 10 18t18 7h173q11 0 17.5 -8t4.5 -17l-3 -20q67 51 162 53q100 0 152 -64t37 -168l-49 -340q-1 -11 -10.5 -18t-18.5 -7h-172q-11 0 -17 8t-4 17l42 292q10 77 -59 77q-36 0 -61 -22.5t-36 -62.5l-41 -284q-1 -11 -10.5 -18t-18.5 -7h-173q-11 0 -17 8
t-4 17zM98 25h123l37 260v1l1 2q15 57 56 94t97 37q54 0 82 -35.5t20 -91.5l-38 -267h122l45 315q12 85 -27.5 133.5t-118.5 48.5q-108 -1 -170 -84q-13 -15 -23 -12t-16 14l-6 11l9 63h-123zM334 613l130 168q14 18 31 11l148 -55q2 0 4.5 -1t7.5 -5t7 -8.5t-2 -12
t-15 -16.5l-146 -113q-7 -6 -17 -6h-132h-5t-9.5 1.5t-9.5 5t-2 12t10 19.5zM402 625h78l102 79l-92 34z" />
    <glyph glyph-name="Ncommaaccent" unicode="&#x145;" horiz-adv-x="786" 
d="M45 0l101 700q1 11 10 18t18 7h157q13 0 19 -10l224 -372l52 357q1 11 10 18t18 7h166q11 0 17.5 -8t4.5 -17l-101 -700q-1 -11 -10.5 -18t-18.5 -7h-157q-12 0 -18 10l-224 371l-51 -356q-1 -11 -10.5 -18t-18.5 -7h-167q-11 0 -17 8t-4 17zM99 25h117l58 406
q3 20 15 24t22 -3l10 -6l254 -421h120l93 650h-116l-58 -407q-3 -20 -15 -24t-23 2l-10 7l-254 422h-120zM241 -285l51 89q-25 29 -18 72q7 46 42.5 77t81.5 31q44 0 71 -29t20 -78q-5 -40 -38 -80l-88 -106q-9 -11 -22 -11h-82q0 1 -4 0t-8.5 1t-8.5 5t-3.5 10.5t6.5 18.5z
M304 -270h31l79 95q21 26 25 52q4 27 -10 42t-39 15q-26 0 -44 -15.5t-22 -42.5q-4 -28 16 -44q14 -12 4 -31z" />
    <glyph glyph-name="ncommaaccent" unicode="&#x146;" horiz-adv-x="673" 
d="M44 0l78 539q1 11 10 18t18 7h173q11 0 17.5 -8t4.5 -17l-3 -20q67 51 162 53q100 0 152 -64t37 -168l-49 -340q-1 -11 -10.5 -18t-18.5 -7h-172q-11 0 -17 8t-4 17l42 292q10 77 -59 77q-36 0 -61 -22.5t-36 -62.5l-41 -284q-1 -11 -10.5 -18t-18.5 -7h-173q-11 0 -17 8
t-4 17zM98 25h123l37 260v1l1 2q15 57 56 94t97 37q54 0 82 -35.5t20 -91.5l-38 -267h122l45 315q12 85 -27.5 133.5t-118.5 48.5q-108 -1 -170 -84q-13 -15 -23 -12t-16 14l-6 11l9 63h-123zM189 -285l51 89q-25 29 -18 72q7 46 42.5 77t81.5 31q44 0 71 -29t20 -78
q-5 -40 -38 -80l-88 -106q-9 -11 -22 -11h-82q0 1 -4 0t-8.5 1t-8.5 5t-3.5 10.5t6.5 18.5zM252 -270h31l79 95q21 26 25 52q4 27 -10 42t-39 15q-26 0 -44 -15.5t-22 -42.5q-4 -28 16 -44q14 -12 4 -31z" />
    <glyph glyph-name="Ncaron" unicode="&#x147;" horiz-adv-x="786" 
d="M45 0l101 700q1 11 10 18t18 7h157q13 0 19 -10l224 -372l52 357q1 11 10 18t18 7h166q11 0 17.5 -8t4.5 -17l-101 -700q-1 -11 -10.5 -18t-18.5 -7h-157q-12 0 -18 10l-224 371l-51 -356q-1 -11 -10.5 -18t-18.5 -7h-167q-11 0 -17 8t-4 17zM99 25h117l58 406
q3 20 15 24t22 -3l10 -6l254 -421h120l93 650h-116l-58 -407q-3 -20 -15 -24t-23 2l-10 7l-254 422h-120zM304 907q-1 2 -2.5 4.5t-3 9.5t0 12t9 9.5t21.5 4.5h135q14 0 20 -11l31 -61l49 61q9 11 22 11h135h5t10 -2.5t10 -6t1.5 -12t-11.5 -19.5l-145 -164q-9 -10 -21 -10
h-150q-13 0 -19 10zM372 897l67 -114h125l101 114h-72l-66 -81q-13 -16 -23 -16t-14 8l-4 8l-42 81h-72z" />
    <glyph glyph-name="ncaron" unicode="&#x148;" horiz-adv-x="673" 
d="M44 0l78 539q1 11 10 18t18 7h173q11 0 17.5 -8t4.5 -17l-3 -20q67 51 162 53q100 0 152 -64t37 -168l-49 -340q-1 -11 -10.5 -18t-18.5 -7h-172q-11 0 -17 8t-4 17l42 292q10 77 -59 77q-36 0 -61 -22.5t-36 -62.5l-41 -284q-1 -11 -10.5 -18t-18.5 -7h-173q-11 0 -17 8
t-4 17zM98 25h123l37 260v1l1 2q15 57 56 94t97 37q54 0 82 -35.5t20 -91.5l-38 -267h122l45 315q12 85 -27.5 133.5t-118.5 48.5q-108 -1 -170 -84q-13 -15 -23 -12t-16 14l-6 11l9 63h-123zM240 746q-1 2 -2 4.5t-2.5 9.5t0 12t9 9.5t21.5 4.5h135q13 0 19 -11l32 -61
l49 61q9 11 22 11h135h5t10 -2.5t10 -6t1.5 -12t-11.5 -19.5l-145 -164q-9 -10 -22 -10h-150q-12 0 -18 10zM309 736l67 -114h125l101 114h-73l-65 -81q-13 -16 -23 -16t-14 8l-4 8l-42 81h-72z" />
    <glyph glyph-name="Omacron" unicode="&#x14c;" horiz-adv-x="805" 
d="M50 351q24 164 154.5 272t302.5 108t272.5 -108.5t77.5 -271.5q-23 -164 -155.5 -274t-304.5 -110q-171 0 -271 109.5t-76 274.5zM100 351q-20 -143 66 -238.5t238 -95.5q153 0 268 96t135 238t-67 236t-240 94t-266.5 -94t-133.5 -236zM231 350q14 98 89.5 165t167.5 67
t145.5 -67t39.5 -165t-87 -166t-165 -68t-148 68t-42 166zM281 350q-11 -78 33 -131t114 -53q71 0 127.5 52.5t67.5 131.5t-30 130.5t-112 51.5q-72 0 -130.5 -52t-69.5 -130zM345 793l17 116q1 11 10.5 18t18.5 7h278q11 0 17 -8t4 -17l-17 -116q-1 -11 -10 -18t-18 -7
h-278q-11 0 -17.5 8t-4.5 17zM399 818h228l9 66h-228z" />
    <glyph glyph-name="omacron" unicode="&#x14d;" horiz-adv-x="637" 
d="M38 270q19 134 120 217t243 83q141 0 218 -83t58 -217q-19 -135 -120 -218t-242 -83q-142 0 -219 83t-58 218zM88 270q-17 -114 46.5 -182.5t187.5 -68.5q123 0 205.5 68.5t99.5 182.5t-46 182t-187 68t-206.5 -68t-99.5 -182zM212 268q10 71 57 118t112 47q64 0 98 -47
t24 -118q-11 -71 -58 -118t-111 -47q-65 0 -99 47t-23 118zM245 632l17 116q1 11 10 18t18 7h278q11 0 17.5 -8t4.5 -17l-17 -116q-1 -11 -10.5 -18t-18.5 -7h-278q-11 0 -17 8t-4 17zM262 268q-8 -54 14 -84.5t65 -30.5q42 0 73 30.5t39 84.5q8 53 -14.5 84t-64.5 31
q-43 0 -73.5 -30.5t-38.5 -84.5zM299 657h228l9 66h-228z" />
    <glyph glyph-name="Ohungarumlaut" unicode="&#x150;" horiz-adv-x="805" 
d="M50 351q24 164 154.5 272t302.5 108t272.5 -108.5t77.5 -271.5q-23 -164 -155.5 -274t-304.5 -110q-171 0 -271 109.5t-76 274.5zM100 351q-20 -143 66 -238.5t238 -95.5q153 0 268 96t135 238t-67 236t-240 94t-266.5 -94t-133.5 -236zM231 350q14 98 89.5 165t167.5 67
t145.5 -67t39.5 -165t-87 -166t-165 -68t-148 68t-42 166zM281 350q-11 -78 33 -131t114 -53q71 0 127.5 52.5t67.5 131.5t-30 130.5t-112 51.5q-72 0 -130.5 -52t-69.5 -130zM310 771l109 171q13 20 33 12l124 -48q27 -14 6 -38l-107 -123q-9 -10 -22 -10h-126q0 1 -4 0
t-9 1t-9 5t-3 11t8 19zM374 785h73l76 86l-75 29zM504 771l109 171q13 20 33 12l124 -48q27 -14 6 -38l-107 -123q-9 -10 -22 -10h-126q0 1 -4 0t-9 1t-9 5t-3 11t8 19zM568 785h73l76 86l-75 29z" />
    <glyph glyph-name="ohungarumlaut" unicode="&#x151;" horiz-adv-x="637" 
d="M38 270q19 134 120 217t243 83q141 0 218 -83t58 -217q-19 -135 -120 -218t-242 -83q-142 0 -219 83t-58 218zM88 270q-17 -114 46.5 -182.5t187.5 -68.5q123 0 205.5 68.5t99.5 182.5t-46 182t-187 68t-206.5 -68t-99.5 -182zM210 609l110 171q13 20 33 12l124 -48
q27 -14 6 -38l-108 -123q-9 -10 -21 -10h-126q0 1 -4.5 0t-9 1t-8.5 5t-3.5 11t7.5 19zM212 268q10 71 57 118t112 47q64 0 98 -47t24 -118q-11 -71 -58 -118t-111 -47q-65 0 -99 47t-23 118zM262 268q-8 -54 14 -84.5t65 -30.5q42 0 73 30.5t39 84.5q8 53 -14.5 84
t-64.5 31q-43 0 -73.5 -30.5t-38.5 -84.5zM275 623h73l75 86l-74 29zM404 609l110 171q13 20 33 12l124 -48q27 -14 6 -38l-108 -123q-9 -10 -21 -10h-126q0 1 -4.5 0t-9 1t-8.5 5t-3.5 11t7.5 19zM469 623h73l75 86l-74 29z" />
    <glyph glyph-name="OE" unicode="&#x152;" horiz-adv-x="1113" 
d="M49 349q23 161 154.5 269t302.5 108h657q11 0 17 -8t4 -17l-20 -141q-1 -11 -10.5 -18t-18.5 -7h-346l-13 -89h309q11 0 17.5 -8t4.5 -17l-20 -139q-1 -11 -10.5 -18t-18.5 -7h-309l-13 -92h356q11 0 17 -8t4 -17l-20 -140q-1 -11 -10.5 -18t-18.5 -7h-667
q-170 0 -270.5 107t-77.5 267zM99 349q-20 -139 67.5 -231.5t238.5 -92.5h642l13 90h-356q-9 0 -16 7t-6 18l21 142q2 9 9.5 17t18.5 8h309l13 89h-309q-9 0 -15.5 7t-5.5 18l20 139q2 9 9.5 17t18.5 8h346l13 91h-632q-152 0 -265.5 -93.5t-133.5 -233.5zM231 348
q14 98 87 164.5t167 66.5h107q9 0 16 -7t6 -18l-59 -410q-2 -9 -10.5 -17t-18.5 -8l-107 -1q-95 0 -148.5 66t-39.5 164zM281 348q-11 -78 30.5 -129t114.5 -51l82 1l52 360h-82q-74 0 -130 -51t-67 -130z" />
    <glyph glyph-name="oe" unicode="&#x153;" horiz-adv-x="1019" 
d="M38 270q19 134 120 217t243 83q125 0 191 -77q83 77 205 77h19q136 -7 200 -100t36 -239q-2 -10 -10.5 -17t-17.5 -7h-357q20 -59 88 -59q65 0 121 48q8 7 18.5 7t16.5 -7l78 -89q6 -7 5 -17t-9 -18q-113 -103 -270 -103q-125 0 -188 77q-86 -77 -212 -77q-142 0 -219 83
t-58 218zM88 270q-17 -114 46.5 -182.5t187.5 -68.5q120 0 194 80q25 27 39 0q48 -80 167 -80q122 0 211 70l-48 55q-65 -46 -137 -46q-59 0 -96 34.5t-41 94.5q-1 13 5.5 20t12.5 8.5t11 1.5h367q17 122 -41 192.5t-176 70.5q-117 0 -184 -80q-11 -13 -21.5 -13t-14 4
t-5.5 8q-49 81 -171 81q-124 0 -206.5 -68t-99.5 -182zM212 268q10 71 57 118t112 47q64 0 98 -47t24 -118q-11 -71 -58 -118t-111 -47q-65 0 -99 47t-23 118zM262 268q-8 -54 14 -84.5t65 -30.5q42 0 73 30.5t39 84.5q8 53 -14.5 84t-64.5 31q-43 0 -73.5 -30.5
t-38.5 -84.5zM623 319q18 59 60.5 97t97.5 38q58 0 88.5 -40t22.5 -99q-2 -9 -10 -17t-18 -8h-220q-29 0 -21 29zM683 340h160q-2 30 -20 47t-49 17q-58 0 -91 -64z" />
    <glyph glyph-name="Racute" unicode="&#x154;" horiz-adv-x="724" 
d="M45 0l101 700q1 11 10 18t18 7h313q147 0 222 -70.5t56 -198.5q-23 -160 -151 -234l103 -209l1 -1q0 -1 1 -3.5t1.5 -5t1 -6t-0.5 -6.5t-3 -6t-5.5 -5t-9 -3.5t-13.5 -1.5h-202q-14 0 -20 13l-70 184h-100l-25 -172q-1 -11 -10.5 -18t-18.5 -7h-178q-11 0 -17 8t-4 17z
M99 25h128l24 172q2 9 10 17t19 8h140q15 0 20 -13l71 -184h141l-95 193q-11 22 15 35q122 57 143 203q15 106 -44.5 162.5t-190.5 56.5h-288zM272 337l32 223q2 9 10 17t18 8h135q67 0 102.5 -35.5t25.5 -99.5q-10 -65 -55.5 -101.5t-111.5 -36.5h-135q-9 0 -15.5 7
t-5.5 18zM325 362h110q97 0 110 88q6 44 -14.5 64.5t-70.5 20.5h-110zM367 774l131 168q14 18 31 11l148 -55q2 0 4.5 -1t7.5 -5t7 -8.5t-2 -12t-15 -16.5l-147 -113q-8 -6 -17 -6h-132h-5t-9.5 1.5t-9.5 5t-2 12t10 19.5zM436 786h77l102 79l-92 34z" />
    <glyph glyph-name="racute" unicode="&#x155;" horiz-adv-x="427" 
d="M44 0l78 539q1 11 10 18t18 7h173q11 0 17.5 -8t4.5 -17l-3 -22q68 53 157 55q11 0 17 -7.5t5 -17.5l-23 -156q-5 -27 -30 -25q-65 6 -106.5 -19.5t-54.5 -71.5l-40 -275q-1 -11 -10.5 -18t-18.5 -7h-173q-11 0 -17 8t-4 17zM98 25h123l36 252q0 1 1 3q16 63 68.5 99.5
t125.5 37.5l15 103q-86 -11 -141 -85q-13 -15 -22.5 -12t-15.5 14l-6 11l9 66h-123zM205 613l130 168q14 18 31 11l148 -55q2 0 4.5 -1t7.5 -5t7 -8.5t-2 -12t-15 -16.5l-146 -113q-8 -6 -17 -6h-132h-5t-9.5 1.5t-9.5 5t-2 12t10 19.5zM273 625h78l102 79l-92 34z" />
    <glyph glyph-name="Rcommaaccent" unicode="&#x156;" horiz-adv-x="724" 
d="M45 0l101 700q1 11 10 18t18 7h313q147 0 222 -70.5t56 -198.5q-23 -160 -151 -234l103 -209l1 -1q0 -1 1 -3.5t1.5 -5t1 -6t-0.5 -6.5t-3 -6t-5.5 -5t-9 -3.5t-13.5 -1.5h-202q-14 0 -20 13l-70 184h-100l-25 -172q-1 -11 -10.5 -18t-18.5 -7h-178q-11 0 -17 8t-4 17z
M99 25h128l24 172q2 9 10 17t19 8h140q15 0 20 -13l71 -184h141l-95 193q-11 22 15 35q122 57 143 203q15 106 -44.5 162.5t-190.5 56.5h-288zM207 -285l51 89q-25 29 -18 72q7 46 42.5 77t81.5 31q44 0 71 -29t20 -78q-5 -40 -38 -80l-88 -106q-9 -11 -22 -11h-82q0 1 -4 0
t-8.5 1t-8.5 5t-3.5 10.5t6.5 18.5zM270 -270h31l79 95q21 26 25 52q4 27 -10 42t-39 15q-26 0 -44 -15.5t-22 -42.5q-4 -28 16 -44q14 -12 4 -31zM272 337l32 223q2 9 10 17t18 8h135q67 0 102.5 -35.5t25.5 -99.5q-10 -65 -55.5 -101.5t-111.5 -36.5h-135q-9 0 -15.5 7
t-5.5 18zM325 362h110q97 0 110 88q6 44 -14.5 64.5t-70.5 20.5h-110z" />
    <glyph glyph-name="rcommaaccent" unicode="&#x157;" horiz-adv-x="427" 
d="M-2 -285l51 89q-25 29 -18 72q7 46 42.5 77t81.5 31q44 0 71 -29t20 -78q-5 -40 -38 -80l-88 -106q-9 -11 -22 -11h-82q0 1 -4 0t-8.5 1t-8.5 5t-3.5 10.5t6.5 18.5zM44 0l78 539q1 11 10 18t18 7h173q11 0 17.5 -8t4.5 -17l-3 -22q68 53 157 55q11 0 17 -7.5t5 -17.5
l-23 -156q-5 -27 -30 -25q-65 6 -106.5 -19.5t-54.5 -71.5l-40 -275q-1 -11 -10.5 -18t-18.5 -7h-173q-11 0 -17 8t-4 17zM61 -270h31l79 95q21 26 25 52q4 27 -10 42t-39 15q-26 0 -44 -15.5t-22 -42.5q-4 -28 16 -44q14 -12 4 -31zM98 25h123l36 252q0 1 1 3
q16 63 68.5 99.5t125.5 37.5l15 103q-86 -11 -141 -85q-13 -15 -22.5 -12t-15.5 14l-6 11l9 66h-123z" />
    <glyph glyph-name="Rcaron" unicode="&#x158;" horiz-adv-x="724" 
d="M45 0l101 700q1 11 10 18t18 7h313q147 0 222 -70.5t56 -198.5q-23 -160 -151 -234l103 -209l1 -1q0 -1 1 -3.5t1.5 -5t1 -6t-0.5 -6.5t-3 -6t-5.5 -5t-9 -3.5t-13.5 -1.5h-202q-14 0 -20 13l-70 184h-100l-25 -172q-1 -11 -10.5 -18t-18.5 -7h-178q-11 0 -17 8t-4 17z
M99 25h128l24 172q2 9 10 17t19 8h140q15 0 20 -13l71 -184h141l-95 193q-11 22 15 35q122 57 143 203q15 106 -44.5 162.5t-190.5 56.5h-288zM272 337l32 223q2 9 10 17t18 8h135q67 0 102.5 -35.5t25.5 -99.5q-10 -65 -55.5 -101.5t-111.5 -36.5h-135q-9 0 -15.5 7
t-5.5 18zM274 907q-1 2 -2.5 4.5t-3 9.5t0 12t9 9.5t21.5 4.5h135q14 0 20 -11l31 -61l49 61q9 11 22 11h135h5t10 -2.5t10 -6t1.5 -12t-11.5 -19.5l-145 -164q-9 -10 -21 -10h-150q-13 0 -19 10zM325 362h110q97 0 110 88q6 44 -14.5 64.5t-70.5 20.5h-110zM342 897
l67 -114h125l101 114h-72l-66 -81q-13 -16 -23 -16t-14 8l-4 8l-42 81h-72z" />
    <glyph glyph-name="rcaron" unicode="&#x159;" horiz-adv-x="427" 
d="M44 0l78 539q1 11 10 18t18 7h173q11 0 17.5 -8t4.5 -17l-3 -22q68 53 157 55q11 0 17 -7.5t5 -17.5l-23 -156q-5 -27 -30 -25q-65 6 -106.5 -19.5t-54.5 -71.5l-40 -275q-1 -11 -10.5 -18t-18.5 -7h-173q-11 0 -17 8t-4 17zM98 25h123l36 252q0 1 1 3q16 63 68.5 99.5
t125.5 37.5l15 103q-86 -11 -141 -85q-13 -15 -22.5 -12t-15.5 14l-6 11l9 66h-123zM111 746q-1 2 -2 4.5t-2.5 9.5t0 12t9 9.5t21.5 4.5h135q14 0 19 -11l32 -61l49 61q9 11 22 11h135h5t10 -2.5t10 -6t1.5 -12t-11.5 -19.5l-145 -164q-9 -10 -22 -10h-150q-12 0 -18 10z
M180 736l67 -114h125l101 114h-73l-65 -81q-13 -16 -23 -16t-14 8l-4 8l-42 81h-72z" />
    <glyph glyph-name="Sacute" unicode="&#x15a;" horiz-adv-x="644" 
d="M12 117l88 137q19 29 40 8q43 -43 107.5 -71t114.5 -28q66 0 72 36q2 16 -16.5 27t-50 19.5t-69.5 18t-75 26.5t-66 41.5t-43.5 67t-6.5 98.5q15 109 109.5 172.5t228.5 63.5q164 0 277 -82q17 -12 5 -32l-87 -139q-6 -9 -16 -13t-21 2q-48 30 -105.5 50t-95.5 20
q-52 0 -56 -26q-2 -17 23.5 -30t65 -21.5t85 -26t83 -41.5t58 -72.5t11.5 -113.5q-16 -114 -113 -176.5t-226 -62.5q-91 0 -176 31.5t-143 86.5q-13 11 -2 30zM65 113q53 -43 125.5 -68.5t149.5 -25.5q115 0 192 50.5t90 138.5q7 46 -8.5 79.5t-45.5 52t-68 32t-75.5 24.5
t-68.5 24t-48 36.5t-12 56.5q6 39 38.5 57.5t74.5 18.5q93 0 204 -63l59 94q-102 63 -235 63q-119 0 -193.5 -51t-86.5 -135q-6 -40 5.5 -70t35.5 -47t55 -30.5t64.5 -21.5t65 -19.5t56 -23.5t37 -34t8.5 -52q-6 -43 -43 -64.5t-86 -21.5q-55 0 -118 24.5t-113 66.5z
M343 774l131 168q14 18 31 11l148 -55q2 0 4.5 -1t7.5 -5t7 -8.5t-2 -12t-15 -16.5l-147 -113q-8 -6 -17 -6h-132h-5t-9.5 1.5t-9.5 5t-2 12t10 19.5zM412 786h77l102 79l-92 34z" />
    <glyph glyph-name="sacute" unicode="&#x15b;" horiz-adv-x="513" 
d="M5 80l71 110q17 25 38 9q81 -62 168 -62q35 0 35 12q1 6 -13.5 11.5t-38.5 11t-52.5 13.5t-56 23t-49 35.5t-32 55t-3.5 77.5q14 93 91 144.5t181 51.5q126 0 226 -64q18 -12 4 -34l-75 -112q-6 -9 -16.5 -12t-18.5 2q-87 51 -151 51q-27 0 -30 -12q-1 -6 19.5 -12
t51 -11.5t65.5 -20.5t63.5 -35.5t44 -58.5t7.5 -88q-14 -93 -93.5 -145t-187.5 -52q-152 0 -245 81q-15 13 -3 31zM59 77q79 -59 202 -59q93 0 153 39t70 108q5 33 -7 57.5t-35 38.5t-51.5 24t-58 18.5t-53 18.5t-36.5 27.5t-10 41.5q5 32 30.5 47t56.5 15q66 0 153 -45
l46 68q-82 46 -182 46q-89 0 -147 -39t-68 -107q-7 -46 17.5 -74.5t63.5 -41.5t78 -24t65 -32t21 -55q-5 -33 -32 -47.5t-60 -14.5q-90 0 -174 56zM246 613l130 168q14 18 31 11l148 -55q2 0 4.5 -1t7.5 -5t7 -8.5t-2 -12t-15 -16.5l-146 -113q-7 -6 -17 -6h-132h-5
t-9.5 1.5t-9.5 5t-2 12t10 19.5zM314 625h78l102 79l-92 34z" />
    <glyph glyph-name="Scedilla" unicode="&#x15e;" horiz-adv-x="644" 
d="M12 117l88 137q19 29 40 8q43 -43 107.5 -71t114.5 -28q66 0 72 36q2 16 -16.5 27t-50 19.5t-69.5 18t-75 26.5t-66 41.5t-43.5 67t-6.5 98.5q15 109 109.5 172.5t228.5 63.5q164 0 277 -82q17 -12 5 -32l-87 -139q-6 -9 -16 -13t-21 2q-48 30 -105.5 50t-95.5 20
q-52 0 -56 -26q-2 -17 23.5 -30t65 -21.5t85 -26t83 -41.5t58 -72.5t11.5 -113.5q-14 -95 -86.5 -155.5t-174.5 -77.5l-9 -13q54 -30 45 -94q-9 -58 -56.5 -93t-111.5 -35q-58 0 -104 35q-16 13 -5 31l43 71q1 1 2 3.5t5 7t8.5 6.5t11 0t13.5 -9q11 -13 31 -13q16 0 18 12
q0 1 0.5 2t-0.5 3t-3 3t-6 2t-10 1q-9 0 -33 -4h-11h-3.5t-7 1.5t-6.5 5t-1 11t8 18.5l30 47q-149 23 -245 113q-13 12 -2 30zM65 113q97 -81 240 -93q17 -1 21 -10t-1 -18l-5 -8l-24 -39q27 -2 43.5 -18.5t12.5 -42.5t-26 -44t-50 -18q-20 0 -36 8l-15 -24q30 -16 61 -16
q47 0 76.5 21.5t34.5 56.5q6 44 -41 57q-29 8 -11 35l32 49q7 12 21 14q93 12 153 60t71 125q7 46 -8.5 79.5t-45.5 52t-68 32t-75.5 24.5t-68.5 24t-48 36.5t-12 56.5q6 39 38.5 57.5t74.5 18.5q93 0 204 -63l59 94q-102 63 -235 63q-119 0 -193.5 -51t-86.5 -135
q-6 -40 5.5 -70t35.5 -47t55 -30.5t64.5 -21.5t65 -19.5t56 -23.5t37 -34t8.5 -52q-6 -43 -43 -64.5t-86 -21.5q-55 0 -118 24.5t-113 66.5z" />
    <glyph glyph-name="scedilla" unicode="&#x15f;" horiz-adv-x="513" 
d="M5 80l71 110q17 25 38 9q81 -62 168 -62q35 0 35 12q1 6 -13.5 11.5t-38.5 11t-52.5 13.5t-56 23t-49 35.5t-32 55t-3.5 77.5q14 93 91 144.5t181 51.5q126 0 226 -64q18 -12 4 -34l-75 -112q-6 -9 -16.5 -12t-18.5 2q-87 51 -151 51q-27 0 -30 -12q-1 -6 19.5 -12
t51 -11.5t65.5 -20.5t63.5 -35.5t44 -58.5t7.5 -88q-11 -74 -65.5 -123t-133.5 -66l-9 -14q54 -30 45 -94q-9 -58 -57 -93t-111 -35q-58 0 -104 35q-16 13 -5 31l43 71q1 1 2 3.5t5 7t8.5 6.5t11 0t13.5 -9q11 -13 31 -13q16 0 18 12q0 1 0.5 2t-0.5 3t-3 3t-6 2t-10 1
q-9 0 -33 -4h-11h-3.5t-7 1.5t-6.5 5t-1 11t8 18.5l29 46q-107 17 -174 76q-15 13 -3 31zM59 77q69 -50 170 -58q18 -1 21.5 -10t-1.5 -17l-5 -9l-24 -38q27 -2 43.5 -18.5t12.5 -42.5t-26 -44t-50 -18q-20 0 -36 8l-15 -24q30 -16 61 -16q47 0 76.5 21.5t34.5 56.5
q6 44 -41 57q-29 8 -11 35l32 49q8 13 20 14q70 13 112.5 49t50.5 93q5 33 -7 57.5t-35 38.5t-51.5 24t-58 18.5t-53 18.5t-36.5 27.5t-10 41.5q5 32 30.5 47t56.5 15q66 0 153 -45l46 68q-82 46 -182 46q-89 0 -147 -39t-68 -107q-7 -46 17.5 -74.5t63.5 -41.5t78 -24
t65 -32t21 -55q-5 -33 -32 -47.5t-60 -14.5q-90 0 -174 56z" />
    <glyph glyph-name="Scaron" unicode="&#x160;" horiz-adv-x="644" 
d="M12 117l88 137q19 29 40 8q43 -43 107.5 -71t114.5 -28q66 0 72 36q2 16 -16.5 27t-50 19.5t-69.5 18t-75 26.5t-66 41.5t-43.5 67t-6.5 98.5q15 109 109.5 172.5t228.5 63.5q164 0 277 -82q17 -12 5 -32l-87 -139q-6 -9 -16 -13t-21 2q-48 30 -105.5 50t-95.5 20
q-52 0 -56 -26q-2 -17 23.5 -30t65 -21.5t85 -26t83 -41.5t58 -72.5t11.5 -113.5q-16 -114 -113 -176.5t-226 -62.5q-91 0 -176 31.5t-143 86.5q-13 11 -2 30zM65 113q53 -43 125.5 -68.5t149.5 -25.5q115 0 192 50.5t90 138.5q7 46 -8.5 79.5t-45.5 52t-68 32t-75.5 24.5
t-68.5 24t-48 36.5t-12 56.5q6 39 38.5 57.5t74.5 18.5q93 0 204 -63l59 94q-102 63 -235 63q-119 0 -193.5 -51t-86.5 -135q-6 -40 5.5 -70t35.5 -47t55 -30.5t64.5 -21.5t65 -19.5t56 -23.5t37 -34t8.5 -52q-6 -43 -43 -64.5t-86 -21.5q-55 0 -118 24.5t-113 66.5z
M250 907q-1 2 -2.5 4.5t-3 9.5t0 12t9 9.5t21.5 4.5h135q14 0 20 -11l31 -61l49 61q9 11 22 11h135h5t10 -2.5t10 -6t1.5 -12t-11.5 -19.5l-145 -164q-9 -10 -21 -10h-150q-13 0 -19 10zM318 897l67 -114h125l101 114h-72l-66 -81q-13 -16 -23 -16t-14 8l-4 8l-42 81h-72z
" />
    <glyph glyph-name="scaron" unicode="&#x161;" horiz-adv-x="513" 
d="M5 80l71 110q17 25 38 9q81 -62 168 -62q35 0 35 12q1 6 -13.5 11.5t-38.5 11t-52.5 13.5t-56 23t-49 35.5t-32 55t-3.5 77.5q14 93 91 144.5t181 51.5q126 0 226 -64q18 -12 4 -34l-75 -112q-6 -9 -16.5 -12t-18.5 2q-87 51 -151 51q-27 0 -30 -12q-1 -6 19.5 -12
t51 -11.5t65.5 -20.5t63.5 -35.5t44 -58.5t7.5 -88q-14 -93 -93.5 -145t-187.5 -52q-152 0 -245 81q-15 13 -3 31zM59 77q79 -59 202 -59q93 0 153 39t70 108q5 33 -7 57.5t-35 38.5t-51.5 24t-58 18.5t-53 18.5t-36.5 27.5t-10 41.5q5 32 30.5 47t56.5 15q66 0 153 -45
l46 68q-82 46 -182 46q-89 0 -147 -39t-68 -107q-7 -46 17.5 -74.5t63.5 -41.5t78 -24t65 -32t21 -55q-5 -33 -32 -47.5t-60 -14.5q-90 0 -174 56zM153 746q-1 2 -2 4.5t-2.5 9.5t0 12t9 9.5t21.5 4.5h135q14 0 19 -11l32 -61l49 61q9 11 22 11h135h5t10 -2.5t10 -6t1.5 -12
t-11.5 -19.5l-145 -164q-9 -10 -22 -10h-150q-12 0 -18 10zM222 736l67 -114h125l101 114h-73l-65 -81q-13 -16 -23 -16t-14 8l-4 8l-42 81h-72z" />
    <glyph glyph-name="Tcedilla" unicode="&#x162;" horiz-adv-x="611" 
d="M62 557l21 144q1 11 10.5 18t18.5 7h598q11 0 17 -8t4 -17l-21 -144q-1 -11 -10 -18t-18 -7h-186l-77 -532q-1 -11 -10.5 -18t-18.5 -7h-17l-9 -13q54 -30 45 -94q-9 -58 -57 -93t-111 -35q-58 0 -104 35q-16 13 -5 31l43 71q1 1 2 3.5t5 7t8.5 6.5t11 0t13.5 -9
q11 -13 31 -13q16 0 18 12q0 1 0.5 2t-0.5 3t-3 3t-6 2t-10 1q-9 0 -33 -4h-11h-3.5t-7 1.5t-6.5 5t-1 11t8 18.5l30 48h-9q-11 0 -17 8t-4 17l77 532h-184q-11 0 -17.5 8t-4.5 17zM116 582h184q9 0 15.5 -7t5.5 -18l-76 -532h23q20 0 24 -9t-2 -18l-5 -9l-28 -44
q27 -2 44 -18.5t13 -42.5t-26 -44t-50 -18q-20 0 -36 8l-15 -24q30 -16 61 -16q47 0 76.5 21.5t34.5 56.5q6 44 -41 57q-29 8 -11 35l33 51q9 14 25 14h8l76 532q2 9 10 17t19 8h186l13 94h-548z" />
    <glyph glyph-name="tcedilla" unicode="&#x163;" horiz-adv-x="435" 
d="M52 401l16 113q1 11 10.5 18t18.5 7h50l18 125q1 11 10 18t18 7h172q11 0 17.5 -8t4.5 -17l-18 -124h116q11 0 17 -8t4 -17l-16 -114q-1 -11 -10.5 -18t-18.5 -7h-116l-27 -186q-4 -23 0.5 -29t19.5 -5q22 0 60 16q28 11 32 -16l16 -120q3 -19 -15 -29q-40 -22 -93 -32
l-8 -13q54 -30 45 -94q-9 -58 -57 -93t-111 -35q-58 0 -104 35q-16 13 -5 31l43 71q1 1 2 3.5t5 7t8.5 6.5t11 0t13.5 -9q11 -13 31 -13q16 0 18 12q0 1 0.5 2t-0.5 3t-3 3t-6 2t-10 1q-9 0 -33 -4h-11h-3.5t-7 1.5t-6.5 5t-1 11t8 18.5l33 52q-54 20 -81 68t-17 116l31 213
h-50q-11 0 -17 8t-4 17zM105 426h50q9 0 16 -7t6 -18l-35 -238q-17 -120 94 -142q32 -6 12 -36l-25 -40q28 -2 44.5 -18.5t12.5 -42.5t-26 -44t-50 -18q-20 0 -36 8l-15 -24q30 -16 61 -16q47 0 76.5 21.5t34.5 56.5q6 44 -41 57q-29 8 -11 35l31 48q8 13 20 14q34 4 69 20
l-10 74q-30 -10 -51 -10q-35 -1 -52 22t-12 62l31 211q2 9 9.5 17t18.5 8h116l10 64h-116q-9 0 -16 7t-6 18l18 124h-122l-18 -125q-2 -9 -10 -17t-19 -8h-50z" />
    <glyph glyph-name="Tcaron" unicode="&#x164;" horiz-adv-x="611" 
d="M62 557l21 144q1 11 10.5 18t18.5 7h598q11 0 17 -8t4 -17l-21 -144q-1 -11 -10 -18t-18 -7h-186l-77 -532q-1 -11 -10.5 -18t-18.5 -7h-178q-11 0 -17 8t-4 17l77 532h-184q-11 0 -17.5 8t-4.5 17zM116 582h184q9 0 15.5 -7t5.5 -18l-76 -532h128l76 532q2 9 10 17t19 8
h186l13 94h-548zM228 907q-1 2 -2.5 4.5t-3 9.5t0 12t9 9.5t21.5 4.5h135q14 0 20 -11l31 -61l49 61q9 11 22 11h135h5t10 -2.5t10 -6t1.5 -12t-11.5 -19.5l-145 -164q-9 -10 -21 -10h-150q-13 0 -19 10zM296 897l67 -114h125l101 114h-72l-66 -81q-13 -16 -23 -16t-14 8
l-4 8l-42 81h-72z" />
    <glyph glyph-name="tcaron" unicode="&#x165;" horiz-adv-x="428" 
d="M52 401l16 113q1 11 10.5 18t18.5 7h50l18 125q1 11 10 18t18 7h172q11 0 17.5 -8t4.5 -17l-18 -124h116q11 0 17 -8t4 -17l-16 -114q-1 -11 -10.5 -18t-18.5 -7h-116l-27 -186q-3 -23 1.5 -29t18.5 -5q22 0 60 16q28 11 32 -16l16 -120q3 -19 -15 -29q-72 -40 -163 -40
q-89 0 -139 52t-37 144l31 213h-50q-11 0 -17 8t-4 17zM105 426h50q9 0 16 -7t6 -18l-35 -238q-10 -71 25.5 -108.5t107.5 -37.5q62 0 118 25l-10 74q-30 -10 -51 -10q-35 -1 -52 22t-12 62l31 211q2 9 9.5 17t18.5 8h116l10 64h-116q-9 0 -16 7t-6 18l18 124h-122l-18 -125
q-2 -9 -10 -17t-19 -8h-50zM369 589l51 90q-24 30 -18 72q7 46 42.5 76.5t81.5 30.5q44 0 71 -29t20 -78q-6 -40 -38 -80l-88 -106q-9 -11 -22 -11h-82q0 1 -4 0t-8.5 1t-8.5 5t-3.5 10.5t6.5 18.5zM432 604h31l79 95q21 25 25 52t-10 42t-39 15q-26 0 -44 -15.5t-22 -41.5
q-4 -28 16 -44q16 -12 5 -31z" />
    <glyph glyph-name="Umacron" unicode="&#x16a;" horiz-adv-x="758" 
d="M75 294l59 406q1 11 10 18t18 7h178q11 0 17.5 -8t4.5 -17l-59 -406q-9 -61 19.5 -94.5t83.5 -33.5q54 0 89.5 33t44.5 95l59 406q1 11 10 18t18 7h177q11 0 17.5 -8t4.5 -17l-59 -406q-22 -149 -128.5 -238t-262.5 -89q-157 0 -240 89t-61 238zM125 294
q-19 -129 50 -203t208 -74q137 0 226 74t108 203l55 381h-127l-55 -381q-11 -79 -64 -128.5t-127 -49.5t-115.5 49.5t-30.5 128.5l55 381h-128zM329 793l17 116q1 11 10.5 18t18.5 7h278q11 0 17 -8t4 -17l-17 -116q-1 -11 -10 -18t-18 -7h-278q-11 0 -17.5 8t-4.5 17z
M383 818h228l9 66h-228z" />
    <glyph glyph-name="umacron" unicode="&#x16b;" horiz-adv-x="663" 
d="M57 199l49 340q1 11 10 18t18 7h173q11 0 17.5 -8t4.5 -17l-42 -291q-12 -78 53 -78q37 1 62.5 28t32.5 75l39 266q1 11 10 18t18 7h173q11 0 17.5 -8t4.5 -17l-78 -539q-1 -11 -10.5 -18t-18.5 -7h-173q-11 0 -17 8t-4 17l3 19q-67 -51 -158 -51q-98 0 -148.5 63.5
t-35.5 167.5zM107 199q-12 -85 26 -133t116 -48q103 0 165 84q13 15 23 12t16 -14l6 -11l-9 -64h123l70 489h-123l-35 -241q-9 -64 -50.5 -108t-101.5 -45q-52 0 -78 36t-18 92l38 266h-123zM254 632l17 116q1 11 10 18t18 7h278q11 0 17.5 -8t4.5 -17l-17 -116
q-1 -11 -10.5 -18t-18.5 -7h-278q-11 0 -17 8t-4 17zM308 657h228l9 66h-228z" />
    <glyph glyph-name="Uring" unicode="&#x16e;" horiz-adv-x="758" 
d="M75 294l59 406q1 11 10 18t18 7h178q11 0 17.5 -8t4.5 -17l-59 -406q-9 -61 19.5 -94.5t83.5 -33.5q54 0 89.5 33t44.5 95l59 406q1 11 10 18t18 7h177q11 0 17.5 -8t4.5 -17l-59 -406q-22 -149 -128.5 -238t-262.5 -89q-157 0 -240 89t-61 238zM125 294
q-19 -129 50 -203t208 -74q137 0 226 74t108 203l55 381h-127l-55 -381q-11 -79 -64 -128.5t-127 -49.5t-115.5 49.5t-30.5 128.5l55 381h-128zM356 855q9 60 57.5 102.5t109.5 42.5t97.5 -42.5t27.5 -102.5t-57.5 -102.5t-109.5 -42.5t-97.5 42.5t-27.5 102.5zM406 855
q-6 -39 18.5 -67t64.5 -28t71.5 28t37.5 67t-18 67t-64 28t-72 -28t-38 -67zM424 855q5 32 31 54.5t58 22.5t52 -22.5t15 -54.5q-4 -32 -30.5 -54.5t-58.5 -22.5t-51.5 22.5t-15.5 54.5zM474 855q-2 -11 5 -19t19 -8t21 8t11 19t-5.5 19t-18.5 8t-20.5 -8t-11.5 -19z" />
    <glyph glyph-name="uring" unicode="&#x16f;" horiz-adv-x="663" 
d="M57 199l49 340q1 11 10 18t18 7h173q11 0 17.5 -8t4.5 -17l-42 -291q-12 -78 53 -78q37 1 62.5 28t32.5 75l39 266q1 11 10 18t18 7h173q11 0 17.5 -8t4.5 -17l-78 -539q-1 -11 -10.5 -18t-18.5 -7h-173q-11 0 -17 8t-4 17l3 19q-67 -51 -158 -51q-98 0 -148.5 63.5
t-35.5 167.5zM107 199q-12 -85 26 -133t116 -48q103 0 165 84q13 15 23 12t16 -14l6 -11l-9 -64h123l70 489h-123l-35 -241q-9 -64 -50.5 -108t-101.5 -45q-52 0 -78 36t-18 92l38 266h-123zM281 694q9 60 57.5 102.5t109.5 42.5t97.5 -42.5t27.5 -102.5t-57.5 -102.5
t-109.5 -42.5t-97.5 42.5t-27.5 102.5zM331 694q-6 -39 18 -67t64 -28t72 28t38 67t-18 67t-64 28t-72 -28t-38 -67zM349 694q5 32 31 54.5t58 22.5t52 -22.5t15 -54.5q-4 -32 -30.5 -54.5t-58.5 -22.5t-51.5 22.5t-15.5 54.5zM399 694q-2 -11 5 -19t19 -8t21 8t11 19
t-5.5 19t-18.5 8t-20.5 -8t-11.5 -19z" />
    <glyph glyph-name="Uhungarumlaut" unicode="&#x170;" horiz-adv-x="758" 
d="M75 294l59 406q1 11 10 18t18 7h178q11 0 17.5 -8t4.5 -17l-59 -406q-9 -61 19.5 -94.5t83.5 -33.5q54 0 89.5 33t44.5 95l59 406q1 11 10 18t18 7h177q11 0 17.5 -8t4.5 -17l-59 -406q-22 -149 -128.5 -238t-262.5 -89q-157 0 -240 89t-61 238zM125 294
q-19 -129 50 -203t208 -74q137 0 226 74t108 203l55 381h-127l-55 -381q-11 -79 -64 -128.5t-127 -49.5t-115.5 49.5t-30.5 128.5l55 381h-128zM295 771l109 171q13 20 33 12l124 -48q27 -14 6 -38l-107 -123q-9 -10 -22 -10h-126q0 1 -4 0t-9 1t-9 5t-3 11t8 19zM359 785
h73l76 86l-75 29zM489 771l109 171q13 20 33 12l124 -48q27 -14 6 -38l-107 -123q-9 -10 -22 -10h-126q0 1 -4 0t-9 1t-9 5t-3 11t8 19zM553 785h73l76 86l-75 29z" />
    <glyph glyph-name="uhungarumlaut" unicode="&#x171;" horiz-adv-x="663" 
d="M57 199l49 340q1 11 10 18t18 7h173q11 0 17.5 -8t4.5 -17l-42 -291q-12 -78 53 -78q37 1 62.5 28t32.5 75l39 266q1 11 10 18t18 7h173q11 0 17.5 -8t4.5 -17l-78 -539q-1 -11 -10.5 -18t-18.5 -7h-173q-11 0 -17 8t-4 17l3 19q-67 -51 -158 -51q-98 0 -148.5 63.5
t-35.5 167.5zM107 199q-12 -85 26 -133t116 -48q103 0 165 84q13 15 23 12t16 -14l6 -11l-9 -64h123l70 489h-123l-35 -241q-9 -64 -50.5 -108t-101.5 -45q-52 0 -78 36t-18 92l38 266h-123zM219 610l109 171q13 20 33 12l124 -48q27 -13 6 -38l-108 -123q-9 -10 -21 -10
h-126q0 1 -4 0t-9 1t-9 5t-3 11t8 19zM283 624h73l76 86l-75 29zM413 610l109 171q13 20 33 12l124 -48q27 -13 6 -38l-108 -123q-9 -10 -21 -10h-126q0 1 -4 0t-9 1t-9 5t-3 11t8 19zM477 624h73l76 86l-75 29z" />
    <glyph glyph-name="Uogonek" unicode="&#x172;" horiz-adv-x="759" 
d="M75 294l59 407q1 11 10.5 18t18.5 7h177q11 0 17 -8t4 -17l-59 -407q-9 -60 20 -94t84 -34q54 0 89.5 33t44.5 95l59 407q1 11 10.5 18t18.5 7h178q11 0 17 -8t4 -17l-59 -407q-16 -111 -82 -191t-167 -114q-47 -59 -52 -79q8 3 21 19q2 4 7 8t15 4.5t18 -10.5l37 -51
q10 -13 -2 -29q-58 -79 -141 -79q-43 0 -74 27t-23 81q5 38 36 87q-150 5 -228.5 93.5t-57.5 233.5zM125 294q-19 -129 50 -203t208 -74l29 1q22 1 26 -9t-3 -20l-7 -10q-47 -57 -53 -99q-8 -58 54 -58q46 0 83 40l-11 15q-22 -18 -45 -18q-15 0 -26 8q-17 13 -13 41
q6 39 71 116q5 6 14 10q90 28 146 94.5t70 165.5l55 382h-128l-55 -382q-11 -80 -64 -129t-127 -49q-75 0 -117 49t-30 129l55 382h-127z" />
    <glyph glyph-name="uogonek" unicode="&#x173;" horiz-adv-x="660" 
d="M58 199l49 340q1 11 10 18t18 7h172q11 0 17.5 -8t4.5 -17l-42 -291q-12 -78 57 -78q36 1 61 25.5t34 67.5l40 276q1 11 10 18t18 7h172q11 0 17.5 -8t4.5 -17l-78 -539q-1 -11 -10.5 -18t-18.5 -7h-28q-38 -47 -42 -65q10 4 22 19q2 4 7 8t15 4.5t18 -10.5l37 -51
q10 -13 -2 -29q-57 -79 -141 -79q-43 0 -74 27t-23 81q7 46 41 95h-2q-11 0 -17 8t-4 17l3 20q-68 -52 -160 -52q-99 0 -150 63.5t-36 167.5zM108 199q-12 -85 27 -133t117 -48q107 0 167 84q13 15 23 12t16 -14l6 -11l-9 -64h21q21 0 25 -9.5t-3 -19.5l-7 -10
q-53 -66 -58 -106q-8 -58 54 -58q46 0 83 40l-11 15q-24 -18 -45 -18q-16 0 -27 8q-17 14 -13 41q5 37 64 106q9 11 22 11h17l70 489h-122l-36 -252l-1 -1q-13 -60 -53.5 -100t-97.5 -41q-54 0 -81 35.5t-19 92.5l38 266h-122z" />
    <glyph glyph-name="Wcircumflex" unicode="&#x174;" horiz-adv-x="1081" 
d="M75 692q-1 4 -1.5 9.5t6 14.5t23.5 9h190q9 0 15 -6t7 -13l52 -423l171 423q9 19 26 19h174q9 0 15 -6t7 -13l52 -423l172 423q9 19 26 19h182h3.5t8 -1t8 -4.5t4 -10t-4.5 -17.5l-331 -700q-8 -17 -27 -17h-183q-8 0 -14 6t-7 13l-49 394l-165 -395q-8 -18 -27 -18h-184
q-17 0 -21 17zM131 675l119 -650h147l194 466q9 17 19.5 17t19.5 -9l9 -9l58 -465h146l308 650h-128l-202 -496q-7 -17 -19 -17t-20 8l-9 9l-61 496h-135l-201 -496q-7 -17 -19 -17t-21 8l-8 9l-61 496h-136zM425 786l135 151q10 10 21 10h138q13 0 19 -10l91 -151
q1 -2 2.5 -4.5t3 -9.5t0 -12t-9 -9.5t-21.5 -4.5h-124q-14 0 -20 11l-29 55l-45 -55q-9 -11 -22 -11h-124q-2 0 -5 0.5t-10 2.5t-10 6t-1.5 12t11.5 19zM497 796h60l62 74q8 9 15 12.5t11.5 2t8 -5t4.5 -6.5l2 -3l40 -74h61l-61 101h-113z" />
    <glyph glyph-name="wcircumflex" unicode="&#x175;" horiz-adv-x="937" 
d="M48 530q0 1 -0.5 3.5t-0.5 8.5t2 10.5t9 8t18 3.5h176q18 0 22 -18l44 -291l127 291q8 18 26 18h165q18 0 22 -18l44 -292l128 292q8 18 26 18h169q0 -1 4 0t8.5 -1t8 -5t3.5 -10.5t-5 -17.5l-275 -539q-8 -16 -26 -16h-171q-17 0 -21 18l-44 265l-120 -265
q-8 -18 -27 -18h-172q-18 0 -21 16zM105 514l108 -489h136l147 324q8 19 20 19t20 -10l8 -9l54 -324h135l249 489h-114l-155 -355q-8 -18 -20 -18t-20 9l-8 9l-55 355h-127l-154 -355q-8 -18 -20 -18t-20 9l-8 9l-55 355h-121zM357 625l135 151q10 10 21 10h138q13 0 19 -10
l91 -151q1 -2 2 -4.5t2.5 -9.5t0 -12t-9 -9.5t-21.5 -4.5h-124q-13 0 -19 11l-29 55l-45 -55q-9 -11 -23 -11h-124q-2 0 -5 0.5t-9.5 2.5t-10 6t-1.5 12t12 19zM428 635h61l62 74q8 9 15 12.5t11.5 2t8 -5t4.5 -6.5l2 -3l40 -74h61l-61 101h-113z" />
    <glyph glyph-name="Ycircumflex" unicode="&#x176;" horiz-adv-x="680" 
d="M72 688l-2 4t-1.5 8.5t1 11.5t9 9t20.5 4h178q14 0 20 -13l109 -265l182 265q10 13 23 13h178q0 -1 4.5 0t9.5 -1t9 -5t3 -11.5t-9 -19.5l-318 -468l-32 -220q-1 -11 -10.5 -18t-18.5 -7h-177q-11 0 -17 8t-4 17l31 215zM134 675l176 -442q2 -7 1 -12l-28 -196h127
l29 201q2 8 4 12l298 437h-122l-200 -292q-8 -12 -15.5 -16t-12.5 -2t-9 6t-6 8l-1 4l-119 292h-122zM251 786l135 151q10 10 21 10h138q13 0 19 -10l91 -151q1 -2 2.5 -4.5t3 -9.5t0 -12t-9 -9.5t-21.5 -4.5h-124q-14 0 -20 11l-29 55l-45 -55q-9 -11 -22 -11h-124
q-2 0 -5 0.5t-10 2.5t-10 6t-1.5 12t11.5 19zM323 796h60l62 74q8 9 15 12.5t11.5 2t8 -5t4.5 -6.5l2 -3l40 -74h61l-61 101h-113z" />
    <glyph glyph-name="ycircumflex" unicode="&#x177;" horiz-adv-x="580" 
d="M-52 -134l89 118q19 25 38 7q27 -24 52 -24q31 0 49 29l10 17l-145 516q-2 4 -3 10t5.5 15.5t25.5 9.5h178q18 0 21 -16l66 -291l136 290q8 17 26 17h172q0 -1 4 0t8.5 -1t8.5 -5t4 -10.5t-6 -17.5l-319 -595q-89 -162 -255 -162q-94 0 -163 60q-15 14 -2 33zM2 -140
q50 -37 118 -37q132 0 204 130l300 561h-117l-160 -341q-9 -20 -21 -20t-20 9l-7 10l-76 342h-123l138 -492q3 -10 -3 -21l-17 -27q-36 -57 -98 -57q-32 0 -61 18zM179 625l135 151q10 10 21 10h138q13 0 19 -10l91 -151q1 -2 2 -4.5t2.5 -9.5t0 -12t-9 -9.5t-21.5 -4.5
h-124q-13 0 -19 11l-29 55l-45 -55q-9 -11 -23 -11h-124q-2 0 -5 0.5t-9.5 2.5t-10 6t-1.5 12t12 19zM250 635h61l62 74q8 9 15 12.5t11.5 2t8 -5t4.5 -6.5l2 -3l40 -74h61l-61 101h-113z" />
    <glyph glyph-name="Ydieresis" unicode="&#x178;" horiz-adv-x="680" 
d="M72 688l-2 4t-1.5 8.5t1 11.5t9 9t20.5 4h178q14 0 20 -13l109 -265l182 265q10 13 23 13h178q0 -1 4.5 0t9.5 -1t9 -5t3 -11.5t-9 -19.5l-318 -468l-32 -220q-1 -11 -10.5 -18t-18.5 -7h-177q-11 0 -17 8t-4 17l31 215zM134 675l176 -442q2 -7 1 -12l-28 -196h127
l29 201q2 8 4 12l298 437h-122l-200 -292q-8 -12 -15.5 -16t-12.5 -2t-9 6t-6 8l-1 4l-119 292h-122zM264 852q7 44 40.5 73.5t77.5 29.5t69.5 -29.5t18.5 -73.5q-6 -44 -40 -73t-78 -29t-69 29t-19 73zM314 852q-4 -23 8.5 -37.5t36.5 -14.5t40.5 14.5t20.5 37.5
q4 24 -9 38.5t-37 14.5t-40 -14t-20 -39zM457 852q7 44 40.5 73.5t77.5 29.5t69.5 -29.5t18.5 -73.5q-6 -44 -40 -73t-78 -29t-69 29t-19 73zM507 852q-4 -23 8.5 -37.5t36.5 -14.5t40.5 14.5t20.5 37.5q4 24 -9 38.5t-37 14.5t-40 -14t-20 -39z" />
    <glyph glyph-name="Zacute" unicode="&#x179;" horiz-adv-x="675" 
d="M3 0l16 114q1 8 9 16l398 404h-308q-11 0 -17 8t-4 17l20 141q1 11 10 18t18 7h599q11 0 17.5 -8t4.5 -17l-17 -114q-2 -10 -8 -16l-397 -404h326q11 0 17 -8t4 -17l-20 -141q-1 -11 -10.5 -18t-18.5 -7h-618q-11 0 -17 8t-4 17zM57 25h568l13 91h-355q-22 0 -25.5 10
t4.5 20l7 11l432 438l11 80h-549l-13 -91h337q22 0 25.5 -10t-4.5 -20l-8 -11l-432 -438zM356 774l131 168q14 18 31 11l148 -55q2 0 4.5 -1t7.5 -5t7 -8.5t-2 -12t-15 -16.5l-147 -113q-7 -6 -17 -6h-132h-5t-9.5 1.5t-9.5 5t-2 12t10 19.5zM425 786h77l102 79l-92 34z" />
    <glyph glyph-name="zacute" unicode="&#x17a;" horiz-adv-x="553" 
d="M9 0l15 104q2 10 8 16l267 264h-200q-11 0 -17 8t-4 17l19 130q1 11 10 18t18 7h471q11 0 17.5 -8t4.5 -17l-15 -104q-1 -8 -9 -16l-266 -264h218q11 0 17.5 -8t4.5 -17l-19 -130q-1 -11 -10.5 -18t-18.5 -7h-490q-11 0 -17 8t-4 17zM63 25h440l11 80h-248
q-22 0 -25 10.5t5 20.5l7 10l301 298l10 70h-421l-11 -80h230q22 0 25 -10t-5 -20l-8 -11l-301 -298zM257 613l130 168q14 18 31 11l148 -55q2 0 4.5 -1t7.5 -5t7 -8.5t-2 -12t-15 -16.5l-146 -113q-8 -6 -17 -6h-132h-5t-9.5 1.5t-9.5 5t-2 12t10 19.5zM325 625h78l102 79
l-92 34z" />
    <glyph glyph-name="Zdotaccent" unicode="&#x17b;" horiz-adv-x="675" 
d="M3 0l16 114q1 8 9 16l398 404h-308q-11 0 -17 8t-4 17l20 141q1 11 10 18t18 7h599q11 0 17.5 -8t4.5 -17l-17 -114q-2 -10 -8 -16l-397 -404h326q11 0 17 -8t4 -17l-20 -141q-1 -11 -10.5 -18t-18.5 -7h-618q-11 0 -17 8t-4 17zM57 25h568l13 91h-355q-22 0 -25.5 10
t4.5 20l7 11l432 438l11 80h-549l-13 -91h337q22 0 25.5 -10t-4.5 -20l-8 -11l-432 -438zM360 855q8 50 46 83t87 33q50 0 78 -33.5t21 -82.5q-7 -50 -45 -83.5t-88 -33.5t-78 33.5t-21 83.5zM410 855q-4 -31 11.5 -49t45.5 -18t50 18t25 49q5 30 -10.5 48t-45.5 18t-51 -18
t-25 -48z" />
    <glyph glyph-name="zdotaccent" unicode="&#x17c;" horiz-adv-x="553" 
d="M9 0l15 104q2 10 8 16l267 264h-200q-11 0 -17 8t-4 17l19 130q1 11 10 18t18 7h471q11 0 17.5 -8t4.5 -17l-15 -104q-1 -8 -9 -16l-266 -264h218q11 0 17.5 -8t4.5 -17l-19 -130q-1 -11 -10.5 -18t-18.5 -7h-490q-11 0 -17 8t-4 17zM63 25h440l11 80h-248
q-22 0 -25 10.5t5 20.5l7 10l301 298l10 70h-421l-11 -80h230q22 0 25 -10t-5 -20l-8 -11l-301 -298zM261 694q8 50 46 83t87 33q50 0 78 -33.5t21 -82.5q-7 -50 -45 -83.5t-88 -33.5t-78 33.5t-21 83.5zM311 694q-4 -31 11 -49t45 -18t51 18t25 49q5 30 -10.5 48t-45.5 18
t-51 -18t-25 -48z" />
    <glyph glyph-name="Zcaron" unicode="&#x17d;" horiz-adv-x="675" 
d="M3 0l16 114q1 8 9 16l398 404h-308q-11 0 -17 8t-4 17l20 141q1 11 10 18t18 7h599q11 0 17.5 -8t4.5 -17l-17 -114q-2 -10 -8 -16l-397 -404h326q11 0 17 -8t4 -17l-20 -141q-1 -11 -10.5 -18t-18.5 -7h-618q-11 0 -17 8t-4 17zM57 25h568l13 91h-355q-22 0 -25.5 10
t4.5 20l7 11l432 438l11 80h-549l-13 -91h337q22 0 25.5 -10t-4.5 -20l-8 -11l-432 -438zM263 907q-1 2 -2.5 4.5t-3 9.5t0 12t9 9.5t21.5 4.5h135q15 0 20 -11l31 -61l49 61q9 11 22 11h135h5t10 -2.5t10 -6t1.5 -12t-11.5 -19.5l-145 -164q-9 -10 -21 -10h-150
q-13 0 -19 10zM331 897l67 -114h125l101 114h-72l-66 -81q-13 -16 -23 -16t-14 8l-4 8l-42 81h-72z" />
    <glyph glyph-name="zcaron" unicode="&#x17e;" horiz-adv-x="553" 
d="M9 0l15 104q2 10 8 16l267 264h-200q-11 0 -17 8t-4 17l19 130q1 11 10 18t18 7h471q11 0 17.5 -8t4.5 -17l-15 -104q-1 -8 -9 -16l-266 -264h218q11 0 17.5 -8t4.5 -17l-19 -130q-1 -11 -10.5 -18t-18.5 -7h-490q-11 0 -17 8t-4 17zM63 25h440l11 80h-248
q-22 0 -25 10.5t5 20.5l7 10l301 298l10 70h-421l-11 -80h230q22 0 25 -10t-5 -20l-8 -11l-301 -298zM163 745q-1 2 -2 4.5t-2.5 9.5t0 12t9 9.5t21.5 4.5h135q14 0 19 -11l32 -61l49 61q9 11 22 11h135h5t9.5 -2.5t10 -6t1.5 -12t-12 -19.5l-144 -164q-9 -10 -22 -10h-150
q-12 0 -18 10zM231 735l68 -114h125l100 114h-72l-65 -81q-13 -16 -23.5 -16t-14.5 8l-4 8l-42 81h-72z" />
    <glyph glyph-name="florin" unicode="&#x192;" horiz-adv-x="410" 
d="M-159 -154l61 119q1 1 2 3.5t5 7.5t9 7t12 0.5t14 -8.5q17 -17 39 -17q32 -2 44 46l87 326h-44q-10 0 -17.5 6.5t-3.5 21.5l30 111q7 22 28 22h51l22 87q24 90 98.5 145t170.5 54q97 0 155 -43q16 -11 4 -32l-75 -118q-18 -27 -39 -9q-19 16 -45 18q-43 0 -55 -46
l-15 -56h94q10 0 17.5 -6.5t3.5 -21.5l-30 -111q-7 -22 -28 -22h-100l-95 -357q-25 -91 -96.5 -146t-168.5 -54q-84 2 -131 44q-14 12 -4 29zM-105 -153q38 -22 89 -24q79 -1 133.5 41t74.5 115l101 379q2 9 10.5 15.5t17.5 6.5h100l16 61h-93q-15 0 -19.5 9t-1.5 19l22 84
q11 40 42 65.5t71 24.5q23 -1 48 -13l46 73q-48 24 -110 24q-79 1 -136.5 -41t-76.5 -114l-28 -109q-2 -9 -10.5 -15.5t-17.5 -6.5h-51l-17 -61h45q15 0 19.5 -9t1.5 -19l-95 -354q-11 -40 -36.5 -65.5t-64.5 -24.5q-19 0 -43 11z" />
    <glyph glyph-name="Scommaaccent" unicode="&#x218;" horiz-adv-x="644" 
d="M12 117l88 137q19 29 40 8q43 -43 107.5 -71t114.5 -28q66 0 72 36q2 16 -16.5 27t-50 19.5t-69.5 18t-75 26.5t-66 41.5t-43.5 67t-6.5 98.5q15 109 109.5 172.5t228.5 63.5q164 0 277 -82q17 -12 5 -32l-87 -139q-6 -9 -16 -13t-21 2q-48 30 -105.5 50t-95.5 20
q-52 0 -56 -26q-2 -17 23.5 -30t65 -21.5t85 -26t83 -41.5t58 -72.5t11.5 -113.5q-16 -114 -113 -176.5t-226 -62.5q-91 0 -176 31.5t-143 86.5q-13 11 -2 30zM65 113q53 -43 125.5 -68.5t149.5 -25.5q115 0 192 50.5t90 138.5q7 46 -8.5 79.5t-45.5 52t-68 32t-75.5 24.5
t-68.5 24t-48 36.5t-12 56.5q6 39 38.5 57.5t74.5 18.5q93 0 204 -63l59 94q-102 63 -235 63q-119 0 -193.5 -51t-86.5 -135q-6 -40 5.5 -70t35.5 -47t55 -30.5t64.5 -21.5t65 -19.5t56 -23.5t37 -34t8.5 -52q-6 -43 -43 -64.5t-86 -21.5q-55 0 -118 24.5t-113 66.5z
M179 -285l51 89q-25 29 -18 72q7 46 42.5 77t81.5 31q44 0 71 -29t20 -78q-5 -40 -38 -80l-88 -106q-9 -11 -22 -11h-82q0 1 -4 0t-8.5 1t-8.5 5t-3.5 10.5t6.5 18.5zM242 -270h31l79 95q21 26 25 52q4 27 -10 42t-39 15q-26 0 -44 -15.5t-22 -42.5q-4 -28 16 -44
q14 -12 4 -31z" />
    <glyph glyph-name="scommaaccent" unicode="&#x219;" horiz-adv-x="513" 
d="M5 80l71 110q17 25 38 9q81 -62 168 -62q35 0 35 12q1 6 -13.5 11.5t-38.5 11t-52.5 13.5t-56 23t-49 35.5t-32 55t-3.5 77.5q14 93 91 144.5t181 51.5q126 0 226 -64q18 -12 4 -34l-75 -112q-6 -9 -16.5 -12t-18.5 2q-87 51 -151 51q-27 0 -30 -12q-1 -6 19.5 -12
t51 -11.5t65.5 -20.5t63.5 -35.5t44 -58.5t7.5 -88q-14 -93 -93.5 -145t-187.5 -52q-152 0 -245 81q-15 13 -3 31zM59 77q79 -59 202 -59q93 0 153 39t70 108q5 33 -7 57.5t-35 38.5t-51.5 24t-58 18.5t-53 18.5t-36.5 27.5t-10 41.5q5 32 30.5 47t56.5 15q66 0 153 -45
l46 68q-82 46 -182 46q-89 0 -147 -39t-68 -107q-7 -46 17.5 -74.5t63.5 -41.5t78 -24t65 -32t21 -55q-5 -33 -32 -47.5t-60 -14.5q-90 0 -174 56zM103 -285l51 89q-25 29 -18 72q7 46 42.5 77t81.5 31q44 0 71 -29t20 -78q-5 -40 -38 -80l-88 -106q-9 -11 -22 -11h-82
q0 1 -4 0t-8.5 1t-8.5 5t-3.5 10.5t6.5 18.5zM166 -270h31l79 95q21 26 25 52q4 27 -10 42t-39 15q-26 0 -44 -15.5t-22 -42.5q-4 -28 16 -44q14 -12 4 -31z" />
    <glyph glyph-name="Tcommaaccent" unicode="&#x21a;" horiz-adv-x="611" 
d="M62 557l21 144q1 11 10.5 18t18.5 7h598q11 0 17 -8t4 -17l-21 -144q-1 -11 -10 -18t-18 -7h-186l-77 -532q-1 -11 -10.5 -18t-18.5 -7h-178q-11 0 -17 8t-4 17l77 532h-184q-11 0 -17.5 8t-4.5 17zM116 582h184q9 0 15.5 -7t5.5 -18l-76 -532h128l76 532q2 9 10 17t19 8
h186l13 94h-548zM141 -285l51 89q-25 29 -18 72q7 46 42.5 77t81.5 31q44 0 71 -29t20 -78q-5 -40 -38 -80l-88 -106q-9 -11 -22 -11h-82q0 1 -4 0t-8.5 1t-8.5 5t-3.5 10.5t6.5 18.5zM204 -270h31l79 95q21 26 25 52q4 27 -10 42t-39 15q-26 0 -44 -15.5t-22 -42.5
q-4 -28 16 -44q14 -12 4 -31z" />
    <glyph glyph-name="tcommaaccent" unicode="&#x21b;" horiz-adv-x="435" 
d="M52 401l16 113q1 11 10.5 18t18.5 7h50l18 125q1 11 10 18t18 7h172q11 0 17.5 -8t4.5 -17l-18 -124h116q11 0 17 -8t4 -17l-16 -114q-1 -11 -10.5 -18t-18.5 -7h-116l-27 -186q-4 -23 0.5 -29t19.5 -5q22 0 60 16q28 11 32 -16l16 -120q3 -19 -15 -29q-72 -40 -163 -40
q-89 0 -139 52t-37 144l31 213h-50q-11 0 -17 8t-4 17zM105 426h50q9 0 16 -7t6 -18l-35 -238q-10 -71 25.5 -108.5t107.5 -37.5q62 0 118 25l-10 74q-30 -10 -51 -10q-35 -1 -52 22t-12 62l31 211q2 9 9.5 17t18.5 8h116l10 64h-116q-9 0 -16 7t-6 18l18 124h-122l-18 -125
q-2 -9 -10 -17t-19 -8h-50zM106 -285l51 89q-25 29 -18 72q7 46 42.5 77t81.5 31q44 0 71 -29t20 -78q-5 -40 -38 -80l-88 -106q-9 -11 -22 -11h-82q0 1 -4 0t-8.5 1t-8.5 5t-3.5 10.5t6.5 18.5zM169 -270h31l79 95q21 26 25 52q4 27 -10 42t-39 15q-26 0 -44 -15.5
t-22 -42.5q-4 -28 16 -44q14 -12 4 -31z" />
    <glyph glyph-name="dotlessj" unicode="&#x237;" horiz-adv-x="308" 
d="M-136 -158l57 119q14 29 38 14q25 -16 49 -16q17 -1 26 8t13 38l77 534q1 11 10 18t18 7h173q11 0 17.5 -8t4.5 -17l-81 -559q-13 -95 -80.5 -151t-165.5 -55q-87 2 -149 38q-17 10 -7 30zM-81 -153q48 -22 109 -23q79 -1 128.5 40t59.5 116l77 534h-123l-73 -509
q-6 -43 -31 -70t-65 -26q-24 0 -48 9z" />
    <glyph glyph-name="circumflex" unicode="&#x2c6;" 
d="M63 626l135 151q10 10 21 10h138q13 0 19 -10l91 -151q1 -2 2 -4.5t2.5 -9.5t0 -12t-9 -9.5t-21.5 -4.5h-124q-13 0 -19 11l-29 55l-45 -55q-9 -11 -23 -11h-124q-2 0 -5 0.5t-9.5 2.5t-10 6t-1.5 12t12 19zM135 636h60l62 74q8 9 15 12.5t11.5 2t8 -5t4.5 -6.5l2 -3
l40 -74h61l-61 101h-113z" />
    <glyph glyph-name="caron" unicode="&#x2c7;" 
d="M67 747q-1 2 -2.5 4.5t-3 9.5t0 12t9 9.5t21.5 4.5h135q15 0 20 -11l31 -61l49 61q9 11 22 11h135h5t10 -2.5t10 -6t1.5 -12t-11.5 -19.5l-145 -164q-9 -10 -21 -10h-150q-13 0 -19 10zM135 737l67 -114h125l101 114h-72l-66 -81q-13 -16 -23 -16t-14 8l-4 8l-42 81h-72z
" />
    <glyph glyph-name="firsttonechinese" unicode="&#x2c9;" 
d="M102 632l17 116q1 11 10 18t18 7h278q11 0 17.5 -8t4.5 -17l-17 -116q-1 -11 -10.5 -18t-18.5 -7h-278q-11 0 -17 8t-4 17zM156 657h228l9 66h-228z" />
    <glyph glyph-name="breve" unicode="&#x2d8;" 
d="M95 758q1 10 9 18t20 8h108q10 0 16.5 -7t5.5 -16q-1 -35 26 -35t36 35q2 10 10.5 16.5t17.5 6.5h108q10 0 16.5 -7t4.5 -19q-16 -81 -75.5 -131.5t-139.5 -50.5t-125.5 50.5t-37.5 131.5zM145 734q3 -51 34.5 -79.5t85.5 -28.5q55 0 95 28.5t57 79.5h-60
q-12 -26 -34.5 -42t-50.5 -16q-27 0 -45 16t-23 42h-59z" />
    <glyph glyph-name="dotaccent" unicode="&#x2d9;" 
d="M159 694q8 50 46 83t87 33q50 0 78 -33.5t21 -82.5q-7 -50 -45 -83.5t-88 -33.5t-78 33.5t-21 83.5zM209 694q-4 -31 11 -49t45 -18t51 18t25 49q5 30 -10.5 48t-45.5 18t-51 -18t-25 -48z" />
    <glyph glyph-name="ring" unicode="&#x2da;" 
d="M129 694q9 60 57.5 102.5t109.5 42.5t97.5 -42.5t27.5 -102.5t-57.5 -102.5t-109.5 -42.5t-97.5 42.5t-27.5 102.5zM179 694q-6 -39 18 -67t64 -28t72 28t38 67t-18 67t-64 28t-72 -28t-38 -67zM197 694q5 32 31 54.5t58 22.5t52 -22.5t15 -54.5q-4 -32 -30.5 -54.5
t-58.5 -22.5t-51.5 22.5t-15.5 54.5zM247 694q-2 -11 5 -19t19 -8t21 8t11 19t-5.5 19t-18.5 8t-20.5 -8t-11.5 -19z" />
    <glyph glyph-name="ogonek" unicode="&#x2db;" 
d="M36 -120q10 66 87 153q9 10 21 10h84h5t10 -2.5t10 -6t1.5 -12t-11.5 -19.5q-61 -70 -66 -93q10 4 22 19q2 4 7 8t15 4.5t18 -10.5l37 -51q10 -13 -2 -29q-58 -79 -141 -79q-43 0 -74 27t-23 81zM86 -120q-8 -58 54 -58q46 0 83 40l-11 15q-24 -18 -45 -18q-14 0 -25 8
q-18 14 -15 41q4 30 46 85h-23q-57 -67 -64 -113z" />
    <glyph glyph-name="tilde" unicode="&#x2dc;" 
d="M61 621q12 85 52 133t105 48q20 0 38 -5t30 -12t21 -13.5t14 -11.5l5 -5h3q2 2 5 17q1 11 10.5 18t18.5 7h105q11 0 17 -8t4 -17q-12 -85 -51 -132.5t-104 -47.5q-20 0 -38.5 5t-30.5 12t-21 13.5t-14 11.5l-5 5h-2q-3 -3 -6 -18q-1 -11 -10 -18t-18 -7h-106
q-11 0 -17.5 8t-4.5 17zM116 646h58q8 23 26 34q15 9 32 9q28 0 57 -23.5t53 -23.5q37 0 59 23t34 82h-57q-9 -21 -25 -32q-14 -10 -34 -10q-28 0 -57 23.5t-52 23.5q-37 0 -59.5 -23.5t-34.5 -82.5z" />
    <glyph glyph-name="hungarumlaut" unicode="&#x2dd;" 
d="M36 611l109 171q13 20 33 12l124 -48q27 -14 6 -38l-107 -123q-9 -10 -22 -10h-126q0 1 -4 0t-9 1t-9 5t-3 11t8 19zM100 625h73l76 86l-75 29zM230 611l109 171q13 20 33 12l124 -48q27 -14 6 -38l-107 -123q-9 -10 -22 -10h-126q0 1 -4 0t-9 1t-9 5t-3 11t8 19z
M294 625h73l76 86l-75 29z" />
    </font>
</defs>
</svg>
